<?xml version="1.0" encoding="utf-8" standalone="no"?>
<!DOCTYPE svg PUBLIC "-//W3C//DTD SVG 1.1//EN"
  "http://www.w3.org/Graphics/SVG/1.1/DTD/svg11.dtd">
<svg xmlns:xlink="http://www.w3.org/1999/xlink" width="129.6pt" height="129.6pt" viewBox="0 0 129.6 129.6" xmlns="http://www.w3.org/2000/svg" version="1.1">
 <metadata>
  <rdf:RDF xmlns:dc="http://purl.org/dc/elements/1.1/" xmlns:cc="http://creativecommons.org/ns#" xmlns:rdf="http://www.w3.org/1999/02/22-rdf-syntax-ns#">
   <cc:Work>
    <dc:type rdf:resource="http://purl.org/dc/dcmitype/StillImage"/>
    <dc:date>2023-11-15T20:39:44.925912</dc:date>
    <dc:format>image/svg+xml</dc:format>
    <dc:creator>
     <cc:Agent>
      <dc:title>Matplotlib v3.7.1, https://matplotlib.org/</dc:title>
     </cc:Agent>
    </dc:creator>
   </cc:Work>
  </rdf:RDF>
 </metadata>
 <defs>
  <style type="text/css">*{stroke-linejoin: round; stroke-linecap: butt}</style>
 </defs>
 <g id="figure_1">
  <g id="patch_1">
   <path d="M 0 129.6 
L 129.6 129.6 
L 129.6 0 
L 0 0 
z
" style="fill: #ffffff"/>
  </g>
  <g id="axes_1">
   <g id="patch_2">
    <path d="M 10.8 118.8 
L 118.8 118.8 
L 118.8 10.8 
L 10.8 10.8 
z
" style="fill: #ffffff"/>
   </g>
   <g id="PatchCollection_1">
    <path d="M 100.969524 97.362518 
C 103.474771 97.362518 105.877747 96.367173 107.649224 94.595696 
C 109.420701 92.824219 110.416046 90.421243 110.416046 87.915996 
C 110.416046 85.410749 109.420701 83.007773 107.649224 81.236296 
C 105.877747 79.464819 103.474771 78.469474 100.969524 78.469474 
C 98.464277 78.469474 96.061301 79.464819 94.289824 81.236296 
C 92.518347 83.007773 91.523002 85.410749 91.523002 87.915996 
C 91.523002 90.421243 92.518347 92.824219 94.289824 94.595696 
C 96.061301 96.367173 98.464277 97.362518 100.969524 97.362518 
z
" clip-path="url(#pd969362323)" style="fill: #808080; stroke: #808080; stroke-width: 0.24"/>
    <path d="M 20.323796 99.735203 
C 21.854482 99.735203 23.32268 99.127055 24.405038 98.044697 
C 25.487396 96.962339 26.095543 95.494141 26.095543 93.963456 
C 26.095543 92.432771 25.487396 90.964573 24.405038 89.882215 
C 23.32268 88.799857 21.854482 88.191709 20.323796 88.191709 
C 18.793111 88.191709 17.324913 88.799857 16.242555 89.882215 
C 15.160197 90.964573 14.55205 92.432771 14.55205 93.963456 
C 14.55205 95.494141 15.160197 96.962339 16.242555 98.044697 
C 17.324913 99.127055 18.793111 99.735203 20.323796 99.735203 
z
" clip-path="url(#pd969362323)" style="fill: #808080; stroke: #808080; stroke-width: 0.24"/>
    <path d="M 90.708228 45.513695 
C 92.286344 45.513695 93.800037 44.886703 94.915934 43.770806 
C 96.031831 42.654909 96.658823 41.141216 96.658823 39.5631 
C 96.658823 37.984984 96.031831 36.471291 94.915934 35.355394 
C 93.800037 34.239497 92.286344 33.612505 90.708228 33.612505 
C 89.130112 33.612505 87.616419 34.239497 86.500522 35.355394 
C 85.384625 36.471291 84.757633 37.984984 84.757633 39.5631 
C 84.757633 41.141216 85.384625 42.654909 86.500522 43.770806 
C 87.616419 44.886703 89.130112 45.513695 90.708228 45.513695 
z
" clip-path="url(#pd969362323)" style="fill: #808080; stroke: #808080; stroke-width: 0.24"/>
    <path d="M 105.370308 54.059713 
C 106.816637 54.059713 108.203923 53.485081 109.226632 52.462372 
C 110.249341 51.439663 110.823973 50.052377 110.823973 48.606048 
C 110.823973 47.159719 110.249341 45.772433 109.226632 44.749724 
C 108.203923 43.727015 106.816637 43.152383 105.370308 43.152383 
C 103.923979 43.152383 102.536693 43.727015 101.513984 44.749724 
C 100.491275 45.772433 99.916643 47.159719 99.916643 48.606048 
C 99.916643 50.052377 100.491275 51.439663 101.513984 52.462372 
C 102.536693 53.485081 103.923979 54.059713 105.370308 54.059713 
z
" clip-path="url(#pd969362323)" style="fill: #808080; stroke: #808080; stroke-width: 0.24"/>
    <path d="M 87.158268 26.402933 
C 88.603844 26.402933 89.990407 25.8286 91.012583 24.806423 
C 92.03476 23.784247 92.609093 22.397684 92.609093 20.952108 
C 92.609093 19.506532 92.03476 18.119969 91.012583 17.097793 
C 89.990407 16.075616 88.603844 15.501283 87.158268 15.501283 
C 85.712692 15.501283 84.326129 16.075616 83.303953 17.097793 
C 82.281776 18.119969 81.707443 19.506532 81.707443 20.952108 
C 81.707443 22.397684 82.281776 23.784247 83.303953 24.806423 
C 84.326129 25.8286 85.712692 26.402933 87.158268 26.402933 
z
" clip-path="url(#pd969362323)" style="fill: #808080; stroke: #808080; stroke-width: 0.24"/>
   </g>
   <g id="PatchCollection_2"/>
   <g id="PatchCollection_3">
    <path d="M 35.329722 77.186412 
C 33.927903 74.750717 32.068736 72.710607 30.161683 71.515392 
C 28.254629 70.320177 26.455391 70.067441 25.16023 70.812848 
C 23.865069 71.558254 23.179728 73.240943 23.255147 75.490321 
C 23.330566 77.7397 24.160586 80.372116 25.562406 82.807812 
C 26.964225 85.243507 28.823392 87.283617 30.730445 88.478832 
C 32.637499 89.674047 34.436737 89.926783 35.731898 89.181376 
C 37.027059 88.43597 37.7124 86.753281 37.636981 84.503903 
C 37.561562 82.254524 36.731542 79.622108 35.329722 77.186412 
z
" clip-path="url(#pd969362323)" style="fill: #808080; stroke: #808080; stroke-width: 0.24"/>
    <path d="M 105.902174 26.680589 
C 107.151934 24.300437 107.794013 21.72516 107.687001 19.521933 
C 107.57999 17.318706 106.732624 15.667412 105.331527 14.93173 
C 103.93043 14.196048 102.089994 14.436043 100.215556 15.598859 
C 98.341117 16.761674 96.585714 18.752372 95.335954 21.132523 
C 94.086194 23.512675 93.444115 26.087952 93.551127 28.291179 
C 93.658138 30.494406 94.505504 32.1457 95.906601 32.881382 
C 97.307698 33.617064 99.148134 33.377069 101.022572 32.214253 
C 102.897011 31.051438 104.652414 29.06074 105.902174 26.680589 
z
" clip-path="url(#pd969362323)" style="fill: #808080; stroke: #808080; stroke-width: 0.24"/>
    <path d="M 20.91625 41.680058 
C 21.585602 45.401594 23.21814 48.793054 25.454317 51.107508 
C 27.690494 53.421963 30.347736 54.470447 32.840817 54.022044 
C 35.333897 53.573641 37.459267 51.664961 38.748838 48.716369 
C 40.038409 45.767778 40.386893 42.020013 39.717542 38.298478 
C 39.04819 34.576942 37.415652 31.185482 35.179475 28.871028 
C 32.943298 26.556573 30.286056 25.508089 27.792975 25.956492 
C 25.299895 26.404895 23.174525 28.313575 21.884954 31.262167 
C 20.595383 34.210758 20.246899 37.958523 20.91625 41.680058 
z
" clip-path="url(#pd969362323)" style="fill: #808080; stroke: #808080; stroke-width: 0.24"/>
    <path d="M 58.407622 93.677538 
C 60.715451 90.884043 62.173029 87.579989 62.459341 84.493057 
C 62.745654 81.406124 61.837325 78.788346 59.934403 77.216259 
C 58.031481 75.644171 55.289332 75.246128 52.311881 76.109794 
C 49.334431 76.973459 46.364775 79.028319 44.056946 81.821814 
C 41.749117 84.615309 40.291539 87.919363 40.005227 91.006295 
C 39.718914 94.093228 40.627243 96.711006 42.530165 98.283093 
C 44.433087 99.855181 47.175236 100.253224 50.152687 99.389558 
C 53.130137 98.525893 56.099793 96.471033 58.407622 93.677538 
z
" clip-path="url(#pd969362323)" style="fill: #808080; stroke: #808080; stroke-width: 0.24"/>
    <path d="M 105.562081 59.84356 
C 103.698208 59.245827 101.765099 59.125651 100.188499 59.5095 
C 98.611898 59.893349 97.520529 60.749883 97.154752 61.890461 
C 96.788975 63.031039 97.178654 64.362538 98.237968 65.59171 
C 99.297282 66.820882 100.939742 67.847371 102.803615 68.445104 
C 104.667488 69.042837 106.600597 69.163013 108.177197 68.779164 
C 109.753798 68.395315 110.845167 67.538781 111.210944 66.398203 
C 111.576721 65.257625 111.187042 63.926126 110.127728 62.696954 
C 109.068414 61.467782 107.425954 60.441293 105.562081 59.84356 
z
" clip-path="url(#pd969362323)" style="fill: #808080; stroke: #808080; stroke-width: 0.24"/>
    <path d="M 25.971858 21.809942 
C 26.813769 20.119019 27.200367 18.287536 27.046509 16.718857 
C 26.892652 15.150178 26.210899 13.972378 25.151401 13.444853 
C 24.091902 12.917329 22.741161 13.08315 21.396661 13.905797 
C 20.052162 14.728444 18.823677 16.140751 17.981766 17.831674 
C 17.139855 19.522597 16.753257 21.35408 16.907115 22.922759 
C 17.060972 24.491438 17.742725 25.669238 18.802223 26.196763 
C 19.861722 26.724287 21.212463 26.558466 22.556963 25.735819 
C 23.901462 24.913172 25.129947 23.500865 25.971858 21.809942 
z
" clip-path="url(#pd969362323)" style="fill: #808080; stroke: #808080; stroke-width: 0.24"/>
    <path d="M 81.339933 69.568934 
C 81.888517 71.97925 83.056326 74.145139 84.586163 75.589588 
C 86.116 77.034038 87.88296 77.639115 89.497892 77.271559 
C 91.112824 76.904003 92.443875 75.593823 93.197896 73.629571 
C 93.951918 71.665319 94.067348 69.207367 93.518763 66.79705 
C 92.970179 64.386734 91.80237 62.220845 90.272533 60.776396 
C 88.742696 59.331946 86.975736 58.726869 85.360804 59.094425 
C 83.745872 59.461981 82.414821 60.772161 81.6608 62.736413 
C 80.906778 64.700665 80.791348 67.158617 81.339933 69.568934 
z
" clip-path="url(#pd969362323)" style="fill: #808080; stroke: #808080; stroke-width: 0.24"/>
    <path d="M 28.154681 103.793977 
C 26.41987 103.918075 24.782524 104.409591 23.603249 105.160274 
C 22.423975 105.910956 21.799055 106.859515 21.86612 107.797042 
C 21.933185 108.734568 22.68676 109.584518 23.96088 110.159698 
C 25.234999 110.734879 26.925636 110.98833 28.660447 110.864231 
C 30.395258 110.740133 32.032604 110.248617 33.211879 109.497934 
C 34.391153 108.747252 35.016073 107.798693 34.949008 106.861166 
C 34.881943 105.92364 34.128368 105.07369 32.854248 104.49851 
C 31.580129 103.923329 29.889492 103.669878 28.154681 103.793977 
z
" clip-path="url(#pd969362323)" style="fill: #808080; stroke: #808080; stroke-width: 0.24"/>
    <path d="M 106.478262 102.636446 
C 106.991925 104.430892 107.983546 106.009266 109.234733 107.023948 
C 110.485919 108.03863 111.894517 108.406776 113.150299 108.047306 
C 114.406081 107.687837 115.406517 106.630101 115.931275 105.107052 
C 116.456032 103.584003 116.462265 101.719993 115.948602 99.925546 
C 115.434939 98.1311 114.443318 96.552726 113.192131 95.538044 
C 111.940945 94.523362 110.532347 94.155216 109.276565 94.514686 
C 108.020783 94.874155 107.020347 95.931891 106.495589 97.45494 
C 105.970832 98.977989 105.964599 100.841999 106.478262 102.636446 
z
" clip-path="url(#pd969362323)" style="fill: #808080; stroke: #808080; stroke-width: 0.24"/>
    <path d="M 51.744754 27.612729 
C 53.582632 27.037649 55.203714 26.032975 56.250977 24.819975 
C 57.29824 23.606975 57.686179 22.284685 57.329355 21.144323 
C 56.972531 20.003961 55.900077 19.138634 54.348189 18.738919 
C 52.796301 18.339204 50.891683 18.437736 49.053806 19.012815 
C 47.215928 19.587895 45.594846 20.592569 44.547583 21.805569 
C 43.50032 23.018569 43.112381 24.340859 43.469205 25.481221 
C 43.826029 26.621583 44.898483 27.48691 46.450371 27.886625 
C 48.002259 28.28634 49.906877 28.187808 51.744754 27.612729 
z
" clip-path="url(#pd969362323)" style="fill: #808080; stroke: #808080; stroke-width: 0.24"/>
    <path d="M 78.142685 75.02842 
C 79.457453 73.480065 80.339902 71.673394 80.595681 70.006305 
C 80.85146 68.339216 80.459687 66.947818 79.506644 66.138552 
C 78.553602 65.329286 77.117102 65.168224 75.513517 65.690839 
C 73.909932 66.213453 72.270188 67.377074 70.955419 68.925428 
C 69.640651 70.473783 68.758202 72.280454 68.502423 73.947543 
C 68.246644 75.614632 68.638417 77.00603 69.59146 77.815296 
C 70.544502 78.624562 71.981002 78.785624 73.584587 78.263009 
C 75.188172 77.740395 76.827916 76.576774 78.142685 75.02842 
z
" clip-path="url(#pd969362323)" style="fill: #808080; stroke: #808080; stroke-width: 0.24"/>
    <path d="M 43.192891 105.810201 
C 41.144562 106.821786 39.451172 108.341465 38.485671 110.034547 
C 37.520171 111.727628 37.361387 113.455879 38.044292 114.838672 
C 38.727197 116.221465 40.196033 117.145901 42.127307 117.408385 
C 44.058581 117.670868 46.294612 117.249968 48.342941 116.238383 
C 50.39127 115.226797 52.08466 113.707118 53.050161 112.014037 
C 54.015661 110.320955 54.174445 108.592704 53.49154 107.209911 
C 52.808635 105.827118 51.339799 104.902682 49.408525 104.640198 
C 47.477251 104.377715 45.24122 104.798615 43.192891 105.810201 
z
" clip-path="url(#pd969362323)" style="fill: #808080; stroke: #808080; stroke-width: 0.24"/>
    <path d="M 36.595334 21.155131 
C 38.259077 20.382257 39.647877 19.195277 40.455866 17.855611 
C 41.263855 16.515945 41.425065 15.13297 40.903991 14.011271 
C 40.382917 12.889571 39.222103 12.120728 37.677204 11.874072 
C 36.132305 11.627415 34.329456 11.923082 32.665714 12.695957 
C 31.001971 13.468831 29.613171 14.655811 28.805182 15.995477 
C 27.997193 17.335143 27.835983 18.718118 28.357057 19.839817 
C 28.878131 20.961517 30.038945 21.73036 31.583844 21.977016 
C 33.128743 22.223673 34.931592 21.928006 36.595334 21.155131 
z
" clip-path="url(#pd969362323)" style="fill: #808080; stroke: #808080; stroke-width: 0.24"/>
    <path d="M 71.935899 54.64457 
C 71.731428 56.767847 71.977934 58.847071 72.621125 60.424317 
C 73.264317 62.001563 74.251681 62.948056 75.365762 63.055342 
C 76.479844 63.162628 77.629682 62.421947 78.562039 60.996426 
C 79.494397 59.570904 80.13315 57.576931 80.337621 55.453654 
C 80.542092 53.330377 80.295586 51.251153 79.652395 49.673907 
C 79.009203 48.096661 78.021839 47.150168 76.907758 47.042882 
C 75.793676 46.935596 74.643838 47.676277 73.711481 49.101798 
C 72.779123 50.52732 72.14037 52.521293 71.935899 54.64457 
z
" clip-path="url(#pd969362323)" style="fill: #808080; stroke: #808080; stroke-width: 0.24"/>
    <path d="M 112.620675 36.23487 
C 114.271832 35.730763 115.749685 34.900374 116.728755 33.926587 
C 117.707824 32.952799 118.108174 31.915119 117.841631 31.042082 
C 117.575089 30.169046 116.663415 29.531933 115.307397 29.271061 
C 113.951379 29.010188 112.261729 29.146855 110.610573 29.650962 
C 108.959416 30.155069 107.481563 30.985458 106.502493 31.959245 
C 105.523424 32.933033 105.123074 33.970713 105.389617 34.84375 
C 105.656159 35.716786 106.567833 36.353899 107.923851 36.614771 
C 109.279869 36.875644 110.969519 36.738977 112.620675 36.23487 
z
" clip-path="url(#pd969362323)" style="fill: #808080; stroke: #808080; stroke-width: 0.24"/>
    <path d="M 27.423462 66.009839 
C 29.203449 64.951537 30.646072 63.491233 31.433612 61.950541 
C 32.221151 60.40985 32.289306 58.914562 31.623068 57.793998 
C 30.956829 56.673433 29.610592 56.019081 27.88085 55.975055 
C 26.151107 55.931029 24.179085 56.500923 22.399098 57.559225 
C 20.619111 58.617527 19.176488 60.077831 18.388948 61.618523 
C 17.601409 63.159214 17.533254 64.654502 18.199492 65.775066 
C 18.865731 66.895631 20.211968 67.549983 21.94171 67.594009 
C 23.671453 67.638035 25.643475 67.068141 27.423462 66.009839 
z
" clip-path="url(#pd969362323)" style="fill: #808080; stroke: #808080; stroke-width: 0.24"/>
   </g>
   <g id="PatchCollection_4">
    <path d="M 89.832908 103.847473 
L 90.043954 104.400577 
L 90.19977 104.971704 
L 90.298856 105.555353 
L 90.340257 106.145904 
L 90.323575 106.73767 
L 90.248969 107.324951 
L 90.11716 107.902091 
L 89.929415 108.463533 
L 89.687544 109.003869 
L 89.393875 109.517895 
L 89.051237 110.000662 
L 88.662929 110.44752 
L 88.232691 110.854165 
L 87.764667 111.216681 
L 87.263364 111.531578 
L 86.733609 111.795822 
L 86.180505 112.006868 
L 85.609378 112.162684 
L 85.025729 112.26177 
L 84.435177 112.303171 
L 83.843412 112.286489 
L 83.256131 112.211884 
L 82.678991 112.080074 
L 82.117549 111.892329 
L 81.577213 111.650458 
L 81.063187 111.356789 
L 80.58042 111.014151 
L 80.133562 110.625843 
L 79.726917 110.195605 
L 79.3644 109.727581 
L 79.049504 109.226278 
L 78.78526 108.696523 
L 74.346964 98.584703 
L 74.135918 98.031599 
L 73.980102 97.460472 
L 73.881016 96.876823 
L 73.839615 96.286272 
L 73.856297 95.694506 
L 73.930903 95.107225 
L 74.062712 94.530085 
L 74.250457 93.968643 
L 74.492328 93.428307 
L 74.785997 92.914281 
L 75.128635 92.431514 
L 75.516943 91.984656 
L 75.947181 91.578011 
L 76.415205 91.215495 
L 76.916508 90.900598 
L 77.446263 90.636354 
L 77.999367 90.425308 
L 78.570494 90.269492 
L 79.154143 90.170406 
L 79.744695 90.129005 
L 80.33646 90.145687 
L 80.923741 90.220292 
L 81.500881 90.352102 
L 82.062323 90.539847 
L 82.602659 90.781718 
L 83.116685 91.075387 
L 83.599452 91.418025 
L 84.04631 91.806333 
L 84.452955 92.236571 
L 84.815472 92.704595 
L 85.130368 93.205898 
L 85.394612 93.735653 
L 89.832908 103.847473 
" clip-path="url(#pd969362323)" style="fill: #808080; stroke: #808080; stroke-width: 0.24"/>
    <path d="M 63.210301 84.729483 
L 63.400244 84.124442 
L 63.648576 83.540932 
L 63.952907 82.984572 
L 64.310305 82.460721 
L 64.717328 81.974423 
L 65.170057 81.530363 
L 65.664132 81.132816 
L 66.194793 80.785611 
L 66.756932 80.492091 
L 67.345134 80.255085 
L 67.953734 80.076873 
L 68.576871 79.959173 
L 69.208544 79.903118 
L 69.84267 79.909247 
L 70.473142 79.977503 
L 71.093887 80.107226 
L 71.698929 80.297169 
L 72.282439 80.545501 
L 72.838799 80.849832 
L 73.36265 81.20723 
L 73.848947 81.614253 
L 74.293008 82.066982 
L 74.690555 82.561057 
L 75.03776 83.091718 
L 75.331279 83.653857 
L 75.568286 84.242059 
L 75.746497 84.850659 
L 75.864197 85.473796 
L 75.920253 86.105469 
L 75.914123 86.739595 
L 75.845868 87.370067 
L 75.716144 87.990812 
L 72.285851 101.144565 
L 72.095908 101.749606 
L 71.847576 102.333116 
L 71.543245 102.889476 
L 71.185847 103.413327 
L 70.778824 103.899625 
L 70.326095 104.343685 
L 69.83202 104.741232 
L 69.301359 105.088437 
L 68.73922 105.381957 
L 68.151018 105.618963 
L 67.542418 105.797175 
L 66.919281 105.914875 
L 66.287608 105.97093 
L 65.653482 105.964801 
L 65.02301 105.896545 
L 64.402265 105.766822 
L 63.797223 105.576879 
L 63.213713 105.328547 
L 62.657353 105.024216 
L 62.133502 104.666818 
L 61.647205 104.259795 
L 61.203144 103.807066 
L 60.805597 103.312991 
L 60.458392 102.78233 
L 60.164873 102.220191 
L 59.927866 101.631989 
L 59.749655 101.023389 
L 59.631955 100.400252 
L 59.575899 99.768579 
L 59.582029 99.134453 
L 59.650284 98.503981 
L 59.780008 97.883236 
L 63.210301 84.729483 
" clip-path="url(#pd969362323)" style="fill: #808080; stroke: #808080; stroke-width: 0.24"/>
    <path d="M 61.567163 30.578836 
L 61.034466 30.379731 
L 60.523851 30.129371 
L 60.040234 29.830167 
L 59.588272 29.485002 
L 59.172319 29.097198 
L 58.796381 28.670492 
L 58.464077 28.208991 
L 58.178608 27.717142 
L 57.942724 27.19968 
L 57.758696 26.661589 
L 57.628295 26.108051 
L 57.552779 25.544397 
L 57.532875 24.976056 
L 57.568773 24.4085 
L 57.660129 23.847195 
L 57.806062 23.297549 
L 58.005168 22.764852 
L 58.255528 22.254237 
L 58.554731 21.770619 
L 58.899897 21.318658 
L 59.2877 20.902705 
L 59.714407 20.526767 
L 60.175907 20.194463 
L 60.667757 19.908994 
L 61.185219 19.67311 
L 61.72331 19.489081 
L 62.276848 19.358681 
L 62.840501 19.283165 
L 63.408843 19.263261 
L 63.976399 19.299159 
L 64.537703 19.390515 
L 65.08735 19.536448 
L 76.136941 23.058932 
L 76.669638 23.258037 
L 77.180253 23.508397 
L 77.66387 23.807601 
L 78.115832 24.152766 
L 78.531785 24.54057 
L 78.907723 24.967276 
L 79.240027 25.428777 
L 79.525496 25.920626 
L 79.76138 26.438088 
L 79.945408 26.976179 
L 80.075809 27.529717 
L 80.151325 28.093371 
L 80.171229 28.661712 
L 80.135331 29.229268 
L 80.043975 29.790573 
L 79.898042 30.340219 
L 79.698936 30.872916 
L 79.448576 31.383531 
L 79.149373 31.867149 
L 78.804207 32.31911 
L 78.416404 32.735063 
L 77.989697 33.111001 
L 77.528197 33.443305 
L 77.036347 33.728774 
L 76.518885 33.964658 
L 75.980794 34.148687 
L 75.427256 34.279087 
L 74.863603 34.354603 
L 74.295261 34.374507 
L 73.727705 34.338609 
L 73.166401 34.247253 
L 72.616754 34.10132 
L 61.567163 30.578836 
" clip-path="url(#pd969362323)" style="fill: #808080; stroke: #808080; stroke-width: 0.24"/>
    <path d="M 42.78223 55.335147 
L 43.09145 55.298998 
L 43.402724 55.293332 
L 43.713055 55.318203 
L 44.019454 55.373372 
L 44.31897 55.458308 
L 44.608718 55.572193 
L 44.885909 55.713929 
L 45.147872 55.882153 
L 45.392085 56.075243 
L 45.616196 56.291341 
L 45.818046 56.528364 
L 45.995692 56.784031 
L 46.147423 57.05588 
L 46.271778 57.341291 
L 46.367558 57.637517 
L 46.433842 57.941705 
L 46.469992 58.250925 
L 46.475658 58.5622 
L 46.450787 58.872531 
L 46.395617 59.178929 
L 46.310682 59.478445 
L 46.196797 59.768194 
L 46.055061 60.045384 
L 45.886837 60.307347 
L 45.693747 60.55156 
L 45.477649 60.775671 
L 45.240626 60.977522 
L 44.984959 61.155168 
L 44.71311 61.306899 
L 44.427699 61.431253 
L 44.131472 61.527034 
L 43.827285 61.593318 
L 36.032066 62.895045 
L 35.722846 62.931194 
L 35.411572 62.93686 
L 35.101241 62.911989 
L 34.794842 62.85682 
L 34.495326 62.771884 
L 34.205578 62.657999 
L 33.928387 62.516263 
L 33.666424 62.348039 
L 33.422211 62.154949 
L 33.1981 61.938851 
L 32.99625 61.701828 
L 32.818604 61.446161 
L 32.666873 61.174312 
L 32.542518 60.888901 
L 32.446738 60.592675 
L 32.380454 60.288487 
L 32.344304 59.979267 
L 32.338638 59.667992 
L 32.363509 59.357661 
L 32.418679 59.051263 
L 32.503614 58.751747 
L 32.617499 58.461998 
L 32.759235 58.184808 
L 32.927459 57.922845 
L 33.120549 57.678632 
L 33.336647 57.454521 
L 33.57367 57.25267 
L 33.829337 57.075024 
L 34.101186 56.923293 
L 34.386597 56.798939 
L 34.682824 56.703158 
L 34.987011 56.636874 
L 42.78223 55.335147 
" clip-path="url(#pd969362323)" style="fill: #808080; stroke: #808080; stroke-width: 0.24"/>
   </g>
   <g id="PatchCollection_5">
    <path d="M 68.804854 56.117845 
L 51.669558 57.133487 
L 52.205906 66.182435 
L 69.341202 65.166793 
z
" clip-path="url(#pd969362323)" style="fill: #808080; stroke: #808080; stroke-width: 0.24"/>
    <path d="M 84.834491 58.645092 
L 99.625914 56.733863 
L 98.520133 48.17598 
L 83.72871 50.087209 
z
" clip-path="url(#pd969362323)" style="fill: #808080; stroke: #808080; stroke-width: 0.24"/>
   </g>
   <g id="matplotlib.axis_1"/>
   <g id="matplotlib.axis_2"/>
   <g id="patch_3">
    <path d="M 10.8 118.8 
L 10.8 10.8 
" style="fill: none; stroke: #000000; stroke-width: 0.8; stroke-linejoin: miter; stroke-linecap: square"/>
   </g>
   <g id="patch_4">
    <path d="M 118.8 118.8 
L 118.8 10.8 
" style="fill: none; stroke: #000000; stroke-width: 0.8; stroke-linejoin: miter; stroke-linecap: square"/>
   </g>
   <g id="patch_5">
    <path d="M 10.8 118.8 
L 118.8 118.8 
" style="fill: none; stroke: #000000; stroke-width: 0.8; stroke-linejoin: miter; stroke-linecap: square"/>
   </g>
   <g id="patch_6">
    <path d="M 10.8 10.8 
L 118.8 10.8 
" style="fill: none; stroke: #000000; stroke-width: 0.8; stroke-linejoin: miter; stroke-linecap: square"/>
   </g>
  </g>
 </g>
 <defs>
  <clipPath id="pd969362323">
   <rect x="10.8" y="10.8" width="108" height="108"/>
  </clipPath>
 </defs>
</svg>
