<?xml version="1.0" encoding="utf-8" standalone="no"?>
<!DOCTYPE svg PUBLIC "-//W3C//DTD SVG 1.1//EN"
  "http://www.w3.org/Graphics/SVG/1.1/DTD/svg11.dtd">
<svg xmlns:xlink="http://www.w3.org/1999/xlink" width="460.8pt" height="316.8pt" viewBox="0 0 460.8 316.8" xmlns="http://www.w3.org/2000/svg" version="1.1">
 <metadata>
  <rdf:RDF xmlns:dc="http://purl.org/dc/elements/1.1/" xmlns:cc="http://creativecommons.org/ns#" xmlns:rdf="http://www.w3.org/1999/02/22-rdf-syntax-ns#">
   <cc:Work>
    <dc:type rdf:resource="http://purl.org/dc/dcmitype/StillImage"/>
    <dc:date>2024-01-04T22:04:48.501980</dc:date>
    <dc:format>image/svg+xml</dc:format>
    <dc:creator>
     <cc:Agent>
      <dc:title>Matplotlib v3.7.2, https://matplotlib.org/</dc:title>
     </cc:Agent>
    </dc:creator>
   </cc:Work>
  </rdf:RDF>
 </metadata>
 <defs>
  <style type="text/css">*{stroke-linejoin: round; stroke-linecap: butt}</style>
 </defs>
 <g id="figure_1">
  <g id="patch_1">
   <path d="M 0 316.8 
L 460.8 316.8 
L 460.8 0 
L 0 0 
z
" style="fill: #ffffff"/>
  </g>
  <g id="axes_1">
   <g id="patch_2">
    <path d="M 31.88 258.395709 
L 450 258.395709 
L 450 58.404291 
L 31.88 58.404291 
z
" style="fill: #ffffff"/>
   </g>
   <g id="PatchCollection_1">
    <path d="M 203.146011 130.888619 
L 334.992359 130.888619 
L 334.992359 75.952641 
L 203.146011 75.952641 
z
" clip-path="url(#p7a0e9eee76)" style="fill: #ffffff; stroke: #0000ff; stroke-width: 3"/>
    <path d="M 80.08942 117.703984 
L 181.561963 135.596331 
L 188.972272 93.570381 
L 87.499729 75.678034 
z
" clip-path="url(#p7a0e9eee76)" style="fill: #ff0000; stroke: #ff0000; stroke-width: 2"/>
    <path d="M 330.59748 141.875814 
L 430.994545 118.697325 
L 421.394924 77.116796 
L 320.997859 100.295285 
z
" clip-path="url(#p7a0e9eee76)" style="fill: #ff0000; stroke: #ff0000; stroke-width: 2"/>
   </g>
   <g id="PatchCollection_2">
    <path d="M 50.885455 212.655328 
L 153.923375 212.655328 
L 153.923375 169.981061 
L 50.885455 169.981061 
z
" clip-path="url(#p7a0e9eee76)" style="fill: #ffffff; stroke: #000000; stroke-width: 0.5"/>
    <path d="M 55.875855 213.396902 
L 158.825585 209.134719 
L 157.060355 166.496976 
L 54.110626 170.75916 
z
" clip-path="url(#p7a0e9eee76)" style="fill: #ffffff; stroke: #000000; stroke-width: 0.5"/>
    <path d="M 60.340331 213.500571 
L 163.202887 207.491596 
L 160.714205 164.889958 
L 57.85165 170.898933 
z
" clip-path="url(#p7a0e9eee76)" style="fill: #ffffff; stroke: #000000; stroke-width: 0.5"/>
    <path d="M 64.424931 213.26193 
L 167.287486 207.252955 
L 164.798805 164.651316 
L 61.936249 170.660291 
z
" clip-path="url(#p7a0e9eee76)" style="fill: #ffffff; stroke: #000000; stroke-width: 0.5"/>
    <path d="M 68.509531 213.023288 
L 171.372086 207.014313 
L 168.883404 164.412674 
L 66.020849 170.421649 
z
" clip-path="url(#p7a0e9eee76)" style="fill: #ffffff; stroke: #000000; stroke-width: 0.5"/>
    <path d="M 72.594131 212.784646 
L 175.456686 206.775671 
L 172.968004 164.174032 
L 70.105449 170.183007 
z
" clip-path="url(#p7a0e9eee76)" style="fill: #ffffff; stroke: #000000; stroke-width: 0.5"/>
    <path d="M 77.437416 213.118011 
L 180.041573 203.673436 
L 176.13 161.178816 
L 73.525843 170.623391 
z
" clip-path="url(#p7a0e9eee76)" style="fill: #ffffff; stroke: #000000; stroke-width: 0.5"/>
    <path d="M 82.307771 213.393099 
L 184.452078 199.852291 
L 178.844007 157.548123 
L 76.699699 171.08893 
z
" clip-path="url(#p7a0e9eee76)" style="fill: #ffffff; stroke: #000000; stroke-width: 0.5"/>
    <path d="M 87.185344 213.473128 
L 188.706354 195.85786 
L 181.4108 153.811837 
L 79.889791 171.427106 
z
" clip-path="url(#p7a0e9eee76)" style="fill: #ffffff; stroke: #000000; stroke-width: 0.5"/>
    <path d="M 91.226972 212.87369 
L 192.640336 194.648906 
L 185.092345 152.647466 
L 83.678981 170.87225 
z
" clip-path="url(#p7a0e9eee76)" style="fill: #ffffff; stroke: #000000; stroke-width: 0.5"/>
    <path d="M 95.120615 212.173805 
L 196.533978 193.949022 
L 188.985987 151.947582 
L 87.572624 170.172365 
z
" clip-path="url(#p7a0e9eee76)" style="fill: #ffffff; stroke: #000000; stroke-width: 0.5"/>
    <path d="M 99.014257 211.474141 
L 200.42762 193.249357 
L 192.879629 151.247917 
L 91.466266 169.472701 
z
" clip-path="url(#p7a0e9eee76)" style="fill: #ffffff; stroke: #000000; stroke-width: 0.5"/>
    <path d="M 102.907899 210.774476 
L 204.321263 192.549692 
L 196.773272 150.548252 
L 95.359908 168.773036 
z
" clip-path="url(#p7a0e9eee76)" style="fill: #ffffff; stroke: #000000; stroke-width: 0.5"/>
    <path d="M 106.801542 210.074811 
L 208.214905 191.850028 
L 200.666914 149.848588 
L 99.253551 168.073371 
z
" clip-path="url(#p7a0e9eee76)" style="fill: #ffffff; stroke: #000000; stroke-width: 0.5"/>
    <path d="M 110.695184 209.374927 
L 212.108548 191.150143 
L 204.560557 149.148703 
L 103.147193 167.373487 
z
" clip-path="url(#p7a0e9eee76)" style="fill: #ffffff; stroke: #000000; stroke-width: 0.5"/>
    <path d="M 114.588826 208.675262 
L 216.00219 190.450479 
L 208.454199 148.449039 
L 107.040835 166.673822 
z
" clip-path="url(#p7a0e9eee76)" style="fill: #ffffff; stroke: #000000; stroke-width: 0.5"/>
    <path d="M 119.403118 208.501534 
L 220.062222 186.488862 
L 210.945437 144.799807 
L 110.286332 166.812478 
z
" clip-path="url(#p7a0e9eee76)" style="fill: #ffffff; stroke: #000000; stroke-width: 0.5"/>
    <path d="M 124.364107 208.166359 
L 224.042175 182.068547 
L 213.233485 140.785798 
L 113.555417 166.88361 
z
" clip-path="url(#p7a0e9eee76)" style="fill: #ffffff; stroke: #000000; stroke-width: 0.5"/>
    <path d="M 127.66065 206.817134 
L 227.930609 183.094816 
L 218.105755 141.56693 
L 117.835796 165.289247 
z
" clip-path="url(#p7a0e9eee76)" style="fill: #ffffff; stroke: #000000; stroke-width: 0.5"/>
    <path d="M 130.576598 205.338186 
L 231.730244 185.723062 
L 223.606428 143.829187 
L 122.452783 163.444311 
z
" clip-path="url(#p7a0e9eee76)" style="fill: #ffffff; stroke: #000000; stroke-width: 0.5"/>
    <path d="M 133.55073 203.979449 
L 235.419914 188.504229 
L 229.010685 146.314006 
L 127.141501 161.789226 
z
" clip-path="url(#p7a0e9eee76)" style="fill: #ffffff; stroke: #000000; stroke-width: 0.5"/>
    <path d="M 135.661368 202.846433 
L 238.076729 191.536846 
L 233.392742 149.120418 
L 130.97738 160.430005 
z
" clip-path="url(#p7a0e9eee76)" style="fill: #ffffff; stroke: #000000; stroke-width: 0.5"/>
    <path d="M 139.323263 202.320833 
L 241.816246 191.737752 
L 237.433148 149.289176 
L 134.940166 159.872257 
z
" clip-path="url(#p7a0e9eee76)" style="fill: #ffffff; stroke: #000000; stroke-width: 0.5"/>
    <path d="M 143.151202 201.925733 
L 245.644185 191.342652 
L 241.261087 148.894076 
L 138.768105 159.477157 
z
" clip-path="url(#p7a0e9eee76)" style="fill: #ffffff; stroke: #000000; stroke-width: 0.5"/>
    <path d="M 146.979141 201.530414 
L 249.472123 190.947333 
L 245.089026 148.498757 
L 142.596044 159.081838 
z
" clip-path="url(#p7a0e9eee76)" style="fill: #ffffff; stroke: #000000; stroke-width: 0.5"/>
    <path d="M 151.501742 201.618699 
L 253.635838 188.001082 
L 247.995955 145.701143 
L 145.861859 159.31876 
z
" clip-path="url(#p7a0e9eee76)" style="fill: #ffffff; stroke: #000000; stroke-width: 0.5"/>
    <path d="M 155.456278 200.692552 
L 257.875479 189.417787 
L 253.205913 146.999769 
L 150.786712 158.274534 
z
" clip-path="url(#p7a0e9eee76)" style="fill: #ffffff; stroke: #000000; stroke-width: 0.5"/>
    <path d="M 159.955315 200.197249 
L 262.374516 188.922485 
L 257.70495 146.504466 
L 155.285749 157.779231 
z
" clip-path="url(#p7a0e9eee76)" style="fill: #ffffff; stroke: #000000; stroke-width: 0.5"/>
    <path d="M 165.099827 200.148757 
L 267.17123 186.068921 
L 261.339913 143.794947 
L 159.268511 157.874783 
z
" clip-path="url(#p7a0e9eee76)" style="fill: #ffffff; stroke: #000000; stroke-width: 0.5"/>
    <path d="M 170.190462 200.200941 
L 271.585239 181.873029 
L 263.994536 139.879287 
L 162.59976 158.207199 
z
" clip-path="url(#p7a0e9eee76)" style="fill: #ffffff; stroke: #000000; stroke-width: 0.5"/>
    <path d="M 175.278819 200.040558 
L 275.820249 177.496514 
L 266.48339 135.856195 
L 165.94196 158.400238 
z
" clip-path="url(#p7a0e9eee76)" style="fill: #ffffff; stroke: #000000; stroke-width: 0.5"/>
    <path d="M 179.310037 199.138663 
L 279.848964 176.58346 
L 270.507483 134.944177 
L 169.968556 157.499381 
z
" clip-path="url(#p7a0e9eee76)" style="fill: #ffffff; stroke: #000000; stroke-width: 0.5"/>
    <path d="M 183.33847 198.234857 
L 283.877397 175.679653 
L 274.535916 134.040371 
L 173.996989 156.595574 
z
" clip-path="url(#p7a0e9eee76)" style="fill: #ffffff; stroke: #000000; stroke-width: 0.5"/>
    <path d="M 187.366901 197.33105 
L 287.905828 174.775847 
L 278.564347 133.136564 
L 178.02542 155.691767 
z
" clip-path="url(#p7a0e9eee76)" style="fill: #ffffff; stroke: #000000; stroke-width: 0.5"/>
    <path d="M 191.395337 196.427243 
L 291.934264 173.87204 
L 282.592783 132.232757 
L 182.053856 154.787961 
z
" clip-path="url(#p7a0e9eee76)" style="fill: #ffffff; stroke: #000000; stroke-width: 0.5"/>
    <path d="M 195.737306 195.703614 
L 295.98835 171.901489 
L 286.130443 130.381436 
L 185.879398 154.183561 
z
" clip-path="url(#p7a0e9eee76)" style="fill: #ffffff; stroke: #000000; stroke-width: 0.5"/>
    <path d="M 199.722476 194.749781 
L 299.984245 170.992871 
L 290.145064 129.468377 
L 189.883295 153.225286 
z
" clip-path="url(#p7a0e9eee76)" style="fill: #ffffff; stroke: #000000; stroke-width: 0.5"/>
    <path d="M 203.342489 193.587381 
L 303.948251 171.332186 
L 294.731021 129.665223 
L 194.125259 151.920418 
z
" clip-path="url(#p7a0e9eee76)" style="fill: #ffffff; stroke: #000000; stroke-width: 0.5"/>
    <path d="M 206.335144 192.125703 
L 307.77826 174.067261 
L 300.299161 132.053499 
L 198.856046 150.111941 
z
" clip-path="url(#p7a0e9eee76)" style="fill: #ffffff; stroke: #000000; stroke-width: 0.5"/>
    <path d="M 209.385879 190.789483 
L 311.491374 176.959049 
L 305.763351 134.670955 
L 203.657856 148.501389 
z
" clip-path="url(#p7a0e9eee76)" style="fill: #ffffff; stroke: #000000; stroke-width: 0.5"/>
    <path d="M 212.22373 189.678882 
L 314.780985 179.737928 
L 310.663831 137.262733 
L 208.106577 147.203687 
z
" clip-path="url(#p7a0e9eee76)" style="fill: #ffffff; stroke: #000000; stroke-width: 0.5"/>
    <path d="M 215.161978 188.727723 
L 318.006324 182.414764 
L 315.391744 139.820667 
L 212.547398 146.133626 
z
" clip-path="url(#p7a0e9eee76)" style="fill: #ffffff; stroke: #000000; stroke-width: 0.5"/>
    <path d="M 218.913006 188.497431 
L 321.757353 182.184473 
L 319.142773 139.590376 
L 216.298426 145.903334 
z
" clip-path="url(#p7a0e9eee76)" style="fill: #ffffff; stroke: #000000; stroke-width: 0.5"/>
    <path d="M 222.664035 188.267359 
L 325.508381 181.954401 
L 322.893801 139.360304 
L 220.049455 145.673262 
z
" clip-path="url(#p7a0e9eee76)" style="fill: #ffffff; stroke: #000000; stroke-width: 0.5"/>
    <path d="M 226.136759 187.80582 
L 329.051618 182.771465 
L 326.966586 140.148165 
L 224.051726 145.182519 
z
" clip-path="url(#p7a0e9eee76)" style="fill: #ffffff; stroke: #000000; stroke-width: 0.5"/>
    <path d="M 229.059173 186.942535 
L 332.091001 185.822092 
L 331.626958 143.150348 
L 228.595129 144.270791 
z
" clip-path="url(#p7a0e9eee76)" style="fill: #ffffff; stroke: #000000; stroke-width: 0.5"/>
    <path d="M 232.01249 186.190732 
L 335.012492 188.985818 
L 336.170107 146.327254 
L 233.170105 143.532168 
z
" clip-path="url(#p7a0e9eee76)" style="fill: #ffffff; stroke: #000000; stroke-width: 0.5"/>
    <path d="M 234.991936 185.551537 
L 337.811363 192.258126 
L 340.58897 149.674349 
L 237.769542 142.96776 
z
" clip-path="url(#p7a0e9eee76)" style="fill: #ffffff; stroke: #000000; stroke-width: 0.5"/>
    <path d="M 237.993799 185.026128 
L 340.484164 195.634524 
L 344.877746 153.187032 
L 242.387381 142.578636 
z
" clip-path="url(#p7a0e9eee76)" style="fill: #ffffff; stroke: #000000; stroke-width: 0.5"/>
    <path d="M 241.013224 184.615287 
L 343.02652 199.11013 
L 349.029715 156.860221 
L 247.016419 142.365378 
z
" clip-path="url(#p7a0e9eee76)" style="fill: #ffffff; stroke: #000000; stroke-width: 0.5"/>
    <path d="M 244.046157 184.319357 
L 345.435045 202.679816 
L 353.039227 160.688512 
L 251.650339 142.328054 
z
" clip-path="url(#p7a0e9eee76)" style="fill: #ffffff; stroke: #000000; stroke-width: 0.5"/>
    <path d="M 247.187212 184.214242 
L 347.876686 206.08758 
L 356.935765 164.385947 
L 256.246291 142.512609 
z
" clip-path="url(#p7a0e9eee76)" style="fill: #ffffff; stroke: #000000; stroke-width: 0.5"/>
    <path d="M 250.269559 184.13941 
L 350.043815 209.867038 
L 360.69919 168.544452 
L 260.924934 142.816824 
z
" clip-path="url(#p7a0e9eee76)" style="fill: #ffffff; stroke: #000000; stroke-width: 0.5"/>
    <path d="M 253.352069 184.183282 
L 352.063597 213.727269 
L 364.299559 172.844823 
L 265.58803 143.300836 
z
" clip-path="url(#p7a0e9eee76)" style="fill: #ffffff; stroke: #000000; stroke-width: 0.5"/>
    <path d="M 256.431014 184.345372 
L 353.933931 217.661949 
L 367.732351 177.280063 
L 270.229434 143.963486 
z
" clip-path="url(#p7a0e9eee76)" style="fill: #ffffff; stroke: #000000; stroke-width: 0.5"/>
    <path d="M 259.501247 184.625814 
L 355.651428 221.665733 
L 370.991911 181.844097 
L 274.841729 144.804177 
z
" clip-path="url(#p7a0e9eee76)" style="fill: #ffffff; stroke: #000000; stroke-width: 0.5"/>
    <path d="M 262.558456 185.024132 
L 357.213779 225.732644 
L 374.073649 186.53012 
L 279.418326 145.821608 
z
" clip-path="url(#p7a0e9eee76)" style="fill: #ffffff; stroke: #000000; stroke-width: 0.5"/>
    <path d="M 265.598044 185.539415 
L 358.618549 229.856439 
L 376.972923 191.330992 
L 283.952418 147.013968 
z
" clip-path="url(#p7a0e9eee76)" style="fill: #ffffff; stroke: #000000; stroke-width: 0.5"/>
    <path d="M 268.615603 186.171297 
L 359.863834 234.031232 
L 379.685543 196.239791 
L 288.437312 148.379856 
z
" clip-path="url(#p7a0e9eee76)" style="fill: #ffffff; stroke: #000000; stroke-width: 0.5"/>
    <path d="M 271.606633 186.918693 
L 360.947712 238.250795 
L 382.207456 201.249222 
L 292.866378 149.91712 
z
" clip-path="url(#p7a0e9eee76)" style="fill: #ffffff; stroke: #000000; stroke-width: 0.5"/>
    <path d="M 273.104409 186.872805 
L 360.406276 241.601198 
L 383.072631 205.444186 
L 295.770764 150.715794 
z
" clip-path="url(#p7a0e9eee76)" style="fill: #ffffff; stroke: #000000; stroke-width: 0.5"/>
    <path d="M 269.665765 183.68597 
L 354.799377 241.729757 
L 378.838838 206.470752 
L 293.705227 148.426965 
z
" clip-path="url(#p7a0e9eee76)" style="fill: #ffffff; stroke: #000000; stroke-width: 0.5"/>
    <path d="M 266.352 180.369406 
L 349.191455 241.642873 
L 374.568523 207.334018 
L 291.729068 146.060551 
z
" clip-path="url(#p7a0e9eee76)" style="fill: #ffffff; stroke: #000000; stroke-width: 0.5"/>
    <path d="M 263.168275 176.927896 
L 343.591182 241.340387 
L 370.268311 208.032371 
L 289.845403 143.61988 
z
" clip-path="url(#p7a0e9eee76)" style="fill: #ffffff; stroke: #000000; stroke-width: 0.5"/>
    <path d="M 260.119011 173.366585 
L 338.006495 240.822889 
L 365.944252 208.564946 
L 288.056768 141.108642 
z
" clip-path="url(#p7a0e9eee76)" style="fill: #ffffff; stroke: #000000; stroke-width: 0.5"/>
    <path d="M 257.209014 169.690656 
L 332.445945 240.091063 
L 361.603034 208.930876 
L 286.366103 138.530469 
z
" clip-path="url(#p7a0e9eee76)" style="fill: #ffffff; stroke: #000000; stroke-width: 0.5"/>
    <path d="M 254.448559 165.914182 
L 326.929951 239.14847 
L 357.260722 209.129518 
L 284.77933 135.895231 
z
" clip-path="url(#p7a0e9eee76)" style="fill: #ffffff; stroke: #000000; stroke-width: 0.5"/>
    <path d="M 251.835053 162.034601 
L 321.454317 237.994927 
L 352.914106 209.161357 
L 283.294842 133.201031 
z
" clip-path="url(#p7a0e9eee76)" style="fill: #ffffff; stroke: #000000; stroke-width: 0.5"/>
    <path d="M 249.372006 158.057726 
L 316.026695 236.632311 
L 348.569209 209.026551 
L 281.914519 130.451966 
z
" clip-path="url(#p7a0e9eee76)" style="fill: #ffffff; stroke: #000000; stroke-width: 0.5"/>
    <path d="M 247.063527 153.989177 
L 310.655556 235.062396 
L 344.232905 208.72507 
L 280.640876 127.651851 
z
" clip-path="url(#p7a0e9eee76)" style="fill: #ffffff; stroke: #000000; stroke-width: 0.5"/>
    <path d="M 244.912779 149.835231 
L 305.34857 233.287781 
L 339.911345 208.257646 
L 279.475554 124.805095 
z
" clip-path="url(#p7a0e9eee76)" style="fill: #ffffff; stroke: #000000; stroke-width: 0.5"/>
    <path d="M 242.922864 145.601762 
L 300.113483 231.31084 
L 335.610824 207.624728 
L 278.420205 121.915649 
z
" clip-path="url(#p7a0e9eee76)" style="fill: #ffffff; stroke: #000000; stroke-width: 0.5"/>
    <path d="M 241.096581 141.295185 
L 294.958134 229.134505 
L 331.337737 206.827161 
L 277.476184 118.987841 
z
" clip-path="url(#p7a0e9eee76)" style="fill: #ffffff; stroke: #000000; stroke-width: 0.5"/>
    <path d="M 239.369523 137.183895 
L 290.639996 226.560355 
L 327.656223 205.326134 
L 276.385749 115.949675 
z
" clip-path="url(#p7a0e9eee76)" style="fill: #ffffff; stroke: #000000; stroke-width: 0.5"/>
    <path d="M 237.168181 135.03523 
L 291.829451 222.37914 
L 328.003875 199.740584 
L 273.342605 112.396674 
z
" clip-path="url(#p7a0e9eee76)" style="fill: #ffffff; stroke: #000000; stroke-width: 0.5"/>
    <path d="M 234.8864 132.972258 
L 292.857149 218.155621 
L 328.136759 194.146409 
L 270.16601 108.963046 
z
" clip-path="url(#p7a0e9eee76)" style="fill: #ffffff; stroke: #000000; stroke-width: 0.5"/>
    <path d="M 232.52704 130.99842 
L 293.722223 213.895721 
L 328.055036 188.551075 
L 266.859852 105.653773 
z
" clip-path="url(#p7a0e9eee76)" style="fill: #ffffff; stroke: #000000; stroke-width: 0.5"/>
    <path d="M 230.093656 129.116567 
L 294.423303 209.605756 
L 327.75877 182.962938 
L 263.429123 102.473749 
z
" clip-path="url(#p7a0e9eee76)" style="fill: #ffffff; stroke: #000000; stroke-width: 0.5"/>
    <path d="M 227.58995 127.329387 
L 294.959315 205.292081 
L 327.248407 177.390331 
L 259.879042 99.427637 
z
" clip-path="url(#p7a0e9eee76)" style="fill: #ffffff; stroke: #000000; stroke-width: 0.5"/>
    <path d="M 225.019551 125.639554 
L 295.329497 200.961028 
L 326.5247 171.841405 
L 256.214754 96.51993 
z
" clip-path="url(#p7a0e9eee76)" style="fill: #ffffff; stroke: #000000; stroke-width: 0.5"/>
    <path d="M 222.386248 124.049531 
L 295.533311 196.618947 
L 325.588719 166.324301 
L 252.441655 93.754885 
z
" clip-path="url(#p7a0e9eee76)" style="fill: #ffffff; stroke: #000000; stroke-width: 0.5"/>
    <path d="M 219.693763 122.561699 
L 295.570305 192.272269 
L 324.44169 160.847179 
L 248.565148 91.13661 
z
" clip-path="url(#p7a0e9eee76)" style="fill: #ffffff; stroke: #000000; stroke-width: 0.5"/>
    <path d="M 216.946417 121.178217 
L 295.440782 187.927358 
L 323.08566 155.418069 
L 244.591295 88.668928 
z
" clip-path="url(#p7a0e9eee76)" style="fill: #ffffff; stroke: #000000; stroke-width: 0.5"/>
    <path d="M 214.147807 119.901115 
L 295.144487 183.590602 
L 321.522176 150.044952 
L 240.525496 86.355465 
z
" clip-path="url(#p7a0e9eee76)" style="fill: #ffffff; stroke: #000000; stroke-width: 0.5"/>
    <path d="M 211.302343 118.732297 
L 294.682149 179.268411 
L 319.753834 144.735764 
L 236.374028 84.19965 
z
" clip-path="url(#p7a0e9eee76)" style="fill: #ffffff; stroke: #000000; stroke-width: 0.5"/>
    <path d="M 212.911653 120.77297 
L 298.551888 178.066628 
L 322.280675 142.597799 
L 236.640441 85.304141 
z
" clip-path="url(#p7a0e9eee76)" style="fill: #ffffff; stroke: #000000; stroke-width: 0.5"/>
    <path d="M 209.696665 119.739092 
L 297.673225 173.376187 
L 319.887607 136.939745 
L 231.911048 83.302649 
z
" clip-path="url(#p7a0e9eee76)" style="fill: #ffffff; stroke: #000000; stroke-width: 0.5"/>
    <path d="M 206.441305 118.841456 
L 296.598114 168.726953 
L 317.258732 131.387537 
L 227.101923 81.50204 
z
" clip-path="url(#p7a0e9eee76)" style="fill: #ffffff; stroke: #000000; stroke-width: 0.5"/>
    <path d="M 203.150911 118.08178 
L 295.328131 164.127119 
L 314.398305 125.950928 
L 222.221086 79.905589 
z
" clip-path="url(#p7a0e9eee76)" style="fill: #ffffff; stroke: #000000; stroke-width: 0.5"/>
    <path d="M 199.831367 117.461195 
L 293.865521 159.584716 
L 311.311432 120.639455 
L 217.277279 78.515934 
z
" clip-path="url(#p7a0e9eee76)" style="fill: #ffffff; stroke: #000000; stroke-width: 0.5"/>
    <path d="M 196.488708 116.980823 
L 292.212989 155.107915 
L 308.003735 115.46267 
L 212.279455 77.335578 
z
" clip-path="url(#p7a0e9eee76)" style="fill: #ffffff; stroke: #000000; stroke-width: 0.5"/>
    <path d="M 193.128784 116.64177 
L 290.373467 150.704721 
L 304.481006 110.429785 
L 207.236323 76.366834 
z
" clip-path="url(#p7a0e9eee76)" style="fill: #ffffff; stroke: #000000; stroke-width: 0.5"/>
    <path d="M 189.757571 116.444659 
L 288.350194 146.383058 
L 300.749505 105.549858 
L 202.156882 75.611459 
z
" clip-path="url(#p7a0e9eee76)" style="fill: #ffffff; stroke: #000000; stroke-width: 0.5"/>
    <path d="M 186.381021 116.389278 
L 286.146704 142.15013 
L 296.815839 100.831094 
L 197.050155 75.070243 
z
" clip-path="url(#p7a0e9eee76)" style="fill: #ffffff; stroke: #000000; stroke-width: 0.5"/>
    <path d="M 188.916361 117.835094 
L 289.678201 139.372612 
L 298.598196 97.641008 
L 197.836357 76.103489 
z
" clip-path="url(#p7a0e9eee76)" style="fill: #ffffff; stroke: #000000; stroke-width: 0.5"/>
    <path d="M 193.726585 119.633143 
L 295.305863 136.909234 
L 302.460943 94.839078 
L 200.881665 77.562988 
z
" clip-path="url(#p7a0e9eee76)" style="fill: #ffffff; stroke: #000000; stroke-width: 0.5"/>
    <path d="M 198.608287 121.227043 
L 300.824875 134.210966 
L 306.202306 91.876862 
L 203.985719 78.892939 
z
" clip-path="url(#p7a0e9eee76)" style="fill: #ffffff; stroke: #000000; stroke-width: 0.5"/>
    <path d="M 203.552795 122.614141 
L 306.225409 131.2829 
L 309.815669 88.759928 
L 207.143055 80.091169 
z
" clip-path="url(#p7a0e9eee76)" style="fill: #ffffff; stroke: #000000; stroke-width: 0.5"/>
    <path d="M 208.551307 123.791663 
L 311.497861 128.129884 
L 313.294582 85.493457 
L 210.348029 81.155236 
z
" clip-path="url(#p7a0e9eee76)" style="fill: #ffffff; stroke: #000000; stroke-width: 0.5"/>
    <path d="M 213.594834 124.757764 
L 316.632755 124.757764 
L 316.632755 82.083496 
L 213.594834 82.083496 
z
" clip-path="url(#p7a0e9eee76)" style="fill: #ffffff; stroke: #000000; stroke-width: 0.5"/>
   </g>
   <g id="PatchCollection_3">
    <path d="M 98.218293 191.318194 
L 93.274055 192.966274 
L 93.274055 191.867554 
L 71.299664 191.867554 
L 71.299664 190.768835 
L 93.274055 190.768835 
L 93.274055 189.670115 
z
" clip-path="url(#p7a0e9eee76)" style="fill: #ff0000; stroke: #ff0000; stroke-width: 0.24"/>
    <path d="M 102.285567 190.120099 
L 97.413733 191.971287 
L 97.368285 190.873508 
L 75.412702 191.782483 
L 75.367253 190.684704 
L 97.322836 189.775729 
L 97.277387 188.677949 
z
" clip-path="url(#p7a0e9eee76)" style="fill: #ff0000; stroke: #ff0000; stroke-width: 0.24"/>
    <path d="M 106.348271 189.439391 
L 101.508561 191.373004 
L 101.444486 190.276155 
L 79.507494 191.557659 
L 79.443418 190.46081 
L 101.38041 189.179305 
L 101.316335 188.082456 
z
" clip-path="url(#p7a0e9eee76)" style="fill: #ff0000; stroke: #ff0000; stroke-width: 0.24"/>
    <path d="M 110.432871 189.20075 
L 105.593161 191.134362 
L 105.529085 190.037513 
L 83.592093 191.319017 
L 83.528018 190.222168 
L 105.46501 188.940663 
L 105.400935 187.843814 
z
" clip-path="url(#p7a0e9eee76)" style="fill: #ff0000; stroke: #ff0000; stroke-width: 0.24"/>
    <path d="M 114.517471 188.962108 
L 109.67776 190.895721 
L 109.613685 189.798871 
L 87.676693 191.080376 
L 87.612618 189.983526 
L 109.54961 188.702021 
L 109.485535 187.605172 
z
" clip-path="url(#p7a0e9eee76)" style="fill: #ff0000; stroke: #ff0000; stroke-width: 0.24"/>
    <path d="M 118.602071 188.723466 
L 113.76236 190.657079 
L 113.698285 189.560229 
L 91.761293 190.841734 
L 91.697218 189.744884 
L 113.63421 188.46338 
L 113.570135 187.36653 
z
" clip-path="url(#p7a0e9eee76)" style="fill: #ff0000; stroke: #ff0000; stroke-width: 0.24"/>
    <path d="M 122.615209 187.532118 
L 117.842849 189.626454 
L 117.74214 188.53236 
L 95.860255 190.546558 
L 95.759545 189.452464 
L 117.64143 187.438266 
L 117.54072 186.344172 
z
" clip-path="url(#p7a0e9eee76)" style="fill: #ff0000; stroke: #ff0000; stroke-width: 0.24"/>
    <path d="M 126.426072 186.020733 
L 121.741297 188.30427 
L 121.596908 187.215079 
L 99.813093 190.102861 
L 99.668704 189.01367 
L 121.452519 186.125889 
L 121.30813 185.036698 
z
" clip-path="url(#p7a0e9eee76)" style="fill: #ff0000; stroke: #ff0000; stroke-width: 0.24"/>
    <path d="M 130.173578 184.358138 
L 125.583883 186.827217 
L 125.396047 185.744673 
L 103.74516 189.501395 
L 103.557324 188.41885 
L 125.208211 184.662129 
L 125.020375 183.579584 
z
" clip-path="url(#p7a0e9eee76)" style="fill: #ff0000; stroke: #ff0000; stroke-width: 0.24"/>
    <path d="M 134.039538 183.500996 
L 129.464757 185.997601 
L 129.270421 184.916204 
L 107.642491 188.802914 
L 107.448156 187.721518 
L 129.076086 183.834808 
L 128.88175 182.753411 
z
" clip-path="url(#p7a0e9eee76)" style="fill: #ff0000; stroke: #ff0000; stroke-width: 0.24"/>
    <path d="M 137.93318 182.801112 
L 133.358399 185.297716 
L 133.164064 184.21632 
L 111.536134 188.10303 
L 111.341798 187.021633 
L 132.969728 183.134923 
L 132.775393 182.053527 
z
" clip-path="url(#p7a0e9eee76)" style="fill: #ff0000; stroke: #ff0000; stroke-width: 0.24"/>
    <path d="M 141.826823 182.101447 
L 137.252042 184.598052 
L 137.057706 183.516655 
L 115.429776 187.403365 
L 115.235441 186.321969 
L 136.863371 182.435259 
L 136.669035 181.353862 
z
" clip-path="url(#p7a0e9eee76)" style="fill: #ff0000; stroke: #ff0000; stroke-width: 0.24"/>
    <path d="M 145.720465 181.401782 
L 141.145684 183.898387 
L 140.951348 182.81699 
L 119.323418 186.703701 
L 119.129083 185.622304 
L 140.757013 181.735594 
L 140.562677 180.654197 
z
" clip-path="url(#p7a0e9eee76)" style="fill: #ff0000; stroke: #ff0000; stroke-width: 0.24"/>
    <path d="M 149.614107 180.702118 
L 145.039326 183.198722 
L 144.844991 182.117326 
L 123.217061 186.004036 
L 123.022725 184.922639 
L 144.650655 181.035929 
L 144.45632 179.954533 
z
" clip-path="url(#p7a0e9eee76)" style="fill: #ff0000; stroke: #ff0000; stroke-width: 0.24"/>
    <path d="M 153.50775 180.002233 
L 148.932969 182.498838 
L 148.738633 181.417442 
L 127.110703 185.304152 
L 126.916368 184.222755 
L 148.544298 180.336045 
L 148.349962 179.254649 
z
" clip-path="url(#p7a0e9eee76)" style="fill: #ff0000; stroke: #ff0000; stroke-width: 0.24"/>
    <path d="M 157.401392 179.302569 
L 152.826611 181.799173 
L 152.632276 180.717777 
L 131.004346 184.604487 
L 130.81001 183.52309 
L 152.43794 179.63638 
L 152.243605 178.554984 
z
" clip-path="url(#p7a0e9eee76)" style="fill: #ff0000; stroke: #ff0000; stroke-width: 0.24"/>
    <path d="M 161.0848 177.544979 
L 156.606799 180.21128 
L 156.372072 179.137926 
L 134.904999 183.832461 
L 134.670272 182.759107 
L 156.137345 178.064573 
L 155.902618 176.991219 
z
" clip-path="url(#p7a0e9eee76)" style="fill: #ff0000; stroke: #ff0000; stroke-width: 0.24"/>
    <path d="M 164.749175 175.536354 
L 160.38359 178.382988 
L 160.105302 177.320095 
L 138.84745 182.885847 
L 138.569163 181.822955 
L 159.827015 176.257202 
L 159.548727 175.19431 
z
" clip-path="url(#p7a0e9eee76)" style="fill: #ff0000; stroke: #ff0000; stroke-width: 0.24"/>
    <path d="M 168.809535 175.155798 
L 164.377552 177.897912 
L 164.124595 176.828707 
L 142.740513 181.88785 
L 142.487556 180.818646 
L 163.871638 175.759503 
L 163.618681 174.690299 
z
" clip-path="url(#p7a0e9eee76)" style="fill: #ff0000; stroke: #ff0000; stroke-width: 0.24"/>
    <path d="M 172.981944 175.38059 
L 168.441864 177.939755 
L 168.232703 176.861128 
L 146.660162 181.04435 
L 146.451001 179.965723 
L 168.023542 175.782501 
L 167.814381 174.703874 
z
" clip-path="url(#p7a0e9eee76)" style="fill: #ff0000; stroke: #ff0000; stroke-width: 0.24"/>
    <path d="M 177.142068 175.775439 
L 172.501436 178.147398 
L 172.33642 177.061141 
L 150.611279 180.361465 
L 150.446263 179.275208 
L 172.171403 175.974884 
L 172.006387 174.888627 
z
" clip-path="url(#p7a0e9eee76)" style="fill: #ff0000; stroke: #ff0000; stroke-width: 0.24"/>
    <path d="M 180.366226 176.4429 
L 175.632757 178.623708 
L 175.51216 177.531627 
L 153.670538 179.943567 
L 153.549941 178.851486 
L 175.391563 176.439546 
L 175.270966 175.347465 
z
" clip-path="url(#p7a0e9eee76)" style="fill: #ff0000; stroke: #ff0000; stroke-width: 0.24"/>
    <path d="M 184.214223 176.234963 
L 179.465409 178.382152 
L 179.352559 177.289243 
L 157.494384 179.546245 
L 157.381534 178.453336 
L 179.239709 176.196334 
L 179.126859 175.103425 
z
" clip-path="url(#p7a0e9eee76)" style="fill: #ff0000; stroke: #ff0000; stroke-width: 0.24"/>
    <path d="M 188.042162 175.839864 
L 183.293348 177.987052 
L 183.180498 176.894143 
L 161.322323 179.151145 
L 161.209473 178.058236 
L 183.067648 175.801235 
L 182.954798 174.708326 
z
" clip-path="url(#p7a0e9eee76)" style="fill: #ff0000; stroke: #ff0000; stroke-width: 0.24"/>
    <path d="M 191.870101 175.444544 
L 187.121287 177.591733 
L 187.008437 176.498824 
L 165.150262 178.755826 
L 165.037412 177.662917 
L 186.895587 175.405915 
L 186.782737 174.313007 
z
" clip-path="url(#p7a0e9eee76)" style="fill: #ff0000; stroke: #ff0000; stroke-width: 0.24"/>
    <path d="M 195.599447 174.213164 
L 190.916391 176.500223 
L 190.771183 175.411141 
L 168.989546 178.315303 
L 168.844337 177.226222 
L 190.625975 174.32206 
L 190.480766 173.232978 
z
" clip-path="url(#p7a0e9eee76)" style="fill: #ff0000; stroke: #ff0000; stroke-width: 0.24"/>
    <path d="M 200.170111 174.30422 
L 195.4359 176.483419 
L 195.315675 175.391297 
L 173.473235 177.795811 
L 173.353009 176.703689 
L 195.195449 174.299175 
L 195.075223 173.207053 
z
" clip-path="url(#p7a0e9eee76)" style="fill: #ff0000; stroke: #ff0000; stroke-width: 0.24"/>
    <path d="M 204.669148 173.808918 
L 199.934937 175.988116 
L 199.814711 174.895994 
L 177.972271 177.300508 
L 177.852046 176.208386 
L 199.694486 173.803872 
L 199.57426 172.71175 
z
" clip-path="url(#p7a0e9eee76)" style="fill: #ff0000; stroke: #ff0000; stroke-width: 0.24"/>
    <path d="M 209.073015 172.543874 
L 204.400361 174.85211 
L 204.250224 173.763696 
L 182.481957 176.766434 
L 182.33182 175.678021 
L 204.100087 172.675283 
L 203.94995 171.58687 
z
" clip-path="url(#p7a0e9eee76)" style="fill: #ff0000; stroke: #ff0000; stroke-width: 0.24"/>
    <path d="M 212.973134 170.784722 
L 208.400894 173.285978 
L 208.205459 172.204779 
L 186.581493 176.113483 
L 186.386058 175.032285 
L 208.010024 171.123581 
L 207.814589 170.042383 
z
" clip-path="url(#p7a0e9eee76)" style="fill: #ff0000; stroke: #ff0000; stroke-width: 0.24"/>
    <path d="M 216.796408 168.864273 
L 212.332552 171.554189 
L 212.092159 170.48209 
L 190.650182 175.289948 
L 190.409789 174.217849 
L 211.851766 169.409992 
L 211.611374 168.337893 
z
" clip-path="url(#p7a0e9eee76)" style="fill: #ff0000; stroke: #ff0000; stroke-width: 0.24"/>
    <path d="M 220.824165 167.957771 
L 216.360608 170.648182 
L 216.120096 169.57611 
L 194.678653 174.386348 
L 194.438141 173.314275 
L 215.879584 168.504038 
L 215.639073 167.431966 
z
" clip-path="url(#p7a0e9eee76)" style="fill: #ff0000; stroke: #ff0000; stroke-width: 0.24"/>
    <path d="M 224.852598 167.053964 
L 220.389041 169.744376 
L 220.14853 168.672303 
L 198.707086 173.482541 
L 198.466575 172.410469 
L 219.908018 167.600231 
L 219.667506 166.528159 
z
" clip-path="url(#p7a0e9eee76)" style="fill: #ff0000; stroke: #ff0000; stroke-width: 0.24"/>
    <path d="M 228.881029 166.150157 
L 224.417473 168.840569 
L 224.176961 167.768497 
L 202.735518 172.578734 
L 202.495006 171.506662 
L 223.936449 166.696425 
L 223.695937 165.624352 
z
" clip-path="url(#p7a0e9eee76)" style="fill: #ff0000; stroke: #ff0000; stroke-width: 0.24"/>
    <path d="M 232.909465 165.24635 
L 228.445908 167.936762 
L 228.205396 166.86469 
L 206.763953 171.674927 
L 206.523441 170.602855 
L 227.964884 165.792618 
L 227.724372 164.720546 
z
" clip-path="url(#p7a0e9eee76)" style="fill: #ff0000; stroke: #ff0000; stroke-width: 0.24"/>
    <path d="M 236.860975 164.009534 
L 232.431176 166.755174 
L 232.177368 165.686172 
L 210.79732 170.762334 
L 210.543512 169.693332 
L 231.92356 164.61717 
L 231.669752 163.548167 
z
" clip-path="url(#p7a0e9eee76)" style="fill: #ff0000; stroke: #ff0000; stroke-width: 0.24"/>
    <path d="M 240.860435 163.074251 
L 236.429399 165.817893 
L 236.176073 164.748776 
L 214.793738 169.815295 
L 214.540412 168.746178 
L 235.922747 163.679659 
L 235.669421 162.610542 
z
" clip-path="url(#p7a0e9eee76)" style="fill: #ff0000; stroke: #ff0000; stroke-width: 0.24"/>
    <path d="M 244.949445 162.530464 
L 240.477882 165.207549 
L 240.240569 164.134764 
L 218.784873 168.88102 
L 218.54756 167.808235 
L 240.003256 163.061979 
L 239.765944 161.989194 
z
" clip-path="url(#p7a0e9eee76)" style="fill: #ff0000; stroke: #ff0000; stroke-width: 0.24"/>
    <path d="M 249.195823 162.823261 
L 244.616954 165.31236 
L 244.424392 164.230646 
L 222.790117 168.081881 
L 222.597555 167.000167 
L 244.231831 163.148932 
L 244.039269 162.067219 
z
" clip-path="url(#p7a0e9eee76)" style="fill: #ff0000; stroke: #ff0000; stroke-width: 0.24"/>
    <path d="M 253.426375 163.292108 
L 248.748095 165.588922 
L 248.600618 164.500145 
L 226.825081 167.449694 
L 226.677603 166.360917 
L 248.453141 163.411368 
L 248.305663 162.322591 
z
" clip-path="url(#p7a0e9eee76)" style="fill: #ff0000; stroke: #ff0000; stroke-width: 0.24"/>
    <path d="M 257.277187 163.874679 
L 252.515018 165.992083 
L 252.409015 164.898489 
L 230.537133 167.018547 
L 230.43113 165.924953 
L 252.303012 163.804895 
L 252.197009 162.711301 
z
" clip-path="url(#p7a0e9eee76)" style="fill: #ff0000; stroke: #ff0000; stroke-width: 0.24"/>
    <path d="M 261.098604 164.530672 
L 256.264629 166.47858 
L 256.197313 165.381924 
L 234.264204 166.728258 
L 234.196887 165.631603 
L 256.129996 164.285269 
L 256.062679 163.188614 
z
" clip-path="url(#p7a0e9eee76)" style="fill: #ff0000; stroke: #ff0000; stroke-width: 0.24"/>
    <path d="M 264.849632 164.30038 
L 260.015658 166.248288 
L 259.948341 165.151633 
L 238.015232 166.497967 
L 237.947916 165.401311 
L 259.881024 164.054977 
L 259.813708 162.958322 
z
" clip-path="url(#p7a0e9eee76)" style="fill: #ff0000; stroke: #ff0000; stroke-width: 0.24"/>
    <path d="M 268.600661 164.070308 
L 263.766686 166.018216 
L 263.69937 164.921561 
L 241.766261 166.267895 
L 241.698944 165.171239 
L 263.632053 163.824906 
L 263.564736 162.72825 
z
" clip-path="url(#p7a0e9eee76)" style="fill: #ff0000; stroke: #ff0000; stroke-width: 0.24"/>
    <path d="M 272.37055 164.181523 
L 267.512741 166.069206 
L 267.459059 164.971798 
L 245.510912 166.04545 
L 245.45723 164.948043 
L 267.405376 163.874391 
L 267.351694 162.776984 
z
" clip-path="url(#p7a0e9eee76)" style="fill: #ff0000; stroke: #ff0000; stroke-width: 0.24"/>
    <path d="M 276.157191 165.091962 
L 271.231167 166.793708 
L 271.219219 165.695053 
L 249.246127 165.934005 
L 249.23418 164.83535 
L 271.207272 164.596398 
L 271.195324 163.497744 
z
" clip-path="url(#p7a0e9eee76)" style="fill: #ff0000; stroke: #ff0000; stroke-width: 0.24"/>
    <path d="M 279.906717 166.145437 
L 274.919592 167.658789 
L 274.949396 166.560474 
L 252.983092 165.964379 
L 253.012896 164.866064 
L 274.979201 165.462158 
L 275.009006 164.363843 
z
" clip-path="url(#p7a0e9eee76)" style="fill: #ff0000; stroke: #ff0000; stroke-width: 0.24"/>
    <path d="M 283.613208 167.340474 
L 278.572183 168.663246 
L 278.643697 167.566856 
L 256.715903 166.136575 
L 256.787417 165.040185 
L 278.715211 166.470466 
L 278.786725 165.374077 
z
" clip-path="url(#p7a0e9eee76)" style="fill: #ff0000; stroke: #ff0000; stroke-width: 0.24"/>
    <path d="M 287.271896 168.675593 
L 282.184252 169.805874 
L 282.297372 168.712993 
L 260.439756 166.450592 
L 260.552876 165.357711 
L 282.410492 167.620112 
L 282.523613 166.527231 
z
" clip-path="url(#p7a0e9eee76)" style="fill: #ff0000; stroke: #ff0000; stroke-width: 0.24"/>
    <path d="M 290.876975 170.148872 
L 285.75006 171.085033 
L 285.904623 169.997239 
L 264.148748 166.905995 
L 264.30331 165.818201 
L 286.059185 168.909445 
L 286.213747 167.821652 
z
" clip-path="url(#p7a0e9eee76)" style="fill: #ff0000; stroke: #ff0000; stroke-width: 0.24"/>
    <path d="M 294.423566 171.758005 
L 289.264783 172.498688 
L 289.460565 171.417552 
L 267.837855 167.501908 
L 268.033637 166.420772 
L 289.656347 170.336417 
L 289.852129 169.255281 
z
" clip-path="url(#p7a0e9eee76)" style="fill: #ff0000; stroke: #ff0000; stroke-width: 0.24"/>
    <path d="M 297.970777 173.411446 
L 292.789367 173.972378 
L 293.022608 172.898701 
L 271.549058 168.233881 
L 271.782299 167.160204 
L 293.255849 171.825023 
L 293.48909 170.751346 
z
" clip-path="url(#p7a0e9eee76)" style="fill: #ff0000; stroke: #ff0000; stroke-width: 0.24"/>
    <path d="M 301.430846 175.296695 
L 296.231703 175.658041 
L 296.506043 174.594123 
L 275.227678 169.107318 
L 275.502018 168.0434 
L 296.780384 173.530205 
L 297.054724 172.466286 
z
" clip-path="url(#p7a0e9eee76)" style="fill: #ff0000; stroke: #ff0000; stroke-width: 0.24"/>
    <path d="M 304.815461 177.313769 
L 299.60627 177.47499 
L 299.921305 176.422404 
L 278.869582 170.121703 
L 279.184618 169.069117 
L 300.23634 175.369818 
L 300.551375 174.317232 
z
" clip-path="url(#p7a0e9eee76)" style="fill: #ff0000; stroke: #ff0000; stroke-width: 0.24"/>
    <path d="M 308.120431 179.459165 
L 302.908894 179.420029 
L 303.264157 178.38033 
L 282.470189 171.275068 
L 282.825452 170.235369 
L 303.61942 177.340632 
L 303.974683 176.300933 
z
" clip-path="url(#p7a0e9eee76)" style="fill: #ff0000; stroke: #ff0000; stroke-width: 0.24"/>
    <path d="M 311.340286 181.730135 
L 306.134104 181.490698 
L 306.52907 180.465424 
L 286.023593 172.566102 
L 286.418559 171.540829 
L 306.924036 179.44015 
L 307.319002 178.414876 
z
" clip-path="url(#p7a0e9eee76)" style="fill: #ff0000; stroke: #ff0000; stroke-width: 0.24"/>
    <path d="M 314.470491 184.123261 
L 309.277361 183.683879 
L 309.711446 182.674545 
L 289.524771 173.99284 
L 289.958856 172.983507 
L 310.145532 181.665211 
L 310.579617 180.655877 
z
" clip-path="url(#p7a0e9eee76)" style="fill: #ff0000; stroke: #ff0000; stroke-width: 0.24"/>
    <path d="M 317.50634 186.634736 
L 312.333938 185.996051 
L 312.806502 185.00415 
L 292.968476 175.552876 
L 293.441039 174.560975 
L 313.279066 184.012249 
L 313.751629 183.020347 
z
" clip-path="url(#p7a0e9eee76)" style="fill: #ff0000; stroke: #ff0000; stroke-width: 0.24"/>
    <path d="M 320.443431 189.261138 
L 315.299403 188.424101 
L 315.809746 187.451098 
L 296.349684 177.244245 
L 296.860026 176.271242 
L 316.320088 186.478095 
L 316.830431 185.505092 
z
" clip-path="url(#p7a0e9eee76)" style="fill: #ff0000; stroke: #ff0000; stroke-width: 0.24"/>
    <path d="M 323.277385 191.998488 
L 318.169334 190.964335 
L 318.716701 190.011669 
L 299.663368 179.064323 
L 300.210735 178.111657 
L 319.264068 189.059002 
L 319.811436 188.106335 
z
" clip-path="url(#p7a0e9eee76)" style="fill: #ff0000; stroke: #ff0000; stroke-width: 0.24"/>
    <path d="M 324.541707 193.935045 
L 319.477184 192.705306 
L 320.060767 191.774384 
L 301.442326 180.102728 
L 302.025909 179.171806 
L 320.644349 190.843462 
L 321.227932 189.91254 
z
" clip-path="url(#p7a0e9eee76)" style="fill: #ff0000; stroke: #ff0000; stroke-width: 0.24"/>
    <path d="M 320.793579 192.720216 
L 315.780069 191.296708 
L 316.399005 190.388907 
L 298.242977 178.010193 
L 298.861913 177.102392 
L 317.01794 189.481105 
L 317.636876 188.573304 
z
" clip-path="url(#p7a0e9eee76)" style="fill: #ff0000; stroke: #ff0000; stroke-width: 0.24"/>
    <path d="M 317.094743 191.362355 
L 312.139659 189.747177 
L 312.793034 188.863839 
L 295.12627 175.796347 
L 295.779645 174.913009 
L 313.446408 187.980501 
L 314.099783 187.097162 
z
" clip-path="url(#p7a0e9eee76)" style="fill: #ff0000; stroke: #ff0000; stroke-width: 0.24"/>
    <path d="M 313.450951 189.863247 
L 308.561616 188.058791 
L 309.248463 187.201222 
L 292.097065 173.464286 
L 292.783912 172.606716 
L 309.93531 186.343652 
L 310.622157 185.486082 
z
" clip-path="url(#p7a0e9eee76)" style="fill: #ff0000; stroke: #ff0000; stroke-width: 0.24"/>
    <path d="M 309.867297 188.225218 
L 305.050938 186.234152 
L 305.770242 185.403618 
L 289.159561 171.017544 
L 289.878864 170.18701 
L 306.489545 184.573084 
L 307.208849 183.74255 
z
" clip-path="url(#p7a0e9eee76)" style="fill: #ff0000; stroke: #ff0000; stroke-width: 0.24"/>
    <path d="M 306.349373 186.450609 
L 301.61311 184.275876 
L 302.363807 183.473605 
L 286.318397 168.459656 
L 287.069094 167.657386 
L 303.114505 182.671335 
L 303.865202 181.869064 
z
" clip-path="url(#p7a0e9eee76)" style="fill: #ff0000; stroke: #ff0000; stroke-width: 0.24"/>
    <path d="M 302.909939 184.546561 
L 298.260571 182.191771 
L 299.041487 181.418883 
L 283.583737 165.800567 
L 284.364653 165.027679 
L 299.822403 180.645996 
L 300.603319 179.873108 
z
" clip-path="url(#p7a0e9eee76)" style="fill: #ff0000; stroke: #ff0000; stroke-width: 0.24"/>
    <path d="M 299.546158 182.511939 
L 294.990526 179.980561 
L 295.80051 179.238194 
L 280.953151 163.038508 
L 281.763136 162.29614 
L 296.610494 178.495826 
L 297.420478 177.753458 
z
" clip-path="url(#p7a0e9eee76)" style="fill: #ff0000; stroke: #ff0000; stroke-width: 0.24"/>
    <path d="M 296.262627 180.349889 
L 291.807434 177.645649 
L 292.645295 176.934893 
L 278.430177 160.177678 
L 279.268038 159.466922 
L 293.483156 176.224137 
L 294.321017 175.513382 
z
" clip-path="url(#p7a0e9eee76)" style="fill: #ff0000; stroke: #ff0000; stroke-width: 0.24"/>
    <path d="M 293.064663 178.063362 
L 288.716465 175.190239 
L 289.580969 174.512141 
L 276.01901 157.222054 
L 276.883514 156.543956 
L 290.445474 173.834043 
L 291.309978 173.155945 
z
" clip-path="url(#p7a0e9eee76)" style="fill: #ff0000; stroke: #ff0000; stroke-width: 0.24"/>
    <path d="M 289.956737 175.656011 
L 285.721934 172.618234 
L 286.611809 171.973792 
L 273.722965 154.176276 
L 274.612841 153.531834 
L 287.501685 171.329349 
L 288.391561 170.684907 
z
" clip-path="url(#p7a0e9eee76)" style="fill: #ff0000; stroke: #ff0000; stroke-width: 0.24"/>
    <path d="M 286.943361 173.131142 
L 282.828183 169.93318 
L 283.74212 169.323342 
L 271.545358 151.044587 
L 272.459295 150.434749 
L 284.656058 168.713503 
L 285.569996 168.103665 
z
" clip-path="url(#p7a0e9eee76)" style="fill: #ff0000; stroke: #ff0000; stroke-width: 0.24"/>
    <path d="M 284.028926 170.492525 
L 280.039419 167.139096 
L 280.976072 166.564756 
L 269.489283 147.831696 
L 270.425936 147.257356 
L 281.912725 165.990417 
L 282.849378 165.416077 
z
" clip-path="url(#p7a0e9eee76)" style="fill: #ff0000; stroke: #ff0000; stroke-width: 0.24"/>
    <path d="M 281.429907 167.623917 
L 277.540146 164.155285 
L 278.49319 163.608575 
L 267.558988 144.547696 
L 268.512031 144.000986 
L 279.446234 163.061865 
L 280.399278 162.515155 
z
" clip-path="url(#p7a0e9eee76)" style="fill: #ff0000; stroke: #ff0000; stroke-width: 0.24"/>
    <path d="M 280.365305 163.839386 
L 276.345348 160.52252 
L 277.276718 159.939653 
L 265.619377 141.312246 
L 266.550748 140.729379 
L 278.208088 159.356786 
L 279.139459 158.773919 
z
" clip-path="url(#p7a0e9eee76)" style="fill: #ff0000; stroke: #ff0000; stroke-width: 0.24"/>
    <path d="M 279.156402 160.098589 
L 275.012198 156.938331 
L 275.92053 156.320174 
L 263.557393 138.153537 
L 264.465725 137.53538 
L 276.828862 155.702017 
L 277.737194 155.083861 
z
" clip-path="url(#p7a0e9eee76)" style="fill: #ff0000; stroke: #ff0000; stroke-width: 0.24"/>
    <path d="M 277.804861 156.406879 
L 273.5425 153.407891 
L 274.426455 152.755351 
L 261.375658 135.076251 
L 262.259613 134.423711 
L 275.31041 152.102811 
L 276.194365 151.450271 
z
" clip-path="url(#p7a0e9eee76)" style="fill: #ff0000; stroke: #ff0000; stroke-width: 0.24"/>
    <path d="M 276.312692 152.769718 
L 271.938442 149.936418 
L 272.796719 149.250455 
L 259.077451 132.084921 
L 259.935727 131.398958 
L 273.654995 148.564491 
L 274.513272 147.878528 
z
" clip-path="url(#p7a0e9eee76)" style="fill: #ff0000; stroke: #ff0000; stroke-width: 0.24"/>
    <path d="M 274.682163 149.192469 
L 270.202464 146.529021 
L 271.0338 145.810645 
L 256.666267 129.183924 
L 257.497603 128.465547 
L 271.865136 145.092268 
L 272.696472 144.373891 
z
" clip-path="url(#p7a0e9eee76)" style="fill: #ff0000; stroke: #ff0000; stroke-width: 0.24"/>
    <path d="M 272.915643 145.680394 
L 268.337088 143.190719 
L 269.14026 142.440986 
L 254.145603 126.377545 
L 254.948775 125.627812 
L 269.943432 141.691253 
L 270.746604 140.94152 
z
" clip-path="url(#p7a0e9eee76)" style="fill: #ff0000; stroke: #ff0000; stroke-width: 0.24"/>
    <path d="M 271.015737 142.238638 
L 266.345062 139.926399 
L 267.118888 139.146414 
L 251.519174 123.669891 
L 252.293 122.889905 
L 267.892715 138.366428 
L 268.666541 137.586442 
z
" clip-path="url(#p7a0e9eee76)" style="fill: #ff0000; stroke: #ff0000; stroke-width: 0.24"/>
    <path d="M 268.98509 138.872308 
L 264.229169 136.740908 
L 264.972511 135.931817 
L 248.790693 121.064986 
L 249.534035 120.255895 
L 265.715852 135.122726 
L 266.459194 134.313635 
z
" clip-path="url(#p7a0e9eee76)" style="fill: #ff0000; stroke: #ff0000; stroke-width: 0.24"/>
    <path d="M 266.827048 135.586326 
L 261.992879 133.6389 
L 262.704642 132.801894 
L 245.964535 118.566633 
L 246.676298 117.729628 
L 263.416405 131.964889 
L 264.128168 131.127884 
z
" clip-path="url(#p7a0e9eee76)" style="fill: #ff0000; stroke: #ff0000; stroke-width: 0.24"/>
    <path d="M 264.544339 132.385521 
L 259.639037 130.624936 
L 260.318174 129.761247 
L 243.04441 116.178503 
L 243.723547 115.314815 
L 260.997311 128.897559 
L 261.676448 128.033871 
z
" clip-path="url(#p7a0e9eee76)" style="fill: #ff0000; stroke: #ff0000; stroke-width: 0.24"/>
    <path d="M 262.140617 129.27463 
L 257.171399 127.703476 
L 257.816911 126.814376 
L 240.034909 113.904136 
L 240.680421 113.015036 
L 258.462423 125.925276 
L 259.107935 125.036176 
z
" clip-path="url(#p7a0e9eee76)" style="fill: #ff0000; stroke: #ff0000; stroke-width: 0.24"/>
    <path d="M 264.116859 129.357715 
L 259.091037 127.978305 
L 259.701974 127.065101 
L 241.437902 114.846364 
L 242.048839 113.93316 
L 260.312911 126.151898 
L 260.923848 125.238694 
z
" clip-path="url(#p7a0e9eee76)" style="fill: #ff0000; stroke: #ff0000; stroke-width: 0.24"/>
    <path d="M 261.217913 126.160304 
L 256.13847 124.993722 
L 256.710416 124.055605 
L 237.948087 112.616685 
L 238.520033 111.678569 
L 257.282362 123.117489 
L 257.854308 122.179372 
z
" clip-path="url(#p7a0e9eee76)" style="fill: #ff0000; stroke: #ff0000; stroke-width: 0.24"/>
    <path d="M 258.187218 123.087799 
L 253.063163 122.136108 
L 253.595105 121.174743 
L 234.367805 110.535908 
L 234.899747 109.574543 
L 254.127046 120.213378 
L 254.658988 119.252013 
z
" clip-path="url(#p7a0e9eee76)" style="fill: #ff0000; stroke: #ff0000; stroke-width: 0.24"/>
    <path d="M 255.029724 120.14567 
L 249.870144 119.410564 
L 250.361137 118.427655 
L 230.702954 108.607792 
L 231.193947 107.624883 
L 250.85213 117.444746 
L 251.343123 116.461837 
z
" clip-path="url(#p7a0e9eee76)" style="fill: #ff0000; stroke: #ff0000; stroke-width: 0.24"/>
    <path d="M 251.751074 117.338973 
L 246.565118 116.821756 
L 247.014292 115.819046 
L 226.96009 106.835569 
L 227.409264 105.832859 
L 247.463466 114.816335 
L 247.91264 113.813625 
z
" clip-path="url(#p7a0e9eee76)" style="fill: #ff0000; stroke: #ff0000; stroke-width: 0.24"/>
    <path d="M 248.357231 114.672757 
L 243.154097 114.374341 
L 243.560656 113.353608 
L 223.146009 105.222431 
L 223.552568 104.201698 
L 243.967215 112.332876 
L 244.373774 111.312144 
z
" clip-path="url(#p7a0e9eee76)" style="fill: #ff0000; stroke: #ff0000; stroke-width: 0.24"/>
    <path d="M 244.854135 112.151902 
L 239.643051 112.07282 
L 240.006273 111.035876 
L 219.267377 103.771437 
L 219.630599 102.734493 
L 240.369495 109.998931 
L 240.732717 108.961986 
z
" clip-path="url(#p7a0e9eee76)" style="fill: #ff0000; stroke: #ff0000; stroke-width: 0.24"/>
    <path d="M 241.248015 109.780951 
L 236.038222 109.921345 
L 236.357463 108.870027 
L 215.331098 102.485211 
L 215.650339 101.433893 
L 236.676704 107.818709 
L 236.995944 106.76739 
z
" clip-path="url(#p7a0e9eee76)" style="fill: #ff0000; stroke: #ff0000; stroke-width: 0.24"/>
    <path d="M 237.545249 107.5636 
L 232.345987 107.923215 
L 232.620681 106.859388 
L 211.344144 101.365498 
L 211.618838 100.301671 
L 232.895376 105.795561 
L 233.17007 104.731735 
z
" clip-path="url(#p7a0e9eee76)" style="fill: #ff0000; stroke: #ff0000; stroke-width: 0.24"/>
    <path d="M 239.663627 106.863046 
L 234.484116 107.44125 
L 234.713776 106.366801 
L 213.224794 101.7736 
L 213.454454 100.699151 
L 234.943436 105.292351 
L 235.173096 104.217902 
z
" clip-path="url(#p7a0e9eee76)" style="fill: #ff0000; stroke: #ff0000; stroke-width: 0.24"/>
    <path d="M 243.966903 106.534235 
L 238.816328 107.329996 
L 239.000548 106.246831 
L 217.337234 102.562444 
L 217.521453 101.479278 
L 239.184767 105.163665 
L 239.368986 104.080499 
z
" clip-path="url(#p7a0e9eee76)" style="fill: #ff0000; stroke: #ff0000; stroke-width: 0.24"/>
    <path d="M 248.252543 106.024455 
L 243.14004 107.036368 
L 243.278491 105.946406 
L 221.479262 103.177389 
L 221.617713 102.087427 
L 243.416942 104.856445 
L 243.555393 103.766483 
z
" clip-path="url(#p7a0e9eee76)" style="fill: #ff0000; stroke: #ff0000; stroke-width: 0.24"/>
    <path d="M 252.512952 105.334849 
L 247.447587 106.561118 
L 247.540024 105.466294 
L 225.64354 103.61755 
L 225.735978 102.522726 
L 247.632462 104.37147 
L 247.724899 103.276645 
z
" clip-path="url(#p7a0e9eee76)" style="fill: #ff0000; stroke: #ff0000; stroke-width: 0.24"/>
    <path d="M 256.740535 104.466311 
L 251.731292 105.904761 
L 251.777552 104.807016 
L 229.822646 103.881824 
L 229.868905 102.784079 
L 251.823811 103.70927 
L 251.870071 102.611525 
z
" clip-path="url(#p7a0e9eee76)" style="fill: #ff0000; stroke: #ff0000; stroke-width: 0.24"/>
    <path d="M 260.927673 103.42063 
L 255.983435 105.068709 
L 255.983435 103.969989 
L 234.009044 103.969989 
L 234.009044 102.87127 
L 255.983435 102.87127 
L 255.983435 101.77255 
z
" clip-path="url(#p7a0e9eee76)" style="fill: #ff0000; stroke: #ff0000; stroke-width: 0.24"/>
   </g>
   <g id="matplotlib.axis_1">
    <g id="xtick_1">
     <g id="line2d_1">
      <defs>
       <path id="m054b53db7a" d="M 0 0 
L 0 -3 
" style="stroke: #000000"/>
      </defs>
      <g>
       <use xlink:href="#m054b53db7a" x="71.299664" y="258.395709" style="stroke: #000000"/>
      </g>
     </g>
     <g id="text_1">
      <!-- 6 -->
      <g transform="translate(63.560016 271.974068) scale(0.105 -0.105)">
       <defs>
        <path id="DejaVuSans-2212" d="M 678 2272 
L 4684 2272 
L 4684 1741 
L 678 1741 
L 678 2272 
z
" transform="scale(0.015625)"/>
        <path id="DejaVuSans-36" d="M 2113 2584 
Q 1688 2584 1439 2293 
Q 1191 2003 1191 1497 
Q 1191 994 1439 701 
Q 1688 409 2113 409 
Q 2538 409 2786 701 
Q 3034 994 3034 1497 
Q 3034 2003 2786 2293 
Q 2538 2584 2113 2584 
z
M 3366 4563 
L 3366 3988 
Q 3128 4100 2886 4159 
Q 2644 4219 2406 4219 
Q 1781 4219 1451 3797 
Q 1122 3375 1075 2522 
Q 1259 2794 1537 2939 
Q 1816 3084 2150 3084 
Q 2853 3084 3261 2657 
Q 3669 2231 3669 1497 
Q 3669 778 3244 343 
Q 2819 -91 2113 -91 
Q 1303 -91 875 529 
Q 447 1150 447 2328 
Q 447 3434 972 4092 
Q 1497 4750 2381 4750 
Q 2619 4750 2861 4703 
Q 3103 4656 3366 4563 
z
" transform="scale(0.015625)"/>
       </defs>
       <use xlink:href="#DejaVuSans-2212"/>
       <use xlink:href="#DejaVuSans-36" x="83.789062"/>
      </g>
     </g>
    </g>
    <g id="xtick_2">
     <g id="line2d_2">
      <g>
       <use xlink:href="#m054b53db7a" x="115.248446" y="258.395709" style="stroke: #000000"/>
      </g>
     </g>
     <g id="text_2">
      <!-- 4 -->
      <g transform="translate(107.508798 271.974068) scale(0.105 -0.105)">
       <defs>
        <path id="DejaVuSans-34" d="M 2419 4116 
L 825 1625 
L 2419 1625 
L 2419 4116 
z
M 2253 4666 
L 3047 4666 
L 3047 1625 
L 3713 1625 
L 3713 1100 
L 3047 1100 
L 3047 0 
L 2419 0 
L 2419 1100 
L 313 1100 
L 313 1709 
L 2253 4666 
z
" transform="scale(0.015625)"/>
       </defs>
       <use xlink:href="#DejaVuSans-2212"/>
       <use xlink:href="#DejaVuSans-34" x="83.789062"/>
      </g>
     </g>
    </g>
    <g id="xtick_3">
     <g id="line2d_3">
      <g>
       <use xlink:href="#m054b53db7a" x="159.197229" y="258.395709" style="stroke: #000000"/>
      </g>
     </g>
     <g id="text_3">
      <!-- 2 -->
      <g transform="translate(151.45758 271.974068) scale(0.105 -0.105)">
       <defs>
        <path id="DejaVuSans-32" d="M 1228 531 
L 3431 531 
L 3431 0 
L 469 0 
L 469 531 
Q 828 903 1448 1529 
Q 2069 2156 2228 2338 
Q 2531 2678 2651 2914 
Q 2772 3150 2772 3378 
Q 2772 3750 2511 3984 
Q 2250 4219 1831 4219 
Q 1534 4219 1204 4116 
Q 875 4013 500 3803 
L 500 4441 
Q 881 4594 1212 4672 
Q 1544 4750 1819 4750 
Q 2544 4750 2975 4387 
Q 3406 4025 3406 3419 
Q 3406 3131 3298 2873 
Q 3191 2616 2906 2266 
Q 2828 2175 2409 1742 
Q 1991 1309 1228 531 
z
" transform="scale(0.015625)"/>
       </defs>
       <use xlink:href="#DejaVuSans-2212"/>
       <use xlink:href="#DejaVuSans-32" x="83.789062"/>
      </g>
     </g>
    </g>
    <g id="xtick_4">
     <g id="line2d_4">
      <g>
       <use xlink:href="#m054b53db7a" x="203.146011" y="258.395709" style="stroke: #000000"/>
      </g>
     </g>
     <g id="text_4">
      <!-- 0 -->
      <g transform="translate(199.805699 271.974068) scale(0.105 -0.105)">
       <defs>
        <path id="DejaVuSans-30" d="M 2034 4250 
Q 1547 4250 1301 3770 
Q 1056 3291 1056 2328 
Q 1056 1369 1301 889 
Q 1547 409 2034 409 
Q 2525 409 2770 889 
Q 3016 1369 3016 2328 
Q 3016 3291 2770 3770 
Q 2525 4250 2034 4250 
z
M 2034 4750 
Q 2819 4750 3233 4129 
Q 3647 3509 3647 2328 
Q 3647 1150 3233 529 
Q 2819 -91 2034 -91 
Q 1250 -91 836 529 
Q 422 1150 422 2328 
Q 422 3509 836 4129 
Q 1250 4750 2034 4750 
z
" transform="scale(0.015625)"/>
       </defs>
       <use xlink:href="#DejaVuSans-30"/>
      </g>
     </g>
    </g>
    <g id="xtick_5">
     <g id="line2d_5">
      <g>
       <use xlink:href="#m054b53db7a" x="247.094794" y="258.395709" style="stroke: #000000"/>
      </g>
     </g>
     <g id="text_5">
      <!-- 2 -->
      <g transform="translate(243.754481 271.974068) scale(0.105 -0.105)">
       <use xlink:href="#DejaVuSans-32"/>
      </g>
     </g>
    </g>
    <g id="xtick_6">
     <g id="line2d_6">
      <g>
       <use xlink:href="#m054b53db7a" x="291.043576" y="258.395709" style="stroke: #000000"/>
      </g>
     </g>
     <g id="text_6">
      <!-- 4 -->
      <g transform="translate(287.703264 271.974068) scale(0.105 -0.105)">
       <use xlink:href="#DejaVuSans-34"/>
      </g>
     </g>
    </g>
    <g id="xtick_7">
     <g id="line2d_7">
      <g>
       <use xlink:href="#m054b53db7a" x="334.992359" y="258.395709" style="stroke: #000000"/>
      </g>
     </g>
     <g id="text_7">
      <!-- 6 -->
      <g transform="translate(331.652046 271.974068) scale(0.105 -0.105)">
       <use xlink:href="#DejaVuSans-36"/>
      </g>
     </g>
    </g>
    <g id="xtick_8">
     <g id="line2d_8">
      <g>
       <use xlink:href="#m054b53db7a" x="378.941141" y="258.395709" style="stroke: #000000"/>
      </g>
     </g>
     <g id="text_8">
      <!-- 8 -->
      <g transform="translate(375.600828 271.974068) scale(0.105 -0.105)">
       <defs>
        <path id="DejaVuSans-38" d="M 2034 2216 
Q 1584 2216 1326 1975 
Q 1069 1734 1069 1313 
Q 1069 891 1326 650 
Q 1584 409 2034 409 
Q 2484 409 2743 651 
Q 3003 894 3003 1313 
Q 3003 1734 2745 1975 
Q 2488 2216 2034 2216 
z
M 1403 2484 
Q 997 2584 770 2862 
Q 544 3141 544 3541 
Q 544 4100 942 4425 
Q 1341 4750 2034 4750 
Q 2731 4750 3128 4425 
Q 3525 4100 3525 3541 
Q 3525 3141 3298 2862 
Q 3072 2584 2669 2484 
Q 3125 2378 3379 2068 
Q 3634 1759 3634 1313 
Q 3634 634 3220 271 
Q 2806 -91 2034 -91 
Q 1263 -91 848 271 
Q 434 634 434 1313 
Q 434 1759 690 2068 
Q 947 2378 1403 2484 
z
M 1172 3481 
Q 1172 3119 1398 2916 
Q 1625 2713 2034 2713 
Q 2441 2713 2670 2916 
Q 2900 3119 2900 3481 
Q 2900 3844 2670 4047 
Q 2441 4250 2034 4250 
Q 1625 4250 1398 4047 
Q 1172 3844 1172 3481 
z
" transform="scale(0.015625)"/>
       </defs>
       <use xlink:href="#DejaVuSans-38"/>
      </g>
     </g>
    </g>
    <g id="xtick_9">
     <g id="line2d_9">
      <g>
       <use xlink:href="#m054b53db7a" x="422.889923" y="258.395709" style="stroke: #000000"/>
      </g>
     </g>
     <g id="text_9">
      <!-- 10 -->
      <g transform="translate(416.209298 271.974068) scale(0.105 -0.105)">
       <defs>
        <path id="DejaVuSans-31" d="M 794 531 
L 1825 531 
L 1825 4091 
L 703 3866 
L 703 4441 
L 1819 4666 
L 2450 4666 
L 2450 531 
L 3481 531 
L 3481 0 
L 794 0 
L 794 531 
z
" transform="scale(0.015625)"/>
       </defs>
       <use xlink:href="#DejaVuSans-31"/>
       <use xlink:href="#DejaVuSans-30" x="63.623047"/>
      </g>
     </g>
    </g>
   </g>
   <g id="matplotlib.axis_2">
    <g id="ytick_1">
     <g id="line2d_10">
      <defs>
       <path id="m1dd1006be2" d="M 0 0 
L 3 0 
" style="stroke: #000000"/>
      </defs>
      <g>
       <use xlink:href="#m1dd1006be2" x="31.88" y="218.786184" style="stroke: #000000"/>
      </g>
     </g>
     <g id="text_10">
      <!-- 4 -->
      <g transform="translate(10.800703 222.775363) scale(0.105 -0.105)">
       <use xlink:href="#DejaVuSans-2212"/>
       <use xlink:href="#DejaVuSans-34" x="83.789062"/>
      </g>
     </g>
    </g>
    <g id="ytick_2">
     <g id="line2d_11">
      <g>
       <use xlink:href="#m1dd1006be2" x="31.88" y="174.837401" style="stroke: #000000"/>
      </g>
     </g>
     <g id="text_11">
      <!-- 2 -->
      <g transform="translate(10.800703 178.826581) scale(0.105 -0.105)">
       <use xlink:href="#DejaVuSans-2212"/>
       <use xlink:href="#DejaVuSans-32" x="83.789062"/>
      </g>
     </g>
    </g>
    <g id="ytick_3">
     <g id="line2d_12">
      <g>
       <use xlink:href="#m1dd1006be2" x="31.88" y="130.888619" style="stroke: #000000"/>
      </g>
     </g>
     <g id="text_12">
      <!-- 0 -->
      <g transform="translate(19.599375 134.877798) scale(0.105 -0.105)">
       <use xlink:href="#DejaVuSans-30"/>
      </g>
     </g>
    </g>
    <g id="ytick_4">
     <g id="line2d_13">
      <g>
       <use xlink:href="#m1dd1006be2" x="31.88" y="86.939836" style="stroke: #000000"/>
      </g>
     </g>
     <g id="text_13">
      <!-- 2 -->
      <g transform="translate(19.599375 90.929016) scale(0.105 -0.105)">
       <use xlink:href="#DejaVuSans-32"/>
      </g>
     </g>
    </g>
   </g>
   <g id="patch_3">
    <path d="M 31.88 258.395709 
L 31.88 58.404291 
" style="fill: none; stroke: #000000; stroke-width: 0.8; stroke-linejoin: miter; stroke-linecap: square"/>
   </g>
   <g id="patch_4">
    <path d="M 450 258.395709 
L 450 58.404291 
" style="fill: none; stroke: #000000; stroke-width: 0.8; stroke-linejoin: miter; stroke-linecap: square"/>
   </g>
   <g id="patch_5">
    <path d="M 31.88 258.395709 
L 450 258.395709 
" style="fill: none; stroke: #000000; stroke-width: 0.8; stroke-linejoin: miter; stroke-linecap: square"/>
   </g>
   <g id="patch_6">
    <path d="M 31.88 58.404291 
L 450 58.404291 
" style="fill: none; stroke: #000000; stroke-width: 0.8; stroke-linejoin: miter; stroke-linecap: square"/>
   </g>
  </g>
 </g>
 <defs>
  <clipPath id="p7a0e9eee76">
   <rect x="31.88" y="58.404291" width="418.12" height="199.991417"/>
  </clipPath>
 </defs>
</svg>
