<?xml version="1.0" encoding="utf-8" standalone="no"?>
<!DOCTYPE svg PUBLIC "-//W3C//DTD SVG 1.1//EN"
  "http://www.w3.org/Graphics/SVG/1.1/DTD/svg11.dtd">
<svg xmlns:xlink="http://www.w3.org/1999/xlink" width="460.8pt" height="316.8pt" viewBox="0 0 460.8 316.8" xmlns="http://www.w3.org/2000/svg" version="1.1">
 <metadata>
  <rdf:RDF xmlns:dc="http://purl.org/dc/elements/1.1/" xmlns:cc="http://creativecommons.org/ns#" xmlns:rdf="http://www.w3.org/1999/02/22-rdf-syntax-ns#">
   <cc:Work>
    <dc:type rdf:resource="http://purl.org/dc/dcmitype/StillImage"/>
    <dc:date>2024-01-04T21:43:57.420060</dc:date>
    <dc:format>image/svg+xml</dc:format>
    <dc:creator>
     <cc:Agent>
      <dc:title>Matplotlib v3.7.2, https://matplotlib.org/</dc:title>
     </cc:Agent>
    </dc:creator>
   </cc:Work>
  </rdf:RDF>
 </metadata>
 <defs>
  <style type="text/css">*{stroke-linejoin: round; stroke-linecap: butt}</style>
 </defs>
 <g id="figure_1">
  <g id="patch_1">
   <path d="M 0 316.8 
L 460.8 316.8 
L 460.8 0 
L 0 0 
z
" style="fill: #ffffff"/>
  </g>
  <g id="axes_1">
   <g id="patch_2">
    <path d="M 31.88 268.435244 
L 450 268.435244 
L 450 48.364756 
L 31.88 48.364756 
z
" style="fill: #ffffff"/>
   </g>
   <g id="PatchCollection_1">
    <path d="M 184.18339 127.308481 
L 327.002607 127.308481 
L 327.002607 67.800474 
L 184.18339 67.800474 
z
" clip-path="url(#p3d4c07b407)" style="fill: #ffffff; stroke: #0000ff; stroke-width: 3"/>
    <path d="M 50.885455 113.026559 
L 160.803017 132.407991 
L 168.830046 86.884445 
L 58.912484 67.503013 
z
" clip-path="url(#p3d4c07b407)" style="fill: #ff0000; stroke: #ff0000; stroke-width: 2"/>
    <path d="M 322.241967 139.210082 
L 430.994545 114.102571 
L 420.595999 69.061516 
L 311.84342 94.169027 
z
" clip-path="url(#p3d4c07b407)" style="fill: #ff0000; stroke: #ff0000; stroke-width: 2"/>
   </g>
   <g id="PatchCollection_2">
    <path d="M 162.070215 215.880198 
L 273.683433 215.880198 
L 273.683433 169.654379 
L 162.070215 169.654379 
z
" clip-path="url(#p3d4c07b407)" style="fill: #ffffff; stroke: #000000; stroke-width: 0.5"/>
    <path d="M 165.936467 216.47803 
L 277.500733 213.172709 
L 276.131798 166.967163 
L 164.567533 170.272485 
z
" clip-path="url(#p3d4c07b407)" style="fill: #ffffff; stroke: #000000; stroke-width: 0.5"/>
    <path d="M 169.818749 216.961001 
L 281.236199 210.353246 
L 278.499525 164.208506 
L 167.082076 170.816261 
z
" clip-path="url(#p3d4c07b407)" style="fill: #ffffff; stroke: #000000; stroke-width: 0.5"/>
    <path d="M 173.713622 217.328799 
L 284.886522 207.424418 
L 280.784515 161.38096 
L 169.611615 171.285341 
z
" clip-path="url(#p3d4c07b407)" style="fill: #ffffff; stroke: #000000; stroke-width: 0.5"/>
    <path d="M 177.617669 217.58114 
L 288.448496 204.388787 
L 282.984741 158.487003 
L 172.153914 171.679355 
z
" clip-path="url(#p3d4c07b407)" style="fill: #ffffff; stroke: #000000; stroke-width: 0.5"/>
    <path d="M 181.527495 217.717496 
L 291.91904 201.248822 
L 285.098361 155.528971 
L 174.706815 171.997645 
z
" clip-path="url(#p3d4c07b407)" style="fill: #ffffff; stroke: #000000; stroke-width: 0.5"/>
    <path d="M 185.439639 217.738361 
L 295.295051 198.007701 
L 287.123385 152.509896 
L 177.267973 172.240556 
z
" clip-path="url(#p3d4c07b407)" style="fill: #ffffff; stroke: #000000; stroke-width: 0.5"/>
    <path d="M 189.350674 217.64323 
L 298.573608 194.668002 
L 289.058169 149.432144 
L 179.835235 172.407372 
z
" clip-path="url(#p3d4c07b407)" style="fill: #ffffff; stroke: #000000; stroke-width: 0.5"/>
    <path d="M 193.25707 217.432386 
L 301.75172 191.232743 
L 290.900855 146.298512 
L 182.406204 172.498155 
z
" clip-path="url(#p3d4c07b407)" style="fill: #ffffff; stroke: #000000; stroke-width: 0.5"/>
    <path d="M 197.155714 217.105893 
L 304.826884 187.704708 
L 292.650065 143.11153 
L 184.978896 172.512715 
z
" clip-path="url(#p3d4c07b407)" style="fill: #ffffff; stroke: #000000; stroke-width: 0.5"/>
    <path d="M 201.042947 216.664027 
L 307.796217 184.087198 
L 294.304172 139.874178 
L 187.550902 172.451007 
z
" clip-path="url(#p3d4c07b407)" style="fill: #ffffff; stroke: #000000; stroke-width: 0.5"/>
    <path d="M 204.616536 215.967952 
L 310.722893 181.342073 
L 296.382211 137.396979 
L 190.275855 172.022858 
z
" clip-path="url(#p3d4c07b407)" style="fill: #ffffff; stroke: #000000; stroke-width: 0.5"/>
    <path d="M 206.798916 214.605591 
L 313.884136 183.137097 
L 300.851119 138.786597 
L 193.765899 170.255091 
z
" clip-path="url(#p3d4c07b407)" style="fill: #ffffff; stroke: #000000; stroke-width: 0.5"/>
    <path d="M 209.020611 213.308525 
L 316.990763 185.025019 
L 305.276844 140.308014 
L 197.306692 168.59152 
z
" clip-path="url(#p3d4c07b407)" style="fill: #ffffff; stroke: #000000; stroke-width: 0.5"/>
    <path d="M 211.279946 212.077843 
L 320.040348 187.004243 
L 309.655846 141.959947 
L 200.895444 167.033548 
z
" clip-path="url(#p3d4c07b407)" style="fill: #ffffff; stroke: #000000; stroke-width: 0.5"/>
    <path d="M 213.574603 210.914706 
L 323.029826 189.072897 
L 313.983804 143.740834 
L 204.528582 165.582643 
z
" clip-path="url(#p3d4c07b407)" style="fill: #ffffff; stroke: #000000; stroke-width: 0.5"/>
    <path d="M 215.902615 209.819992 
L 325.956668 191.229243 
L 318.257109 145.649169 
L 208.203056 164.239917 
z
" clip-path="url(#p3d4c07b407)" style="fill: #ffffff; stroke: #000000; stroke-width: 0.5"/>
    <path d="M 218.262114 208.79443 
L 328.81844 193.470939 
L 322.472051 147.682843 
L 211.915725 163.006334 
z
" clip-path="url(#p3d4c07b407)" style="fill: #ffffff; stroke: #000000; stroke-width: 0.5"/>
    <path d="M 220.651109 207.839413 
L 331.612744 195.796732 
L 326.625138 149.840772 
L 215.663503 161.883453 
z
" clip-path="url(#p3d4c07b407)" style="fill: #ffffff; stroke: #000000; stroke-width: 0.5"/>
    <path d="M 223.066986 206.955712 
L 334.336583 198.204294 
L 330.712088 152.120789 
L 219.442492 160.872207 
z
" clip-path="url(#p3d4c07b407)" style="fill: #ffffff; stroke: #000000; stroke-width: 0.5"/>
    <path d="M 225.508215 206.143816 
L 336.988175 200.691393 
L 334.729995 154.520763 
L 223.250035 159.973186 
z
" clip-path="url(#p3d4c07b407)" style="fill: #ffffff; stroke: #000000; stroke-width: 0.5"/>
    <path d="M 227.972353 205.404508 
L 339.564887 203.255852 
L 338.674998 157.038598 
L 227.082463 159.187254 
z
" clip-path="url(#p3d4c07b407)" style="fill: #ffffff; stroke: #000000; stroke-width: 0.5"/>
    <path d="M 230.457398 204.738341 
L 342.064619 205.895336 
L 342.543801 159.672 
L 230.93658 158.515005 
z
" clip-path="url(#p3d4c07b407)" style="fill: #ffffff; stroke: #000000; stroke-width: 0.5"/>
    <path d="M 232.961096 204.14636 
L 344.485103 208.608003 
L 346.332941 162.419131 
L 234.808933 157.957488 
z
" clip-path="url(#p3d4c07b407)" style="fill: #ffffff; stroke: #000000; stroke-width: 0.5"/>
    <path d="M 235.480941 203.628683 
L 346.823907 211.391049 
L 350.038775 165.277157 
L 238.695809 157.514791 
z
" clip-path="url(#p3d4c07b407)" style="fill: #ffffff; stroke: #000000; stroke-width: 0.5"/>
    <path d="M 238.015358 203.185915 
L 349.079615 214.242195 
L 353.658693 168.243733 
L 242.594436 157.187453 
z
" clip-path="url(#p3d4c07b407)" style="fill: #ffffff; stroke: #000000; stroke-width: 0.5"/>
    <path d="M 240.561565 202.818202 
L 351.249688 217.158698 
L 357.188959 171.316016 
L 246.500836 156.97552 
z
" clip-path="url(#p3d4c07b407)" style="fill: #ffffff; stroke: #000000; stroke-width: 0.5"/>
    <path d="M 244.363622 203.771335 
L 355.355004 215.536685 
L 360.227751 169.568405 
L 249.236369 157.803055 
z
" clip-path="url(#p3d4c07b407)" style="fill: #ffffff; stroke: #000000; stroke-width: 0.5"/>
    <path d="M 247.055647 203.402643 
L 357.62476 218.633593 
L 363.932822 172.840201 
L 253.36371 157.609251 
z
" clip-path="url(#p3d4c07b407)" style="fill: #ffffff; stroke: #000000; stroke-width: 0.5"/>
    <path d="M 249.75791 203.118284 
L 359.796569 221.799931 
L 367.533775 176.226232 
L 257.495116 157.544585 
z
" clip-path="url(#p3d4c07b407)" style="fill: #ffffff; stroke: #000000; stroke-width: 0.5"/>
    <path d="M 252.467418 202.918292 
L 361.867938 225.032468 
L 371.026763 179.723061 
L 261.626243 157.608886 
z
" clip-path="url(#p3d4c07b407)" style="fill: #ffffff; stroke: #000000; stroke-width: 0.5"/>
    <path d="M 255.182163 202.803515 
L 363.837522 228.328472 
L 374.408958 183.327681 
L 265.753599 157.802725 
z
" clip-path="url(#p3d4c07b407)" style="fill: #ffffff; stroke: #000000; stroke-width: 0.5"/>
    <path d="M 257.899083 202.773522 
L 365.702942 231.684393 
L 377.676692 187.03626 
L 269.872833 158.125389 
z
" clip-path="url(#p3d4c07b407)" style="fill: #ffffff; stroke: #000000; stroke-width: 0.5"/>
    <path d="M 260.615641 202.828481 
L 367.462547 235.096871 
L 380.82685 190.84507 
L 273.979943 158.57668 
z
" clip-path="url(#p3d4c07b407)" style="fill: #ffffff; stroke: #000000; stroke-width: 0.5"/>
    <path d="M 263.329218 202.968496 
L 369.114632 238.562833 
L 383.856411 194.750661 
L 278.070998 159.156324 
z
" clip-path="url(#p3d4c07b407)" style="fill: #ffffff; stroke: #000000; stroke-width: 0.5"/>
    <path d="M 266.036938 203.193208 
L 370.657316 242.078771 
L 386.762191 198.749111 
L 282.141814 159.863548 
z
" clip-path="url(#p3d4c07b407)" style="fill: #ffffff; stroke: #000000; stroke-width: 0.5"/>
    <path d="M 268.736412 203.502596 
L 372.089428 245.641232 
L 389.541599 202.836464 
L 286.188583 160.697828 
z
" clip-path="url(#p3d4c07b407)" style="fill: #ffffff; stroke: #000000; stroke-width: 0.5"/>
    <path d="M 265.611953 201.41315 
L 367.596439 246.763731 
L 386.378872 204.525755 
L 284.394387 159.175174 
z
" clip-path="url(#p3d4c07b407)" style="fill: #ffffff; stroke: #000000; stroke-width: 0.5"/>
    <path d="M 262.207024 199.072638 
L 362.723237 247.59069 
L 382.817513 205.960815 
L 282.301299 157.442763 
z
" clip-path="url(#p3d4c07b407)" style="fill: #ffffff; stroke: #000000; stroke-width: 0.5"/>
    <path d="M 258.877112 196.626429 
L 357.826706 248.264481 
L 379.213163 207.283438 
L 280.263569 155.645386 
z
" clip-path="url(#p3d4c07b407)" style="fill: #ffffff; stroke: #000000; stroke-width: 0.5"/>
    <path d="M 255.625155 194.077319 
L 352.911261 248.784943 
L 375.569014 208.492852 
L 278.282909 153.785228 
z
" clip-path="url(#p3d4c07b407)" style="fill: #ffffff; stroke: #000000; stroke-width: 0.5"/>
    <path d="M 253.803039 192.238911 
L 349.422468 249.810042 
L 373.266174 210.208223 
L 277.646744 152.637091 
z
" clip-path="url(#p3d4c07b407)" style="fill: #ffffff; stroke: #000000; stroke-width: 0.5"/>
    <path d="M 250.868186 189.638782 
L 344.73668 250.022689 
L 369.745327 211.146038 
L 275.876833 150.762131 
z
" clip-path="url(#p3d4c07b407)" style="fill: #ffffff; stroke: #000000; stroke-width: 0.5"/>
    <path d="M 248.011678 186.952564 
L 340.046521 250.096037 
L 366.198072 211.978813 
L 274.16323 148.83534 
z
" clip-path="url(#p3d4c07b407)" style="fill: #ffffff; stroke: #000000; stroke-width: 0.5"/>
    <path d="M 245.236075 184.182707 
L 335.3561 250.030195 
L 362.627548 212.706013 
L 272.507523 146.858526 
z
" clip-path="url(#p3d4c07b407)" style="fill: #ffffff; stroke: #000000; stroke-width: 0.5"/>
    <path d="M 242.543927 181.331763 
L 330.669783 249.825148 
L 359.037059 213.326872 
L 270.911202 144.833487 
z
" clip-path="url(#p3d4c07b407)" style="fill: #ffffff; stroke: #000000; stroke-width: 0.5"/>
    <path d="M 239.937742 178.402191 
L 325.991775 249.481118 
L 355.42988 213.840911 
L 269.375848 142.761984 
z
" clip-path="url(#p3d4c07b407)" style="fill: #ffffff; stroke: #000000; stroke-width: 0.5"/>
    <path d="M 237.419536 175.396488 
L 321.325914 248.998323 
L 351.808909 214.24759 
L 267.902531 140.645755 
z
" clip-path="url(#p3d4c07b407)" style="fill: #ffffff; stroke: #000000; stroke-width: 0.5"/>
    <path d="M 234.991774 172.31739 
L 316.67656 248.377275 
L 348.177583 214.546638 
L 266.492797 138.486753 
z
" clip-path="url(#p3d4c07b407)" style="fill: #ffffff; stroke: #000000; stroke-width: 0.5"/>
    <path d="M 232.65642 169.167636 
L 312.047634 247.618548 
L 344.538927 214.737819 
L 265.147713 136.286907 
z
" clip-path="url(#p3d4c07b407)" style="fill: #ffffff; stroke: #000000; stroke-width: 0.5"/>
    <path d="M 230.415416 165.949696 
L 307.443018 246.722581 
L 340.895981 214.820767 
L 263.868378 134.047882 
z
" clip-path="url(#p3d4c07b407)" style="fill: #ffffff; stroke: #000000; stroke-width: 0.5"/>
    <path d="M 228.268797 162.737142 
L 303.046715 245.597105 
L 337.364063 214.627022 
L 262.586146 131.767059 
z
" clip-path="url(#p3d4c07b407)" style="fill: #ffffff; stroke: #000000; stroke-width: 0.5"/>
    <path d="M 226.786191 159.945397 
L 298.880639 245.150449 
L 334.169232 215.291755 
L 262.074784 130.086702 
z
" clip-path="url(#p3d4c07b407)" style="fill: #ffffff; stroke: #000000; stroke-width: 0.5"/>
    <path d="M 224.697495 156.281111 
L 294.034973 243.744388 
L 330.258833 215.027522 
L 260.921356 127.564246 
z
" clip-path="url(#p3d4c07b407)" style="fill: #ffffff; stroke: #000000; stroke-width: 0.5"/>
    <path d="M 222.726962 152.552253 
L 289.236779 242.184584 
L 326.358977 214.638824 
L 259.84916 125.006494 
z
" clip-path="url(#p3d4c07b407)" style="fill: #ffffff; stroke: #000000; stroke-width: 0.5"/>
    <path d="M 220.876387 148.762206 
L 284.490645 240.472274 
L 322.47336 214.125741 
L 258.859102 122.415673 
z
" clip-path="url(#p3d4c07b407)" style="fill: #ffffff; stroke: #000000; stroke-width: 0.5"/>
    <path d="M 219.138442 144.963925 
L 279.938278 238.563553 
L 318.703575 213.382644 
L 257.903739 119.783016 
z
" clip-path="url(#p3d4c07b407)" style="fill: #ffffff; stroke: #000000; stroke-width: 0.5"/>
    <path d="M 217.055843 143.132278 
L 280.812909 234.743124 
L 318.75453 208.337446 
L 254.997464 116.7266 
z
" clip-path="url(#p3d4c07b407)" style="fill: #ffffff; stroke: #000000; stroke-width: 0.5"/>
    <path d="M 214.915725 141.368062 
L 281.565019 230.896728 
L 318.644283 203.293203 
L 251.994989 113.764537 
z
" clip-path="url(#p3d4c07b407)" style="fill: #ffffff; stroke: #000000; stroke-width: 0.5"/>
    <path d="M 212.720375 139.67308 
L 282.193948 227.028292 
L 318.373053 198.255061 
L 248.899479 110.899849 
z
" clip-path="url(#p3d4c07b407)" style="fill: #ffffff; stroke: #000000; stroke-width: 0.5"/>
    <path d="M 210.811231 136.078993 
L 277.560845 225.532889 
L 314.609142 197.887815 
L 247.859528 108.433919 
z
" clip-path="url(#p3d4c07b407)" style="fill: #ffffff; stroke: #000000; stroke-width: 0.5"/>
    <path d="M 209.013868 132.427814 
L 272.976164 223.895486 
L 310.858489 197.40481 
L 246.896192 105.937138 
z
" clip-path="url(#p3d4c07b407)" style="fill: #ffffff; stroke: #000000; stroke-width: 0.5"/>
    <path d="M 207.329829 128.722986 
L 268.444003 222.117677 
L 307.124423 196.806581 
L 246.010248 103.411891 
z
" clip-path="url(#p3d4c07b407)" style="fill: #ffffff; stroke: #000000; stroke-width: 0.5"/>
    <path d="M 205.760619 124.96801 
L 263.968659 220.201064 
L 303.410457 196.093576 
L 245.202417 100.860522 
z
" clip-path="url(#p3d4c07b407)" style="fill: #ffffff; stroke: #000000; stroke-width: 0.5"/>
    <path d="M 204.30795 121.166533 
L 259.554699 218.147497 
L 299.720412 195.266459 
L 244.473664 98.285496 
z
" clip-path="url(#p3d4c07b407)" style="fill: #ffffff; stroke: #000000; stroke-width: 0.5"/>
    <path d="M 202.600601 118.616559 
L 258.844269 215.022785 
L 298.771949 191.728862 
L 242.528281 95.322637 
z
" clip-path="url(#p3d4c07b407)" style="fill: #ffffff; stroke: #000000; stroke-width: 0.5"/>
    <path d="M 200.679311 116.753831 
L 259.866092 211.381709 
L 299.05725 186.868865 
L 239.870469 92.240986 
z
" clip-path="url(#p3d4c07b407)" style="fill: #ffffff; stroke: #000000; stroke-width: 0.5"/>
    <path d="M 198.70113 114.951038 
L 260.774474 207.710999 
L 299.192014 182.002653 
L 237.118669 89.242692 
z
" clip-path="url(#p3d4c07b407)" style="fill: #ffffff; stroke: #000000; stroke-width: 0.5"/>
    <path d="M 196.668565 113.210194 
L 261.569932 204.013955 
L 299.17729 177.134352 
L 234.275923 86.330591 
z
" clip-path="url(#p3d4c07b407)" style="fill: #ffffff; stroke: #000000; stroke-width: 0.5"/>
    <path d="M 194.583452 111.53278 
L 262.251328 200.294084 
L 299.01278 172.268702 
L 231.344905 83.507398 
z
" clip-path="url(#p3d4c07b407)" style="fill: #ffffff; stroke: #000000; stroke-width: 0.5"/>
    <path d="M 192.447585 109.9204 
L 262.817649 196.555061 
L 298.69833 167.410539 
L 228.328266 80.775878 
z
" clip-path="url(#p3d4c07b407)" style="fill: #ffffff; stroke: #000000; stroke-width: 0.5"/>
    <path d="M 190.262953 108.374559 
L 263.268412 192.800345 
L 298.234264 162.564346 
L 225.228805 78.13856 
z
" clip-path="url(#p3d4c07b407)" style="fill: #ffffff; stroke: #000000; stroke-width: 0.5"/>
    <path d="M 188.03176 106.896807 
L 263.603401 189.033507 
L 297.621203 157.734696 
L 222.049562 75.597995 
z
" clip-path="url(#p3d4c07b407)" style="fill: #ffffff; stroke: #000000; stroke-width: 0.5"/>
    <path d="M 185.756183 105.488429 
L 263.822189 185.258155 
L 296.859683 152.926275 
L 218.793676 73.15655 
z
" clip-path="url(#p3d4c07b407)" style="fill: #ffffff; stroke: #000000; stroke-width: 0.5"/>
    <path d="M 183.438128 104.150881 
L 263.924401 181.477915 
L 295.950228 148.143656 
L 215.463954 70.816621 
z
" clip-path="url(#p3d4c07b407)" style="fill: #ffffff; stroke: #000000; stroke-width: 0.5"/>
    <path d="M 181.08019 102.885375 
L 263.910409 177.696238 
L 294.894137 143.391208 
L 212.063917 68.580345 
z
" clip-path="url(#p3d4c07b407)" style="fill: #ffffff; stroke: #000000; stroke-width: 0.5"/>
    <path d="M 178.999134 101.960868 
L 264.094601 174.184631 
L 294.006853 138.941424 
L 208.911386 66.717661 
z
" clip-path="url(#p3d4c07b407)" style="fill: #ffffff; stroke: #000000; stroke-width: 0.5"/>
    <path d="M 181.64612 105.014961 
L 268.911313 174.601573 
L 297.73136 138.45975 
L 210.466167 68.873139 
z
" clip-path="url(#p3d4c07b407)" style="fill: #ffffff; stroke: #000000; stroke-width: 0.5"/>
    <path d="M 184.385627 107.986524 
L 273.738918 174.870751 
L 301.439743 137.86412 
L 212.086452 70.979893 
z
" clip-path="url(#p3d4c07b407)" style="fill: #ffffff; stroke: #000000; stroke-width: 0.5"/>
    <path d="M 187.214415 110.873017 
L 278.572086 174.992331 
L 305.127792 137.155565 
L 213.770121 73.036251 
z
" clip-path="url(#p3d4c07b407)" style="fill: #ffffff; stroke: #000000; stroke-width: 0.5"/>
    <path d="M 190.13042 113.671595 
L 283.406944 174.96597 
L 308.792672 136.33449 
L 215.516147 75.040115 
z
" clip-path="url(#p3d4c07b407)" style="fill: #ffffff; stroke: #000000; stroke-width: 0.5"/>
    <path d="M 191.321082 115.25593 
L 286.429196 173.667889 
L 310.62114 134.277836 
L 215.513025 75.865877 
z
" clip-path="url(#p3d4c07b407)" style="fill: #ffffff; stroke: #000000; stroke-width: 0.5"/>
    <path d="M 188.765274 114.526361 
L 285.615881 170.001314 
L 308.591432 129.889589 
L 211.740826 74.414636 
z
" clip-path="url(#p3d4c07b407)" style="fill: #ffffff; stroke: #000000; stroke-width: 0.5"/>
    <path d="M 186.188674 113.875354 
L 284.691105 166.361368 
L 306.428754 125.565523 
L 207.926324 73.079508 
z
" clip-path="url(#p3d4c07b407)" style="fill: #ffffff; stroke: #000000; stroke-width: 0.5"/>
    <path d="M 183.593151 113.303486 
L 283.655191 162.751426 
L 304.134589 121.309651 
L 204.072549 71.861712 
z
" clip-path="url(#p3d4c07b407)" style="fill: #ffffff; stroke: #000000; stroke-width: 0.5"/>
    <path d="M 180.981273 112.811398 
L 282.509293 159.174869 
L 301.711226 117.125943 
L 200.183205 70.762471 
z
" clip-path="url(#p3d4c07b407)" style="fill: #ffffff; stroke: #000000; stroke-width: 0.5"/>
    <path d="M 178.355642 112.399124 
L 281.254547 155.634824 
L 299.161079 113.018131 
L 196.262174 69.782431 
z
" clip-path="url(#p3d4c07b407)" style="fill: #ffffff; stroke: #000000; stroke-width: 0.5"/>
    <path d="M 175.718608 112.067755 
L 279.892067 152.135207 
L 296.486436 108.990644 
L 192.312976 68.923191 
z
" clip-path="url(#p3d4c07b407)" style="fill: #ffffff; stroke: #000000; stroke-width: 0.5"/>
    <path d="M 173.07271 111.816958 
L 278.423238 148.678548 
L 293.689864 105.04649 
L 188.339336 68.184899 
z
" clip-path="url(#p3d4c07b407)" style="fill: #ffffff; stroke: #000000; stroke-width: 0.5"/>
    <path d="M 170.420352 111.647283 
L 276.849281 145.268607 
L 290.773916 101.189916 
L 184.344986 67.568592 
z
" clip-path="url(#p3d4c07b407)" style="fill: #ffffff; stroke: #000000; stroke-width: 0.5"/>
    <path d="M 167.764068 111.5589 
L 275.171765 141.908482 
L 287.741372 97.424424 
L 180.333675 67.074843 
z
" clip-path="url(#p3d4c07b407)" style="fill: #ffffff; stroke: #000000; stroke-width: 0.5"/>
    <path d="M 165.106305 111.551755 
L 273.392245 138.601074 
L 284.595012 93.753282 
L 176.309072 66.703963 
z
" clip-path="url(#p3d4c07b407)" style="fill: #ffffff; stroke: #000000; stroke-width: 0.5"/>
    <path d="M 168.326751 112.991313 
L 277.38953 136.715155 
L 287.215016 91.545627 
L 178.152237 67.821785 
z
" clip-path="url(#p3d4c07b407)" style="fill: #ffffff; stroke: #000000; stroke-width: 0.5"/>
    <path d="M 172.0991 114.441978 
L 281.836618 134.818133 
L 290.275622 89.369154 
L 180.538105 68.992999 
z
" clip-path="url(#p3d4c07b407)" style="fill: #ffffff; stroke: #000000; stroke-width: 0.5"/>
    <path d="M 175.914057 115.776365 
L 286.223581 132.785757 
L 293.268204 87.099877 
L 182.958681 70.090484 
z
" clip-path="url(#p3d4c07b407)" style="fill: #ffffff; stroke: #000000; stroke-width: 0.5"/>
    <path d="M 179.768073 116.993525 
L 290.546349 130.620121 
L 296.189951 84.740102 
L 185.411675 71.113506 
z
" clip-path="url(#p3d4c07b407)" style="fill: #ffffff; stroke: #000000; stroke-width: 0.5"/>
    <path d="M 183.657495 118.091979 
L 294.8008 128.323121 
L 299.038138 82.291921 
L 187.894833 72.060779 
z
" clip-path="url(#p3d4c07b407)" style="fill: #ffffff; stroke: #000000; stroke-width: 0.5"/>
    <path d="M 187.578779 119.071292 
L 298.983066 125.897379 
L 301.810163 79.75809 
L 190.405877 72.932003 
z
" clip-path="url(#p3d4c07b407)" style="fill: #ffffff; stroke: #000000; stroke-width: 0.5"/>
    <path d="M 191.528072 119.929823 
L 303.089045 123.344465 
L 304.503256 77.140283 
L 192.942283 73.725641 
z
" clip-path="url(#p3d4c07b407)" style="fill: #ffffff; stroke: #000000; stroke-width: 0.5"/>
    <path d="M 195.501813 120.667387 
L 307.115031 120.667387 
L 307.115031 74.441567 
L 195.501813 74.441567 
z
" clip-path="url(#p3d4c07b407)" style="fill: #ffffff; stroke: #000000; stroke-width: 0.5"/>
   </g>
   <g id="PatchCollection_3">
    <path d="M 213.342314 192.767289 
L 207.986593 194.552529 
L 207.986593 193.362369 
L 184.18339 193.362369 
L 184.18339 192.172208 
L 207.986593 192.172208 
L 207.986593 190.982048 
z
" clip-path="url(#p3d4c07b407)" style="fill: #ff0000; stroke: #ff0000; stroke-width: 0.24"/>
    <path d="M 216.501611 191.856882 
L 211.201108 193.799944 
L 211.165862 192.610306 
L 187.373099 193.315215 
L 187.337854 192.125577 
L 211.130617 191.420667 
L 211.095371 190.231029 
z
" clip-path="url(#p3d4c07b407)" style="fill: #ff0000; stroke: #ff0000; stroke-width: 0.24"/>
    <path d="M 219.632581 190.853207 
L 214.391944 192.952387 
L 214.321484 191.764314 
L 190.560032 193.173518 
L 190.489572 191.985445 
L 214.251024 190.576242 
L 214.180564 189.388169 
z
" clip-path="url(#p3d4c07b407)" style="fill: #ff0000; stroke: #ff0000; stroke-width: 0.24"/>
    <path d="M 222.732447 189.757265 
L 217.556275 192.01072 
L 217.450662 190.825255 
L 193.741363 192.937514 
L 193.63575 191.752049 
L 217.345049 189.639791 
L 217.239436 188.454326 
z
" clip-path="url(#p3d4c07b407)" style="fill: #ff0000; stroke: #ff0000; stroke-width: 0.24"/>
    <path d="M 225.798481 188.570037 
L 220.691313 190.975793 
L 220.55064 189.793976 
L 196.914294 192.607444 
L 196.77362 191.425627 
L 220.409966 188.612159 
L 220.269293 187.430341 
z
" clip-path="url(#p3d4c07b407)" style="fill: #ff0000; stroke: #ff0000; stroke-width: 0.24"/>
    <path d="M 228.82805 187.292306 
L 223.794366 189.848249 
L 223.618756 188.671116 
L 200.076093 192.183309 
L 199.900484 191.006176 
L 223.443146 187.493983 
L 223.267537 186.31685 
z
" clip-path="url(#p3d4c07b407)" style="fill: #ff0000; stroke: #ff0000; stroke-width: 0.24"/>
    <path d="M 231.818416 185.925726 
L 226.862633 188.629619 
L 226.65224 187.458203 
L 203.223916 191.666064 
L 203.013523 190.494647 
L 226.441847 186.286787 
L 226.231454 185.11537 
z
" clip-path="url(#p3d4c07b407)" style="fill: #ff0000; stroke: #ff0000; stroke-width: 0.24"/>
    <path d="M 234.767021 184.471102 
L 229.893484 187.320568 
L 229.648493 186.155896 
L 206.355054 191.05571 
L 206.110064 189.891038 
L 229.403502 184.991224 
L 229.158512 183.826552 
z
" clip-path="url(#p3d4c07b407)" style="fill: #ff0000; stroke: #ff0000; stroke-width: 0.24"/>
    <path d="M 237.67115 182.929862 
L 232.884133 185.922402 
L 232.60476 184.765496 
L 209.466638 190.352965 
L 209.187265 189.196059 
L 232.325386 183.60859 
L 232.046013 182.451683 
z
" clip-path="url(#p3d4c07b407)" style="fill: #ff0000; stroke: #ff0000; stroke-width: 0.24"/>
    <path d="M 240.528533 181.303194 
L 235.832239 184.436187 
L 235.518727 183.288062 
L 212.556225 189.558308 
L 212.242713 188.410183 
L 235.205214 182.139937 
L 234.891702 180.991812 
z
" clip-path="url(#p3d4c07b407)" style="fill: #ff0000; stroke: #ff0000; stroke-width: 0.24"/>
    <path d="M 243.336494 179.592601 
L 238.735039 182.863295 
L 238.387664 181.724957 
L 215.620919 188.672458 
L 215.273544 187.53412 
L 238.040289 180.58662 
L 237.692914 179.448283 
z
" clip-path="url(#p3d4c07b407)" style="fill: #ff0000; stroke: #ff0000; stroke-width: 0.24"/>
    <path d="M 246.188591 178.089211 
L 241.650952 181.44788 
L 241.281728 180.316441 
L 218.652946 187.700932 
L 218.283721 186.569493 
L 240.912503 179.185002 
L 240.543278 178.053563 
z
" clip-path="url(#p3d4c07b407)" style="fill: #ff0000; stroke: #ff0000; stroke-width: 0.24"/>
    <path d="M 249.474467 177.974565 
L 244.839355 181.197385 
L 244.503799 180.055508 
L 221.66626 186.766639 
L 221.330703 185.624762 
L 244.168242 178.913631 
L 243.832685 177.771754 
z
" clip-path="url(#p3d4c07b407)" style="fill: #ff0000; stroke: #ff0000; stroke-width: 0.24"/>
    <path d="M 252.762224 177.957344 
L 248.033706 181.041487 
L 247.732112 179.890174 
L 224.705848 185.922059 
L 224.404254 184.770745 
L 247.430518 178.738861 
L 247.128923 177.587548 
z
" clip-path="url(#p3d4c07b407)" style="fill: #ff0000; stroke: #ff0000; stroke-width: 0.24"/>
    <path d="M 256.049287 178.037561 
L 251.231507 180.980318 
L 250.964141 179.820578 
L 227.769344 185.167902 
L 227.501978 184.008162 
L 250.696775 178.660838 
L 250.429409 177.501099 
z
" clip-path="url(#p3d4c07b407)" style="fill: #ff0000; stroke: #ff0000; stroke-width: 0.24"/>
    <path d="M 259.332366 178.215137 
L 254.429553 181.013932 
L 254.196649 179.846783 
L 230.853671 184.504879 
L 230.620766 183.33773 
L 253.963744 178.679634 
L 253.730839 177.512486 
z
" clip-path="url(#p3d4c07b407)" style="fill: #ff0000; stroke: #ff0000; stroke-width: 0.24"/>
    <path d="M 262.608696 178.489867 
L 257.625148 181.142239 
L 257.426911 179.968704 
L 233.956223 183.933462 
L 233.757985 182.759928 
L 257.228673 178.79517 
L 257.030435 177.621636 
z
" clip-path="url(#p3d4c07b407)" style="fill: #ff0000; stroke: #ff0000; stroke-width: 0.24"/>
    <path d="M 265.875511 178.861184 
L 260.815602 181.364812 
L 260.652204 180.185922 
L 237.074399 183.453887 
L 236.911001 182.274997 
L 260.488806 179.007031 
L 260.325407 177.828141 
z
" clip-path="url(#p3d4c07b407)" style="fill: #ff0000; stroke: #ff0000; stroke-width: 0.24"/>
    <path d="M 269.130085 179.329351 
L 263.998252 181.682033 
L 263.869838 180.49882 
L 240.205595 183.067104 
L 240.077181 181.883892 
L 263.741424 179.315608 
L 263.613009 178.132396 
z
" clip-path="url(#p3d4c07b407)" style="fill: #ff0000; stroke: #ff0000; stroke-width: 0.24"/>
    <path d="M 272.368987 179.893794 
L 267.169733 182.093472 
L 267.076415 180.906976 
L 243.346494 182.773348 
L 243.253176 181.586852 
L 266.983096 179.72048 
L 266.889777 178.533984 
z
" clip-path="url(#p3d4c07b407)" style="fill: #ff0000; stroke: #ff0000; stroke-width: 0.24"/>
    <path d="M 275.590009 180.553805 
L 270.327893 182.598546 
L 270.269753 181.409807 
L 246.494969 182.572618 
L 246.436829 181.383879 
L 270.211612 180.221068 
L 270.153472 179.032329 
z
" clip-path="url(#p3d4c07b407)" style="fill: #ff0000; stroke: #ff0000; stroke-width: 0.24"/>
    <path d="M 278.790005 181.308846 
L 273.469645 183.196858 
L 273.446733 182.006919 
L 249.647941 182.465152 
L 249.62503 181.275212 
L 273.423821 180.816979 
L 273.40091 179.62704 
z
" clip-path="url(#p3d4c07b407)" style="fill: #ff0000; stroke: #ff0000; stroke-width: 0.24"/>
    <path d="M 281.966333 182.158165 
L 276.592394 183.887791 
L 276.604732 182.697695 
L 252.802808 182.450948 
L 252.815145 181.260852 
L 276.617069 181.507599 
L 276.629406 180.317503 
z
" clip-path="url(#p3d4c07b407)" style="fill: #ff0000; stroke: #ff0000; stroke-width: 0.24"/>
    <path d="M 285.116132 183.101482 
L 279.693329 184.671205 
L 279.740905 183.481996 
L 255.956727 182.530484 
L 256.004303 181.341275 
L 279.78848 182.292787 
L 279.836056 181.103579 
z
" clip-path="url(#p3d4c07b407)" style="fill: #ff0000; stroke: #ff0000; stroke-width: 0.24"/>
    <path d="M 288.236328 184.137559 
L 282.769417 185.546002 
L 282.852189 184.358723 
L 259.106621 182.703282 
L 259.189393 181.516003 
L 282.934961 183.171445 
L 283.017733 181.984167 
z
" clip-path="url(#p3d4c07b407)" style="fill: #ff0000; stroke: #ff0000; stroke-width: 0.24"/>
    <path d="M 291.324818 185.265641 
L 285.818595 186.511569 
L 285.936491 185.327262 
L 262.250363 182.969344 
L 262.368259 181.785037 
L 286.054387 184.142956 
L 286.172283 182.958649 
z
" clip-path="url(#p3d4c07b407)" style="fill: #ff0000; stroke: #ff0000; stroke-width: 0.24"/>
    <path d="M 294.378335 186.484498 
L 288.837631 187.566817 
L 288.990547 186.386522 
L 265.384635 183.328195 
L 265.537551 182.147899 
L 289.143463 185.206226 
L 289.29638 184.025931 
z
" clip-path="url(#p3d4c07b407)" style="fill: #ff0000; stroke: #ff0000; stroke-width: 0.24"/>
    <path d="M 297.78644 186.191879 
L 292.272372 187.402617 
L 292.397829 186.219087 
L 268.727242 183.709949 
L 268.852699 182.52642 
L 292.523286 185.035558 
L 292.648743 183.852029 
z
" clip-path="url(#p3d4c07b407)" style="fill: #ff0000; stroke: #ff0000; stroke-width: 0.24"/>
    <path d="M 301.002143 187.502634 
L 295.452907 188.540322 
L 295.615318 187.361296 
L 272.034786 184.113066 
L 272.197198 182.934039 
L 295.777729 186.182269 
L 295.940141 185.003243 
z
" clip-path="url(#p3d4c07b407)" style="fill: #ff0000; stroke: #ff0000; stroke-width: 0.24"/>
    <path d="M 304.175302 188.913279 
L 298.596325 189.776902 
L 298.795533 188.603531 
L 275.328128 184.619388 
L 275.527335 183.446018 
L 298.99474 187.430161 
L 299.193947 186.256791 
z
" clip-path="url(#p3d4c07b407)" style="fill: #ff0000; stroke: #ff0000; stroke-width: 0.24"/>
    <path d="M 307.302476 190.422244 
L 301.699217 191.110952 
L 301.935026 189.944386 
L 278.603714 185.228204 
L 278.839524 184.061639 
L 302.170835 188.77782 
L 302.406644 187.611255 
z
" clip-path="url(#p3d4c07b407)" style="fill: #ff0000; stroke: #ff0000; stroke-width: 0.24"/>
    <path d="M 310.381219 192.028596 
L 304.759162 192.54172 
L 305.031341 191.3831 
L 281.858946 185.939518 
L 282.131125 184.780898 
L 305.30352 190.22448 
L 305.575699 189.06586 
z
" clip-path="url(#p3d4c07b407)" style="fill: #ff0000; stroke: #ff0000; stroke-width: 0.24"/>
    <path d="M 313.40814 193.730329 
L 307.772784 194.067361 
L 308.081068 192.917821 
L 285.090269 186.752142 
L 285.398553 185.602602 
L 308.389352 191.768281 
L 308.697636 190.618741 
z
" clip-path="url(#p3d4c07b407)" style="fill: #ff0000; stroke: #ff0000; stroke-width: 0.24"/>
    <path d="M 316.380376 195.525808 
L 310.737236 195.686424 
L 311.081322 194.547088 
L 288.294607 187.665367 
L 288.638693 186.526032 
L 311.425408 193.407753 
L 311.769494 192.268417 
z
" clip-path="url(#p3d4c07b407)" style="fill: #ff0000; stroke: #ff0000; stroke-width: 0.24"/>
    <path d="M 319.295071 197.413488 
L 313.649668 197.397531 
L 314.02922 196.269514 
L 291.468884 188.678485 
L 291.848435 187.550468 
L 314.408771 195.141498 
L 314.788322 194.013481 
z
" clip-path="url(#p3d4c07b407)" style="fill: #ff0000; stroke: #ff0000; stroke-width: 0.24"/>
    <path d="M 322.149153 199.391356 
L 316.507011 199.198836 
L 316.921658 198.083243 
L 294.609783 189.79031 
L 295.02443 188.674716 
L 317.336304 196.967649 
L 317.750951 195.852055 
z
" clip-path="url(#p3d4c07b407)" style="fill: #ff0000; stroke: #ff0000; stroke-width: 0.24"/>
    <path d="M 324.940083 201.457564 
L 319.306722 201.088676 
L 319.756057 199.986596 
L 297.714467 190.999896 
L 298.163802 189.897817 
L 320.205392 198.884517 
L 320.654727 197.782437 
z
" clip-path="url(#p3d4c07b407)" style="fill: #ff0000; stroke: #ff0000; stroke-width: 0.24"/>
    <path d="M 321.852089 201.126994 
L 316.233023 200.582093 
L 316.716607 199.494606 
L 294.966877 189.82291 
L 295.450462 188.735424 
L 317.200192 198.40712 
L 317.683777 197.319633 
z
" clip-path="url(#p3d4c07b407)" style="fill: #ff0000; stroke: #ff0000; stroke-width: 0.24"/>
    <path d="M 318.428596 200.545584 
L 312.829321 199.825207 
L 313.346681 198.753377 
L 291.910082 188.406171 
L 292.427443 187.334341 
L 313.864042 197.681547 
L 314.381402 196.609717 
z
" clip-path="url(#p3d4c07b407)" style="fill: #ff0000; stroke: #ff0000; stroke-width: 0.24"/>
    <path d="M 315.025113 199.857034 
L 309.451107 198.961888 
L 310.001737 197.906763 
L 288.899243 186.89417 
L 289.449872 185.839045 
L 310.552366 196.851639 
L 311.102996 195.796514 
z
" clip-path="url(#p3d4c07b407)" style="fill: #ff0000; stroke: #ff0000; stroke-width: 0.24"/>
    <path d="M 311.644642 199.062479 
L 306.101361 197.993433 
L 306.684722 196.956046 
L 285.936992 185.28882 
L 286.520354 184.251433 
L 307.268084 195.91866 
L 307.851445 194.881273 
z
" clip-path="url(#p3d4c07b407)" style="fill: #ff0000; stroke: #ff0000; stroke-width: 0.24"/>
    <path d="M 309.649876 198.884625 
L 304.140768 197.651516 
L 304.754664 196.631901 
L 284.362378 184.353989 
L 284.976273 183.334375 
L 305.368559 195.612287 
L 305.982455 194.592673 
z
" clip-path="url(#p3d4c07b407)" style="fill: #ff0000; stroke: #ff0000; stroke-width: 0.24"/>
    <path d="M 306.493161 197.939193 
L 301.023081 196.543109 
L 301.66697 195.542165 
L 281.648098 182.664386 
L 282.291987 181.663442 
L 302.310859 194.541221 
L 302.954748 193.540278 
z
" clip-path="url(#p3d4c07b407)" style="fill: #ff0000; stroke: #ff0000; stroke-width: 0.24"/>
    <path d="M 303.365776 196.900358 
L 297.939544 195.342528 
L 298.612859 194.361137 
L 278.98504 180.894838 
L 279.658355 179.913448 
L 299.286174 193.379746 
L 299.959489 192.398355 
z
" clip-path="url(#p3d4c07b407)" style="fill: #ff0000; stroke: #ff0000; stroke-width: 0.24"/>
    <path d="M 300.270505 195.769174 
L 294.892905 194.050965 
L 295.595053 193.089992 
L 276.375598 179.047022 
L 277.077747 178.086049 
L 296.297202 192.12902 
L 296.99935 191.168047 
z
" clip-path="url(#p3d4c07b407)" style="fill: #ff0000; stroke: #ff0000; stroke-width: 0.24"/>
    <path d="M 297.210203 194.546637 
L 291.885972 192.669569 
L 292.616334 191.72986 
L 273.822166 177.122612 
L 274.552528 176.182904 
L 293.346697 190.790152 
L 294.077059 189.850443 
z
" clip-path="url(#p3d4c07b407)" style="fill: #ff0000; stroke: #ff0000; stroke-width: 0.24"/>
    <path d="M 294.187694 193.233828 
L 288.921523 191.199554 
L 289.679456 190.281938 
L 271.327135 175.123285 
L 272.085067 174.205669 
L 290.437388 189.364322 
L 291.195321 188.446706 
z
" clip-path="url(#p3d4c07b407)" style="fill: #ff0000; stroke: #ff0000; stroke-width: 0.24"/>
    <path d="M 291.205358 191.831817 
L 286.001888 189.642132 
L 286.786723 188.747417 
L 268.892422 173.050715 
L 269.677257 172.156 
L 287.571558 187.852702 
L 288.356393 186.957987 
z
" clip-path="url(#p3d4c07b407)" style="fill: #ff0000; stroke: #ff0000; stroke-width: 0.24"/>
    <path d="M 288.266071 190.341929 
L 283.129886 187.998761 
L 283.940932 187.127735 
L 266.520419 170.906817 
L 267.331465 170.035792 
L 284.751978 186.25671 
L 285.563024 185.385684 
z
" clip-path="url(#p3d4c07b407)" style="fill: #ff0000; stroke: #ff0000; stroke-width: 0.24"/>
    <path d="M 285.372247 188.765502 
L 280.307874 186.270916 
L 281.144416 185.424347 
L 264.213042 168.693507 
L 265.049584 167.846938 
L 281.980958 184.577779 
L 282.8175 183.73121 
z
" clip-path="url(#p3d4c07b407)" style="fill: #ff0000; stroke: #ff0000; stroke-width: 0.24"/>
    <path d="M 282.526298 187.103672 
L 277.538203 184.459861 
L 278.399505 183.638496 
L 261.972206 166.41246 
L 262.833508 165.591095 
L 279.260807 182.817131 
L 280.122108 181.995766 
z
" clip-path="url(#p3d4c07b407)" style="fill: #ff0000; stroke: #ff0000; stroke-width: 0.24"/>
    <path d="M 279.778428 185.31573 
L 274.864901 182.535788 
L 275.748457 181.738412 
L 259.800938 164.067275 
L 260.684495 163.269899 
L 276.632014 180.941036 
L 277.515571 180.143661 
z
" clip-path="url(#p3d4c07b407)" style="fill: #ff0000; stroke: #ff0000; stroke-width: 0.24"/>
    <path d="M 277.54873 184.15695 
L 272.726459 181.221558 
L 273.635022 180.452797 
L 258.259793 162.281534 
L 259.168356 161.512772 
L 274.543585 179.684035 
L 275.452148 178.915274 
z
" clip-path="url(#p3d4c07b407)" style="fill: #ff0000; stroke: #ff0000; stroke-width: 0.24"/>
    <path d="M 274.661191 182.100946 
L 269.935092 179.013097 
L 270.867735 178.273734 
L 256.080472 159.62087 
L 257.013115 158.881507 
L 271.800378 177.534371 
L 272.733021 176.795007 
z
" clip-path="url(#p3d4c07b407)" style="fill: #ff0000; stroke: #ff0000; stroke-width: 0.24"/>
    <path d="M 271.840875 179.954046 
L 267.215767 176.716887 
L 268.171539 176.007676 
L 253.987317 156.892229 
L 254.943089 156.183018 
L 269.127311 175.298465 
L 270.083084 174.589254 
z
" clip-path="url(#p3d4c07b407)" style="fill: #ff0000; stroke: #ff0000; stroke-width: 0.24"/>
    <path d="M 269.090417 177.718069 
L 264.571018 174.334896 
L 265.548945 173.656561 
L 251.982245 154.098005 
L 252.960173 153.41967 
L 266.526873 172.978226 
L 267.504801 172.299891 
z
" clip-path="url(#p3d4c07b407)" style="fill: #ff0000; stroke: #ff0000; stroke-width: 0.24"/>
    <path d="M 266.450894 175.370613 
L 262.03632 171.851754 
L 263.034397 171.20343 
L 250.067914 151.241897 
L 251.065991 150.593573 
L 264.032473 170.555106 
L 265.03055 169.906782 
z
" clip-path="url(#p3d4c07b407)" style="fill: #ff0000; stroke: #ff0000; stroke-width: 0.24"/>
    <path d="M 265.314928 172.012988 
L 260.790263 168.636861 
L 261.767133 167.957003 
L 248.169977 148.419608 
L 249.146847 147.73975 
L 262.744003 167.277145 
L 263.720873 166.597288 
z
" clip-path="url(#p3d4c07b407)" style="fill: #ff0000; stroke: #ff0000; stroke-width: 0.24"/>
    <path d="M 264.072243 168.693352 
L 259.4421 165.463398 
L 260.396767 164.7527 
L 246.1828 145.659361 
L 247.137466 144.948662 
L 261.351434 164.042001 
L 262.306101 163.331303 
z
" clip-path="url(#p3d4c07b407)" style="fill: #ff0000; stroke: #ff0000; stroke-width: 0.24"/>
    <path d="M 262.724211 165.41509 
L 257.99331 162.334603 
L 258.924801 161.593789 
L 244.108513 142.963972 
L 245.040004 142.223157 
L 259.856292 160.852974 
L 260.787782 160.11216 
z
" clip-path="url(#p3d4c07b407)" style="fill: #ff0000; stroke: #ff0000; stroke-width: 0.24"/>
    <path d="M 259.99835 163.349161 
L 255.364589 160.124399 
L 256.318459 159.412631 
L 242.083096 140.335238 
L 243.036966 139.62347 
L 257.272328 158.700863 
L 258.226198 157.989095 
z
" clip-path="url(#p3d4c07b407)" style="fill: #ff0000; stroke: #ff0000; stroke-width: 0.24"/>
    <path d="M 257.337582 161.200255 
L 252.80536 157.834281 
L 253.780703 157.152234 
L 240.139778 137.645373 
L 241.115121 136.963327 
L 254.756046 156.470188 
L 255.731389 155.788142 
z
" clip-path="url(#p3d4c07b407)" style="fill: #ff0000; stroke: #ff0000; stroke-width: 0.24"/>
    <path d="M 254.74424 158.970438 
L 250.317861 155.466441 
L 251.313753 154.814765 
L 238.280233 134.896938 
L 239.276124 134.245262 
L 252.309644 154.163089 
L 253.305535 153.511413 
z
" clip-path="url(#p3d4c07b407)" style="fill: #ff0000; stroke: #ff0000; stroke-width: 0.24"/>
    <path d="M 252.22072 156.66176 
L 247.904386 153.023066 
L 248.919881 152.402379 
L 236.506138 132.092493 
L 237.521632 131.471806 
L 249.935375 151.781692 
L 250.950869 151.161005 
z
" clip-path="url(#p3d4c07b407)" style="fill: #ff0000; stroke: #ff0000; stroke-width: 0.24"/>
    <path d="M 249.769672 154.276451 
L 245.567477 150.506519 
L 246.60161 149.917409 
L 234.819407 129.234755 
L 235.85354 128.645645 
L 247.635742 149.328298 
L 248.669875 148.739188 
z
" clip-path="url(#p3d4c07b407)" style="fill: #ff0000; stroke: #ff0000; stroke-width: 0.24"/>
    <path d="M 248.401263 151.256015 
L 244.160425 147.529607 
L 245.188429 146.929867 
L 233.193618 126.369785 
L 234.221622 125.770044 
L 246.216433 146.330126 
L 247.244437 145.730386 
z
" clip-path="url(#p3d4c07b407)" style="fill: #ff0000; stroke: #ff0000; stroke-width: 0.24"/>
    <path d="M 247.463699 147.966901 
L 243.110081 144.372901 
L 244.119122 143.741778 
L 231.496648 123.560955 
L 232.505689 122.929831 
L 245.128163 143.110654 
L 246.137204 142.47953 
z
" clip-path="url(#p3d4c07b407)" style="fill: #ff0000; stroke: #ff0000; stroke-width: 0.24"/>
    <path d="M 246.424718 144.708287 
L 241.962466 141.250089 
L 242.951589 140.588185 
L 229.713512 120.805724 
L 230.702635 120.14382 
L 243.940712 139.926281 
L 244.929835 139.264377 
z
" clip-path="url(#p3d4c07b407)" style="fill: #ff0000; stroke: #ff0000; stroke-width: 0.24"/>
    <path d="M 245.28618 141.483189 
L 240.719515 138.164092 
L 241.687779 137.472032 
L 227.846583 118.10676 
L 228.814846 117.414701 
L 242.656042 136.779973 
L 243.624306 136.087913 
z
" clip-path="url(#p3d4c07b407)" style="fill: #ff0000; stroke: #ff0000; stroke-width: 0.24"/>
    <path d="M 244.048973 138.294636 
L 239.382228 135.117796 
L 240.328712 134.396236 
L 225.897517 115.466549 
L 226.844001 114.744989 
L 241.275197 133.674676 
L 242.221681 132.953116 
z
" clip-path="url(#p3d4c07b407)" style="fill: #ff0000; stroke: #ff0000; stroke-width: 0.24"/>
    <path d="M 242.714033 135.145763 
L 237.951639 132.114191 
L 238.875447 131.363817 
L 223.867969 112.887668 
L 224.791776 112.137294 
L 239.799254 130.613443 
L 240.723062 129.863069 
z
" clip-path="url(#p3d4c07b407)" style="fill: #ff0000; stroke: #ff0000; stroke-width: 0.24"/>
    <path d="M 241.282616 132.039486 
L 236.429094 129.156058 
L 237.329348 128.377583 
L 221.759832 110.37251 
L 222.660086 109.594034 
L 238.229602 127.599107 
L 239.129855 126.820631 
z
" clip-path="url(#p3d4c07b407)" style="fill: #ff0000; stroke: #ff0000; stroke-width: 0.24"/>
    <path d="M 239.756232 128.978784 
L 234.816187 126.246243 
L 235.692032 125.440403 
L 219.575239 107.923512 
L 220.451084 107.117673 
L 236.567876 124.634564 
L 237.443721 123.828724 
z
" clip-path="url(#p3d4c07b407)" style="fill: #ff0000; stroke: #ff0000; stroke-width: 0.24"/>
    <path d="M 238.136345 125.966548 
L 233.114468 123.387482 
L 233.965073 122.555045 
L 217.316319 105.542947 
L 218.166924 104.710509 
L 234.815678 121.722607 
L 235.666283 120.890169 
z
" clip-path="url(#p3d4c07b407)" style="fill: #ff0000; stroke: #ff0000; stroke-width: 0.24"/>
    <path d="M 236.424262 123.005703 
L 231.32532 120.582561 
L 232.149878 119.724315 
L 214.984965 103.233158 
L 215.809523 102.374913 
L 232.974436 118.86607 
L 233.798993 118.007824 
z
" clip-path="url(#p3d4c07b407)" style="fill: #ff0000; stroke: #ff0000; stroke-width: 0.24"/>
    <path d="M 234.62202 120.098951 
L 229.450851 117.834038 
L 230.248578 116.950798 
L 212.583784 100.996253 
L 213.381511 100.113013 
L 231.046305 116.067558 
L 231.844032 115.184319 
z
" clip-path="url(#p3d4c07b407)" style="fill: #ff0000; stroke: #ff0000; stroke-width: 0.24"/>
    <path d="M 233.04582 117.516911 
L 227.807334 115.412372 
L 228.577474 114.504977 
L 210.429582 99.10217 
L 211.199722 98.194775 
L 229.347614 113.597582 
L 230.117755 112.690188 
z
" clip-path="url(#p3d4c07b407)" style="fill: #ff0000; stroke: #ff0000; stroke-width: 0.24"/>
    <path d="M 236.143417 118.91026 
L 230.842998 116.966968 
L 231.585018 116.036437 
L 212.974398 101.196042 
L 213.716418 100.265511 
L 232.327037 115.105906 
L 233.069057 114.175375 
z
" clip-path="url(#p3d4c07b407)" style="fill: #ff0000; stroke: #ff0000; stroke-width: 0.24"/>
    <path d="M 239.282529 120.208017 
L 233.925138 118.427796 
L 234.638341 117.474999 
L 215.582404 103.210929 
L 216.295607 102.258132 
L 235.351545 116.522202 
L 236.064748 115.569405 
z
" clip-path="url(#p3d4c07b407)" style="fill: #ff0000; stroke: #ff0000; stroke-width: 0.24"/>
    <path d="M 242.459516 121.409316 
L 237.050169 119.793828 
L 237.73389 118.819658 
L 218.250488 105.145247 
L 218.934209 104.171077 
L 238.41761 117.845488 
L 239.101331 116.871318 
z
" clip-path="url(#p3d4c07b407)" style="fill: #ff0000; stroke: #ff0000; stroke-width: 0.24"/>
    <path d="M 245.672 122.512836 
L 240.215763 121.063594 
L 240.869361 120.068963 
L 220.976734 106.997013 
L 221.630332 106.002381 
L 241.522958 119.074332 
L 242.176556 118.0797 
z
" clip-path="url(#p3d4c07b407)" style="fill: #ff0000; stroke: #ff0000; stroke-width: 0.24"/>
    <path d="M 247.107153 122.39378 
L 241.609132 121.112146 
L 242.231994 120.097984 
L 221.948753 107.640753 
L 222.571615 106.62659 
L 242.854855 119.083822 
L 243.477717 118.06966 
z
" clip-path="url(#p3d4c07b407)" style="fill: #ff0000; stroke: #ff0000; stroke-width: 0.24"/>
    <path d="M 244.743604 119.954194 
L 239.208946 118.841362 
L 239.80049 117.80862 
L 219.145637 105.977749 
L 219.73718 104.945006 
L 240.392034 116.775877 
L 240.983577 115.743134 
z
" clip-path="url(#p3d4c07b407)" style="fill: #ff0000; stroke: #ff0000; stroke-width: 0.24"/>
    <path d="M 242.306856 117.588089 
L 236.740745 116.645101 
L 237.300416 115.594744 
L 216.293287 104.40131 
L 216.852958 103.350954 
L 237.860088 114.544388 
L 238.41976 113.494032 
z
" clip-path="url(#p3d4c07b407)" style="fill: #ff0000; stroke: #ff0000; stroke-width: 0.24"/>
    <path d="M 239.798649 115.297647 
L 234.206294 114.525386 
L 234.73357 113.458399 
L 213.39383 102.91288 
L 213.921106 101.845893 
L 235.260846 112.391412 
L 235.788122 111.324425 
z
" clip-path="url(#p3d4c07b407)" style="fill: #ff0000; stroke: #ff0000; stroke-width: 0.24"/>
    <path d="M 237.22147 113.085062 
L 231.608106 112.484256 
L 232.102492 111.401637 
L 210.450109 101.513927 
L 210.944495 100.431308 
L 232.596877 110.319017 
L 233.091263 109.236398 
z
" clip-path="url(#p3d4c07b407)" style="fill: #ff0000; stroke: #ff0000; stroke-width: 0.24"/>
    <path d="M 234.577887 110.952091 
L 228.94877 110.523297 
L 229.409803 109.42606 
L 207.465059 100.205395 
L 207.926092 99.108157 
L 229.870836 108.328823 
L 230.331869 107.231586 
z
" clip-path="url(#p3d4c07b407)" style="fill: #ff0000; stroke: #ff0000; stroke-width: 0.24"/>
    <path d="M 231.870267 108.901379 
L 226.230666 108.644998 
L 226.657915 107.53417 
L 204.441353 98.989182 
L 204.868603 97.878353 
L 227.085165 106.423342 
L 227.512414 105.312514 
z
" clip-path="url(#p3d4c07b407)" style="fill: #ff0000; stroke: #ff0000; stroke-width: 0.24"/>
    <path d="M 229.101211 106.934148 
L 223.456407 106.850427 
L 223.849471 105.727048 
L 201.381882 97.865757 
L 201.774946 96.742378 
L 224.242536 104.603668 
L 224.6356 103.480289 
z
" clip-path="url(#p3d4c07b407)" style="fill: #ff0000; stroke: #ff0000; stroke-width: 0.24"/>
    <path d="M 226.273245 105.052666 
L 220.628522 105.141677 
L 220.987035 104.006798 
L 198.28946 96.836544 
L 198.647972 95.701665 
L 221.345547 102.871919 
L 221.70406 101.737041 
z
" clip-path="url(#p3d4c07b407)" style="fill: #ff0000; stroke: #ff0000; stroke-width: 0.24"/>
    <path d="M 223.389068 103.25865 
L 217.74971 103.520309 
L 218.073335 102.374994 
L 195.167023 95.902488 
L 195.490648 94.757172 
L 218.39696 101.229678 
L 218.720585 100.084363 
z
" clip-path="url(#p3d4c07b407)" style="fill: #ff0000; stroke: #ff0000; stroke-width: 0.24"/>
    <path d="M 220.451326 101.553586 
L 214.822613 101.987655 
L 215.111046 100.832974 
L 192.017436 95.064299 
L 192.30587 93.909618 
L 215.39948 99.678294 
L 215.687914 98.523613 
z
" clip-path="url(#p3d4c07b407)" style="fill: #ff0000; stroke: #ff0000; stroke-width: 0.24"/>
    <path d="M 223.33999 101.304641 
L 217.727191 101.910707 
L 217.980165 100.747743 
L 194.720881 95.688276 
L 194.973855 94.525312 
L 218.233138 99.584779 
L 218.486111 98.421815 
z
" clip-path="url(#p3d4c07b407)" style="fill: #ff0000; stroke: #ff0000; stroke-width: 0.24"/>
    <path d="M 226.729055 101.077744 
L 221.137425 101.85524 
L 221.354701 100.685081 
L 197.95152 96.339559 
L 198.168796 95.169399 
L 221.571977 99.514922 
L 221.789253 98.344763 
z
" clip-path="url(#p3d4c07b407)" style="fill: #ff0000; stroke: #ff0000; stroke-width: 0.24"/>
    <path d="M 230.109586 100.74708 
L 224.544359 101.695278 
L 224.725735 100.51902 
L 201.200564 96.89151 
L 201.38194 95.715252 
L 224.90711 99.342761 
L 225.088486 98.166503 
z
" clip-path="url(#p3d4c07b407)" style="fill: #ff0000; stroke: #ff0000; stroke-width: 0.24"/>
    <path d="M 233.478423 100.313206 
L 227.944811 101.431224 
L 228.090115 100.249967 
L 204.464976 97.34389 
L 204.61028 96.162633 
L 228.235419 99.06871 
L 228.380723 97.887453 
z
" clip-path="url(#p3d4c07b407)" style="fill: #ff0000; stroke: #ff0000; stroke-width: 0.24"/>
    <path d="M 236.832398 99.77629 
L 231.33558 101.063076 
L 231.444677 99.877926 
L 207.74169 97.695981 
L 207.850788 96.510832 
L 231.553774 98.692777 
L 231.662872 97.507628 
z
" clip-path="url(#p3d4c07b407)" style="fill: #ff0000; stroke: #ff0000; stroke-width: 0.24"/>
    <path d="M 240.168449 99.137368 
L 234.713572 100.591719 
L 234.78636 99.403786 
L 211.027715 97.94802 
L 211.100504 96.760088 
L 234.859148 98.215854 
L 234.931937 97.027922 
z
" clip-path="url(#p3d4c07b407)" style="fill: #ff0000; stroke: #ff0000; stroke-width: 0.24"/>
    <path d="M 243.483276 98.396327 
L 238.075446 100.016881 
L 238.111857 98.827278 
L 214.319796 98.099054 
L 214.356207 96.909451 
L 238.148268 97.637675 
L 238.184679 96.448072 
z
" clip-path="url(#p3d4c07b407)" style="fill: #ff0000; stroke: #ff0000; stroke-width: 0.24"/>
    <path d="M 246.773912 97.554477 
L 241.418192 99.339717 
L 241.418192 98.149557 
L 217.614989 98.149557 
L 217.614989 96.959397 
L 241.418192 96.959397 
L 241.418192 95.769237 
z
" clip-path="url(#p3d4c07b407)" style="fill: #ff0000; stroke: #ff0000; stroke-width: 0.24"/>
   </g>
   <g id="matplotlib.axis_1">
    <g id="xtick_1">
     <g id="line2d_1">
      <defs>
       <path id="m7468de5e25" d="M 0 0 
L 0 -3 
" style="stroke: #000000"/>
      </defs>
      <g>
       <use xlink:href="#m7468de5e25" x="41.364173" y="268.435244" style="stroke: #000000"/>
      </g>
     </g>
     <g id="text_1">
      <!-- 6 -->
      <g transform="translate(33.624525 282.013604) scale(0.105 -0.105)">
       <defs>
        <path id="DejaVuSans-2212" d="M 678 2272 
L 4684 2272 
L 4684 1741 
L 678 1741 
L 678 2272 
z
" transform="scale(0.015625)"/>
        <path id="DejaVuSans-36" d="M 2113 2584 
Q 1688 2584 1439 2293 
Q 1191 2003 1191 1497 
Q 1191 994 1439 701 
Q 1688 409 2113 409 
Q 2538 409 2786 701 
Q 3034 994 3034 1497 
Q 3034 2003 2786 2293 
Q 2538 2584 2113 2584 
z
M 3366 4563 
L 3366 3988 
Q 3128 4100 2886 4159 
Q 2644 4219 2406 4219 
Q 1781 4219 1451 3797 
Q 1122 3375 1075 2522 
Q 1259 2794 1537 2939 
Q 1816 3084 2150 3084 
Q 2853 3084 3261 2657 
Q 3669 2231 3669 1497 
Q 3669 778 3244 343 
Q 2819 -91 2113 -91 
Q 1303 -91 875 529 
Q 447 1150 447 2328 
Q 447 3434 972 4092 
Q 1497 4750 2381 4750 
Q 2619 4750 2861 4703 
Q 3103 4656 3366 4563 
z
" transform="scale(0.015625)"/>
       </defs>
       <use xlink:href="#DejaVuSans-2212"/>
       <use xlink:href="#DejaVuSans-36" x="83.789062"/>
      </g>
     </g>
    </g>
    <g id="xtick_2">
     <g id="line2d_2">
      <g>
       <use xlink:href="#m7468de5e25" x="88.970579" y="268.435244" style="stroke: #000000"/>
      </g>
     </g>
     <g id="text_2">
      <!-- 4 -->
      <g transform="translate(81.230931 282.013604) scale(0.105 -0.105)">
       <defs>
        <path id="DejaVuSans-34" d="M 2419 4116 
L 825 1625 
L 2419 1625 
L 2419 4116 
z
M 2253 4666 
L 3047 4666 
L 3047 1625 
L 3713 1625 
L 3713 1100 
L 3047 1100 
L 3047 0 
L 2419 0 
L 2419 1100 
L 313 1100 
L 313 1709 
L 2253 4666 
z
" transform="scale(0.015625)"/>
       </defs>
       <use xlink:href="#DejaVuSans-2212"/>
       <use xlink:href="#DejaVuSans-34" x="83.789062"/>
      </g>
     </g>
    </g>
    <g id="xtick_3">
     <g id="line2d_3">
      <g>
       <use xlink:href="#m7468de5e25" x="136.576985" y="268.435244" style="stroke: #000000"/>
      </g>
     </g>
     <g id="text_3">
      <!-- 2 -->
      <g transform="translate(128.837336 282.013604) scale(0.105 -0.105)">
       <defs>
        <path id="DejaVuSans-32" d="M 1228 531 
L 3431 531 
L 3431 0 
L 469 0 
L 469 531 
Q 828 903 1448 1529 
Q 2069 2156 2228 2338 
Q 2531 2678 2651 2914 
Q 2772 3150 2772 3378 
Q 2772 3750 2511 3984 
Q 2250 4219 1831 4219 
Q 1534 4219 1204 4116 
Q 875 4013 500 3803 
L 500 4441 
Q 881 4594 1212 4672 
Q 1544 4750 1819 4750 
Q 2544 4750 2975 4387 
Q 3406 4025 3406 3419 
Q 3406 3131 3298 2873 
Q 3191 2616 2906 2266 
Q 2828 2175 2409 1742 
Q 1991 1309 1228 531 
z
" transform="scale(0.015625)"/>
       </defs>
       <use xlink:href="#DejaVuSans-2212"/>
       <use xlink:href="#DejaVuSans-32" x="83.789062"/>
      </g>
     </g>
    </g>
    <g id="xtick_4">
     <g id="line2d_4">
      <g>
       <use xlink:href="#m7468de5e25" x="184.18339" y="268.435244" style="stroke: #000000"/>
      </g>
     </g>
     <g id="text_4">
      <!-- 0 -->
      <g transform="translate(180.843078 282.013604) scale(0.105 -0.105)">
       <defs>
        <path id="DejaVuSans-30" d="M 2034 4250 
Q 1547 4250 1301 3770 
Q 1056 3291 1056 2328 
Q 1056 1369 1301 889 
Q 1547 409 2034 409 
Q 2525 409 2770 889 
Q 3016 1369 3016 2328 
Q 3016 3291 2770 3770 
Q 2525 4250 2034 4250 
z
M 2034 4750 
Q 2819 4750 3233 4129 
Q 3647 3509 3647 2328 
Q 3647 1150 3233 529 
Q 2819 -91 2034 -91 
Q 1250 -91 836 529 
Q 422 1150 422 2328 
Q 422 3509 836 4129 
Q 1250 4750 2034 4750 
z
" transform="scale(0.015625)"/>
       </defs>
       <use xlink:href="#DejaVuSans-30"/>
      </g>
     </g>
    </g>
    <g id="xtick_5">
     <g id="line2d_5">
      <g>
       <use xlink:href="#m7468de5e25" x="231.789796" y="268.435244" style="stroke: #000000"/>
      </g>
     </g>
     <g id="text_5">
      <!-- 2 -->
      <g transform="translate(228.449484 282.013604) scale(0.105 -0.105)">
       <use xlink:href="#DejaVuSans-32"/>
      </g>
     </g>
    </g>
    <g id="xtick_6">
     <g id="line2d_6">
      <g>
       <use xlink:href="#m7468de5e25" x="279.396202" y="268.435244" style="stroke: #000000"/>
      </g>
     </g>
     <g id="text_6">
      <!-- 4 -->
      <g transform="translate(276.055889 282.013604) scale(0.105 -0.105)">
       <use xlink:href="#DejaVuSans-34"/>
      </g>
     </g>
    </g>
    <g id="xtick_7">
     <g id="line2d_7">
      <g>
       <use xlink:href="#m7468de5e25" x="327.002607" y="268.435244" style="stroke: #000000"/>
      </g>
     </g>
     <g id="text_7">
      <!-- 6 -->
      <g transform="translate(323.662295 282.013604) scale(0.105 -0.105)">
       <use xlink:href="#DejaVuSans-36"/>
      </g>
     </g>
    </g>
    <g id="xtick_8">
     <g id="line2d_8">
      <g>
       <use xlink:href="#m7468de5e25" x="374.609013" y="268.435244" style="stroke: #000000"/>
      </g>
     </g>
     <g id="text_8">
      <!-- 8 -->
      <g transform="translate(371.268701 282.013604) scale(0.105 -0.105)">
       <defs>
        <path id="DejaVuSans-38" d="M 2034 2216 
Q 1584 2216 1326 1975 
Q 1069 1734 1069 1313 
Q 1069 891 1326 650 
Q 1584 409 2034 409 
Q 2484 409 2743 651 
Q 3003 894 3003 1313 
Q 3003 1734 2745 1975 
Q 2488 2216 2034 2216 
z
M 1403 2484 
Q 997 2584 770 2862 
Q 544 3141 544 3541 
Q 544 4100 942 4425 
Q 1341 4750 2034 4750 
Q 2731 4750 3128 4425 
Q 3525 4100 3525 3541 
Q 3525 3141 3298 2862 
Q 3072 2584 2669 2484 
Q 3125 2378 3379 2068 
Q 3634 1759 3634 1313 
Q 3634 634 3220 271 
Q 2806 -91 2034 -91 
Q 1263 -91 848 271 
Q 434 634 434 1313 
Q 434 1759 690 2068 
Q 947 2378 1403 2484 
z
M 1172 3481 
Q 1172 3119 1398 2916 
Q 1625 2713 2034 2713 
Q 2441 2713 2670 2916 
Q 2900 3119 2900 3481 
Q 2900 3844 2670 4047 
Q 2441 4250 2034 4250 
Q 1625 4250 1398 4047 
Q 1172 3844 1172 3481 
z
" transform="scale(0.015625)"/>
       </defs>
       <use xlink:href="#DejaVuSans-38"/>
      </g>
     </g>
    </g>
    <g id="xtick_9">
     <g id="line2d_9">
      <g>
       <use xlink:href="#m7468de5e25" x="422.215419" y="268.435244" style="stroke: #000000"/>
      </g>
     </g>
     <g id="text_9">
      <!-- 10 -->
      <g transform="translate(415.534794 282.013604) scale(0.105 -0.105)">
       <defs>
        <path id="DejaVuSans-31" d="M 794 531 
L 1825 531 
L 1825 4091 
L 703 3866 
L 703 4441 
L 1819 4666 
L 2450 4666 
L 2450 531 
L 3481 531 
L 3481 0 
L 794 0 
L 794 531 
z
" transform="scale(0.015625)"/>
       </defs>
       <use xlink:href="#DejaVuSans-31"/>
       <use xlink:href="#DejaVuSans-30" x="63.623047"/>
      </g>
     </g>
    </g>
   </g>
   <g id="matplotlib.axis_2">
    <g id="ytick_1">
     <g id="line2d_10">
      <defs>
       <path id="mfe85a552c7" d="M 0 0 
L 3 0 
" style="stroke: #000000"/>
      </defs>
      <g>
       <use xlink:href="#mfe85a552c7" x="31.88" y="222.521292" style="stroke: #000000"/>
      </g>
     </g>
     <g id="text_10">
      <!-- 4 -->
      <g transform="translate(10.800703 226.510472) scale(0.105 -0.105)">
       <use xlink:href="#DejaVuSans-2212"/>
       <use xlink:href="#DejaVuSans-34" x="83.789062"/>
      </g>
     </g>
    </g>
    <g id="ytick_2">
     <g id="line2d_11">
      <g>
       <use xlink:href="#mfe85a552c7" x="31.88" y="174.914886" style="stroke: #000000"/>
      </g>
     </g>
     <g id="text_11">
      <!-- 2 -->
      <g transform="translate(10.800703 178.904066) scale(0.105 -0.105)">
       <use xlink:href="#DejaVuSans-2212"/>
       <use xlink:href="#DejaVuSans-32" x="83.789062"/>
      </g>
     </g>
    </g>
    <g id="ytick_3">
     <g id="line2d_12">
      <g>
       <use xlink:href="#mfe85a552c7" x="31.88" y="127.308481" style="stroke: #000000"/>
      </g>
     </g>
     <g id="text_12">
      <!-- 0 -->
      <g transform="translate(19.599375 131.29766) scale(0.105 -0.105)">
       <use xlink:href="#DejaVuSans-30"/>
      </g>
     </g>
    </g>
    <g id="ytick_4">
     <g id="line2d_13">
      <g>
       <use xlink:href="#mfe85a552c7" x="31.88" y="79.702075" style="stroke: #000000"/>
      </g>
     </g>
     <g id="text_13">
      <!-- 2 -->
      <g transform="translate(19.599375 83.691255) scale(0.105 -0.105)">
       <use xlink:href="#DejaVuSans-32"/>
      </g>
     </g>
    </g>
   </g>
   <g id="patch_3">
    <path d="M 31.88 268.435244 
L 31.88 48.364756 
" style="fill: none; stroke: #000000; stroke-width: 0.8; stroke-linejoin: miter; stroke-linecap: square"/>
   </g>
   <g id="patch_4">
    <path d="M 450 268.435244 
L 450 48.364756 
" style="fill: none; stroke: #000000; stroke-width: 0.8; stroke-linejoin: miter; stroke-linecap: square"/>
   </g>
   <g id="patch_5">
    <path d="M 31.88 268.435244 
L 450 268.435244 
" style="fill: none; stroke: #000000; stroke-width: 0.8; stroke-linejoin: miter; stroke-linecap: square"/>
   </g>
   <g id="patch_6">
    <path d="M 31.88 48.364756 
L 450 48.364756 
" style="fill: none; stroke: #000000; stroke-width: 0.8; stroke-linejoin: miter; stroke-linecap: square"/>
   </g>
  </g>
 </g>
 <defs>
  <clipPath id="p3d4c07b407">
   <rect x="31.88" y="48.364756" width="418.12" height="220.070489"/>
  </clipPath>
 </defs>
</svg>
