<?xml version="1.0" encoding="utf-8" standalone="no"?>
<!DOCTYPE svg PUBLIC "-//W3C//DTD SVG 1.1//EN"
  "http://www.w3.org/Graphics/SVG/1.1/DTD/svg11.dtd">
<svg xmlns:xlink="http://www.w3.org/1999/xlink" width="460.8pt" height="316.8pt" viewBox="0 0 460.8 316.8" xmlns="http://www.w3.org/2000/svg" version="1.1">
 <metadata>
  <rdf:RDF xmlns:dc="http://purl.org/dc/elements/1.1/" xmlns:cc="http://creativecommons.org/ns#" xmlns:rdf="http://www.w3.org/1999/02/22-rdf-syntax-ns#">
   <cc:Work>
    <dc:type rdf:resource="http://purl.org/dc/dcmitype/StillImage"/>
    <dc:date>2024-01-04T21:47:15.241389</dc:date>
    <dc:format>image/svg+xml</dc:format>
    <dc:creator>
     <cc:Agent>
      <dc:title>Matplotlib v3.7.2, https://matplotlib.org/</dc:title>
     </cc:Agent>
    </dc:creator>
   </cc:Work>
  </rdf:RDF>
 </metadata>
 <defs>
  <style type="text/css">*{stroke-linejoin: round; stroke-linecap: butt}</style>
 </defs>
 <g id="figure_1">
  <g id="patch_1">
   <path d="M 0 316.8 
L 460.8 316.8 
L 460.8 0 
L 0 0 
z
" style="fill: #ffffff"/>
  </g>
  <g id="axes_1">
   <g id="patch_2">
    <path d="M 31.88 282.621321 
L 450 282.621321 
L 450 34.178679 
L 31.88 34.178679 
z
" style="fill: #ffffff"/>
   </g>
   <g id="PatchCollection_1">
    <path d="M 184.18339 115.224759 
L 327.002607 115.224759 
L 327.002607 55.716752 
L 184.18339 55.716752 
z
" clip-path="url(#p6078684c75)" style="fill: #ffffff; stroke: #0000ff; stroke-width: 3"/>
    <path d="M 50.885455 100.942838 
L 160.803017 120.324269 
L 168.830046 74.800724 
L 58.912484 55.419292 
z
" clip-path="url(#p6078684c75)" style="fill: #ff0000; stroke: #ff0000; stroke-width: 2"/>
    <path d="M 322.241967 127.126361 
L 430.994545 102.01885 
L 420.595999 56.977794 
L 311.84342 82.085305 
z
" clip-path="url(#p6078684c75)" style="fill: #ff0000; stroke: #ff0000; stroke-width: 2"/>
   </g>
   <g id="PatchCollection_2">
    <path d="M 206.298938 157.572927 
L 94.685721 157.56147 
L 94.680976 203.787289 
L 206.294193 203.798747 
z
" clip-path="url(#p6078684c75)" style="fill: #ffffff; stroke: #000000; stroke-width: 0.5"/>
    <path d="M 208.94234 156.832535 
L 97.384501 160.348066 
L 98.840496 206.55095 
L 210.398336 203.035419 
z
" clip-path="url(#p6078684c75)" style="fill: #ffffff; stroke: #000000; stroke-width: 0.5"/>
    <path d="M 211.560923 156.008702 
L 100.16992 163.048233 
L 103.085418 209.18202 
L 214.476421 202.142489 
z
" clip-path="url(#p6078684c75)" style="fill: #ffffff; stroke: #000000; stroke-width: 0.5"/>
    <path d="M 214.152403 155.102868 
L 103.039423 165.658255 
L 107.41105 211.676896 
L 218.52403 201.121509 
z
" clip-path="url(#p6078684c75)" style="fill: #ffffff; stroke: #000000; stroke-width: 0.5"/>
    <path d="M 216.713711 154.115507 
L 105.989839 168.177316 
L 111.813689 214.034804 
L 222.537562 199.972994 
z
" clip-path="url(#p6078684c75)" style="fill: #ffffff; stroke: #000000; stroke-width: 0.5"/>
    <path d="M 219.242802 153.047618 
L 109.018487 170.6007 
L 116.288285 216.251291 
L 226.512601 198.698209 
z
" clip-path="url(#p6078684c75)" style="fill: #ffffff; stroke: #000000; stroke-width: 0.5"/>
    <path d="M 221.736889 151.900545 
L 112.122186 172.927372 
L 120.830674 218.325485 
L 230.445377 197.298658 
z
" clip-path="url(#p6078684c75)" style="fill: #ffffff; stroke: #000000; stroke-width: 0.5"/>
    <path d="M 224.193204 150.67492 
L 115.297807 175.155587 
L 125.43674 220.255792 
L 234.332136 195.775125 
z
" clip-path="url(#p6078684c75)" style="fill: #ffffff; stroke: #000000; stroke-width: 0.5"/>
    <path d="M 226.609956 149.372569 
L 118.542385 177.281536 
L 130.101185 222.038889 
L 238.168756 194.129921 
z
" clip-path="url(#p6078684c75)" style="fill: #ffffff; stroke: #000000; stroke-width: 0.5"/>
    <path d="M 228.983777 147.994393 
L 121.852246 179.304865 
L 134.819817 223.674546 
L 241.951347 192.364073 
z
" clip-path="url(#p6078684c75)" style="fill: #ffffff; stroke: #000000; stroke-width: 0.5"/>
    <path d="M 231.313403 146.541888 
L 125.224603 181.221522 
L 139.587548 225.159344 
L 245.676348 190.47971 
z
" clip-path="url(#p6078684c75)" style="fill: #ffffff; stroke: #000000; stroke-width: 0.5"/>
    <path d="M 233.595597 145.01641 
L 128.655835 183.031628 
L 144.400248 226.493564 
L 249.34001 188.478346 
z
" clip-path="url(#p6078684c75)" style="fill: #ffffff; stroke: #000000; stroke-width: 0.5"/>
    <path d="M 235.828761 143.419839 
L 132.142469 184.731623 
L 149.252191 227.67442 
L 252.938482 186.362637 
z
" clip-path="url(#p6078684c75)" style="fill: #ffffff; stroke: #000000; stroke-width: 0.5"/>
    <path d="M 238.010141 141.753271 
L 135.681295 186.321396 
L 154.139665 228.701993 
L 256.468511 184.133868 
z
" clip-path="url(#p6078684c75)" style="fill: #ffffff; stroke: #000000; stroke-width: 0.5"/>
    <path d="M 240.137945 140.018729 
L 139.268304 187.797656 
L 159.056463 229.573908 
L 259.926104 181.79498 
z
" clip-path="url(#p6078684c75)" style="fill: #ffffff; stroke: #000000; stroke-width: 0.5"/>
    <path d="M 242.209427 138.217762 
L 142.900216 189.16078 
L 163.998817 230.290762 
L 263.308028 179.347744 
z
" clip-path="url(#p6078684c75)" style="fill: #ffffff; stroke: #000000; stroke-width: 0.5"/>
    <path d="M 244.223542 136.352294 
L 146.573441 190.407528 
L 168.961 230.850372 
L 266.611101 176.795138 
z
" clip-path="url(#p6078684c75)" style="fill: #ffffff; stroke: #000000; stroke-width: 0.5"/>
    <path d="M 246.177313 134.423855 
L 150.284395 191.538291 
L 173.938956 231.253378 
L 269.831874 174.138942 
z
" clip-path="url(#p6078684c75)" style="fill: #ffffff; stroke: #000000; stroke-width: 0.5"/>
    <path d="M 248.069486 132.43498 
L 154.028957 192.550614 
L 178.926497 231.498515 
L 272.967025 171.38288 
z
" clip-path="url(#p6078684c75)" style="fill: #ffffff; stroke: #000000; stroke-width: 0.5"/>
    <path d="M 249.897881 130.387227 
L 157.80364 193.444035 
L 183.919298 231.58586 
L 276.01354 168.529052 
z
" clip-path="url(#p6078684c75)" style="fill: #ffffff; stroke: #000000; stroke-width: 0.5"/>
    <path d="M 251.66032 128.282639 
L 161.604978 194.218561 
L 188.913052 231.515953 
L 278.968394 165.580031 
z
" clip-path="url(#p6078684c75)" style="fill: #ffffff; stroke: #000000; stroke-width: 0.5"/>
    <path d="M 250.393743 128.397756 
L 162.466588 197.146036 
L 190.939431 233.562017 
L 278.866585 164.813737 
z
" clip-path="url(#p6078684c75)" style="fill: #ffffff; stroke: #000000; stroke-width: 0.5"/>
    <path d="M 246.752869 130.440081 
L 161.04241 201.932932 
L 190.651946 237.430844 
L 276.362405 165.937994 
z
" clip-path="url(#p6078684c75)" style="fill: #ffffff; stroke: #000000; stroke-width: 0.5"/>
    <path d="M 243.178455 132.596424 
L 159.769584 206.761582 
L 190.485885 241.306267 
L 273.894756 167.141109 
z
" clip-path="url(#p6078684c75)" style="fill: #ffffff; stroke: #000000; stroke-width: 0.5"/>
    <path d="M 239.673727 134.864661 
L 158.650494 211.628886 
L 190.443227 245.185533 
L 271.46646 168.421309 
z
" clip-path="url(#p6078684c75)" style="fill: #ffffff; stroke: #000000; stroke-width: 0.5"/>
    <path d="M 236.242715 137.242447 
L 157.685278 216.528256 
L 190.522352 249.063667 
L 269.079789 169.777859 
z
" clip-path="url(#p6078684c75)" style="fill: #ffffff; stroke: #000000; stroke-width: 0.5"/>
    <path d="M 232.88817 139.727397 
L 156.875783 221.456385 
L 190.724726 252.937737 
L 266.737113 171.208748 
z
" clip-path="url(#p6078684c75)" style="fill: #ffffff; stroke: #000000; stroke-width: 0.5"/>
    <path d="M 229.614356 142.317061 
L 156.222124 226.406839 
L 191.048813 256.803024 
L 264.441046 172.713247 
z
" clip-path="url(#p6078684c75)" style="fill: #ffffff; stroke: #000000; stroke-width: 0.5"/>
    <path d="M 227.316168 143.925985 
L 156.618234 230.293297 
L 192.38819 259.57361 
L 263.086123 173.206298 
z
" clip-path="url(#p6078684c75)" style="fill: #ffffff; stroke: #000000; stroke-width: 0.5"/>
    <path d="M 225.368883 145.229653 
L 157.419943 233.77598 
L 194.092361 261.917768 
L 262.041301 173.37144 
z
" clip-path="url(#p6078684c75)" style="fill: #ffffff; stroke: #000000; stroke-width: 0.5"/>
    <path d="M 226.384912 142.695814 
L 161.252085 233.333693 
L 198.790741 260.309157 
L 263.923569 169.671278 
z
" clip-path="url(#p6078684c75)" style="fill: #ffffff; stroke: #000000; stroke-width: 0.5"/>
    <path d="M 227.321043 140.131385 
L 165.068663 232.771288 
L 203.43648 258.553783 
L 265.68886 165.91388 
z
" clip-path="url(#p6078684c75)" style="fill: #ffffff; stroke: #000000; stroke-width: 0.5"/>
    <path d="M 228.176417 137.538708 
L 168.865029 232.088535 
L 208.023862 256.652987 
L 267.335249 162.10316 
z
" clip-path="url(#p6078684c75)" style="fill: #ffffff; stroke: #000000; stroke-width: 0.5"/>
    <path d="M 228.949473 134.920322 
L 172.63859 231.287303 
L 212.550016 254.609063 
L 268.860899 158.242083 
z
" clip-path="url(#p6078684c75)" style="fill: #ffffff; stroke: #000000; stroke-width: 0.5"/>
    <path d="M 229.640054 132.279232 
L 176.385298 230.368178 
L 217.009894 252.424211 
L 270.264651 154.335265 
z
" clip-path="url(#p6078684c75)" style="fill: #ffffff; stroke: #000000; stroke-width: 0.5"/>
    <path d="M 230.247207 129.61753 
L 180.10118 229.331553 
L 221.39882 250.100072 
L 271.544847 150.386049 
z
" clip-path="url(#p6078684c75)" style="fill: #ffffff; stroke: #000000; stroke-width: 0.5"/>
    <path d="M 229.205383 130.236164 
L 182.217618 231.476771 
L 224.147509 250.937261 
L 271.135274 149.696655 
z
" clip-path="url(#p6078684c75)" style="fill: #ffffff; stroke: #000000; stroke-width: 0.5"/>
    <path d="M 226.905885 133.692524 
L 183.122795 236.359712 
L 225.64352 254.492952 
L 269.42661 151.825764 
z
" clip-path="url(#p6078684c75)" style="fill: #ffffff; stroke: #000000; stroke-width: 0.5"/>
    <path d="M 224.729539 137.197504 
L 184.174613 241.182159 
L 227.240981 257.978419 
L 267.795907 153.993765 
z
" clip-path="url(#p6078684c75)" style="fill: #ffffff; stroke: #000000; stroke-width: 0.5"/>
    <path d="M 224.366173 136.135907 
L 187.077935 241.336182 
L 230.647765 256.779508 
L 267.936003 151.579233 
z
" clip-path="url(#p6078684c75)" style="fill: #ffffff; stroke: #000000; stroke-width: 0.5"/>
    <path d="M 224.549563 133.429278 
L 190.564379 239.742577 
L 234.59518 253.817909 
L 268.580365 147.504609 
z
" clip-path="url(#p6078684c75)" style="fill: #ffffff; stroke: #000000; stroke-width: 0.5"/>
    <path d="M 224.647846 130.718319 
L 193.999931 238.04127 
L 238.44889 250.734435 
L 269.096805 143.411484 
z
" clip-path="url(#p6078684c75)" style="fill: #ffffff; stroke: #000000; stroke-width: 0.5"/>
    <path d="M 224.66195 128.005331 
L 197.380131 236.232928 
L 242.203759 247.531988 
L 269.485579 139.304391 
z
" clip-path="url(#p6078684c75)" style="fill: #ffffff; stroke: #000000; stroke-width: 0.5"/>
    <path d="M 223.630065 129.479326 
L 199.740947 238.506022 
L 244.895531 248.399958 
L 268.784649 139.373262 
z
" clip-path="url(#p6078684c75)" style="fill: #ffffff; stroke: #000000; stroke-width: 0.5"/>
    <path d="M 222.144993 133.327873 
L 201.671874 243.047342 
L 247.113378 251.526505 
L 267.586497 141.807037 
z
" clip-path="url(#p6078684c75)" style="fill: #ffffff; stroke: #000000; stroke-width: 0.5"/>
    <path d="M 220.780462 137.221468 
L 203.744411 247.526878 
L 249.428588 254.582542 
L 266.464639 144.277132 
z
" clip-path="url(#p6078684c75)" style="fill: #ffffff; stroke: #000000; stroke-width: 0.5"/>
    <path d="M 220.10951 136.856207 
L 206.527152 247.639915 
L 252.409421 253.265196 
L 265.991779 142.481488 
z
" clip-path="url(#p6078684c75)" style="fill: #ffffff; stroke: #000000; stroke-width: 0.5"/>
    <path d="M 219.701108 134.173085 
L 209.586809 245.327084 
L 255.622438 249.51603 
L 265.736738 138.362032 
z
" clip-path="url(#p6078684c75)" style="fill: #ffffff; stroke: #000000; stroke-width: 0.5"/>
    <path d="M 219.208969 131.503754 
L 212.572605 242.919503 
L 258.716641 245.668024 
L 265.353005 134.252275 
z
" clip-path="url(#p6078684c75)" style="fill: #ffffff; stroke: #000000; stroke-width: 0.5"/>
    <path d="M 218.633817 128.851368 
L 215.481869 240.420072 
L 261.689253 241.725485 
L 264.841201 130.156781 
z
" clip-path="url(#p6078684c75)" style="fill: #ffffff; stroke: #000000; stroke-width: 0.5"/>
    <path d="M 217.975881 126.21811 
L 218.311427 237.830824 
L 264.537038 237.691854 
L 264.201492 126.07914 
z
" clip-path="url(#p6078684c75)" style="fill: #ffffff; stroke: #000000; stroke-width: 0.5"/>
    <path d="M 217.236297 123.606376 
L 221.057893 235.15415 
L 267.256608 233.571395 
L 263.435013 122.023621 
z
" clip-path="url(#p6078684c75)" style="fill: #ffffff; stroke: #000000; stroke-width: 0.5"/>
    <path d="M 216.415292 121.019491 
L 223.720322 232.393397 
L 269.847028 229.36794 
L 262.541998 117.994034 
z
" clip-path="url(#p6078684c75)" style="fill: #ffffff; stroke: #000000; stroke-width: 0.5"/>
    <path d="M 215.513963 118.459316 
L 226.295295 229.5506 
L 272.30495 225.085395 
L 261.523618 113.994111 
z
" clip-path="url(#p6078684c75)" style="fill: #ffffff; stroke: #000000; stroke-width: 0.5"/>
    <path d="M 214.532925 115.928641 
L 228.780031 226.628824 
L 274.627707 220.728231 
L 260.380602 110.028049 
z
" clip-path="url(#p6078684c75)" style="fill: #ffffff; stroke: #000000; stroke-width: 0.5"/>
    <path d="M 213.473485 113.429832 
L 231.172452 223.630816 
L 276.81338 216.300598 
L 259.114413 106.099613 
z
" clip-path="url(#p6078684c75)" style="fill: #ffffff; stroke: #000000; stroke-width: 0.5"/>
    <path d="M 212.336382 110.965085 
L 233.468832 220.559474 
L 278.858532 211.807241 
L 257.726081 102.212853 
z
" clip-path="url(#p6078684c75)" style="fill: #ffffff; stroke: #000000; stroke-width: 0.5"/>
    <path d="M 211.122993 108.537336 
L 235.669392 217.417934 
L 280.763468 207.251778 
L 256.217069 98.371179 
z
" clip-path="url(#p6078684c75)" style="fill: #ffffff; stroke: #000000; stroke-width: 0.5"/>
    <path d="M 209.834015 106.148681 
L 237.770396 214.209169 
L 282.524814 202.639016 
L 254.588434 94.578528 
z
" clip-path="url(#p6078684c75)" style="fill: #ffffff; stroke: #000000; stroke-width: 0.5"/>
    <path d="M 208.471368 103.801467 
L 239.770449 210.936326 
L 284.141508 197.973473 
L 252.842427 90.838614 
z
" clip-path="url(#p6078684c75)" style="fill: #ffffff; stroke: #000000; stroke-width: 0.5"/>
    <path d="M 207.035753 101.497975 
L 241.666972 207.602589 
L 285.611344 193.259696 
L 250.980125 87.155082 
z
" clip-path="url(#p6078684c75)" style="fill: #ffffff; stroke: #000000; stroke-width: 0.5"/>
    <path d="M 205.529163 99.24016 
L 243.457653 204.2113 
L 286.932584 188.502806 
L 249.004094 83.531666 
z
" clip-path="url(#p6078684c75)" style="fill: #ffffff; stroke: #000000; stroke-width: 0.5"/>
    <path d="M 204.035288 97.239326 
L 245.225074 200.974142 
L 288.187969 183.914947 
L 246.998182 80.180131 
z
" clip-path="url(#p6078684c75)" style="fill: #ffffff; stroke: #000000; stroke-width: 0.5"/>
    <path d="M 204.957819 101.262397 
L 249.368681 203.659594 
L 291.777586 185.266356 
L 247.366724 82.86916 
z
" clip-path="url(#p6078684c75)" style="fill: #ffffff; stroke: #000000; stroke-width: 0.5"/>
    <path d="M 205.98719 105.189683 
L 253.524264 206.173529 
L 295.347814 186.485536 
L 247.81074 85.501691 
z
" clip-path="url(#p6078684c75)" style="fill: #ffffff; stroke: #000000; stroke-width: 0.5"/>
    <path d="M 205.770887 106.34995 
L 256.388262 205.825534 
L 297.58715 184.861801 
L 246.969774 85.386217 
z
" clip-path="url(#p6078684c75)" style="fill: #ffffff; stroke: #000000; stroke-width: 0.5"/>
    <path d="M 203.963614 104.384757 
L 257.614474 202.257612 
L 298.149574 180.037529 
L 244.498714 82.164674 
z
" clip-path="url(#p6078684c75)" style="fill: #ffffff; stroke: #000000; stroke-width: 0.5"/>
    <path d="M 202.096986 102.476031 
L 258.730638 198.653679 
L 298.563649 175.198241 
L 241.929998 79.020593 
z
" clip-path="url(#p6078684c75)" style="fill: #ffffff; stroke: #000000; stroke-width: 0.5"/>
    <path d="M 200.172724 100.625258 
L 259.73471 195.01742 
L 298.828244 170.34918 
L 239.266257 75.957018 
z
" clip-path="url(#p6078684c75)" style="fill: #ffffff; stroke: #000000; stroke-width: 0.5"/>
    <path d="M 198.19231 98.834854 
L 260.627408 191.351712 
L 298.944264 165.493541 
L 236.509166 72.976683 
z
" clip-path="url(#p6078684c75)" style="fill: #ffffff; stroke: #000000; stroke-width: 0.5"/>
    <path d="M 196.157919 97.106006 
L 261.406769 187.660399 
L 298.910849 160.636883 
L 233.661999 70.08249 
z
" clip-path="url(#p6078684c75)" style="fill: #ffffff; stroke: #000000; stroke-width: 0.5"/>
    <path d="M 194.071337 95.440486 
L 262.072211 183.946935 
L 298.728113 155.783639 
L 230.72724 67.277189 
z
" clip-path="url(#p6078684c75)" style="fill: #ffffff; stroke: #000000; stroke-width: 0.5"/>
    <path d="M 191.934576 93.839886 
L 262.623325 180.214716 
L 298.396394 150.938208 
L 227.707645 64.563377 
z
" clip-path="url(#p6078684c75)" style="fill: #ffffff; stroke: #000000; stroke-width: 0.5"/>
    <path d="M 189.74963 92.305726 
L 263.059474 176.46734 
L 297.915916 146.105276 
L 224.606072 61.943662 
z
" clip-path="url(#p6078684c75)" style="fill: #ffffff; stroke: #000000; stroke-width: 0.5"/>
    <path d="M 187.518461 90.839483 
L 263.380146 172.708373 
L 297.287031 141.289437 
L 221.425347 59.420547 
z
" clip-path="url(#p6078684c75)" style="fill: #ffffff; stroke: #000000; stroke-width: 0.5"/>
    <path d="M 185.855696 90.066173 
L 264.197477 169.565078 
L 297.122807 137.118984 
L 218.781027 57.620078 
z
" clip-path="url(#p6078684c75)" style="fill: #ffffff; stroke: #000000; stroke-width: 0.5"/>
    <path d="M 188.231843 93.358059 
L 268.979792 170.411802 
L 300.892432 136.969166 
L 220.144483 59.915424 
z
" clip-path="url(#p6078684c75)" style="fill: #ffffff; stroke: #000000; stroke-width: 0.5"/>
    <path d="M 190.708159 96.575353 
L 273.785995 171.11114 
L 304.655796 136.703557 
L 221.57796 62.167769 
z
" clip-path="url(#p6078684c75)" style="fill: #ffffff; stroke: #000000; stroke-width: 0.5"/>
    <path d="M 193.281968 99.715031 
L 278.611208 171.66245 
L 308.409009 136.322424 
L 223.079769 64.375004 
z
" clip-path="url(#p6078684c75)" style="fill: #ffffff; stroke: #000000; stroke-width: 0.5"/>
    <path d="M 195.951281 102.774122 
L 283.451316 172.065206 
L 312.148967 135.826121 
L 224.648932 66.535037 
z
" clip-path="url(#p6078684c75)" style="fill: #ffffff; stroke: #000000; stroke-width: 0.5"/>
    <path d="M 198.713361 105.749721 
L 288.301465 172.3191 
L 315.871892 135.215219 
L 226.283789 68.64584 
z
" clip-path="url(#p6078684c75)" style="fill: #ffffff; stroke: #000000; stroke-width: 0.5"/>
    <path d="M 195.983985 104.707398 
L 287.759993 168.226489 
L 314.067111 130.216464 
L 222.291103 66.697373 
z
" clip-path="url(#p6078684c75)" style="fill: #ffffff; stroke: #000000; stroke-width: 0.5"/>
    <path d="M 193.221502 103.757452 
L 287.081602 164.154407 
L 312.095653 125.281232 
L 218.235553 64.884278 
z
" clip-path="url(#p6078684c75)" style="fill: #ffffff; stroke: #000000; stroke-width: 0.5"/>
    <path d="M 190.428504 102.900959 
L 286.266528 160.107459 
L 309.959218 120.415106 
L 214.121194 63.208606 
z
" clip-path="url(#p6078684c75)" style="fill: #ffffff; stroke: #000000; stroke-width: 0.5"/>
    <path d="M 187.608019 102.138856 
L 285.315561 156.090193 
L 307.66009 115.62356 
L 209.952549 61.672222 
z
" clip-path="url(#p6078684c75)" style="fill: #ffffff; stroke: #000000; stroke-width: 0.5"/>
    <path d="M 184.763751 101.472025 
L 284.230289 152.107173 
L 305.201382 110.912032 
L 205.734844 60.276883 
z
" clip-path="url(#p6078684c75)" style="fill: #ffffff; stroke: #000000; stroke-width: 0.5"/>
    <path d="M 181.898648 100.901285 
L 283.011673 148.162969 
L 302.585609 106.285917 
L 201.472585 59.024234 
z
" clip-path="url(#p6078684c75)" style="fill: #ffffff; stroke: #000000; stroke-width: 0.5"/>
    <path d="M 179.016099 100.427185 
L 281.661237 144.261945 
L 299.815876 101.750352 
L 197.170738 57.915593 
z
" clip-path="url(#p6078684c75)" style="fill: #ffffff; stroke: #000000; stroke-width: 0.5"/>
    <path d="M 176.119024 100.050265 
L 280.18017 140.408517 
L 296.894976 97.31047 
L 192.833831 56.952217 
z
" clip-path="url(#p6078684c75)" style="fill: #ffffff; stroke: #000000; stroke-width: 0.5"/>
    <path d="M 173.210997 99.770841 
L 278.570442 136.606935 
L 293.826508 92.971183 
L 188.467064 56.135089 
z
" clip-path="url(#p6078684c75)" style="fill: #ffffff; stroke: #000000; stroke-width: 0.5"/>
    <path d="M 170.29522 99.589487 
L 276.833789 132.861756 
L 290.613859 88.737657 
L 184.07529 55.465388 
z
" clip-path="url(#p6078684c75)" style="fill: #ffffff; stroke: #000000; stroke-width: 0.5"/>
    <path d="M 167.37498 99.506317 
L 274.972162 129.177126 
L 287.260648 84.614591 
L 179.663466 54.943782 
z
" clip-path="url(#p6078684c75)" style="fill: #ffffff; stroke: #000000; stroke-width: 0.5"/>
    <path d="M 165.73393 99.832786 
L 274.267992 125.868682 
L 285.051039 80.918128 
L 176.516977 54.882232 
z
" clip-path="url(#p6078684c75)" style="fill: #ffffff; stroke: #000000; stroke-width: 0.5"/>
    <path d="M 169.848226 101.508618 
L 279.196431 123.880041 
L 288.461797 78.592301 
L 179.113593 56.220878 
z
" clip-path="url(#p6078684c75)" style="fill: #ffffff; stroke: #000000; stroke-width: 0.5"/>
    <path d="M 174.016571 103.045309 
L 284.05523 121.726956 
L 291.792436 76.153257 
L 181.753777 57.47161 
z
" clip-path="url(#p6078684c75)" style="fill: #ffffff; stroke: #000000; stroke-width: 0.5"/>
    <path d="M 178.234209 104.44092 
L 288.838853 119.411659 
L 295.039147 73.60355 
L 184.434502 58.632812 
z
" clip-path="url(#p6078684c75)" style="fill: #ffffff; stroke: #000000; stroke-width: 0.5"/>
    <path d="M 182.496398 105.693772 
L 293.541919 116.936668 
L 298.198286 70.945966 
L 187.152765 59.70307 
z
" clip-path="url(#p6078684c75)" style="fill: #ffffff; stroke: #000000; stroke-width: 0.5"/>
    <path d="M 186.798248 106.802691 
L 298.159038 114.305017 
L 301.266207 68.183743 
L 189.905417 60.681417 
z
" clip-path="url(#p6078684c75)" style="fill: #ffffff; stroke: #000000; stroke-width: 0.5"/>
    <path d="M 191.135188 107.766283 
L 302.685282 111.519564 
L 304.239743 65.319887 
L 192.68965 61.566607 
z
" clip-path="url(#p6078684c75)" style="fill: #ffffff; stroke: #000000; stroke-width: 0.5"/>
    <path d="M 195.501813 108.583666 
L 307.115031 108.583666 
L 307.115031 62.357846 
L 195.501813 62.357846 
z
" clip-path="url(#p6078684c75)" style="fill: #ffffff; stroke: #000000; stroke-width: 0.5"/>
   </g>
   <g id="PatchCollection_3">
    <path d="M 155.024467 180.680574 
L 160.380371 178.895883 
L 160.380249 180.086043 
L 184.183452 180.088487 
L 184.183329 181.278647 
L 160.380127 181.276204 
L 160.380004 182.466364 
z
" clip-path="url(#p6078684c75)" style="fill: #ff0000; stroke: #ff0000; stroke-width: 0.24"/>
    <path d="M 158.423679 181.548917 
L 163.720512 179.595871 
L 163.757999 180.785441 
L 187.549391 180.035701 
L 187.586878 181.225271 
L 163.795486 181.975011 
L 163.832973 183.16458 
z
" clip-path="url(#p6078684c75)" style="fill: #ff0000; stroke: #ff0000; stroke-width: 0.24"/>
    <path d="M 161.848653 182.309366 
L 167.081114 180.189891 
L 167.156178 181.377681 
L 190.91199 179.876395 
L 190.987054 181.064186 
L 167.231242 182.565472 
L 167.306307 183.753262 
z
" clip-path="url(#p6078684c75)" style="fill: #ff0000; stroke: #ff0000; stroke-width: 0.24"/>
    <path d="M 165.295914 182.961048 
L 170.458798 180.677313 
L 170.571353 181.862139 
L 194.267873 179.611043 
L 194.380427 180.795869 
L 170.683908 183.046965 
L 170.796463 184.231791 
z
" clip-path="url(#p6078684c75)" style="fill: #ff0000; stroke: #ff0000; stroke-width: 0.24"/>
    <path d="M 168.762079 183.503866 
L 173.850208 181.0581 
L 174.000152 182.238777 
L 197.613689 179.239884 
L 197.763634 180.420561 
L 174.150097 183.419454 
L 174.300042 184.600131 
z
" clip-path="url(#p6078684c75)" style="fill: #ff0000; stroke: #ff0000; stroke-width: 0.24"/>
    <path d="M 172.243627 183.936326 
L 177.251942 181.331022 
L 177.439115 182.506372 
L 200.946113 178.762913 
L 201.133286 179.938263 
L 177.626288 183.681722 
L 177.813461 184.857072 
z
" clip-path="url(#p6078684c75)" style="fill: #ff0000; stroke: #ff0000; stroke-width: 0.24"/>
    <path d="M 175.737098 184.258758 
L 180.660599 181.496519 
L 180.884813 182.665368 
L 204.261803 178.18108 
L 204.486017 179.34993 
L 181.109028 183.834218 
L 181.333242 185.003067 
z
" clip-path="url(#p6078684c75)" style="fill: #ff0000; stroke: #ff0000; stroke-width: 0.24"/>
    <path d="M 179.239065 184.47078 
L 184.072807 181.554315 
L 184.33385 182.715494 
L 207.557437 177.494622 
L 207.81848 178.655802 
L 184.594894 183.876673 
L 184.855937 185.037853 
z
" clip-path="url(#p6078684c75)" style="fill: #ff0000; stroke: #ff0000; stroke-width: 0.24"/>
    <path d="M 182.746032 184.571871 
L 187.485215 181.504141 
L 187.782815 182.656493 
L 210.829856 176.704485 
L 211.127456 177.856837 
L 188.080416 183.808845 
L 188.378016 184.961197 
z
" clip-path="url(#p6078684c75)" style="fill: #ff0000; stroke: #ff0000; stroke-width: 0.24"/>
    <path d="M 186.254229 184.562419 
L 190.89409 181.346441 
L 191.227962 182.488812 
L 214.075377 175.811381 
L 214.409249 176.953752 
L 191.561833 183.631182 
L 191.895705 184.773553 
z
" clip-path="url(#p6078684c75)" style="fill: #ff0000; stroke: #ff0000; stroke-width: 0.24"/>
    <path d="M 189.760545 184.441687 
L 194.296482 181.080719 
L 194.66628 182.211971 
L 217.291317 174.816016 
L 217.661115 175.947268 
L 195.036078 183.343223 
L 195.405875 184.474475 
z
" clip-path="url(#p6078684c75)" style="fill: #ff0000; stroke: #ff0000; stroke-width: 0.24"/>
    <path d="M 193.26131 184.210543 
L 197.688758 180.707897 
L 198.094124 181.826896 
L 220.474112 173.719578 
L 220.879478 174.838577 
L 198.49949 182.945896 
L 198.904856 184.064895 
z
" clip-path="url(#p6078684c75)" style="fill: #ff0000; stroke: #ff0000; stroke-width: 0.24"/>
    <path d="M 196.752939 183.868756 
L 201.067511 180.227975 
L 201.508029 181.333608 
L 223.620696 172.523247 
L 224.061214 173.62888 
L 201.948548 182.439241 
L 202.389066 183.544875 
z
" clip-path="url(#p6078684c75)" style="fill: #ff0000; stroke: #ff0000; stroke-width: 0.24"/>
    <path d="M 200.232217 183.416963 
L 204.429569 179.641639 
L 204.90481 180.732798 
L 226.72798 171.227973 
L 227.203222 172.319131 
L 205.380051 181.823956 
L 205.855292 182.915115 
z
" clip-path="url(#p6078684c75)" style="fill: #ff0000; stroke: #ff0000; stroke-width: 0.24"/>
    <path d="M 203.695235 182.855204 
L 207.77121 178.949151 
L 208.280689 180.02475 
L 229.792662 169.835172 
L 230.302141 170.910771 
L 208.790168 181.100348 
L 209.299647 182.175947 
z
" clip-path="url(#p6078684c75)" style="fill: #ff0000; stroke: #ff0000; stroke-width: 0.24"/>
    <path d="M 207.138757 182.1846 
L 211.089247 178.151678 
L 211.632465 179.210638 
L 232.811653 168.346271 
L 233.354871 169.40523 
L 212.175684 180.269597 
L 212.718902 181.328556 
z
" clip-path="url(#p6078684c75)" style="fill: #ff0000; stroke: #ff0000; stroke-width: 0.24"/>
    <path d="M 210.559501 181.405231 
L 214.3806 177.249508 
L 214.957004 178.290776 
L 235.782362 166.762682 
L 236.358766 167.80395 
L 215.533409 179.332044 
L 216.109814 180.373312 
z
" clip-path="url(#p6078684c75)" style="fill: #ff0000; stroke: #ff0000; stroke-width: 0.24"/>
    <path d="M 213.953976 180.518228 
L 217.641825 176.243816 
L 218.250851 177.266347 
L 238.701462 165.085832 
L 239.310488 166.108362 
L 218.859876 178.288878 
L 219.468902 179.311408 
z
" clip-path="url(#p6078684c75)" style="fill: #ff0000; stroke: #ff0000; stroke-width: 0.24"/>
    <path d="M 217.318576 179.524429 
L 220.869535 175.135635 
L 221.510563 176.138413 
L 241.566125 163.317847 
L 242.207153 164.320625 
L 222.151591 177.141191 
L 222.79262 178.143969 
z
" clip-path="url(#p6078684c75)" style="fill: #ff0000; stroke: #ff0000; stroke-width: 0.24"/>
    <path d="M 220.650102 178.424735 
L 224.060626 173.92594 
L 224.733017 174.907964 
L 244.373503 161.460148 
L 245.045894 162.442173 
L 225.405407 175.889988 
L 226.077798 176.872013 
z
" clip-path="url(#p6078684c75)" style="fill: #ff0000; stroke: #ff0000; stroke-width: 0.24"/>
    <path d="M 223.945364 177.220517 
L 227.212001 172.616181 
L 227.915092 173.576464 
L 247.120753 159.514634 
L 247.823844 160.474917 
L 228.618184 174.536747 
L 229.321275 175.49703 
z
" clip-path="url(#p6078684c75)" style="fill: #ff0000; stroke: #ff0000; stroke-width: 0.24"/>
    <path d="M 224.238803 178.18685 
L 227.358336 173.481604 
L 228.091416 174.419194 
L 246.843209 159.757586 
L 247.576289 160.695175 
L 228.824497 175.356783 
L 229.557577 176.294373 
z
" clip-path="url(#p6078684c75)" style="fill: #ff0000; stroke: #ff0000; stroke-width: 0.24"/>
    <path d="M 222.184566 181.030923 
L 225.153832 176.229435 
L 225.916179 177.143388 
L 244.195227 161.896458 
L 244.957574 162.810411 
L 226.678525 178.05734 
L 227.440872 178.971292 
z
" clip-path="url(#p6078684c75)" style="fill: #ff0000; stroke: #ff0000; stroke-width: 0.24"/>
    <path d="M 220.220822 183.938238 
L 223.036904 179.045334 
L 223.827746 179.934744 
L 241.615946 164.117905 
L 242.406788 165.007315 
L 224.618588 180.824154 
L 225.40943 181.713564 
z
" clip-path="url(#p6078684c75)" style="fill: #ff0000; stroke: #ff0000; stroke-width: 0.24"/>
    <path d="M 218.350208 186.906397 
L 221.010244 181.926936 
L 221.828801 182.790907 
L 239.108228 166.419778 
L 239.926784 167.28375 
L 222.647357 183.654879 
L 223.465914 184.51885 
z
" clip-path="url(#p6078684c75)" style="fill: #ff0000; stroke: #ff0000; stroke-width: 0.24"/>
    <path d="M 216.574087 189.931913 
L 219.07547 184.870894 
L 219.920915 185.708572 
L 236.674474 168.799677 
L 237.519919 169.637355 
L 220.76636 186.54625 
L 221.611805 187.383928 
z
" clip-path="url(#p6078684c75)" style="fill: #ff0000; stroke: #ff0000; stroke-width: 0.24"/>
    <path d="M 214.894603 193.012163 
L 217.234785 187.874618 
L 218.106282 188.685157 
L 234.31707 171.255217 
L 235.188567 172.065757 
L 218.977779 189.495697 
L 219.849276 190.306236 
z
" clip-path="url(#p6078684c75)" style="fill: #ff0000; stroke: #ff0000; stroke-width: 0.24"/>
    <path d="M 213.313291 196.143727 
L 215.489985 190.934809 
L 216.386656 191.717409 
L 232.038657 173.783995 
L 232.935327 174.566595 
L 217.283326 192.500009 
L 218.179997 193.282609 
z
" clip-path="url(#p6078684c75)" style="fill: #ff0000; stroke: #ff0000; stroke-width: 0.24"/>
    <path d="M 212.724424 198.240953 
L 214.735404 192.965843 
L 215.656361 193.719713 
L 230.733762 175.30058 
L 231.654718 176.05445 
L 216.577317 194.473583 
L 217.498274 195.227453 
z
" clip-path="url(#p6078684c75)" style="fill: #ff0000; stroke: #ff0000; stroke-width: 0.24"/>
    <path d="M 212.491184 199.976339 
L 214.335401 194.640639 
L 215.279593 195.365196 
L 229.77073 176.481356 
L 230.714922 177.205913 
L 216.223785 196.089753 
L 217.167977 196.81431 
z
" clip-path="url(#p6078684c75)" style="fill: #ff0000; stroke: #ff0000; stroke-width: 0.24"/>
    <path d="M 215.233978 197.820141 
L 216.909612 192.429122 
L 217.876106 193.12365 
L 231.766665 173.793755 
L 232.733159 174.488283 
L 218.842601 193.818178 
L 219.809096 194.512706 
z
" clip-path="url(#p6078684c75)" style="fill: #ff0000; stroke: #ff0000; stroke-width: 0.24"/>
    <path d="M 217.907889 195.578903 
L 219.413283 190.13789 
L 220.401126 190.801703 
L 233.677385 171.044846 
L 234.665228 171.708659 
L 221.388969 191.465516 
L 222.376811 192.129329 
z
" clip-path="url(#p6078684c75)" style="fill: #ff0000; stroke: #ff0000; stroke-width: 0.24"/>
    <path d="M 220.509783 193.254572 
L 221.843506 187.768953 
L 222.851715 188.401406 
L 235.500763 168.237229 
L 236.508972 168.869681 
L 223.859923 189.033858 
L 224.868132 189.666311 
z
" clip-path="url(#p6078684c75)" style="fill: #ff0000; stroke: #ff0000; stroke-width: 0.24"/>
    <path d="M 223.037487 190.849591 
L 224.198166 185.32477 
L 225.225752 185.925227 
L 237.234897 165.373515 
L 238.262483 165.973972 
L 226.253337 186.525685 
L 227.280923 187.126142 
z
" clip-path="url(#p6078684c75)" style="fill: #ff0000; stroke: #ff0000; stroke-width: 0.24"/>
    <path d="M 225.488555 188.366662 
L 226.475045 182.808095 
L 227.520992 183.375964 
L 238.878373 162.457016 
L 239.92432 163.024885 
L 228.56694 183.943833 
L 229.612887 184.511702 
z
" clip-path="url(#p6078684c75)" style="fill: #ff0000; stroke: #ff0000; stroke-width: 0.24"/>
    <path d="M 227.860296 185.807719 
L 228.671621 180.220898 
L 229.734897 180.755617 
L 240.429294 159.490097 
L 241.49257 160.024817 
L 230.798173 181.290337 
L 231.861449 181.825057 
z
" clip-path="url(#p6078684c75)" style="fill: #ff0000; stroke: #ff0000; stroke-width: 0.24"/>
    <path d="M 228.585418 186.473611 
L 229.220777 180.864052 
L 230.300332 181.365095 
L 240.321182 159.774008 
L 241.400736 160.27505 
L 231.379886 181.866137 
L 232.45944 182.36718 
z
" clip-path="url(#p6078684c75)" style="fill: #ff0000; stroke: #ff0000; stroke-width: 0.24"/>
    <path d="M 228.053478 189.921679 
L 228.512244 184.294925 
L 229.607011 184.761795 
L 238.944415 162.866468 
L 240.039182 163.333338 
L 230.701777 185.228665 
L 231.796543 185.695535 
z
" clip-path="url(#p6078684c75)" style="fill: #ff0000; stroke: #ff0000; stroke-width: 0.24"/>
    <path d="M 227.632885 193.363377 
L 227.915676 187.725039 
L 229.024491 188.157487 
L 237.673441 165.98119 
L 238.782256 166.413638 
L 230.133306 188.589934 
L 231.242121 189.022382 
z
" clip-path="url(#p6078684c75)" style="fill: #ff0000; stroke: #ff0000; stroke-width: 0.24"/>
    <path d="M 229.021878 192.183736 
L 229.128475 186.539317 
L 230.250253 186.936931 
L 238.202532 164.501385 
L 239.324309 164.898999 
L 231.37203 187.334545 
L 232.493807 187.732159 
z
" clip-path="url(#p6078684c75)" style="fill: #ff0000; stroke: #ff0000; stroke-width: 0.24"/>
    <path d="M 230.953088 189.304403 
L 230.883386 183.659408 
L 232.017032 184.021801 
L 239.264885 161.348885 
L 240.398531 161.711278 
L 233.150678 184.384193 
L 234.284323 184.746586 
z
" clip-path="url(#p6078684c75)" style="fill: #ff0000; stroke: #ff0000; stroke-width: 0.24"/>
    <path d="M 232.793501 186.366167 
L 232.547512 180.726104 
L 233.691924 181.05291 
L 240.228055 158.164672 
L 241.372466 158.491478 
L 234.836336 181.379717 
L 235.980748 181.706523 
z
" clip-path="url(#p6078684c75)" style="fill: #ff0000; stroke: #ff0000; stroke-width: 0.24"/>
    <path d="M 234.541233 183.371697 
L 234.119254 177.742065 
L 235.273312 178.032978 
L 241.091572 154.95181 
L 242.245631 155.242723 
L 236.427371 178.323891 
L 237.581429 178.614804 
z
" clip-path="url(#p6078684c75)" style="fill: #ff0000; stroke: #ff0000; stroke-width: 0.24"/>
    <path d="M 235.233341 184.510215 
L 234.635783 178.896504 
L 235.798363 179.15124 
L 240.893078 155.899651 
L 242.055657 156.154387 
L 236.960942 179.405975 
L 238.123521 179.660711 
z
" clip-path="url(#p6078684c75)" style="fill: #ff0000; stroke: #ff0000; stroke-width: 0.24"/>
    <path d="M 235.460947 187.969616 
L 234.688392 182.377302 
L 235.858359 182.595612 
L 240.22456 159.196279 
L 241.394527 159.41459 
L 237.028326 182.813922 
L 238.198292 183.032232 
z
" clip-path="url(#p6078684c75)" style="fill: #ff0000; stroke: #ff0000; stroke-width: 0.24"/>
    <path d="M 235.796648 191.420627 
L 234.849795 185.855172 
L 236.02601 186.036831 
L 239.659205 162.512538 
L 240.835419 162.694198 
L 237.202225 186.218491 
L 238.378439 186.400151 
z
" clip-path="url(#p6078684c75)" style="fill: #ff0000; stroke: #ff0000; stroke-width: 0.24"/>
    <path d="M 236.811276 190.559892 
L 235.691048 185.026727 
L 236.872363 185.171559 
L 239.769006 161.545262 
L 240.950321 161.690094 
L 238.053678 185.316391 
L 239.234993 185.461223 
z
" clip-path="url(#p6078684c75)" style="fill: #ff0000; stroke: #ff0000; stroke-width: 0.24"/>
    <path d="M 238.072687 187.328704 
L 236.780123 181.833242 
L 237.965386 181.941093 
L 240.122413 158.235826 
L 241.307677 158.343677 
L 239.15065 182.048945 
L 240.335913 182.156796 
z
" clip-path="url(#p6078684c75)" style="fill: #ff0000; stroke: #ff0000; stroke-width: 0.24"/>
    <path d="M 239.232421 184.059401 
L 237.768782 178.607008 
L 238.956837 178.677774 
L 240.372142 154.916684 
L 241.560196 154.987449 
L 240.144891 178.748539 
L 241.332946 178.819304 
z
" clip-path="url(#p6078684c75)" style="fill: #ff0000; stroke: #ff0000; stroke-width: 0.24"/>
    <path d="M 240.289589 180.755725 
L 238.656306 175.351725 
L 239.845991 175.385335 
L 240.518192 151.591626 
L 241.707877 151.625236 
L 241.035677 175.418945 
L 242.225362 175.452555 
z
" clip-path="url(#p6078684c75)" style="fill: #ff0000; stroke: #ff0000; stroke-width: 0.24"/>
    <path d="M 241.242827 177.420492 
L 239.441494 172.070163 
L 240.631649 172.066585 
L 240.560089 148.263489 
L 241.750244 148.259911 
L 241.821804 172.063007 
L 243.011959 172.059429 
z
" clip-path="url(#p6078684c75)" style="fill: #ff0000; stroke: #ff0000; stroke-width: 0.24"/>
    <path d="M 242.091193 174.057034 
L 240.123621 168.76558 
L 241.313084 168.724829 
L 240.498071 144.935584 
L 241.687533 144.894833 
L 242.502546 168.684079 
L 243.692008 168.643328 
z
" clip-path="url(#p6078684c75)" style="fill: #ff0000; stroke: #ff0000; stroke-width: 0.24"/>
    <path d="M 242.834379 170.668928 
L 240.702437 165.441533 
L 241.890045 165.363638 
L 240.332137 141.611472 
L 241.519746 141.533577 
L 243.077654 165.285743 
L 244.265262 165.207847 
z
" clip-path="url(#p6078684c75)" style="fill: #ff0000; stroke: #ff0000; stroke-width: 0.24"/>
    <path d="M 243.471443 167.25905 
L 241.177213 162.10082 
L 242.361807 161.985856 
L 240.062526 138.293964 
L 241.24712 138.179 
L 243.546402 161.870892 
L 244.730997 161.755928 
z
" clip-path="url(#p6078684c75)" style="fill: #ff0000; stroke: #ff0000; stroke-width: 0.24"/>
    <path d="M 244.001499 163.83102 
L 241.54722 158.746992 
L 242.727645 158.595071 
L 239.689234 134.986587 
L 240.869659 134.834667 
L 243.908069 158.443151 
L 245.088493 158.29123 
z
" clip-path="url(#p6078684c75)" style="fill: #ff0000; stroke: #ff0000; stroke-width: 0.24"/>
    <path d="M 244.424376 160.38808 
L 241.812446 155.383217 
L 242.987547 155.194489 
L 239.212975 131.692466 
L 240.388077 131.503737 
L 244.162648 155.00576 
L 245.33775 154.817032 
z
" clip-path="url(#p6078684c75)" style="fill: #ff0000; stroke: #ff0000; stroke-width: 0.24"/>
    <path d="M 244.738909 156.933672 
L 241.971926 152.012835 
L 243.140559 151.787495 
L 238.633745 128.414838 
L 239.802378 128.189497 
L 244.309192 151.562154 
L 245.477825 151.336813 
z
" clip-path="url(#p6078684c75)" style="fill: #ff0000; stroke: #ff0000; stroke-width: 0.24"/>
    <path d="M 244.945984 153.471065 
L 242.026601 148.639085 
L 243.187623 148.37734 
L 237.952733 125.15691 
L 239.113754 124.895165 
L 244.348644 148.115596 
L 245.509666 147.853851 
z
" clip-path="url(#p6078684c75)" style="fill: #ff0000; stroke: #ff0000; stroke-width: 0.24"/>
    <path d="M 245.044443 150.003675 
L 241.975511 145.26527 
L 243.127788 144.967377 
L 237.169933 121.921848 
L 238.32221 121.623955 
L 244.280064 144.669485 
L 245.432341 144.371592 
z
" clip-path="url(#p6078684c75)" style="fill: #ff0000; stroke: #ff0000; stroke-width: 0.24"/>
    <path d="M 245.034851 146.534902 
L 241.819366 141.894699 
L 242.961772 141.560949 
L 236.286771 118.712824 
L 237.429177 118.379074 
L 244.104178 141.227199 
L 245.246585 140.893449 
z
" clip-path="url(#p6078684c75)" style="fill: #ff0000; stroke: #ff0000; stroke-width: 0.24"/>
    <path d="M 244.916586 143.068124 
L 241.557688 138.530654 
L 242.689109 138.161372 
L 235.303479 115.532962 
L 236.434899 115.163681 
L 243.820529 137.792091 
L 244.95195 137.422809 
z
" clip-path="url(#p6078684c75)" style="fill: #ff0000; stroke: #ff0000; stroke-width: 0.24"/>
    <path d="M 244.689953 139.60682 
L 241.190967 135.176479 
L 242.3103 134.772038 
L 234.221478 112.385359 
L 235.340812 111.980918 
L 243.429634 134.367597 
L 244.548968 133.963156 
z
" clip-path="url(#p6078684c75)" style="fill: #ff0000; stroke: #ff0000; stroke-width: 0.24"/>
    <path d="M 244.438211 136.362702 
L 240.802507 132.04385 
L 241.908658 131.604632 
L 233.124315 109.481618 
L 234.230465 109.042401 
L 243.014809 131.165415 
L 244.12096 130.726198 
z
" clip-path="url(#p6078684c75)" style="fill: #ff0000; stroke: #ff0000; stroke-width: 0.24"/>
    <path d="M 246.563422 139.104286 
L 242.794552 134.901139 
L 243.886439 134.427575 
L 234.415153 112.589828 
L 235.507041 112.116263 
L 244.978327 133.954011 
L 246.070214 133.480446 
z
" clip-path="url(#p6078684c75)" style="fill: #ff0000; stroke: #ff0000; stroke-width: 0.24"/>
    <path d="M 248.736213 141.734939 
L 244.839939 137.649615 
L 245.916755 137.142715 
L 235.778757 115.606386 
L 236.855574 115.099486 
L 246.993572 136.635815 
L 248.070388 136.128915 
z
" clip-path="url(#p6078684c75)" style="fill: #ff0000; stroke: #ff0000; stroke-width: 0.24"/>
    <path d="M 249.622586 141.564481 
L 245.602629 137.600799 
L 246.663363 137.061053 
L 235.868444 115.846384 
L 236.929177 115.306638 
L 247.724096 136.521307 
L 248.78483 135.981561 
z
" clip-path="url(#p6078684c75)" style="fill: #ff0000; stroke: #ff0000; stroke-width: 0.24"/>
    <path d="M 248.87692 138.234863 
L 244.737038 134.396608 
L 245.780681 133.824515 
L 234.338826 112.951652 
L 235.382469 112.379559 
L 246.824324 133.252422 
L 247.867967 132.680329 
z
" clip-path="url(#p6078684c75)" style="fill: #ff0000; stroke: #ff0000; stroke-width: 0.24"/>
    <path d="M 248.029463 134.929727 
L 243.773567 131.220525 
L 244.799134 130.616626 
L 232.721153 110.105291 
L 233.74672 109.501392 
L 245.8247 130.012727 
L 246.850267 129.408828 
z
" clip-path="url(#p6078684c75)" style="fill: #ff0000; stroke: #ff0000; stroke-width: 0.24"/>
    <path d="M 247.080659 131.652349 
L 242.712807 128.075661 
L 243.719334 127.440537 
L 231.016842 107.309984 
L 232.02337 106.674859 
L 244.725862 126.805412 
L 245.73239 126.170287 
z
" clip-path="url(#p6078684c75)" style="fill: #ff0000; stroke: #ff0000; stroke-width: 0.24"/>
    <path d="M 246.031736 128.405515 
L 241.556014 124.964769 
L 242.542545 124.299007 
L 229.227318 104.568391 
L 230.213849 103.90263 
L 243.529076 123.633246 
L 244.515607 122.967485 
z
" clip-path="url(#p6078684c75)" style="fill: #ff0000; stroke: #ff0000; stroke-width: 0.24"/>
    <path d="M 244.883519 125.192491 
L 240.304169 121.890918 
L 241.269774 121.195153 
L 227.354472 101.883063 
L 228.320077 101.187298 
L 242.235378 120.499388 
L 243.200983 119.803623 
z
" clip-path="url(#p6078684c75)" style="fill: #ff0000; stroke: #ff0000; stroke-width: 0.24"/>
    <path d="M 243.637054 122.016311 
L 238.958406 118.857026 
L 239.902173 118.131916 
L 225.39996 99.25658 
L 226.343727 98.531469 
L 240.84594 117.406805 
L 241.789706 116.681694 
z
" clip-path="url(#p6078684c75)" style="fill: #ff0000; stroke: #ff0000; stroke-width: 0.24"/>
    <path d="M 242.293613 118.879897 
L 237.520084 115.865889 
L 238.44112 115.112117 
L 223.365678 96.691381 
L 224.286715 95.937609 
L 239.362157 114.358345 
L 240.283194 113.604573 
z
" clip-path="url(#p6078684c75)" style="fill: #ff0000; stroke: #ff0000; stroke-width: 0.24"/>
    <path d="M 240.854414 115.786267 
L 235.990512 112.920384 
L 236.887949 112.138663 
L 221.253518 94.189929 
L 222.150955 93.408207 
L 237.785385 111.356941 
L 238.682822 110.57522 
z
" clip-path="url(#p6078684c75)" style="fill: #ff0000; stroke: #ff0000; stroke-width: 0.24"/>
    <path d="M 239.320714 112.738373 
L 234.371034 110.023322 
L 235.244023 109.214389 
L 219.065374 91.754613 
L 219.938363 90.945681 
L 236.117012 108.405457 
L 236.990001 107.596524 
z
" clip-path="url(#p6078684c75)" style="fill: #ff0000; stroke: #ff0000; stroke-width: 0.24"/>
    <path d="M 238.30646 110.362776 
L 233.275682 107.801117 
L 234.123399 106.965739 
L 217.415833 90.011398 
L 218.26355 89.176019 
L 234.971116 106.13036 
L 235.818833 105.294982 
z
" clip-path="url(#p6078684c75)" style="fill: #ff0000; stroke: #ff0000; stroke-width: 0.24"/>
    <path d="M 241.281591 112.033151 
L 236.174464 109.627308 
L 236.996107 108.766272 
L 219.775389 92.333399 
L 220.597033 91.472363 
L 237.817751 107.905236 
L 238.639395 107.0442 
z
" clip-path="url(#p6078684c75)" style="fill: #ff0000; stroke: #ff0000; stroke-width: 0.24"/>
    <path d="M 244.306774 113.611289 
L 239.128123 111.363536 
L 239.922917 110.477656 
L 222.205315 94.581775 
L 223.000109 93.695895 
L 240.717711 109.591776 
L 241.512505 108.705896 
z
" clip-path="url(#p6078684c75)" style="fill: #ff0000; stroke: #ff0000; stroke-width: 0.24"/>
    <path d="M 247.378818 115.095719 
L 242.133534 113.008179 
L 242.900727 112.098292 
L 224.702979 96.754419 
L 225.470173 95.844532 
L 243.667921 111.188404 
L 244.435115 110.278517 
z
" clip-path="url(#p6078684c75)" style="fill: #ff0000; stroke: #ff0000; stroke-width: 0.24"/>
    <path d="M 250.49526 116.485033 
L 245.188299 114.559677 
L 245.927168 113.626642 
L 227.266465 98.849273 
L 228.005333 97.916238 
L 246.666036 112.693607 
L 247.404905 111.760572 
z
" clip-path="url(#p6078684c75)" style="fill: #ff0000; stroke: #ff0000; stroke-width: 0.24"/>
    <path d="M 253.652931 117.777956 
L 248.289308 116.016599 
L 248.999154 115.061298 
L 229.89314 100.864374 
L 230.602986 99.909073 
L 249.709001 114.105997 
L 250.418847 113.150697 
z
" clip-path="url(#p6078684c75)" style="fill: #ff0000; stroke: #ff0000; stroke-width: 0.24"/>
    <path d="M 251.296964 114.881341 
L 245.877145 113.301346 
L 246.554465 112.322715 
L 226.981847 98.776311 
L 227.659167 97.79768 
L 247.231785 111.344084 
L 247.909105 110.365453 
z
" clip-path="url(#p6078684c75)" style="fill: #ff0000; stroke: #ff0000; stroke-width: 0.24"/>
    <path d="M 248.845324 112.065595 
L 243.375438 110.66875 
L 244.019466 109.667896 
L 224.002384 96.787334 
L 224.646412 95.78648 
L 244.663494 108.667042 
L 245.307522 107.666188 
z
" clip-path="url(#p6078684c75)" style="fill: #ff0000; stroke: #ff0000; stroke-width: 0.24"/>
    <path d="M 246.30025 109.333904 
L 240.786485 108.121788 
L 241.396493 107.099843 
L 220.957588 94.899693 
L 221.567595 93.877748 
L 242.0065 106.077898 
L 242.616507 105.055952 
z
" clip-path="url(#p6078684c75)" style="fill: #ff0000; stroke: #ff0000; stroke-width: 0.24"/>
    <path d="M 243.66449 106.689327 
L 238.113083 105.663312 
L 238.68838 104.621431 
L 217.850773 93.115495 
L 218.42607 92.073614 
L 239.263677 103.579551 
L 239.838974 102.537671 
z
" clip-path="url(#p6078684c75)" style="fill: #ff0000; stroke: #ff0000; stroke-width: 0.24"/>
    <path d="M 240.94154 104.134874 
L 235.35877 103.29612 
L 235.898705 102.235483 
L 214.685965 91.436774 
L 215.225901 90.376137 
L 236.438641 101.174846 
L 236.978576 100.114209 
z
" clip-path="url(#p6078684c75)" style="fill: #ff0000; stroke: #ff0000; stroke-width: 0.24"/>
    <path d="M 238.13421 101.673501 
L 232.526392 101.022956 
L 233.030356 99.944763 
L 211.466478 89.865495 
L 211.970441 88.787302 
L 233.534319 98.866569 
L 234.038283 97.788375 
z
" clip-path="url(#p6078684c75)" style="fill: #ff0000; stroke: #ff0000; stroke-width: 0.24"/>
    <path d="M 235.245824 99.307894 
L 229.619301 98.846295 
L 230.086723 97.751764 
L 208.196098 88.40334 
L 208.66352 87.308809 
L 230.554144 96.657233 
L 231.021565 95.562702 
z
" clip-path="url(#p6078684c75)" style="fill: #ff0000; stroke: #ff0000; stroke-width: 0.24"/>
    <path d="M 232.279308 97.040732 
L 226.640445 96.768602 
L 227.070796 95.658971 
L 204.878186 87.051965 
L 205.308537 85.942335 
L 227.501146 94.549341 
L 227.931496 93.43971 
z
" clip-path="url(#p6078684c75)" style="fill: #ff0000; stroke: #ff0000; stroke-width: 0.24"/>
    <path d="M 229.238315 94.874472 
L 223.59349 94.792117 
L 223.986283 93.668642 
L 201.516791 85.812789 
L 201.909584 84.689315 
L 224.379075 92.545168 
L 224.771868 91.421693 
z
" clip-path="url(#p6078684c75)" style="fill: #ff0000; stroke: #ff0000; stroke-width: 0.24"/>
    <path d="M 226.126197 92.811819 
L 220.481796 92.919333 
L 220.836586 91.783285 
L 198.115629 84.687472 
L 198.47042 83.551424 
L 221.191377 90.647237 
L 221.546168 89.51119 
z
" clip-path="url(#p6078684c75)" style="fill: #ff0000; stroke: #ff0000; stroke-width: 0.24"/>
    <path d="M 222.946463 90.855018 
L 217.30887 91.152279 
L 217.625257 90.004943 
L 194.678534 83.677195 
L 194.994922 82.529859 
L 217.941644 88.857607 
L 218.258032 87.710271 
z
" clip-path="url(#p6078684c75)" style="fill: #ff0000; stroke: #ff0000; stroke-width: 0.24"/>
    <path d="M 220.983071 89.317697 
L 215.358662 89.804363 
L 215.636289 88.647037 
L 192.489763 83.094489 
L 192.76739 81.937163 
L 215.913916 87.48971 
L 216.191544 86.332384 
z
" clip-path="url(#p6078684c75)" style="fill: #ff0000; stroke: #ff0000; stroke-width: 0.24"/>
    <path d="M 224.712522 89.141576 
L 219.107659 89.817102 
L 219.346211 88.651095 
L 196.026057 83.880051 
L 196.264609 82.714043 
L 219.584764 87.485087 
L 219.823316 86.319079 
z
" clip-path="url(#p6078684c75)" style="fill: #ff0000; stroke: #ff0000; stroke-width: 0.24"/>
    <path d="M 228.433963 88.840304 
L 222.854986 89.703927 
L 223.054193 88.530557 
L 199.586789 84.546413 
L 199.785996 83.373043 
L 223.253401 87.357186 
L 223.452608 86.183816 
z
" clip-path="url(#p6078684c75)" style="fill: #ff0000; stroke: #ff0000; stroke-width: 0.24"/>
    <path d="M 232.143143 88.414019 
L 226.596363 89.464762 
L 226.756 88.285356 
L 203.16789 85.09262 
L 203.327527 83.913215 
L 226.915637 87.105951 
L 227.075273 85.926545 
z
" clip-path="url(#p6078684c75)" style="fill: #ff0000; stroke: #ff0000; stroke-width: 0.24"/>
    <path d="M 235.835895 87.863104 
L 230.327587 89.099778 
L 230.447473 87.915671 
L 206.76534 85.517954 
L 206.885226 84.333847 
L 230.567358 86.731564 
L 230.687244 85.547458 
z
" clip-path="url(#p6078684c75)" style="fill: #ff0000; stroke: #ff0000; stroke-width: 0.24"/>
    <path d="M 239.507973 87.18842 
L 234.044366 88.609626 
L 234.124365 87.422157 
L 210.374996 85.822173 
L 210.454996 84.634705 
L 234.204364 86.234689 
L 234.284364 85.047221 
z
" clip-path="url(#p6078684c75)" style="fill: #ff0000; stroke: #ff0000; stroke-width: 0.24"/>
    <path d="M 243.15552 86.390601 
L 237.742795 87.994732 
L 237.782818 86.805245 
L 213.993077 86.004801 
L 214.033099 84.815314 
L 237.82284 85.615758 
L 237.862862 84.426271 
z
" clip-path="url(#p6078684c75)" style="fill: #ff0000; stroke: #ff0000; stroke-width: 0.24"/>
    <path d="M 246.773912 85.470756 
L 241.418192 87.255996 
L 241.418192 86.065836 
L 217.614989 86.065836 
L 217.614989 84.875676 
L 241.418192 84.875676 
L 241.418192 83.685515 
z
" clip-path="url(#p6078684c75)" style="fill: #ff0000; stroke: #ff0000; stroke-width: 0.24"/>
   </g>
   <g id="matplotlib.axis_1">
    <g id="xtick_1">
     <g id="line2d_1">
      <defs>
       <path id="med78a5160a" d="M 0 0 
L 0 -3 
" style="stroke: #000000"/>
      </defs>
      <g>
       <use xlink:href="#med78a5160a" x="41.364173" y="282.621321" style="stroke: #000000"/>
      </g>
     </g>
     <g id="text_1">
      <!-- 6 -->
      <g transform="translate(33.624525 296.199681) scale(0.105 -0.105)">
       <defs>
        <path id="DejaVuSans-2212" d="M 678 2272 
L 4684 2272 
L 4684 1741 
L 678 1741 
L 678 2272 
z
" transform="scale(0.015625)"/>
        <path id="DejaVuSans-36" d="M 2113 2584 
Q 1688 2584 1439 2293 
Q 1191 2003 1191 1497 
Q 1191 994 1439 701 
Q 1688 409 2113 409 
Q 2538 409 2786 701 
Q 3034 994 3034 1497 
Q 3034 2003 2786 2293 
Q 2538 2584 2113 2584 
z
M 3366 4563 
L 3366 3988 
Q 3128 4100 2886 4159 
Q 2644 4219 2406 4219 
Q 1781 4219 1451 3797 
Q 1122 3375 1075 2522 
Q 1259 2794 1537 2939 
Q 1816 3084 2150 3084 
Q 2853 3084 3261 2657 
Q 3669 2231 3669 1497 
Q 3669 778 3244 343 
Q 2819 -91 2113 -91 
Q 1303 -91 875 529 
Q 447 1150 447 2328 
Q 447 3434 972 4092 
Q 1497 4750 2381 4750 
Q 2619 4750 2861 4703 
Q 3103 4656 3366 4563 
z
" transform="scale(0.015625)"/>
       </defs>
       <use xlink:href="#DejaVuSans-2212"/>
       <use xlink:href="#DejaVuSans-36" x="83.789062"/>
      </g>
     </g>
    </g>
    <g id="xtick_2">
     <g id="line2d_2">
      <g>
       <use xlink:href="#med78a5160a" x="88.970579" y="282.621321" style="stroke: #000000"/>
      </g>
     </g>
     <g id="text_2">
      <!-- 4 -->
      <g transform="translate(81.230931 296.199681) scale(0.105 -0.105)">
       <defs>
        <path id="DejaVuSans-34" d="M 2419 4116 
L 825 1625 
L 2419 1625 
L 2419 4116 
z
M 2253 4666 
L 3047 4666 
L 3047 1625 
L 3713 1625 
L 3713 1100 
L 3047 1100 
L 3047 0 
L 2419 0 
L 2419 1100 
L 313 1100 
L 313 1709 
L 2253 4666 
z
" transform="scale(0.015625)"/>
       </defs>
       <use xlink:href="#DejaVuSans-2212"/>
       <use xlink:href="#DejaVuSans-34" x="83.789062"/>
      </g>
     </g>
    </g>
    <g id="xtick_3">
     <g id="line2d_3">
      <g>
       <use xlink:href="#med78a5160a" x="136.576985" y="282.621321" style="stroke: #000000"/>
      </g>
     </g>
     <g id="text_3">
      <!-- 2 -->
      <g transform="translate(128.837336 296.199681) scale(0.105 -0.105)">
       <defs>
        <path id="DejaVuSans-32" d="M 1228 531 
L 3431 531 
L 3431 0 
L 469 0 
L 469 531 
Q 828 903 1448 1529 
Q 2069 2156 2228 2338 
Q 2531 2678 2651 2914 
Q 2772 3150 2772 3378 
Q 2772 3750 2511 3984 
Q 2250 4219 1831 4219 
Q 1534 4219 1204 4116 
Q 875 4013 500 3803 
L 500 4441 
Q 881 4594 1212 4672 
Q 1544 4750 1819 4750 
Q 2544 4750 2975 4387 
Q 3406 4025 3406 3419 
Q 3406 3131 3298 2873 
Q 3191 2616 2906 2266 
Q 2828 2175 2409 1742 
Q 1991 1309 1228 531 
z
" transform="scale(0.015625)"/>
       </defs>
       <use xlink:href="#DejaVuSans-2212"/>
       <use xlink:href="#DejaVuSans-32" x="83.789062"/>
      </g>
     </g>
    </g>
    <g id="xtick_4">
     <g id="line2d_4">
      <g>
       <use xlink:href="#med78a5160a" x="184.18339" y="282.621321" style="stroke: #000000"/>
      </g>
     </g>
     <g id="text_4">
      <!-- 0 -->
      <g transform="translate(180.843078 296.199681) scale(0.105 -0.105)">
       <defs>
        <path id="DejaVuSans-30" d="M 2034 4250 
Q 1547 4250 1301 3770 
Q 1056 3291 1056 2328 
Q 1056 1369 1301 889 
Q 1547 409 2034 409 
Q 2525 409 2770 889 
Q 3016 1369 3016 2328 
Q 3016 3291 2770 3770 
Q 2525 4250 2034 4250 
z
M 2034 4750 
Q 2819 4750 3233 4129 
Q 3647 3509 3647 2328 
Q 3647 1150 3233 529 
Q 2819 -91 2034 -91 
Q 1250 -91 836 529 
Q 422 1150 422 2328 
Q 422 3509 836 4129 
Q 1250 4750 2034 4750 
z
" transform="scale(0.015625)"/>
       </defs>
       <use xlink:href="#DejaVuSans-30"/>
      </g>
     </g>
    </g>
    <g id="xtick_5">
     <g id="line2d_5">
      <g>
       <use xlink:href="#med78a5160a" x="231.789796" y="282.621321" style="stroke: #000000"/>
      </g>
     </g>
     <g id="text_5">
      <!-- 2 -->
      <g transform="translate(228.449484 296.199681) scale(0.105 -0.105)">
       <use xlink:href="#DejaVuSans-32"/>
      </g>
     </g>
    </g>
    <g id="xtick_6">
     <g id="line2d_6">
      <g>
       <use xlink:href="#med78a5160a" x="279.396202" y="282.621321" style="stroke: #000000"/>
      </g>
     </g>
     <g id="text_6">
      <!-- 4 -->
      <g transform="translate(276.055889 296.199681) scale(0.105 -0.105)">
       <use xlink:href="#DejaVuSans-34"/>
      </g>
     </g>
    </g>
    <g id="xtick_7">
     <g id="line2d_7">
      <g>
       <use xlink:href="#med78a5160a" x="327.002607" y="282.621321" style="stroke: #000000"/>
      </g>
     </g>
     <g id="text_7">
      <!-- 6 -->
      <g transform="translate(323.662295 296.199681) scale(0.105 -0.105)">
       <use xlink:href="#DejaVuSans-36"/>
      </g>
     </g>
    </g>
    <g id="xtick_8">
     <g id="line2d_8">
      <g>
       <use xlink:href="#med78a5160a" x="374.609013" y="282.621321" style="stroke: #000000"/>
      </g>
     </g>
     <g id="text_8">
      <!-- 8 -->
      <g transform="translate(371.268701 296.199681) scale(0.105 -0.105)">
       <defs>
        <path id="DejaVuSans-38" d="M 2034 2216 
Q 1584 2216 1326 1975 
Q 1069 1734 1069 1313 
Q 1069 891 1326 650 
Q 1584 409 2034 409 
Q 2484 409 2743 651 
Q 3003 894 3003 1313 
Q 3003 1734 2745 1975 
Q 2488 2216 2034 2216 
z
M 1403 2484 
Q 997 2584 770 2862 
Q 544 3141 544 3541 
Q 544 4100 942 4425 
Q 1341 4750 2034 4750 
Q 2731 4750 3128 4425 
Q 3525 4100 3525 3541 
Q 3525 3141 3298 2862 
Q 3072 2584 2669 2484 
Q 3125 2378 3379 2068 
Q 3634 1759 3634 1313 
Q 3634 634 3220 271 
Q 2806 -91 2034 -91 
Q 1263 -91 848 271 
Q 434 634 434 1313 
Q 434 1759 690 2068 
Q 947 2378 1403 2484 
z
M 1172 3481 
Q 1172 3119 1398 2916 
Q 1625 2713 2034 2713 
Q 2441 2713 2670 2916 
Q 2900 3119 2900 3481 
Q 2900 3844 2670 4047 
Q 2441 4250 2034 4250 
Q 1625 4250 1398 4047 
Q 1172 3844 1172 3481 
z
" transform="scale(0.015625)"/>
       </defs>
       <use xlink:href="#DejaVuSans-38"/>
      </g>
     </g>
    </g>
    <g id="xtick_9">
     <g id="line2d_9">
      <g>
       <use xlink:href="#med78a5160a" x="422.215419" y="282.621321" style="stroke: #000000"/>
      </g>
     </g>
     <g id="text_9">
      <!-- 10 -->
      <g transform="translate(415.534794 296.199681) scale(0.105 -0.105)">
       <defs>
        <path id="DejaVuSans-31" d="M 794 531 
L 1825 531 
L 1825 4091 
L 703 3866 
L 703 4441 
L 1819 4666 
L 2450 4666 
L 2450 531 
L 3481 531 
L 3481 0 
L 794 0 
L 794 531 
z
" transform="scale(0.015625)"/>
       </defs>
       <use xlink:href="#DejaVuSans-31"/>
       <use xlink:href="#DejaVuSans-30" x="63.623047"/>
      </g>
     </g>
    </g>
   </g>
   <g id="matplotlib.axis_2">
    <g id="ytick_1">
     <g id="line2d_10">
      <defs>
       <path id="m16c591aeee" d="M 0 0 
L 3 0 
" style="stroke: #000000"/>
      </defs>
      <g>
       <use xlink:href="#m16c591aeee" x="31.88" y="258.043976" style="stroke: #000000"/>
      </g>
     </g>
     <g id="text_10">
      <!-- 6 -->
      <g transform="translate(10.800703 262.033156) scale(0.105 -0.105)">
       <use xlink:href="#DejaVuSans-2212"/>
       <use xlink:href="#DejaVuSans-36" x="83.789062"/>
      </g>
     </g>
    </g>
    <g id="ytick_2">
     <g id="line2d_11">
      <g>
       <use xlink:href="#m16c591aeee" x="31.88" y="210.437571" style="stroke: #000000"/>
      </g>
     </g>
     <g id="text_11">
      <!-- 4 -->
      <g transform="translate(10.800703 214.42675) scale(0.105 -0.105)">
       <use xlink:href="#DejaVuSans-2212"/>
       <use xlink:href="#DejaVuSans-34" x="83.789062"/>
      </g>
     </g>
    </g>
    <g id="ytick_3">
     <g id="line2d_12">
      <g>
       <use xlink:href="#m16c591aeee" x="31.88" y="162.831165" style="stroke: #000000"/>
      </g>
     </g>
     <g id="text_12">
      <!-- 2 -->
      <g transform="translate(10.800703 166.820345) scale(0.105 -0.105)">
       <use xlink:href="#DejaVuSans-2212"/>
       <use xlink:href="#DejaVuSans-32" x="83.789062"/>
      </g>
     </g>
    </g>
    <g id="ytick_4">
     <g id="line2d_13">
      <g>
       <use xlink:href="#m16c591aeee" x="31.88" y="115.224759" style="stroke: #000000"/>
      </g>
     </g>
     <g id="text_13">
      <!-- 0 -->
      <g transform="translate(19.599375 119.213939) scale(0.105 -0.105)">
       <use xlink:href="#DejaVuSans-30"/>
      </g>
     </g>
    </g>
    <g id="ytick_5">
     <g id="line2d_14">
      <g>
       <use xlink:href="#m16c591aeee" x="31.88" y="67.618354" style="stroke: #000000"/>
      </g>
     </g>
     <g id="text_14">
      <!-- 2 -->
      <g transform="translate(19.599375 71.607533) scale(0.105 -0.105)">
       <use xlink:href="#DejaVuSans-32"/>
      </g>
     </g>
    </g>
   </g>
   <g id="patch_3">
    <path d="M 31.88 282.621321 
L 31.88 34.178679 
" style="fill: none; stroke: #000000; stroke-width: 0.8; stroke-linejoin: miter; stroke-linecap: square"/>
   </g>
   <g id="patch_4">
    <path d="M 450 282.621321 
L 450 34.178679 
" style="fill: none; stroke: #000000; stroke-width: 0.8; stroke-linejoin: miter; stroke-linecap: square"/>
   </g>
   <g id="patch_5">
    <path d="M 31.88 282.621321 
L 450 282.621321 
" style="fill: none; stroke: #000000; stroke-width: 0.8; stroke-linejoin: miter; stroke-linecap: square"/>
   </g>
   <g id="patch_6">
    <path d="M 31.88 34.178679 
L 450 34.178679 
" style="fill: none; stroke: #000000; stroke-width: 0.8; stroke-linejoin: miter; stroke-linecap: square"/>
   </g>
  </g>
 </g>
 <defs>
  <clipPath id="p6078684c75">
   <rect x="31.88" y="34.178679" width="418.12" height="248.442642"/>
  </clipPath>
 </defs>
</svg>
