<?xml version="1.0" encoding="utf-8" standalone="no"?>
<!DOCTYPE svg PUBLIC "-//W3C//DTD SVG 1.1//EN"
  "http://www.w3.org/Graphics/SVG/1.1/DTD/svg11.dtd">
<svg xmlns:xlink="http://www.w3.org/1999/xlink" width="460.8pt" height="316.8pt" viewBox="0 0 460.8 316.8" xmlns="http://www.w3.org/2000/svg" version="1.1">
 <metadata>
  <rdf:RDF xmlns:dc="http://purl.org/dc/elements/1.1/" xmlns:cc="http://creativecommons.org/ns#" xmlns:rdf="http://www.w3.org/1999/02/22-rdf-syntax-ns#">
   <cc:Work>
    <dc:type rdf:resource="http://purl.org/dc/dcmitype/StillImage"/>
    <dc:date>2024-01-11T15:46:39.149234</dc:date>
    <dc:format>image/svg+xml</dc:format>
    <dc:creator>
     <cc:Agent>
      <dc:title>Matplotlib v3.7.2, https://matplotlib.org/</dc:title>
     </cc:Agent>
    </dc:creator>
   </cc:Work>
  </rdf:RDF>
 </metadata>
 <defs>
  <style type="text/css">*{stroke-linejoin: round; stroke-linecap: butt}</style>
 </defs>
 <g id="figure_1">
  <g id="patch_1">
   <path d="M 0 316.8 
L 460.8 316.8 
L 460.8 0 
L 0 0 
z
" style="fill: #ffffff"/>
  </g>
  <g id="axes_1">
   <g id="patch_2">
    <path d="M 31.88 275.034235 
L 450 275.034235 
L 450 41.765765 
L 31.88 41.765765 
z
" style="fill: #ffffff"/>
   </g>
   <g id="PatchCollection_1">
    <path d="M 235.191564 164.403762 
L 348.4945 164.403762 
L 348.4945 117.194205 
L 235.191564 117.194205 
z
" clip-path="url(#pa69c4dc48a)" style="fill: #ffffff; stroke: #0000ff; stroke-width: 3"/>
    <path d="M 129.442157 153.073468 
L 216.643185 168.449362 
L 223.011278 132.334115 
L 135.810249 116.958221 
z
" clip-path="url(#pa69c4dc48a)" style="fill: #ff0000; stroke: #ff0000; stroke-width: 2"/>
    <path d="M 344.717735 173.845673 
L 430.994545 153.927102 
L 422.745054 118.194629 
L 336.468244 138.113201 
z
" clip-path="url(#pa69c4dc48a)" style="fill: #ff0000; stroke: #ff0000; stroke-width: 2"/>
   </g>
   <g id="PatchCollection_2">
    <path d="M 50.885455 234.670466 
L 139.431699 234.670466 
L 139.431699 197.998083 
L 50.885455 197.998083 
L 50.885455 234.670466 
z
" clip-path="url(#pa69c4dc48a)" style="fill: none; stroke: #000000; stroke-width: 0.5"/>
    <path d="M 54.804725 234.460759 
L 143.350538 234.73724 
L 143.465045 198.065035 
L 54.919232 197.788554 
L 54.804725 234.460759 
z
" clip-path="url(#pa69c4dc48a)" style="fill: none; stroke: #000000; stroke-width: 0.5"/>
    <path d="M 58.780902 234.473033 
L 147.326715 234.749514 
L 147.441223 198.077309 
L 58.89541 197.800829 
L 58.780902 234.473033 
z
" clip-path="url(#pa69c4dc48a)" style="fill: none; stroke: #000000; stroke-width: 0.5"/>
    <path d="M 62.75708 234.485497 
L 151.302893 234.761978 
L 151.4174 198.089773 
L 62.871588 197.813292 
L 62.75708 234.485497 
z
" clip-path="url(#pa69c4dc48a)" style="fill: none; stroke: #000000; stroke-width: 0.5"/>
    <path d="M 66.733258 234.49796 
L 155.279071 234.774441 
L 155.393578 198.102236 
L 66.847765 197.825755 
L 66.733258 234.49796 
z
" clip-path="url(#pa69c4dc48a)" style="fill: none; stroke: #000000; stroke-width: 0.5"/>
    <path d="M 70.709247 234.510423 
L 159.255059 234.786904 
L 159.369567 198.114699 
L 70.823754 197.838219 
L 70.709247 234.510423 
z
" clip-path="url(#pa69c4dc48a)" style="fill: none; stroke: #000000; stroke-width: 0.5"/>
    <path d="M 74.685424 234.522698 
L 163.231237 234.799179 
L 163.345745 198.126974 
L 74.799932 197.850493 
L 74.685424 234.522698 
z
" clip-path="url(#pa69c4dc48a)" style="fill: none; stroke: #000000; stroke-width: 0.5"/>
    <path d="M 78.661602 234.535161 
L 167.207415 234.811642 
L 167.321922 198.139437 
L 78.77611 197.862956 
L 78.661602 234.535161 
z
" clip-path="url(#pa69c4dc48a)" style="fill: none; stroke: #000000; stroke-width: 0.5"/>
    <path d="M 82.63778 234.547625 
L 171.183593 234.824105 
L 171.2981 198.1519 
L 82.752287 197.87542 
L 82.63778 234.547625 
z
" clip-path="url(#pa69c4dc48a)" style="fill: none; stroke: #000000; stroke-width: 0.5"/>
    <path d="M 86.613957 234.560088 
L 175.15977 234.836569 
L 175.274278 198.164364 
L 86.728465 197.887883 
L 86.613957 234.560088 
z
" clip-path="url(#pa69c4dc48a)" style="fill: none; stroke: #000000; stroke-width: 0.5"/>
    <path d="M 90.590135 234.572362 
L 179.135948 234.848843 
L 179.250456 198.176638 
L 90.704643 197.900158 
L 90.590135 234.572362 
z
" clip-path="url(#pa69c4dc48a)" style="fill: none; stroke: #000000; stroke-width: 0.5"/>
    <path d="M 94.566313 234.584826 
L 183.112126 234.861306 
L 183.226633 198.189102 
L 94.68082 197.912621 
L 94.566313 234.584826 
z
" clip-path="url(#pa69c4dc48a)" style="fill: none; stroke: #000000; stroke-width: 0.5"/>
    <path d="M 98.542491 234.597289 
L 187.088303 234.87377 
L 187.202811 198.201565 
L 98.656998 197.925084 
L 98.542491 234.597289 
z
" clip-path="url(#pa69c4dc48a)" style="fill: none; stroke: #000000; stroke-width: 0.5"/>
    <path d="M 102.518668 234.609752 
L 191.064481 234.886233 
L 191.178989 198.214028 
L 102.633176 197.937547 
L 102.518668 234.609752 
z
" clip-path="url(#pa69c4dc48a)" style="fill: none; stroke: #000000; stroke-width: 0.5"/>
    <path d="M 106.494846 234.622027 
L 195.040659 234.898508 
L 195.155166 198.226303 
L 106.609353 197.949822 
L 106.494846 234.622027 
z
" clip-path="url(#pa69c4dc48a)" style="fill: none; stroke: #000000; stroke-width: 0.5"/>
    <path d="M 110.470835 234.63449 
L 199.016648 234.910971 
L 199.131155 198.238766 
L 110.585342 197.962285 
L 110.470835 234.63449 
z
" clip-path="url(#pa69c4dc48a)" style="fill: none; stroke: #000000; stroke-width: 0.5"/>
    <path d="M 114.447013 234.646953 
L 202.992825 234.923434 
L 203.107333 198.251229 
L 114.56152 197.974749 
L 114.447013 234.646953 
z
" clip-path="url(#pa69c4dc48a)" style="fill: none; stroke: #000000; stroke-width: 0.5"/>
    <path d="M 118.42319 234.659228 
L 206.969003 234.935709 
L 207.083511 198.263504 
L 118.537698 197.987023 
L 118.42319 234.659228 
z
" clip-path="url(#pa69c4dc48a)" style="fill: none; stroke: #000000; stroke-width: 0.5"/>
    <path d="M 122.399368 234.671691 
L 210.945181 234.948172 
L 211.059688 198.275967 
L 122.513875 197.999486 
L 122.399368 234.671691 
z
" clip-path="url(#pa69c4dc48a)" style="fill: none; stroke: #000000; stroke-width: 0.5"/>
    <path d="M 126.375546 234.684155 
L 214.921359 234.960635 
L 215.035866 198.288431 
L 126.490053 198.01195 
L 126.375546 234.684155 
z
" clip-path="url(#pa69c4dc48a)" style="fill: none; stroke: #000000; stroke-width: 0.5"/>
    <path d="M 130.351723 234.696618 
L 218.897536 234.973099 
L 219.012044 198.300894 
L 130.466231 198.024413 
L 130.351723 234.696618 
z
" clip-path="url(#pa69c4dc48a)" style="fill: none; stroke: #000000; stroke-width: 0.5"/>
    <path d="M 134.327901 234.708892 
L 222.873714 234.985373 
L 222.988221 198.313168 
L 134.442409 198.036688 
L 134.327901 234.708892 
z
" clip-path="url(#pa69c4dc48a)" style="fill: none; stroke: #000000; stroke-width: 0.5"/>
    <path d="M 138.304079 234.721356 
L 226.849892 234.997837 
L 226.964399 198.325632 
L 138.418586 198.049151 
L 138.304079 234.721356 
z
" clip-path="url(#pa69c4dc48a)" style="fill: none; stroke: #000000; stroke-width: 0.5"/>
    <path d="M 142.280256 234.733819 
L 230.826069 235.0103 
L 230.940577 198.338095 
L 142.394764 198.061614 
L 142.280256 234.733819 
z
" clip-path="url(#pa69c4dc48a)" style="fill: none; stroke: #000000; stroke-width: 0.5"/>
    <path d="M 146.256321 234.746282 
L 234.802134 235.022763 
L 234.916641 198.350558 
L 146.370828 198.074078 
L 146.256321 234.746282 
z
" clip-path="url(#pa69c4dc48a)" style="fill: none; stroke: #000000; stroke-width: 0.5"/>
    <path d="M 150.23248 234.758557 
L 238.778293 235.035038 
L 238.8928 198.362833 
L 150.346987 198.086352 
L 150.23248 234.758557 
z
" clip-path="url(#pa69c4dc48a)" style="fill: none; stroke: #000000; stroke-width: 0.5"/>
    <path d="M 154.208638 234.77102 
L 242.754451 235.047501 
L 242.868959 198.375296 
L 154.323146 198.098815 
L 154.208638 234.77102 
z
" clip-path="url(#pa69c4dc48a)" style="fill: none; stroke: #000000; stroke-width: 0.5"/>
    <path d="M 158.184797 234.783484 
L 246.73061 235.059964 
L 246.845118 198.387759 
L 158.299305 198.111279 
L 158.184797 234.783484 
z
" clip-path="url(#pa69c4dc48a)" style="fill: none; stroke: #000000; stroke-width: 0.5"/>
    <path d="M 162.160956 234.795947 
L 250.706769 235.072428 
L 250.821276 198.400223 
L 162.275464 198.123742 
L 162.160956 234.795947 
z
" clip-path="url(#pa69c4dc48a)" style="fill: none; stroke: #000000; stroke-width: 0.5"/>
    <path d="M 166.137115 234.808221 
L 254.682928 235.084702 
L 254.797435 198.412497 
L 166.251622 198.136016 
L 166.137115 234.808221 
z
" clip-path="url(#pa69c4dc48a)" style="fill: none; stroke: #000000; stroke-width: 0.5"/>
    <path d="M 170.113274 234.820685 
L 258.659087 235.097165 
L 258.773594 198.424961 
L 170.227781 198.14848 
L 170.113274 234.820685 
z
" clip-path="url(#pa69c4dc48a)" style="fill: none; stroke: #000000; stroke-width: 0.5"/>
    <path d="M 174.089433 234.833148 
L 262.635245 235.109629 
L 262.749753 198.437424 
L 174.20394 198.160943 
L 174.089433 234.833148 
z
" clip-path="url(#pa69c4dc48a)" style="fill: none; stroke: #000000; stroke-width: 0.5"/>
    <path d="M 178.065591 234.845611 
L 266.611404 235.122092 
L 266.725912 198.449887 
L 178.180099 198.173406 
L 178.065591 234.845611 
z
" clip-path="url(#pa69c4dc48a)" style="fill: none; stroke: #000000; stroke-width: 0.5"/>
    <path d="M 181.688768 233.430341 
L 270.210756 235.502825 
L 271.069097 198.840487 
L 182.54711 196.768004 
L 181.688768 233.430341 
z
" clip-path="url(#pa69c4dc48a)" style="fill: none; stroke: #000000; stroke-width: 0.5"/>
    <path d="M 192.610793 240.487297 
L 280.871235 233.378715 
L 277.927138 196.8247 
L 189.666697 203.933282 
L 192.610793 240.487297 
z
" clip-path="url(#pa69c4dc48a)" style="fill: none; stroke: #000000; stroke-width: 0.5"/>
    <path d="M 202.144699 241.581421 
L 290.141099 231.728959 
L 286.060596 195.2843 
L 198.064196 205.136762 
L 202.144699 241.581421 
z
" clip-path="url(#pa69c4dc48a)" style="fill: none; stroke: #000000; stroke-width: 0.5"/>
    <path d="M 208.606212 233.817577 
L 297.149815 233.133607 
L 296.866541 196.462317 
L 208.322939 197.146288 
L 208.606212 233.817577 
z
" clip-path="url(#pa69c4dc48a)" style="fill: none; stroke: #000000; stroke-width: 0.5"/>
    <path d="M 215.837329 226.764731 
L 303.975436 235.256588 
L 307.49243 198.753239 
L 219.354324 190.261382 
L 215.837329 226.764731 
z
" clip-path="url(#pa69c4dc48a)" style="fill: none; stroke: #000000; stroke-width: 0.5"/>
    <path d="M 223.760004 220.499153 
L 310.544279 238.075476 
L 317.823703 202.132831 
L 231.039428 184.556508 
L 223.760004 220.499153 
z
" clip-path="url(#pa69c4dc48a)" style="fill: none; stroke: #000000; stroke-width: 0.5"/>
    <path d="M 232.289134 215.087728 
L 316.785816 241.559376 
L 327.749335 206.564162 
L 243.252653 180.092514 
L 232.289134 215.087728 
z
" clip-path="url(#pa69c4dc48a)" style="fill: none; stroke: #000000; stroke-width: 0.5"/>
    <path d="M 241.332833 210.589239 
L 322.632773 245.671388 
L 337.162424 212.00014 
L 255.862484 176.917991 
L 241.332833 210.589239 
z
" clip-path="url(#pa69c4dc48a)" style="fill: none; stroke: #000000; stroke-width: 0.5"/>
    <path d="M 250.79397 207.051417 
L 328.022371 250.366674 
L 345.961853 218.381698 
L 268.733452 175.06644 
L 250.79397 207.051417 
z
" clip-path="url(#pa69c4dc48a)" style="fill: none; stroke: #000000; stroke-width: 0.5"/>
    <path d="M 260.570754 204.512965 
L 332.896705 255.595196 
L 354.052962 225.640622 
L 281.727012 174.558391 
L 260.570754 204.512965 
z
" clip-path="url(#pa69c4dc48a)" style="fill: none; stroke: #000000; stroke-width: 0.5"/>
    <path d="M 261.376067 195.517479 
L 328.02137 253.817059 
L 352.16677 226.215187 
L 285.521468 167.915607 
L 261.376067 195.517479 
z
" clip-path="url(#pa69c4dc48a)" style="fill: none; stroke: #000000; stroke-width: 0.5"/>
    <path d="M 258.817008 182.768326 
L 319.064588 247.657976 
L 345.939337 222.70579 
L 285.691758 157.816141 
L 258.817008 182.768326 
z
" clip-path="url(#pa69c4dc48a)" style="fill: none; stroke: #000000; stroke-width: 0.5"/>
    <path d="M 257.592526 169.822573 
L 310.794142 240.604106 
L 340.109078 218.570082 
L 286.907462 147.788549 
L 257.592526 169.822573 
z
" clip-path="url(#pa69c4dc48a)" style="fill: none; stroke: #000000; stroke-width: 0.5"/>
    <path d="M 257.715914 156.819676 
L 303.298912 232.73165 
L 334.738676 213.852959 
L 289.155678 137.940985 
L 257.715914 156.819676 
z
" clip-path="url(#pa69c4dc48a)" style="fill: none; stroke: #000000; stroke-width: 0.5"/>
    <path d="M 259.184985 143.899806 
L 296.659524 224.125091 
L 329.885692 208.604606 
L 292.411154 128.379321 
L 259.184985 143.899806 
z
" clip-path="url(#pa69c4dc48a)" style="fill: none; stroke: #000000; stroke-width: 0.5"/>
    <path d="M 261.985127 131.201218 
L 290.947198 214.876996 
L 325.602426 202.882041 
L 296.640355 119.206263 
L 261.985127 131.201218 
z
" clip-path="url(#pa69c4dc48a)" style="fill: none; stroke: #000000; stroke-width: 0.5"/>
    <path d="M 266.085104 118.861326 
L 286.22392 205.086992 
L 321.935211 196.746284 
L 301.796395 110.520618 
L 266.085104 118.861326 
z
" clip-path="url(#pa69c4dc48a)" style="fill: none; stroke: #000000; stroke-width: 0.5"/>
    <path d="M 271.441785 107.012238 
L 282.539802 194.86024 
L 318.923001 190.263876 
L 307.824984 102.415874 
L 271.441785 107.012238 
z
" clip-path="url(#pa69c4dc48a)" style="fill: none; stroke: #000000; stroke-width: 0.5"/>
    <path d="M 263.071452 101.461039 
L 283.092982 187.714014 
L 318.815583 179.421881 
L 298.794053 93.168906 
L 263.071452 101.461039 
z
" clip-path="url(#pa69c4dc48a)" style="fill: none; stroke: #000000; stroke-width: 0.5"/>
    <path d="M 254.082625 96.853016 
L 282.931707 180.567816 
L 317.603096 168.619657 
L 288.754014 84.904856 
L 254.082625 96.853016 
z
" clip-path="url(#pa69c4dc48a)" style="fill: none; stroke: #000000; stroke-width: 0.5"/>
    <path d="M 244.665525 93.200483 
L 282.030923 173.47666 
L 315.278168 158.001376 
L 277.91277 77.7252 
L 244.665525 93.200483 
z
" clip-path="url(#pa69c4dc48a)" style="fill: none; stroke: #000000; stroke-width: 0.5"/>
    <path d="M 234.920108 90.543607 
L 280.400584 166.517048 
L 311.865805 147.680818 
L 266.38533 71.707377 
L 234.920108 90.543607 
z
" clip-path="url(#pa69c4dc48a)" style="fill: none; stroke: #000000; stroke-width: 0.5"/>
    <path d="M 224.952074 88.910159 
L 278.057803 159.763662 
L 307.402547 137.769351 
L 254.296818 66.915847 
L 224.952074 88.910159 
z
" clip-path="url(#pa69c4dc48a)" style="fill: none; stroke: #000000; stroke-width: 0.5"/>
    <path d="M 214.868675 88.318139 
L 275.028339 153.289304 
L 301.936849 128.37353 
L 241.777185 63.402364 
L 214.868675 88.318139 
z
" clip-path="url(#pa69c4dc48a)" style="fill: none; stroke: #000000; stroke-width: 0.5"/>
    <path d="M 204.777924 88.773983 
L 271.344287 147.16368 
L 295.527011 119.594502 
L 228.960648 61.204804 
L 204.777924 88.773983 
z
" clip-path="url(#pa69c4dc48a)" style="fill: none; stroke: #000000; stroke-width: 0.5"/>
    <path d="M 205.803102 92.562191 
L 274.164497 148.839692 
L 297.472432 120.527082 
L 229.111037 64.249581 
L 205.803102 92.562191 
z
" clip-path="url(#pa69c4dc48a)" style="fill: none; stroke: #000000; stroke-width: 0.5"/>
    <path d="M 206.946268 96.316425 
L 277.035756 150.426508 
L 299.446031 121.398189 
L 229.356543 67.288106 
L 206.946268 96.316425 
z
" clip-path="url(#pa69c4dc48a)" style="fill: none; stroke: #000000; stroke-width: 0.5"/>
    <path d="M 208.206293 100.033053 
L 279.955184 151.922688 
L 301.445836 122.20711 
L 229.696946 70.317475 
L 208.206293 100.033053 
z
" clip-path="url(#pa69c4dc48a)" style="fill: none; stroke: #000000; stroke-width: 0.5"/>
    <path d="M 209.582145 103.708484 
L 282.92012 153.326815 
L 303.470088 122.953101 
L 230.132113 73.334769 
L 209.582145 103.708484 
z
" clip-path="url(#pa69c4dc48a)" style="fill: none; stroke: #000000; stroke-width: 0.5"/>
    <path d="M 211.072367 107.339029 
L 285.927505 154.637504 
L 305.51668 123.63544 
L 230.661542 76.336965 
L 211.072367 107.339029 
z
" clip-path="url(#pa69c4dc48a)" style="fill: none; stroke: #000000; stroke-width: 0.5"/>
    <path d="M 212.675557 110.920996 
L 288.974545 155.853187 
L 307.583697 124.253137 
L 231.284709 79.320946 
L 212.675557 110.920996 
z
" clip-path="url(#pa69c4dc48a)" style="fill: none; stroke: #000000; stroke-width: 0.5"/>
    <path d="M 214.389938 114.451221 
L 292.058 156.973092 
L 309.668892 124.806025 
L 232.00083 82.284154 
L 214.389938 114.451221 
z
" clip-path="url(#pa69c4dc48a)" style="fill: none; stroke: #000000; stroke-width: 0.5"/>
    <path d="M 216.21402 117.926019 
L 295.175037 157.995897 
L 311.77041 125.293338 
L 232.809392 85.223461 
L 216.21402 117.926019 
z
" clip-path="url(#pa69c4dc48a)" style="fill: none; stroke: #000000; stroke-width: 0.5"/>
    <path d="M 218.146069 121.341997 
L 298.322619 158.920691 
L 313.886241 125.714706 
L 233.709691 88.136013 
L 218.146069 121.341997 
z
" clip-path="url(#pa69c4dc48a)" style="fill: none; stroke: #000000; stroke-width: 0.5"/>
    <path d="M 220.18405 124.695772 
L 301.497596 159.746374 
L 316.014181 126.06949 
L 234.700636 91.018888 
L 220.18405 124.695772 
z
" clip-path="url(#pa69c4dc48a)" style="fill: none; stroke: #000000; stroke-width: 0.5"/>
    <path d="M 222.326094 127.98411 
L 304.696944 160.472269 
L 318.152266 126.357491 
L 235.781416 93.869332 
L 222.326094 127.98411 
z
" clip-path="url(#pa69c4dc48a)" style="fill: none; stroke: #000000; stroke-width: 0.5"/>
    <path d="M 224.569868 131.203839 
L 307.917295 161.097715 
L 320.298167 126.578478 
L 236.95074 96.684602 
L 224.569868 131.203839 
z
" clip-path="url(#pa69c4dc48a)" style="fill: none; stroke: #000000; stroke-width: 0.5"/>
    <path d="M 226.913351 134.351705 
L 311.155644 161.622085 
L 322.449966 126.732229 
L 238.207674 99.461849 
L 226.913351 134.351705 
z
" clip-path="url(#pa69c4dc48a)" style="fill: none; stroke: #000000; stroke-width: 0.5"/>
    <path d="M 229.354249 137.424666 
L 314.408874 162.04474 
L 324.605544 126.818448 
L 239.550918 102.198374 
L 229.354249 137.424666 
z
" clip-path="url(#pa69c4dc48a)" style="fill: none; stroke: #000000; stroke-width: 0.5"/>
    <path d="M 231.890212 140.419835 
L 317.673814 162.365475 
L 326.762837 126.837269 
L 240.979235 104.89163 
L 231.890212 140.419835 
z
" clip-path="url(#pa69c4dc48a)" style="fill: none; stroke: #000000; stroke-width: 0.5"/>
    <path d="M 234.278614 143.280577 
L 320.70712 162.530274 
L 328.67959 126.734975 
L 242.251084 107.485278 
L 234.278614 143.280577 
z
" clip-path="url(#pa69c4dc48a)" style="fill: none; stroke: #000000; stroke-width: 0.5"/>
    <path d="M 231.786181 145.035829 
L 318.77487 161.570805 
L 325.623009 125.5435 
L 238.63432 109.008524 
L 231.786181 145.035829 
z
" clip-path="url(#pa69c4dc48a)" style="fill: none; stroke: #000000; stroke-width: 0.5"/>
    <path d="M 229.349984 146.868262 
L 316.813622 160.672225 
L 322.530682 124.448215 
L 235.067044 110.644251 
L 229.349984 146.868262 
z
" clip-path="url(#pa69c4dc48a)" style="fill: none; stroke: #000000; stroke-width: 0.5"/>
    <path d="M 231.822981 149.457832 
L 319.67585 160.517254 
L 324.256229 124.132039 
L 236.40336 113.072617 
L 231.822981 149.457832 
z
" clip-path="url(#pa69c4dc48a)" style="fill: none; stroke: #000000; stroke-width: 0.5"/>
    <path d="M 234.794791 152.021057 
L 322.950788 160.325126 
L 326.390008 123.814367 
L 238.234011 115.510299 
L 234.794791 152.021057 
z
" clip-path="url(#pa69c4dc48a)" style="fill: none; stroke: #000000; stroke-width: 0.5"/>
    <path d="M 237.845308 154.489836 
L 326.218039 160.030404 
L 328.512725 123.429883 
L 240.139995 117.889315 
L 237.845308 154.489836 
z
" clip-path="url(#pa69c4dc48a)" style="fill: none; stroke: #000000; stroke-width: 0.5"/>
    <path d="M 240.971685 156.861938 
L 329.474541 159.633585 
L 330.622448 122.979171 
L 242.119593 120.207525 
L 240.971685 156.861938 
z
" clip-path="url(#pa69c4dc48a)" style="fill: none; stroke: #000000; stroke-width: 0.5"/>
    <path d="M 244.170822 159.135176 
L 332.717066 159.135176 
L 332.717066 122.462792 
L 244.170822 122.462792 
L 244.170822 159.135176 
z
" clip-path="url(#pa69c4dc48a)" style="fill: none; stroke: #000000; stroke-width: 0.5"/>
   </g>
   <g id="PatchCollection_3">
    <path d="M 145.021311 216.334274 
L 140.77245 217.750561 
L 140.77245 216.80637 
L 121.888628 216.80637 
L 121.888628 215.862179 
L 140.77245 215.862179 
L 140.77245 214.917988 
z
" clip-path="url(#pa69c4dc48a)" style="fill: #ff0000; stroke: #ff0000; stroke-width: 0.24"/>
    <path d="M 148.997376 216.418591 
L 144.744114 217.821604 
L 144.747062 216.877417 
L 125.863331 216.818453 
L 125.86628 215.874267 
L 144.75001 215.93323 
L 144.752958 214.989044 
z
" clip-path="url(#pa69c4dc48a)" style="fill: #ff0000; stroke: #ff0000; stroke-width: 0.24"/>
    <path d="M 152.973553 216.430865 
L 148.720292 217.833878 
L 148.72324 216.889692 
L 129.839509 216.830728 
L 129.842457 215.886541 
L 148.726188 215.945505 
L 148.729136 215.001318 
z
" clip-path="url(#pa69c4dc48a)" style="fill: #ff0000; stroke: #ff0000; stroke-width: 0.24"/>
    <path d="M 156.949731 216.443328 
L 152.696469 217.846341 
L 152.699417 216.902155 
L 133.815687 216.843191 
L 133.818635 215.899005 
L 152.702366 215.957968 
L 152.705314 215.013782 
z
" clip-path="url(#pa69c4dc48a)" style="fill: #ff0000; stroke: #ff0000; stroke-width: 0.24"/>
    <path d="M 160.925909 216.455792 
L 156.672647 217.858805 
L 156.675595 216.914618 
L 137.791865 216.855654 
L 137.794813 215.911468 
L 156.678543 215.970432 
L 156.681492 215.026245 
z
" clip-path="url(#pa69c4dc48a)" style="fill: #ff0000; stroke: #ff0000; stroke-width: 0.24"/>
    <path d="M 164.901898 216.468255 
L 160.648636 217.871268 
L 160.651584 216.927081 
L 141.767853 216.868118 
L 141.770802 215.923931 
L 160.654532 215.982895 
L 160.65748 215.038708 
z
" clip-path="url(#pa69c4dc48a)" style="fill: #ff0000; stroke: #ff0000; stroke-width: 0.24"/>
    <path d="M 168.878075 216.48053 
L 164.624814 217.883542 
L 164.627762 216.939356 
L 145.744031 216.880392 
L 145.746979 215.936206 
L 164.63071 215.995169 
L 164.633658 215.050983 
z
" clip-path="url(#pa69c4dc48a)" style="fill: #ff0000; stroke: #ff0000; stroke-width: 0.24"/>
    <path d="M 172.854253 216.492993 
L 168.600991 217.896006 
L 168.603939 216.951819 
L 149.720209 216.892856 
L 149.723157 215.948669 
L 168.606888 216.007633 
L 168.609836 215.063446 
z
" clip-path="url(#pa69c4dc48a)" style="fill: #ff0000; stroke: #ff0000; stroke-width: 0.24"/>
    <path d="M 176.830431 216.505456 
L 172.577169 217.908469 
L 172.580117 216.964283 
L 153.696387 216.905319 
L 153.699335 215.961132 
L 172.583065 216.020096 
L 172.586014 215.07591 
z
" clip-path="url(#pa69c4dc48a)" style="fill: #ff0000; stroke: #ff0000; stroke-width: 0.24"/>
    <path d="M 180.806608 216.517919 
L 176.553347 217.920932 
L 176.556295 216.976746 
L 157.672564 216.917782 
L 157.675512 215.973596 
L 176.559243 216.032559 
L 176.562191 215.088373 
z
" clip-path="url(#pa69c4dc48a)" style="fill: #ff0000; stroke: #ff0000; stroke-width: 0.24"/>
    <path d="M 184.782786 216.530194 
L 180.529524 217.933207 
L 180.532473 216.98902 
L 161.648742 216.930057 
L 161.65169 215.98587 
L 180.535421 216.044834 
L 180.538369 215.100647 
z
" clip-path="url(#pa69c4dc48a)" style="fill: #ff0000; stroke: #ff0000; stroke-width: 0.24"/>
    <path d="M 188.758964 216.542657 
L 184.505702 217.94567 
L 184.50865 217.001484 
L 165.62492 216.94252 
L 165.627868 215.998334 
L 184.511598 216.057297 
L 184.514547 215.113111 
z
" clip-path="url(#pa69c4dc48a)" style="fill: #ff0000; stroke: #ff0000; stroke-width: 0.24"/>
    <path d="M 192.735141 216.555121 
L 188.48188 217.958134 
L 188.484828 217.013947 
L 169.601097 216.954983 
L 169.604046 216.010797 
L 188.487776 216.069761 
L 188.490724 215.125574 
z
" clip-path="url(#pa69c4dc48a)" style="fill: #ff0000; stroke: #ff0000; stroke-width: 0.24"/>
    <path d="M 196.711319 216.567584 
L 192.458057 217.970597 
L 192.461006 217.02641 
L 173.577275 216.967447 
L 173.580223 216.02326 
L 192.463954 216.082224 
L 192.466902 215.138037 
z
" clip-path="url(#pa69c4dc48a)" style="fill: #ff0000; stroke: #ff0000; stroke-width: 0.24"/>
    <path d="M 200.687497 216.579858 
L 196.434235 217.982871 
L 196.437183 217.038685 
L 177.553453 216.979721 
L 177.556401 216.035535 
L 196.440132 216.094498 
L 196.44308 215.150312 
z
" clip-path="url(#pa69c4dc48a)" style="fill: #ff0000; stroke: #ff0000; stroke-width: 0.24"/>
    <path d="M 204.663486 216.592322 
L 200.410224 217.995335 
L 200.413172 217.051148 
L 181.529442 216.992184 
L 181.53239 216.047998 
L 200.41612 216.106962 
L 200.419069 215.162775 
z
" clip-path="url(#pa69c4dc48a)" style="fill: #ff0000; stroke: #ff0000; stroke-width: 0.24"/>
    <path d="M 208.639663 216.604785 
L 204.386402 218.007798 
L 204.38935 217.063612 
L 185.505619 217.004648 
L 185.508567 216.060461 
L 204.392298 216.119425 
L 204.395246 215.175238 
z
" clip-path="url(#pa69c4dc48a)" style="fill: #ff0000; stroke: #ff0000; stroke-width: 0.24"/>
    <path d="M 212.615841 216.61706 
L 208.362579 218.020073 
L 208.365528 217.075886 
L 189.481797 217.016922 
L 189.484745 216.072736 
L 208.368476 216.131699 
L 208.371424 215.187513 
z
" clip-path="url(#pa69c4dc48a)" style="fill: #ff0000; stroke: #ff0000; stroke-width: 0.24"/>
    <path d="M 216.592019 216.629523 
L 212.338757 218.032536 
L 212.341705 217.088349 
L 193.457975 217.029386 
L 193.460923 216.085199 
L 212.344654 216.144163 
L 212.347602 215.199976 
z
" clip-path="url(#pa69c4dc48a)" style="fill: #ff0000; stroke: #ff0000; stroke-width: 0.24"/>
    <path d="M 220.568197 216.641986 
L 216.314935 218.044999 
L 216.317883 217.100813 
L 197.434152 217.041849 
L 197.437101 216.097662 
L 216.320831 216.156626 
L 216.323779 215.21244 
z
" clip-path="url(#pa69c4dc48a)" style="fill: #ff0000; stroke: #ff0000; stroke-width: 0.24"/>
    <path d="M 224.544374 216.65445 
L 220.291113 218.057462 
L 220.294061 217.113276 
L 201.41033 217.054312 
L 201.413278 216.110126 
L 220.297009 216.169089 
L 220.299957 215.224903 
z
" clip-path="url(#pa69c4dc48a)" style="fill: #ff0000; stroke: #ff0000; stroke-width: 0.24"/>
    <path d="M 228.520552 216.666724 
L 224.26729 218.069737 
L 224.270238 217.12555 
L 205.386508 217.066587 
L 205.389456 216.1224 
L 224.273187 216.181364 
L 224.276135 215.237177 
z
" clip-path="url(#pa69c4dc48a)" style="fill: #ff0000; stroke: #ff0000; stroke-width: 0.24"/>
    <path d="M 232.49673 216.679187 
L 228.243468 218.0822 
L 228.246416 217.138014 
L 209.362686 217.07905 
L 209.365634 216.134864 
L 228.249364 216.193827 
L 228.252313 215.249641 
z
" clip-path="url(#pa69c4dc48a)" style="fill: #ff0000; stroke: #ff0000; stroke-width: 0.24"/>
    <path d="M 236.472907 216.691651 
L 232.219646 218.094664 
L 232.222594 217.150477 
L 213.338863 217.091513 
L 213.341811 216.147327 
L 232.225542 216.206291 
L 232.22849 215.262104 
z
" clip-path="url(#pa69c4dc48a)" style="fill: #ff0000; stroke: #ff0000; stroke-width: 0.24"/>
    <path d="M 240.448972 216.704114 
L 236.19571 218.107127 
L 236.198658 217.16294 
L 217.314928 217.103977 
L 217.317876 216.15979 
L 236.201606 216.218754 
L 236.204555 215.274567 
z
" clip-path="url(#pa69c4dc48a)" style="fill: #ff0000; stroke: #ff0000; stroke-width: 0.24"/>
    <path d="M 244.425131 216.716388 
L 240.171869 218.119401 
L 240.174817 217.175215 
L 221.291086 217.116251 
L 221.294035 216.172065 
L 240.177765 216.231028 
L 240.180713 215.286842 
z
" clip-path="url(#pa69c4dc48a)" style="fill: #ff0000; stroke: #ff0000; stroke-width: 0.24"/>
    <path d="M 248.401289 216.728852 
L 244.148028 218.131865 
L 244.150976 217.187678 
L 225.267245 217.128715 
L 225.270193 216.184528 
L 244.153924 216.243492 
L 244.156872 215.299305 
z
" clip-path="url(#pa69c4dc48a)" style="fill: #ff0000; stroke: #ff0000; stroke-width: 0.24"/>
    <path d="M 252.377448 216.741315 
L 248.124187 218.144328 
L 248.127135 217.200142 
L 229.243404 217.141178 
L 229.246352 216.196991 
L 248.130083 216.255955 
L 248.133031 215.311768 
z
" clip-path="url(#pa69c4dc48a)" style="fill: #ff0000; stroke: #ff0000; stroke-width: 0.24"/>
    <path d="M 256.353607 216.753778 
L 252.100345 218.156791 
L 252.103294 217.212605 
L 233.219563 217.153641 
L 233.222511 216.209455 
L 252.106242 216.268418 
L 252.10919 215.324232 
z
" clip-path="url(#pa69c4dc48a)" style="fill: #ff0000; stroke: #ff0000; stroke-width: 0.24"/>
    <path d="M 260.329766 216.766053 
L 256.076504 218.169066 
L 256.079452 217.224879 
L 237.195722 217.165916 
L 237.19867 216.221729 
L 256.082401 216.280693 
L 256.085349 215.336506 
z
" clip-path="url(#pa69c4dc48a)" style="fill: #ff0000; stroke: #ff0000; stroke-width: 0.24"/>
    <path d="M 264.305925 216.778516 
L 260.052663 218.181529 
L 260.055611 217.237343 
L 241.171881 217.178379 
L 241.174829 216.234192 
L 260.058559 216.293156 
L 260.061508 215.34897 
z
" clip-path="url(#pa69c4dc48a)" style="fill: #ff0000; stroke: #ff0000; stroke-width: 0.24"/>
    <path d="M 268.282083 216.79098 
L 264.028822 218.193993 
L 264.03177 217.249806 
L 245.148039 217.190842 
L 245.150988 216.246656 
L 264.034718 216.305619 
L 264.037666 215.361433 
z
" clip-path="url(#pa69c4dc48a)" style="fill: #ff0000; stroke: #ff0000; stroke-width: 0.24"/>
    <path d="M 272.258242 216.803443 
L 268.004981 218.206456 
L 268.007929 217.262269 
L 249.124198 217.203306 
L 249.127146 216.259119 
L 268.010877 216.318083 
L 268.013825 215.373896 
z
" clip-path="url(#pa69c4dc48a)" style="fill: #ff0000; stroke: #ff0000; stroke-width: 0.24"/>
    <path d="M 276.228007 217.302485 
L 271.947161 218.618936 
L 271.969261 217.675003 
L 253.090611 217.233015 
L 253.112711 216.289083 
L 271.99136 216.731071 
L 272.01346 215.787138 
z
" clip-path="url(#pa69c4dc48a)" style="fill: #ff0000; stroke: #ff0000; stroke-width: 0.24"/>
    <path d="M 284.970756 214.652968 
L 280.849311 216.405786 
L 280.773511 215.464642 
L 261.95064 216.980655 
L 261.874839 216.039511 
L 280.69771 214.523499 
L 280.621909 213.582355 
z
" clip-path="url(#pa69c4dc48a)" style="fill: #ff0000; stroke: #ff0000; stroke-width: 0.24"/>
    <path d="M 293.655749 212.884679 
L 289.590862 214.764937 
L 289.485803 213.826609 
L 270.719243 215.927796 
L 270.614184 214.989468 
L 289.380744 212.888281 
L 289.275684 211.949953 
z
" clip-path="url(#pa69c4dc48a)" style="fill: #ff0000; stroke: #ff0000; stroke-width: 0.24"/>
    <path d="M 302.597623 214.754785 
L 298.35983 216.20385 
L 298.352536 215.259687 
L 279.469277 215.405554 
L 279.461984 214.461391 
L 298.345243 214.315524 
L 298.33795 213.371361 
z
" clip-path="url(#pa69c4dc48a)" style="fill: #ff0000; stroke: #ff0000; stroke-width: 0.24"/>
    <path d="M 311.29778 217.540975 
L 306.932678 218.543254 
L 307.023229 217.603415 
L 288.226448 215.792399 
L 288.316999 214.85256 
L 307.11378 216.663576 
L 307.204331 215.723737 
z
" clip-path="url(#pa69c4dc48a)" style="fill: #ff0000; stroke: #ff0000; stroke-width: 0.24"/>
    <path d="M 319.662375 221.213685 
L 315.216931 221.758395 
L 315.404352 220.832993 
L 296.896296 217.084576 
L 297.083717 216.159174 
L 315.591773 219.90759 
L 315.779194 218.982187 
z
" clip-path="url(#pa69c4dc48a)" style="fill: #ff0000; stroke: #ff0000; stroke-width: 0.24"/>
    <path d="M 327.601552 225.73283 
L 323.123598 225.814112 
L 323.405872 224.913103 
L 305.385679 219.267624 
L 305.667953 218.366615 
L 323.688146 224.012093 
L 323.97042 223.111083 
z
" clip-path="url(#pa69c4dc48a)" style="fill: #ff0000; stroke: #ff0000; stroke-width: 0.24"/>
    <path d="M 335.029776 231.050376 
L 330.567492 230.667355 
L 330.941582 229.800433 
L 313.603143 222.318635 
L 313.977233 221.451713 
L 331.315672 228.933511 
L 331.689762 228.066589 
z
" clip-path="url(#pa69c4dc48a)" style="fill: #ff0000; stroke: #ff0000; stroke-width: 0.24"/>
    <path d="M 341.867268 237.108525 
L 337.468668 236.265317 
L 337.930549 235.441811 
L 321.460428 226.204179 
L 321.922309 225.380673 
L 338.392431 234.618305 
L 338.854313 233.794799 
z
" clip-path="url(#pa69c4dc48a)" style="fill: #ff0000; stroke: #ff0000; stroke-width: 0.24"/>
    <path d="M 348.040515 243.842549 
L 343.752926 242.548232 
L 344.297629 241.777002 
L 328.873028 230.882945 
L 329.417731 230.111715 
L 344.842332 241.005772 
L 345.387034 240.234542 
z
" clip-path="url(#pa69c4dc48a)" style="fill: #ff0000; stroke: #ff0000; stroke-width: 0.24"/>
    <path d="M 344.301153 243.696369 
L 340.170706 241.964869 
L 340.79237 241.254213 
L 326.579253 228.820948 
L 327.200917 228.110292 
L 341.414033 240.543557 
L 342.035696 239.832901 
z
" clip-path="url(#pa69c4dc48a)" style="fill: #ff0000; stroke: #ff0000; stroke-width: 0.24"/>
    <path d="M 336.305179 239.278137 
L 332.376318 237.128083 
L 333.068253 236.485648 
L 320.219548 222.646951 
L 320.911482 222.004516 
L 333.760188 235.843213 
L 334.452123 235.200778 
z
" clip-path="url(#pa69c4dc48a)" style="fill: #ff0000; stroke: #ff0000; stroke-width: 0.24"/>
    <path d="M 328.81004 234.055282 
L 325.125037 231.509809 
L 325.879799 230.942507 
L 314.533751 215.847277 
L 315.288513 215.279974 
L 326.63456 230.375204 
L 327.389322 229.807902 
z
" clip-path="url(#pa69c4dc48a)" style="fill: #ff0000; stroke: #ff0000; stroke-width: 0.24"/>
    <path d="M 321.896288 228.084359 
L 318.494801 225.170844 
L 319.30427 224.684781 
L 309.583007 208.495408 
L 310.392476 208.009344 
L 320.113738 224.198718 
L 320.923207 223.712655 
z
" clip-path="url(#pa69c4dc48a)" style="fill: #ff0000; stroke: #ff0000; stroke-width: 0.24"/>
    <path d="M 315.638243 221.429187 
L 312.556847 218.179006 
L 313.41231 217.779405 
L 305.420299 200.670153 
L 306.275761 200.270552 
L 314.267772 217.379805 
L 315.123235 216.980204 
z
" clip-path="url(#pa69c4dc48a)" style="fill: #ff0000; stroke: #ff0000; stroke-width: 0.24"/>
    <path d="M 310.103085 214.161675 
L 307.374966 210.609767 
L 308.267222 210.300937 
L 302.090624 192.455815 
L 302.98288 192.146985 
L 309.159479 209.992107 
L 310.051735 209.683277 
z
" clip-path="url(#pa69c4dc48a)" style="fill: #ff0000; stroke: #ff0000; stroke-width: 0.24"/>
    <path d="M 305.350858 206.35976 
L 303.005334 202.54437 
L 303.924781 202.329624 
L 299.629874 183.9407 
L 300.54932 183.725955 
L 304.844227 202.114879 
L 305.763673 201.900134 
z
" clip-path="url(#pa69c4dc48a)" style="fill: #ff0000; stroke: #ff0000; stroke-width: 0.24"/>
    <path d="M 301.43198 198.107592 
L 299.494327 194.069748 
L 300.431073 193.951407 
L 298.064253 175.216495 
L 299.000999 175.098154 
L 301.367819 193.833066 
L 302.304564 193.714725 
z
" clip-path="url(#pa69c4dc48a)" style="fill: #ff0000; stroke: #ff0000; stroke-width: 0.24"/>
    <path d="M 302.218171 189.012793 
L 299.877839 185.194217 
L 300.797576 184.980722 
L 296.527683 166.585974 
L 297.44742 166.372479 
L 301.717314 184.767227 
L 302.637051 184.553733 
z
" clip-path="url(#pa69c4dc48a)" style="fill: #ff0000; stroke: #ff0000; stroke-width: 0.24"/>
    <path d="M 302.088543 179.878356 
L 299.365221 176.322769 
L 300.257893 176.015144 
L 294.105391 158.161699 
L 294.998064 157.854074 
L 301.150566 175.707519 
L 302.043238 175.399894 
z
" clip-path="url(#pa69c4dc48a)" style="fill: #ff0000; stroke: #ff0000; stroke-width: 0.24"/>
    <path d="M 301.013291 170.806569 
L 297.936318 167.552201 
L 298.792323 167.153764 
L 290.823588 150.033658 
L 291.679593 149.635221 
L 299.648328 166.755327 
L 300.504333 166.35689 
z
" clip-path="url(#pa69c4dc48a)" style="fill: #ff0000; stroke: #ff0000; stroke-width: 0.24"/>
    <path d="M 299.004216 161.894868 
L 295.606665 158.976764 
L 296.416789 158.491794 
L 286.717392 142.289312 
L 287.527516 141.804342 
L 297.226914 158.006824 
L 298.037038 157.521855 
z
" clip-path="url(#pa69c4dc48a)" style="fill: #ff0000; stroke: #ff0000; stroke-width: 0.24"/>
    <path d="M 296.082552 153.239238 
L 292.400999 150.688777 
L 293.156528 150.122498 
L 281.83093 135.011919 
L 282.586459 134.445639 
L 293.912057 149.556218 
L 294.667586 148.989938 
z
" clip-path="url(#pa69c4dc48a)" style="fill: #ff0000; stroke: #ff0000; stroke-width: 0.24"/>
    <path d="M 292.280261 144.932817 
L 288.354314 142.777445 
L 289.047118 142.135948 
L 276.217162 128.279866 
L 276.909967 127.638368 
L 289.739922 141.49445 
L 290.432727 140.852952 
z
" clip-path="url(#pa69c4dc48a)" style="fill: #ff0000; stroke: #ff0000; stroke-width: 0.24"/>
    <path d="M 287.637748 137.065026 
L 283.509648 135.327939 
L 284.132273 134.618125 
L 269.935991 122.165641 
L 270.558616 121.455826 
L 284.754897 133.90831 
L 285.377521 133.198496 
z
" clip-path="url(#pa69c4dc48a)" style="fill: #ff0000; stroke: #ff0000; stroke-width: 0.24"/>
    <path d="M 290.133878 138.235987 
L 285.953429 136.628963 
L 286.55353 135.900008 
L 271.974431 123.897982 
L 272.574532 123.169027 
L 287.153631 135.171053 
L 287.753733 134.442098 
z
" clip-path="url(#pa69c4dc48a)" style="fill: #ff0000; stroke: #ff0000; stroke-width: 0.24"/>
    <path d="M 292.665395 139.328127 
L 288.436691 137.852747 
L 289.013681 137.105365 
L 274.06604 125.565573 
L 274.64303 124.818191 
L 289.590671 136.357983 
L 290.16766 135.610601 
z
" clip-path="url(#pa69c4dc48a)" style="fill: #ff0000; stroke: #ff0000; stroke-width: 0.24"/>
    <path d="M 295.229764 140.340508 
L 290.95695 138.998217 
L 291.510263 138.233141 
L 276.208729 127.166893 
L 276.762042 126.401816 
L 292.063575 137.468064 
L 292.616887 136.702987 
z
" clip-path="url(#pa69c4dc48a)" style="fill: #ff0000; stroke: #ff0000; stroke-width: 0.24"/>
    <path d="M 297.824672 141.272188 
L 293.511935 140.064302 
L 294.041028 139.282281 
L 278.400599 128.700423 
L 278.929692 127.918401 
L 294.570121 138.500259 
L 295.099214 137.718238 
z
" clip-path="url(#pa69c4dc48a)" style="fill: #ff0000; stroke: #ff0000; stroke-width: 0.24"/>
    <path d="M 300.447433 142.122258 
L 296.099002 141.049956 
L 296.603358 140.251757 
L 280.63937 130.164643 
L 281.143726 129.366444 
L 297.107713 139.453558 
L 297.612069 138.655358 
z
" clip-path="url(#pa69c4dc48a)" style="fill: #ff0000; stroke: #ff0000; stroke-width: 0.24"/>
    <path d="M 303.095607 142.889573 
L 298.715742 141.953911 
L 299.194865 141.140315 
L 282.922955 131.557848 
L 283.402078 130.744252 
L 299.673989 140.32672 
L 300.153112 139.513124 
z
" clip-path="url(#pa69c4dc48a)" style="fill: #ff0000; stroke: #ff0000; stroke-width: 0.24"/>
    <path d="M 305.766356 143.573814 
L 301.35935 142.775708 
L 301.812771 141.947514 
L 285.248885 132.879083 
L 285.702307 132.050889 
L 302.266193 141.11932 
L 302.719614 140.291125 
z
" clip-path="url(#pa69c4dc48a)" style="fill: #ff0000; stroke: #ff0000; stroke-width: 0.24"/>
    <path d="M 308.457254 144.174087 
L 304.027424 143.51432 
L 304.4547 142.672339 
L 287.615071 134.126833 
L 288.042347 133.284852 
L 304.881975 141.830357 
L 305.30925 140.988376 
z
" clip-path="url(#pa69c4dc48a)" style="fill: #ff0000; stroke: #ff0000; stroke-width: 0.24"/>
    <path d="M 311.165692 144.689909 
L 306.717382 144.169123 
L 307.118093 143.31418 
L 290.019234 135.299956 
L 290.419945 134.445013 
L 307.518804 142.459237 
L 307.919516 141.604294 
z
" clip-path="url(#pa69c4dc48a)" style="fill: #ff0000; stroke: #ff0000; stroke-width: 0.24"/>
    <path d="M 313.888925 145.120552 
L 309.426494 144.739262 
L 309.800247 143.872195 
L 292.458906 136.397126 
L 292.83266 135.530059 
L 310.174001 143.005128 
L 310.547754 142.138061 
z
" clip-path="url(#pa69c4dc48a)" style="fill: #ff0000; stroke: #ff0000; stroke-width: 0.24"/>
    <path d="M 316.624386 145.465743 
L 312.152206 145.224322 
L 312.498635 144.345981 
L 294.931809 137.417391 
L 295.278238 136.539049 
L 312.845065 143.467639 
L 313.191494 142.589298 
z
" clip-path="url(#pa69c4dc48a)" style="fill: #ff0000; stroke: #ff0000; stroke-width: 0.24"/>
    <path d="M 319.36916 145.725191 
L 314.891614 145.623876 
L 315.21038 144.735122 
L 297.435284 138.359801 
L 297.75405 137.471047 
L 315.529146 143.846367 
L 315.847912 142.957612 
z
" clip-path="url(#pa69c4dc48a)" style="fill: #ff0000; stroke: #ff0000; stroke-width: 0.24"/>
    <path d="M 322.120723 145.89864 
L 317.6422 145.937526 
L 317.932991 145.039229 
L 299.967051 139.223409 
L 300.257842 138.325112 
L 318.223782 144.140932 
L 318.514573 143.242635 
z
" clip-path="url(#pa69c4dc48a)" style="fill: #ff0000; stroke: #ff0000; stroke-width: 0.24"/>
    <path d="M 324.876407 145.985772 
L 320.401296 146.164825 
L 320.663826 145.257866 
L 302.524644 140.007264 
L 302.787174 139.100305 
L 320.926356 144.350907 
L 321.188886 143.443948 
z
" clip-path="url(#pa69c4dc48a)" style="fill: #ff0000; stroke: #ff0000; stroke-width: 0.24"/>
    <path d="M 327.633541 145.986723 
L 323.166227 146.305767 
L 323.400239 145.391035 
L 305.105592 140.710796 
L 305.339604 139.796064 
L 323.634251 144.476303 
L 323.868263 143.56157 
z
" clip-path="url(#pa69c4dc48a)" style="fill: #ff0000; stroke: #ff0000; stroke-width: 0.24"/>
    <path d="M 330.149281 145.84779 
L 325.694143 146.306514 
L 325.899408 145.384905 
L 307.467225 141.279616 
L 307.672489 140.358007 
L 326.104672 144.463295 
L 326.309937 143.541686 
z
" clip-path="url(#pa69c4dc48a)" style="fill: #ff0000; stroke: #ff0000; stroke-width: 0.24"/>
    <path d="M 327.690228 144.600947 
L 323.251632 145.198896 
L 323.427948 144.271314 
L 304.876298 140.744981 
L 305.052614 139.817398 
L 323.604265 143.343731 
L 323.780582 142.416149 
z
" clip-path="url(#pa69c4dc48a)" style="fill: #ff0000; stroke: #ff0000; stroke-width: 0.24"/>
    <path d="M 325.193423 143.431616 
L 320.775718 144.168208 
L 320.922913 143.235561 
L 302.269973 140.291657 
L 302.417168 139.35901 
L 321.070109 142.302914 
L 321.217304 141.370267 
z
" clip-path="url(#pa69c4dc48a)" style="fill: #ff0000; stroke: #ff0000; stroke-width: 0.24"/>
    <path d="M 327.511881 143.022789 
L 323.119398 143.897303 
L 323.237327 142.960505 
L 304.501378 140.601917 
L 304.619307 139.665119 
L 323.355257 142.023708 
L 323.473186 141.08691 
z
" clip-path="url(#pa69c4dc48a)" style="fill: #ff0000; stroke: #ff0000; stroke-width: 0.24"/>
    <path d="M 330.235375 142.593953 
L 325.872418 143.60553 
L 325.960966 142.6655 
L 307.16037 140.894532 
L 307.248918 139.954503 
L 326.049515 141.725471 
L 326.138063 140.785441 
z
" clip-path="url(#pa69c4dc48a)" style="fill: #ff0000; stroke: #ff0000; stroke-width: 0.24"/>
    <path d="M 332.94404 142.0799 
L 328.614886 143.22755 
L 328.673966 142.285209 
L 309.827148 141.103599 
L 309.886228 140.161258 
L 328.733047 141.342868 
L 328.792127 140.400527 
z
" clip-path="url(#pa69c4dc48a)" style="fill: #ff0000; stroke: #ff0000; stroke-width: 0.24"/>
    <path d="M 335.635367 141.481342 
L 331.344257 142.763939 
L 331.373811 141.82021 
L 312.499242 141.229115 
L 312.528797 140.285386 
L 331.403366 140.876482 
L 331.432921 139.932753 
z
" clip-path="url(#pa69c4dc48a)" style="fill: #ff0000; stroke: #ff0000; stroke-width: 0.24"/>
    <path d="M 338.306678 140.798984 
L 334.057818 142.21527 
L 334.057818 141.271079 
L 315.173995 141.271079 
L 315.173995 140.326888 
L 334.057818 140.326888 
L 334.057818 139.382697 
z
" clip-path="url(#pa69c4dc48a)" style="fill: #ff0000; stroke: #ff0000; stroke-width: 0.24"/>
   </g>
   <g id="matplotlib.axis_1">
    <g id="xtick_1">
     <g id="line2d_1">
      <defs>
       <path id="mfde6d94731" d="M 0 0 
L 0 -3 
" style="stroke: #000000"/>
      </defs>
      <g>
       <use xlink:href="#mfde6d94731" x="46.353337" y="275.034235" style="stroke: #000000"/>
      </g>
     </g>
     <g id="text_1">
      <!-- −10.0 -->
      <g transform="translate(30.264548 288.612594) scale(0.105 -0.105)">
       <defs>
        <path id="DejaVuSans-2212" d="M 678 2272 
L 4684 2272 
L 4684 1741 
L 678 1741 
L 678 2272 
z
" transform="scale(0.015625)"/>
        <path id="DejaVuSans-31" d="M 794 531 
L 1825 531 
L 1825 4091 
L 703 3866 
L 703 4441 
L 1819 4666 
L 2450 4666 
L 2450 531 
L 3481 531 
L 3481 0 
L 794 0 
L 794 531 
z
" transform="scale(0.015625)"/>
        <path id="DejaVuSans-30" d="M 2034 4250 
Q 1547 4250 1301 3770 
Q 1056 3291 1056 2328 
Q 1056 1369 1301 889 
Q 1547 409 2034 409 
Q 2525 409 2770 889 
Q 3016 1369 3016 2328 
Q 3016 3291 2770 3770 
Q 2525 4250 2034 4250 
z
M 2034 4750 
Q 2819 4750 3233 4129 
Q 3647 3509 3647 2328 
Q 3647 1150 3233 529 
Q 2819 -91 2034 -91 
Q 1250 -91 836 529 
Q 422 1150 422 2328 
Q 422 3509 836 4129 
Q 1250 4750 2034 4750 
z
" transform="scale(0.015625)"/>
        <path id="DejaVuSans-2e" d="M 684 794 
L 1344 794 
L 1344 0 
L 684 0 
L 684 794 
z
" transform="scale(0.015625)"/>
       </defs>
       <use xlink:href="#DejaVuSans-2212"/>
       <use xlink:href="#DejaVuSans-31" x="83.789062"/>
       <use xlink:href="#DejaVuSans-30" x="147.412109"/>
       <use xlink:href="#DejaVuSans-2e" x="211.035156"/>
       <use xlink:href="#DejaVuSans-30" x="242.822266"/>
      </g>
     </g>
    </g>
    <g id="xtick_2">
     <g id="line2d_2">
      <g>
       <use xlink:href="#mfde6d94731" x="93.562894" y="275.034235" style="stroke: #000000"/>
      </g>
     </g>
     <g id="text_2">
      <!-- −7.5 -->
      <g transform="translate(80.814417 288.612594) scale(0.105 -0.105)">
       <defs>
        <path id="DejaVuSans-37" d="M 525 4666 
L 3525 4666 
L 3525 4397 
L 1831 0 
L 1172 0 
L 2766 4134 
L 525 4134 
L 525 4666 
z
" transform="scale(0.015625)"/>
        <path id="DejaVuSans-35" d="M 691 4666 
L 3169 4666 
L 3169 4134 
L 1269 4134 
L 1269 2991 
Q 1406 3038 1543 3061 
Q 1681 3084 1819 3084 
Q 2600 3084 3056 2656 
Q 3513 2228 3513 1497 
Q 3513 744 3044 326 
Q 2575 -91 1722 -91 
Q 1428 -91 1123 -41 
Q 819 9 494 109 
L 494 744 
Q 775 591 1075 516 
Q 1375 441 1709 441 
Q 2250 441 2565 725 
Q 2881 1009 2881 1497 
Q 2881 1984 2565 2268 
Q 2250 2553 1709 2553 
Q 1456 2553 1204 2497 
Q 953 2441 691 2322 
L 691 4666 
z
" transform="scale(0.015625)"/>
       </defs>
       <use xlink:href="#DejaVuSans-2212"/>
       <use xlink:href="#DejaVuSans-37" x="83.789062"/>
       <use xlink:href="#DejaVuSans-2e" x="147.412109"/>
       <use xlink:href="#DejaVuSans-35" x="179.199219"/>
      </g>
     </g>
    </g>
    <g id="xtick_3">
     <g id="line2d_3">
      <g>
       <use xlink:href="#mfde6d94731" x="140.77245" y="275.034235" style="stroke: #000000"/>
      </g>
     </g>
     <g id="text_3">
      <!-- −5.0 -->
      <g transform="translate(128.023974 288.612594) scale(0.105 -0.105)">
       <use xlink:href="#DejaVuSans-2212"/>
       <use xlink:href="#DejaVuSans-35" x="83.789062"/>
       <use xlink:href="#DejaVuSans-2e" x="147.412109"/>
       <use xlink:href="#DejaVuSans-30" x="179.199219"/>
      </g>
     </g>
    </g>
    <g id="xtick_4">
     <g id="line2d_4">
      <g>
       <use xlink:href="#mfde6d94731" x="187.982007" y="275.034235" style="stroke: #000000"/>
      </g>
     </g>
     <g id="text_4">
      <!-- −2.5 -->
      <g transform="translate(175.233531 288.612594) scale(0.105 -0.105)">
       <defs>
        <path id="DejaVuSans-32" d="M 1228 531 
L 3431 531 
L 3431 0 
L 469 0 
L 469 531 
Q 828 903 1448 1529 
Q 2069 2156 2228 2338 
Q 2531 2678 2651 2914 
Q 2772 3150 2772 3378 
Q 2772 3750 2511 3984 
Q 2250 4219 1831 4219 
Q 1534 4219 1204 4116 
Q 875 4013 500 3803 
L 500 4441 
Q 881 4594 1212 4672 
Q 1544 4750 1819 4750 
Q 2544 4750 2975 4387 
Q 3406 4025 3406 3419 
Q 3406 3131 3298 2873 
Q 3191 2616 2906 2266 
Q 2828 2175 2409 1742 
Q 1991 1309 1228 531 
z
" transform="scale(0.015625)"/>
       </defs>
       <use xlink:href="#DejaVuSans-2212"/>
       <use xlink:href="#DejaVuSans-32" x="83.789062"/>
       <use xlink:href="#DejaVuSans-2e" x="147.412109"/>
       <use xlink:href="#DejaVuSans-35" x="179.199219"/>
      </g>
     </g>
    </g>
    <g id="xtick_5">
     <g id="line2d_5">
      <g>
       <use xlink:href="#mfde6d94731" x="235.191564" y="275.034235" style="stroke: #000000"/>
      </g>
     </g>
     <g id="text_5">
      <!-- 0.0 -->
      <g transform="translate(226.842423 288.612594) scale(0.105 -0.105)">
       <use xlink:href="#DejaVuSans-30"/>
       <use xlink:href="#DejaVuSans-2e" x="63.623047"/>
       <use xlink:href="#DejaVuSans-30" x="95.410156"/>
      </g>
     </g>
    </g>
    <g id="xtick_6">
     <g id="line2d_6">
      <g>
       <use xlink:href="#mfde6d94731" x="282.401121" y="275.034235" style="stroke: #000000"/>
      </g>
     </g>
     <g id="text_6">
      <!-- 2.5 -->
      <g transform="translate(274.05198 288.612594) scale(0.105 -0.105)">
       <use xlink:href="#DejaVuSans-32"/>
       <use xlink:href="#DejaVuSans-2e" x="63.623047"/>
       <use xlink:href="#DejaVuSans-35" x="95.410156"/>
      </g>
     </g>
    </g>
    <g id="xtick_7">
     <g id="line2d_7">
      <g>
       <use xlink:href="#mfde6d94731" x="329.610677" y="275.034235" style="stroke: #000000"/>
      </g>
     </g>
     <g id="text_7">
      <!-- 5.0 -->
      <g transform="translate(321.261537 288.612594) scale(0.105 -0.105)">
       <use xlink:href="#DejaVuSans-35"/>
       <use xlink:href="#DejaVuSans-2e" x="63.623047"/>
       <use xlink:href="#DejaVuSans-30" x="95.410156"/>
      </g>
     </g>
    </g>
    <g id="xtick_8">
     <g id="line2d_8">
      <g>
       <use xlink:href="#mfde6d94731" x="376.820234" y="275.034235" style="stroke: #000000"/>
      </g>
     </g>
     <g id="text_8">
      <!-- 7.5 -->
      <g transform="translate(368.471093 288.612594) scale(0.105 -0.105)">
       <use xlink:href="#DejaVuSans-37"/>
       <use xlink:href="#DejaVuSans-2e" x="63.623047"/>
       <use xlink:href="#DejaVuSans-35" x="95.410156"/>
      </g>
     </g>
    </g>
    <g id="xtick_9">
     <g id="line2d_9">
      <g>
       <use xlink:href="#mfde6d94731" x="424.029791" y="275.034235" style="stroke: #000000"/>
      </g>
     </g>
     <g id="text_9">
      <!-- 10.0 -->
      <g transform="translate(412.340338 288.612594) scale(0.105 -0.105)">
       <use xlink:href="#DejaVuSans-31"/>
       <use xlink:href="#DejaVuSans-30" x="63.623047"/>
       <use xlink:href="#DejaVuSans-2e" x="127.246094"/>
       <use xlink:href="#DejaVuSans-30" x="159.033203"/>
      </g>
     </g>
    </g>
   </g>
   <g id="matplotlib.axis_2">
    <g id="ytick_1">
     <g id="line2d_10">
      <defs>
       <path id="mdeef215688" d="M 0 0 
L 3 0 
" style="stroke: #000000"/>
      </defs>
      <g>
       <use xlink:href="#mdeef215688" x="31.88" y="239.939053" style="stroke: #000000"/>
      </g>
     </g>
     <g id="text_10">
      <!-- −4 -->
      <g transform="translate(10.800703 243.928232) scale(0.105 -0.105)">
       <defs>
        <path id="DejaVuSans-34" d="M 2419 4116 
L 825 1625 
L 2419 1625 
L 2419 4116 
z
M 2253 4666 
L 3047 4666 
L 3047 1625 
L 3713 1625 
L 3713 1100 
L 3047 1100 
L 3047 0 
L 2419 0 
L 2419 1100 
L 313 1100 
L 313 1709 
L 2253 4666 
z
" transform="scale(0.015625)"/>
       </defs>
       <use xlink:href="#DejaVuSans-2212"/>
       <use xlink:href="#DejaVuSans-34" x="83.789062"/>
      </g>
     </g>
    </g>
    <g id="ytick_2">
     <g id="line2d_11">
      <g>
       <use xlink:href="#mdeef215688" x="31.88" y="202.171407" style="stroke: #000000"/>
      </g>
     </g>
     <g id="text_11">
      <!-- −2 -->
      <g transform="translate(10.800703 206.160587) scale(0.105 -0.105)">
       <use xlink:href="#DejaVuSans-2212"/>
       <use xlink:href="#DejaVuSans-32" x="83.789062"/>
      </g>
     </g>
    </g>
    <g id="ytick_3">
     <g id="line2d_12">
      <g>
       <use xlink:href="#mdeef215688" x="31.88" y="164.403762" style="stroke: #000000"/>
      </g>
     </g>
     <g id="text_12">
      <!-- 0 -->
      <g transform="translate(19.599375 168.392942) scale(0.105 -0.105)">
       <use xlink:href="#DejaVuSans-30"/>
      </g>
     </g>
    </g>
    <g id="ytick_4">
     <g id="line2d_13">
      <g>
       <use xlink:href="#mdeef215688" x="31.88" y="126.636117" style="stroke: #000000"/>
      </g>
     </g>
     <g id="text_13">
      <!-- 2 -->
      <g transform="translate(19.599375 130.625296) scale(0.105 -0.105)">
       <use xlink:href="#DejaVuSans-32"/>
      </g>
     </g>
    </g>
    <g id="ytick_5">
     <g id="line2d_14">
      <g>
       <use xlink:href="#mdeef215688" x="31.88" y="88.868471" style="stroke: #000000"/>
      </g>
     </g>
     <g id="text_14">
      <!-- 4 -->
      <g transform="translate(19.599375 92.857651) scale(0.105 -0.105)">
       <use xlink:href="#DejaVuSans-34"/>
      </g>
     </g>
    </g>
    <g id="ytick_6">
     <g id="line2d_15">
      <g>
       <use xlink:href="#mdeef215688" x="31.88" y="51.100826" style="stroke: #000000"/>
      </g>
     </g>
     <g id="text_15">
      <!-- 6 -->
      <g transform="translate(19.599375 55.090006) scale(0.105 -0.105)">
       <defs>
        <path id="DejaVuSans-36" d="M 2113 2584 
Q 1688 2584 1439 2293 
Q 1191 2003 1191 1497 
Q 1191 994 1439 701 
Q 1688 409 2113 409 
Q 2538 409 2786 701 
Q 3034 994 3034 1497 
Q 3034 2003 2786 2293 
Q 2538 2584 2113 2584 
z
M 3366 4563 
L 3366 3988 
Q 3128 4100 2886 4159 
Q 2644 4219 2406 4219 
Q 1781 4219 1451 3797 
Q 1122 3375 1075 2522 
Q 1259 2794 1537 2939 
Q 1816 3084 2150 3084 
Q 2853 3084 3261 2657 
Q 3669 2231 3669 1497 
Q 3669 778 3244 343 
Q 2819 -91 2113 -91 
Q 1303 -91 875 529 
Q 447 1150 447 2328 
Q 447 3434 972 4092 
Q 1497 4750 2381 4750 
Q 2619 4750 2861 4703 
Q 3103 4656 3366 4563 
z
" transform="scale(0.015625)"/>
       </defs>
       <use xlink:href="#DejaVuSans-36"/>
      </g>
     </g>
    </g>
   </g>
   <g id="patch_3">
    <path d="M 31.88 275.034235 
L 31.88 41.765765 
" style="fill: none; stroke: #000000; stroke-width: 0.8; stroke-linejoin: miter; stroke-linecap: square"/>
   </g>
   <g id="patch_4">
    <path d="M 450 275.034235 
L 450 41.765765 
" style="fill: none; stroke: #000000; stroke-width: 0.8; stroke-linejoin: miter; stroke-linecap: square"/>
   </g>
   <g id="patch_5">
    <path d="M 31.88 275.034235 
L 450 275.034235 
" style="fill: none; stroke: #000000; stroke-width: 0.8; stroke-linejoin: miter; stroke-linecap: square"/>
   </g>
   <g id="patch_6">
    <path d="M 31.88 41.765765 
L 450 41.765765 
" style="fill: none; stroke: #000000; stroke-width: 0.8; stroke-linejoin: miter; stroke-linecap: square"/>
   </g>
  </g>
 </g>
 <defs>
  <clipPath id="pa69c4dc48a">
   <rect x="31.88" y="41.765765" width="418.12" height="233.268469"/>
  </clipPath>
 </defs>
</svg>
