<?xml version="1.0" encoding="utf-8" standalone="no"?>
<!DOCTYPE svg PUBLIC "-//W3C//DTD SVG 1.1//EN"
  "http://www.w3.org/Graphics/SVG/1.1/DTD/svg11.dtd">
<svg xmlns:xlink="http://www.w3.org/1999/xlink" width="460.8pt" height="316.8pt" viewBox="0 0 460.8 316.8" xmlns="http://www.w3.org/2000/svg" version="1.1">
 <metadata>
  <rdf:RDF xmlns:dc="http://purl.org/dc/elements/1.1/" xmlns:cc="http://creativecommons.org/ns#" xmlns:rdf="http://www.w3.org/1999/02/22-rdf-syntax-ns#">
   <cc:Work>
    <dc:type rdf:resource="http://purl.org/dc/dcmitype/StillImage"/>
    <dc:date>2024-01-11T15:45:52.489888</dc:date>
    <dc:format>image/svg+xml</dc:format>
    <dc:creator>
     <cc:Agent>
      <dc:title>Matplotlib v3.7.2, https://matplotlib.org/</dc:title>
     </cc:Agent>
    </dc:creator>
   </cc:Work>
  </rdf:RDF>
 </metadata>
 <defs>
  <style type="text/css">*{stroke-linejoin: round; stroke-linecap: butt}</style>
 </defs>
 <g id="figure_1">
  <g id="patch_1">
   <path d="M 0 316.8 
L 460.8 316.8 
L 460.8 0 
L 0 0 
z
" style="fill: #ffffff"/>
  </g>
  <g id="axes_1">
   <g id="patch_2">
    <path d="M 31.88 240.257762 
L 450 240.257762 
L 450 76.542238 
L 31.88 76.542238 
z
" style="fill: #ffffff"/>
   </g>
   <g id="PatchCollection_1">
    <path d="M 235.191564 138.618005 
L 348.4945 138.618005 
L 348.4945 91.408449 
L 235.191564 91.408449 
z
" clip-path="url(#pc7702483b4)" style="fill: #ffffff; stroke: #0000ff; stroke-width: 3"/>
    <path d="M 129.442157 127.287712 
L 216.643185 142.663606 
L 223.011278 106.548358 
L 135.810249 91.172464 
z
" clip-path="url(#pc7702483b4)" style="fill: #ff0000; stroke: #ff0000; stroke-width: 2"/>
    <path d="M 344.717735 148.059917 
L 430.994545 128.141346 
L 422.745054 92.408873 
L 336.468244 112.327444 
z
" clip-path="url(#pc7702483b4)" style="fill: #ff0000; stroke: #ff0000; stroke-width: 2"/>
   </g>
   <g id="PatchCollection_2">
    <path d="M 50.885455 208.88471 
L 139.431699 208.88471 
L 139.431699 172.212326 
L 50.885455 172.212326 
L 50.885455 208.88471 
z
" clip-path="url(#pc7702483b4)" style="fill: none; stroke: #000000; stroke-width: 0.5"/>
    <path d="M 55.793803 212.091645 
L 144.243203 207.951484 
L 142.528511 171.31921 
L 54.07911 175.459371 
L 55.793803 212.091645 
z
" clip-path="url(#pc7702483b4)" style="fill: none; stroke: #000000; stroke-width: 0.5"/>
    <path d="M 60.410257 213.831787 
L 148.704108 207.15097 
L 145.937176 170.583118 
L 57.643325 177.263935 
L 60.410257 213.831787 
z
" clip-path="url(#pc7702483b4)" style="fill: none; stroke: #000000; stroke-width: 0.5"/>
    <path d="M 64.373783 213.531912 
L 152.667634 206.851095 
L 149.900701 170.283243 
L 61.60685 176.96406 
L 64.373783 213.531912 
z
" clip-path="url(#pc7702483b4)" style="fill: none; stroke: #000000; stroke-width: 0.5"/>
    <path d="M 68.337119 213.232037 
L 156.63097 206.55122 
L 153.864038 169.983368 
L 65.570187 176.664185 
L 68.337119 213.232037 
z
" clip-path="url(#pc7702483b4)" style="fill: none; stroke: #000000; stroke-width: 0.5"/>
    <path d="M 72.300456 212.932162 
L 160.594307 206.251345 
L 157.827375 169.683493 
L 69.533524 176.364309 
L 72.300456 212.932162 
z
" clip-path="url(#pc7702483b4)" style="fill: none; stroke: #000000; stroke-width: 0.5"/>
    <path d="M 76.263982 212.632286 
L 164.557833 205.95147 
L 161.7909 169.383618 
L 73.497049 176.064434 
L 76.263982 212.632286 
z
" clip-path="url(#pc7702483b4)" style="fill: none; stroke: #000000; stroke-width: 0.5"/>
    <path d="M 80.227318 212.332411 
L 168.521169 205.651595 
L 165.754237 169.083742 
L 77.460386 175.764559 
L 80.227318 212.332411 
z
" clip-path="url(#pc7702483b4)" style="fill: none; stroke: #000000; stroke-width: 0.5"/>
    <path d="M 84.190655 212.032536 
L 172.484506 205.351719 
L 169.717574 168.783867 
L 81.423723 175.464684 
L 84.190655 212.032536 
z
" clip-path="url(#pc7702483b4)" style="fill: none; stroke: #000000; stroke-width: 0.5"/>
    <path d="M 88.154181 211.732661 
L 176.448032 205.051844 
L 173.681099 168.483992 
L 85.387248 175.164809 
L 88.154181 211.732661 
z
" clip-path="url(#pc7702483b4)" style="fill: none; stroke: #000000; stroke-width: 0.5"/>
    <path d="M 92.117517 211.432597 
L 180.411368 204.75178 
L 177.644436 168.183928 
L 89.350585 174.864745 
L 92.117517 211.432597 
z
" clip-path="url(#pc7702483b4)" style="fill: none; stroke: #000000; stroke-width: 0.5"/>
    <path d="M 96.080854 211.132722 
L 184.374705 204.451905 
L 181.607773 167.884053 
L 93.313922 174.56487 
L 96.080854 211.132722 
z
" clip-path="url(#pc7702483b4)" style="fill: none; stroke: #000000; stroke-width: 0.5"/>
    <path d="M 100.04438 210.832847 
L 188.338231 204.15203 
L 185.571298 167.584178 
L 97.277447 174.264995 
L 100.04438 210.832847 
z
" clip-path="url(#pc7702483b4)" style="fill: none; stroke: #000000; stroke-width: 0.5"/>
    <path d="M 104.007716 210.532972 
L 192.301567 203.852155 
L 189.534635 167.284303 
L 101.240784 173.96512 
L 104.007716 210.532972 
z
" clip-path="url(#pc7702483b4)" style="fill: none; stroke: #000000; stroke-width: 0.5"/>
    <path d="M 107.971053 210.233097 
L 196.264904 203.55228 
L 193.497971 166.984428 
L 105.204121 173.665245 
L 107.971053 210.233097 
z
" clip-path="url(#pc7702483b4)" style="fill: none; stroke: #000000; stroke-width: 0.5"/>
    <path d="M 111.934579 209.933222 
L 200.228429 203.252405 
L 197.461497 166.684553 
L 109.167646 173.36537 
L 111.934579 209.933222 
z
" clip-path="url(#pc7702483b4)" style="fill: none; stroke: #000000; stroke-width: 0.5"/>
    <path d="M 115.898875 209.636165 
L 204.192455 202.951763 
L 201.424038 166.384024 
L 113.130458 173.068425 
L 115.898875 209.636165 
z
" clip-path="url(#pc7702483b4)" style="fill: none; stroke: #000000; stroke-width: 0.5"/>
    <path d="M 121.091125 212.492344 
L 208.970165 201.642833 
L 204.476723 165.24678 
L 116.597683 176.09629 
L 121.091125 212.492344 
z
" clip-path="url(#pc7702483b4)" style="fill: none; stroke: #000000; stroke-width: 0.5"/>
    <path d="M 126.412417 215.099983 
L 213.680539 200.109573 
L 207.472098 163.966537 
L 120.203977 178.956948 
L 126.412417 215.099983 
z
" clip-path="url(#pc7702483b4)" style="fill: none; stroke: #000000; stroke-width: 0.5"/>
    <path d="M 131.851043 217.453429 
L 218.313237 198.355616 
L 210.403672 162.546365 
L 123.941478 181.644177 
L 131.851043 217.453429 
z
" clip-path="url(#pc7702483b4)" style="fill: none; stroke: #000000; stroke-width: 0.5"/>
    <path d="M 137.395009 219.54708 
L 222.858043 196.384456 
L 213.264992 160.989017 
L 127.801958 184.151641 
L 137.395009 219.54708 
z
" clip-path="url(#pc7702483b4)" style="fill: none; stroke: #000000; stroke-width: 0.5"/>
    <path d="M 143.031509 221.376441 
L 227.304427 194.20085 
L 216.049363 159.298311 
L 131.776445 186.473901 
L 143.031509 221.376441 
z
" clip-path="url(#pc7702483b4)" style="fill: none; stroke: #000000; stroke-width: 0.5"/>
    <path d="M 148.748278 222.937202 
L 231.642763 191.809373 
L 218.750836 157.477726 
L 135.856351 188.605556 
L 148.748278 222.937202 
z
" clip-path="url(#pc7702483b4)" style="fill: none; stroke: #000000; stroke-width: 0.5"/>
    <path d="M 154.532331 224.22632 
L 235.863147 189.21581 
L 221.363166 155.531774 
L 140.03235 190.542284 
L 154.532331 224.22632 
z
" clip-path="url(#pc7702483b4)" style="fill: none; stroke: #000000; stroke-width: 0.5"/>
    <path d="M 160.370761 225.240392 
L 239.956165 186.425436 
L 223.880531 153.464281 
L 144.295127 192.279237 
L 160.370761 225.240392 
z
" clip-path="url(#pc7702483b4)" style="fill: none; stroke: #000000; stroke-width: 0.5"/>
    <path d="M 166.250766 225.977565 
L 243.912917 183.444898 
L 226.297554 151.280279 
L 148.635403 193.812946 
L 166.250766 225.977565 
z
" clip-path="url(#pc7702483b4)" style="fill: none; stroke: #000000; stroke-width: 0.5"/>
    <path d="M 172.158966 226.436031 
L 247.72432 180.280698 
L 228.60859 148.98449 
L 153.043236 195.139823 
L 172.158966 226.436031 
z
" clip-path="url(#pc7702483b4)" style="fill: none; stroke: #000000; stroke-width: 0.5"/>
    <path d="M 178.082242 226.614802 
L 251.38194 176.939941 
L 230.808559 146.58208 
L 157.508862 196.25694 
L 178.082242 226.614802 
z
" clip-path="url(#pc7702483b4)" style="fill: none; stroke: #000000; stroke-width: 0.5"/>
    <path d="M 182.550588 225.324797 
L 254.777764 174.103 
L 233.563703 144.189335 
L 161.336527 195.411132 
L 182.550588 225.324797 
z
" clip-path="url(#pc7702483b4)" style="fill: none; stroke: #000000; stroke-width: 0.5"/>
    <path d="M 185.827573 223.000954 
L 258.054749 171.779157 
L 236.840689 141.865492 
L 164.613513 193.087289 
L 185.827573 223.000954 
z
" clip-path="url(#pc7702483b4)" style="fill: none; stroke: #000000; stroke-width: 0.5"/>
    <path d="M 189.104549 220.676922 
L 261.331725 169.455125 
L 240.117665 139.54146 
L 167.890489 190.763257 
L 189.104549 220.676922 
z
" clip-path="url(#pc7702483b4)" style="fill: none; stroke: #000000; stroke-width: 0.5"/>
    <path d="M 192.381525 218.353079 
L 264.608701 167.131282 
L 243.39464 137.217617 
L 171.167464 188.439414 
L 192.381525 218.353079 
z
" clip-path="url(#pc7702483b4)" style="fill: none; stroke: #000000; stroke-width: 0.5"/>
    <path d="M 195.65851 216.029047 
L 267.885686 164.80725 
L 246.671626 134.893585 
L 174.44445 186.115382 
L 195.65851 216.029047 
z
" clip-path="url(#pc7702483b4)" style="fill: none; stroke: #000000; stroke-width: 0.5"/>
    <path d="M 198.935495 213.705015 
L 271.162671 162.483218 
L 249.948611 132.569553 
L 177.721435 183.79135 
L 198.935495 213.705015 
z
" clip-path="url(#pc7702483b4)" style="fill: none; stroke: #000000; stroke-width: 0.5"/>
    <path d="M 202.212481 211.381153 
L 274.439657 160.159356 
L 253.225596 130.245691 
L 180.99842 181.467487 
L 202.212481 211.381153 
z
" clip-path="url(#pc7702483b4)" style="fill: none; stroke: #000000; stroke-width: 0.5"/>
    <path d="M 205.489466 209.057196 
L 277.716642 157.835399 
L 256.502582 127.921734 
L 184.275406 179.143531 
L 205.489466 209.057196 
z
" clip-path="url(#pc7702483b4)" style="fill: none; stroke: #000000; stroke-width: 0.5"/>
    <path d="M 208.766432 206.73324 
L 280.993608 155.511443 
L 259.779548 125.597778 
L 187.552372 176.819574 
L 208.766432 206.73324 
z
" clip-path="url(#pc7702483b4)" style="fill: none; stroke: #000000; stroke-width: 0.5"/>
    <path d="M 212.043342 204.409283 
L 284.270518 153.187486 
L 263.056458 123.273821 
L 190.829282 174.495618 
L 212.043342 204.409283 
z
" clip-path="url(#pc7702483b4)" style="fill: none; stroke: #000000; stroke-width: 0.5"/>
    <path d="M 215.320441 202.085326 
L 287.547617 150.86353 
L 266.333556 120.949865 
L 194.10638 172.171661 
L 215.320441 202.085326 
z
" clip-path="url(#pc7702483b4)" style="fill: none; stroke: #000000; stroke-width: 0.5"/>
    <path d="M 218.597351 199.76137 
L 290.824526 148.539573 
L 269.610466 118.625908 
L 197.38329 169.847705 
L 218.597351 199.76137 
z
" clip-path="url(#pc7702483b4)" style="fill: none; stroke: #000000; stroke-width: 0.5"/>
    <path d="M 221.874449 197.437413 
L 294.101625 146.215617 
L 272.887565 116.301951 
L 200.660389 167.523748 
L 221.874449 197.437413 
z
" clip-path="url(#pc7702483b4)" style="fill: none; stroke: #000000; stroke-width: 0.5"/>
    <path d="M 225.151359 195.113459 
L 297.378535 143.891662 
L 276.164474 113.977997 
L 203.937298 165.199794 
L 225.151359 195.113459 
z
" clip-path="url(#pc7702483b4)" style="fill: none; stroke: #000000; stroke-width: 0.5"/>
    <path d="M 228.428269 192.789502 
L 300.655445 141.567705 
L 279.441384 111.65404 
L 207.214208 162.875837 
L 228.428269 192.789502 
z
" clip-path="url(#pc7702483b4)" style="fill: none; stroke: #000000; stroke-width: 0.5"/>
    <path d="M 231.705367 190.465544 
L 303.932543 139.243747 
L 282.718483 109.330082 
L 210.491307 160.551879 
L 231.705367 190.465544 
z
" clip-path="url(#pc7702483b4)" style="fill: none; stroke: #000000; stroke-width: 0.5"/>
    <path d="M 234.982277 188.141587 
L 307.209453 136.919791 
L 285.995392 107.006125 
L 213.768216 158.227922 
L 234.982277 188.141587 
z
" clip-path="url(#pc7702483b4)" style="fill: none; stroke: #000000; stroke-width: 0.5"/>
    <path d="M 238.259187 185.817631 
L 310.486363 134.595834 
L 289.272302 104.682169 
L 217.045126 155.903966 
L 238.259187 185.817631 
z
" clip-path="url(#pc7702483b4)" style="fill: none; stroke: #000000; stroke-width: 0.5"/>
    <path d="M 241.536285 183.493674 
L 313.763461 132.271877 
L 292.549401 102.358212 
L 220.322225 153.580009 
L 241.536285 183.493674 
z
" clip-path="url(#pc7702483b4)" style="fill: none; stroke: #000000; stroke-width: 0.5"/>
    <path d="M 244.813195 181.169718 
L 317.040371 129.947921 
L 295.826311 100.034256 
L 223.599135 151.256053 
L 244.813195 181.169718 
z
" clip-path="url(#pc7702483b4)" style="fill: none; stroke: #000000; stroke-width: 0.5"/>
    <path d="M 245.943815 176.980846 
L 320.145168 128.663181 
L 300.133885 97.93189 
L 225.932533 146.249555 
L 245.943815 176.980846 
z
" clip-path="url(#pc7702483b4)" style="fill: none; stroke: #000000; stroke-width: 0.5"/>
    <path d="M 246.858971 172.469533 
L 323.260832 127.71249 
L 304.72422 96.069834 
L 228.322358 140.826877 
L 246.858971 172.469533 
z
" clip-path="url(#pc7702483b4)" style="fill: none; stroke: #000000; stroke-width: 0.5"/>
    <path d="M 247.986436 168.006484 
L 326.41808 126.910077 
L 309.397559 94.426764 
L 230.965915 135.523171 
L 247.986436 168.006484 
z
" clip-path="url(#pc7702483b4)" style="fill: none; stroke: #000000; stroke-width: 0.5"/>
    <path d="M 249.323423 163.601699 
L 329.609585 126.257763 
L 314.14319 93.006381 
L 233.857028 130.350318 
L 249.323423 163.601699 
z
" clip-path="url(#pc7702483b4)" style="fill: none; stroke: #000000; stroke-width: 0.5"/>
    <path d="M 250.867248 159.265067 
L 332.828521 125.75705 
L 318.950814 91.811904 
L 236.989541 125.319921 
L 250.867248 159.265067 
z
" clip-path="url(#pc7702483b4)" style="fill: none; stroke: #000000; stroke-width: 0.5"/>
    <path d="M 251.946959 156.566114 
L 334.871909 125.519537 
L 322.013634 91.175273 
L 239.088683 122.22185 
L 251.946959 156.566114 
z
" clip-path="url(#pc7702483b4)" style="fill: none; stroke: #000000; stroke-width: 0.5"/>
    <path d="M 253.106678 153.900546 
L 336.921376 125.342993 
L 325.093956 90.630231 
L 241.279259 119.187784 
L 253.106678 153.900546 
z
" clip-path="url(#pc7702483b4)" style="fill: none; stroke: #000000; stroke-width: 0.5"/>
    <path d="M 254.320453 151.278606 
L 338.950207 125.235525 
L 328.164184 90.185198 
L 243.53443 116.228279 
L 254.320453 151.278606 
z
" clip-path="url(#pc7702483b4)" style="fill: none; stroke: #000000; stroke-width: 0.5"/>
    <path d="M 250.766365 150.106643 
L 336.135784 126.601329 
L 326.400804 91.244662 
L 241.031385 114.749976 
L 250.766365 150.106643 
z
" clip-path="url(#pc7702483b4)" style="fill: none; stroke: #000000; stroke-width: 0.5"/>
    <path d="M 247.248965 148.829112 
L 333.281946 127.882425 
L 324.606649 92.250937 
L 238.573669 113.197624 
L 247.248965 148.829112 
z
" clip-path="url(#pc7702483b4)" style="fill: none; stroke: #000000; stroke-width: 0.5"/>
    <path d="M 243.771238 147.447279 
L 330.391113 129.077886 
L 322.783231 93.203329 
L 236.163355 111.572722 
L 243.771238 147.447279 
z
" clip-path="url(#pc7702483b4)" style="fill: none; stroke: #000000; stroke-width: 0.5"/>
    <path d="M 240.336343 145.962121 
L 327.465924 130.186392 
L 320.932236 94.100735 
L 233.802655 109.876464 
L 240.336343 145.962121 
z
" clip-path="url(#pc7702483b4)" style="fill: none; stroke: #000000; stroke-width: 0.5"/>
    <path d="M 236.947174 144.375142 
L 324.508828 131.207223 
L 319.055193 94.942618 
L 231.493538 108.110537 
L 236.947174 144.375142 
z
" clip-path="url(#pc7702483b4)" style="fill: none; stroke: #000000; stroke-width: 0.5"/>
    <path d="M 236.737594 142.282634 
L 324.653277 131.734173 
L 320.284518 95.322943 
L 232.368835 105.871405 
L 236.737594 142.282634 
z
" clip-path="url(#pc7702483b4)" style="fill: none; stroke: #000000; stroke-width: 0.5"/>
    <path d="M 238.495018 139.967128 
L 326.686387 132.047541 
L 323.406405 95.522133 
L 235.215036 103.44172 
L 238.495018 139.967128 
z
" clip-path="url(#pc7702483b4)" style="fill: none; stroke: #000000; stroke-width: 0.5"/>
    <path d="M 240.320798 137.705026 
L 328.709261 132.421381 
L 326.520982 95.814344 
L 238.132519 101.097989 
L 240.320798 137.705026 
z
" clip-path="url(#pc7702483b4)" style="fill: none; stroke: #000000; stroke-width: 0.5"/>
    <path d="M 242.213298 135.498569 
L 330.720089 132.855564 
L 329.62546 96.199521 
L 241.118669 98.842526 
L 242.213298 135.498569 
z
" clip-path="url(#pc7702483b4)" style="fill: none; stroke: #000000; stroke-width: 0.5"/>
    <path d="M 244.170822 133.349419 
L 332.717066 133.349419 
L 332.717066 96.677035 
L 244.170822 96.677035 
L 244.170822 133.349419 
z
" clip-path="url(#pc7702483b4)" style="fill: none; stroke: #000000; stroke-width: 0.5"/>
   </g>
   <g id="PatchCollection_3">
    <path d="M 145.021311 190.548518 
L 140.77245 191.964804 
L 140.77245 191.020613 
L 121.888628 191.020613 
L 121.888628 190.076422 
L 140.77245 190.076422 
L 140.77245 189.132231 
z
" clip-path="url(#pc7702483b4)" style="fill: #ff0000; stroke: #ff0000; stroke-width: 0.24"/>
    <path d="M 148.969355 189.373993 
L 144.791364 190.987395 
L 144.747216 190.044237 
L 125.884047 190.927189 
L 125.839899 189.98403 
L 144.703068 189.101078 
L 144.658921 188.15792 
z
" clip-path="url(#pc7702483b4)" style="fill: #ff0000; stroke: #ff0000; stroke-width: 0.24"/>
    <path d="M 152.894321 188.445308 
L 148.764431 190.178134 
L 148.693191 189.236634 
L 129.863195 190.661419 
L 129.791956 189.719919 
L 148.621952 188.295134 
L 148.550713 187.353635 
z
" clip-path="url(#pc7702483b4)" style="fill: #ff0000; stroke: #ff0000; stroke-width: 0.24"/>
    <path d="M 156.857846 188.145433 
L 152.727956 189.878259 
L 152.656717 188.936759 
L 133.826721 190.361544 
L 133.755482 189.420044 
L 152.585478 187.995259 
L 152.514238 187.053759 
z
" clip-path="url(#pc7702483b4)" style="fill: #ff0000; stroke: #ff0000; stroke-width: 0.24"/>
    <path d="M 160.821183 187.845557 
L 156.691293 189.578384 
L 156.620054 188.636884 
L 137.790058 190.061669 
L 137.718818 189.120169 
L 156.548814 187.695384 
L 156.477575 186.753884 
z
" clip-path="url(#pc7702483b4)" style="fill: #ff0000; stroke: #ff0000; stroke-width: 0.24"/>
    <path d="M 164.78452 187.545682 
L 160.654629 189.278509 
L 160.58339 188.337009 
L 141.753394 189.761794 
L 141.682155 188.820294 
L 160.512151 187.395509 
L 160.440912 186.454009 
z
" clip-path="url(#pc7702483b4)" style="fill: #ff0000; stroke: #ff0000; stroke-width: 0.24"/>
    <path d="M 168.748045 187.245807 
L 164.618155 188.978634 
L 164.546916 188.037134 
L 145.71692 189.461919 
L 145.645681 188.520419 
L 164.475677 187.095634 
L 164.404437 186.154134 
z
" clip-path="url(#pc7702483b4)" style="fill: #ff0000; stroke: #ff0000; stroke-width: 0.24"/>
    <path d="M 172.711382 186.945932 
L 168.581492 188.678758 
L 168.510252 187.737259 
L 149.680257 189.162044 
L 149.609017 188.220544 
L 168.439013 186.795759 
L 168.367774 185.854259 
z
" clip-path="url(#pc7702483b4)" style="fill: #ff0000; stroke: #ff0000; stroke-width: 0.24"/>
    <path d="M 176.674719 186.646057 
L 172.544828 188.378883 
L 172.473589 187.437384 
L 153.643593 188.862169 
L 153.572354 187.920669 
L 172.40235 186.495884 
L 172.331111 185.554384 
z
" clip-path="url(#pc7702483b4)" style="fill: #ff0000; stroke: #ff0000; stroke-width: 0.24"/>
    <path d="M 180.638244 186.346182 
L 176.508354 188.079008 
L 176.437115 187.137508 
L 157.607119 188.562293 
L 157.53588 187.620794 
L 176.365875 186.196009 
L 176.294636 185.254509 
z
" clip-path="url(#pc7702483b4)" style="fill: #ff0000; stroke: #ff0000; stroke-width: 0.24"/>
    <path d="M 184.601581 186.046118 
L 180.471691 187.778944 
L 180.400451 186.837445 
L 161.570455 188.262229 
L 161.499216 187.32073 
L 180.329212 185.895945 
L 180.257973 184.954445 
z
" clip-path="url(#pc7702483b4)" style="fill: #ff0000; stroke: #ff0000; stroke-width: 0.24"/>
    <path d="M 188.564918 185.746243 
L 184.435027 187.479069 
L 184.363788 186.537569 
L 165.533792 187.962354 
L 165.462553 187.020855 
L 184.292549 185.59607 
L 184.22131 184.65457 
z
" clip-path="url(#pc7702483b4)" style="fill: #ff0000; stroke: #ff0000; stroke-width: 0.24"/>
    <path d="M 192.528443 185.446368 
L 188.398553 187.179194 
L 188.327314 186.237694 
L 169.497318 187.662479 
L 169.426078 186.720979 
L 188.256074 185.296195 
L 188.184835 184.354695 
z
" clip-path="url(#pc7702483b4)" style="fill: #ff0000; stroke: #ff0000; stroke-width: 0.24"/>
    <path d="M 196.49178 185.146493 
L 192.36189 186.879319 
L 192.29065 185.937819 
L 173.460654 187.362604 
L 173.389415 186.421104 
L 192.219411 184.996319 
L 192.148172 184.05482 
z
" clip-path="url(#pc7702483b4)" style="fill: #ff0000; stroke: #ff0000; stroke-width: 0.24"/>
    <path d="M 200.455117 184.846618 
L 196.325226 186.579444 
L 196.253987 185.637944 
L 177.423991 187.062729 
L 177.352752 186.121229 
L 196.182748 184.696444 
L 196.111509 183.754944 
z
" clip-path="url(#pc7702483b4)" style="fill: #ff0000; stroke: #ff0000; stroke-width: 0.24"/>
    <path d="M 204.418642 184.546742 
L 200.288752 186.279569 
L 200.217513 185.338069 
L 181.387517 186.762854 
L 181.316277 185.821354 
L 200.146273 184.396569 
L 200.075034 183.455069 
z
" clip-path="url(#pc7702483b4)" style="fill: #ff0000; stroke: #ff0000; stroke-width: 0.24"/>
    <path d="M 208.381908 184.245931 
L 204.252088 185.978925 
L 204.180811 185.037428 
L 185.350872 186.462977 
L 185.279595 185.521481 
L 204.109533 184.095931 
L 204.038256 183.154434 
z
" clip-path="url(#pc7702483b4)" style="fill: #ff0000; stroke: #ff0000; stroke-width: 0.24"/>
    <path d="M 212.270937 182.759915 
L 208.227629 184.68614 
L 208.111938 183.749063 
L 189.370407 186.062885 
L 189.254716 185.125809 
L 207.996247 182.811987 
L 207.880556 181.87491 
z
" clip-path="url(#pc7702483b4)" style="fill: #ff0000; stroke: #ff0000; stroke-width: 0.24"/>
    <path d="M 216.085246 181.091763 
L 212.137486 183.206916 
L 211.97764 182.276354 
L 193.366396 185.473285 
L 193.20655 184.542723 
L 211.817793 181.345792 
L 211.657947 180.41523 
z
" clip-path="url(#pc7702483b4)" style="fill: #ff0000; stroke: #ff0000; stroke-width: 0.24"/>
    <path d="M 219.816507 179.245413 
L 215.973117 181.544767 
L 215.769472 180.622799 
L 197.330105 184.695696 
L 197.12646 183.773727 
L 215.565827 179.700831 
L 215.362182 178.778862 
z
" clip-path="url(#pc7702483b4)" style="fill: #ff0000; stroke: #ff0000; stroke-width: 0.24"/>
    <path d="M 223.456497 177.224562 
L 219.726067 179.702983 
L 219.479078 178.791669 
L 201.252797 183.731448 
L 201.005808 182.820134 
L 219.232089 177.880355 
L 218.9851 176.969041 
z
" clip-path="url(#pc7702483b4)" style="fill: #ff0000; stroke: #ff0000; stroke-width: 0.24"/>
    <path d="M 226.996746 175.034082 
L 223.387611 177.686028 
L 223.09783 176.787405 
L 205.125359 182.583009 
L 204.835579 181.684386 
L 222.80805 175.888781 
L 222.51827 174.990158 
z
" clip-path="url(#pc7702483b4)" style="fill: #ff0000; stroke: #ff0000; stroke-width: 0.24"/>
    <path d="M 230.429636 172.67856 
L 226.949859 175.498105 
L 226.617935 174.61418 
L 208.939436 181.252659 
L 208.607512 180.368734 
L 226.286011 173.730255 
L 225.954087 172.84633 
z
" clip-path="url(#pc7702483b4)" style="fill: #ff0000; stroke: #ff0000; stroke-width: 0.24"/>
    <path d="M 233.747283 170.163702 
L 230.404642 173.144546 
L 230.031316 172.277294 
L 212.686293 179.743814 
L 212.312967 178.876563 
L 229.65799 171.410043 
L 229.284664 170.542792 
z
" clip-path="url(#pc7702483b4)" style="fill: #ff0000; stroke: #ff0000; stroke-width: 0.24"/>
    <path d="M 236.942293 167.494607 
L 233.744257 170.630088 
L 233.330363 169.781449 
L 216.357575 178.059324 
L 215.943681 177.210685 
L 232.916469 168.93281 
L 232.502575 168.08417 
z
" clip-path="url(#pc7702483b4)" style="fill: #ff0000; stroke: #ff0000; stroke-width: 0.24"/>
    <path d="M 240.007772 164.677652 
L 236.961487 167.960764 
L 236.50795 167.132632 
L 219.945324 176.203365 
L 219.491788 175.375234 
L 236.054413 166.304501 
L 235.600877 165.47637 
z
" clip-path="url(#pc7702483b4)" style="fill: #ff0000; stroke: #ff0000; stroke-width: 0.24"/>
    <path d="M 242.936629 161.718971 
L 240.048901 165.142377 
L 239.556735 164.336605 
L 223.441283 174.179926 
L 222.949117 173.374153 
L 239.064569 163.530832 
L 238.572403 162.725059 
z
" clip-path="url(#pc7702483b4)" style="fill: #ff0000; stroke: #ff0000; stroke-width: 0.24"/>
    <path d="M 245.7224 158.625212 
L 242.999684 162.181263 
L 242.469988 161.399649 
L 226.837722 171.993563 
L 226.308026 171.211949 
L 241.940293 160.618036 
L 241.410597 159.836423 
z
" clip-path="url(#pc7702483b4)" style="fill: #ff0000; stroke: #ff0000; stroke-width: 0.24"/>
    <path d="M 248.73018 155.912717 
L 246.083671 159.525842 
L 245.53748 158.755665 
L 230.133945 169.679486 
L 229.587754 168.909309 
L 244.991289 157.985488 
L 244.445098 157.215311 
z
" clip-path="url(#pc7702483b4)" style="fill: #ff0000; stroke: #ff0000; stroke-width: 0.24"/>
    <path d="M 252.007165 153.588874 
L 249.360657 157.201998 
L 248.814465 156.431822 
L 233.41093 167.355643 
L 232.864739 166.585466 
L 248.268274 155.661645 
L 247.722083 154.891468 
z
" clip-path="url(#pc7702483b4)" style="fill: #ff0000; stroke: #ff0000; stroke-width: 0.24"/>
    <path d="M 255.284141 151.264842 
L 252.637632 154.877966 
L 252.091441 154.10779 
L 236.687906 165.031611 
L 236.141715 164.261434 
L 251.54525 153.337613 
L 250.999059 152.567436 
z
" clip-path="url(#pc7702483b4)" style="fill: #ff0000; stroke: #ff0000; stroke-width: 0.24"/>
    <path d="M 258.561117 148.940998 
L 255.914608 152.554123 
L 255.368417 151.783946 
L 239.964882 162.707767 
L 239.418691 161.937591 
L 254.822226 151.01377 
L 254.276035 150.243593 
z
" clip-path="url(#pc7702483b4)" style="fill: #ff0000; stroke: #ff0000; stroke-width: 0.24"/>
    <path d="M 261.838102 146.616966 
L 259.191593 150.230091 
L 258.645402 149.459914 
L 243.241867 160.383735 
L 242.695676 159.613559 
L 258.099211 148.689738 
L 257.55302 147.919561 
z
" clip-path="url(#pc7702483b4)" style="fill: #ff0000; stroke: #ff0000; stroke-width: 0.24"/>
    <path d="M 265.115088 144.292934 
L 262.468579 147.906059 
L 261.922388 147.135882 
L 246.518853 158.059703 
L 245.972662 157.289527 
L 261.376197 146.365706 
L 260.830006 145.595529 
z
" clip-path="url(#pc7702483b4)" style="fill: #ff0000; stroke: #ff0000; stroke-width: 0.24"/>
    <path d="M 268.392073 141.969072 
L 265.745564 145.582197 
L 265.199373 144.81202 
L 249.795838 155.735841 
L 249.249647 154.965665 
L 264.653182 144.041843 
L 264.106991 143.271667 
z
" clip-path="url(#pc7702483b4)" style="fill: #ff0000; stroke: #ff0000; stroke-width: 0.24"/>
    <path d="M 271.669058 139.645116 
L 269.022549 143.25824 
L 268.476358 142.488064 
L 253.072823 153.411885 
L 252.526632 152.641708 
L 267.930167 141.717887 
L 267.383976 140.94771 
z
" clip-path="url(#pc7702483b4)" style="fill: #ff0000; stroke: #ff0000; stroke-width: 0.24"/>
    <path d="M 274.946025 137.321159 
L 272.299516 140.934284 
L 271.753325 140.164107 
L 256.34979 151.087928 
L 255.803599 150.317751 
L 271.207134 139.39393 
L 270.660943 138.623754 
z
" clip-path="url(#pc7702483b4)" style="fill: #ff0000; stroke: #ff0000; stroke-width: 0.24"/>
    <path d="M 278.222934 134.997203 
L 275.576426 138.610327 
L 275.030234 137.840151 
L 259.626699 148.763972 
L 259.080508 147.993795 
L 274.484043 137.069974 
L 273.937852 136.299797 
z
" clip-path="url(#pc7702483b4)" style="fill: #ff0000; stroke: #ff0000; stroke-width: 0.24"/>
    <path d="M 281.500033 132.673246 
L 278.853524 136.286371 
L 278.307333 135.516194 
L 262.903798 146.440015 
L 262.357607 145.669838 
L 277.761142 134.746017 
L 277.214951 133.975841 
z
" clip-path="url(#pc7702483b4)" style="fill: #ff0000; stroke: #ff0000; stroke-width: 0.24"/>
    <path d="M 284.776943 130.34929 
L 282.130434 133.962414 
L 281.584243 133.192238 
L 266.180708 144.116059 
L 265.634517 143.345882 
L 281.038052 132.422061 
L 280.491861 131.651884 
z
" clip-path="url(#pc7702483b4)" style="fill: #ff0000; stroke: #ff0000; stroke-width: 0.24"/>
    <path d="M 288.054041 128.025333 
L 285.407532 131.638458 
L 284.861341 130.868281 
L 269.457806 141.792102 
L 268.911615 141.021925 
L 284.31515 130.098104 
L 283.768959 129.327928 
z
" clip-path="url(#pc7702483b4)" style="fill: #ff0000; stroke: #ff0000; stroke-width: 0.24"/>
    <path d="M 291.330951 125.701378 
L 288.684442 129.314503 
L 288.138251 128.544326 
L 272.734716 139.468148 
L 272.188525 138.697971 
L 287.59206 127.77415 
L 287.045869 127.003973 
z
" clip-path="url(#pc7702483b4)" style="fill: #ff0000; stroke: #ff0000; stroke-width: 0.24"/>
    <path d="M 294.607861 123.377422 
L 291.961352 126.990547 
L 291.415161 126.22037 
L 276.011626 137.144191 
L 275.465435 136.374014 
L 290.86897 125.450193 
L 290.322779 124.680016 
z
" clip-path="url(#pc7702483b4)" style="fill: #ff0000; stroke: #ff0000; stroke-width: 0.24"/>
    <path d="M 297.884959 121.053463 
L 295.238451 124.666588 
L 294.692259 123.896412 
L 279.288724 134.820233 
L 278.742533 134.050056 
L 294.146068 123.126235 
L 293.599877 122.356058 
z
" clip-path="url(#pc7702483b4)" style="fill: #ff0000; stroke: #ff0000; stroke-width: 0.24"/>
    <path d="M 301.161869 118.729507 
L 298.51536 122.342632 
L 297.969169 121.572455 
L 282.565634 132.496276 
L 282.019443 131.726099 
L 297.422978 120.802278 
L 296.876787 120.032102 
z
" clip-path="url(#pc7702483b4)" style="fill: #ff0000; stroke: #ff0000; stroke-width: 0.24"/>
    <path d="M 304.438779 116.40555 
L 301.79227 120.018675 
L 301.246079 119.248499 
L 285.842544 130.17232 
L 285.296353 129.402143 
L 300.699888 118.478322 
L 300.153697 117.708145 
z
" clip-path="url(#pc7702483b4)" style="fill: #ff0000; stroke: #ff0000; stroke-width: 0.24"/>
    <path d="M 307.715877 114.081594 
L 305.069369 117.694719 
L 304.523178 116.924542 
L 289.119642 127.848363 
L 288.573451 127.078186 
L 303.976986 116.154365 
L 303.430795 115.384188 
z
" clip-path="url(#pc7702483b4)" style="fill: #ff0000; stroke: #ff0000; stroke-width: 0.24"/>
    <path d="M 310.992787 111.757637 
L 308.346278 115.370762 
L 307.800087 114.600585 
L 292.396552 125.524406 
L 291.850361 124.75423 
L 307.253896 113.830409 
L 306.707705 113.060232 
z
" clip-path="url(#pc7702483b4)" style="fill: #ff0000; stroke: #ff0000; stroke-width: 0.24"/>
    <path d="M 314.823595 110.247412 
L 312.035905 113.75276 
L 311.520681 112.961532 
L 295.696124 123.266003 
L 295.1809 122.474775 
L 311.005458 112.170304 
L 310.490234 111.379076 
z
" clip-path="url(#pc7702483b4)" style="fill: #ff0000; stroke: #ff0000; stroke-width: 0.24"/>
    <path d="M 318.815506 109.065808 
L 315.865273 112.435497 
L 315.388017 111.620805 
L 299.094167 121.16592 
L 298.616912 120.351227 
L 314.910761 110.806112 
L 314.433506 109.99142 
z
" clip-path="url(#pc7702483b4)" style="fill: #ff0000; stroke: #ff0000; stroke-width: 0.24"/>
    <path d="M 322.858932 108.07415 
L 319.752749 111.300651 
L 319.314528 110.464314 
L 302.587797 119.228743 
L 302.149575 118.392407 
L 318.876307 109.627978 
L 318.438085 108.791641 
z
" clip-path="url(#pc7702483b4)" style="fill: #ff0000; stroke: #ff0000; stroke-width: 0.24"/>
    <path d="M 326.944569 107.274681 
L 323.689378 110.350784 
L 323.29117 109.494673 
L 306.168935 117.45883 
L 305.770727 116.602719 
L 322.892962 108.638561 
L 322.494754 107.782449 
z
" clip-path="url(#pc7702483b4)" style="fill: #ff0000; stroke: #ff0000; stroke-width: 0.24"/>
    <path d="M 331.063593 106.669234 
L 327.666667 109.588065 
L 327.309362 108.714091 
L 309.829884 115.860182 
L 309.47258 114.986208 
L 326.952058 107.840118 
L 326.594753 106.966144 
z
" clip-path="url(#pc7702483b4)" style="fill: #ff0000; stroke: #ff0000; stroke-width: 0.24"/>
    <path d="M 333.677531 106.387544 
L 330.194993 109.203678 
L 329.863935 108.319428 
L 312.178938 114.940579 
L 311.847881 114.056329 
L 329.532878 107.435178 
L 329.20182 106.550928 
z
" clip-path="url(#pc7702483b4)" style="fill: #ff0000; stroke: #ff0000; stroke-width: 0.24"/>
    <path d="M 336.298592 106.183874 
L 332.733548 108.894805 
L 332.429031 108.001067 
L 314.554282 114.091396 
L 314.249766 113.197659 
L 332.124515 107.10733 
L 331.819998 106.213592 
z
" clip-path="url(#pc7702483b4)" style="fill: #ff0000; stroke: #ff0000; stroke-width: 0.24"/>
    <path d="M 338.899573 106.066354 
L 335.2552 108.669665 
L 334.977496 107.767236 
L 316.928924 113.321316 
L 316.65122 112.418888 
L 334.699793 106.864808 
L 334.422089 105.962379 
z
" clip-path="url(#pc7702483b4)" style="fill: #ff0000; stroke: #ff0000; stroke-width: 0.24"/>
    <path d="M 336.657364 107.439188 
L 332.936907 109.932556 
L 332.686264 109.02224 
L 314.479947 114.035103 
L 314.229304 113.124787 
L 332.435621 108.111924 
L 332.184978 107.201608 
z
" clip-path="url(#pc7702483b4)" style="fill: #ff0000; stroke: #ff0000; stroke-width: 0.24"/>
    <path d="M 334.375256 108.744391 
L 330.582033 111.125598 
L 330.358673 110.208206 
L 312.010842 114.675403 
L 311.787482 113.758012 
L 330.135314 109.290815 
L 329.911954 108.373423 
z
" clip-path="url(#pc7702483b4)" style="fill: #ff0000; stroke: #ff0000; stroke-width: 0.24"/>
    <path d="M 332.055179 109.981013 
L 328.192571 112.247936 
L 327.996693 111.324287 
L 309.523698 115.241837 
L 309.32782 114.318187 
L 327.800816 110.400637 
L 327.604938 109.476987 
z
" clip-path="url(#pc7702483b4)" style="fill: #ff0000; stroke: #ff0000; stroke-width: 0.24"/>
    <path d="M 329.699262 111.147698 
L 325.770711 113.298318 
L 325.602491 112.369233 
L 307.020793 115.733645 
L 306.852572 114.80456 
L 325.43427 111.440148 
L 325.266049 110.511063 
z
" clip-path="url(#pc7702483b4)" style="fill: #ff0000; stroke: #ff0000; stroke-width: 0.24"/>
    <path d="M 327.309468 112.243676 
L 323.318473 114.276072 
L 323.17806 113.34238 
L 304.504216 116.150638 
L 304.363803 115.216945 
L 323.037647 112.408688 
L 322.897234 111.474996 
z
" clip-path="url(#pc7702483b4)" style="fill: #ff0000; stroke: #ff0000; stroke-width: 0.24"/>
    <path d="M 328.018704 112.862671 
L 323.968823 114.775036 
L 323.856342 113.837569 
L 305.106996 116.087187 
L 304.994515 115.14972 
L 323.743861 112.900101 
L 323.63138 111.962634 
z
" clip-path="url(#pc7702483b4)" style="fill: #ff0000; stroke: #ff0000; stroke-width: 0.24"/>
    <path d="M 330.613606 113.284901 
L 326.508447 115.07553 
L 326.423998 114.135123 
L 307.615858 115.824095 
L 307.53141 114.883688 
L 326.33955 113.194716 
L 326.255101 112.254309 
z
" clip-path="url(#pc7702483b4)" style="fill: #ff0000; stroke: #ff0000; stroke-width: 0.24"/>
    <path d="M 333.194773 113.784324 
L 329.037996 115.451621 
L 328.981655 114.509112 
L 310.131481 115.63593 
L 310.07514 114.693421 
L 328.925314 113.566604 
L 328.868973 112.624095 
z
" clip-path="url(#pc7702483b4)" style="fill: #ff0000; stroke: #ff0000; stroke-width: 0.24"/>
    <path d="M 335.759895 114.360699 
L 331.555203 115.903178 
L 331.52702 114.959408 
L 312.651611 115.523069 
L 312.623428 114.579298 
L 331.498837 114.015638 
L 331.470654 113.071867 
z
" clip-path="url(#pc7702483b4)" style="fill: #ff0000; stroke: #ff0000; stroke-width: 0.24"/>
    <path d="M 338.306678 115.013227 
L 334.057818 116.429514 
L 334.057818 115.485323 
L 315.173995 115.485323 
L 315.173995 114.541131 
L 334.057818 114.541131 
L 334.057818 113.59694 
z
" clip-path="url(#pc7702483b4)" style="fill: #ff0000; stroke: #ff0000; stroke-width: 0.24"/>
   </g>
   <g id="matplotlib.axis_1">
    <g id="xtick_1">
     <g id="line2d_1">
      <defs>
       <path id="mfe65cad096" d="M 0 0 
L 0 -3 
" style="stroke: #000000"/>
      </defs>
      <g>
       <use xlink:href="#mfe65cad096" x="46.353337" y="240.257762" style="stroke: #000000"/>
      </g>
     </g>
     <g id="text_1">
      <!-- −10.0 -->
      <g transform="translate(30.264548 253.836122) scale(0.105 -0.105)">
       <defs>
        <path id="DejaVuSans-2212" d="M 678 2272 
L 4684 2272 
L 4684 1741 
L 678 1741 
L 678 2272 
z
" transform="scale(0.015625)"/>
        <path id="DejaVuSans-31" d="M 794 531 
L 1825 531 
L 1825 4091 
L 703 3866 
L 703 4441 
L 1819 4666 
L 2450 4666 
L 2450 531 
L 3481 531 
L 3481 0 
L 794 0 
L 794 531 
z
" transform="scale(0.015625)"/>
        <path id="DejaVuSans-30" d="M 2034 4250 
Q 1547 4250 1301 3770 
Q 1056 3291 1056 2328 
Q 1056 1369 1301 889 
Q 1547 409 2034 409 
Q 2525 409 2770 889 
Q 3016 1369 3016 2328 
Q 3016 3291 2770 3770 
Q 2525 4250 2034 4250 
z
M 2034 4750 
Q 2819 4750 3233 4129 
Q 3647 3509 3647 2328 
Q 3647 1150 3233 529 
Q 2819 -91 2034 -91 
Q 1250 -91 836 529 
Q 422 1150 422 2328 
Q 422 3509 836 4129 
Q 1250 4750 2034 4750 
z
" transform="scale(0.015625)"/>
        <path id="DejaVuSans-2e" d="M 684 794 
L 1344 794 
L 1344 0 
L 684 0 
L 684 794 
z
" transform="scale(0.015625)"/>
       </defs>
       <use xlink:href="#DejaVuSans-2212"/>
       <use xlink:href="#DejaVuSans-31" x="83.789062"/>
       <use xlink:href="#DejaVuSans-30" x="147.412109"/>
       <use xlink:href="#DejaVuSans-2e" x="211.035156"/>
       <use xlink:href="#DejaVuSans-30" x="242.822266"/>
      </g>
     </g>
    </g>
    <g id="xtick_2">
     <g id="line2d_2">
      <g>
       <use xlink:href="#mfe65cad096" x="93.562894" y="240.257762" style="stroke: #000000"/>
      </g>
     </g>
     <g id="text_2">
      <!-- −7.5 -->
      <g transform="translate(80.814417 253.836122) scale(0.105 -0.105)">
       <defs>
        <path id="DejaVuSans-37" d="M 525 4666 
L 3525 4666 
L 3525 4397 
L 1831 0 
L 1172 0 
L 2766 4134 
L 525 4134 
L 525 4666 
z
" transform="scale(0.015625)"/>
        <path id="DejaVuSans-35" d="M 691 4666 
L 3169 4666 
L 3169 4134 
L 1269 4134 
L 1269 2991 
Q 1406 3038 1543 3061 
Q 1681 3084 1819 3084 
Q 2600 3084 3056 2656 
Q 3513 2228 3513 1497 
Q 3513 744 3044 326 
Q 2575 -91 1722 -91 
Q 1428 -91 1123 -41 
Q 819 9 494 109 
L 494 744 
Q 775 591 1075 516 
Q 1375 441 1709 441 
Q 2250 441 2565 725 
Q 2881 1009 2881 1497 
Q 2881 1984 2565 2268 
Q 2250 2553 1709 2553 
Q 1456 2553 1204 2497 
Q 953 2441 691 2322 
L 691 4666 
z
" transform="scale(0.015625)"/>
       </defs>
       <use xlink:href="#DejaVuSans-2212"/>
       <use xlink:href="#DejaVuSans-37" x="83.789062"/>
       <use xlink:href="#DejaVuSans-2e" x="147.412109"/>
       <use xlink:href="#DejaVuSans-35" x="179.199219"/>
      </g>
     </g>
    </g>
    <g id="xtick_3">
     <g id="line2d_3">
      <g>
       <use xlink:href="#mfe65cad096" x="140.77245" y="240.257762" style="stroke: #000000"/>
      </g>
     </g>
     <g id="text_3">
      <!-- −5.0 -->
      <g transform="translate(128.023974 253.836122) scale(0.105 -0.105)">
       <use xlink:href="#DejaVuSans-2212"/>
       <use xlink:href="#DejaVuSans-35" x="83.789062"/>
       <use xlink:href="#DejaVuSans-2e" x="147.412109"/>
       <use xlink:href="#DejaVuSans-30" x="179.199219"/>
      </g>
     </g>
    </g>
    <g id="xtick_4">
     <g id="line2d_4">
      <g>
       <use xlink:href="#mfe65cad096" x="187.982007" y="240.257762" style="stroke: #000000"/>
      </g>
     </g>
     <g id="text_4">
      <!-- −2.5 -->
      <g transform="translate(175.233531 253.836122) scale(0.105 -0.105)">
       <defs>
        <path id="DejaVuSans-32" d="M 1228 531 
L 3431 531 
L 3431 0 
L 469 0 
L 469 531 
Q 828 903 1448 1529 
Q 2069 2156 2228 2338 
Q 2531 2678 2651 2914 
Q 2772 3150 2772 3378 
Q 2772 3750 2511 3984 
Q 2250 4219 1831 4219 
Q 1534 4219 1204 4116 
Q 875 4013 500 3803 
L 500 4441 
Q 881 4594 1212 4672 
Q 1544 4750 1819 4750 
Q 2544 4750 2975 4387 
Q 3406 4025 3406 3419 
Q 3406 3131 3298 2873 
Q 3191 2616 2906 2266 
Q 2828 2175 2409 1742 
Q 1991 1309 1228 531 
z
" transform="scale(0.015625)"/>
       </defs>
       <use xlink:href="#DejaVuSans-2212"/>
       <use xlink:href="#DejaVuSans-32" x="83.789062"/>
       <use xlink:href="#DejaVuSans-2e" x="147.412109"/>
       <use xlink:href="#DejaVuSans-35" x="179.199219"/>
      </g>
     </g>
    </g>
    <g id="xtick_5">
     <g id="line2d_5">
      <g>
       <use xlink:href="#mfe65cad096" x="235.191564" y="240.257762" style="stroke: #000000"/>
      </g>
     </g>
     <g id="text_5">
      <!-- 0.0 -->
      <g transform="translate(226.842423 253.836122) scale(0.105 -0.105)">
       <use xlink:href="#DejaVuSans-30"/>
       <use xlink:href="#DejaVuSans-2e" x="63.623047"/>
       <use xlink:href="#DejaVuSans-30" x="95.410156"/>
      </g>
     </g>
    </g>
    <g id="xtick_6">
     <g id="line2d_6">
      <g>
       <use xlink:href="#mfe65cad096" x="282.401121" y="240.257762" style="stroke: #000000"/>
      </g>
     </g>
     <g id="text_6">
      <!-- 2.5 -->
      <g transform="translate(274.05198 253.836122) scale(0.105 -0.105)">
       <use xlink:href="#DejaVuSans-32"/>
       <use xlink:href="#DejaVuSans-2e" x="63.623047"/>
       <use xlink:href="#DejaVuSans-35" x="95.410156"/>
      </g>
     </g>
    </g>
    <g id="xtick_7">
     <g id="line2d_7">
      <g>
       <use xlink:href="#mfe65cad096" x="329.610677" y="240.257762" style="stroke: #000000"/>
      </g>
     </g>
     <g id="text_7">
      <!-- 5.0 -->
      <g transform="translate(321.261537 253.836122) scale(0.105 -0.105)">
       <use xlink:href="#DejaVuSans-35"/>
       <use xlink:href="#DejaVuSans-2e" x="63.623047"/>
       <use xlink:href="#DejaVuSans-30" x="95.410156"/>
      </g>
     </g>
    </g>
    <g id="xtick_8">
     <g id="line2d_8">
      <g>
       <use xlink:href="#mfe65cad096" x="376.820234" y="240.257762" style="stroke: #000000"/>
      </g>
     </g>
     <g id="text_8">
      <!-- 7.5 -->
      <g transform="translate(368.471093 253.836122) scale(0.105 -0.105)">
       <use xlink:href="#DejaVuSans-37"/>
       <use xlink:href="#DejaVuSans-2e" x="63.623047"/>
       <use xlink:href="#DejaVuSans-35" x="95.410156"/>
      </g>
     </g>
    </g>
    <g id="xtick_9">
     <g id="line2d_9">
      <g>
       <use xlink:href="#mfe65cad096" x="424.029791" y="240.257762" style="stroke: #000000"/>
      </g>
     </g>
     <g id="text_9">
      <!-- 10.0 -->
      <g transform="translate(412.340338 253.836122) scale(0.105 -0.105)">
       <use xlink:href="#DejaVuSans-31"/>
       <use xlink:href="#DejaVuSans-30" x="63.623047"/>
       <use xlink:href="#DejaVuSans-2e" x="127.246094"/>
       <use xlink:href="#DejaVuSans-30" x="159.033203"/>
      </g>
     </g>
    </g>
   </g>
   <g id="matplotlib.axis_2">
    <g id="ytick_1">
     <g id="line2d_10">
      <defs>
       <path id="mcf878bc80d" d="M 0 0 
L 3 0 
" style="stroke: #000000"/>
      </defs>
      <g>
       <use xlink:href="#mcf878bc80d" x="31.88" y="214.153296" style="stroke: #000000"/>
      </g>
     </g>
     <g id="text_10">
      <!-- −4 -->
      <g transform="translate(10.800703 218.142476) scale(0.105 -0.105)">
       <defs>
        <path id="DejaVuSans-34" d="M 2419 4116 
L 825 1625 
L 2419 1625 
L 2419 4116 
z
M 2253 4666 
L 3047 4666 
L 3047 1625 
L 3713 1625 
L 3713 1100 
L 3047 1100 
L 3047 0 
L 2419 0 
L 2419 1100 
L 313 1100 
L 313 1709 
L 2253 4666 
z
" transform="scale(0.015625)"/>
       </defs>
       <use xlink:href="#DejaVuSans-2212"/>
       <use xlink:href="#DejaVuSans-34" x="83.789062"/>
      </g>
     </g>
    </g>
    <g id="ytick_2">
     <g id="line2d_11">
      <g>
       <use xlink:href="#mcf878bc80d" x="31.88" y="176.385651" style="stroke: #000000"/>
      </g>
     </g>
     <g id="text_11">
      <!-- −2 -->
      <g transform="translate(10.800703 180.37483) scale(0.105 -0.105)">
       <use xlink:href="#DejaVuSans-2212"/>
       <use xlink:href="#DejaVuSans-32" x="83.789062"/>
      </g>
     </g>
    </g>
    <g id="ytick_3">
     <g id="line2d_12">
      <g>
       <use xlink:href="#mcf878bc80d" x="31.88" y="138.618005" style="stroke: #000000"/>
      </g>
     </g>
     <g id="text_12">
      <!-- 0 -->
      <g transform="translate(19.599375 142.607185) scale(0.105 -0.105)">
       <use xlink:href="#DejaVuSans-30"/>
      </g>
     </g>
    </g>
    <g id="ytick_4">
     <g id="line2d_13">
      <g>
       <use xlink:href="#mcf878bc80d" x="31.88" y="100.85036" style="stroke: #000000"/>
      </g>
     </g>
     <g id="text_13">
      <!-- 2 -->
      <g transform="translate(19.599375 104.83954) scale(0.105 -0.105)">
       <use xlink:href="#DejaVuSans-32"/>
      </g>
     </g>
    </g>
   </g>
   <g id="patch_3">
    <path d="M 31.88 240.257762 
L 31.88 76.542238 
" style="fill: none; stroke: #000000; stroke-width: 0.8; stroke-linejoin: miter; stroke-linecap: square"/>
   </g>
   <g id="patch_4">
    <path d="M 450 240.257762 
L 450 76.542238 
" style="fill: none; stroke: #000000; stroke-width: 0.8; stroke-linejoin: miter; stroke-linecap: square"/>
   </g>
   <g id="patch_5">
    <path d="M 31.88 240.257762 
L 450 240.257762 
" style="fill: none; stroke: #000000; stroke-width: 0.8; stroke-linejoin: miter; stroke-linecap: square"/>
   </g>
   <g id="patch_6">
    <path d="M 31.88 76.542238 
L 450 76.542238 
" style="fill: none; stroke: #000000; stroke-width: 0.8; stroke-linejoin: miter; stroke-linecap: square"/>
   </g>
  </g>
 </g>
 <defs>
  <clipPath id="pc7702483b4">
   <rect x="31.88" y="76.542238" width="418.12" height="163.715524"/>
  </clipPath>
 </defs>
</svg>
