<?xml version="1.0" encoding="utf-8" standalone="no"?>
<!DOCTYPE svg PUBLIC "-//W3C//DTD SVG 1.1//EN"
  "http://www.w3.org/Graphics/SVG/1.1/DTD/svg11.dtd">
<svg xmlns:xlink="http://www.w3.org/1999/xlink" width="460.8pt" height="316.8pt" viewBox="0 0 460.8 316.8" xmlns="http://www.w3.org/2000/svg" version="1.1">
 <metadata>
  <rdf:RDF xmlns:dc="http://purl.org/dc/elements/1.1/" xmlns:cc="http://creativecommons.org/ns#" xmlns:rdf="http://www.w3.org/1999/02/22-rdf-syntax-ns#">
   <cc:Work>
    <dc:type rdf:resource="http://purl.org/dc/dcmitype/StillImage"/>
    <dc:date>2024-01-11T15:46:50.967824</dc:date>
    <dc:format>image/svg+xml</dc:format>
    <dc:creator>
     <cc:Agent>
      <dc:title>Matplotlib v3.7.2, https://matplotlib.org/</dc:title>
     </cc:Agent>
    </dc:creator>
   </cc:Work>
  </rdf:RDF>
 </metadata>
 <defs>
  <style type="text/css">*{stroke-linejoin: round; stroke-linecap: butt}</style>
 </defs>
 <g id="figure_1">
  <g id="patch_1">
   <path d="M 0 316.8 
L 460.8 316.8 
L 460.8 0 
L 0 0 
z
" style="fill: #ffffff"/>
  </g>
  <g id="axes_1">
   <g id="patch_2">
    <path d="M 31.88 264.833588 
L 450 264.833588 
L 450 51.966412 
L 31.88 51.966412 
z
" style="fill: #ffffff"/>
   </g>
   <g id="PatchCollection_1">
    <path d="M 235.191564 131.389614 
L 348.4945 131.389614 
L 348.4945 84.180058 
L 235.191564 84.180058 
z
" clip-path="url(#p2abc6dce87)" style="fill: #ffffff; stroke: #0000ff; stroke-width: 3"/>
    <path d="M 129.442157 120.059321 
L 216.643185 135.435215 
L 223.011278 99.319967 
L 135.810249 83.944073 
z
" clip-path="url(#p2abc6dce87)" style="fill: #ff0000; stroke: #ff0000; stroke-width: 2"/>
    <path d="M 344.717735 140.831526 
L 430.994545 120.912955 
L 422.745054 85.180482 
L 336.468244 105.099053 
z
" clip-path="url(#p2abc6dce87)" style="fill: #ff0000; stroke: #ff0000; stroke-width: 2"/>
   </g>
   <g id="PatchCollection_2">
    <path d="M 50.885455 201.656319 
L 139.431699 201.656319 
L 139.431699 164.983935 
L 50.885455 164.983935 
L 50.885455 201.656319 
z
" clip-path="url(#p2abc6dce87)" style="fill: none; stroke: #000000; stroke-width: 0.5"/>
    <path d="M 54.784808 197.731242 
L 143.18813 202.760166 
L 145.270913 166.146975 
L 56.867591 161.118051 
L 54.784808 197.731242 
z
" clip-path="url(#p2abc6dce87)" style="fill: none; stroke: #000000; stroke-width: 0.5"/>
    <path d="M 58.900878 194.034075 
L 146.875892 204.075706 
L 151.034742 167.639904 
L 63.059729 157.598273 
L 58.900878 194.034075 
z
" clip-path="url(#p2abc6dce87)" style="fill: none; stroke: #000000; stroke-width: 0.5"/>
    <path d="M 63.220429 190.576592 
L 150.483133 205.598505 
L 156.70462 169.457713 
L 69.441916 154.4358 
L 63.220429 190.576592 
z
" clip-path="url(#p2abc6dce87)" style="fill: none; stroke: #000000; stroke-width: 0.5"/>
    <path d="M 67.729082 187.370149 
L 153.997794 207.323764 
L 162.261799 171.594645 
L 75.993087 151.64103 
L 67.729082 187.370149 
z
" clip-path="url(#p2abc6dce87)" style="fill: none; stroke: #000000; stroke-width: 0.5"/>
    <path d="M 72.412824 184.424822 
L 157.409035 209.245811 
L 167.688916 174.043712 
L 82.692705 149.222723 
L 72.412824 184.424822 
z
" clip-path="url(#p2abc6dce87)" style="fill: none; stroke: #000000; stroke-width: 0.5"/>
    <path d="M 77.17887 182.718355 
L 161.015874 211.210356 
L 172.816145 176.488356 
L 88.979141 147.996354 
L 77.17887 182.718355 
z
" clip-path="url(#p2abc6dce87)" style="fill: none; stroke: #000000; stroke-width: 0.5"/>
    <path d="M 81.750833 184.272116 
L 165.587837 212.764117 
L 177.388107 178.042117 
L 93.551103 149.550115 
L 81.750833 184.272116 
z
" clip-path="url(#p2abc6dce87)" style="fill: none; stroke: #000000; stroke-width: 0.5"/>
    <path d="M 86.322795 185.826065 
L 170.159799 214.318067 
L 181.960069 179.596066 
L 98.123065 151.104065 
L 86.322795 185.826065 
z
" clip-path="url(#p2abc6dce87)" style="fill: none; stroke: #000000; stroke-width: 0.5"/>
    <path d="M 90.894757 187.379826 
L 174.731761 215.871828 
L 186.532032 181.149827 
L 102.695028 152.657826 
L 90.894757 187.379826 
z
" clip-path="url(#p2abc6dce87)" style="fill: none; stroke: #000000; stroke-width: 0.5"/>
    <path d="M 95.466908 188.933587 
L 179.303912 217.425589 
L 191.104183 182.703588 
L 107.267179 154.211586 
L 95.466908 188.933587 
z
" clip-path="url(#p2abc6dce87)" style="fill: none; stroke: #000000; stroke-width: 0.5"/>
    <path d="M 100.038871 190.487348 
L 183.875875 218.97935 
L 195.676145 184.257349 
L 111.839141 155.765347 
L 100.038871 190.487348 
z
" clip-path="url(#p2abc6dce87)" style="fill: none; stroke: #000000; stroke-width: 0.5"/>
    <path d="M 104.610833 192.041109 
L 188.447837 220.533111 
L 200.248107 185.81111 
L 116.411103 157.319108 
L 104.610833 192.041109 
z
" clip-path="url(#p2abc6dce87)" style="fill: none; stroke: #000000; stroke-width: 0.5"/>
    <path d="M 109.182795 193.59487 
L 193.019799 222.086872 
L 204.82007 187.364871 
L 120.983066 158.872869 
L 109.182795 193.59487 
z
" clip-path="url(#p2abc6dce87)" style="fill: none; stroke: #000000; stroke-width: 0.5"/>
    <path d="M 113.754946 195.14882 
L 197.591951 223.640822 
L 209.392221 188.918821 
L 125.555217 160.426819 
L 113.754946 195.14882 
z
" clip-path="url(#p2abc6dce87)" style="fill: none; stroke: #000000; stroke-width: 0.5"/>
    <path d="M 118.326909 196.702581 
L 202.163913 225.194583 
L 213.964183 190.472582 
L 130.127179 161.98058 
L 118.326909 196.702581 
z
" clip-path="url(#p2abc6dce87)" style="fill: none; stroke: #000000; stroke-width: 0.5"/>
    <path d="M 122.746847 202.203537 
L 208.037686 225.992404 
L 217.890102 190.668282 
L 132.599263 166.879415 
L 122.746847 202.203537 
z
" clip-path="url(#p2abc6dce87)" style="fill: none; stroke: #000000; stroke-width: 0.5"/>
    <path d="M 127.470542 207.534418 
L 213.974769 226.44093 
L 221.805105 190.61427 
L 135.300878 171.707758 
L 127.470542 207.534418 
z
" clip-path="url(#p2abc6dce87)" style="fill: none; stroke: #000000; stroke-width: 0.5"/>
    <path d="M 132.489531 212.588525 
L 219.927916 226.551562 
L 225.710858 190.338011 
L 138.272474 176.374974 
L 132.489531 212.588525 
z
" clip-path="url(#p2abc6dce87)" style="fill: none; stroke: #000000; stroke-width: 0.5"/>
    <path d="M 137.787256 217.349153 
L 225.877527 226.32364 
L 229.594408 189.840102 
L 141.504136 180.865616 
L 137.787256 217.349153 
z
" clip-path="url(#p2abc6dce87)" style="fill: none; stroke: #000000; stroke-width: 0.5"/>
    <path d="M 143.346773 221.801449 
L 231.804559 225.758405 
L 233.443375 189.122657 
L 144.985589 185.165702 
L 143.346773 221.801449 
z
" clip-path="url(#p2abc6dce87)" style="fill: none; stroke: #000000; stroke-width: 0.5"/>
    <path d="M 149.150302 225.930829 
L 237.690041 224.857506 
L 237.245513 188.187817 
L 148.705774 189.261139 
L 149.150302 225.930829 
z
" clip-path="url(#p2abc6dce87)" style="fill: none; stroke: #000000; stroke-width: 0.5"/>
    <path d="M 155.178931 229.723866 
L 243.5148 223.623722 
L 240.988359 187.038468 
L 152.65249 193.138612 
L 155.178931 229.723866 
z
" clip-path="url(#p2abc6dce87)" style="fill: none; stroke: #000000; stroke-width: 0.5"/>
    <path d="M 161.413274 233.168266 
L 249.260103 222.060965 
L 244.659895 185.678252 
L 156.813066 196.785553 
L 161.413274 233.168266 
z
" clip-path="url(#p2abc6dce87)" style="fill: none; stroke: #000000; stroke-width: 0.5"/>
    <path d="M 167.833167 236.253246 
L 254.907369 220.174664 
L 248.248251 184.111943 
L 161.174049 200.190525 
L 167.833167 236.253246 
z
" clip-path="url(#p2abc6dce87)" style="fill: none; stroke: #000000; stroke-width: 0.5"/>
    <path d="M 174.417879 238.968481 
L 260.438381 217.970609 
L 251.741886 182.344289 
L 165.721384 203.342161 
L 174.417879 238.968481 
z
" clip-path="url(#p2abc6dce87)" style="fill: none; stroke: #000000; stroke-width: 0.5"/>
    <path d="M 181.146188 241.305283 
L 265.835282 215.455819 
L 255.129447 180.380916 
L 170.440353 206.23038 
L 181.146188 241.305283 
z
" clip-path="url(#p2abc6dce87)" style="fill: none; stroke: #000000; stroke-width: 0.5"/>
    <path d="M 187.996378 243.256448 
L 271.080669 212.638839 
L 258.400056 178.228583 
L 175.315765 208.846192 
L 187.996378 243.256448 
z
" clip-path="url(#p2abc6dce87)" style="fill: none; stroke: #000000; stroke-width: 0.5"/>
    <path d="M 194.946321 244.815239 
L 276.157596 209.528326 
L 261.54314 175.893799 
L 180.331865 211.180712 
L 194.946321 244.815239 
z
" clip-path="url(#p2abc6dce87)" style="fill: none; stroke: #000000; stroke-width: 0.5"/>
    <path d="M 201.973582 245.976862 
L 281.049674 206.134558 
L 264.548553 173.384341 
L 185.472462 213.226645 
L 201.973582 245.976862 
z
" clip-path="url(#p2abc6dce87)" style="fill: none; stroke: #000000; stroke-width: 0.5"/>
    <path d="M 209.055426 246.737375 
L 285.741059 202.468299 
L 267.406544 170.708116 
L 190.72091 214.977191 
L 209.055426 246.737375 
z
" clip-path="url(#p2abc6dce87)" style="fill: none; stroke: #000000; stroke-width: 0.5"/>
    <path d="M 216.16909 247.094657 
L 290.216708 198.54172 
L 270.107985 167.874099 
L 196.060367 216.427036 
L 216.16909 247.094657 
z
" clip-path="url(#p2abc6dce87)" style="fill: none; stroke: #000000; stroke-width: 0.5"/>
    <path d="M 223.291417 247.047079 
L 294.462031 194.367092 
L 272.644045 164.891013 
L 201.473431 217.571001 
L 223.291417 247.047079 
z
" clip-path="url(#p2abc6dce87)" style="fill: none; stroke: #000000; stroke-width: 0.5"/>
    <path d="M 230.399848 246.59523 
L 298.463656 189.95818 
L 275.00681 161.768819 
L 206.943002 218.405869 
L 230.399848 246.59523 
z
" clip-path="url(#p2abc6dce87)" style="fill: none; stroke: #000000; stroke-width: 0.5"/>
    <path d="M 237.470801 245.740336 
L 302.208078 185.32906 
L 277.188096 158.517417 
L 212.450818 218.928694 
L 237.470801 245.740336 
z
" clip-path="url(#p2abc6dce87)" style="fill: none; stroke: #000000; stroke-width: 0.5"/>
    <path d="M 244.482 244.485426 
L 305.683761 180.494943 
L 279.181411 155.147573 
L 217.979651 219.138056 
L 244.482 244.485426 
z
" clip-path="url(#p2abc6dce87)" style="fill: none; stroke: #000000; stroke-width: 0.5"/>
    <path d="M 251.41057 242.834172 
L 308.879242 175.471058 
L 280.980081 151.669787 
L 223.511409 219.032901 
L 251.41057 242.834172 
z
" clip-path="url(#p2abc6dce87)" style="fill: none; stroke: #000000; stroke-width: 0.5"/>
    <path d="M 258.234207 240.792048 
L 311.784269 170.273765 
L 282.578361 148.095428 
L 229.028298 218.613711 
L 258.234207 240.792048 
z
" clip-path="url(#p2abc6dce87)" style="fill: none; stroke: #000000; stroke-width: 0.5"/>
    <path d="M 264.930838 238.36578 
L 314.389419 164.919976 
L 283.971046 144.43617 
L 234.512464 217.881974 
L 264.930838 238.36578 
z
" clip-path="url(#p2abc6dce87)" style="fill: none; stroke: #000000; stroke-width: 0.5"/>
    <path d="M 271.478849 235.562989 
L 316.686287 159.426763 
L 285.153647 140.703614 
L 239.946209 216.83984 
L 271.478849 235.562989 
z
" clip-path="url(#p2abc6dce87)" style="fill: none; stroke: #000000; stroke-width: 0.5"/>
    <path d="M 277.856773 232.392877 
L 318.667522 153.812216 
L 286.122492 136.910004 
L 245.311744 215.490664 
L 277.856773 232.392877 
z
" clip-path="url(#p2abc6dce87)" style="fill: none; stroke: #000000; stroke-width: 0.5"/>
    <path d="M 284.044922 228.865709 
L 320.32645 148.093882 
L 286.873925 133.067495 
L 250.592397 213.839322 
L 284.044922 228.865709 
z
" clip-path="url(#p2abc6dce87)" style="fill: none; stroke: #000000; stroke-width: 0.5"/>
    <path d="M 290.02225 224.992717 
L 321.658241 142.290833 
L 287.406362 129.188446 
L 255.770372 211.89033 
L 290.02225 224.992717 
z
" clip-path="url(#p2abc6dce87)" style="fill: none; stroke: #000000; stroke-width: 0.5"/>
    <path d="M 294.756599 223.866141 
L 321.644098 139.500864 
L 286.703308 128.365116 
L 259.815809 212.730392 
L 294.756599 223.866141 
z
" clip-path="url(#p2abc6dce87)" style="fill: none; stroke: #000000; stroke-width: 0.5"/>
    <path d="M 297.586524 228.620196 
L 319.639576 142.864144 
L 284.122781 133.730635 
L 262.069729 219.486686 
L 297.586524 228.620196 
z
" clip-path="url(#p2abc6dce87)" style="fill: none; stroke: #000000; stroke-width: 0.5"/>
    <path d="M 302.22361 224.368536 
L 319.946602 137.614096 
L 284.016313 130.273927 
L 266.293322 217.028368 
L 302.22361 224.368536 
z
" clip-path="url(#p2abc6dce87)" style="fill: none; stroke: #000000; stroke-width: 0.5"/>
    <path d="M 306.641444 219.889696 
L 319.989741 132.355358 
L 283.736449 126.827017 
L 270.388152 214.361355 
L 306.641444 219.889696 
z
" clip-path="url(#p2abc6dce87)" style="fill: none; stroke: #000000; stroke-width: 0.5"/>
    <path d="M 310.829084 215.194806 
L 319.769068 127.101026 
L 283.284077 123.398435 
L 274.344094 211.492216 
L 310.829084 215.194806 
z
" clip-path="url(#p2abc6dce87)" style="fill: none; stroke: #000000; stroke-width: 0.5"/>
    <path d="M 314.776015 210.295723 
L 319.285169 121.864366 
L 282.660368 119.996851 
L 278.151213 208.428208 
L 314.776015 210.295723 
z
" clip-path="url(#p2abc6dce87)" style="fill: none; stroke: #000000; stroke-width: 0.5"/>
    <path d="M 311.694237 206.653763 
L 320.354037 118.531999 
L 283.857457 114.945449 
L 275.197656 203.067213 
L 311.694237 206.653763 
z
" clip-path="url(#p2abc6dce87)" style="fill: none; stroke: #000000; stroke-width: 0.5"/>
    <path d="M 308.568229 202.897339 
L 321.638099 115.320995 
L 285.367411 109.907968 
L 272.297541 197.484311 
L 308.568229 202.897339 
z
" clip-path="url(#p2abc6dce87)" style="fill: none; stroke: #000000; stroke-width: 0.5"/>
    <path d="M 305.634819 198.988817 
L 323.081842 112.178456 
L 287.128394 104.952582 
L 269.68137 191.762944 
L 305.634819 198.988817 
z
" clip-path="url(#p2abc6dce87)" style="fill: none; stroke: #000000; stroke-width: 0.5"/>
    <path d="M 302.901169 194.938062 
L 324.681405 109.112315 
L 289.135745 100.091795 
L 267.355509 185.917542 
L 302.901169 194.938062 
z
" clip-path="url(#p2abc6dce87)" style="fill: none; stroke: #000000; stroke-width: 0.5"/>
    <path d="M 300.374088 190.755249 
L 326.432683 106.13027 
L 291.384334 95.337821 
L 265.325739 179.9628 
L 300.374088 190.755249 
z
" clip-path="url(#p2abc6dce87)" style="fill: none; stroke: #000000; stroke-width: 0.5"/>
    <path d="M 298.060198 186.450939 
L 328.331524 103.239857 
L 293.868755 90.70266 
L 263.59743 173.913743 
L 298.060198 186.450939 
z
" clip-path="url(#p2abc6dce87)" style="fill: none; stroke: #000000; stroke-width: 0.5"/>
    <path d="M 295.96497 182.035988 
L 330.372787 100.448369 
L 296.582393 86.198 
L 262.174576 167.785619 
L 295.96497 182.035988 
z
" clip-path="url(#p2abc6dce87)" style="fill: none; stroke: #000000; stroke-width: 0.5"/>
    <path d="M 294.094014 177.521375 
L 332.551667 97.762699 
L 299.51875 81.835046 
L 261.061097 161.593722 
L 294.094014 177.521375 
z
" clip-path="url(#p2abc6dce87)" style="fill: none; stroke: #000000; stroke-width: 0.5"/>
    <path d="M 292.451932 172.918726 
L 334.862564 95.189866 
L 302.670317 77.625044 
L 260.259685 155.353905 
L 292.451932 172.918726 
z
" clip-path="url(#p2abc6dce87)" style="fill: none; stroke: #000000; stroke-width: 0.5"/>
    <path d="M 291.042666 168.239333 
L 337.299467 92.73605 
L 306.028966 73.578296 
L 259.772166 149.08158 
L 291.042666 168.239333 
z
" clip-path="url(#p2abc6dce87)" style="fill: none; stroke: #000000; stroke-width: 0.5"/>
    <path d="M 289.870254 163.495391 
L 339.856505 90.407689 
L 309.586444 69.705343 
L 259.600193 142.793045 
L 289.870254 163.495391 
z
" clip-path="url(#p2abc6dce87)" style="fill: none; stroke: #000000; stroke-width: 0.5"/>
    <path d="M 285.47701 163.415964 
L 339.066978 92.928001 
L 309.873626 70.733138 
L 256.283659 141.2211 
L 285.47701 163.415964 
z
" clip-path="url(#p2abc6dce87)" style="fill: none; stroke: #000000; stroke-width: 0.5"/>
    <path d="M 281.789543 164.569579 
L 337.526362 95.766639 
L 309.030881 72.682634 
L 253.294062 141.485573 
L 281.789543 164.569579 
z
" clip-path="url(#p2abc6dce87)" style="fill: none; stroke: #000000; stroke-width: 0.5"/>
    <path d="M 278.06805 165.609176 
L 335.898839 98.556679 
L 308.128323 74.605434 
L 250.297534 141.65793 
L 278.06805 165.609176 
z
" clip-path="url(#p2abc6dce87)" style="fill: none; stroke: #000000; stroke-width: 0.5"/>
    <path d="M 274.316492 166.533474 
L 334.186243 101.295063 
L 307.167051 76.499359 
L 247.297299 141.73777 
L 274.316492 166.533474 
z
" clip-path="url(#p2abc6dce87)" style="fill: none; stroke: #000000; stroke-width: 0.5"/>
    <path d="M 270.538223 167.341724 
L 332.390062 103.979373 
L 306.14786 78.362766 
L 244.296021 141.725116 
L 270.538223 167.341724 
z
" clip-path="url(#p2abc6dce87)" style="fill: none; stroke: #000000; stroke-width: 0.5"/>
    <path d="M 266.736633 168.033264 
L 330.511801 106.607168 
L 305.07152 80.193993 
L 241.296351 141.620089 
L 266.736633 168.033264 
z
" clip-path="url(#p2abc6dce87)" style="fill: none; stroke: #000000; stroke-width: 0.5"/>
    <path d="M 262.915833 168.607115 
L 328.553746 109.175626 
L 303.939553 81.990976 
L 238.30164 141.422465 
L 262.915833 168.607115 
z
" clip-path="url(#p2abc6dce87)" style="fill: none; stroke: #000000; stroke-width: 0.5"/>
    <path d="M 259.078958 169.063108 
L 326.517259 111.682685 
L 302.752538 83.752384 
L 235.314236 141.132807 
L 259.078958 169.063108 
z
" clip-path="url(#p2abc6dce87)" style="fill: none; stroke: #000000; stroke-width: 0.5"/>
    <path d="M 255.229858 169.400562 
L 324.404484 114.125716 
L 301.51181 85.476298 
L 232.337184 140.751143 
L 255.229858 169.400562 
z
" clip-path="url(#p2abc6dce87)" style="fill: none; stroke: #000000; stroke-width: 0.5"/>
    <path d="M 251.37216 169.619229 
L 322.217395 116.502471 
L 300.218516 87.161151 
L 229.373281 140.27791 
L 251.37216 169.619229 
z
" clip-path="url(#p2abc6dce87)" style="fill: none; stroke: #000000; stroke-width: 0.5"/>
    <path d="M 247.509638 169.719009 
L 319.958181 118.810797 
L 298.873995 88.80545 
L 226.425452 139.713662 
L 247.509638 169.719009 
z
" clip-path="url(#p2abc6dce87)" style="fill: none; stroke: #000000; stroke-width: 0.5"/>
    <path d="M 243.646024 169.699643 
L 317.629051 121.048341 
L 297.479588 90.407471 
L 223.496562 139.058774 
L 243.646024 169.699643 
z
" clip-path="url(#p2abc6dce87)" style="fill: none; stroke: #000000; stroke-width: 0.5"/>
    <path d="M 241.521189 168.479941 
L 316.968415 122.131765 
L 297.772817 90.884481 
L 222.325591 137.232657 
L 241.521189 168.479941 
z
" clip-path="url(#p2abc6dce87)" style="fill: none; stroke: #000000; stroke-width: 0.5"/>
    <path d="M 242.171155 165.549787 
L 319.010908 121.548767 
L 300.787411 89.724753 
L 223.947657 133.725773 
L 242.171155 165.549787 
z
" clip-path="url(#p2abc6dce87)" style="fill: none; stroke: #000000; stroke-width: 0.5"/>
    <path d="M 242.910844 162.641038 
L 321.070128 121.028975 
L 303.836043 88.658463 
L 225.676759 130.270526 
L 242.910844 162.641038 
z
" clip-path="url(#p2abc6dce87)" style="fill: none; stroke: #000000; stroke-width: 0.5"/>
    <path d="M 243.739984 159.756483 
L 323.144587 120.572987 
L 306.916319 87.686712 
L 227.511716 126.870208 
L 243.739984 159.756483 
z
" clip-path="url(#p2abc6dce87)" style="fill: none; stroke: #000000; stroke-width: 0.5"/>
    <path d="M 244.657643 156.898705 
L 325.232092 120.180922 
L 310.025025 86.810143 
L 229.450577 123.527927 
L 244.657643 156.898705 
z
" clip-path="url(#p2abc6dce87)" style="fill: none; stroke: #000000; stroke-width: 0.5"/>
    <path d="M 245.663072 154.070753 
L 327.330822 119.853563 
L 313.159403 86.029983 
L 231.491653 120.247173 
L 245.663072 154.070753 
z
" clip-path="url(#p2abc6dce87)" style="fill: none; stroke: #000000; stroke-width: 0.5"/>
    <path d="M 246.754951 151.275072 
L 329.438418 119.590982 
L 316.31611 85.34673 
L 233.632642 117.030821 
L 246.754951 151.275072 
z
" clip-path="url(#p2abc6dce87)" style="fill: none; stroke: #000000; stroke-width: 0.5"/>
    <path d="M 247.932474 148.514336 
L 331.553112 119.393444 
L 319.49238 84.761054 
L 235.871742 113.881945 
L 247.932474 148.514336 
z
" clip-path="url(#p2abc6dce87)" style="fill: none; stroke: #000000; stroke-width: 0.5"/>
    <path d="M 249.194595 145.791257 
L 333.672965 119.261228 
L 322.685267 84.273599 
L 238.206897 110.803627 
L 249.194595 145.791257 
z
" clip-path="url(#p2abc6dce87)" style="fill: none; stroke: #000000; stroke-width: 0.5"/>
    <path d="M 249.976716 143.267586 
L 335.232565 119.353623 
L 325.328339 84.043992 
L 240.07249 107.957955 
L 249.976716 143.267586 
z
" clip-path="url(#p2abc6dce87)" style="fill: none; stroke: #000000; stroke-width: 0.5"/>
    <path d="M 246.339269 141.964134 
L 332.291606 120.688955 
L 323.48026 85.090866 
L 237.527924 106.366045 
L 246.339269 141.964134 
z
" clip-path="url(#p2abc6dce87)" style="fill: none; stroke: #000000; stroke-width: 0.5"/>
    <path d="M 242.743851 140.549387 
L 329.311022 121.933203 
L 321.600928 86.080474 
L 235.033757 104.696658 
L 242.743851 140.549387 
z
" clip-path="url(#p2abc6dce87)" style="fill: none; stroke: #000000; stroke-width: 0.5"/>
    <path d="M 239.25807 139.053201 
L 326.348867 123.064749 
L 319.727077 86.995155 
L 232.63628 102.983607 
L 239.25807 139.053201 
z
" clip-path="url(#p2abc6dce87)" style="fill: none; stroke: #000000; stroke-width: 0.5"/>
    <path d="M 235.81907 137.452349 
L 323.353733 124.106183 
L 317.826274 87.852756 
L 230.291611 101.198923 
L 235.81907 137.452349 
z
" clip-path="url(#p2abc6dce87)" style="fill: none; stroke: #000000; stroke-width: 0.5"/>
    <path d="M 236.643646 135.181919 
L 324.54203 124.490257 
L 320.113962 88.086192 
L 232.215579 98.777854 
L 236.643646 135.181919 
z
" clip-path="url(#p2abc6dce87)" style="fill: none; stroke: #000000; stroke-width: 0.5"/>
    <path d="M 238.421838 132.832344 
L 326.603468 124.805046 
L 323.278876 88.283672 
L 235.097246 96.310969 
L 238.421838 132.832344 
z
" clip-path="url(#p2abc6dce87)" style="fill: none; stroke: #000000; stroke-width: 0.5"/>
    <path d="M 240.270061 130.537606 
L 328.654193 125.181988 
L 326.436105 88.576745 
L 238.051973 93.932363 
L 240.270061 130.537606 
z
" clip-path="url(#p2abc6dce87)" style="fill: none; stroke: #000000; stroke-width: 0.5"/>
    <path d="M 242.187071 128.299791 
L 330.692778 125.620755 
L 329.583226 88.96516 
L 241.077519 91.644196 
L 242.187071 128.299791 
z
" clip-path="url(#p2abc6dce87)" style="fill: none; stroke: #000000; stroke-width: 0.5"/>
    <path d="M 244.170822 126.121028 
L 332.717066 126.121028 
L 332.717066 89.448644 
L 244.170822 89.448644 
L 244.170822 126.121028 
z
" clip-path="url(#p2abc6dce87)" style="fill: none; stroke: #000000; stroke-width: 0.5"/>
   </g>
   <g id="PatchCollection_3">
    <path d="M 145.021311 183.320127 
L 140.77245 184.736414 
L 140.77245 183.792222 
L 121.888628 183.792222 
L 121.888628 182.848031 
L 140.77245 182.848031 
L 140.77245 181.90384 
z
" clip-path="url(#p2abc6dce87)" style="fill: #ff0000; stroke: #ff0000; stroke-width: 0.24"/>
    <path d="M 149.810111 184.771028 
L 145.487672 185.943718 
L 145.541296 185.001051 
L 126.687954 183.928557 
L 126.741579 182.98589 
L 145.594921 184.058384 
L 145.648546 183.115717 
z
" clip-path="url(#p2abc6dce87)" style="fill: #ff0000; stroke: #ff0000; stroke-width: 0.24"/>
    <path d="M 154.508869 186.491698 
L 150.126805 187.417004 
L 150.233881 186.478904 
L 131.471882 184.337374 
L 131.578958 183.399274 
L 150.340958 185.540804 
L 150.448034 184.602704 
z
" clip-path="url(#p2abc6dce87)" style="fill: #ff0000; stroke: #ff0000; stroke-width: 0.24"/>
    <path d="M 159.102463 188.476389 
L 154.674919 189.151325 
L 154.835102 188.22082 
L 136.225013 185.017171 
L 136.385196 184.086666 
L 154.995284 187.290316 
L 155.155467 186.359812 
z
" clip-path="url(#p2abc6dce87)" style="fill: #ff0000; stroke: #ff0000; stroke-width: 0.24"/>
    <path d="M 163.575635 190.718806 
L 159.116906 191.141197 
L 159.329676 190.221291 
L 140.931572 185.965882 
L 141.144342 185.045977 
L 159.542447 189.301386 
L 159.755217 188.381481 
z
" clip-path="url(#p2abc6dce87)" style="fill: #ff0000; stroke: #ff0000; stroke-width: 0.24"/>
    <path d="M 167.914486 193.211623 
L 163.438964 193.380101 
L 163.703636 192.473765 
L 145.576912 187.180314 
L 145.841585 186.273978 
L 163.968309 191.567429 
L 164.232982 190.661092 
z
" clip-path="url(#p2abc6dce87)" style="fill: #ff0000; stroke: #ff0000; stroke-width: 0.24"/>
    <path d="M 172.208343 195.647955 
L 167.729728 195.62174 
L 168.033546 194.727765 
L 150.15404 188.651415 
L 150.457857 187.75744 
L 168.337363 193.833789 
L 168.641181 192.939814 
z
" clip-path="url(#p2abc6dce87)" style="fill: #ff0000; stroke: #ff0000; stroke-width: 0.24"/>
    <path d="M 176.780306 197.201716 
L 172.301691 197.175501 
L 172.605508 196.281525 
L 154.726002 190.205176 
L 155.029819 189.311201 
L 172.909326 195.38755 
L 173.213143 194.493575 
z
" clip-path="url(#p2abc6dce87)" style="fill: #ff0000; stroke: #ff0000; stroke-width: 0.24"/>
    <path d="M 181.352268 198.755666 
L 176.873653 198.729451 
L 177.17747 197.835475 
L 159.297964 191.759126 
L 159.601782 190.865151 
L 177.481288 196.9415 
L 177.785105 196.047525 
z
" clip-path="url(#p2abc6dce87)" style="fill: #ff0000; stroke: #ff0000; stroke-width: 0.24"/>
    <path d="M 185.92423 200.309427 
L 181.445615 200.283211 
L 181.749433 199.389236 
L 163.869927 193.312887 
L 164.173744 192.418912 
L 182.05325 198.495261 
L 182.357068 197.601286 
z
" clip-path="url(#p2abc6dce87)" style="fill: #ff0000; stroke: #ff0000; stroke-width: 0.24"/>
    <path d="M 190.496381 201.863188 
L 186.017766 201.836972 
L 186.321584 200.942997 
L 168.442078 194.866648 
L 168.745895 193.972672 
L 186.625401 200.049022 
L 186.929219 199.155046 
z
" clip-path="url(#p2abc6dce87)" style="fill: #ff0000; stroke: #ff0000; stroke-width: 0.24"/>
    <path d="M 195.068344 203.416949 
L 190.589729 203.390733 
L 190.893546 202.496758 
L 173.01404 196.420409 
L 173.317857 195.526433 
L 191.197364 201.602783 
L 191.501181 200.708807 
z
" clip-path="url(#p2abc6dce87)" style="fill: #ff0000; stroke: #ff0000; stroke-width: 0.24"/>
    <path d="M 199.640306 204.97071 
L 195.161691 204.944494 
L 195.465508 204.050519 
L 177.586002 197.97417 
L 177.88982 197.080194 
L 195.769326 203.156544 
L 196.073143 202.262568 
z
" clip-path="url(#p2abc6dce87)" style="fill: #ff0000; stroke: #ff0000; stroke-width: 0.24"/>
    <path d="M 204.212268 206.524471 
L 199.733653 206.498255 
L 200.037471 205.60428 
L 182.157965 199.527931 
L 182.461782 198.633955 
L 200.341288 204.710305 
L 200.645106 203.816329 
z
" clip-path="url(#p2abc6dce87)" style="fill: #ff0000; stroke: #ff0000; stroke-width: 0.24"/>
    <path d="M 208.784419 208.078421 
L 204.305804 208.052205 
L 204.609622 207.15823 
L 186.730116 201.08188 
L 187.033933 200.187905 
L 204.913439 206.264254 
L 205.217257 205.370279 
z
" clip-path="url(#p2abc6dce87)" style="fill: #ff0000; stroke: #ff0000; stroke-width: 0.24"/>
    <path d="M 213.356382 209.632181 
L 208.877767 209.605966 
L 209.181584 208.711991 
L 191.302078 202.635641 
L 191.605896 201.741666 
L 209.485402 207.818015 
L 209.789219 206.92404 
z
" clip-path="url(#p2abc6dce87)" style="fill: #ff0000; stroke: #ff0000; stroke-width: 0.24"/>
    <path d="M 218.348003 209.83205 
L 213.874852 210.054766 
L 214.128519 209.145289 
L 195.938961 204.071954 
L 196.192627 203.162476 
L 214.382186 208.235811 
L 214.635852 207.326333 
z
" clip-path="url(#p2abc6dce87)" style="fill: #ff0000; stroke: #ff0000; stroke-width: 0.24"/>
    <path d="M 223.350643 209.721101 
L 218.897361 210.197504 
L 219.098966 209.275087 
L 200.650634 205.242988 
L 200.852239 204.320572 
L 219.300571 208.352671 
L 219.502176 207.430254 
z
" clip-path="url(#p2abc6dce87)" style="fill: #ff0000; stroke: #ff0000; stroke-width: 0.24"/>
    <path d="M 228.339063 209.326224 
L 223.920026 210.054779 
L 224.068918 209.122401 
L 205.421363 206.144573 
L 205.570254 205.212195 
L 224.217809 208.190023 
L 224.3667 207.257646 
z
" clip-path="url(#p2abc6dce87)" style="fill: #ff0000; stroke: #ff0000; stroke-width: 0.24"/>
    <path d="M 233.296795 208.648398 
L 228.926269 209.626754 
L 229.021966 208.687425 
L 210.235387 206.773481 
L 210.331084 205.834152 
L 229.117664 207.748096 
L 229.213361 206.808767 
z
" clip-path="url(#p2abc6dce87)" style="fill: #ff0000; stroke: #ff0000; stroke-width: 0.24"/>
    <path d="M 238.207994 207.69032 
L 233.900088 208.915318 
L 233.942282 207.972071 
L 215.077324 207.12819 
L 215.119518 206.184942 
L 233.984476 207.028823 
L 234.02667 206.085575 
z
" clip-path="url(#p2abc6dce87)" style="fill: #ff0000; stroke: #ff0000; stroke-width: 0.24"/>
    <path d="M 243.056978 206.454906 
L 238.825598 207.922592 
L 238.814153 206.97847 
L 219.931717 207.207373 
L 219.920272 206.263251 
L 238.802708 206.034349 
L 238.791263 205.090227 
z
" clip-path="url(#p2abc6dce87)" style="fill: #ff0000; stroke: #ff0000; stroke-width: 0.24"/>
    <path d="M 247.827911 204.946014 
L 243.686716 206.651649 
L 243.621669 205.709701 
L 224.782712 207.010649 
L 224.717665 206.068701 
L 243.556622 204.767753 
L 243.491574 203.825806 
z
" clip-path="url(#p2abc6dce87)" style="fill: #ff0000; stroke: #ff0000; stroke-width: 0.24"/>
    <path d="M 252.505459 203.168444 
L 248.46782 205.106524 
L 248.34938 204.169791 
L 229.614718 206.53859 
L 229.496278 205.601857 
L 248.23094 203.233057 
L 248.1125 202.296324 
z
" clip-path="url(#p2abc6dce87)" style="fill: #ff0000; stroke: #ff0000; stroke-width: 0.24"/>
    <path d="M 257.074497 201.128319 
L 253.153447 203.292586 
L 252.981997 202.364091 
L 234.41211 205.793092 
L 234.24066 204.864597 
L 252.810547 201.435597 
L 252.639097 200.507103 
z
" clip-path="url(#p2abc6dce87)" style="fill: #ff0000; stroke: #ff0000; stroke-width: 0.24"/>
    <path d="M 261.520304 198.831927 
L 257.728499 201.21539 
L 257.504593 200.298132 
L 239.159423 204.776245 
L 238.935518 203.858987 
L 257.280688 199.380873 
L 257.056782 198.463615 
z
" clip-path="url(#p2abc6dce87)" style="fill: #ff0000; stroke: #ff0000; stroke-width: 0.24"/>
    <path d="M 265.828488 196.286582 
L 262.178171 198.881551 
L 261.902532 197.97849 
L 243.841304 203.491278 
L 243.565665 202.588217 
L 261.626892 197.075429 
L 261.351253 196.172367 
z
" clip-path="url(#p2abc6dce87)" style="fill: #ff0000; stroke: #ff0000; stroke-width: 0.24"/>
    <path d="M 269.98518 193.50093 
L 266.488135 196.299028 
L 266.161652 195.413079 
L 248.442673 201.942746 
L 248.11619 201.056797 
L 265.835169 194.52713 
L 265.508685 193.641181 
z
" clip-path="url(#p2abc6dce87)" style="fill: #ff0000; stroke: #ff0000; stroke-width: 0.24"/>
    <path d="M 273.976949 190.483524 
L 270.644465 193.475719 
L 270.268191 192.609742 
L 252.948662 200.135209 
L 252.572388 199.269232 
L 269.891918 191.743766 
L 269.515645 190.877789 
z
" clip-path="url(#p2abc6dce87)" style="fill: #ff0000; stroke: #ff0000; stroke-width: 0.24"/>
    <path d="M 277.790908 187.244346 
L 274.633742 190.420977 
L 274.208894 189.577769 
L 257.344724 198.074741 
L 256.919875 197.231533 
L 273.784045 188.73456 
L 273.359196 187.891352 
z
" clip-path="url(#p2abc6dce87)" style="fill: #ff0000; stroke: #ff0000; stroke-width: 0.24"/>
    <path d="M 281.414695 183.793657 
L 278.44304 187.144471 
L 277.970988 186.326752 
L 261.61662 195.767801 
L 261.144567 194.950082 
L 277.498936 185.509034 
L 277.026883 184.691316 
z
" clip-path="url(#p2abc6dce87)" style="fill: #ff0000; stroke: #ff0000; stroke-width: 0.24"/>
    <path d="M 284.836711 180.142934 
L 282.060161 183.657113 
L 281.542428 182.867524 
L 265.750657 193.222171 
L 265.232924 192.432582 
L 281.024696 182.077936 
L 280.506964 181.288347 
z
" clip-path="url(#p2abc6dce87)" style="fill: #ff0000; stroke: #ff0000; stroke-width: 0.24"/>
    <path d="M 288.045787 176.303551 
L 285.473301 179.969747 
L 284.911561 179.210837 
L 269.733353 190.445639 
L 269.171613 189.686728 
L 284.349821 178.451926 
L 283.788081 177.693016 
z
" clip-path="url(#p2abc6dce87)" style="fill: #ff0000; stroke: #ff0000; stroke-width: 0.24"/>
    <path d="M 291.031861 172.288203 
L 288.671746 176.094584 
L 288.067811 175.368802 
L 273.552177 187.447508 
L 272.948241 186.721726 
L 287.463875 174.64302 
L 286.85994 173.917239 
z
" clip-path="url(#p2abc6dce87)" style="fill: #ff0000; stroke: #ff0000; stroke-width: 0.24"/>
    <path d="M 293.784723 168.109688 
L 291.644598 172.043967 
L 291.000418 171.353657 
L 277.194217 184.237273 
L 276.550036 183.546963 
L 290.356237 170.663346 
L 289.712056 169.973036 
z
" clip-path="url(#p2abc6dce87)" style="fill: #ff0000; stroke: #ff0000; stroke-width: 0.24"/>
    <path d="M 296.296037 163.781765 
L 294.382813 167.83124 
L 293.700466 167.17863 
L 280.648267 180.825566 
L 279.96592 180.172956 
L 293.018119 166.52602 
L 292.335772 165.87341 
z
" clip-path="url(#p2abc6dce87)" style="fill: #ff0000; stroke: #ff0000; stroke-width: 0.24"/>
    <path d="M 298.557456 159.318027 
L 296.877307 163.469627 
L 296.158997 162.856824 
L 283.902936 177.223024 
L 283.184626 176.610221 
L 295.440687 162.244021 
L 294.722377 161.631217 
z
" clip-path="url(#p2abc6dce87)" style="fill: #ff0000; stroke: #ff0000; stroke-width: 0.24"/>
    <path d="M 300.561741 154.733027 
L 299.120092 158.973348 
L 298.368138 158.40233 
L 286.947779 173.441418 
L 286.195824 172.8704 
L 297.616183 157.831312 
L 296.864229 157.260294 
z
" clip-path="url(#p2abc6dce87)" style="fill: #ff0000; stroke: #ff0000; stroke-width: 0.24"/>
    <path d="M 302.302378 150.041699 
L 301.103883 154.357054 
L 300.320711 153.829665 
L 289.772922 169.493091 
L 288.989751 168.965701 
L 299.53754 153.302275 
L 298.754369 152.774886 
z
" clip-path="url(#p2abc6dce87)" style="fill: #ff0000; stroke: #ff0000; stroke-width: 0.24"/>
    <path d="M 303.773753 145.258977 
L 302.82228 149.635435 
L 302.01042 149.153376 
L 292.369252 165.390575 
L 291.557392 164.908517 
L 301.19856 148.671318 
L 300.3867 148.189259 
z
" clip-path="url(#p2abc6dce87)" style="fill: #ff0000; stroke: #ff0000; stroke-width: 0.24"/>
    <path d="M 304.971245 140.40059 
L 304.269844 144.824019 
L 303.431919 144.388843 
L 294.728411 161.147355 
L 293.890485 160.712179 
L 302.593993 143.953668 
L 301.756068 143.518492 
z
" clip-path="url(#p2abc6dce87)" style="fill: #ff0000; stroke: #ff0000; stroke-width: 0.24"/>
    <path d="M 305.890512 135.481848 
L 305.441492 139.937974 
L 304.580201 139.551095 
L 296.842618 156.776906 
L 295.981328 156.390027 
L 303.718911 139.164216 
L 302.85762 138.777337 
z
" clip-path="url(#p2abc6dce87)" style="fill: #ff0000; stroke: #ff0000; stroke-width: 0.24"/>
    <path d="M 306.52937 130.518962 
L 306.334135 134.993397 
L 305.452264 134.656054 
L 298.705411 152.293478 
L 297.82354 151.956136 
L 304.570393 134.318711 
L 303.688521 133.981369 
z
" clip-path="url(#p2abc6dce87)" style="fill: #ff0000; stroke: #ff0000; stroke-width: 0.24"/>
    <path d="M 305.871016 128.607309 
L 305.930242 133.085609 
L 305.030633 132.798901 
L 299.296468 150.791069 
L 298.39686 150.50436 
L 304.131025 132.512192 
L 303.231416 132.225484 
z
" clip-path="url(#p2abc6dce87)" style="fill: #ff0000; stroke: #ff0000; stroke-width: 0.24"/>
    <path d="M 303.273309 132.883913 
L 303.586759 137.351623 
L 302.672321 137.116465 
L 297.969175 155.405237 
L 297.054736 155.17008 
L 301.757882 136.881308 
L 300.843444 136.646151 
z
" clip-path="url(#p2abc6dce87)" style="fill: #ff0000; stroke: #ff0000; stroke-width: 0.24"/>
    <path d="M 303.100247 128.46751 
L 303.637443 132.913868 
L 302.712358 132.724883 
L 298.932663 151.226577 
L 298.007578 151.037592 
L 301.787274 132.535899 
L 300.862189 132.346914 
z
" clip-path="url(#p2abc6dce87)" style="fill: #ff0000; stroke: #ff0000; stroke-width: 0.24"/>
    <path d="M 302.705725 124.065454 
L 303.465314 128.479262 
L 302.531913 128.336926 
L 299.685187 147.004945 
L 298.751786 146.862608 
L 301.598512 128.19459 
L 300.665111 128.052254 
z
" clip-path="url(#p2abc6dce87)" style="fill: #ff0000; stroke: #ff0000; stroke-width: 0.24"/>
    <path d="M 302.090922 119.688682 
L 303.07099 124.058824 
L 302.131623 123.963495 
L 300.225037 142.750823 
L 299.28567 142.655493 
L 301.192257 123.868166 
L 300.25289 123.772836 
z
" clip-path="url(#p2abc6dce87)" style="fill: #ff0000; stroke: #ff0000; stroke-width: 0.24"/>
    <path d="M 301.257415 115.348249 
L 302.455494 119.66372 
L 301.512528 119.615638 
L 300.550883 138.474959 
L 299.607917 138.426877 
L 300.569562 119.567555 
L 299.626596 119.519473 
z
" clip-path="url(#p2abc6dce87)" style="fill: #ff0000; stroke: #ff0000; stroke-width: 0.24"/>
    <path d="M 302.652409 111.175908 
L 303.646369 115.542912 
L 302.706704 115.450571 
L 300.859871 134.243866 
L 299.920207 134.151525 
L 301.76704 115.358229 
L 300.827375 115.265887 
z
" clip-path="url(#p2abc6dce87)" style="fill: #ff0000; stroke: #ff0000; stroke-width: 0.24"/>
    <path d="M 304.32781 107.086096 
L 305.10143 111.497467 
L 304.167581 111.3581 
L 301.380234 130.035076 
L 300.446385 129.895709 
L 303.233732 111.218733 
L 302.299883 111.079365 
z
" clip-path="url(#p2abc6dce87)" style="fill: #ff0000; stroke: #ff0000; stroke-width: 0.24"/>
    <path d="M 306.206487 103.085488 
L 306.757819 107.530115 
L 305.832138 107.344073 
L 302.111297 125.857692 
L 301.185616 125.67165 
L 304.906457 107.158031 
L 303.980776 106.971989 
z
" clip-path="url(#p2abc6dce87)" style="fill: #ff0000; stroke: #ff0000; stroke-width: 0.24"/>
    <path d="M 308.283484 99.184179 
L 308.61114 103.650869 
L 307.695958 103.418621 
L 303.050994 121.722257 
L 302.135812 121.490008 
L 306.780776 103.186373 
L 305.865595 102.954125 
z
" clip-path="url(#p2abc6dce87)" style="fill: #ff0000; stroke: #ff0000; stroke-width: 0.24"/>
    <path d="M 310.553495 95.39197 
L 310.656649 99.869474 
L 309.754272 99.591604 
L 304.196883 117.639158 
L 303.294505 117.361288 
L 308.851894 99.313735 
L 307.949516 99.035865 
z
" clip-path="url(#p2abc6dce87)" style="fill: #ff0000; stroke: #ff0000; stroke-width: 0.24"/>
    <path d="M 313.011061 91.718437 
L 312.889454 96.195477 
L 312.002153 95.872686 
L 305.546336 113.618705 
L 304.659035 113.295914 
L 311.114852 95.549896 
L 310.227551 95.227105 
z
" clip-path="url(#p2abc6dce87)" style="fill: #ff0000; stroke: #ff0000; stroke-width: 0.24"/>
    <path d="M 315.649634 88.172847 
L 315.303572 92.638149 
L 314.433582 92.271249 
L 307.095596 109.67104 
L 306.225606 109.304141 
L 313.563592 91.90435 
L 312.693603 91.537451 
z
" clip-path="url(#p2abc6dce87)" style="fill: #ff0000; stroke: #ff0000; stroke-width: 0.24"/>
    <path d="M 318.462904 84.763989 
L 317.893258 89.206307 
L 317.042771 88.796223 
L 308.841096 105.805964 
L 307.990609 105.39588 
L 316.192284 88.386139 
L 315.341797 87.976055 
z
" clip-path="url(#p2abc6dce87)" style="fill: #ff0000; stroke: #ff0000; stroke-width: 0.24"/>
    <path d="M 321.443674 81.500707 
L 320.651879 85.908852 
L 319.823036 85.456616 
L 310.778329 102.033469 
L 309.949486 101.581233 
L 318.994193 85.004381 
L 318.165351 84.552146 
z
" clip-path="url(#p2abc6dce87)" style="fill: #ff0000; stroke: #ff0000; stroke-width: 0.24"/>
    <path d="M 324.584245 78.390917 
L 323.572295 82.753788 
L 322.767184 82.26054 
L 312.902223 98.362754 
L 312.097113 97.869506 
L 321.962073 81.767292 
L 321.156962 81.274044 
z
" clip-path="url(#p2abc6dce87)" style="fill: #ff0000; stroke: #ff0000; stroke-width: 0.24"/>
    <path d="M 327.87693 75.442748 
L 326.647386 79.749359 
L 325.868033 79.216343 
L 315.207711 94.803398 
L 314.428358 94.270382 
L 325.088681 78.683327 
L 324.309328 78.150311 
z
" clip-path="url(#p2abc6dce87)" style="fill: #ff0000; stroke: #ff0000; stroke-width: 0.24"/>
    <path d="M 327.853247 77.380913 
L 326.409198 81.620418 
L 325.657567 81.048975 
L 314.228698 96.081597 
L 313.477067 95.510153 
L 324.905936 80.477532 
L 324.154305 79.906088 
z
" clip-path="url(#p2abc6dce87)" style="fill: #ff0000; stroke: #ff0000; stroke-width: 0.24"/>
    <path d="M 326.79709 79.88135 
L 325.223073 84.074339 
L 324.48941 83.480003 
L 312.602692 98.153268 
L 311.869029 97.558932 
L 323.755747 82.885667 
L 323.022084 82.291331 
z
" clip-path="url(#p2abc6dce87)" style="fill: #ff0000; stroke: #ff0000; stroke-width: 0.24"/>
    <path d="M 325.664234 82.348269 
L 323.961741 86.490756 
L 323.246743 85.874092 
L 310.913455 100.174048 
L 310.198457 99.557384 
L 322.531745 85.257427 
L 321.816747 84.640763 
z
" clip-path="url(#p2abc6dce87)" style="fill: #ff0000; stroke: #ff0000; stroke-width: 0.24"/>
    <path d="M 324.456013 84.77894 
L 322.626665 88.866992 
L 321.931011 88.228586 
L 309.162883 102.141661 
L 308.46723 101.503255 
L 321.235357 87.590179 
L 320.539704 86.951773 
z
" clip-path="url(#p2abc6dce87)" style="fill: #ff0000; stroke: #ff0000; stroke-width: 0.24"/>
    <path d="M 323.173449 87.171228 
L 321.218984 91.200961 
L 320.543335 90.541419 
L 307.352497 104.054396 
L 306.676848 103.394854 
L 319.867686 89.881877 
L 319.192037 89.222335 
z
" clip-path="url(#p2abc6dce87)" style="fill: #ff0000; stroke: #ff0000; stroke-width: 0.24"/>
    <path d="M 321.817561 89.522968 
L 319.739836 93.490553 
L 319.084834 92.810503 
L 305.483817 105.910545 
L 304.828815 105.230494 
L 318.429832 92.130452 
L 317.77483 91.450401 
z
" clip-path="url(#p2abc6dce87)" style="fill: #ff0000; stroke: #ff0000; stroke-width: 0.24"/>
    <path d="M 320.390139 91.831601 
L 318.191126 95.733271 
L 317.557393 95.033357 
L 303.559118 107.708019 
L 302.925385 107.008105 
L 316.92366 94.333443 
L 316.289927 93.633529 
z
" clip-path="url(#p2abc6dce87)" style="fill: #ff0000; stroke: #ff0000; stroke-width: 0.24"/>
    <path d="M 318.89204 94.095311 
L 316.57383 97.927358 
L 315.961968 97.208247 
L 301.579733 109.445487 
L 300.967871 108.726376 
L 315.350106 96.489135 
L 314.738244 95.770023 
z
" clip-path="url(#p2abc6dce87)" style="fill: #ff0000; stroke: #ff0000; stroke-width: 0.24"/>
    <path d="M 317.324897 96.311701 
L 314.889691 100.070485 
L 314.300282 99.332859 
L 299.547749 111.121053 
L 298.958339 110.383427 
L 313.710872 98.595232 
L 313.121462 97.857605 
z
" clip-path="url(#p2abc6dce87)" style="fill: #ff0000; stroke: #ff0000; stroke-width: 0.24"/>
    <path d="M 315.690165 98.478738 
L 313.140278 102.160687 
L 312.57388 101.405247 
L 297.465065 112.733197 
L 296.898668 111.977756 
L 312.007483 100.649806 
L 311.441085 99.894365 
z
" clip-path="url(#p2abc6dce87)" style="fill: #ff0000; stroke: #ff0000; stroke-width: 0.24"/>
    <path d="M 313.989509 100.594468 
L 311.327362 104.196086 
L 310.784515 103.423549 
L 295.33377 114.280493 
L 294.790922 113.507956 
L 310.241667 102.651012 
L 309.69882 101.878475 
z
" clip-path="url(#p2abc6dce87)" style="fill: #ff0000; stroke: #ff0000; stroke-width: 0.24"/>
    <path d="M 312.224606 102.656721 
L 309.452729 106.174586 
L 308.933948 105.385686 
L 293.155951 115.761311 
L 292.63717 114.972411 
L 308.415166 104.596787 
L 307.896385 103.807887 
z
" clip-path="url(#p2abc6dce87)" style="fill: #ff0000; stroke: #ff0000; stroke-width: 0.24"/>
    <path d="M 312.133333 103.582326 
L 309.254358 107.013097 
L 308.760136 106.208584 
L 292.669876 116.093032 
L 292.175654 115.288519 
L 308.265914 105.404071 
L 307.771691 104.599558 
z
" clip-path="url(#p2abc6dce87)" style="fill: #ff0000; stroke: #ff0000; stroke-width: 0.24"/>
    <path d="M 314.749782 102.859131 
L 311.766444 106.199547 
L 311.29725 105.380185 
L 294.910014 114.764067 
L 294.440819 113.944705 
L 310.828056 104.560824 
L 310.358862 103.741462 
z
" clip-path="url(#p2abc6dce87)" style="fill: #ff0000; stroke: #ff0000; stroke-width: 0.24"/>
    <path d="M 317.387005 102.216896 
L 314.302139 105.463785 
L 313.858419 104.630353 
L 297.189773 113.504753 
L 296.746053 112.671321 
L 313.414699 103.79692 
L 312.970979 102.963488 
z
" clip-path="url(#p2abc6dce87)" style="fill: #ff0000; stroke: #ff0000; stroke-width: 0.24"/>
    <path d="M 320.042985 101.656334 
L 316.859519 104.806607 
L 316.441696 103.959896 
L 299.507466 112.316368 
L 299.089642 111.469656 
L 316.023872 103.113184 
L 315.606048 102.266473 
z
" clip-path="url(#p2abc6dce87)" style="fill: #ff0000; stroke: #ff0000; stroke-width: 0.24"/>
    <path d="M 322.714939 101.177669 
L 319.435899 104.228337 
L 319.044368 103.369151 
L 301.860651 111.199773 
L 301.46912 110.340587 
L 318.652837 102.509965 
L 318.261306 101.65078 
z
" clip-path="url(#p2abc6dce87)" style="fill: #ff0000; stroke: #ff0000; stroke-width: 0.24"/>
    <path d="M 325.400509 100.781763 
L 322.029011 103.729928 
L 321.664144 102.859084 
L 304.247264 110.156416 
L 303.882398 109.285572 
L 321.299277 101.98824 
L 320.934411 101.117396 
z
" clip-path="url(#p2abc6dce87)" style="fill: #ff0000; stroke: #ff0000; stroke-width: 0.24"/>
    <path d="M 328.096779 100.468751 
L 324.636026 103.311613 
L 324.29817 102.429939 
L 306.664673 109.187049 
L 306.326818 108.305374 
L 323.960315 101.548264 
L 323.622459 100.666589 
z
" clip-path="url(#p2abc6dce87)" style="fill: #ff0000; stroke: #ff0000; stroke-width: 0.24"/>
    <path d="M 330.801421 100.23895 
L 327.2547 102.973808 
L 326.944177 102.08214 
L 309.110814 108.292609 
L 308.80029 107.400941 
L 326.633653 101.190471 
L 326.32313 100.298803 
z
" clip-path="url(#p2abc6dce87)" style="fill: #ff0000; stroke: #ff0000; stroke-width: 0.24"/>
    <path d="M 333.511937 100.092666 
L 329.882617 102.716922 
L 329.59972 101.816107 
L 311.583433 107.474036 
L 311.300537 106.573222 
L 329.316824 100.915293 
L 329.033927 100.014479 
z
" clip-path="url(#p2abc6dce87)" style="fill: #ff0000; stroke: #ff0000; stroke-width: 0.24"/>
    <path d="M 335.662353 100.189204 
L 331.953882 102.700364 
L 331.698881 101.791259 
L 313.516785 106.891272 
L 313.261784 105.982168 
L 331.443881 100.882154 
L 331.18888 99.973049 
z
" clip-path="url(#p2abc6dce87)" style="fill: #ff0000; stroke: #ff0000; stroke-width: 0.24"/>
    <path d="M 333.3118 101.546884 
L 329.527702 103.942563 
L 329.300839 103.026031 
L 310.970207 107.563284 
L 310.743344 106.646753 
L 329.073977 102.1095 
L 328.847114 101.192968 
z
" clip-path="url(#p2abc6dce87)" style="fill: #ff0000; stroke: #ff0000; stroke-width: 0.24"/>
    <path d="M 330.920655 102.831665 
L 327.064523 105.109587 
L 326.866014 104.1865 
L 308.404259 108.156682 
L 308.20575 107.233594 
L 326.667505 103.263412 
L 326.468996 102.340324 
z
" clip-path="url(#p2abc6dce87)" style="fill: #ff0000; stroke: #ff0000; stroke-width: 0.24"/>
    <path d="M 328.535706 104.020658 
L 324.612418 106.180865 
L 324.44193 105.252194 
L 305.868503 108.661972 
L 305.698014 107.733301 
L 324.271441 104.323522 
L 324.100952 103.394851 
z
" clip-path="url(#p2abc6dce87)" style="fill: #ff0000; stroke: #ff0000; stroke-width: 0.24"/>
    <path d="M 326.115758 105.136973 
L 322.128908 107.177491 
L 321.986595 106.244086 
L 303.318507 109.090358 
L 303.176193 108.156953 
L 321.844281 105.310682 
L 321.701967 104.377278 
z
" clip-path="url(#p2abc6dce87)" style="fill: #ff0000; stroke: #ff0000; stroke-width: 0.24"/>
    <path d="M 327.87671 105.613298 
L 323.829949 107.532258 
L 323.715941 106.594975 
L 304.970285 108.875133 
L 304.856277 107.93785 
L 323.601933 105.657692 
L 323.487926 104.720409 
z
" clip-path="url(#p2abc6dce87)" style="fill: #ff0000; stroke: #ff0000; stroke-width: 0.24"/>
    <path d="M 330.507767 106.037624 
L 326.404798 107.833266 
L 326.319201 106.892963 
L 307.513138 108.604905 
L 307.427541 107.664602 
L 326.233604 105.952659 
L 326.148007 105.012356 
z
" clip-path="url(#p2abc6dce87)" style="fill: #ff0000; stroke: #ff0000; stroke-width: 0.24"/>
    <path d="M 333.124527 106.541285 
L 328.969108 108.211966 
L 328.912 107.269504 
L 310.06275 108.41167 
L 310.005642 107.469208 
L 328.854892 106.327041 
L 328.797783 105.384579 
z
" clip-path="url(#p2abc6dce87)" style="fill: #ff0000; stroke: #ff0000; stroke-width: 0.24"/>
    <path d="M 335.725055 107.123839 
L 331.520991 108.66803 
L 331.492423 107.724271 
L 312.617246 108.295616 
L 312.588679 107.351857 
L 331.463856 106.780513 
L 331.435289 105.836754 
z
" clip-path="url(#p2abc6dce87)" style="fill: #ff0000; stroke: #ff0000; stroke-width: 0.24"/>
    <path d="M 338.306678 107.784836 
L 334.057818 109.201123 
L 334.057818 108.256932 
L 315.173995 108.256932 
L 315.173995 107.312741 
L 334.057818 107.312741 
L 334.057818 106.368549 
z
" clip-path="url(#p2abc6dce87)" style="fill: #ff0000; stroke: #ff0000; stroke-width: 0.24"/>
   </g>
   <g id="matplotlib.axis_1">
    <g id="xtick_1">
     <g id="line2d_1">
      <defs>
       <path id="mb46ff0e066" d="M 0 0 
L 0 -3 
" style="stroke: #000000"/>
      </defs>
      <g>
       <use xlink:href="#mb46ff0e066" x="46.353337" y="264.833588" style="stroke: #000000"/>
      </g>
     </g>
     <g id="text_1">
      <!-- −10.0 -->
      <g transform="translate(30.264548 278.411948) scale(0.105 -0.105)">
       <defs>
        <path id="DejaVuSans-2212" d="M 678 2272 
L 4684 2272 
L 4684 1741 
L 678 1741 
L 678 2272 
z
" transform="scale(0.015625)"/>
        <path id="DejaVuSans-31" d="M 794 531 
L 1825 531 
L 1825 4091 
L 703 3866 
L 703 4441 
L 1819 4666 
L 2450 4666 
L 2450 531 
L 3481 531 
L 3481 0 
L 794 0 
L 794 531 
z
" transform="scale(0.015625)"/>
        <path id="DejaVuSans-30" d="M 2034 4250 
Q 1547 4250 1301 3770 
Q 1056 3291 1056 2328 
Q 1056 1369 1301 889 
Q 1547 409 2034 409 
Q 2525 409 2770 889 
Q 3016 1369 3016 2328 
Q 3016 3291 2770 3770 
Q 2525 4250 2034 4250 
z
M 2034 4750 
Q 2819 4750 3233 4129 
Q 3647 3509 3647 2328 
Q 3647 1150 3233 529 
Q 2819 -91 2034 -91 
Q 1250 -91 836 529 
Q 422 1150 422 2328 
Q 422 3509 836 4129 
Q 1250 4750 2034 4750 
z
" transform="scale(0.015625)"/>
        <path id="DejaVuSans-2e" d="M 684 794 
L 1344 794 
L 1344 0 
L 684 0 
L 684 794 
z
" transform="scale(0.015625)"/>
       </defs>
       <use xlink:href="#DejaVuSans-2212"/>
       <use xlink:href="#DejaVuSans-31" x="83.789062"/>
       <use xlink:href="#DejaVuSans-30" x="147.412109"/>
       <use xlink:href="#DejaVuSans-2e" x="211.035156"/>
       <use xlink:href="#DejaVuSans-30" x="242.822266"/>
      </g>
     </g>
    </g>
    <g id="xtick_2">
     <g id="line2d_2">
      <g>
       <use xlink:href="#mb46ff0e066" x="93.562894" y="264.833588" style="stroke: #000000"/>
      </g>
     </g>
     <g id="text_2">
      <!-- −7.5 -->
      <g transform="translate(80.814417 278.411948) scale(0.105 -0.105)">
       <defs>
        <path id="DejaVuSans-37" d="M 525 4666 
L 3525 4666 
L 3525 4397 
L 1831 0 
L 1172 0 
L 2766 4134 
L 525 4134 
L 525 4666 
z
" transform="scale(0.015625)"/>
        <path id="DejaVuSans-35" d="M 691 4666 
L 3169 4666 
L 3169 4134 
L 1269 4134 
L 1269 2991 
Q 1406 3038 1543 3061 
Q 1681 3084 1819 3084 
Q 2600 3084 3056 2656 
Q 3513 2228 3513 1497 
Q 3513 744 3044 326 
Q 2575 -91 1722 -91 
Q 1428 -91 1123 -41 
Q 819 9 494 109 
L 494 744 
Q 775 591 1075 516 
Q 1375 441 1709 441 
Q 2250 441 2565 725 
Q 2881 1009 2881 1497 
Q 2881 1984 2565 2268 
Q 2250 2553 1709 2553 
Q 1456 2553 1204 2497 
Q 953 2441 691 2322 
L 691 4666 
z
" transform="scale(0.015625)"/>
       </defs>
       <use xlink:href="#DejaVuSans-2212"/>
       <use xlink:href="#DejaVuSans-37" x="83.789062"/>
       <use xlink:href="#DejaVuSans-2e" x="147.412109"/>
       <use xlink:href="#DejaVuSans-35" x="179.199219"/>
      </g>
     </g>
    </g>
    <g id="xtick_3">
     <g id="line2d_3">
      <g>
       <use xlink:href="#mb46ff0e066" x="140.77245" y="264.833588" style="stroke: #000000"/>
      </g>
     </g>
     <g id="text_3">
      <!-- −5.0 -->
      <g transform="translate(128.023974 278.411948) scale(0.105 -0.105)">
       <use xlink:href="#DejaVuSans-2212"/>
       <use xlink:href="#DejaVuSans-35" x="83.789062"/>
       <use xlink:href="#DejaVuSans-2e" x="147.412109"/>
       <use xlink:href="#DejaVuSans-30" x="179.199219"/>
      </g>
     </g>
    </g>
    <g id="xtick_4">
     <g id="line2d_4">
      <g>
       <use xlink:href="#mb46ff0e066" x="187.982007" y="264.833588" style="stroke: #000000"/>
      </g>
     </g>
     <g id="text_4">
      <!-- −2.5 -->
      <g transform="translate(175.233531 278.411948) scale(0.105 -0.105)">
       <defs>
        <path id="DejaVuSans-32" d="M 1228 531 
L 3431 531 
L 3431 0 
L 469 0 
L 469 531 
Q 828 903 1448 1529 
Q 2069 2156 2228 2338 
Q 2531 2678 2651 2914 
Q 2772 3150 2772 3378 
Q 2772 3750 2511 3984 
Q 2250 4219 1831 4219 
Q 1534 4219 1204 4116 
Q 875 4013 500 3803 
L 500 4441 
Q 881 4594 1212 4672 
Q 1544 4750 1819 4750 
Q 2544 4750 2975 4387 
Q 3406 4025 3406 3419 
Q 3406 3131 3298 2873 
Q 3191 2616 2906 2266 
Q 2828 2175 2409 1742 
Q 1991 1309 1228 531 
z
" transform="scale(0.015625)"/>
       </defs>
       <use xlink:href="#DejaVuSans-2212"/>
       <use xlink:href="#DejaVuSans-32" x="83.789062"/>
       <use xlink:href="#DejaVuSans-2e" x="147.412109"/>
       <use xlink:href="#DejaVuSans-35" x="179.199219"/>
      </g>
     </g>
    </g>
    <g id="xtick_5">
     <g id="line2d_5">
      <g>
       <use xlink:href="#mb46ff0e066" x="235.191564" y="264.833588" style="stroke: #000000"/>
      </g>
     </g>
     <g id="text_5">
      <!-- 0.0 -->
      <g transform="translate(226.842423 278.411948) scale(0.105 -0.105)">
       <use xlink:href="#DejaVuSans-30"/>
       <use xlink:href="#DejaVuSans-2e" x="63.623047"/>
       <use xlink:href="#DejaVuSans-30" x="95.410156"/>
      </g>
     </g>
    </g>
    <g id="xtick_6">
     <g id="line2d_6">
      <g>
       <use xlink:href="#mb46ff0e066" x="282.401121" y="264.833588" style="stroke: #000000"/>
      </g>
     </g>
     <g id="text_6">
      <!-- 2.5 -->
      <g transform="translate(274.05198 278.411948) scale(0.105 -0.105)">
       <use xlink:href="#DejaVuSans-32"/>
       <use xlink:href="#DejaVuSans-2e" x="63.623047"/>
       <use xlink:href="#DejaVuSans-35" x="95.410156"/>
      </g>
     </g>
    </g>
    <g id="xtick_7">
     <g id="line2d_7">
      <g>
       <use xlink:href="#mb46ff0e066" x="329.610677" y="264.833588" style="stroke: #000000"/>
      </g>
     </g>
     <g id="text_7">
      <!-- 5.0 -->
      <g transform="translate(321.261537 278.411948) scale(0.105 -0.105)">
       <use xlink:href="#DejaVuSans-35"/>
       <use xlink:href="#DejaVuSans-2e" x="63.623047"/>
       <use xlink:href="#DejaVuSans-30" x="95.410156"/>
      </g>
     </g>
    </g>
    <g id="xtick_8">
     <g id="line2d_8">
      <g>
       <use xlink:href="#mb46ff0e066" x="376.820234" y="264.833588" style="stroke: #000000"/>
      </g>
     </g>
     <g id="text_8">
      <!-- 7.5 -->
      <g transform="translate(368.471093 278.411948) scale(0.105 -0.105)">
       <use xlink:href="#DejaVuSans-37"/>
       <use xlink:href="#DejaVuSans-2e" x="63.623047"/>
       <use xlink:href="#DejaVuSans-35" x="95.410156"/>
      </g>
     </g>
    </g>
    <g id="xtick_9">
     <g id="line2d_9">
      <g>
       <use xlink:href="#mb46ff0e066" x="424.029791" y="264.833588" style="stroke: #000000"/>
      </g>
     </g>
     <g id="text_9">
      <!-- 10.0 -->
      <g transform="translate(412.340338 278.411948) scale(0.105 -0.105)">
       <use xlink:href="#DejaVuSans-31"/>
       <use xlink:href="#DejaVuSans-30" x="63.623047"/>
       <use xlink:href="#DejaVuSans-2e" x="127.246094"/>
       <use xlink:href="#DejaVuSans-30" x="159.033203"/>
      </g>
     </g>
    </g>
   </g>
   <g id="matplotlib.axis_2">
    <g id="ytick_1">
     <g id="line2d_10">
      <defs>
       <path id="m620c6da835" d="M 0 0 
L 3 0 
" style="stroke: #000000"/>
      </defs>
      <g>
       <use xlink:href="#m620c6da835" x="31.88" y="244.692551" style="stroke: #000000"/>
      </g>
     </g>
     <g id="text_10">
      <!-- −6 -->
      <g transform="translate(10.800703 248.68173) scale(0.105 -0.105)">
       <defs>
        <path id="DejaVuSans-36" d="M 2113 2584 
Q 1688 2584 1439 2293 
Q 1191 2003 1191 1497 
Q 1191 994 1439 701 
Q 1688 409 2113 409 
Q 2538 409 2786 701 
Q 3034 994 3034 1497 
Q 3034 2003 2786 2293 
Q 2538 2584 2113 2584 
z
M 3366 4563 
L 3366 3988 
Q 3128 4100 2886 4159 
Q 2644 4219 2406 4219 
Q 1781 4219 1451 3797 
Q 1122 3375 1075 2522 
Q 1259 2794 1537 2939 
Q 1816 3084 2150 3084 
Q 2853 3084 3261 2657 
Q 3669 2231 3669 1497 
Q 3669 778 3244 343 
Q 2819 -91 2113 -91 
Q 1303 -91 875 529 
Q 447 1150 447 2328 
Q 447 3434 972 4092 
Q 1497 4750 2381 4750 
Q 2619 4750 2861 4703 
Q 3103 4656 3366 4563 
z
" transform="scale(0.015625)"/>
       </defs>
       <use xlink:href="#DejaVuSans-2212"/>
       <use xlink:href="#DejaVuSans-36" x="83.789062"/>
      </g>
     </g>
    </g>
    <g id="ytick_2">
     <g id="line2d_11">
      <g>
       <use xlink:href="#m620c6da835" x="31.88" y="206.924905" style="stroke: #000000"/>
      </g>
     </g>
     <g id="text_11">
      <!-- −4 -->
      <g transform="translate(10.800703 210.914085) scale(0.105 -0.105)">
       <defs>
        <path id="DejaVuSans-34" d="M 2419 4116 
L 825 1625 
L 2419 1625 
L 2419 4116 
z
M 2253 4666 
L 3047 4666 
L 3047 1625 
L 3713 1625 
L 3713 1100 
L 3047 1100 
L 3047 0 
L 2419 0 
L 2419 1100 
L 313 1100 
L 313 1709 
L 2253 4666 
z
" transform="scale(0.015625)"/>
       </defs>
       <use xlink:href="#DejaVuSans-2212"/>
       <use xlink:href="#DejaVuSans-34" x="83.789062"/>
      </g>
     </g>
    </g>
    <g id="ytick_3">
     <g id="line2d_12">
      <g>
       <use xlink:href="#m620c6da835" x="31.88" y="169.15726" style="stroke: #000000"/>
      </g>
     </g>
     <g id="text_12">
      <!-- −2 -->
      <g transform="translate(10.800703 173.14644) scale(0.105 -0.105)">
       <use xlink:href="#DejaVuSans-2212"/>
       <use xlink:href="#DejaVuSans-32" x="83.789062"/>
      </g>
     </g>
    </g>
    <g id="ytick_4">
     <g id="line2d_13">
      <g>
       <use xlink:href="#m620c6da835" x="31.88" y="131.389614" style="stroke: #000000"/>
      </g>
     </g>
     <g id="text_13">
      <!-- 0 -->
      <g transform="translate(19.599375 135.378794) scale(0.105 -0.105)">
       <use xlink:href="#DejaVuSans-30"/>
      </g>
     </g>
    </g>
    <g id="ytick_5">
     <g id="line2d_14">
      <g>
       <use xlink:href="#m620c6da835" x="31.88" y="93.621969" style="stroke: #000000"/>
      </g>
     </g>
     <g id="text_14">
      <!-- 2 -->
      <g transform="translate(19.599375 97.611149) scale(0.105 -0.105)">
       <use xlink:href="#DejaVuSans-32"/>
      </g>
     </g>
    </g>
    <g id="ytick_6">
     <g id="line2d_15">
      <g>
       <use xlink:href="#m620c6da835" x="31.88" y="55.854324" style="stroke: #000000"/>
      </g>
     </g>
     <g id="text_15">
      <!-- 4 -->
      <g transform="translate(19.599375 59.843503) scale(0.105 -0.105)">
       <use xlink:href="#DejaVuSans-34"/>
      </g>
     </g>
    </g>
   </g>
   <g id="patch_3">
    <path d="M 31.88 264.833588 
L 31.88 51.966412 
" style="fill: none; stroke: #000000; stroke-width: 0.8; stroke-linejoin: miter; stroke-linecap: square"/>
   </g>
   <g id="patch_4">
    <path d="M 450 264.833588 
L 450 51.966412 
" style="fill: none; stroke: #000000; stroke-width: 0.8; stroke-linejoin: miter; stroke-linecap: square"/>
   </g>
   <g id="patch_5">
    <path d="M 31.88 264.833588 
L 450 264.833588 
" style="fill: none; stroke: #000000; stroke-width: 0.8; stroke-linejoin: miter; stroke-linecap: square"/>
   </g>
   <g id="patch_6">
    <path d="M 31.88 51.966412 
L 450 51.966412 
" style="fill: none; stroke: #000000; stroke-width: 0.8; stroke-linejoin: miter; stroke-linecap: square"/>
   </g>
  </g>
 </g>
 <defs>
  <clipPath id="p2abc6dce87">
   <rect x="31.88" y="51.966412" width="418.12" height="212.867176"/>
  </clipPath>
 </defs>
</svg>
