<?xml version="1.0" encoding="utf-8" standalone="no"?>
<!DOCTYPE svg PUBLIC "-//W3C//DTD SVG 1.1//EN"
  "http://www.w3.org/Graphics/SVG/1.1/DTD/svg11.dtd">
<svg xmlns:xlink="http://www.w3.org/1999/xlink" width="460.8pt" height="316.8pt" viewBox="0 0 460.8 316.8" xmlns="http://www.w3.org/2000/svg" version="1.1">
 <metadata>
  <rdf:RDF xmlns:dc="http://purl.org/dc/elements/1.1/" xmlns:cc="http://creativecommons.org/ns#" xmlns:rdf="http://www.w3.org/1999/02/22-rdf-syntax-ns#">
   <cc:Work>
    <dc:type rdf:resource="http://purl.org/dc/dcmitype/StillImage"/>
    <dc:date>2024-01-11T15:46:22.808362</dc:date>
    <dc:format>image/svg+xml</dc:format>
    <dc:creator>
     <cc:Agent>
      <dc:title>Matplotlib v3.7.2, https://matplotlib.org/</dc:title>
     </cc:Agent>
    </dc:creator>
   </cc:Work>
  </rdf:RDF>
 </metadata>
 <defs>
  <style type="text/css">*{stroke-linejoin: round; stroke-linecap: butt}</style>
 </defs>
 <g id="figure_1">
  <g id="patch_1">
   <path d="M 0 316.8 
L 460.8 316.8 
L 460.8 0 
L 0 0 
z
" style="fill: #ffffff"/>
  </g>
  <g id="axes_1">
   <g id="patch_2">
    <path d="M 31.88 254.750348 
L 450 254.750348 
L 450 62.049652 
L 31.88 62.049652 
z
" style="fill: #ffffff"/>
   </g>
   <g id="PatchCollection_1">
    <path d="M 235.191564 160.893111 
L 348.4945 160.893111 
L 348.4945 113.683554 
L 235.191564 113.683554 
z
" clip-path="url(#p5e96a1f53b)" style="fill: #ffffff; stroke: #0000ff; stroke-width: 3"/>
    <path d="M 129.442157 149.562817 
L 216.643185 164.938711 
L 223.011278 128.823464 
L 135.810249 113.44757 
z
" clip-path="url(#p5e96a1f53b)" style="fill: #ff0000; stroke: #ff0000; stroke-width: 2"/>
    <path d="M 344.717735 170.335022 
L 430.994545 150.416451 
L 422.745054 114.683978 
L 336.468244 134.602549 
z
" clip-path="url(#p5e96a1f53b)" style="fill: #ff0000; stroke: #ff0000; stroke-width: 2"/>
   </g>
   <g id="PatchCollection_2">
    <path d="M 50.885455 231.159815 
L 139.431699 231.159815 
L 139.431699 194.487431 
L 50.885455 194.487431 
L 50.885455 231.159815 
z
" clip-path="url(#p5e96a1f53b)" style="fill: none; stroke: #000000; stroke-width: 0.5"/>
    <path d="M 55.85046 234.401961 
L 144.297644 230.214728 
L 142.563457 193.583371 
L 54.116272 197.770604 
L 55.85046 234.401961 
z
" clip-path="url(#p5e96a1f53b)" style="fill: none; stroke: #000000; stroke-width: 0.5"/>
    <path d="M 60.96315 237.405453 
L 149.113377 229.040356 
L 145.648882 192.531987 
L 57.498655 200.897084 
L 60.96315 237.405453 
z
" clip-path="url(#p5e96a1f53b)" style="fill: none; stroke: #000000; stroke-width: 0.5"/>
    <path d="M 65.612417 238.691957 
L 153.52218 228.094264 
L 149.133031 191.685486 
L 61.223268 202.283179 
L 65.612417 238.691957 
z
" clip-path="url(#p5e96a1f53b)" style="fill: none; stroke: #000000; stroke-width: 0.5"/>
    <path d="M 69.603513 238.210986 
L 157.513276 227.613293 
L 153.124127 191.204515 
L 65.214364 201.802208 
L 69.603513 238.210986 
z
" clip-path="url(#p5e96a1f53b)" style="fill: none; stroke: #000000; stroke-width: 0.5"/>
    <path d="M 73.594609 237.729826 
L 161.504372 227.132133 
L 157.115223 190.723356 
L 69.20546 201.321048 
L 73.594609 237.729826 
z
" clip-path="url(#p5e96a1f53b)" style="fill: none; stroke: #000000; stroke-width: 0.5"/>
    <path d="M 77.585705 237.248666 
L 165.495467 226.650974 
L 161.106318 190.242196 
L 73.196556 200.839889 
L 77.585705 237.248666 
z
" clip-path="url(#p5e96a1f53b)" style="fill: none; stroke: #000000; stroke-width: 0.5"/>
    <path d="M 81.576612 236.767507 
L 169.486375 226.169814 
L 165.097226 189.761036 
L 77.187463 200.358729 
L 81.576612 236.767507 
z
" clip-path="url(#p5e96a1f53b)" style="fill: none; stroke: #000000; stroke-width: 0.5"/>
    <path d="M 85.567708 236.286347 
L 173.47747 225.688654 
L 169.088321 189.279876 
L 81.178559 199.877569 
L 85.567708 236.286347 
z
" clip-path="url(#p5e96a1f53b)" style="fill: none; stroke: #000000; stroke-width: 0.5"/>
    <path d="M 89.558804 235.805187 
L 177.468566 225.207494 
L 173.079417 188.798716 
L 85.169655 199.396409 
L 89.558804 235.805187 
z
" clip-path="url(#p5e96a1f53b)" style="fill: none; stroke: #000000; stroke-width: 0.5"/>
    <path d="M 93.5499 235.324027 
L 181.459662 224.726334 
L 177.070513 188.317557 
L 89.160751 198.915249 
L 93.5499 235.324027 
z
" clip-path="url(#p5e96a1f53b)" style="fill: none; stroke: #000000; stroke-width: 0.5"/>
    <path d="M 97.540996 234.843056 
L 185.450758 224.245363 
L 181.061609 187.836586 
L 93.151847 198.434278 
L 97.540996 234.843056 
z
" clip-path="url(#p5e96a1f53b)" style="fill: none; stroke: #000000; stroke-width: 0.5"/>
    <path d="M 101.531903 234.361896 
L 189.441665 223.764204 
L 185.052516 187.355426 
L 97.142754 197.953119 
L 101.531903 234.361896 
z
" clip-path="url(#p5e96a1f53b)" style="fill: none; stroke: #000000; stroke-width: 0.5"/>
    <path d="M 105.522999 233.880737 
L 193.432761 223.283044 
L 189.043612 186.874266 
L 101.13385 197.471959 
L 105.522999 233.880737 
z
" clip-path="url(#p5e96a1f53b)" style="fill: none; stroke: #000000; stroke-width: 0.5"/>
    <path d="M 109.514095 233.399577 
L 197.423857 222.801884 
L 193.034708 186.393106 
L 105.124946 196.990799 
L 109.514095 233.399577 
z
" clip-path="url(#p5e96a1f53b)" style="fill: none; stroke: #000000; stroke-width: 0.5"/>
    <path d="M 113.505191 232.918417 
L 201.414953 222.320724 
L 197.025804 185.911946 
L 109.116042 196.509639 
L 113.505191 232.918417 
z
" clip-path="url(#p5e96a1f53b)" style="fill: none; stroke: #000000; stroke-width: 0.5"/>
    <path d="M 117.496287 232.437257 
L 205.406049 221.839564 
L 201.0169 185.430787 
L 113.107138 196.028479 
L 117.496287 232.437257 
z
" clip-path="url(#p5e96a1f53b)" style="fill: none; stroke: #000000; stroke-width: 0.5"/>
    <path d="M 121.487194 231.956286 
L 209.396956 221.358593 
L 205.007807 184.949816 
L 117.098045 195.547509 
L 121.487194 231.956286 
z
" clip-path="url(#p5e96a1f53b)" style="fill: none; stroke: #000000; stroke-width: 0.5"/>
    <path d="M 125.47829 231.475126 
L 213.388052 220.877434 
L 208.998903 184.468656 
L 121.089141 195.066349 
L 125.47829 231.475126 
z
" clip-path="url(#p5e96a1f53b)" style="fill: none; stroke: #000000; stroke-width: 0.5"/>
    <path d="M 129.469386 230.993967 
L 217.379148 220.396274 
L 212.989999 183.987496 
L 125.080237 194.585189 
L 129.469386 230.993967 
z
" clip-path="url(#p5e96a1f53b)" style="fill: none; stroke: #000000; stroke-width: 0.5"/>
    <path d="M 133.460481 230.512807 
L 221.370244 219.915114 
L 216.981095 183.506336 
L 129.071332 194.104029 
L 133.460481 230.512807 
z
" clip-path="url(#p5e96a1f53b)" style="fill: none; stroke: #000000; stroke-width: 0.5"/>
    <path d="M 137.451577 230.031647 
L 225.36134 219.433954 
L 220.972191 183.025176 
L 133.062428 193.622869 
L 137.451577 230.031647 
z
" clip-path="url(#p5e96a1f53b)" style="fill: none; stroke: #000000; stroke-width: 0.5"/>
    <path d="M 141.442484 229.550487 
L 229.352247 218.952794 
L 224.963098 182.544017 
L 137.053335 193.14171 
L 141.442484 229.550487 
z
" clip-path="url(#p5e96a1f53b)" style="fill: none; stroke: #000000; stroke-width: 0.5"/>
    <path d="M 145.43358 229.069327 
L 233.343343 218.471635 
L 228.954194 182.062857 
L 141.044431 192.66055 
L 145.43358 229.069327 
z
" clip-path="url(#p5e96a1f53b)" style="fill: none; stroke: #000000; stroke-width: 0.5"/>
    <path d="M 149.424695 228.588356 
L 237.334458 217.990664 
L 232.945309 181.581886 
L 145.035546 192.179579 
L 149.424695 228.588356 
z
" clip-path="url(#p5e96a1f53b)" style="fill: none; stroke: #000000; stroke-width: 0.5"/>
    <path d="M 153.415753 228.107197 
L 241.325516 217.509504 
L 236.936367 181.100726 
L 149.026604 191.698419 
L 153.415753 228.107197 
z
" clip-path="url(#p5e96a1f53b)" style="fill: none; stroke: #000000; stroke-width: 0.5"/>
    <path d="M 157.406811 227.626037 
L 245.316574 217.028344 
L 240.927425 180.619566 
L 153.017663 191.217259 
L 157.406811 227.626037 
z
" clip-path="url(#p5e96a1f53b)" style="fill: none; stroke: #000000; stroke-width: 0.5"/>
    <path d="M 161.39787 227.144877 
L 249.307632 216.547184 
L 244.918483 180.138407 
L 157.008721 190.736099 
L 161.39787 227.144877 
z
" clip-path="url(#p5e96a1f53b)" style="fill: none; stroke: #000000; stroke-width: 0.5"/>
    <path d="M 165.388924 226.663717 
L 253.298686 216.066024 
L 248.909537 179.657247 
L 160.999775 190.25494 
L 165.388924 226.663717 
z
" clip-path="url(#p5e96a1f53b)" style="fill: none; stroke: #000000; stroke-width: 0.5"/>
    <path d="M 169.379986 226.182557 
L 257.289748 215.584865 
L 252.900599 179.176087 
L 164.990837 189.77378 
L 169.379986 226.182557 
z
" clip-path="url(#p5e96a1f53b)" style="fill: none; stroke: #000000; stroke-width: 0.5"/>
    <path d="M 173.371044 225.701586 
L 261.280807 215.103894 
L 256.891658 178.695116 
L 168.981895 189.292809 
L 173.371044 225.701586 
z
" clip-path="url(#p5e96a1f53b)" style="fill: none; stroke: #000000; stroke-width: 0.5"/>
    <path d="M 177.362102 225.220427 
L 265.271865 214.622734 
L 260.882716 178.213956 
L 172.972953 188.811649 
L 177.362102 225.220427 
z
" clip-path="url(#p5e96a1f53b)" style="fill: none; stroke: #000000; stroke-width: 0.5"/>
    <path d="M 181.35316 224.739267 
L 269.262923 214.141574 
L 264.873774 177.732796 
L 176.964011 188.330489 
L 181.35316 224.739267 
z
" clip-path="url(#p5e96a1f53b)" style="fill: none; stroke: #000000; stroke-width: 0.5"/>
    <path d="M 185.344219 224.258107 
L 273.253981 213.660414 
L 268.864832 177.251637 
L 180.95507 187.849329 
L 185.344219 224.258107 
z
" clip-path="url(#p5e96a1f53b)" style="fill: none; stroke: #000000; stroke-width: 0.5"/>
    <path d="M 189.335258 223.776947 
L 277.24502 213.179254 
L 272.855871 176.770477 
L 184.946109 187.36817 
L 189.335258 223.776947 
z
" clip-path="url(#p5e96a1f53b)" style="fill: none; stroke: #000000; stroke-width: 0.5"/>
    <path d="M 193.326354 223.295787 
L 281.236116 212.698095 
L 276.846967 176.289317 
L 188.937205 186.88701 
L 193.326354 223.295787 
z
" clip-path="url(#p5e96a1f53b)" style="fill: none; stroke: #000000; stroke-width: 0.5"/>
    <path d="M 197.31745 222.814816 
L 285.227212 212.217124 
L 280.838063 175.808346 
L 192.928301 186.406039 
L 197.31745 222.814816 
z
" clip-path="url(#p5e96a1f53b)" style="fill: none; stroke: #000000; stroke-width: 0.5"/>
    <path d="M 201.308546 222.333657 
L 289.218308 211.735964 
L 284.829159 175.327186 
L 196.919397 185.924879 
L 201.308546 222.333657 
z
" clip-path="url(#p5e96a1f53b)" style="fill: none; stroke: #000000; stroke-width: 0.5"/>
    <path d="M 205.299453 221.852497 
L 293.209215 211.254804 
L 288.820066 174.846026 
L 200.910304 185.443719 
L 205.299453 221.852497 
z
" clip-path="url(#p5e96a1f53b)" style="fill: none; stroke: #000000; stroke-width: 0.5"/>
    <path d="M 209.290549 221.371337 
L 297.200311 210.773644 
L 292.811162 174.364867 
L 204.9014 184.962559 
L 209.290549 221.371337 
z
" clip-path="url(#p5e96a1f53b)" style="fill: none; stroke: #000000; stroke-width: 0.5"/>
    <path d="M 213.281645 220.890177 
L 301.191407 210.292484 
L 296.802258 173.883707 
L 208.892496 184.4814 
L 213.281645 220.890177 
z
" clip-path="url(#p5e96a1f53b)" style="fill: none; stroke: #000000; stroke-width: 0.5"/>
    <path d="M 217.27274 220.409017 
L 305.182503 209.811325 
L 300.793354 173.402547 
L 212.883592 184.00024 
L 217.27274 220.409017 
z
" clip-path="url(#p5e96a1f53b)" style="fill: none; stroke: #000000; stroke-width: 0.5"/>
    <path d="M 221.263836 219.927858 
L 309.173599 209.330165 
L 304.78445 172.921387 
L 216.874687 183.51908 
L 221.263836 219.927858 
z
" clip-path="url(#p5e96a1f53b)" style="fill: none; stroke: #000000; stroke-width: 0.5"/>
    <path d="M 225.254743 219.446887 
L 313.164506 208.849194 
L 308.775357 172.440416 
L 220.865595 183.038109 
L 225.254743 219.446887 
z
" clip-path="url(#p5e96a1f53b)" style="fill: none; stroke: #000000; stroke-width: 0.5"/>
    <path d="M 229.245839 218.965727 
L 317.155602 208.368034 
L 312.766453 171.959256 
L 224.85669 182.556949 
L 229.245839 218.965727 
z
" clip-path="url(#p5e96a1f53b)" style="fill: none; stroke: #000000; stroke-width: 0.5"/>
    <path d="M 233.236935 218.484567 
L 321.146698 207.886874 
L 316.757549 171.478097 
L 228.847786 182.075789 
L 233.236935 218.484567 
z
" clip-path="url(#p5e96a1f53b)" style="fill: none; stroke: #000000; stroke-width: 0.5"/>
    <path d="M 237.228031 218.003407 
L 325.137794 207.405714 
L 320.748645 170.996937 
L 232.838882 181.59463 
L 237.228031 218.003407 
z
" clip-path="url(#p5e96a1f53b)" style="fill: none; stroke: #000000; stroke-width: 0.5"/>
    <path d="M 240.200144 214.801042 
L 328.467261 207.775842 
L 325.557699 171.219062 
L 237.290582 178.244262 
L 240.200144 214.801042 
z
" clip-path="url(#p5e96a1f53b)" style="fill: none; stroke: #000000; stroke-width: 0.5"/>
    <path d="M 243.160325 211.272063 
L 331.660907 208.428757 
L 330.483321 171.775284 
L 241.982739 174.618591 
L 243.160325 211.272063 
z
" clip-path="url(#p5e96a1f53b)" style="fill: none; stroke: #000000; stroke-width: 0.5"/>
    <path d="M 246.284016 207.88676 
L 334.820046 209.231708 
L 335.377071 172.563555 
L 246.841041 171.218607 
L 246.284016 207.88676 
z
" clip-path="url(#p5e96a1f53b)" style="fill: none; stroke: #000000; stroke-width: 0.5"/>
    <path d="M 248.386257 205.779633 
L 336.839818 209.829936 
L 338.517295 173.195938 
L 250.063734 169.145635 
L 248.386257 205.779633 
z
" clip-path="url(#p5e96a1f53b)" style="fill: none; stroke: #000000; stroke-width: 0.5"/>
    <path d="M 250.551775 203.737543 
L 338.84022 210.489425 
L 341.636585 173.923812 
L 253.34814 167.171929 
L 250.551775 203.737543 
z
" clip-path="url(#p5e96a1f53b)" style="fill: none; stroke: #000000; stroke-width: 0.5"/>
    <path d="M 252.778898 201.762566 
L 340.819736 211.209701 
L 344.732369 174.746637 
L 256.691531 165.299502 
L 252.778898 201.762566 
z
" clip-path="url(#p5e96a1f53b)" style="fill: none; stroke: #000000; stroke-width: 0.5"/>
    <path d="M 255.065308 199.856704 
L 342.776269 211.990327 
L 347.80154 175.663886 
L 260.090579 163.530263 
L 255.065308 199.856704 
z
" clip-path="url(#p5e96a1f53b)" style="fill: none; stroke: #000000; stroke-width: 0.5"/>
    <path d="M 257.408838 198.021404 
L 344.70798 212.83009 
L 350.841158 176.674207 
L 263.542015 161.865521 
L 257.408838 198.021404 
z
" clip-path="url(#p5e96a1f53b)" style="fill: none; stroke: #000000; stroke-width: 0.5"/>
    <path d="M 259.807421 196.258864 
L 346.613179 213.728777 
L 353.848532 177.777234 
L 267.042774 160.307322 
L 259.807421 196.258864 
z
" clip-path="url(#p5e96a1f53b)" style="fill: none; stroke: #000000; stroke-width: 0.5"/>
    <path d="M 262.258556 194.570346 
L 348.489804 214.685249 
L 356.820608 178.971646 
L 270.58936 158.856743 
L 262.258556 194.570346 
z
" clip-path="url(#p5e96a1f53b)" style="fill: none; stroke: #000000; stroke-width: 0.5"/>
    <path d="M 264.760442 192.957522 
L 350.336629 215.698534 
L 359.755065 180.256232 
L 274.178878 157.51522 
L 264.760442 192.957522 
z
" clip-path="url(#p5e96a1f53b)" style="fill: none; stroke: #000000; stroke-width: 0.5"/>
    <path d="M 267.310263 191.421774 
L 352.151407 216.767733 
L 362.64871 181.629856 
L 277.807565 156.283898 
L 267.310263 191.421774 
z
" clip-path="url(#p5e96a1f53b)" style="fill: none; stroke: #000000; stroke-width: 0.5"/>
    <path d="M 269.90589 189.964965 
L 353.932746 217.892102 
L 365.499071 183.091473 
L 281.472216 155.164335 
L 269.90589 189.964965 
z
" clip-path="url(#p5e96a1f53b)" style="fill: none; stroke: #000000; stroke-width: 0.5"/>
    <path d="M 272.544768 188.587905 
L 355.678794 219.070213 
L 368.303371 184.639357 
L 285.169345 154.15705 
L 272.544768 188.587905 
z
" clip-path="url(#p5e96a1f53b)" style="fill: none; stroke: #000000; stroke-width: 0.5"/>
    <path d="M 275.224631 187.292263 
L 357.388182 220.301175 
L 371.05918 186.272253 
L 288.895628 153.263341 
L 275.224631 187.292263 
z
" clip-path="url(#p5e96a1f53b)" style="fill: none; stroke: #000000; stroke-width: 0.5"/>
    <path d="M 277.942803 186.07903 
L 359.059075 221.583787 
L 373.763754 187.988606 
L 292.647481 152.483849 
L 277.942803 186.07903 
z
" clip-path="url(#p5e96a1f53b)" style="fill: none; stroke: #000000; stroke-width: 0.5"/>
    <path d="M 277.887726 183.647627 
L 357.880964 221.614973 
L 373.60555 188.48491 
L 293.612313 150.517563 
L 277.887726 183.647627 
z
" clip-path="url(#p5e96a1f53b)" style="fill: none; stroke: #000000; stroke-width: 0.5"/>
    <path d="M 276.016267 180.303885 
L 354.811729 220.698347 
L 371.541532 188.064355 
L 292.746069 147.669894 
L 276.016267 180.303885 
z
" clip-path="url(#p5e96a1f53b)" style="fill: none; stroke: #000000; stroke-width: 0.5"/>
    <path d="M 274.247933 176.904277 
L 351.771956 219.68819 
L 369.491376 187.580779 
L 291.967353 144.796866 
L 274.247933 176.904277 
z
" clip-path="url(#p5e96a1f53b)" style="fill: none; stroke: #000000; stroke-width: 0.5"/>
    <path d="M 272.584277 173.452492 
L 348.764469 218.585803 
L 367.456918 187.034954 
L 291.276726 141.901643 
L 272.584277 173.452492 
z
" clip-path="url(#p5e96a1f53b)" style="fill: none; stroke: #000000; stroke-width: 0.5"/>
    <path d="M 271.027053 169.951164 
L 345.792188 217.391779 
L 365.440231 186.426991 
L 290.675096 138.986376 
L 271.027053 169.951164 
z
" clip-path="url(#p5e96a1f53b)" style="fill: none; stroke: #000000; stroke-width: 0.5"/>
    <path d="M 269.577301 166.404136 
L 342.85757 216.107653 
L 363.442819 185.757838 
L 290.16255 136.054321 
L 269.577301 166.404136 
z
" clip-path="url(#p5e96a1f53b)" style="fill: none; stroke: #000000; stroke-width: 0.5"/>
    <path d="M 268.236851 162.814383 
L 339.963734 214.734435 
L 361.466984 185.027972 
L 289.740101 133.10792 
L 268.236851 162.814383 
z
" clip-path="url(#p5e96a1f53b)" style="fill: none; stroke: #000000; stroke-width: 0.5"/>
    <path d="M 265.261953 153.273645 
L 332.625144 210.742227 
L 356.426378 182.843034 
L 289.063187 125.374452 
L 265.261953 153.273645 
z
" clip-path="url(#p5e96a1f53b)" style="fill: none; stroke: #000000; stroke-width: 0.5"/>
    <path d="M 263.056688 143.526146 
L 325.628013 206.178094 
L 351.575995 180.263504 
L 289.004669 117.611555 
L 263.056688 143.526146 
z
" clip-path="url(#p5e96a1f53b)" style="fill: none; stroke: #000000; stroke-width: 0.5"/>
    <path d="M 261.634736 133.634157 
L 319.016596 201.071235 
L 346.946391 177.305917 
L 289.56453 109.868839 
L 261.634736 133.634157 
z
" clip-path="url(#p5e96a1f53b)" style="fill: none; stroke: #000000; stroke-width: 0.5"/>
    <path d="M 261.005485 123.660213 
L 312.833133 195.453893 
L 342.56726 173.988912 
L 290.739613 102.195233 
L 261.005485 123.660213 
z
" clip-path="url(#p5e96a1f53b)" style="fill: none; stroke: #000000; stroke-width: 0.5"/>
    <path d="M 261.172728 113.667686 
L 307.116549 189.361825 
L 338.466095 170.333695 
L 292.522274 94.639556 
L 261.172728 113.667686 
z
" clip-path="url(#p5e96a1f53b)" style="fill: none; stroke: #000000; stroke-width: 0.5"/>
    <path d="M 257.509385 108.07191 
L 303.822045 183.540943 
L 335.07836 164.360054 
L 288.7657 88.891021 
L 257.509385 108.07191 
z
" clip-path="url(#p5e96a1f53b)" style="fill: none; stroke: #000000; stroke-width: 0.5"/>
    <path d="M 249.850085 106.808485 
L 302.026895 178.348809 
L 331.656093 156.739219 
L 279.479283 85.198896 
L 249.850085 106.808485 
z
" clip-path="url(#p5e96a1f53b)" style="fill: none; stroke: #000000; stroke-width: 0.5"/>
    <path d="M 242.114228 106.159413 
L 299.823892 173.316185 
L 327.637595 149.415105 
L 269.92793 82.258332 
L 242.114228 106.159413 
z
" clip-path="url(#p5e96a1f53b)" style="fill: none; stroke: #000000; stroke-width: 0.5"/>
    <path d="M 234.35122 106.128691 
L 297.227042 168.47505 
L 323.04846 142.434349 
L 260.172638 80.08799 
L 234.35122 106.128691 
z
" clip-path="url(#p5e96a1f53b)" style="fill: none; stroke: #000000; stroke-width: 0.5"/>
    <path d="M 226.610598 106.716397 
L 294.252918 163.856173 
L 317.917974 135.841376 
L 250.275654 78.7016 
L 226.610598 106.716397 
z
" clip-path="url(#p5e96a1f53b)" style="fill: none; stroke: #000000; stroke-width: 0.5"/>
    <path d="M 218.941079 107.918917 
L 290.920064 159.4889 
L 312.278329 129.678026 
L 240.299345 78.108043 
L 218.941079 107.918917 
z
" clip-path="url(#p5e96a1f53b)" style="fill: none; stroke: #000000; stroke-width: 0.5"/>
    <path d="M 211.392027 109.728381 
L 287.25022 155.400823 
L 306.165955 123.983332 
L 230.307762 78.310891 
L 211.392027 109.728381 
z
" clip-path="url(#p5e96a1f53b)" style="fill: none; stroke: #000000; stroke-width: 0.5"/>
    <path d="M 211.81886 116.280426 
L 291.074112 155.765138 
L 307.427132 122.940719 
L 228.17188 83.456007 
L 211.81886 116.280426 
z
" clip-path="url(#p5e96a1f53b)" style="fill: none; stroke: #000000; stroke-width: 0.5"/>
    <path d="M 217.011399 124.819352 
L 299.160055 157.865317 
L 312.846398 123.842564 
L 230.697742 90.796599 
L 217.011399 124.819352 
z
" clip-path="url(#p5e96a1f53b)" style="fill: none; stroke: #000000; stroke-width: 0.5"/>
    <path d="M 222.867385 132.917514 
L 307.387329 159.314795 
L 318.320048 124.309947 
L 233.800104 97.912666 
L 222.867385 132.917514 
z
" clip-path="url(#p5e96a1f53b)" style="fill: none; stroke: #000000; stroke-width: 0.5"/>
    <path d="M 229.349917 140.523701 
L 315.704023 160.10445 
L 323.813602 124.339964 
L 237.459495 104.759215 
L 229.349917 140.523701 
z
" clip-path="url(#p5e96a1f53b)" style="fill: none; stroke: #000000; stroke-width: 0.5"/>
    <path d="M 225.964864 142.916848 
L 313.074133 158.80435 
L 319.654113 122.727106 
L 232.544845 106.839603 
L 225.964864 142.916848 
z
" clip-path="url(#p5e96a1f53b)" style="fill: none; stroke: #000000; stroke-width: 0.5"/>
    <path d="M 222.684616 145.451838 
L 310.391166 157.6173 
L 315.429623 121.292685 
L 227.723073 109.127223 
L 222.684616 145.451838 
z
" clip-path="url(#p5e96a1f53b)" style="fill: none; stroke: #000000; stroke-width: 0.5"/>
    <path d="M 224.676949 148.697065 
L 312.821813 157.118489 
L 316.309637 120.612341 
L 228.164773 112.190917 
L 224.676949 148.697065 
z
" clip-path="url(#p5e96a1f53b)" style="fill: none; stroke: #000000; stroke-width: 0.5"/>
    <path d="M 228.839816 152.036669 
L 317.263242 156.698756 
L 319.194096 120.077239 
L 230.770669 115.415152 
L 228.839816 152.036669 
z
" clip-path="url(#p5e96a1f53b)" style="fill: none; stroke: #000000; stroke-width: 0.5"/>
    <path d="M 233.141061 155.195958 
L 321.682789 156.09026 
L 322.053174 119.419747 
L 233.511446 118.525445 
L 233.141061 155.195958 
z
" clip-path="url(#p5e96a1f53b)" style="fill: none; stroke: #000000; stroke-width: 0.5"/>
    <path d="M 237.573023 158.169413 
L 326.072578 155.294308 
L 324.881822 118.641262 
L 236.382267 121.516366 
L 237.573023 158.169413 
z
" clip-path="url(#p5e96a1f53b)" style="fill: none; stroke: #000000; stroke-width: 0.5"/>
    <path d="M 241.398789 158.707058 
L 329.864792 154.938269 
L 328.303908 118.299119 
L 239.837905 122.067907 
L 241.398789 158.707058 
z
" clip-path="url(#p5e96a1f53b)" style="fill: none; stroke: #000000; stroke-width: 0.5"/>
    <path d="M 244.170822 155.624524 
L 332.717066 155.624524 
L 332.717066 118.952141 
L 244.170822 118.952141 
L 244.170822 155.624524 
z
" clip-path="url(#p5e96a1f53b)" style="fill: none; stroke: #000000; stroke-width: 0.5"/>
   </g>
   <g id="PatchCollection_3">
    <path d="M 145.021311 212.823623 
L 140.77245 214.23991 
L 140.77245 213.295719 
L 121.888628 213.295719 
L 121.888628 212.351528 
L 140.77245 212.351528 
L 140.77245 211.407337 
z
" clip-path="url(#p5e96a1f53b)" style="fill: #ff0000; stroke: #ff0000; stroke-width: 0.24"/>
    <path d="M 149.013909 211.634724 
L 144.836776 213.250349 
L 144.792127 212.307214 
L 125.92943 213.200205 
L 125.884781 212.25707 
L 144.747477 211.36408 
L 144.702828 210.420945 
z
" clip-path="url(#p5e96a1f53b)" style="fill: #ff0000; stroke: #ff0000; stroke-width: 0.24"/>
    <path d="M 152.945742 210.258112 
L 148.849683 212.069461 
L 148.760484 211.129493 
L 129.961118 212.913476 
L 129.871919 211.973508 
L 148.671285 210.189525 
L 148.582086 209.249556 
z
" clip-path="url(#p5e96a1f53b)" style="fill: #ff0000; stroke: #ff0000; stroke-width: 0.24"/>
    <path d="M 156.877038 209.22088 
L 152.828228 211.135513 
L 152.715222 210.198109 
L 133.967139 212.458227 
L 133.854133 211.520823 
L 152.602216 209.260705 
L 152.48921 208.323301 
z
" clip-path="url(#p5e96a1f53b)" style="fill: #ff0000; stroke: #ff0000; stroke-width: 0.24"/>
    <path d="M 160.868134 208.739909 
L 156.819324 210.654542 
L 156.706318 209.717138 
L 137.958235 211.977256 
L 137.845229 211.039852 
L 156.593312 208.779734 
L 156.480306 207.84233 
z
" clip-path="url(#p5e96a1f53b)" style="fill: #ff0000; stroke: #ff0000; stroke-width: 0.24"/>
    <path d="M 164.85923 208.25875 
L 160.81042 210.173382 
L 160.697414 209.235978 
L 141.949331 211.496096 
L 141.836325 210.558692 
L 160.584408 208.298574 
L 160.471402 207.36117 
z
" clip-path="url(#p5e96a1f53b)" style="fill: #ff0000; stroke: #ff0000; stroke-width: 0.24"/>
    <path d="M 168.850326 207.77759 
L 164.801516 209.692223 
L 164.68851 208.754818 
L 145.940427 211.014936 
L 145.827421 210.077532 
L 164.575504 207.817414 
L 164.462498 206.88001 
z
" clip-path="url(#p5e96a1f53b)" style="fill: #ff0000; stroke: #ff0000; stroke-width: 0.24"/>
    <path d="M 172.841233 207.29643 
L 168.792423 209.211063 
L 168.679417 208.273659 
L 149.931334 210.533776 
L 149.818328 209.596372 
L 168.566411 207.336254 
L 168.453405 206.39885 
z
" clip-path="url(#p5e96a1f53b)" style="fill: #ff0000; stroke: #ff0000; stroke-width: 0.24"/>
    <path d="M 176.832329 206.81527 
L 172.783519 208.729903 
L 172.670513 207.792499 
L 153.92243 210.052617 
L 153.809424 209.115213 
L 172.557507 206.855095 
L 172.444501 205.91769 
z
" clip-path="url(#p5e96a1f53b)" style="fill: #ff0000; stroke: #ff0000; stroke-width: 0.24"/>
    <path d="M 180.823425 206.33411 
L 176.774615 208.248743 
L 176.661609 207.311339 
L 157.913525 209.571457 
L 157.80052 208.634053 
L 176.548603 206.373935 
L 176.435597 205.436531 
z
" clip-path="url(#p5e96a1f53b)" style="fill: #ff0000; stroke: #ff0000; stroke-width: 0.24"/>
    <path d="M 184.81452 205.852951 
L 180.765711 207.767583 
L 180.652705 206.830179 
L 161.904621 209.090297 
L 161.791616 208.152893 
L 180.539699 205.892775 
L 180.426693 204.955371 
z
" clip-path="url(#p5e96a1f53b)" style="fill: #ff0000; stroke: #ff0000; stroke-width: 0.24"/>
    <path d="M 188.805616 205.37198 
L 184.756807 207.286612 
L 184.643801 206.349208 
L 165.895717 208.609326 
L 165.782711 207.671922 
L 184.530795 205.411804 
L 184.417789 204.4744 
z
" clip-path="url(#p5e96a1f53b)" style="fill: #ff0000; stroke: #ff0000; stroke-width: 0.24"/>
    <path d="M 192.796523 204.89082 
L 188.747714 206.805453 
L 188.634708 205.868048 
L 169.886624 208.128166 
L 169.773619 207.190762 
L 188.521702 204.930644 
L 188.408696 203.99324 
z
" clip-path="url(#p5e96a1f53b)" style="fill: #ff0000; stroke: #ff0000; stroke-width: 0.24"/>
    <path d="M 196.787619 204.40966 
L 192.73881 206.324293 
L 192.625804 205.386889 
L 173.87772 207.647007 
L 173.764714 206.709602 
L 192.512798 204.449484 
L 192.399792 203.51208 
z
" clip-path="url(#p5e96a1f53b)" style="fill: #ff0000; stroke: #ff0000; stroke-width: 0.24"/>
    <path d="M 200.778715 203.9285 
L 196.729905 205.843133 
L 196.6169 204.905729 
L 177.868816 207.165847 
L 177.75581 206.228443 
L 196.503894 203.968325 
L 196.390888 203.030921 
z
" clip-path="url(#p5e96a1f53b)" style="fill: #ff0000; stroke: #ff0000; stroke-width: 0.24"/>
    <path d="M 204.769811 203.44734 
L 200.721001 205.361973 
L 200.607995 204.424569 
L 181.859912 206.684687 
L 181.746906 205.747283 
L 200.49499 203.487165 
L 200.381984 202.549761 
z
" clip-path="url(#p5e96a1f53b)" style="fill: #ff0000; stroke: #ff0000; stroke-width: 0.24"/>
    <path d="M 208.760907 202.966181 
L 204.712097 204.880813 
L 204.599091 203.943409 
L 185.851008 206.203527 
L 185.738002 205.266123 
L 204.486085 203.006005 
L 204.37308 202.068601 
z
" clip-path="url(#p5e96a1f53b)" style="fill: #ff0000; stroke: #ff0000; stroke-width: 0.24"/>
    <path d="M 212.751814 202.48521 
L 208.703004 204.399842 
L 208.589998 203.462438 
L 189.841915 205.722556 
L 189.728909 204.785152 
L 208.476993 202.525034 
L 208.363987 201.58763 
z
" clip-path="url(#p5e96a1f53b)" style="fill: #ff0000; stroke: #ff0000; stroke-width: 0.24"/>
    <path d="M 216.74291 202.00405 
L 212.6941 203.918683 
L 212.581094 202.981278 
L 193.833011 205.241396 
L 193.720005 204.303992 
L 212.468088 202.043874 
L 212.355083 201.10647 
z
" clip-path="url(#p5e96a1f53b)" style="fill: #ff0000; stroke: #ff0000; stroke-width: 0.24"/>
    <path d="M 220.734006 201.52289 
L 216.685196 203.437523 
L 216.57219 202.500119 
L 197.824107 204.760237 
L 197.711101 203.822832 
L 216.459184 201.562714 
L 216.346179 200.62531 
z
" clip-path="url(#p5e96a1f53b)" style="fill: #ff0000; stroke: #ff0000; stroke-width: 0.24"/>
    <path d="M 224.725102 201.04173 
L 220.676292 202.956363 
L 220.563286 202.018959 
L 201.815203 204.279077 
L 201.702197 203.341673 
L 220.45028 201.081555 
L 220.337274 200.144151 
z
" clip-path="url(#p5e96a1f53b)" style="fill: #ff0000; stroke: #ff0000; stroke-width: 0.24"/>
    <path d="M 228.716198 200.56057 
L 224.667388 202.475203 
L 224.554382 201.537799 
L 205.806299 203.797917 
L 205.693293 202.860513 
L 224.441376 200.600395 
L 224.32837 199.662991 
z
" clip-path="url(#p5e96a1f53b)" style="fill: #ff0000; stroke: #ff0000; stroke-width: 0.24"/>
    <path d="M 232.707105 200.079411 
L 228.658295 201.994043 
L 228.545289 201.056639 
L 209.797206 203.316757 
L 209.6842 202.379353 
L 228.432283 200.119235 
L 228.319277 199.181831 
z
" clip-path="url(#p5e96a1f53b)" style="fill: #ff0000; stroke: #ff0000; stroke-width: 0.24"/>
    <path d="M 236.698201 199.598251 
L 232.649391 201.512884 
L 232.536385 200.575479 
L 213.788302 202.835597 
L 213.675296 201.898193 
L 232.423379 199.638075 
L 232.310373 198.700671 
z
" clip-path="url(#p5e96a1f53b)" style="fill: #ff0000; stroke: #ff0000; stroke-width: 0.24"/>
    <path d="M 240.689316 199.11728 
L 236.640506 201.031913 
L 236.5275 200.094508 
L 217.779417 202.354626 
L 217.666411 201.417222 
L 236.414494 199.157104 
L 236.301488 198.2197 
z
" clip-path="url(#p5e96a1f53b)" style="fill: #ff0000; stroke: #ff0000; stroke-width: 0.24"/>
    <path d="M 244.680374 198.63612 
L 240.631564 200.550753 
L 240.518558 199.613349 
L 221.770475 201.873467 
L 221.657469 200.936062 
L 240.405552 198.675945 
L 240.292546 197.73854 
z
" clip-path="url(#p5e96a1f53b)" style="fill: #ff0000; stroke: #ff0000; stroke-width: 0.24"/>
    <path d="M 248.671432 198.15496 
L 244.622622 200.069593 
L 244.509616 199.132189 
L 225.761533 201.392307 
L 225.648527 200.454903 
L 244.39661 198.194785 
L 244.283604 197.257381 
z
" clip-path="url(#p5e96a1f53b)" style="fill: #ff0000; stroke: #ff0000; stroke-width: 0.24"/>
    <path d="M 252.66249 197.6738 
L 248.61368 199.588433 
L 248.500674 198.651029 
L 229.752591 200.911147 
L 229.639585 199.973743 
L 248.387669 197.713625 
L 248.274663 196.776221 
z
" clip-path="url(#p5e96a1f53b)" style="fill: #ff0000; stroke: #ff0000; stroke-width: 0.24"/>
    <path d="M 256.653545 197.192641 
L 252.604735 199.107273 
L 252.491729 198.169869 
L 233.743646 200.429987 
L 233.63064 199.492583 
L 252.378723 197.232465 
L 252.265717 196.295061 
z
" clip-path="url(#p5e96a1f53b)" style="fill: #ff0000; stroke: #ff0000; stroke-width: 0.24"/>
    <path d="M 260.644607 196.711481 
L 256.595797 198.626114 
L 256.482791 197.688709 
L 237.734707 199.948827 
L 237.621702 199.011423 
L 256.369785 196.751305 
L 256.256779 195.813901 
z
" clip-path="url(#p5e96a1f53b)" style="fill: #ff0000; stroke: #ff0000; stroke-width: 0.24"/>
    <path d="M 264.635665 196.23051 
L 260.586855 198.145143 
L 260.473849 197.207739 
L 241.725766 199.467856 
L 241.61276 198.530452 
L 260.360843 196.270334 
L 260.247837 195.33293 
z
" clip-path="url(#p5e96a1f53b)" style="fill: #ff0000; stroke: #ff0000; stroke-width: 0.24"/>
    <path d="M 268.626723 195.74935 
L 264.577913 197.663983 
L 264.464907 196.726579 
L 245.716824 198.986697 
L 245.603818 198.049292 
L 264.351901 195.789175 
L 264.238895 194.85177 
z
" clip-path="url(#p5e96a1f53b)" style="fill: #ff0000; stroke: #ff0000; stroke-width: 0.24"/>
    <path d="M 272.617781 195.26819 
L 268.568971 197.182823 
L 268.455965 196.245419 
L 249.707882 198.505537 
L 249.594876 197.568133 
L 268.342959 195.308015 
L 268.229953 194.370611 
z
" clip-path="url(#p5e96a1f53b)" style="fill: #ff0000; stroke: #ff0000; stroke-width: 0.24"/>
    <path d="M 276.608839 194.78703 
L 272.560029 196.701663 
L 272.447023 195.764259 
L 253.69894 198.024377 
L 253.585934 197.086973 
L 272.334017 194.826855 
L 272.221012 193.889451 
z
" clip-path="url(#p5e96a1f53b)" style="fill: #ff0000; stroke: #ff0000; stroke-width: 0.24"/>
    <path d="M 280.599878 194.305871 
L 276.551069 196.220503 
L 276.438063 195.283099 
L 257.689979 197.543217 
L 257.576973 196.605813 
L 276.325057 194.345695 
L 276.212051 193.408291 
z
" clip-path="url(#p5e96a1f53b)" style="fill: #ff0000; stroke: #ff0000; stroke-width: 0.24"/>
    <path d="M 284.590974 193.824711 
L 280.542164 195.739344 
L 280.429159 194.80194 
L 261.681075 197.062057 
L 261.568069 196.124653 
L 280.316153 193.864535 
L 280.203147 192.927131 
z
" clip-path="url(#p5e96a1f53b)" style="fill: #ff0000; stroke: #ff0000; stroke-width: 0.24"/>
    <path d="M 288.58207 193.34374 
L 284.53326 195.258373 
L 284.420254 194.320969 
L 265.672171 196.581086 
L 265.559165 195.643682 
L 284.307249 193.383564 
L 284.194243 192.44616 
z
" clip-path="url(#p5e96a1f53b)" style="fill: #ff0000; stroke: #ff0000; stroke-width: 0.24"/>
    <path d="M 292.573166 192.86258 
L 288.524356 194.777213 
L 288.41135 193.839809 
L 269.663267 196.099927 
L 269.550261 195.162522 
L 288.298345 192.902405 
L 288.185339 191.965 
z
" clip-path="url(#p5e96a1f53b)" style="fill: #ff0000; stroke: #ff0000; stroke-width: 0.24"/>
    <path d="M 296.564073 192.38142 
L 292.515263 194.296053 
L 292.402258 193.358649 
L 273.654174 195.618767 
L 273.541168 194.681363 
L 292.289252 192.421245 
L 292.176246 191.483841 
z
" clip-path="url(#p5e96a1f53b)" style="fill: #ff0000; stroke: #ff0000; stroke-width: 0.24"/>
    <path d="M 300.555169 191.900261 
L 296.506359 193.814893 
L 296.393353 192.877489 
L 277.64527 195.137607 
L 277.532264 194.200203 
L 296.280348 191.940085 
L 296.167342 191.002681 
z
" clip-path="url(#p5e96a1f53b)" style="fill: #ff0000; stroke: #ff0000; stroke-width: 0.24"/>
    <path d="M 304.546265 191.419101 
L 300.497455 193.333733 
L 300.384449 192.396329 
L 281.636366 194.656447 
L 281.52336 193.719043 
L 300.271443 191.458925 
L 300.158438 190.521521 
z
" clip-path="url(#p5e96a1f53b)" style="fill: #ff0000; stroke: #ff0000; stroke-width: 0.24"/>
    <path d="M 308.537361 190.937941 
L 304.488551 192.852574 
L 304.375545 191.91517 
L 285.627462 194.175287 
L 285.514456 193.237883 
L 304.262539 190.977765 
L 304.149533 190.040361 
z
" clip-path="url(#p5e96a1f53b)" style="fill: #ff0000; stroke: #ff0000; stroke-width: 0.24"/>
    <path d="M 312.528457 190.456781 
L 308.479647 192.371414 
L 308.366641 191.43401 
L 289.618558 193.694128 
L 289.505552 192.756723 
L 308.253635 190.496606 
L 308.140629 189.559201 
z
" clip-path="url(#p5e96a1f53b)" style="fill: #ff0000; stroke: #ff0000; stroke-width: 0.24"/>
    <path d="M 316.519364 189.97581 
L 312.470554 191.890443 
L 312.357548 190.953039 
L 293.609465 193.213157 
L 293.496459 192.275752 
L 312.244542 190.015635 
L 312.131536 189.07823 
z
" clip-path="url(#p5e96a1f53b)" style="fill: #ff0000; stroke: #ff0000; stroke-width: 0.24"/>
    <path d="M 320.51046 189.49465 
L 316.46165 191.409283 
L 316.348644 190.471879 
L 297.600561 192.731997 
L 297.487555 191.794593 
L 316.235638 189.534475 
L 316.122632 188.597071 
z
" clip-path="url(#p5e96a1f53b)" style="fill: #ff0000; stroke: #ff0000; stroke-width: 0.24"/>
    <path d="M 324.501556 189.013491 
L 320.452746 190.928123 
L 320.33974 189.990719 
L 301.591657 192.250837 
L 301.478651 191.313433 
L 320.226734 189.053315 
L 320.113728 188.115911 
z
" clip-path="url(#p5e96a1f53b)" style="fill: #ff0000; stroke: #ff0000; stroke-width: 0.24"/>
    <path d="M 328.492652 188.532331 
L 324.443842 190.446964 
L 324.330836 189.509559 
L 305.582753 191.769677 
L 305.469747 190.832273 
L 324.21783 188.572155 
L 324.104824 187.634751 
z
" clip-path="url(#p5e96a1f53b)" style="fill: #ff0000; stroke: #ff0000; stroke-width: 0.24"/>
    <path d="M 332.584471 189.053976 
L 328.461372 190.8029 
L 328.386461 189.861685 
L 309.562166 191.359915 
L 309.487255 190.4187 
L 328.311549 188.920471 
L 328.236638 187.979256 
z
" clip-path="url(#p5e96a1f53b)" style="fill: #ff0000; stroke: #ff0000; stroke-width: 0.24"/>
    <path d="M 336.658843 189.922533 
L 332.457652 191.474524 
L 332.427333 190.53082 
L 313.553249 191.137198 
L 313.52293 190.193494 
L 332.397014 189.587116 
L 332.366695 188.643411 
z
" clip-path="url(#p5e96a1f53b)" style="fill: #ff0000; stroke: #ff0000; stroke-width: 0.24"/>
    <path d="M 340.687525 190.982533 
L 336.417643 192.33412 
L 336.431984 191.390038 
L 317.55034 191.103207 
L 317.564682 190.159125 
L 336.446326 190.445955 
L 336.460667 189.501873 
z
" clip-path="url(#p5e96a1f53b)" style="fill: #ff0000; stroke: #ff0000; stroke-width: 0.24"/>
    <path d="M 343.262317 191.768619 
L 338.95312 192.989071 
L 338.99631 192.045868 
L 320.132253 191.182079 
L 320.175442 190.238877 
L 339.039499 191.102665 
L 339.082688 190.159462 
z
" clip-path="url(#p5e96a1f53b)" style="fill: #ff0000; stroke: #ff0000; stroke-width: 0.24"/>
    <path d="M 345.81174 192.632841 
L 341.467255 193.721017 
L 341.539252 192.779575 
L 322.710409 191.339634 
L 322.782406 190.398192 
L 341.611249 191.838133 
L 341.683246 190.896691 
z
" clip-path="url(#p5e96a1f53b)" style="fill: #ff0000; stroke: #ff0000; stroke-width: 0.24"/>
    <path d="M 348.333759 193.574533 
L 343.958045 194.529419 
L 344.058782 193.590617 
L 325.282745 191.575873 
L 325.383482 190.637071 
L 344.159519 192.651815 
L 344.260257 191.713013 
z
" clip-path="url(#p5e96a1f53b)" style="fill: #ff0000; stroke: #ff0000; stroke-width: 0.24"/>
    <path d="M 350.825787 194.593059 
L 346.422932 195.413758 
L 346.552316 194.478474 
L 327.84663 191.890796 
L 327.976014 190.955511 
L 346.6817 193.54319 
L 346.811084 192.607905 
z
" clip-path="url(#p5e96a1f53b)" style="fill: #ff0000; stroke: #ff0000; stroke-width: 0.24"/>
    <path d="M 353.285455 195.686968 
L 348.859574 196.372718 
L 349.017483 195.441825 
L 330.399623 192.28365 
L 330.557532 191.352757 
L 349.175391 194.510932 
L 349.3333 193.580039 
z
" clip-path="url(#p5e96a1f53b)" style="fill: #ff0000; stroke: #ff0000; stroke-width: 0.24"/>
    <path d="M 355.710596 196.855819 
L 351.265823 197.40598 
L 351.452109 196.480348 
L 332.939472 192.754625 
L 333.125758 191.828993 
L 351.638395 195.554716 
L 351.824682 194.629084 
z
" clip-path="url(#p5e96a1f53b)" style="fill: #ff0000; stroke: #ff0000; stroke-width: 0.24"/>
    <path d="M 358.09868 198.09823 
L 353.639169 198.512282 
L 353.853659 197.592776 
L 335.463544 193.30297 
L 335.678035 192.383464 
L 354.068149 196.673271 
L 354.28264 195.753765 
z
" clip-path="url(#p5e96a1f53b)" style="fill: #ff0000; stroke: #ff0000; stroke-width: 0.24"/>
    <path d="M 360.447969 199.412943 
L 355.977887 199.690504 
L 356.22038 198.777984 
L 337.969967 193.92812 
L 338.21246 193.015599 
L 356.462873 197.865463 
L 356.705366 196.952942 
z
" clip-path="url(#p5e96a1f53b)" style="fill: #ff0000; stroke: #ff0000; stroke-width: 0.24"/>
    <path d="M 362.75578 200.798795 
L 358.279302 200.939602 
L 358.549573 200.03492 
L 340.455918 194.629512 
L 340.726189 193.724829 
L 358.819843 199.130237 
L 359.090113 198.225554 
z
" clip-path="url(#p5e96a1f53b)" style="fill: #ff0000; stroke: #ff0000; stroke-width: 0.24"/>
    <path d="M 365.020227 202.254729 
L 360.541537 202.258655 
L 360.839331 201.362655 
L 342.919336 195.406771 
L 343.217131 194.510772 
L 361.137125 200.466655 
L 361.434919 199.570656 
z
" clip-path="url(#p5e96a1f53b)" style="fill: #ff0000; stroke: #ff0000; stroke-width: 0.24"/>
    <path d="M 367.23904 203.779025 
L 362.762323 203.646062 
L 363.087363 202.759582 
L 345.357778 196.25877 
L 345.682818 195.372291 
L 363.412404 201.873103 
L 363.737444 200.986624 
z
" clip-path="url(#p5e96a1f53b)" style="fill: #ff0000; stroke: #ff0000; stroke-width: 0.24"/>
    <path d="M 369.410375 205.37045 
L 364.939813 205.100726 
L 365.291795 204.224595 
L 347.769178 197.184946 
L 348.121161 196.308815 
L 365.643778 203.348464 
L 365.99576 202.472333 
z
" clip-path="url(#p5e96a1f53b)" style="fill: #ff0000; stroke: #ff0000; stroke-width: 0.24"/>
    <path d="M 371.531998 207.027486 
L 367.071768 206.621248 
L 367.450365 205.756285 
L 350.151095 198.18436 
L 350.529692 197.319396 
L 367.828961 204.891321 
L 368.207557 204.026358 
z
" clip-path="url(#p5e96a1f53b)" style="fill: #ff0000; stroke: #ff0000; stroke-width: 0.24"/>
    <path d="M 370.792947 207.446686 
L 366.347217 206.904319 
L 366.752073 206.05133 
L 349.692308 197.954221 
L 350.097163 197.101233 
L 367.156928 205.198342 
L 367.561783 204.345354 
z
" clip-path="url(#p5e96a1f53b)" style="fill: #ff0000; stroke: #ff0000; stroke-width: 0.24"/>
    <path d="M 368.150709 206.931311 
L 363.723632 206.253321 
L 364.154369 205.413105 
L 347.350048 196.798377 
L 347.780784 195.958161 
L 364.585105 204.572889 
L 365.015842 203.732673 
z
" clip-path="url(#p5e96a1f53b)" style="fill: #ff0000; stroke: #ff0000; stroke-width: 0.24"/>
    <path d="M 365.525484 206.335282 
L 361.121197 205.522299 
L 361.577413 204.69564 
L 345.044245 195.571325 
L 345.500461 194.744667 
L 362.033629 203.868982 
L 362.489845 203.042323 
z
" clip-path="url(#p5e96a1f53b)" style="fill: #ff0000; stroke: #ff0000; stroke-width: 0.24"/>
    <path d="M 362.91968 205.659485 
L 358.542298 204.712272 
L 359.023566 203.899944 
L 342.776991 194.274584 
L 343.258259 193.462255 
L 359.504834 203.087615 
L 359.986102 202.275286 
z
" clip-path="url(#p5e96a1f53b)" style="fill: #ff0000; stroke: #ff0000; stroke-width: 0.24"/>
    <path d="M 360.335868 204.904143 
L 355.989483 203.823582 
L 356.495354 203.026342 
L 340.550561 192.908915 
L 341.056432 192.111675 
L 357.001226 202.229102 
L 357.507097 201.431863 
z
" clip-path="url(#p5e96a1f53b)" style="fill: #ff0000; stroke: #ff0000; stroke-width: 0.24"/>
    <path d="M 357.776119 204.070352 
L 353.464789 202.857456 
L 353.994791 202.07605 
L 338.366668 191.476025 
L 338.896669 190.694619 
L 354.524792 201.294644 
L 355.054793 200.513238 
z
" clip-path="url(#p5e96a1f53b)" style="fill: #ff0000; stroke: #ff0000; stroke-width: 0.24"/>
    <path d="M 355.243223 203.158733 
L 350.970979 201.81463 
L 351.524616 201.049788 
L 336.227776 189.977054 
L 336.781413 189.212212 
L 352.078253 200.284946 
L 352.631889 199.520104 
z
" clip-path="url(#p5e96a1f53b)" style="fill: #ff0000; stroke: #ff0000; stroke-width: 0.24"/>
    <path d="M 348.778161 200.420419 
L 344.626559 198.740276 
L 345.239361 198.021965 
L 330.873144 185.765923 
L 331.485946 185.047612 
L 345.852163 197.303655 
L 346.464965 196.585344 
z
" clip-path="url(#p5e96a1f53b)" style="fill: #ff0000; stroke: #ff0000; stroke-width: 0.24"/>
    <path d="M 342.551911 197.175795 
L 338.547337 195.170285 
L 339.215411 194.503071 
L 325.871132 181.141597 
L 326.539206 180.474383 
L 339.883485 193.835857 
L 340.551558 193.168643 
z
" clip-path="url(#p5e96a1f53b)" style="fill: #ff0000; stroke: #ff0000; stroke-width: 0.24"/>
    <path d="M 336.603808 193.445641 
L 332.771711 191.127512 
L 333.49081 190.515635 
L 321.253263 176.133661 
L 321.972361 175.521783 
L 334.209909 189.903758 
L 334.929008 189.29188 
z
" clip-path="url(#p5e96a1f53b)" style="fill: #ff0000; stroke: #ff0000; stroke-width: 0.24"/>
    <path d="M 330.971893 189.253484 
L 327.33663 186.637467 
L 328.102184 186.084815 
L 317.049156 170.77373 
L 317.814711 170.221079 
L 328.867739 185.532164 
L 329.633293 184.979512 
z
" clip-path="url(#p5e96a1f53b)" style="fill: #ff0000; stroke: #ff0000; stroke-width: 0.24"/>
    <path d="M 325.691593 184.626064 
L 322.276276 181.728773 
L 323.083422 181.238863 
L 313.285209 165.095945 
L 314.092355 164.606035 
L 323.890568 180.748952 
L 324.697714 180.259041 
z
" clip-path="url(#p5e96a1f53b)" style="fill: #ff0000; stroke: #ff0000; stroke-width: 0.24"/>
    <path d="M 322.373757 178.714592 
L 318.944342 175.834002 
L 319.749088 175.340159 
L 309.872214 159.245249 
L 310.67696 158.751405 
L 320.553833 174.846315 
L 321.358579 174.352471 
z
" clip-path="url(#p5e96a1f53b)" style="fill: #ff0000; stroke: #ff0000; stroke-width: 0.24"/>
    <path d="M 320.135232 172.060102 
L 316.487267 169.461827 
L 317.25012 168.905452 
L 306.122628 153.648399 
L 306.885481 153.092024 
L 318.012973 168.349078 
L 318.775825 167.792703 
z
" clip-path="url(#p5e96a1f53b)" style="fill: #ff0000; stroke: #ff0000; stroke-width: 0.24"/>
    <path d="M 317.373751 165.605015 
L 313.530408 163.30558 
L 314.246518 162.690207 
L 301.939061 148.368012 
L 302.655171 147.752639 
L 314.962628 162.074834 
L 315.678738 161.459462 
z
" clip-path="url(#p5e96a1f53b)" style="fill: #ff0000; stroke: #ff0000; stroke-width: 0.24"/>
    <path d="M 314.10688 159.390405 
L 310.092583 157.404428 
L 310.757398 156.733967 
L 297.34818 143.437665 
L 298.012996 142.767204 
L 311.422213 156.063506 
L 312.087028 155.393045 
z
" clip-path="url(#p5e96a1f53b)" style="fill: #ff0000; stroke: #ff0000; stroke-width: 0.24"/>
    <path d="M 310.355467 153.455807 
L 306.19573 151.795906 
L 306.805026 151.074619 
L 292.379281 138.888699 
L 292.988577 138.167412 
L 307.414322 150.353331 
L 308.023618 149.632044 
z
" clip-path="url(#p5e96a1f53b)" style="fill: #ff0000; stroke: #ff0000; stroke-width: 0.24"/>
    <path d="M 306.142975 147.838894 
L 301.864234 146.515622 
L 302.414137 145.748092 
L 287.063533 134.750015 
L 287.613437 133.982485 
L 302.964041 144.980562 
L 303.513945 144.213032 
z
" clip-path="url(#p5e96a1f53b)" style="fill: #ff0000; stroke: #ff0000; stroke-width: 0.24"/>
    <path d="M 301.496747 142.575217 
L 297.126193 141.596984 
L 297.61321 140.788089 
L 281.435306 131.047752 
L 281.922323 130.238857 
L 298.100227 139.979194 
L 298.587244 139.170299 
z
" clip-path="url(#p5e96a1f53b)" style="fill: #ff0000; stroke: #ff0000; stroke-width: 0.24"/>
    <path d="M 304.253726 141.845459 
L 299.819138 141.218477 
L 300.240173 140.373359 
L 283.337795 131.952648 
L 283.758831 131.107529 
L 300.661209 139.52824 
L 301.082244 138.683121 
z
" clip-path="url(#p5e96a1f53b)" style="fill: #ff0000; stroke: #ff0000; stroke-width: 0.24"/>
    <path d="M 311.188981 142.940015 
L 306.71854 142.668274 
L 307.070918 141.792302 
L 289.551477 134.744752 
L 289.903855 133.86878 
L 307.423295 140.91633 
L 307.775673 140.040358 
z
" clip-path="url(#p5e96a1f53b)" style="fill: #ff0000; stroke: #ff0000; stroke-width: 0.24"/>
    <path d="M 318.189134 143.478738 
L 313.711253 143.56396 
L 313.992734 142.662702 
L 295.96758 137.033084 
L 296.249061 136.131826 
L 314.274215 141.761445 
L 314.555696 140.860187 
z
" clip-path="url(#p5e96a1f53b)" style="fill: #ff0000; stroke: #ff0000; stroke-width: 0.24"/>
    <path d="M 325.210042 143.458271 
L 320.753179 143.899919 
L 320.961974 142.979103 
L 302.545658 138.803213 
L 302.754452 137.882397 
L 321.170768 142.058287 
L 321.379563 141.137472 
z
" clip-path="url(#p5e96a1f53b)" style="fill: #ff0000; stroke: #ff0000; stroke-width: 0.24"/>
    <path d="M 321.863023 141.76865 
L 317.428997 142.399596 
L 317.59841 141.470728 
L 299.021044 138.082478 
L 299.190456 137.15361 
L 317.767822 140.54186 
L 317.937235 139.612991 
z
" clip-path="url(#p5e96a1f53b)" style="fill: #ff0000; stroke: #ff0000; stroke-width: 0.24"/>
    <path d="M 318.446999 140.222955 
L 314.043846 141.042055 
L 314.17357 140.106818 
L 295.468825 137.51235 
L 295.598548 136.577113 
L 314.303293 139.171581 
L 314.433017 138.236343 
z
" clip-path="url(#p5e96a1f53b)" style="fill: #ff0000; stroke: #ff0000; stroke-width: 0.24"/>
    <path d="M 320.129999 139.397029 
L 315.765699 140.402797 
L 315.855499 139.462886 
L 297.057277 137.66689 
L 297.147076 136.726979 
L 315.945299 138.522975 
L 316.035098 137.583064 
z
" clip-path="url(#p5e96a1f53b)" style="fill: #ff0000; stroke: #ff0000; stroke-width: 0.24"/>
    <path d="M 323.810527 138.682299 
L 319.492991 139.872913 
L 319.542704 138.930031 
L 300.685074 137.93577 
L 300.734787 136.992889 
L 319.592417 137.98715 
L 319.64213 137.044268 
z
" clip-path="url(#p5e96a1f53b)" style="fill: #ff0000; stroke: #ff0000; stroke-width: 0.24"/>
    <path d="M 327.457308 137.811458 
L 323.19436 139.184759 
L 323.203897 138.240616 
L 304.321037 138.049893 
L 304.330573 137.10575 
L 323.213433 137.296473 
L 323.222969 136.35233 
z
" clip-path="url(#p5e96a1f53b)" style="fill: #ff0000; stroke: #ff0000; stroke-width: 0.24"/>
    <path d="M 331.063864 136.78629 
L 326.863231 138.339791 
L 326.832574 137.396097 
L 307.958708 138.009257 
L 307.92805 137.065564 
L 326.801916 136.452404 
L 326.771258 135.508711 
z
" clip-path="url(#p5e96a1f53b)" style="fill: #ff0000; stroke: #ff0000; stroke-width: 0.24"/>
    <path d="M 334.668896 136.380784 
L 330.484168 137.976631 
L 330.44398 137.033295 
L 311.57727 137.837046 
L 311.537083 136.893711 
L 330.403792 136.08996 
L 330.363605 135.146624 
z
" clip-path="url(#p5e96a1f53b)" style="fill: #ff0000; stroke: #ff0000; stroke-width: 0.24"/>
    <path d="M 338.306678 137.288333 
L 334.057818 138.704619 
L 334.057818 137.760428 
L 315.173995 137.760428 
L 315.173995 136.816237 
L 334.057818 136.816237 
L 334.057818 135.872046 
z
" clip-path="url(#p5e96a1f53b)" style="fill: #ff0000; stroke: #ff0000; stroke-width: 0.24"/>
   </g>
   <g id="matplotlib.axis_1">
    <g id="xtick_1">
     <g id="line2d_1">
      <defs>
       <path id="mb6c993520b" d="M 0 0 
L 0 -3 
" style="stroke: #000000"/>
      </defs>
      <g>
       <use xlink:href="#mb6c993520b" x="46.353337" y="254.750348" style="stroke: #000000"/>
      </g>
     </g>
     <g id="text_1">
      <!-- 10.0 -->
      <g transform="translate(30.264548 268.328708) scale(0.105 -0.105)">
       <defs>
        <path id="DejaVuSans-2212" d="M 678 2272 
L 4684 2272 
L 4684 1741 
L 678 1741 
L 678 2272 
z
" transform="scale(0.015625)"/>
        <path id="DejaVuSans-31" d="M 794 531 
L 1825 531 
L 1825 4091 
L 703 3866 
L 703 4441 
L 1819 4666 
L 2450 4666 
L 2450 531 
L 3481 531 
L 3481 0 
L 794 0 
L 794 531 
z
" transform="scale(0.015625)"/>
        <path id="DejaVuSans-30" d="M 2034 4250 
Q 1547 4250 1301 3770 
Q 1056 3291 1056 2328 
Q 1056 1369 1301 889 
Q 1547 409 2034 409 
Q 2525 409 2770 889 
Q 3016 1369 3016 2328 
Q 3016 3291 2770 3770 
Q 2525 4250 2034 4250 
z
M 2034 4750 
Q 2819 4750 3233 4129 
Q 3647 3509 3647 2328 
Q 3647 1150 3233 529 
Q 2819 -91 2034 -91 
Q 1250 -91 836 529 
Q 422 1150 422 2328 
Q 422 3509 836 4129 
Q 1250 4750 2034 4750 
z
" transform="scale(0.015625)"/>
        <path id="DejaVuSans-2e" d="M 684 794 
L 1344 794 
L 1344 0 
L 684 0 
L 684 794 
z
" transform="scale(0.015625)"/>
       </defs>
       <use xlink:href="#DejaVuSans-2212"/>
       <use xlink:href="#DejaVuSans-31" x="83.789062"/>
       <use xlink:href="#DejaVuSans-30" x="147.412109"/>
       <use xlink:href="#DejaVuSans-2e" x="211.035156"/>
       <use xlink:href="#DejaVuSans-30" x="242.822266"/>
      </g>
     </g>
    </g>
    <g id="xtick_2">
     <g id="line2d_2">
      <g>
       <use xlink:href="#mb6c993520b" x="93.562894" y="254.750348" style="stroke: #000000"/>
      </g>
     </g>
     <g id="text_2">
      <!-- 7.5 -->
      <g transform="translate(80.814417 268.328708) scale(0.105 -0.105)">
       <defs>
        <path id="DejaVuSans-37" d="M 525 4666 
L 3525 4666 
L 3525 4397 
L 1831 0 
L 1172 0 
L 2766 4134 
L 525 4134 
L 525 4666 
z
" transform="scale(0.015625)"/>
        <path id="DejaVuSans-35" d="M 691 4666 
L 3169 4666 
L 3169 4134 
L 1269 4134 
L 1269 2991 
Q 1406 3038 1543 3061 
Q 1681 3084 1819 3084 
Q 2600 3084 3056 2656 
Q 3513 2228 3513 1497 
Q 3513 744 3044 326 
Q 2575 -91 1722 -91 
Q 1428 -91 1123 -41 
Q 819 9 494 109 
L 494 744 
Q 775 591 1075 516 
Q 1375 441 1709 441 
Q 2250 441 2565 725 
Q 2881 1009 2881 1497 
Q 2881 1984 2565 2268 
Q 2250 2553 1709 2553 
Q 1456 2553 1204 2497 
Q 953 2441 691 2322 
L 691 4666 
z
" transform="scale(0.015625)"/>
       </defs>
       <use xlink:href="#DejaVuSans-2212"/>
       <use xlink:href="#DejaVuSans-37" x="83.789062"/>
       <use xlink:href="#DejaVuSans-2e" x="147.412109"/>
       <use xlink:href="#DejaVuSans-35" x="179.199219"/>
      </g>
     </g>
    </g>
    <g id="xtick_3">
     <g id="line2d_3">
      <g>
       <use xlink:href="#mb6c993520b" x="140.77245" y="254.750348" style="stroke: #000000"/>
      </g>
     </g>
     <g id="text_3">
      <!-- 5.0 -->
      <g transform="translate(128.023974 268.328708) scale(0.105 -0.105)">
       <use xlink:href="#DejaVuSans-2212"/>
       <use xlink:href="#DejaVuSans-35" x="83.789062"/>
       <use xlink:href="#DejaVuSans-2e" x="147.412109"/>
       <use xlink:href="#DejaVuSans-30" x="179.199219"/>
      </g>
     </g>
    </g>
    <g id="xtick_4">
     <g id="line2d_4">
      <g>
       <use xlink:href="#mb6c993520b" x="187.982007" y="254.750348" style="stroke: #000000"/>
      </g>
     </g>
     <g id="text_4">
      <!-- 2.5 -->
      <g transform="translate(175.233531 268.328708) scale(0.105 -0.105)">
       <defs>
        <path id="DejaVuSans-32" d="M 1228 531 
L 3431 531 
L 3431 0 
L 469 0 
L 469 531 
Q 828 903 1448 1529 
Q 2069 2156 2228 2338 
Q 2531 2678 2651 2914 
Q 2772 3150 2772 3378 
Q 2772 3750 2511 3984 
Q 2250 4219 1831 4219 
Q 1534 4219 1204 4116 
Q 875 4013 500 3803 
L 500 4441 
Q 881 4594 1212 4672 
Q 1544 4750 1819 4750 
Q 2544 4750 2975 4387 
Q 3406 4025 3406 3419 
Q 3406 3131 3298 2873 
Q 3191 2616 2906 2266 
Q 2828 2175 2409 1742 
Q 1991 1309 1228 531 
z
" transform="scale(0.015625)"/>
       </defs>
       <use xlink:href="#DejaVuSans-2212"/>
       <use xlink:href="#DejaVuSans-32" x="83.789062"/>
       <use xlink:href="#DejaVuSans-2e" x="147.412109"/>
       <use xlink:href="#DejaVuSans-35" x="179.199219"/>
      </g>
     </g>
    </g>
    <g id="xtick_5">
     <g id="line2d_5">
      <g>
       <use xlink:href="#mb6c993520b" x="235.191564" y="254.750348" style="stroke: #000000"/>
      </g>
     </g>
     <g id="text_5">
      <!-- 0.0 -->
      <g transform="translate(226.842423 268.328708) scale(0.105 -0.105)">
       <use xlink:href="#DejaVuSans-30"/>
       <use xlink:href="#DejaVuSans-2e" x="63.623047"/>
       <use xlink:href="#DejaVuSans-30" x="95.410156"/>
      </g>
     </g>
    </g>
    <g id="xtick_6">
     <g id="line2d_6">
      <g>
       <use xlink:href="#mb6c993520b" x="282.401121" y="254.750348" style="stroke: #000000"/>
      </g>
     </g>
     <g id="text_6">
      <!-- 2.5 -->
      <g transform="translate(274.05198 268.328708) scale(0.105 -0.105)">
       <use xlink:href="#DejaVuSans-32"/>
       <use xlink:href="#DejaVuSans-2e" x="63.623047"/>
       <use xlink:href="#DejaVuSans-35" x="95.410156"/>
      </g>
     </g>
    </g>
    <g id="xtick_7">
     <g id="line2d_7">
      <g>
       <use xlink:href="#mb6c993520b" x="329.610677" y="254.750348" style="stroke: #000000"/>
      </g>
     </g>
     <g id="text_7">
      <!-- 5.0 -->
      <g transform="translate(321.261537 268.328708) scale(0.105 -0.105)">
       <use xlink:href="#DejaVuSans-35"/>
       <use xlink:href="#DejaVuSans-2e" x="63.623047"/>
       <use xlink:href="#DejaVuSans-30" x="95.410156"/>
      </g>
     </g>
    </g>
    <g id="xtick_8">
     <g id="line2d_8">
      <g>
       <use xlink:href="#mb6c993520b" x="376.820234" y="254.750348" style="stroke: #000000"/>
      </g>
     </g>
     <g id="text_8">
      <!-- 7.5 -->
      <g transform="translate(368.471093 268.328708) scale(0.105 -0.105)">
       <use xlink:href="#DejaVuSans-37"/>
       <use xlink:href="#DejaVuSans-2e" x="63.623047"/>
       <use xlink:href="#DejaVuSans-35" x="95.410156"/>
      </g>
     </g>
    </g>
    <g id="xtick_9">
     <g id="line2d_9">
      <g>
       <use xlink:href="#mb6c993520b" x="424.029791" y="254.750348" style="stroke: #000000"/>
      </g>
     </g>
     <g id="text_9">
      <!-- 10.0 -->
      <g transform="translate(412.340338 268.328708) scale(0.105 -0.105)">
       <use xlink:href="#DejaVuSans-31"/>
       <use xlink:href="#DejaVuSans-30" x="63.623047"/>
       <use xlink:href="#DejaVuSans-2e" x="127.246094"/>
       <use xlink:href="#DejaVuSans-30" x="159.033203"/>
      </g>
     </g>
    </g>
   </g>
   <g id="matplotlib.axis_2">
    <g id="ytick_1">
     <g id="line2d_10">
      <defs>
       <path id="m9a8488c278" d="M 0 0 
L 3 0 
" style="stroke: #000000"/>
      </defs>
      <g>
       <use xlink:href="#m9a8488c278" x="31.88" y="236.428402" style="stroke: #000000"/>
      </g>
     </g>
     <g id="text_10">
      <!-- 4 -->
      <g transform="translate(10.800703 240.417581) scale(0.105 -0.105)">
       <defs>
        <path id="DejaVuSans-34" d="M 2419 4116 
L 825 1625 
L 2419 1625 
L 2419 4116 
z
M 2253 4666 
L 3047 4666 
L 3047 1625 
L 3713 1625 
L 3713 1100 
L 3047 1100 
L 3047 0 
L 2419 0 
L 2419 1100 
L 313 1100 
L 313 1709 
L 2253 4666 
z
" transform="scale(0.015625)"/>
       </defs>
       <use xlink:href="#DejaVuSans-2212"/>
       <use xlink:href="#DejaVuSans-34" x="83.789062"/>
      </g>
     </g>
    </g>
    <g id="ytick_2">
     <g id="line2d_11">
      <g>
       <use xlink:href="#m9a8488c278" x="31.88" y="198.660756" style="stroke: #000000"/>
      </g>
     </g>
     <g id="text_11">
      <!-- 2 -->
      <g transform="translate(10.800703 202.649936) scale(0.105 -0.105)">
       <use xlink:href="#DejaVuSans-2212"/>
       <use xlink:href="#DejaVuSans-32" x="83.789062"/>
      </g>
     </g>
    </g>
    <g id="ytick_3">
     <g id="line2d_12">
      <g>
       <use xlink:href="#m9a8488c278" x="31.88" y="160.893111" style="stroke: #000000"/>
      </g>
     </g>
     <g id="text_12">
      <!-- 0 -->
      <g transform="translate(19.599375 164.882291) scale(0.105 -0.105)">
       <use xlink:href="#DejaVuSans-30"/>
      </g>
     </g>
    </g>
    <g id="ytick_4">
     <g id="line2d_13">
      <g>
       <use xlink:href="#m9a8488c278" x="31.88" y="123.125466" style="stroke: #000000"/>
      </g>
     </g>
     <g id="text_13">
      <!-- 2 -->
      <g transform="translate(19.599375 127.114645) scale(0.105 -0.105)">
       <use xlink:href="#DejaVuSans-32"/>
      </g>
     </g>
    </g>
    <g id="ytick_5">
     <g id="line2d_14">
      <g>
       <use xlink:href="#m9a8488c278" x="31.88" y="85.35782" style="stroke: #000000"/>
      </g>
     </g>
     <g id="text_14">
      <!-- 4 -->
      <g transform="translate(19.599375 89.347) scale(0.105 -0.105)">
       <use xlink:href="#DejaVuSans-34"/>
      </g>
     </g>
    </g>
   </g>
   <g id="patch_3">
    <path d="M 31.88 254.750348 
L 31.88 62.049652 
" style="fill: none; stroke: #000000; stroke-width: 0.8; stroke-linejoin: miter; stroke-linecap: square"/>
   </g>
   <g id="patch_4">
    <path d="M 450 254.750348 
L 450 62.049652 
" style="fill: none; stroke: #000000; stroke-width: 0.8; stroke-linejoin: miter; stroke-linecap: square"/>
   </g>
   <g id="patch_5">
    <path d="M 31.88 254.750348 
L 450 254.750348 
" style="fill: none; stroke: #000000; stroke-width: 0.8; stroke-linejoin: miter; stroke-linecap: square"/>
   </g>
   <g id="patch_6">
    <path d="M 31.88 62.049652 
L 450 62.049652 
" style="fill: none; stroke: #000000; stroke-width: 0.8; stroke-linejoin: miter; stroke-linecap: square"/>
   </g>
  </g>
 </g>
 <defs>
  <clipPath id="p5e96a1f53b">
   <rect x="31.88" y="62.049652" width="418.12" height="192.700697"/>
  </clipPath>
 </defs>
</svg>
