<?xml version="1.0" encoding="utf-8" standalone="no"?>
<!DOCTYPE svg PUBLIC "-//W3C//DTD SVG 1.1//EN"
  "http://www.w3.org/Graphics/SVG/1.1/DTD/svg11.dtd">
<svg xmlns:xlink="http://www.w3.org/1999/xlink" width="460.8pt" height="316.8pt" viewBox="0 0 460.8 316.8" xmlns="http://www.w3.org/2000/svg" version="1.1">
 <metadata>
  <rdf:RDF xmlns:dc="http://purl.org/dc/elements/1.1/" xmlns:cc="http://creativecommons.org/ns#" xmlns:rdf="http://www.w3.org/1999/02/22-rdf-syntax-ns#">
   <cc:Work>
    <dc:type rdf:resource="http://purl.org/dc/dcmitype/StillImage"/>
    <dc:date>2024-01-11T15:47:18.990165</dc:date>
    <dc:format>image/svg+xml</dc:format>
    <dc:creator>
     <cc:Agent>
      <dc:title>Matplotlib v3.7.2, https://matplotlib.org/</dc:title>
     </cc:Agent>
    </dc:creator>
   </cc:Work>
  </rdf:RDF>
 </metadata>
 <defs>
  <style type="text/css">*{stroke-linejoin: round; stroke-linecap: butt}</style>
 </defs>
 <g id="figure_1">
  <g id="patch_1">
   <path d="M 0 316.8 
L 460.8 316.8 
L 460.8 0 
L 0 0 
z
" style="fill: #ffffff"/>
  </g>
  <g id="axes_1">
   <g id="patch_2">
    <path d="M 41.400105 290.32 
L 432.634058 290.32 
L 432.634058 10.8 
L 41.400105 10.8 
z
" style="fill: #ffffff"/>
   </g>
   <g id="PatchCollection_1">
    <path d="M 183.910048 164.63049 
L 317.545672 164.63049 
L 317.545672 108.94898 
L 183.910048 108.94898 
z
" clip-path="url(#p7db047bc92)" style="fill: #ffffff; stroke: #0000ff; stroke-width: 3"/>
    <path d="M 59.183466 151.266928 
L 162.033085 169.40209 
L 169.543958 126.80581 
L 66.69434 108.670647 
z
" clip-path="url(#p7db047bc92)" style="fill: #ff0000; stroke: #ff0000; stroke-width: 2"/>
    <path d="M 313.091151 175.766792 
L 414.850697 152.27375 
L 405.1208 110.128935 
L 303.361254 133.621977 
z
" clip-path="url(#p7db047bc92)" style="fill: #ff0000; stroke: #ff0000; stroke-width: 2"/>
   </g>
   <g id="PatchCollection_2">
    <path d="M 100.165057 247.506849 
L 204.601297 247.506849 
L 204.601297 204.253452 
L 100.165057 204.253452 
L 100.165057 247.506849 
z
" clip-path="url(#p7db047bc92)" style="fill: none; stroke: #000000; stroke-width: 0.5"/>
    <path d="M 112.960345 255.374772 
L 216.857664 244.778763 
L 212.469212 201.748567 
L 108.571894 212.344576 
L 112.960345 255.374772 
z
" clip-path="url(#p7db047bc92)" style="fill: none; stroke: #000000; stroke-width: 0.5"/>
    <path d="M 126.487854 261.903739 
L 228.77397 240.821078 
L 220.042359 198.458178 
L 117.756242 219.540839 
L 126.487854 261.903739 
z
" clip-path="url(#p7db047bc92)" style="fill: none; stroke: #000000; stroke-width: 0.5"/>
    <path d="M 140.608069 267.026667 
L 240.227331 235.674939 
L 227.242674 194.416546 
L 127.623412 225.768273 
L 140.608069 267.026667 
z
" clip-path="url(#p7db047bc92)" style="fill: none; stroke: #000000; stroke-width: 0.5"/>
    <path d="M 149.389918 262.372338 
L 249.607733 232.990069 
L 237.438749 191.483778 
L 137.220934 220.866048 
L 149.389918 262.372338 
z
" clip-path="url(#p7db047bc92)" style="fill: none; stroke: #000000; stroke-width: 0.5"/>
    <path d="M 155.180657 252.242818 
L 257.862418 233.180181 
L 249.967421 190.65342 
L 147.28566 209.716058 
L 155.180657 252.242818 
z
" clip-path="url(#p7db047bc92)" style="fill: none; stroke: #000000; stroke-width: 0.5"/>
    <path d="M 161.969529 242.753286 
L 266.0555 234.207008 
L 262.515967 191.098679 
L 158.429996 199.644957 
L 161.969529 242.753286 
z
" clip-path="url(#p7db047bc92)" style="fill: none; stroke: #000000; stroke-width: 0.5"/>
    <path d="M 169.685947 234.001351 
L 274.101902 236.059635 
L 274.954362 192.81464 
L 170.538407 190.756356 
L 169.685947 234.001351 
z
" clip-path="url(#p7db047bc92)" style="fill: none; stroke: #000000; stroke-width: 0.5"/>
    <path d="M 178.250619 226.077608 
L 281.918923 238.719243 
L 287.154593 195.783895 
L 183.486288 183.142261 
L 178.250619 226.077608 
z
" clip-path="url(#p7db047bc92)" style="fill: none; stroke: #000000; stroke-width: 0.5"/>
    <path d="M 187.575083 219.063488 
L 289.425819 242.157983 
L 298.990653 199.9754 
L 197.139917 176.880905 
L 187.575083 219.063488 
z
" clip-path="url(#p7db047bc92)" style="fill: none; stroke: #000000; stroke-width: 0.5"/>
    <path d="M 197.563057 213.031854 
L 296.545101 246.340762 
L 310.340344 205.34628 
L 211.358301 172.037372 
L 197.563057 213.031854 
z
" clip-path="url(#p7db047bc92)" style="fill: none; stroke: #000000; stroke-width: 0.5"/>
    <path d="M 208.111296 208.04469 
L 303.203071 251.224345 
L 321.086391 211.841059 
L 225.994617 168.661404 
L 208.111296 208.04469 
z
" clip-path="url(#p7db047bc92)" style="fill: none; stroke: #000000; stroke-width: 0.5"/>
    <path d="M 216.461821 202.635452 
L 306.681925 255.240215 
L 328.468756 217.874584 
L 238.248652 165.269821 
L 216.461821 202.635452 
z
" clip-path="url(#p7db047bc92)" style="fill: none; stroke: #000000; stroke-width: 0.5"/>
    <path d="M 210.751448 188.742561 
L 295.168757 250.22952 
L 320.634245 215.26718 
L 236.216936 153.780221 
L 210.751448 188.742561 
z
" clip-path="url(#p7db047bc92)" style="fill: none; stroke: #000000; stroke-width: 0.5"/>
    <path d="M 206.480263 174.341774 
L 284.223541 244.076348 
L 313.104869 211.87813 
L 235.36159 142.143555 
L 206.480263 174.341774 
z
" clip-path="url(#p7db047bc92)" style="fill: none; stroke: #000000; stroke-width: 0.5"/>
    <path d="M 203.691955 159.582205 
L 273.958847 236.844694 
L 305.957941 207.742901 
L 235.69105 130.480413 
L 203.691955 159.582205 
z
" clip-path="url(#p7db047bc92)" style="fill: none; stroke: #000000; stroke-width: 0.5"/>
    <path d="M 202.415576 144.615633 
L 264.480886 228.608641 
L 299.267498 202.903623 
L 237.202188 118.910614 
L 202.415576 144.615633 
z
" clip-path="url(#p7db047bc92)" style="fill: none; stroke: #000000; stroke-width: 0.5"/>
    <path d="M 202.664514 129.596965 
L 255.887602 219.45369 
L 293.102736 197.410773 
L 239.879647 107.554048 
L 202.664514 129.596965 
z
" clip-path="url(#p7db047bc92)" style="fill: none; stroke: #000000; stroke-width: 0.5"/>
    <path d="M 204.435426 114.68126 
L 248.267463 209.47409 
L 287.526938 191.320579 
L 243.694901 96.527748 
L 204.435426 114.68126 
z
" clip-path="url(#p7db047bc92)" style="fill: none; stroke: #000000; stroke-width: 0.5"/>
    <path d="M 207.711365 100.021698 
L 241.699026 198.772734 
L 282.597835 184.696377 
L 248.610173 85.945341 
L 207.711365 100.021698 
z
" clip-path="url(#p7db047bc92)" style="fill: none; stroke: #000000; stroke-width: 0.5"/>
    <path d="M 212.456912 85.770584 
L 236.250401 187.460299 
L 278.366295 177.605968 
L 254.572806 75.916254 
L 212.456912 85.770584 
z
" clip-path="url(#p7db047bc92)" style="fill: none; stroke: #000000; stroke-width: 0.5"/>
    <path d="M 207.019688 77.571712 
L 234.983429 178.194559 
L 276.657468 166.613074 
L 248.693727 65.990226 
L 207.019688 77.571712 
z
" clip-path="url(#p7db047bc92)" style="fill: none; stroke: #000000; stroke-width: 0.5"/>
    <path d="M 196.423221 72.688052 
L 234.451377 169.954631 
L 274.735382 154.20486 
L 236.707225 56.93828 
L 196.423221 72.688052 
z
" clip-path="url(#p7db047bc92)" style="fill: none; stroke: #000000; stroke-width: 0.5"/>
    <path d="M 185.385145 68.905317 
L 233.086204 161.811384 
L 271.564255 142.055475 
L 223.863196 49.149408 
L 185.385145 68.905317 
z
" clip-path="url(#p7db047bc92)" style="fill: none; stroke: #000000; stroke-width: 0.5"/>
    <path d="M 174.020908 66.261263 
L 230.901721 153.84837 
L 267.176868 130.290567 
L 210.296055 42.70346 
L 174.020908 66.261263 
z
" clip-path="url(#p7db047bc92)" style="fill: none; stroke: #000000; stroke-width: 0.5"/>
    <path d="M 162.446938 64.784099 
L 227.920658 146.14822 
L 261.618488 119.031571 
L 196.144767 37.667451 
L 162.446938 64.784099 
z
" clip-path="url(#p7db047bc92)" style="fill: none; stroke: #000000; stroke-width: 0.5"/>
    <path d="M 150.782604 64.489004 
L 224.173593 138.790356 
L 254.946301 108.394685 
L 181.555311 34.093333 
L 150.782604 64.489004 
z
" clip-path="url(#p7db047bc92)" style="fill: none; stroke: #000000; stroke-width: 0.5"/>
    <path d="M 151.643131 68.907312 
L 227.261865 140.940188 
L 257.095059 109.621873 
L 181.476325 37.588996 
L 151.643131 68.907312 
z
" clip-path="url(#p7db047bc92)" style="fill: none; stroke: #000000; stroke-width: 0.5"/>
    <path d="M 152.637606 73.297377 
L 230.413999 142.995016 
L 259.280029 110.783083 
L 181.503635 41.085444 
L 152.637606 73.297377 
z
" clip-path="url(#p7db047bc92)" style="fill: none; stroke: #000000; stroke-width: 0.5"/>
    <path d="M 153.765216 77.654969 
L 233.627116 144.952852 
L 261.499261 111.877184 
L 181.637361 44.579301 
L 153.765216 77.654969 
z
" clip-path="url(#p7db047bc92)" style="fill: none; stroke: #000000; stroke-width: 0.5"/>
    <path d="M 155.024969 81.976499 
L 236.898428 146.812176 
L 263.750823 112.903398 
L 181.877365 48.067722 
L 155.024969 81.976499 
z
" clip-path="url(#p7db047bc92)" style="fill: none; stroke: #000000; stroke-width: 0.5"/>
    <path d="M 156.415701 86.257447 
L 240.224835 148.570825 
L 266.032594 113.860367 
L 182.223459 51.546989 
L 156.415701 86.257447 
z
" clip-path="url(#p7db047bc92)" style="fill: none; stroke: #000000; stroke-width: 0.5"/>
    <path d="M 157.936168 90.494149 
L 243.603242 150.227562 
L 268.34248 114.747617 
L 182.675406 55.014205 
L 157.936168 90.494149 
z
" clip-path="url(#p7db047bc92)" style="fill: none; stroke: #000000; stroke-width: 0.5"/>
    <path d="M 159.584966 94.682712 
L 247.030644 151.780711 
L 270.678397 115.564139 
L 183.232719 58.46614 
L 159.584966 94.682712 
z
" clip-path="url(#p7db047bc92)" style="fill: none; stroke: #000000; stroke-width: 0.5"/>
    <path d="M 161.360272 98.818972 
L 250.503506 153.228639 
L 273.037858 116.309006 
L 183.894623 61.899338 
L 161.360272 98.818972 
z
" clip-path="url(#p7db047bc92)" style="fill: none; stroke: #000000; stroke-width: 0.5"/>
    <path d="M 163.260848 102.899409 
L 254.018967 154.570406 
L 275.419069 116.981951 
L 184.66095 65.310954 
L 163.260848 102.899409 
z
" clip-path="url(#p7db047bc92)" style="fill: none; stroke: #000000; stroke-width: 0.5"/>
    <path d="M 165.284649 106.920062 
L 257.573591 155.804411 
L 277.819572 117.581949 
L 185.53063 68.6976 
L 165.284649 106.920062 
z
" clip-path="url(#p7db047bc92)" style="fill: none; stroke: #000000; stroke-width: 0.5"/>
    <path d="M 167.430077 110.877148 
L 261.164304 156.92954 
L 280.2374 118.108497 
L 186.503172 72.056105 
L 167.430077 110.877148 
z
" clip-path="url(#p7db047bc92)" style="fill: none; stroke: #000000; stroke-width: 0.5"/>
    <path d="M 169.694765 114.76717 
L 264.787403 157.944923 
L 282.669936 118.561279 
L 187.577298 75.383526 
L 169.694765 114.76717 
z
" clip-path="url(#p7db047bc92)" style="fill: none; stroke: #000000; stroke-width: 0.5"/>
    <path d="M 172.076957 118.586532 
L 268.439831 158.849724 
L 285.115267 118.939998 
L 188.752393 78.676806 
L 172.076957 118.586532 
z
" clip-path="url(#p7db047bc92)" style="fill: none; stroke: #000000; stroke-width: 0.5"/>
    <path d="M 174.574114 122.331435 
L 272.117957 159.642654 
L 287.570801 119.243819 
L 190.026959 81.9326 
L 174.574114 122.331435 
z
" clip-path="url(#p7db047bc92)" style="fill: none; stroke: #000000; stroke-width: 0.5"/>
    <path d="M 177.184114 125.998707 
L 275.818518 160.323372 
L 290.034448 119.472868 
L 191.400045 85.148203 
L 177.184114 125.998707 
z
" clip-path="url(#p7db047bc92)" style="fill: none; stroke: #000000; stroke-width: 0.5"/>
    <path d="M 179.904747 129.584718 
L 279.538264 160.891115 
L 292.504147 119.626818 
L 192.87063 88.320421 
L 179.904747 129.584718 
z
" clip-path="url(#p7db047bc92)" style="fill: none; stroke: #000000; stroke-width: 0.5"/>
    <path d="M 182.73327 133.086314 
L 283.273592 161.34533 
L 294.977368 119.70547 
L 194.437047 91.446454 
L 182.73327 133.086314 
z
" clip-path="url(#p7db047bc92)" style="fill: none; stroke: #000000; stroke-width: 0.5"/>
    <path d="M 185.666884 136.500303 
L 287.020827 161.685747 
L 297.45165 119.708916 
L 196.097708 94.523473 
L 185.666884 136.500303 
z
" clip-path="url(#p7db047bc92)" style="fill: none; stroke: #000000; stroke-width: 0.5"/>
    <path d="M 188.70315 139.823267 
L 290.776754 161.911897 
L 299.924999 119.637011 
L 197.851395 97.548382 
L 188.70315 139.823267 
z
" clip-path="url(#p7db047bc92)" style="fill: none; stroke: #000000; stroke-width: 0.5"/>
    <path d="M 191.839117 143.052494 
L 294.537803 162.023736 
L 302.394948 119.489966 
L 199.696262 100.518723 
L 191.839117 143.052494 
z
" clip-path="url(#p7db047bc92)" style="fill: none; stroke: #000000; stroke-width: 0.5"/>
    <path d="M 195.071978 146.184568 
L 298.300563 162.020841 
L 304.859326 119.267608 
L 201.630742 103.431335 
L 195.071978 146.184568 
z
" clip-path="url(#p7db047bc92)" style="fill: none; stroke: #000000; stroke-width: 0.5"/>
    <path d="M 193.043839 148.487991 
L 296.706634 161.17472 
L 301.96098 118.241654 
L 198.298185 105.554925 
L 193.043839 148.487991 
z
" clip-path="url(#p7db047bc92)" style="fill: none; stroke: #000000; stroke-width: 0.5"/>
    <path d="M 190.393376 150.768561 
L 294.39432 160.293885 
L 298.339336 117.22077 
L 194.338392 107.695447 
L 190.393376 150.768561 
z
" clip-path="url(#p7db047bc92)" style="fill: none; stroke: #000000; stroke-width: 0.5"/>
    <path d="M 187.813788 153.128647 
L 292.056488 159.483778 
L 294.688534 116.310538 
L 190.445834 109.955407 
L 187.813788 153.128647 
z
" clip-path="url(#p7db047bc92)" style="fill: none; stroke: #000000; stroke-width: 0.5"/>
    <path d="M 190.830261 155.810665 
L 295.218105 158.989703 
L 296.534738 115.75635 
L 192.146895 112.577312 
L 190.830261 155.810665 
z
" clip-path="url(#p7db047bc92)" style="fill: none; stroke: #000000; stroke-width: 0.5"/>
    <path d="M 194.500671 158.416433 
L 298.936911 158.416433 
L 298.936911 115.163037 
L 194.500671 115.163037 
L 194.500671 158.416433 
z
" clip-path="url(#p7db047bc92)" style="fill: none; stroke: #000000; stroke-width: 0.5"/>
   </g>
   <g id="PatchCollection_3">
    <path d="M 211.193988 225.880151 
L 206.182652 227.550596 
L 206.182652 226.436966 
L 183.910048 226.436966 
L 183.910048 225.323336 
L 206.182652 225.323336 
L 206.182652 224.209705 
z
" clip-path="url(#p7db047bc92)" style="fill: #ff0000; stroke: #ff0000; stroke-width: 0.24"/>
    <path d="M 221.222109 222.594776 
L 216.406115 224.765047 
L 216.293127 223.657164 
L 194.135456 225.916923 
L 194.022468 224.809039 
L 216.180139 222.54928 
L 216.067151 221.441397 
z
" clip-path="url(#p7db047bc92)" style="fill: #ff0000; stroke: #ff0000; stroke-width: 0.24"/>
    <path d="M 230.865125 218.308754 
L 226.294177 220.956453 
L 226.069367 219.86575 
L 204.25531 224.361945 
L 204.0305 223.271243 
L 225.844558 218.775047 
L 225.619748 217.684344 
z
" clip-path="url(#p7db047bc92)" style="fill: #ff0000; stroke: #ff0000; stroke-width: 0.24"/>
    <path d="M 240.023615 213.066619 
L 235.744887 216.164418 
L 235.410575 215.102153 
L 214.165265 221.788382 
L 213.830953 220.726116 
L 235.076264 214.039887 
L 234.741952 212.977622 
z
" clip-path="url(#p7db047bc92)" style="fill: #ff0000; stroke: #ff0000; stroke-width: 0.24"/>
    <path d="M 249.849637 210.382125 
L 245.510687 213.394995 
L 245.197376 212.326347 
L 223.824415 218.592559 
L 223.511105 217.523911 
L 244.884066 211.257699 
L 244.570755 210.189051 
z
" clip-path="url(#p7db047bc92)" style="fill: #ff0000; stroke: #ff0000; stroke-width: 0.24"/>
    <path d="M 260.396856 210.713444 
L 255.774613 213.27054 
L 255.571343 212.175619 
L 233.672908 216.241014 
L 233.469638 215.146092 
L 255.368073 211.080697 
L 255.164803 209.985775 
z
" clip-path="url(#p7db047bc92)" style="fill: #ff0000; stroke: #ff0000; stroke-width: 0.24"/>
    <path d="M 270.856313 212.113347 
L 265.998481 214.18828 
L 265.90735 213.078385 
L 243.709447 214.901008 
L 243.618315 213.791113 
L 265.816219 211.96849 
L 265.725088 210.858595 
z
" clip-path="url(#p7db047bc92)" style="fill: #ff0000; stroke: #ff0000; stroke-width: 0.24"/>
    <path d="M 281.119542 214.56707 
L 276.076258 216.138425 
L 276.098206 215.025011 
L 253.829928 214.586051 
L 253.851876 213.472637 
L 276.120154 213.911597 
L 276.142102 212.798183 
z
" clip-path="url(#p7db047bc92)" style="fill: #ff0000; stroke: #ff0000; stroke-width: 0.24"/>
    <path d="M 291.080972 218.049591 
L 285.904283 219.101148 
L 286.039084 217.995707 
L 263.930254 215.299688 
L 264.065055 214.194246 
L 286.173885 216.890265 
L 286.308686 215.784824 
z
" clip-path="url(#p7db047bc92)" style="fill: #ff0000; stroke: #ff0000; stroke-width: 0.24"/>
    <path d="M 300.637713 222.524565 
L 295.381048 223.045475 
L 295.627311 221.959414 
L 273.906104 217.034165 
L 274.152367 215.948104 
L 295.873573 220.873354 
L 296.119836 219.787294 
z
" clip-path="url(#p7db047bc92)" style="fill: #ff0000; stroke: #ff0000; stroke-width: 0.24"/>
    <path d="M 309.691109 227.946194 
L 304.408719 227.931084 
L 304.7639 226.875614 
L 283.654486 219.771987 
L 284.009667 218.716516 
L 305.119082 225.820143 
L 305.474263 224.764672 
z
" clip-path="url(#p7db047bc92)" style="fill: #ff0000; stroke: #ff0000; stroke-width: 0.24"/>
    <path d="M 318.147539 234.258481 
L 312.89394 233.707502 
L 313.354376 232.693515 
L 293.07462 223.484802 
L 293.535056 222.470814 
L 313.814811 231.679527 
L 314.275247 230.665539 
z
" clip-path="url(#p7db047bc92)" style="fill: #ff0000; stroke: #ff0000; stroke-width: 0.24"/>
    <path d="M 323.270617 239.878152 
L 318.10003 238.796991 
L 318.660968 237.834951 
L 299.42017 226.616192 
L 299.981108 225.654152 
L 319.221906 236.872912 
L 319.782844 235.910872 
z
" clip-path="url(#p7db047bc92)" style="fill: #ff0000; stroke: #ff0000; stroke-width: 0.24"/>
    <path d="M 313.230467 236.629805 
L 308.196256 235.02962 
L 308.851907 234.129456 
L 290.848642 221.016435 
L 291.504293 220.116271 
L 309.507558 233.229293 
L 310.163209 232.32913 
z
" clip-path="url(#p7db047bc92)" style="fill: #ff0000; stroke: #ff0000; stroke-width: 0.24"/>
    <path d="M 303.571863 232.379336 
L 298.725983 230.276642 
L 299.469581 229.447646 
L 282.889654 214.575696 
L 283.633251 213.746699 
L 300.213178 228.61865 
L 300.956776 227.789653 
z
" clip-path="url(#p7db047bc92)" style="fill: #ff0000; stroke: #ff0000; stroke-width: 0.24"/>
    <path d="M 294.394095 227.171105 
L 289.786559 224.587603 
L 290.610428 223.838329 
L 275.624953 207.360938 
L 276.448823 206.611664 
L 291.434298 223.089055 
L 292.258167 222.339782 
z
" clip-path="url(#p7db047bc92)" style="fill: #ff0000; stroke: #ff0000; stroke-width: 0.24"/>
    <path d="M 285.792156 221.058314 
L 281.470516 218.020666 
L 282.366155 217.358848 
L 269.129791 199.446072 
L 270.02543 198.784254 
L 283.261793 216.69703 
L 284.157432 216.035212 
z
" clip-path="url(#p7db047bc92)" style="fill: #ff0000; stroke: #ff0000; stroke-width: 0.24"/>
    <path d="M 277.854955 214.104569 
L 273.863816 210.644123 
L 274.821981 210.076591 
L 263.471354 190.913289 
L 264.429519 190.345758 
L 275.780146 209.50906 
L 276.738311 208.941529 
z
" clip-path="url(#p7db047bc92)" style="fill: #ff0000; stroke: #ff0000; stroke-width: 0.24"/>
    <path d="M 270.664162 206.381271 
L 267.044697 202.533759 
L 268.055497 202.066367 
L 258.707654 181.850365 
L 259.718454 181.382973 
L 269.066297 201.598974 
L 270.077097 201.131582 
z
" clip-path="url(#p7db047bc92)" style="fill: #ff0000; stroke: #ff0000; stroke-width: 0.24"/>
    <path d="M 264.293952 197.968359 
L 261.083555 193.773454 
L 262.136562 193.411035 
L 254.88818 172.350887 
L 255.941188 171.988468 
L 263.189569 193.048616 
L 264.242577 192.686197 
z
" clip-path="url(#p7db047bc92)" style="fill: #ff0000; stroke: #ff0000; stroke-width: 0.24"/>
    <path d="M 258.810347 188.952446 
L 256.04211 184.453475 
L 257.126453 184.199759 
L 252.052133 162.512893 
L 253.136476 162.259177 
L 258.210796 183.946043 
L 259.29514 183.692327 
z
" clip-path="url(#p7db047bc92)" style="fill: #ff0000; stroke: #ff0000; stroke-width: 0.24"/>
    <path d="M 257.585701 178.755781 
L 254.63442 174.374706 
L 255.707387 174.076522 
L 249.743697 152.617181 
L 250.816664 152.318997 
L 256.780354 173.778337 
L 257.853321 173.480153 
z
" clip-path="url(#p7db047bc92)" style="fill: #ff0000; stroke: #ff0000; stroke-width: 0.24"/>
    <path d="M 256.993962 168.219841 
L 253.613427 164.160795 
L 254.650606 163.755291 
L 246.540528 143.011725 
L 247.577706 142.606221 
L 255.687784 163.349787 
L 256.724962 162.944283 
z
" clip-path="url(#p7db047bc92)" style="fill: #ff0000; stroke: #ff0000; stroke-width: 0.24"/>
    <path d="M 255.336429 157.798261 
L 251.561489 154.103169 
L 252.55217 153.594521 
L 242.379199 133.7809 
L 243.36988 133.272252 
L 253.542851 153.085872 
L 254.533532 152.577224 
z
" clip-path="url(#p7db047bc92)" style="fill: #ff0000; stroke: #ff0000; stroke-width: 0.24"/>
    <path d="M 252.629979 147.598533 
L 248.499628 144.305499 
L 249.433592 143.698964 
L 237.3029 125.019692 
L 238.236864 124.413157 
L 250.367555 143.09243 
L 251.301519 142.485895 
z
" clip-path="url(#p7db047bc92)" style="fill: #ff0000; stroke: #ff0000; stroke-width: 0.24"/>
    <path d="M 248.902698 137.726125 
L 244.459555 134.869141 
L 245.327161 134.170978 
L 231.363903 116.818852 
L 232.231509 116.120689 
L 246.194768 133.472815 
L 247.062374 132.774652 
z
" clip-path="url(#p7db047bc92)" style="fill: #ff0000; stroke: #ff0000; stroke-width: 0.24"/>
    <path d="M 244.192861 128.282903 
L 239.482779 125.891459 
L 240.275073 125.108872 
L 224.623337 109.262988 
L 225.415631 108.480401 
L 241.067367 124.326285 
L 241.859661 123.543698 
z
" clip-path="url(#p7db047bc92)" style="fill: #ff0000; stroke: #ff0000; stroke-width: 0.24"/>
    <path d="M 246.952005 129.828211 
L 242.17131 127.581252 
L 242.939415 126.77491 
L 226.812579 111.412812 
L 227.580684 110.606471 
L 243.70752 125.968568 
L 244.475625 125.162226 
z
" clip-path="url(#p7db047bc92)" style="fill: #ff0000; stroke: #ff0000; stroke-width: 0.24"/>
    <path d="M 249.756763 131.288815 
L 244.909885 129.188423 
L 245.653088 128.359073 
L 229.066099 113.495 
L 229.809303 112.665651 
L 246.396292 127.529724 
L 247.139496 126.700374 
z
" clip-path="url(#p7db047bc92)" style="fill: #ff0000; stroke: #ff0000; stroke-width: 0.24"/>
    <path d="M 252.604588 132.663296 
L 247.696021 130.711412 
L 248.413636 129.859825 
L 231.381881 115.507536 
L 232.099495 114.655948 
L 249.13125 129.008237 
L 249.848865 128.156649 
z
" clip-path="url(#p7db047bc92)" style="fill: #ff0000; stroke: #ff0000; stroke-width: 0.24"/>
    <path d="M 255.493008 133.950634 
L 250.5273 132.149073 
L 251.218659 131.276036 
L 233.757909 117.44885 
L 234.449268 116.575812 
L 251.910019 130.402998 
L 252.601378 129.529961 
z
" clip-path="url(#p7db047bc92)" style="fill: #ff0000; stroke: #ff0000; stroke-width: 0.24"/>
    <path d="M 258.419289 135.14922 
L 253.401042 133.499651 
L 254.065506 132.605973 
L 236.191943 119.316705 
L 236.856407 118.423027 
L 254.729969 131.712295 
L 255.394433 130.818617 
z
" clip-path="url(#p7db047bc92)" style="fill: #ff0000; stroke: #ff0000; stroke-width: 0.24"/>
    <path d="M 261.380721 136.258349 
L 256.314588 134.762297 
L 256.95154 133.848807 
L 238.681744 121.109756 
L 239.318697 120.196266 
L 257.588493 132.935317 
L 258.225446 132.021827 
z
" clip-path="url(#p7db047bc92)" style="fill: #ff0000; stroke: #ff0000; stroke-width: 0.24"/>
    <path d="M 264.374657 137.27682 
L 259.265332 135.935676 
L 259.874182 135.003221 
L 241.225072 122.826211 
L 241.833923 121.893755 
L 260.483033 134.070765 
L 261.091883 133.13831 
z
" clip-path="url(#p7db047bc92)" style="fill: #ff0000; stroke: #ff0000; stroke-width: 0.24"/>
    <path d="M 267.397979 138.203512 
L 262.250197 137.018519 
L 262.830381 136.067962 
L 243.819241 124.46428 
L 244.399425 123.513723 
L 263.410565 135.117405 
L 263.990749 134.166848 
z
" clip-path="url(#p7db047bc92)" style="fill: #ff0000; stroke: #ff0000; stroke-width: 0.24"/>
    <path d="M 270.448258 139.037986 
L 265.26679 138.010237 
L 265.817771 137.04246 
L 246.462233 126.02284 
L 247.013214 125.055063 
L 266.368752 136.074683 
L 266.919733 135.106906 
z
" clip-path="url(#p7db047bc92)" style="fill: #ff0000; stroke: #ff0000; stroke-width: 0.24"/>
    <path d="M 273.522456 139.779076 
L 268.312104 138.909528 
L 268.833371 137.925428 
L 249.151361 127.500103 
L 249.672628 126.516003 
L 269.354637 136.941327 
L 269.875903 135.957227 
z
" clip-path="url(#p7db047bc92)" style="fill: #ff0000; stroke: #ff0000; stroke-width: 0.24"/>
    <path d="M 276.617962 140.426143 
L 271.383556 139.715603 
L 271.874625 138.716091 
L 251.884386 128.894724 
L 252.375455 127.895212 
L 272.365693 137.716579 
L 272.856761 136.717067 
z
" clip-path="url(#p7db047bc92)" style="fill: #ff0000; stroke: #ff0000; stroke-width: 0.24"/>
    <path d="M 279.731532 140.97876 
L 274.477922 140.427886 
L 274.938337 139.413889 
L 254.658398 130.205582 
L 255.118813 129.191585 
L 275.398753 138.399892 
L 275.859168 137.385895 
z
" clip-path="url(#p7db047bc92)" style="fill: #ff0000; stroke: #ff0000; stroke-width: 0.24"/>
    <path d="M 282.860597 141.436534 
L 277.592653 141.045832 
L 278.02199 140.01829 
L 257.471153 131.431557 
L 257.90049 130.404015 
L 278.451327 138.990748 
L 278.880663 137.963206 
z
" clip-path="url(#p7db047bc92)" style="fill: #ff0000; stroke: #ff0000; stroke-width: 0.24"/>
    <path d="M 286.001977 141.798562 
L 280.724582 141.568398 
L 281.122441 140.528264 
L 260.319744 132.571083 
L 260.717604 131.530948 
L 281.5203 139.488129 
L 281.918159 138.447994 
z
" clip-path="url(#p7db047bc92)" style="fill: #ff0000; stroke: #ff0000; stroke-width: 0.24"/>
    <path d="M 289.152924 142.064915 
L 283.870969 141.995504 
L 284.236981 140.94374 
L 263.201706 133.623487 
L 263.567719 132.571724 
L 284.602994 139.891976 
L 284.969006 138.840213 
z
" clip-path="url(#p7db047bc92)" style="fill: #ff0000; stroke: #ff0000; stroke-width: 0.24"/>
    <path d="M 292.310717 142.235229 
L 287.029096 142.326629 
L 287.362924 141.264211 
L 266.114574 134.58765 
L 266.448402 133.525232 
L 287.696752 140.201794 
L 288.03058 139.139376 
z
" clip-path="url(#p7db047bc92)" style="fill: #ff0000; stroke: #ff0000; stroke-width: 0.24"/>
    <path d="M 295.472235 142.309292 
L 290.195844 142.561424 
L 290.497177 141.489337 
L 269.055437 135.462675 
L 269.35677 134.390588 
L 290.79851 140.41725 
L 291.099843 139.345163 
z
" clip-path="url(#p7db047bc92)" style="fill: #ff0000; stroke: #ff0000; stroke-width: 0.24"/>
    <path d="M 298.634355 142.2872 
L 293.368083 142.699829 
L 293.636642 141.619066 
L 272.021385 136.247891 
L 272.289944 135.167128 
L 293.905201 140.538304 
L 294.17376 139.457541 
z
" clip-path="url(#p7db047bc92)" style="fill: #ff0000; stroke: #ff0000; stroke-width: 0.24"/>
    <path d="M 301.794422 142.168831 
L 296.543152 142.741571 
L 296.778688 141.653135 
L 275.009952 136.942401 
L 275.245489 135.853964 
L 297.014225 140.564698 
L 297.249762 139.476261 
z
" clip-path="url(#p7db047bc92)" style="fill: #ff0000; stroke: #ff0000; stroke-width: 0.24"/>
    <path d="M 304.949381 141.954439 
L 299.717978 142.686764 
L 299.920273 141.591661 
L 278.018229 137.545758 
L 278.220524 136.450656 
L 300.122569 140.496559 
L 300.324864 139.401457 
z
" clip-path="url(#p7db047bc92)" style="fill: #ff0000; stroke: #ff0000; stroke-width: 0.24"/>
    <path d="M 308.0964 141.643912 
L 302.889714 142.535143 
L 303.05858 141.434391 
L 281.043527 138.057066 
L 281.212393 136.956314 
L 303.227446 140.333638 
L 303.396312 139.232885 
z
" clip-path="url(#p7db047bc92)" style="fill: #ff0000; stroke: #ff0000; stroke-width: 0.24"/>
    <path d="M 305.877673 140.509056 
L 300.700528 141.558361 
L 300.83581 140.452979 
L 278.728155 137.747342 
L 278.863436 136.64196 
L 300.971092 139.347596 
L 301.106373 138.242213 
z
" clip-path="url(#p7db047bc92)" style="fill: #ff0000; stroke: #ff0000; stroke-width: 0.24"/>
    <path d="M 302.93204 139.358627 
L 297.789236 140.565041 
L 297.890807 139.456052 
L 275.711036 137.424633 
L 275.812607 136.315645 
L 297.992377 138.347064 
L 298.093948 137.238075 
z
" clip-path="url(#p7db047bc92)" style="fill: #ff0000; stroke: #ff0000; stroke-width: 0.24"/>
    <path d="M 299.952984 138.298335 
L 294.849286 139.660736 
L 294.917052 138.549169 
L 272.685723 137.193842 
L 272.75349 136.082275 
L 294.984818 137.437603 
L 295.052585 136.326037 
z
" clip-path="url(#p7db047bc92)" style="fill: #ff0000; stroke: #ff0000; stroke-width: 0.24"/>
    <path d="M 302.466057 137.573708 
L 297.406195 139.090835 
L 297.440094 137.97772 
L 275.177811 137.299742 
L 275.21171 136.186628 
L 297.473993 136.864606 
L 297.507892 135.751492 
z
" clip-path="url(#p7db047bc92)" style="fill: #ff0000; stroke: #ff0000; stroke-width: 0.24"/>
    <path d="M 305.529602 136.789735 
L 300.518266 138.46018 
L 300.518266 137.34655 
L 278.245662 137.34655 
L 278.245662 136.23292 
L 300.518266 136.23292 
L 300.518266 135.11929 
z
" clip-path="url(#p7db047bc92)" style="fill: #ff0000; stroke: #ff0000; stroke-width: 0.24"/>
   </g>
   <g id="matplotlib.axis_1">
    <g id="xtick_1">
     <g id="line2d_1">
      <defs>
       <path id="mf8c4bad31a" d="M 0 0 
L 0 -3 
" style="stroke: #000000"/>
      </defs>
      <g>
       <use xlink:href="#mf8c4bad31a" x="50.274425" y="290.32" style="stroke: #000000"/>
      </g>
     </g>
     <g id="text_1">
      <!-- −6 -->
      <g transform="translate(42.534776 303.898359) scale(0.105 -0.105)">
       <defs>
        <path id="DejaVuSans-2212" d="M 678 2272 
L 4684 2272 
L 4684 1741 
L 678 1741 
L 678 2272 
z
" transform="scale(0.015625)"/>
        <path id="DejaVuSans-36" d="M 2113 2584 
Q 1688 2584 1439 2293 
Q 1191 2003 1191 1497 
Q 1191 994 1439 701 
Q 1688 409 2113 409 
Q 2538 409 2786 701 
Q 3034 994 3034 1497 
Q 3034 2003 2786 2293 
Q 2538 2584 2113 2584 
z
M 3366 4563 
L 3366 3988 
Q 3128 4100 2886 4159 
Q 2644 4219 2406 4219 
Q 1781 4219 1451 3797 
Q 1122 3375 1075 2522 
Q 1259 2794 1537 2939 
Q 1816 3084 2150 3084 
Q 2853 3084 3261 2657 
Q 3669 2231 3669 1497 
Q 3669 778 3244 343 
Q 2819 -91 2113 -91 
Q 1303 -91 875 529 
Q 447 1150 447 2328 
Q 447 3434 972 4092 
Q 1497 4750 2381 4750 
Q 2619 4750 2861 4703 
Q 3103 4656 3366 4563 
z
" transform="scale(0.015625)"/>
       </defs>
       <use xlink:href="#DejaVuSans-2212"/>
       <use xlink:href="#DejaVuSans-36" x="83.789062"/>
      </g>
     </g>
    </g>
    <g id="xtick_2">
     <g id="line2d_2">
      <g>
       <use xlink:href="#mf8c4bad31a" x="94.819633" y="290.32" style="stroke: #000000"/>
      </g>
     </g>
     <g id="text_2">
      <!-- −4 -->
      <g transform="translate(87.079984 303.898359) scale(0.105 -0.105)">
       <defs>
        <path id="DejaVuSans-34" d="M 2419 4116 
L 825 1625 
L 2419 1625 
L 2419 4116 
z
M 2253 4666 
L 3047 4666 
L 3047 1625 
L 3713 1625 
L 3713 1100 
L 3047 1100 
L 3047 0 
L 2419 0 
L 2419 1100 
L 313 1100 
L 313 1709 
L 2253 4666 
z
" transform="scale(0.015625)"/>
       </defs>
       <use xlink:href="#DejaVuSans-2212"/>
       <use xlink:href="#DejaVuSans-34" x="83.789062"/>
      </g>
     </g>
    </g>
    <g id="xtick_3">
     <g id="line2d_3">
      <g>
       <use xlink:href="#mf8c4bad31a" x="139.36484" y="290.32" style="stroke: #000000"/>
      </g>
     </g>
     <g id="text_3">
      <!-- −2 -->
      <g transform="translate(131.625192 303.898359) scale(0.105 -0.105)">
       <defs>
        <path id="DejaVuSans-32" d="M 1228 531 
L 3431 531 
L 3431 0 
L 469 0 
L 469 531 
Q 828 903 1448 1529 
Q 2069 2156 2228 2338 
Q 2531 2678 2651 2914 
Q 2772 3150 2772 3378 
Q 2772 3750 2511 3984 
Q 2250 4219 1831 4219 
Q 1534 4219 1204 4116 
Q 875 4013 500 3803 
L 500 4441 
Q 881 4594 1212 4672 
Q 1544 4750 1819 4750 
Q 2544 4750 2975 4387 
Q 3406 4025 3406 3419 
Q 3406 3131 3298 2873 
Q 3191 2616 2906 2266 
Q 2828 2175 2409 1742 
Q 1991 1309 1228 531 
z
" transform="scale(0.015625)"/>
       </defs>
       <use xlink:href="#DejaVuSans-2212"/>
       <use xlink:href="#DejaVuSans-32" x="83.789062"/>
      </g>
     </g>
    </g>
    <g id="xtick_4">
     <g id="line2d_4">
      <g>
       <use xlink:href="#mf8c4bad31a" x="183.910048" y="290.32" style="stroke: #000000"/>
      </g>
     </g>
     <g id="text_4">
      <!-- 0 -->
      <g transform="translate(180.569736 303.898359) scale(0.105 -0.105)">
       <defs>
        <path id="DejaVuSans-30" d="M 2034 4250 
Q 1547 4250 1301 3770 
Q 1056 3291 1056 2328 
Q 1056 1369 1301 889 
Q 1547 409 2034 409 
Q 2525 409 2770 889 
Q 3016 1369 3016 2328 
Q 3016 3291 2770 3770 
Q 2525 4250 2034 4250 
z
M 2034 4750 
Q 2819 4750 3233 4129 
Q 3647 3509 3647 2328 
Q 3647 1150 3233 529 
Q 2819 -91 2034 -91 
Q 1250 -91 836 529 
Q 422 1150 422 2328 
Q 422 3509 836 4129 
Q 1250 4750 2034 4750 
z
" transform="scale(0.015625)"/>
       </defs>
       <use xlink:href="#DejaVuSans-30"/>
      </g>
     </g>
    </g>
    <g id="xtick_5">
     <g id="line2d_5">
      <g>
       <use xlink:href="#mf8c4bad31a" x="228.455256" y="290.32" style="stroke: #000000"/>
      </g>
     </g>
     <g id="text_5">
      <!-- 2 -->
      <g transform="translate(225.114944 303.898359) scale(0.105 -0.105)">
       <use xlink:href="#DejaVuSans-32"/>
      </g>
     </g>
    </g>
    <g id="xtick_6">
     <g id="line2d_6">
      <g>
       <use xlink:href="#mf8c4bad31a" x="273.000464" y="290.32" style="stroke: #000000"/>
      </g>
     </g>
     <g id="text_6">
      <!-- 4 -->
      <g transform="translate(269.660151 303.898359) scale(0.105 -0.105)">
       <use xlink:href="#DejaVuSans-34"/>
      </g>
     </g>
    </g>
    <g id="xtick_7">
     <g id="line2d_7">
      <g>
       <use xlink:href="#mf8c4bad31a" x="317.545672" y="290.32" style="stroke: #000000"/>
      </g>
     </g>
     <g id="text_7">
      <!-- 6 -->
      <g transform="translate(314.205359 303.898359) scale(0.105 -0.105)">
       <use xlink:href="#DejaVuSans-36"/>
      </g>
     </g>
    </g>
    <g id="xtick_8">
     <g id="line2d_8">
      <g>
       <use xlink:href="#mf8c4bad31a" x="362.09088" y="290.32" style="stroke: #000000"/>
      </g>
     </g>
     <g id="text_8">
      <!-- 8 -->
      <g transform="translate(358.750567 303.898359) scale(0.105 -0.105)">
       <defs>
        <path id="DejaVuSans-38" d="M 2034 2216 
Q 1584 2216 1326 1975 
Q 1069 1734 1069 1313 
Q 1069 891 1326 650 
Q 1584 409 2034 409 
Q 2484 409 2743 651 
Q 3003 894 3003 1313 
Q 3003 1734 2745 1975 
Q 2488 2216 2034 2216 
z
M 1403 2484 
Q 997 2584 770 2862 
Q 544 3141 544 3541 
Q 544 4100 942 4425 
Q 1341 4750 2034 4750 
Q 2731 4750 3128 4425 
Q 3525 4100 3525 3541 
Q 3525 3141 3298 2862 
Q 3072 2584 2669 2484 
Q 3125 2378 3379 2068 
Q 3634 1759 3634 1313 
Q 3634 634 3220 271 
Q 2806 -91 2034 -91 
Q 1263 -91 848 271 
Q 434 634 434 1313 
Q 434 1759 690 2068 
Q 947 2378 1403 2484 
z
M 1172 3481 
Q 1172 3119 1398 2916 
Q 1625 2713 2034 2713 
Q 2441 2713 2670 2916 
Q 2900 3119 2900 3481 
Q 2900 3844 2670 4047 
Q 2441 4250 2034 4250 
Q 1625 4250 1398 4047 
Q 1172 3844 1172 3481 
z
" transform="scale(0.015625)"/>
       </defs>
       <use xlink:href="#DejaVuSans-38"/>
      </g>
     </g>
    </g>
    <g id="xtick_9">
     <g id="line2d_9">
      <g>
       <use xlink:href="#mf8c4bad31a" x="406.636088" y="290.32" style="stroke: #000000"/>
      </g>
     </g>
     <g id="text_9">
      <!-- 10 -->
      <g transform="translate(399.955463 303.898359) scale(0.105 -0.105)">
       <defs>
        <path id="DejaVuSans-31" d="M 794 531 
L 1825 531 
L 1825 4091 
L 703 3866 
L 703 4441 
L 1819 4666 
L 2450 4666 
L 2450 531 
L 3481 531 
L 3481 0 
L 794 0 
L 794 531 
z
" transform="scale(0.015625)"/>
       </defs>
       <use xlink:href="#DejaVuSans-31"/>
       <use xlink:href="#DejaVuSans-30" x="63.623047"/>
      </g>
     </g>
    </g>
   </g>
   <g id="matplotlib.axis_2">
    <g id="ytick_1">
     <g id="line2d_10">
      <defs>
       <path id="m3386b7f716" d="M 0 0 
L 3 0 
" style="stroke: #000000"/>
      </defs>
      <g>
       <use xlink:href="#m3386b7f716" x="41.400105" y="253.720906" style="stroke: #000000"/>
      </g>
     </g>
     <g id="text_10">
      <!-- −4 -->
      <g transform="translate(20.320808 257.710085) scale(0.105 -0.105)">
       <use xlink:href="#DejaVuSans-2212"/>
       <use xlink:href="#DejaVuSans-34" x="83.789062"/>
      </g>
     </g>
    </g>
    <g id="ytick_2">
     <g id="line2d_11">
      <g>
       <use xlink:href="#m3386b7f716" x="41.400105" y="209.175698" style="stroke: #000000"/>
      </g>
     </g>
     <g id="text_11">
      <!-- −2 -->
      <g transform="translate(20.320808 213.164878) scale(0.105 -0.105)">
       <use xlink:href="#DejaVuSans-2212"/>
       <use xlink:href="#DejaVuSans-32" x="83.789062"/>
      </g>
     </g>
    </g>
    <g id="ytick_3">
     <g id="line2d_12">
      <g>
       <use xlink:href="#m3386b7f716" x="41.400105" y="164.63049" style="stroke: #000000"/>
      </g>
     </g>
     <g id="text_12">
      <!-- 0 -->
      <g transform="translate(29.11948 168.61967) scale(0.105 -0.105)">
       <use xlink:href="#DejaVuSans-30"/>
      </g>
     </g>
    </g>
    <g id="ytick_4">
     <g id="line2d_13">
      <g>
       <use xlink:href="#m3386b7f716" x="41.400105" y="120.085282" style="stroke: #000000"/>
      </g>
     </g>
     <g id="text_13">
      <!-- 2 -->
      <g transform="translate(29.11948 124.074462) scale(0.105 -0.105)">
       <use xlink:href="#DejaVuSans-32"/>
      </g>
     </g>
    </g>
    <g id="ytick_5">
     <g id="line2d_14">
      <g>
       <use xlink:href="#m3386b7f716" x="41.400105" y="75.540074" style="stroke: #000000"/>
      </g>
     </g>
     <g id="text_14">
      <!-- 4 -->
      <g transform="translate(29.11948 79.529254) scale(0.105 -0.105)">
       <use xlink:href="#DejaVuSans-34"/>
      </g>
     </g>
    </g>
    <g id="ytick_6">
     <g id="line2d_15">
      <g>
       <use xlink:href="#m3386b7f716" x="41.400105" y="30.994866" style="stroke: #000000"/>
      </g>
     </g>
     <g id="text_15">
      <!-- 6 -->
      <g transform="translate(29.11948 34.984046) scale(0.105 -0.105)">
       <use xlink:href="#DejaVuSans-36"/>
      </g>
     </g>
    </g>
   </g>
   <g id="patch_3">
    <path d="M 41.400105 290.32 
L 41.400105 10.8 
" style="fill: none; stroke: #000000; stroke-width: 0.8; stroke-linejoin: miter; stroke-linecap: square"/>
   </g>
   <g id="patch_4">
    <path d="M 432.634058 290.32 
L 432.634058 10.8 
" style="fill: none; stroke: #000000; stroke-width: 0.8; stroke-linejoin: miter; stroke-linecap: square"/>
   </g>
   <g id="patch_5">
    <path d="M 41.400105 290.32 
L 432.634058 290.32 
" style="fill: none; stroke: #000000; stroke-width: 0.8; stroke-linejoin: miter; stroke-linecap: square"/>
   </g>
   <g id="patch_6">
    <path d="M 41.400105 10.8 
L 432.634058 10.8 
" style="fill: none; stroke: #000000; stroke-width: 0.8; stroke-linejoin: miter; stroke-linecap: square"/>
   </g>
  </g>
 </g>
 <defs>
  <clipPath id="p7db047bc92">
   <rect x="41.400105" y="10.8" width="391.233954" height="279.52"/>
  </clipPath>
 </defs>
</svg>
