<?xml version="1.0" encoding="utf-8" standalone="no"?>
<!DOCTYPE svg PUBLIC "-//W3C//DTD SVG 1.1//EN"
  "http://www.w3.org/Graphics/SVG/1.1/DTD/svg11.dtd">
<svg xmlns:xlink="http://www.w3.org/1999/xlink" width="460.8pt" height="316.8pt" viewBox="0 0 460.8 316.8" xmlns="http://www.w3.org/2000/svg" version="1.1">
 <metadata>
  <rdf:RDF xmlns:dc="http://purl.org/dc/elements/1.1/" xmlns:cc="http://creativecommons.org/ns#" xmlns:rdf="http://www.w3.org/1999/02/22-rdf-syntax-ns#">
   <cc:Work>
    <dc:type rdf:resource="http://purl.org/dc/dcmitype/StillImage"/>
    <dc:date>2024-01-11T15:47:04.163728</dc:date>
    <dc:format>image/svg+xml</dc:format>
    <dc:creator>
     <cc:Agent>
      <dc:title>Matplotlib v3.7.2, https://matplotlib.org/</dc:title>
     </cc:Agent>
    </dc:creator>
   </cc:Work>
  </rdf:RDF>
 </metadata>
 <defs>
  <style type="text/css">*{stroke-linejoin: round; stroke-linecap: butt}</style>
 </defs>
 <g id="figure_1">
  <g id="patch_1">
   <path d="M 0 316.8 
L 460.8 316.8 
L 460.8 0 
L 0 0 
z
" style="fill: #ffffff"/>
  </g>
  <g id="axes_1">
   <g id="patch_2">
    <path d="M 54.444468 290.32 
L 406.355532 290.32 
L 406.355532 10.8 
L 54.444468 10.8 
z
" style="fill: #ffffff"/>
   </g>
   <g id="PatchCollection_1">
    <path d="M 182.63075 157.260119 
L 302.834669 157.260119 
L 302.834669 107.175152 
L 182.63075 107.175152 
z
" clip-path="url(#pd88f11f7fa)" style="fill: #ffffff; stroke: #0000ff; stroke-width: 3"/>
    <path d="M 70.440425 145.239727 
L 162.952638 161.552126 
L 169.708594 123.237194 
L 77.196382 106.924794 
z
" clip-path="url(#pd88f11f7fa)" style="fill: #ff0000; stroke: #ff0000; stroke-width: 2"/>
    <path d="M 298.827872 167.277112 
L 390.359575 146.145353 
L 381.607628 108.23651 
L 290.075925 129.368268 
z
" clip-path="url(#pd88f11f7fa)" style="fill: #ff0000; stroke: #ff0000; stroke-width: 2"/>
   </g>
   <g id="PatchCollection_2">
    <path d="M 107.302961 231.806582 
L 201.242323 231.806582 
L 201.242323 192.900581 
L 107.302961 192.900581 
L 107.302961 231.806582 
z
" clip-path="url(#pd88f11f7fa)" style="fill: none; stroke: #000000; stroke-width: 0.5"/>
    <path d="M 109.945373 229.092569 
L 203.821593 232.536291 
L 205.247847 193.65644 
L 111.371627 190.212719 
L 109.945373 229.092569 
z
" clip-path="url(#pd88f11f7fa)" style="fill: none; stroke: #000000; stroke-width: 0.5"/>
    <path d="M 112.685514 226.47734 
L 206.37239 233.360154 
L 209.222981 194.558722 
L 115.536105 187.675908 
L 112.685514 226.47734 
z
" clip-path="url(#pd88f11f7fa)" style="fill: none; stroke: #000000; stroke-width: 0.5"/>
    <path d="M 115.519685 223.964424 
L 208.891266 234.277114 
L 213.162378 195.606265 
L 119.790797 185.293575 
L 115.519685 223.964424 
z
" clip-path="url(#pd88f11f7fa)" style="fill: none; stroke: #000000; stroke-width: 0.5"/>
    <path d="M 118.444065 221.556882 
L 211.374835 235.285529 
L 217.060703 196.797247 
L 124.129932 183.068599 
L 118.444065 221.556882 
z
" clip-path="url(#pd88f11f7fa)" style="fill: none; stroke: #000000; stroke-width: 0.5"/>
    <path d="M 121.454734 219.258472 
L 213.819764 236.384621 
L 220.912744 198.130646 
L 128.547713 181.004497 
L 121.454734 219.258472 
z
" clip-path="url(#pd88f11f7fa)" style="fill: none; stroke: #000000; stroke-width: 0.5"/>
    <path d="M 124.54764 217.071613 
L 216.222763 237.57224 
L 224.713319 199.603998 
L 133.038196 179.103371 
L 124.54764 217.071613 
z
" clip-path="url(#pd88f11f7fa)" style="fill: none; stroke: #000000; stroke-width: 0.5"/>
    <path d="M 127.718713 214.999934 
L 218.580687 238.84748 
L 228.457406 201.216011 
L 137.595431 177.368466 
L 127.718713 214.999934 
z
" clip-path="url(#pd88f11f7fa)" style="fill: none; stroke: #000000; stroke-width: 0.5"/>
    <path d="M 130.963462 213.045588 
L 220.890114 240.208084 
L 232.139755 202.96399 
L 142.213103 175.801494 
L 130.963462 213.045588 
z
" clip-path="url(#pd88f11f7fa)" style="fill: none; stroke: #000000; stroke-width: 0.5"/>
    <path d="M 134.277652 211.211764 
L 223.148114 241.652604 
L 235.755517 204.845942 
L 146.885054 174.405102 
L 134.277652 211.211764 
z
" clip-path="url(#pd88f11f7fa)" style="fill: none; stroke: #000000; stroke-width: 0.5"/>
    <path d="M 137.65705 209.500408 
L 225.351853 243.17867 
L 239.300069 206.85892 
L 151.605266 173.180658 
L 137.65705 209.500408 
z
" clip-path="url(#pd88f11f7fa)" style="fill: none; stroke: #000000; stroke-width: 0.5"/>
    <path d="M 141.096682 207.914337 
L 227.497937 244.784746 
L 242.768215 209.000734 
L 156.366961 172.130324 
L 141.096682 207.914337 
z
" clip-path="url(#pd88f11f7fa)" style="fill: none; stroke: #000000; stroke-width: 0.5"/>
    <path d="M 144.592237 206.455347 
L 229.583792 246.468339 
L 246.155604 211.268169 
L 161.16405 171.255177 
L 144.592237 206.455347 
z
" clip-path="url(#pd88f11f7fa)" style="fill: none; stroke: #000000; stroke-width: 0.5"/>
    <path d="M 148.139079 205.125341 
L 231.606635 248.227208 
L 249.457739 213.658218 
L 165.990183 170.556351 
L 148.139079 205.125341 
z
" clip-path="url(#pd88f11f7fa)" style="fill: none; stroke: #000000; stroke-width: 0.5"/>
    <path d="M 151.732188 203.92642 
L 233.563578 250.059135 
L 252.669941 216.167781 
L 170.83855 170.035066 
L 151.732188 203.92642 
z
" clip-path="url(#pd88f11f7fa)" style="fill: none; stroke: #000000; stroke-width: 0.5"/>
    <path d="M 155.36665 202.860029 
L 235.451867 251.961575 
L 255.787803 218.793417 
L 175.702585 169.691871 
L 155.36665 202.860029 
z
" clip-path="url(#pd88f11f7fa)" style="fill: none; stroke: #000000; stroke-width: 0.5"/>
    <path d="M 159.038004 201.927448 
L 237.269388 253.931817 
L 258.807559 221.531444 
L 180.576175 169.527075 
L 159.038004 201.927448 
z
" clip-path="url(#pd88f11f7fa)" style="fill: none; stroke: #000000; stroke-width: 0.5"/>
    <path d="M 162.741053 201.130321 
L 239.013436 255.967602 
L 261.724889 224.37857 
L 185.452505 169.541289 
L 162.741053 201.130321 
z
" clip-path="url(#pd88f11f7fa)" style="fill: none; stroke: #000000; stroke-width: 0.5"/>
    <path d="M 166.470698 200.469169 
L 240.681489 258.065717 
L 264.535721 227.330517 
L 190.324931 169.733968 
L 166.470698 200.469169 
z
" clip-path="url(#pd88f11f7fa)" style="fill: none; stroke: #000000; stroke-width: 0.5"/>
    <path d="M 170.22222 199.945481 
L 242.27171 260.223793 
L 267.236624 230.383719 
L 195.187134 170.105407 
L 170.22222 199.945481 
z
" clip-path="url(#pd88f11f7fa)" style="fill: none; stroke: #000000; stroke-width: 0.5"/>
    <path d="M 173.990259 199.559472 
L 243.78159 262.438514 
L 269.823625 233.53368 
L 200.032293 170.654638 
L 173.990259 199.559472 
z
" clip-path="url(#pd88f11f7fa)" style="fill: none; stroke: #000000; stroke-width: 0.5"/>
    <path d="M 177.769898 199.31197 
L 245.209249 264.707212 
L 272.293395 236.776476 
L 204.854044 171.381234 
L 177.769898 199.31197 
z
" clip-path="url(#pd88f11f7fa)" style="fill: none; stroke: #000000; stroke-width: 0.5"/>
    <path d="M 181.556296 199.203136 
L 246.553008 267.026667 
L 274.642856 240.107577 
L 209.646144 172.284045 
L 181.556296 199.203136 
z
" clip-path="url(#pd88f11f7fa)" style="fill: none; stroke: #000000; stroke-width: 0.5"/>
    <path d="M 181.484388 195.033673 
L 243.951013 265.194379 
L 273.008827 239.323151 
L 210.542202 169.162446 
L 181.484388 195.033673 
z
" clip-path="url(#pd88f11f7fa)" style="fill: none; stroke: #000000; stroke-width: 0.5"/>
    <path d="M 180.963599 190.185268 
L 240.81623 262.588765 
L 270.802921 237.800152 
L 210.95029 165.396655 
L 180.963599 190.185268 
z
" clip-path="url(#pd88f11f7fa)" style="fill: none; stroke: #000000; stroke-width: 0.5"/>
    <path d="M 180.621045 185.32112 
L 237.779221 259.870075 
L 268.654476 236.197399 
L 211.4963 161.648444 
L 180.621045 185.32112 
z
" clip-path="url(#pd88f11f7fa)" style="fill: none; stroke: #000000; stroke-width: 0.5"/>
    <path d="M 180.456821 180.447497 
L 234.843704 257.041692 
L 266.566018 234.516777 
L 212.179135 157.922581 
L 180.456821 180.447497 
z
" clip-path="url(#pd88f11f7fa)" style="fill: none; stroke: #000000; stroke-width: 0.5"/>
    <path d="M 180.471516 175.571381 
L 232.013992 254.10785 
L 264.540719 232.760977 
L 212.998243 154.224508 
L 180.471516 175.571381 
z
" clip-path="url(#pd88f11f7fa)" style="fill: none; stroke: #000000; stroke-width: 0.5"/>
    <path d="M 180.664953 170.69892 
L 229.293813 251.072036 
L 262.581208 230.931868 
L 213.952347 150.558752 
L 180.664953 170.69892 
z
" clip-path="url(#pd88f11f7fa)" style="fill: none; stroke: #000000; stroke-width: 0.5"/>
    <path d="M 181.036982 165.836637 
L 226.686529 247.938542 
L 260.68992 229.032289 
L 215.040373 146.930384 
L 181.036982 165.836637 
z
" clip-path="url(#pd88f11f7fa)" style="fill: none; stroke: #000000; stroke-width: 0.5"/>
    <path d="M 181.587068 160.991463 
L 224.195924 244.711767 
L 258.869593 227.064849 
L 216.260736 143.344545 
L 181.587068 160.991463 
z
" clip-path="url(#pd88f11f7fa)" style="fill: none; stroke: #000000; stroke-width: 0.5"/>
    <path d="M 182.313785 156.169889 
L 221.825513 241.395631 
L 257.122675 225.031422 
L 217.610947 139.80568 
L 182.313785 156.169889 
z
" clip-path="url(#pd88f11f7fa)" style="fill: none; stroke: #000000; stroke-width: 0.5"/>
    <path d="M 183.2174 151.377999 
L 219.578038 237.995017 
L 255.451412 222.935866 
L 219.090774 136.318848 
L 183.2174 151.377999 
z
" clip-path="url(#pd88f11f7fa)" style="fill: none; stroke: #000000; stroke-width: 0.5"/>
    <path d="M 184.295923 146.622291 
L 217.456583 234.514125 
L 253.857935 220.78028 
L 220.697276 132.888446 
L 184.295923 146.622291 
z
" clip-path="url(#pd88f11f7fa)" style="fill: none; stroke: #000000; stroke-width: 0.5"/>
    <path d="M 185.547611 141.909864 
L 215.464597 230.958041 
L 252.344861 218.567598 
L 222.427875 129.519421 
L 185.547611 141.909864 
z
" clip-path="url(#pd88f11f7fa)" style="fill: none; stroke: #000000; stroke-width: 0.5"/>
    <path d="M 186.971778 137.246001 
L 213.603987 227.331123 
L 250.913713 216.301106 
L 224.281505 126.215984 
L 186.971778 137.246001 
z
" clip-path="url(#pd88f11f7fa)" style="fill: none; stroke: #000000; stroke-width: 0.5"/>
    <path d="M 188.565938 132.63739 
L 211.877562 223.638335 
L 249.566586 213.983574 
L 226.254962 122.982629 
L 188.565938 132.63739 
z
" clip-path="url(#pd88f11f7fa)" style="fill: none; stroke: #000000; stroke-width: 0.5"/>
    <path d="M 190.328168 128.090551 
L 210.287863 219.884965 
L 248.305511 211.618441 
L 228.345816 119.824027 
L 190.328168 128.090551 
z
" clip-path="url(#pd88f11f7fa)" style="fill: none; stroke: #000000; stroke-width: 0.5"/>
    <path d="M 192.25497 123.611603 
L 208.836824 216.075899 
L 247.131911 209.208344 
L 230.550056 116.744049 
L 192.25497 123.611603 
z
" clip-path="url(#pd88f11f7fa)" style="fill: none; stroke: #000000; stroke-width: 0.5"/>
    <path d="M 194.345491 119.205943 
L 207.526292 212.215998 
L 246.047411 206.757027 
L 232.86661 113.746972 
L 194.345491 119.205943 
z
" clip-path="url(#pd88f11f7fa)" style="fill: none; stroke: #000000; stroke-width: 0.5"/>
    <path d="M 196.596123 114.879863 
L 206.358149 208.310622 
L 245.053507 204.267574 
L 235.291481 110.836815 
L 196.596123 114.879863 
z
" clip-path="url(#pd88f11f7fa)" style="fill: none; stroke: #000000; stroke-width: 0.5"/>
    <path d="M 199.003698 110.639177 
L 205.333823 204.365019 
L 244.151393 201.743329 
L 237.821267 108.017487 
L 199.003698 110.639177 
z
" clip-path="url(#pd88f11f7fa)" style="fill: none; stroke: #000000; stroke-width: 0.5"/>
    <path d="M 201.564452 106.489983 
L 204.455104 200.38486 
L 243.342682 199.187666 
L 240.45203 105.292788 
L 201.564452 106.489983 
z
" clip-path="url(#pd88f11f7fa)" style="fill: none; stroke: #000000; stroke-width: 0.5"/>
    <path d="M 204.276409 102.437166 
L 203.722765 196.374897 
L 242.628091 196.604195 
L 243.181736 102.666464 
L 204.276409 102.437166 
z
" clip-path="url(#pd88f11f7fa)" style="fill: none; stroke: #000000; stroke-width: 0.5"/>
    <path d="M 207.135131 98.486424 
L 203.137933 192.340706 
L 242.008698 193.996188 
L 246.005895 100.141906 
L 207.135131 98.486424 
z
" clip-path="url(#pd88f11f7fa)" style="fill: none; stroke: #000000; stroke-width: 0.5"/>
    <path d="M 210.135913 94.643347 
L 202.701474 188.288064 
L 241.485445 191.367117 
L 248.919884 97.7224 
L 210.135913 94.643347 
z
" clip-path="url(#pd88f11f7fa)" style="fill: none; stroke: #000000; stroke-width: 0.5"/>
    <path d="M 208.698031 91.660885 
L 203.325409 185.446485 
L 242.167728 187.671615 
L 247.54035 93.886015 
L 208.698031 91.660885 
z
" clip-path="url(#pd88f11f7fa)" style="fill: none; stroke: #000000; stroke-width: 0.5"/>
    <path d="M 206.039647 88.963097 
L 204.108045 182.882599 
L 243.005821 183.682593 
L 244.937423 89.763091 
L 206.039647 88.963097 
z
" clip-path="url(#pd88f11f7fa)" style="fill: none; stroke: #000000; stroke-width: 0.5"/>
    <path d="M 203.283361 86.364774 
L 204.796314 180.291952 
L 243.697269 179.665346 
L 242.184317 85.738168 
L 203.283361 86.364774 
z
" clip-path="url(#pd88f11f7fa)" style="fill: none; stroke: #000000; stroke-width: 0.5"/>
    <path d="M 200.433453 83.869262 
L 205.388926 177.677829 
L 244.240757 175.625466 
L 239.285284 81.816899 
L 200.433453 83.869262 
z
" clip-path="url(#pd88f11f7fa)" style="fill: none; stroke: #000000; stroke-width: 0.5"/>
    <path d="M 197.949373 82.081869 
L 205.831595 175.689959 
L 244.600396 172.425451 
L 236.718174 78.817362 
L 197.949373 82.081869 
z
" clip-path="url(#pd88f11f7fa)" style="fill: none; stroke: #000000; stroke-width: 0.5"/>
    <path d="M 195.388989 80.118886 
L 206.190273 173.435209 
L 244.838236 168.961741 
L 234.036952 75.645418 
L 195.388989 80.118886 
z
" clip-path="url(#pd88f11f7fa)" style="fill: none; stroke: #000000; stroke-width: 0.5"/>
    <path d="M 192.768749 78.236786 
L 206.478562 171.170337 
L 244.967996 165.49227 
L 231.258183 72.558719 
L 192.768749 78.236786 
z
" clip-path="url(#pd88f11f7fa)" style="fill: none; stroke: #000000; stroke-width: 0.5"/>
    <path d="M 190.090851 76.437434 
L 206.695822 168.897582 
L 244.98919 162.020454 
L 228.38422 69.560307 
L 190.090851 76.437434 
z
" clip-path="url(#pd88f11f7fa)" style="fill: none; stroke: #000000; stroke-width: 0.5"/>
    <path d="M 187.358065 74.722581 
L 206.841999 166.619154 
L 244.901957 158.549672 
L 225.418023 66.653099 
L 187.358065 74.722581 
z
" clip-path="url(#pd88f11f7fa)" style="fill: none; stroke: #000000; stroke-width: 0.5"/>
    <path d="M 184.573127 73.093889 
L 206.917025 164.337267 
L 244.706455 155.083301 
L 222.362558 63.839922 
L 184.573127 73.093889 
z
" clip-path="url(#pd88f11f7fa)" style="fill: none; stroke: #000000; stroke-width: 0.5"/>
    <path d="M 181.738745 71.552953 
L 206.920815 162.054154 
L 244.402865 151.624727 
L 219.220795 61.123527 
L 181.738745 71.552953 
z
" clip-path="url(#pd88f11f7fa)" style="fill: none; stroke: #000000; stroke-width: 0.5"/>
    <path d="M 178.857589 70.101266 
L 206.853273 159.772028 
L 243.991387 148.177313 
L 215.995704 58.506551 
L 178.857589 70.101266 
z
" clip-path="url(#pd88f11f7fa)" style="fill: none; stroke: #000000; stroke-width: 0.5"/>
    <path d="M 175.932493 68.740353 
L 206.714488 157.493227 
L 243.47245 144.744532 
L 212.690455 55.991657 
L 175.932493 68.740353 
z
" clip-path="url(#pd88f11f7fa)" style="fill: none; stroke: #000000; stroke-width: 0.5"/>
    <path d="M 172.966252 67.471279 
L 206.504539 155.21971 
L 242.846499 141.329466 
L 209.308212 53.581035 
L 172.966252 67.471279 
z
" clip-path="url(#pd88f11f7fa)" style="fill: none; stroke: #000000; stroke-width: 0.5"/>
    <path d="M 169.96182 66.295506 
L 206.223691 152.953919 
L 242.114209 137.935673 
L 205.852337 51.27726 
L 169.96182 66.295506 
z
" clip-path="url(#pd88f11f7fa)" style="fill: none; stroke: #000000; stroke-width: 0.5"/>
    <path d="M 166.922308 65.214035 
L 205.8724 150.697918 
L 241.276473 134.566317 
L 202.326382 49.082434 
L 166.922308 65.214035 
z
" clip-path="url(#pd88f11f7fa)" style="fill: none; stroke: #000000; stroke-width: 0.5"/>
    <path d="M 163.850384 64.228211 
L 205.450711 148.454197 
L 240.333813 131.224972 
L 198.733486 46.998986 
L 163.850384 64.228211 
z
" clip-path="url(#pd88f11f7fa)" style="fill: none; stroke: #000000; stroke-width: 0.5"/>
    <path d="M 160.749268 63.338717 
L 204.95926 146.224666 
L 239.287371 127.91462 
L 195.077379 45.028672 
L 160.749268 63.338717 
z
" clip-path="url(#pd88f11f7fa)" style="fill: none; stroke: #000000; stroke-width: 0.5"/>
    <path d="M 157.621733 62.546383 
L 204.398274 144.011462 
L 238.137916 124.638452 
L 191.361375 43.173374 
L 157.621733 62.546383 
z
" clip-path="url(#pd88f11f7fa)" style="fill: none; stroke: #000000; stroke-width: 0.5"/>
    <path d="M 154.4711 61.852185 
L 203.768573 141.816946 
L 236.886843 121.399865 
L 187.589369 41.435104 
L 154.4711 61.852185 
z
" clip-path="url(#pd88f11f7fa)" style="fill: none; stroke: #000000; stroke-width: 0.5"/>
    <path d="M 151.300032 61.256873 
L 203.070674 139.643125 
L 235.535187 118.201754 
L 183.764545 39.815502 
L 151.300032 61.256873 
z
" clip-path="url(#pd88f11f7fa)" style="fill: none; stroke: #000000; stroke-width: 0.5"/>
    <path d="M 148.112321 60.760723 
L 202.3054 137.492164 
L 234.084555 115.047515 
L 179.891476 38.316074 
L 148.112321 60.760723 
z
" clip-path="url(#pd88f11f7fa)" style="fill: none; stroke: #000000; stroke-width: 0.5"/>
    <path d="M 144.910416 60.364262 
L 201.473003 135.366113 
L 232.53583 111.940106 
L 175.973242 36.938256 
L 144.910416 60.364262 
z
" clip-path="url(#pd88f11f7fa)" style="fill: none; stroke: #000000; stroke-width: 0.5"/>
    <path d="M 141.697771 60.067921 
L 200.574705 133.267037 
L 230.890909 108.882519 
L 172.013976 35.683403 
L 141.697771 60.067921 
z
" clip-path="url(#pd88f11f7fa)" style="fill: none; stroke: #000000; stroke-width: 0.5"/>
    <path d="M 138.477512 59.87229 
L 199.611444 131.197223 
L 229.151436 105.877945 
L 168.017504 34.553011 
L 138.477512 59.87229 
z
" clip-path="url(#pd88f11f7fa)" style="fill: none; stroke: #000000; stroke-width: 0.5"/>
    <path d="M 135.748659 60.32265 
L 199.079897 129.703902 
L 227.814892 103.474586 
L 164.483654 34.093333 
L 135.748659 60.32265 
z
" clip-path="url(#pd88f11f7fa)" style="fill: none; stroke: #000000; stroke-width: 0.5"/>
    <path d="M 136.382941 64.427206 
L 201.849722 131.797114 
L 229.751697 104.683339 
L 164.284916 37.313431 
L 136.382941 64.427206 
z
" clip-path="url(#pd88f11f7fa)" style="fill: none; stroke: #000000; stroke-width: 0.5"/>
    <path d="M 137.145154 68.509989 
L 204.683698 133.802783 
L 231.725414 105.830966 
L 164.18687 40.538172 
L 137.145154 68.509989 
z
" clip-path="url(#pd88f11f7fa)" style="fill: none; stroke: #000000; stroke-width: 0.5"/>
    <path d="M 138.034513 72.567019 
L 207.578886 135.71909 
L 233.733999 106.916537 
L 164.189625 43.764466 
L 138.034513 72.567019 
z
" clip-path="url(#pd88f11f7fa)" style="fill: none; stroke: #000000; stroke-width: 0.5"/>
    <path d="M 139.050111 76.594281 
L 210.532492 137.54404 
L 235.775493 107.938839 
L 164.293112 46.989081 
L 139.050111 76.594281 
z
" clip-path="url(#pd88f11f7fa)" style="fill: none; stroke: #000000; stroke-width: 0.5"/>
    <path d="M 140.190984 80.587927 
L 213.541719 139.275861 
L 237.84796 108.896861 
L 164.497225 50.208928 
L 140.190984 80.587927 
z
" clip-path="url(#pd88f11f7fa)" style="fill: none; stroke: #000000; stroke-width: 0.5"/>
    <path d="M 141.455796 84.543869 
L 216.603291 140.912814 
L 239.949098 109.789667 
L 164.801604 53.420722 
L 141.455796 84.543869 
z
" clip-path="url(#pd88f11f7fa)" style="fill: none; stroke: #000000; stroke-width: 0.5"/>
    <path d="M 142.84385 88.458396 
L 219.714817 142.45338 
L 242.077423 110.616439 
L 165.206456 56.621455 
L 142.84385 88.458396 
z
" clip-path="url(#pd88f11f7fa)" style="fill: none; stroke: #000000; stroke-width: 0.5"/>
    <path d="M 144.353182 92.327777 
L 222.872706 143.896063 
L 244.230269 111.376354 
L 165.710745 59.808067 
L 144.353182 92.327777 
z
" clip-path="url(#pd88f11f7fa)" style="fill: none; stroke: #000000; stroke-width: 0.5"/>
    <path d="M 145.982642 96.148029 
L 226.074094 145.239404 
L 246.405818 112.068664 
L 166.314365 62.977289 
L 145.982642 96.148029 
z
" clip-path="url(#pd88f11f7fa)" style="fill: none; stroke: #000000; stroke-width: 0.5"/>
    <path d="M 147.730726 99.91557 
L 229.316 146.482158 
L 248.602055 112.692736 
L 167.016782 66.126148 
L 147.730726 99.91557 
z
" clip-path="url(#pd88f11f7fa)" style="fill: none; stroke: #000000; stroke-width: 0.5"/>
    <path d="M 149.595472 103.626797 
L 232.595045 147.623101 
L 250.81659 113.247931 
L 167.817017 69.251628 
L 149.595472 103.626797 
z
" clip-path="url(#pd88f11f7fa)" style="fill: none; stroke: #000000; stroke-width: 0.5"/>
    <path d="M 151.5753 107.277861 
L 235.908183 148.661056 
L 253.04748 113.733682 
L 168.714598 72.350487 
L 151.5753 107.277861 
z
" clip-path="url(#pd88f11f7fa)" style="fill: none; stroke: #000000; stroke-width: 0.5"/>
    <path d="M 153.668102 110.865323 
L 239.252049 149.595051 
L 255.292384 114.149534 
L 169.708437 75.419806 
L 153.668102 110.865323 
z
" clip-path="url(#pd88f11f7fa)" style="fill: none; stroke: #000000; stroke-width: 0.5"/>
    <path d="M 155.871903 114.385728 
L 242.623487 150.424132 
L 257.549181 114.495027 
L 170.797597 78.456623 
L 155.871903 114.385728 
z
" clip-path="url(#pd88f11f7fa)" style="fill: none; stroke: #000000; stroke-width: 0.5"/>
    <path d="M 160.954754 112.25673 
L 245.661255 152.869692 
L 262.481552 117.787579 
L 177.775051 77.174618 
L 160.954754 112.25673 
z
" clip-path="url(#pd88f11f7fa)" style="fill: none; stroke: #000000; stroke-width: 0.5"/>
    <path d="M 166.143814 110.401676 
L 248.564213 155.473638 
L 267.231253 121.33834 
L 184.810854 76.266378 
L 166.143814 110.401676 
z
" clip-path="url(#pd88f11f7fa)" style="fill: none; stroke: #000000; stroke-width: 0.5"/>
    <path d="M 170.049717 113.973728 
L 253.203512 157.677851 
L 271.304046 123.238809 
L 188.150252 79.534686 
L 170.049717 113.973728 
z
" clip-path="url(#pd88f11f7fa)" style="fill: none; stroke: #000000; stroke-width: 0.5"/>
    <path d="M 173.521655 120.160184 
L 258.887571 159.368145 
L 275.125972 124.012929 
L 189.760056 84.804967 
L 173.521655 120.160184 
z
" clip-path="url(#pd88f11f7fa)" style="fill: none; stroke: #000000; stroke-width: 0.5"/>
    <path d="M 177.318848 126.152602 
L 264.653991 160.752843 
L 278.984055 124.58205 
L 191.648911 89.981809 
L 177.318848 126.152602 
z
" clip-path="url(#pd88f11f7fa)" style="fill: none; stroke: #000000; stroke-width: 0.5"/>
    <path d="M 181.430058 131.934044 
L 270.485901 161.828203 
L 282.86689 124.944764 
L 193.811047 95.050605 
L 181.430058 131.934044 
z
" clip-path="url(#pd88f11f7fa)" style="fill: none; stroke: #000000; stroke-width: 0.5"/>
    <path d="M 185.843602 137.488064 
L 276.366785 162.590996 
L 286.763435 125.099842 
L 196.240252 99.99691 
L 185.843602 137.488064 
z
" clip-path="url(#pd88f11f7fa)" style="fill: none; stroke: #000000; stroke-width: 0.5"/>
    <path d="M 181.972044 140.685297 
L 273.704998 160.925575 
L 282.087728 122.933381 
L 190.354774 102.693102 
L 181.972044 140.685297 
z
" clip-path="url(#pd88f11f7fa)" style="fill: none; stroke: #000000; stroke-width: 0.5"/>
    <path d="M 177.508123 143.916673 
L 270.189823 159.236801 
L 276.534819 120.851674 
L 183.853119 105.531546 
L 177.508123 143.916673 
z
" clip-path="url(#pd88f11f7fa)" style="fill: none; stroke: #000000; stroke-width: 0.5"/>
    <path d="M 173.223024 147.381402 
L 266.58978 157.737696 
L 270.878951 119.068846 
L 177.512195 108.712552 
L 173.223024 147.381402 
z
" clip-path="url(#pd88f11f7fa)" style="fill: none; stroke: #000000; stroke-width: 0.5"/>
    <path d="M 184.596481 167.335011 
L 276.799577 149.357443 
L 269.353973 111.170535 
L 177.150877 129.148102 
L 184.596481 167.335011 
z
" clip-path="url(#pd88f11f7fa)" style="fill: none; stroke: #000000; stroke-width: 0.5"/>
    <path d="M 178.460968 140.870137 
L 271.592452 153.163658 
L 276.683946 114.592248 
L 183.552463 102.298727 
L 178.460968 140.870137 
z
" clip-path="url(#pd88f11f7fa)" style="fill: none; stroke: #000000; stroke-width: 0.5"/>
    <path d="M 181.084788 143.17255 
L 274.506835 153.017602 
L 278.58427 114.325852 
L 185.162223 104.480801 
L 181.084788 143.17255 
z
" clip-path="url(#pd88f11f7fa)" style="fill: none; stroke: #000000; stroke-width: 0.5"/>
    <path d="M 183.768248 145.405454 
L 277.416506 152.795151 
L 280.477029 114.009714 
L 186.828771 106.620017 
L 183.768248 145.405454 
z
" clip-path="url(#pd88f11f7fa)" style="fill: none; stroke: #000000; stroke-width: 0.5"/>
    <path d="M 186.509301 147.566936 
L 280.319246 152.496234 
L 282.360768 113.643832 
L 188.550823 108.714534 
L 186.509301 147.566936 
z
" clip-path="url(#pd88f11f7fa)" style="fill: none; stroke: #000000; stroke-width: 0.5"/>
    <path d="M 189.306089 149.655861 
L 283.213092 152.121354 
L 284.234203 113.228755 
L 190.3272 110.763261 
L 189.306089 149.655861 
z
" clip-path="url(#pd88f11f7fa)" style="fill: none; stroke: #000000; stroke-width: 0.5"/>
    <path d="M 192.15691 151.670636 
L 286.096273 151.670636 
L 286.096273 112.764635 
L 192.15691 112.764635 
L 192.15691 151.670636 
z
" clip-path="url(#pd88f11f7fa)" style="fill: none; stroke: #000000; stroke-width: 0.5"/>
   </g>
   <g id="PatchCollection_3">
    <path d="M 207.172383 212.353581 
L 202.664736 213.85613 
L 202.664736 212.854431 
L 182.63075 212.854431 
L 182.63075 211.852732 
L 202.664736 211.852732 
L 202.664736 210.851032 
z
" clip-path="url(#pd88f11f7fa)" style="fill: #ff0000; stroke: #ff0000; stroke-width: 0.24"/>
    <path d="M 210.460794 213.313755 
L 205.901095 214.650049 
L 205.937816 213.649023 
L 185.917296 212.914597 
L 185.954017 211.913571 
L 205.974537 212.647997 
L 206.011259 211.646971 
z
" clip-path="url(#pd88f11f7fa)" style="fill: #ff0000; stroke: #ff0000; stroke-width: 0.24"/>
    <path d="M 213.711807 214.393926 
L 209.106186 215.562167 
L 209.179579 214.56316 
L 189.199439 213.095296 
L 189.272832 212.096289 
L 209.252972 213.564153 
L 209.326365 212.565146 
z
" clip-path="url(#pd88f11f7fa)" style="fill: #ff0000; stroke: #ff0000; stroke-width: 0.24"/>
    <path d="M 216.92104 215.592693 
L 212.275688 216.59131 
L 212.385655 215.595665 
L 192.472756 213.396328 
L 192.582723 212.400683 
L 212.495622 214.60002 
L 212.605588 213.604375 
z
" clip-path="url(#pd88f11f7fa)" style="fill: #ff0000; stroke: #ff0000; stroke-width: 0.24"/>
    <path d="M 220.08416 216.908029 
L 215.405322 217.735681 
L 215.551714 216.744737 
L 195.732825 213.816896 
L 195.879217 212.825951 
L 215.698106 215.753792 
L 215.844498 214.762848 
z
" clip-path="url(#pd88f11f7fa)" style="fill: #ff0000; stroke: #ff0000; stroke-width: 0.24"/>
    <path d="M 223.196932 218.338746 
L 218.490898 218.994322 
L 218.673519 218.00941 
L 198.975282 214.357001 
L 199.157903 213.372089 
L 218.856139 217.024498 
L 219.03876 216.039587 
z
" clip-path="url(#pd88f11f7fa)" style="fill: #ff0000; stroke: #ff0000; stroke-width: 0.24"/>
    <path d="M 226.255168 219.882251 
L 221.528264 220.364868 
L 221.746868 219.387313 
L 202.195765 215.015245 
L 202.414368 214.03769 
L 221.965471 218.409758 
L 222.184075 217.432203 
z
" clip-path="url(#pd88f11f7fa)" style="fill: #ff0000; stroke: #ff0000; stroke-width: 0.24"/>
    <path d="M 229.254842 221.537157 
L 224.513424 221.846167 
L 224.767716 220.877283 
L 205.390029 215.791434 
L 205.644322 214.82255 
L 225.022009 219.908398 
L 225.276301 218.939514 
z
" clip-path="url(#pd88f11f7fa)" style="fill: #ff0000; stroke: #ff0000; stroke-width: 0.24"/>
    <path d="M 232.191686 223.300709 
L 227.442127 223.435693 
L 227.731767 222.476782 
L 208.553552 216.68397 
L 208.843192 215.725059 
L 228.021408 221.517871 
L 228.311048 220.55896 
z
" clip-path="url(#pd88f11f7fa)" style="fill: #ff0000; stroke: #ff0000; stroke-width: 0.24"/>
    <path d="M 235.061894 225.170895 
L 230.310579 225.131675 
L 230.635177 224.184027 
L 211.68221 217.692058 
L 212.006809 216.74441 
L 230.959776 223.236378 
L 231.284374 222.28873 
z
" clip-path="url(#pd88f11f7fa)" style="fill: #ff0000; stroke: #ff0000; stroke-width: 0.24"/>
    <path d="M 237.861824 227.144785 
L 233.11514 226.931413 
L 233.47426 225.996301 
L 214.77202 218.813904 
L 215.13114 217.878792 
L 233.83338 225.061189 
L 234.1925 224.126077 
z
" clip-path="url(#pd88f11f7fa)" style="fill: #ff0000; stroke: #ff0000; stroke-width: 0.24"/>
    <path d="M 240.587282 229.220239 
L 235.851611 228.833003 
L 236.244769 227.911684 
L 217.818398 220.048513 
L 218.211556 219.127195 
L 236.637928 226.990366 
L 237.031086 226.069047 
z
" clip-path="url(#pd88f11f7fa)" style="fill: #ff0000; stroke: #ff0000; stroke-width: 0.24"/>
    <path d="M 243.234914 231.394133 
L 238.516622 230.833553 
L 238.943291 229.927267 
L 220.817559 221.393892 
L 221.244228 220.487606 
L 239.369959 229.02098 
L 239.796628 228.114693 
z
" clip-path="url(#pd88f11f7fa)" style="fill: #ff0000; stroke: #ff0000; stroke-width: 0.24"/>
    <path d="M 245.801199 233.663581 
L 241.106629 232.930407 
L 241.566235 232.040372 
L 223.765519 222.848248 
L 224.225126 221.958212 
L 242.025841 231.150336 
L 242.485447 230.2603 
z
" clip-path="url(#pd88f11f7fa)" style="fill: #ff0000; stroke: #ff0000; stroke-width: 0.24"/>
    <path d="M 248.282486 236.025653 
L 243.617948 235.120875 
L 244.109873 234.248286 
L 226.658095 224.409788 
L 227.150019 223.537199 
L 244.601798 233.375697 
L 245.093723 232.503108 
z
" clip-path="url(#pd88f11f7fa)" style="fill: #ff0000; stroke: #ff0000; stroke-width: 0.24"/>
    <path d="M 250.675332 238.477103 
L 246.047098 237.401936 
L 246.57068 236.547967 
L 229.491299 226.076321 
L 230.014881 225.222352 
L 247.094262 235.693998 
L 247.617845 234.840029 
z
" clip-path="url(#pd88f11f7fa)" style="fill: #ff0000; stroke: #ff0000; stroke-width: 0.24"/>
    <path d="M 252.976945 241.014482 
L 248.391236 239.770373 
L 248.945772 238.936172 
L 232.261748 227.845456 
L 232.816284 227.011254 
L 249.500307 238.101971 
L 250.054843 237.267769 
z
" clip-path="url(#pd88f11f7fa)" style="fill: #ff0000; stroke: #ff0000; stroke-width: 0.24"/>
    <path d="M 255.183969 243.63477 
L 250.64695 242.22339 
L 251.231693 241.410078 
L 234.965457 229.7152 
L 235.550201 228.901889 
L 251.816437 240.596766 
L 252.401181 239.783454 
z
" clip-path="url(#pd88f11f7fa)" style="fill: #ff0000; stroke: #ff0000; stroke-width: 0.24"/>
    <path d="M 257.29327 246.333984 
L 252.811042 244.757227 
L 253.425208 243.965898 
L 237.598637 231.682565 
L 238.212804 230.891236 
L 254.039375 243.174569 
L 254.653542 242.383241 
z
" clip-path="url(#pd88f11f7fa)" style="fill: #ff0000; stroke: #ff0000; stroke-width: 0.24"/>
    <path d="M 259.302397 249.108913 
L 254.880983 247.368902 
L 255.523746 246.60062 
L 240.158105 233.745361 
L 240.800868 232.977079 
L 256.166509 245.832338 
L 256.809272 245.064056 
z
" clip-path="url(#pd88f11f7fa)" style="fill: #ff0000; stroke: #ff0000; stroke-width: 0.24"/>
    <path d="M 261.208288 251.955429 
L 256.853633 250.054505 
L 257.524128 249.310302 
L 242.640073 235.900397 
L 243.310569 235.156195 
L 258.194623 248.566099 
L 258.865118 247.821896 
z
" clip-path="url(#pd88f11f7fa)" style="fill: #ff0000; stroke: #ff0000; stroke-width: 0.24"/>
    <path d="M 263.00853 254.870015 
L 258.726487 252.810732 
L 259.423814 252.091609 
L 245.041354 238.145087 
L 245.73868 237.425964 
L 260.12114 251.372486 
L 260.818466 250.653363 
z
" clip-path="url(#pd88f11f7fa)" style="fill: #ff0000; stroke: #ff0000; stroke-width: 0.24"/>
    <path d="M 264.700945 257.848581 
L 260.497271 255.633708 
L 261.220491 254.940632 
L 247.358961 240.47624 
L 248.082181 239.783164 
L 261.94371 254.247555 
L 262.66693 253.554479 
z
" clip-path="url(#pd88f11f7fa)" style="fill: #ff0000; stroke: #ff0000; stroke-width: 0.24"/>
    <path d="M 262.423217 256.687763 
L 258.303566 254.320272 
L 259.051708 253.654175 
L 245.729758 238.691346 
L 246.477899 238.025248 
L 259.799849 252.988077 
L 260.547991 252.32198 
z
" clip-path="url(#pd88f11f7fa)" style="fill: #ff0000; stroke: #ff0000; stroke-width: 0.24"/>
    <path d="M 259.587861 254.765035 
L 255.557768 252.248115 
L 256.329825 251.609891 
L 243.565348 236.168753 
L 244.337405 235.530529 
L 257.101882 250.971667 
L 257.873939 250.333444 
z
" clip-path="url(#pd88f11f7fa)" style="fill: #ff0000; stroke: #ff0000; stroke-width: 0.24"/>
    <path d="M 256.825042 252.739749 
L 252.889926 250.076782 
L 253.68486 249.46729 
L 241.495017 233.568601 
L 242.289951 232.959108 
L 254.479795 248.857798 
L 255.274729 248.248306 
z
" clip-path="url(#pd88f11f7fa)" style="fill: #ff0000; stroke: #ff0000; stroke-width: 0.24"/>
    <path d="M 254.138113 250.614356 
L 250.303262 247.808922 
L 251.120006 247.228981 
L 239.521182 230.894113 
L 240.337926 230.314172 
L 251.936749 246.64904 
L 252.753493 246.069099 
z
" clip-path="url(#pd88f11f7fa)" style="fill: #ff0000; stroke: #ff0000; stroke-width: 0.24"/>
    <path d="M 251.53105 248.392143 
L 247.801621 245.448015 
L 248.639075 244.898404 
L 237.646865 228.149317 
L 238.484319 227.599707 
L 249.47653 244.348794 
L 250.313984 243.799183 
z
" clip-path="url(#pd88f11f7fa)" style="fill: #ff0000; stroke: #ff0000; stroke-width: 0.24"/>
    <path d="M 249.007279 246.075623 
L 245.388282 242.996761 
L 246.245321 242.478219 
L 235.874482 225.337439 
L 236.731521 224.818897 
L 247.102359 241.959677 
L 247.959398 241.441135 
z
" clip-path="url(#pd88f11f7fa)" style="fill: #ff0000; stroke: #ff0000; stroke-width: 0.24"/>
    <path d="M 246.569919 243.668218 
L 243.066232 240.458747 
L 243.941705 239.971974 
L 234.206251 222.462504 
L 235.081724 221.975731 
L 244.817179 239.485201 
L 245.692652 238.998429 
z
" clip-path="url(#pd88f11f7fa)" style="fill: #ff0000; stroke: #ff0000; stroke-width: 0.24"/>
    <path d="M 244.222505 241.173275 
L 240.838838 237.83751 
L 241.731569 237.38316 
L 232.644587 219.528542 
L 233.537318 219.074193 
L 242.6243 236.928811 
L 243.517031 236.474462 
z
" clip-path="url(#pd88f11f7fa)" style="fill: #ff0000; stroke: #ff0000; stroke-width: 0.24"/>
    <path d="M 241.96833 238.593527 
L 238.709198 235.135985 
L 239.617982 234.714662 
L 231.191509 216.538986 
L 232.100293 216.117663 
L 240.526765 234.293338 
L 241.435549 233.872014 
z
" clip-path="url(#pd88f11f7fa)" style="fill: #ff0000; stroke: #ff0000; stroke-width: 0.24"/>
    <path d="M 239.810043 235.933268 
L 236.679862 232.358565 
L 237.603481 231.970842 
L 229.849027 213.498456 
L 230.772646 213.110733 
L 238.527101 231.583119 
L 239.45072 231.195397 
z
" clip-path="url(#pd88f11f7fa)" style="fill: #ff0000; stroke: #ff0000; stroke-width: 0.24"/>
    <path d="M 237.750574 233.195504 
L 234.753552 229.508446 
L 235.690765 229.154845 
L 228.618754 210.410586 
L 229.555967 210.056985 
L 236.627978 228.801245 
L 237.565191 228.447644 
z
" clip-path="url(#pd88f11f7fa)" style="fill: #ff0000; stroke: #ff0000; stroke-width: 0.24"/>
    <path d="M 235.793283 230.384116 
L 232.933412 226.589689 
L 233.882955 226.270677 
L 227.502706 207.27981 
L 228.45225 206.960797 
L 234.832498 225.951665 
L 235.782042 225.632652 
z
" clip-path="url(#pd88f11f7fa)" style="fill: #ff0000; stroke: #ff0000; stroke-width: 0.24"/>
    <path d="M 233.940047 227.50287 
L 231.221209 223.606147 
L 232.18181 223.322161 
L 226.50209 204.110149 
L 227.46269 203.826163 
L 233.142411 223.038175 
L 234.103011 222.754189 
z
" clip-path="url(#pd88f11f7fa)" style="fill: #ff0000; stroke: #ff0000; stroke-width: 0.24"/>
    <path d="M 232.193654 224.555523 
L 229.619505 220.561741 
L 230.589871 220.313164 
L 225.618316 200.905839 
L 226.588682 200.657261 
L 231.560238 220.064586 
L 232.530604 219.816008 
z
" clip-path="url(#pd88f11f7fa)" style="fill: #ff0000; stroke: #ff0000; stroke-width: 0.24"/>
    <path d="M 230.556672 221.54636 
L 228.130673 217.46089 
L 229.1095 217.248055 
L 224.852794 197.671511 
L 225.831621 197.458676 
L 230.088327 217.03522 
L 231.067154 216.822384 
z
" clip-path="url(#pd88f11f7fa)" style="fill: #ff0000; stroke: #ff0000; stroke-width: 0.24"/>
    <path d="M 229.031122 218.479066 
L 226.756492 214.307424 
L 227.742462 214.130608 
L 224.206131 194.411202 
L 225.192102 194.234385 
L 228.728432 213.953791 
L 229.714403 213.776975 
z
" clip-path="url(#pd88f11f7fa)" style="fill: #ff0000; stroke: #ff0000; stroke-width: 0.24"/>
    <path d="M 227.618909 215.357909 
L 225.498748 211.105679 
L 226.490538 210.965129 
L 223.679533 191.129332 
L 224.671323 190.988781 
L 227.482328 210.824579 
L 228.474118 210.684029 
z
" clip-path="url(#pd88f11f7fa)" style="fill: #ff0000; stroke: #ff0000; stroke-width: 0.24"/>
    <path d="M 226.32207 212.187052 
L 224.359229 207.859952 
L 225.355505 207.755857 
L 223.273605 187.830338 
L 224.269881 187.726243 
L 226.351781 207.651762 
L 227.348056 207.547667 
z
" clip-path="url(#pd88f11f7fa)" style="fill: #ff0000; stroke: #ff0000; stroke-width: 0.24"/>
    <path d="M 225.142206 208.970755 
L 223.339324 204.574603 
L 224.338746 204.507104 
L 222.988751 184.518654 
L 223.988174 184.451154 
L 225.338169 204.439604 
L 226.337591 204.372104 
z
" clip-path="url(#pd88f11f7fa)" style="fill: #ff0000; stroke: #ff0000; stroke-width: 0.24"/>
    <path d="M 224.081369 205.713515 
L 222.440825 201.254238 
L 223.44205 201.223414 
L 222.825575 181.198915 
L 223.8268 181.168091 
L 224.443275 201.192591 
L 225.4445 201.161767 
z
" clip-path="url(#pd88f11f7fa)" style="fill: #ff0000; stroke: #ff0000; stroke-width: 0.24"/>
    <path d="M 223.140478 202.419503 
L 221.664522 197.903079 
L 222.666204 197.908983 
L 222.784277 177.875344 
L 223.785959 177.881248 
L 223.667886 197.914886 
L 224.669567 197.92079 
z
" clip-path="url(#pd88f11f7fa)" style="fill: #ff0000; stroke: #ff0000; stroke-width: 0.24"/>
    <path d="M 222.320987 199.093136 
L 221.011603 194.525637 
L 222.012395 194.56826 
L 222.864858 174.552419 
L 223.86565 174.595042 
L 223.013187 194.610883 
L 224.013979 194.653507 
z
" clip-path="url(#pd88f11f7fa)" style="fill: #ff0000; stroke: #ff0000; stroke-width: 0.24"/>
    <path d="M 221.62415 195.73905 
L 220.483052 191.126629 
L 221.48161 191.205904 
L 223.067116 171.234755 
L 224.065674 171.314031 
L 222.480167 191.285179 
L 223.478725 191.364455 
z
" clip-path="url(#pd88f11f7fa)" style="fill: #ff0000; stroke: #ff0000; stroke-width: 0.24"/>
    <path d="M 222.407414 192.479404 
L 221.165128 187.893201 
L 222.165187 187.95049 
L 223.31098 167.949296 
L 224.31104 168.006586 
L 223.165247 188.00778 
L 224.165307 188.065069 
z
" clip-path="url(#pd88f11f7fa)" style="fill: #ff0000; stroke: #ff0000; stroke-width: 0.24"/>
    <path d="M 223.434997 189.211402 
L 222.025453 184.673812 
L 223.026941 184.69441 
L 223.438884 164.664659 
L 224.440372 164.685256 
L 224.028428 184.715007 
L 225.029916 184.735604 
z
" clip-path="url(#pd88f11f7fa)" style="fill: #ff0000; stroke: #ff0000; stroke-width: 0.24"/>
    <path d="M 224.342299 185.90794 
L 222.767346 181.425077 
L 223.768916 181.408944 
L 223.446256 161.377556 
L 224.447825 161.361423 
L 224.770485 181.392811 
L 225.772055 181.376678 
z
" clip-path="url(#pd88f11f7fa)" style="fill: #ff0000; stroke: #ff0000; stroke-width: 0.24"/>
    <path d="M 225.127663 182.573451 
L 223.38942 178.151342 
L 224.389724 178.098501 
L 223.332895 158.092408 
L 224.3332 158.039567 
L 225.390029 178.045659 
L 226.390334 177.992818 
z
" clip-path="url(#pd88f11f7fa)" style="fill: #ff0000; stroke: #ff0000; stroke-width: 0.24"/>
    <path d="M 225.713573 179.966853 
L 223.838097 175.601177 
L 224.836263 175.517127 
L 223.155261 155.55379 
L 224.153427 155.469739 
L 225.83443 175.433077 
L 226.832597 175.349027 
z
" clip-path="url(#pd88f11f7fa)" style="fill: #ff0000; stroke: #ff0000; stroke-width: 0.24"/>
    <path d="M 226.196102 177.089205 
L 224.185222 172.784219 
L 225.180278 172.669042 
L 222.876741 152.767929 
L 223.871797 152.652752 
L 226.175334 172.553866 
L 227.170389 172.438689 
z
" clip-path="url(#pd88f11f7fa)" style="fill: #ff0000; stroke: #ff0000; stroke-width: 0.24"/>
    <path d="M 226.588731 174.19787 
L 224.444409 169.957774 
L 225.435383 169.811582 
L 222.511559 149.9921 
L 223.502533 149.845909 
L 226.426357 169.665391 
L 227.417331 169.5192 
z
" clip-path="url(#pd88f11f7fa)" style="fill: #ff0000; stroke: #ff0000; stroke-width: 0.24"/>
    <path d="M 226.890719 171.2957 
L 224.615046 167.124627 
L 225.600973 166.947564 
L 222.059712 147.229043 
L 223.045638 147.05198 
L 226.586899 166.770501 
L 227.572825 166.593438 
z
" clip-path="url(#pd88f11f7fa)" style="fill: #ff0000; stroke: #ff0000; stroke-width: 0.24"/>
    <path d="M 227.10193 168.385519 
L 224.697126 164.287538 
L 225.677042 164.079776 
L 221.521799 144.481445 
L 222.501716 144.273683 
L 226.656959 163.872014 
L 227.636875 163.664252 
z
" clip-path="url(#pd88f11f7fa)" style="fill: #ff0000; stroke: #ff0000; stroke-width: 0.24"/>
    <path d="M 227.222231 165.470156 
L 224.69064 161.449263 
L 225.663592 161.211004 
L 220.898418 141.751977 
L 221.87137 141.513718 
L 226.636543 160.972746 
L 227.609494 160.734487 
z
" clip-path="url(#pd88f11f7fa)" style="fill: #ff0000; stroke: #ff0000; stroke-width: 0.24"/>
    <path d="M 227.251495 162.552461 
L 224.595586 158.612578 
L 225.560623 158.344055 
L 220.190167 139.043308 
L 221.155204 138.774786 
L 226.525661 158.075532 
L 227.490698 157.807009 
z
" clip-path="url(#pd88f11f7fa)" style="fill: #ff0000; stroke: #ff0000; stroke-width: 0.24"/>
    <path d="M 227.189599 159.635269 
L 224.411963 155.780237 
L 225.368145 155.481712 
L 219.397643 136.358069 
L 220.353825 136.059544 
L 226.324327 155.183187 
L 227.280509 154.884662 
z
" clip-path="url(#pd88f11f7fa)" style="fill: #ff0000; stroke: #ff0000; stroke-width: 0.24"/>
    <path d="M 227.036627 156.721535 
L 224.139973 152.955114 
L 225.086367 152.626878 
L 218.521642 133.698988 
L 219.468037 133.370752 
L 226.032762 152.298641 
L 226.979156 151.970405 
z
" clip-path="url(#pd88f11f7fa)" style="fill: #ff0000; stroke: #ff0000; stroke-width: 0.24"/>
    <path d="M 226.792673 153.813837 
L 223.779824 150.1397 
L 224.715508 149.782073 
L 217.562962 131.068396 
L 218.498646 130.710769 
L 225.651192 149.424446 
L 226.586876 149.066818 
z
" clip-path="url(#pd88f11f7fa)" style="fill: #ff0000; stroke: #ff0000; stroke-width: 0.24"/>
    <path d="M 226.458033 150.915236 
L 223.331929 147.336967 
L 224.25599 146.950297 
L 216.522599 128.469083 
L 217.44666 128.082413 
L 225.180051 146.563628 
L 226.104111 146.176958 
z
" clip-path="url(#pd88f11f7fa)" style="fill: #ff0000; stroke: #ff0000; stroke-width: 0.24"/>
    <path d="M 226.033218 148.028413 
L 222.796907 144.549501 
L 223.708444 144.134167 
L 215.401749 125.903439 
L 216.313285 125.488104 
L 224.61998 143.718832 
L 225.531516 143.303497 
z
" clip-path="url(#pd88f11f7fa)" style="fill: #ff0000; stroke: #ff0000; stroke-width: 0.24"/>
    <path d="M 225.518343 145.156473 
L 222.174982 141.780311 
L 223.073105 141.336717 
L 214.201208 123.374254 
L 215.099331 122.930659 
L 223.971228 140.893122 
L 224.869351 140.449527 
z
" clip-path="url(#pd88f11f7fa)" style="fill: #ff0000; stroke: #ff0000; stroke-width: 0.24"/>
    <path d="M 224.914136 142.30194 
L 221.466984 139.031821 
L 222.350818 138.560399 
L 212.922371 120.883719 
L 213.806205 120.412297 
L 223.234652 138.088976 
L 224.118486 137.617554 
z
" clip-path="url(#pd88f11f7fa)" style="fill: #ff0000; stroke: #ff0000; stroke-width: 0.24"/>
    <path d="M 224.220933 139.46756 
L 220.673353 136.306672 
L 221.542036 135.807882 
L 211.566233 118.434225 
L 212.434916 117.935434 
L 222.410719 135.309092 
L 223.279402 134.810302 
z
" clip-path="url(#pd88f11f7fa)" style="fill: #ff0000; stroke: #ff0000; stroke-width: 0.24"/>
    <path d="M 223.439683 136.656298 
L 219.795135 133.607724 
L 220.647819 133.082053 
L 210.134389 116.028361 
L 210.987074 115.50269 
L 221.500504 132.556381 
L 222.353188 132.03071 
z
" clip-path="url(#pd88f11f7fa)" style="fill: #ff0000; stroke: #ff0000; stroke-width: 0.24"/>
    <path d="M 222.571028 133.870687 
L 218.833054 130.937416 
L 219.668906 130.385372 
L 208.628035 113.668321 
L 209.463888 113.116278 
L 220.504759 129.833328 
L 221.340611 129.281285 
z
" clip-path="url(#pd88f11f7fa)" style="fill: #ff0000; stroke: #ff0000; stroke-width: 0.24"/>
    <path d="M 221.615996 131.113624 
L 217.78825 128.298505 
L 218.606456 127.72063 
L 207.048965 111.356493 
L 207.867171 110.778618 
L 219.424663 127.142756 
L 220.24287 126.564881 
z
" clip-path="url(#pd88f11f7fa)" style="fill: #ff0000; stroke: #ff0000; stroke-width: 0.24"/>
    <path d="M 220.575013 128.387711 
L 216.661231 125.693486 
L 217.460995 125.090345 
L 205.39817 109.095068 
L 206.197934 108.491927 
L 218.260759 124.487203 
L 219.060523 123.884062 
z
" clip-path="url(#pd88f11f7fa)" style="fill: #ff0000; stroke: #ff0000; stroke-width: 0.24"/>
    <path d="M 219.4495 125.695579 
L 215.4535 123.124875 
L 216.234041 122.497055 
L 203.677646 106.886239 
L 204.458187 106.25842 
L 217.014582 121.869236 
L 217.795122 121.241416 
z
" clip-path="url(#pd88f11f7fa)" style="fill: #ff0000; stroke: #ff0000; stroke-width: 0.24"/>
    <path d="M 218.240609 123.040075 
L 214.166285 120.595404 
L 214.926841 119.943517 
L 201.889108 104.732399 
L 202.649664 104.080512 
L 215.687397 119.29163 
L 216.447953 118.639744 
z
" clip-path="url(#pd88f11f7fa)" style="fill: #ff0000; stroke: #ff0000; stroke-width: 0.24"/>
    <path d="M 217.445272 120.969037 
L 213.2966 118.652778 
L 214.03643 117.977461 
L 200.530088 103.180862 
L 201.269918 102.505545 
L 214.77626 117.302144 
L 215.51609 116.626827 
z
" clip-path="url(#pd88f11f7fa)" style="fill: #ff0000; stroke: #ff0000; stroke-width: 0.24"/>
    <path d="M 219.933396 122.493051 
L 215.714422 120.307463 
L 216.432805 119.609374 
L 202.471026 105.241725 
L 203.189408 104.543636 
L 217.151187 118.911285 
L 217.86957 118.213196 
z
" clip-path="url(#pd88f11f7fa)" style="fill: #ff0000; stroke: #ff0000; stroke-width: 0.24"/>
    <path d="M 222.468025 123.938578 
L 218.182862 121.885798 
L 218.879095 121.165617 
L 204.475482 107.240943 
L 205.171716 106.520763 
L 219.575329 120.445436 
L 220.271563 119.725256 
z
" clip-path="url(#pd88f11f7fa)" style="fill: #ff0000; stroke: #ff0000; stroke-width: 0.24"/>
    <path d="M 225.046533 125.30438 
L 220.699361 123.386405 
L 221.372768 122.644835 
L 206.541381 109.176703 
L 207.214787 108.435134 
L 222.046174 121.903266 
L 222.719581 121.161697 
z
" clip-path="url(#pd88f11f7fa)" style="fill: #ff0000; stroke: #ff0000; stroke-width: 0.24"/>
    <path d="M 227.666423 126.588982 
L 223.261482 124.807682 
L 223.911405 124.045447 
L 208.666708 111.046992 
L 209.316631 110.284757 
L 224.561327 123.283212 
L 225.21125 122.520978 
z
" clip-path="url(#pd88f11f7fa)" style="fill: #ff0000; stroke: #ff0000; stroke-width: 0.24"/>
    <path d="M 230.325212 127.791123 
L 225.866797 126.14824 
L 226.492601 125.366082 
L 210.84945 112.849995 
L 211.475254 112.067837 
L 227.118405 124.583924 
L 227.74421 123.801767 
z
" clip-path="url(#pd88f11f7fa)" style="fill: #ff0000; stroke: #ff0000; stroke-width: 0.24"/>
    <path d="M 233.01999 128.909613 
L 228.51245 127.406744 
L 229.113526 126.605428 
L 213.087189 114.5839 
L 213.688266 113.782583 
L 229.714603 125.804111 
L 230.315679 125.002794 
z
" clip-path="url(#pd88f11f7fa)" style="fill: #ff0000; stroke: #ff0000; stroke-width: 0.24"/>
    <path d="M 235.748712 129.943422 
L 231.196443 128.582034 
L 231.772205 127.762339 
L 215.378311 116.247094 
L 215.954074 115.4274 
L 232.347967 126.942645 
L 232.92373 126.12295 
z
" clip-path="url(#pd88f11f7fa)" style="fill: #ff0000; stroke: #ff0000; stroke-width: 0.24"/>
    <path d="M 238.508148 130.891532 
L 233.915588 129.672957 
L 234.465474 128.835683 
L 217.72 117.837968 
L 218.269886 117.000694 
L 235.015359 127.998409 
L 235.565245 127.161136 
z
" clip-path="url(#pd88f11f7fa)" style="fill: #ff0000; stroke: #ff0000; stroke-width: 0.24"/>
    <path d="M 241.295846 131.752999 
L 236.667476 130.67842 
L 237.19095 129.824384 
L 220.110239 119.354908 
L 220.633713 118.500872 
L 237.714423 128.970349 
L 238.237897 128.116313 
z
" clip-path="url(#pd88f11f7fa)" style="fill: #ff0000; stroke: #ff0000; stroke-width: 0.24"/>
    <path d="M 244.109217 132.527031 
L 239.44955 131.597496 
L 239.946101 130.727532 
L 222.546811 120.796504 
L 223.043362 119.92654 
L 240.442653 129.857567 
L 240.939204 128.987603 
z
" clip-path="url(#pd88f11f7fa)" style="fill: #ff0000; stroke: #ff0000; stroke-width: 0.24"/>
    <path d="M 246.945287 133.212847 
L 242.258866 132.429269 
L 242.72801 131.544223 
L 225.027099 122.161348 
L 225.496243 121.276302 
L 243.197154 130.659178 
L 243.666298 129.774132 
z
" clip-path="url(#pd88f11f7fa)" style="fill: #ff0000; stroke: #ff0000; stroke-width: 0.24"/>
    <path d="M 249.801468 133.809744 
L 245.092866 133.172881 
L 245.534145 132.273618 
L 227.548885 123.448027 
L 227.990165 122.548764 
L 245.975425 131.374355 
L 246.416704 130.475092 
z
" clip-path="url(#pd88f11f7fa)" style="fill: #ff0000; stroke: #ff0000; stroke-width: 0.24"/>
    <path d="M 252.674829 134.317163 
L 247.948636 133.827636 
L 248.361621 132.915033 
L 230.109553 124.655334 
L 230.522538 123.742731 
L 248.774606 132.00243 
L 249.187591 131.089826 
z
" clip-path="url(#pd88f11f7fa)" style="fill: #ff0000; stroke: #ff0000; stroke-width: 0.24"/>
    <path d="M 255.562655 134.734557 
L 250.823481 134.392848 
L 251.207768 133.467794 
L 232.706683 125.78206 
L 233.09097 124.857006 
L 251.592054 132.542739 
L 251.976341 131.617685 
z
" clip-path="url(#pd88f11f7fa)" style="fill: #ff0000; stroke: #ff0000; stroke-width: 0.24"/>
    <path d="M 259.418625 137.892388 
L 254.704414 137.29846 
L 255.137481 136.395213 
L 237.072541 127.733886 
L 237.505608 126.830639 
L 255.570547 135.491966 
L 256.003613 134.588719 
z
" clip-path="url(#pd88f11f7fa)" style="fill: #ff0000; stroke: #ff0000; stroke-width: 0.24"/>
    <path d="M 263.100641 141.251223 
L 258.424807 140.406765 
L 258.905421 139.527896 
L 241.328027 129.91562 
L 241.808641 129.03675 
L 259.386035 138.649026 
L 259.866648 137.770156 
z
" clip-path="url(#pd88f11f7fa)" style="fill: #ff0000; stroke: #ff0000; stroke-width: 0.24"/>
    <path d="M 267.502984 143.217217 
L 262.813836 142.450125 
L 263.279865 141.563435 
L 245.546063 132.242871 
L 246.012091 131.356181 
L 263.745893 140.676745 
L 264.211921 139.790055 
z
" clip-path="url(#pd88f11f7fa)" style="fill: #ff0000; stroke: #ff0000; stroke-width: 0.24"/>
    <path d="M 272.39562 144.165597 
L 267.67224 143.649635 
L 268.090324 142.739356 
L 249.884755 134.377667 
L 250.302839 133.467388 
L 268.508409 141.829078 
L 268.926493 140.918799 
z
" clip-path="url(#pd88f11f7fa)" style="fill: #ff0000; stroke: #ff0000; stroke-width: 0.24"/>
    <path d="M 277.332182 144.851637 
L 272.588009 144.588272 
L 272.95696 143.656995 
L 254.331423 136.277972 
L 254.700374 135.346695 
L 273.325911 142.725719 
L 273.694863 141.794442 
z
" clip-path="url(#pd88f11f7fa)" style="fill: #ff0000; stroke: #ff0000; stroke-width: 0.24"/>
    <path d="M 282.298176 145.273596 
L 277.546709 145.263573 
L 277.865478 144.313948 
L 258.872976 137.938568 
L 259.191745 136.988943 
L 278.184247 143.364323 
L 278.503016 142.414698 
z
" clip-path="url(#pd88f11f7fa)" style="fill: #ff0000; stroke: #ff0000; stroke-width: 0.24"/>
    <path d="M 287.279518 145.430078 
L 282.534277 145.673431 
L 282.801956 144.708159 
L 263.496522 139.35458 
L 263.764201 138.389308 
L 283.069635 143.742887 
L 283.337314 142.777616 
z
" clip-path="url(#pd88f11f7fa)" style="fill: #ff0000; stroke: #ff0000; stroke-width: 0.24"/>
    <path d="M 283.687141 143.207176 
L 278.961626 143.703211 
L 279.177454 142.725039 
L 259.614017 138.408494 
L 259.829844 137.430322 
L 279.393281 141.746867 
L 279.609108 140.768695 
z
" clip-path="url(#pd88f11f7fa)" style="fill: #ff0000; stroke: #ff0000; stroke-width: 0.24"/>
    <path d="M 279.212989 141.011343 
L 274.520647 141.758645 
L 274.68401 140.770356 
L 254.918239 137.503108 
L 255.081601 136.514819 
L 274.847372 139.782068 
L 275.010735 138.793779 
z
" clip-path="url(#pd88f11f7fa)" style="fill: #ff0000; stroke: #ff0000; stroke-width: 0.24"/>
    <path d="M 274.628279 139.057027 
L 269.98246 140.053474 
L 270.092892 139.057881 
L 250.181023 136.849245 
L 250.291455 135.853651 
L 270.203324 138.062287 
L 270.313756 137.066694 
z
" clip-path="url(#pd88f11f7fa)" style="fill: #ff0000; stroke: #ff0000; stroke-width: 0.24"/>
    <path d="M 278.897231 129.129129 
L 274.760447 131.466554 
L 274.568748 130.483369 
L 254.905046 134.317356 
L 254.713347 133.334171 
L 274.377048 129.500183 
L 274.185349 128.516998 
z
" clip-path="url(#pd88f11f7fa)" style="fill: #ff0000; stroke: #ff0000; stroke-width: 0.24"/>
    <path d="M 280.01726 134.653999 
L 275.351746 135.553726 
L 275.482835 134.560641 
L 255.621141 131.938862 
L 255.75223 130.945778 
L 275.613924 133.567557 
L 275.745013 132.574472 
z
" clip-path="url(#pd88f11f7fa)" style="fill: #ff0000; stroke: #ff0000; stroke-width: 0.24"/>
    <path d="M 282.442956 134.29321 
L 277.802662 135.315074 
L 277.907642 134.318891 
L 257.983981 132.219285 
L 258.088961 131.223102 
L 278.012623 133.322707 
L 278.117603 132.326524 
z
" clip-path="url(#pd88f11f7fa)" style="fill: #ff0000; stroke: #ff0000; stroke-width: 0.24"/>
    <path d="M 284.858451 133.868918 
L 280.246576 135.012219 
L 280.325374 134.013624 
L 260.35347 132.437659 
L 260.432268 131.439064 
L 280.404172 133.015028 
L 280.48297 132.016433 
z
" clip-path="url(#pd88f11f7fa)" style="fill: #ff0000; stroke: #ff0000; stroke-width: 0.24"/>
    <path d="M 287.261898 133.381202 
L 282.681617 134.645151 
L 282.73418 133.644832 
L 262.727793 132.593584 
L 262.780356 131.593265 
L 282.786742 132.644512 
L 282.839304 131.644193 
z
" clip-path="url(#pd88f11f7fa)" style="fill: #ff0000; stroke: #ff0000; stroke-width: 0.24"/>
    <path d="M 289.651665 132.830692 
L 285.106136 134.214418 
L 285.132426 133.213064 
L 265.10534 132.68726 
L 265.131631 131.685906 
L 285.158716 132.211709 
L 285.185006 131.210355 
z
" clip-path="url(#pd88f11f7fa)" style="fill: #ff0000; stroke: #ff0000; stroke-width: 0.24"/>
    <path d="M 292.026333 132.217635 
L 287.518686 133.720184 
L 287.518686 132.718485 
L 267.4847 132.718485 
L 267.4847 131.716786 
L 287.518686 131.716786 
L 287.518686 130.715086 
z
" clip-path="url(#pd88f11f7fa)" style="fill: #ff0000; stroke: #ff0000; stroke-width: 0.24"/>
   </g>
   <g id="matplotlib.axis_1">
    <g id="xtick_1">
     <g id="line2d_1">
      <defs>
       <path id="mc6d8605fec" d="M 0 0 
L 0 -3 
" style="stroke: #000000"/>
      </defs>
      <g>
       <use xlink:href="#mc6d8605fec" x="62.426831" y="290.32" style="stroke: #000000"/>
      </g>
     </g>
     <g id="text_1">
      <!-- 6 -->
      <g transform="translate(54.687182 303.898359) scale(0.105 -0.105)">
       <defs>
        <path id="DejaVuSans-2212" d="M 678 2272 
L 4684 2272 
L 4684 1741 
L 678 1741 
L 678 2272 
z
" transform="scale(0.015625)"/>
        <path id="DejaVuSans-36" d="M 2113 2584 
Q 1688 2584 1439 2293 
Q 1191 2003 1191 1497 
Q 1191 994 1439 701 
Q 1688 409 2113 409 
Q 2538 409 2786 701 
Q 3034 994 3034 1497 
Q 3034 2003 2786 2293 
Q 2538 2584 2113 2584 
z
M 3366 4563 
L 3366 3988 
Q 3128 4100 2886 4159 
Q 2644 4219 2406 4219 
Q 1781 4219 1451 3797 
Q 1122 3375 1075 2522 
Q 1259 2794 1537 2939 
Q 1816 3084 2150 3084 
Q 2853 3084 3261 2657 
Q 3669 2231 3669 1497 
Q 3669 778 3244 343 
Q 2819 -91 2113 -91 
Q 1303 -91 875 529 
Q 447 1150 447 2328 
Q 447 3434 972 4092 
Q 1497 4750 2381 4750 
Q 2619 4750 2861 4703 
Q 3103 4656 3366 4563 
z
" transform="scale(0.015625)"/>
       </defs>
       <use xlink:href="#DejaVuSans-2212"/>
       <use xlink:href="#DejaVuSans-36" x="83.789062"/>
      </g>
     </g>
    </g>
    <g id="xtick_2">
     <g id="line2d_2">
      <g>
       <use xlink:href="#mc6d8605fec" x="102.494804" y="290.32" style="stroke: #000000"/>
      </g>
     </g>
     <g id="text_2">
      <!-- 4 -->
      <g transform="translate(94.755155 303.898359) scale(0.105 -0.105)">
       <defs>
        <path id="DejaVuSans-34" d="M 2419 4116 
L 825 1625 
L 2419 1625 
L 2419 4116 
z
M 2253 4666 
L 3047 4666 
L 3047 1625 
L 3713 1625 
L 3713 1100 
L 3047 1100 
L 3047 0 
L 2419 0 
L 2419 1100 
L 313 1100 
L 313 1709 
L 2253 4666 
z
" transform="scale(0.015625)"/>
       </defs>
       <use xlink:href="#DejaVuSans-2212"/>
       <use xlink:href="#DejaVuSans-34" x="83.789062"/>
      </g>
     </g>
    </g>
    <g id="xtick_3">
     <g id="line2d_3">
      <g>
       <use xlink:href="#mc6d8605fec" x="142.562777" y="290.32" style="stroke: #000000"/>
      </g>
     </g>
     <g id="text_3">
      <!-- 2 -->
      <g transform="translate(134.823128 303.898359) scale(0.105 -0.105)">
       <defs>
        <path id="DejaVuSans-32" d="M 1228 531 
L 3431 531 
L 3431 0 
L 469 0 
L 469 531 
Q 828 903 1448 1529 
Q 2069 2156 2228 2338 
Q 2531 2678 2651 2914 
Q 2772 3150 2772 3378 
Q 2772 3750 2511 3984 
Q 2250 4219 1831 4219 
Q 1534 4219 1204 4116 
Q 875 4013 500 3803 
L 500 4441 
Q 881 4594 1212 4672 
Q 1544 4750 1819 4750 
Q 2544 4750 2975 4387 
Q 3406 4025 3406 3419 
Q 3406 3131 3298 2873 
Q 3191 2616 2906 2266 
Q 2828 2175 2409 1742 
Q 1991 1309 1228 531 
z
" transform="scale(0.015625)"/>
       </defs>
       <use xlink:href="#DejaVuSans-2212"/>
       <use xlink:href="#DejaVuSans-32" x="83.789062"/>
      </g>
     </g>
    </g>
    <g id="xtick_4">
     <g id="line2d_4">
      <g>
       <use xlink:href="#mc6d8605fec" x="182.63075" y="290.32" style="stroke: #000000"/>
      </g>
     </g>
     <g id="text_4">
      <!-- 0 -->
      <g transform="translate(179.290437 303.898359) scale(0.105 -0.105)">
       <defs>
        <path id="DejaVuSans-30" d="M 2034 4250 
Q 1547 4250 1301 3770 
Q 1056 3291 1056 2328 
Q 1056 1369 1301 889 
Q 1547 409 2034 409 
Q 2525 409 2770 889 
Q 3016 1369 3016 2328 
Q 3016 3291 2770 3770 
Q 2525 4250 2034 4250 
z
M 2034 4750 
Q 2819 4750 3233 4129 
Q 3647 3509 3647 2328 
Q 3647 1150 3233 529 
Q 2819 -91 2034 -91 
Q 1250 -91 836 529 
Q 422 1150 422 2328 
Q 422 3509 836 4129 
Q 1250 4750 2034 4750 
z
" transform="scale(0.015625)"/>
       </defs>
       <use xlink:href="#DejaVuSans-30"/>
      </g>
     </g>
    </g>
    <g id="xtick_5">
     <g id="line2d_5">
      <g>
       <use xlink:href="#mc6d8605fec" x="222.698723" y="290.32" style="stroke: #000000"/>
      </g>
     </g>
     <g id="text_5">
      <!-- 2 -->
      <g transform="translate(219.35841 303.898359) scale(0.105 -0.105)">
       <use xlink:href="#DejaVuSans-32"/>
      </g>
     </g>
    </g>
    <g id="xtick_6">
     <g id="line2d_6">
      <g>
       <use xlink:href="#mc6d8605fec" x="262.766696" y="290.32" style="stroke: #000000"/>
      </g>
     </g>
     <g id="text_6">
      <!-- 4 -->
      <g transform="translate(259.426383 303.898359) scale(0.105 -0.105)">
       <use xlink:href="#DejaVuSans-34"/>
      </g>
     </g>
    </g>
    <g id="xtick_7">
     <g id="line2d_7">
      <g>
       <use xlink:href="#mc6d8605fec" x="302.834669" y="290.32" style="stroke: #000000"/>
      </g>
     </g>
     <g id="text_7">
      <!-- 6 -->
      <g transform="translate(299.494356 303.898359) scale(0.105 -0.105)">
       <use xlink:href="#DejaVuSans-36"/>
      </g>
     </g>
    </g>
    <g id="xtick_8">
     <g id="line2d_8">
      <g>
       <use xlink:href="#mc6d8605fec" x="342.902642" y="290.32" style="stroke: #000000"/>
      </g>
     </g>
     <g id="text_8">
      <!-- 8 -->
      <g transform="translate(339.562329 303.898359) scale(0.105 -0.105)">
       <defs>
        <path id="DejaVuSans-38" d="M 2034 2216 
Q 1584 2216 1326 1975 
Q 1069 1734 1069 1313 
Q 1069 891 1326 650 
Q 1584 409 2034 409 
Q 2484 409 2743 651 
Q 3003 894 3003 1313 
Q 3003 1734 2745 1975 
Q 2488 2216 2034 2216 
z
M 1403 2484 
Q 997 2584 770 2862 
Q 544 3141 544 3541 
Q 544 4100 942 4425 
Q 1341 4750 2034 4750 
Q 2731 4750 3128 4425 
Q 3525 4100 3525 3541 
Q 3525 3141 3298 2862 
Q 3072 2584 2669 2484 
Q 3125 2378 3379 2068 
Q 3634 1759 3634 1313 
Q 3634 634 3220 271 
Q 2806 -91 2034 -91 
Q 1263 -91 848 271 
Q 434 634 434 1313 
Q 434 1759 690 2068 
Q 947 2378 1403 2484 
z
M 1172 3481 
Q 1172 3119 1398 2916 
Q 1625 2713 2034 2713 
Q 2441 2713 2670 2916 
Q 2900 3119 2900 3481 
Q 2900 3844 2670 4047 
Q 2441 4250 2034 4250 
Q 1625 4250 1398 4047 
Q 1172 3844 1172 3481 
z
" transform="scale(0.015625)"/>
       </defs>
       <use xlink:href="#DejaVuSans-38"/>
      </g>
     </g>
    </g>
    <g id="xtick_9">
     <g id="line2d_9">
      <g>
       <use xlink:href="#mc6d8605fec" x="382.970615" y="290.32" style="stroke: #000000"/>
      </g>
     </g>
     <g id="text_9">
      <!-- 10 -->
      <g transform="translate(376.28999 303.898359) scale(0.105 -0.105)">
       <defs>
        <path id="DejaVuSans-31" d="M 794 531 
L 1825 531 
L 1825 4091 
L 703 3866 
L 703 4441 
L 1819 4666 
L 2450 4666 
L 2450 531 
L 3481 531 
L 3481 0 
L 794 0 
L 794 531 
z
" transform="scale(0.015625)"/>
       </defs>
       <use xlink:href="#DejaVuSans-31"/>
       <use xlink:href="#DejaVuSans-30" x="63.623047"/>
      </g>
     </g>
    </g>
   </g>
   <g id="matplotlib.axis_2">
    <g id="ytick_1">
     <g id="line2d_10">
      <defs>
       <path id="m3ca0f55b15" d="M 0 0 
L 3 0 
" style="stroke: #000000"/>
      </defs>
      <g>
       <use xlink:href="#m3ca0f55b15" x="54.444468" y="277.464038" style="stroke: #000000"/>
      </g>
     </g>
     <g id="text_10">
      <!-- 6 -->
      <g transform="translate(33.365171 281.453217) scale(0.105 -0.105)">
       <use xlink:href="#DejaVuSans-2212"/>
       <use xlink:href="#DejaVuSans-36" x="83.789062"/>
      </g>
     </g>
    </g>
    <g id="ytick_2">
     <g id="line2d_11">
      <g>
       <use xlink:href="#m3ca0f55b15" x="54.444468" y="237.396065" style="stroke: #000000"/>
      </g>
     </g>
     <g id="text_11">
      <!-- 4 -->
      <g transform="translate(33.365171 241.385244) scale(0.105 -0.105)">
       <use xlink:href="#DejaVuSans-2212"/>
       <use xlink:href="#DejaVuSans-34" x="83.789062"/>
      </g>
     </g>
    </g>
    <g id="ytick_3">
     <g id="line2d_12">
      <g>
       <use xlink:href="#m3ca0f55b15" x="54.444468" y="197.328092" style="stroke: #000000"/>
      </g>
     </g>
     <g id="text_12">
      <!-- 2 -->
      <g transform="translate(33.365171 201.317271) scale(0.105 -0.105)">
       <use xlink:href="#DejaVuSans-2212"/>
       <use xlink:href="#DejaVuSans-32" x="83.789062"/>
      </g>
     </g>
    </g>
    <g id="ytick_4">
     <g id="line2d_13">
      <g>
       <use xlink:href="#m3ca0f55b15" x="54.444468" y="157.260119" style="stroke: #000000"/>
      </g>
     </g>
     <g id="text_13">
      <!-- 0 -->
      <g transform="translate(42.163843 161.249298) scale(0.105 -0.105)">
       <use xlink:href="#DejaVuSans-30"/>
      </g>
     </g>
    </g>
    <g id="ytick_5">
     <g id="line2d_14">
      <g>
       <use xlink:href="#m3ca0f55b15" x="54.444468" y="117.192146" style="stroke: #000000"/>
      </g>
     </g>
     <g id="text_14">
      <!-- 2 -->
      <g transform="translate(42.163843 121.181325) scale(0.105 -0.105)">
       <use xlink:href="#DejaVuSans-32"/>
      </g>
     </g>
    </g>
    <g id="ytick_6">
     <g id="line2d_15">
      <g>
       <use xlink:href="#m3ca0f55b15" x="54.444468" y="77.124173" style="stroke: #000000"/>
      </g>
     </g>
     <g id="text_15">
      <!-- 4 -->
      <g transform="translate(42.163843 81.113352) scale(0.105 -0.105)">
       <use xlink:href="#DejaVuSans-34"/>
      </g>
     </g>
    </g>
    <g id="ytick_7">
     <g id="line2d_16">
      <g>
       <use xlink:href="#m3ca0f55b15" x="54.444468" y="37.0562" style="stroke: #000000"/>
      </g>
     </g>
     <g id="text_16">
      <!-- 6 -->
      <g transform="translate(42.163843 41.045379) scale(0.105 -0.105)">
       <use xlink:href="#DejaVuSans-36"/>
      </g>
     </g>
    </g>
   </g>
   <g id="patch_3">
    <path d="M 54.444468 290.32 
L 54.444468 10.8 
" style="fill: none; stroke: #000000; stroke-width: 0.8; stroke-linejoin: miter; stroke-linecap: square"/>
   </g>
   <g id="patch_4">
    <path d="M 406.355532 290.32 
L 406.355532 10.8 
" style="fill: none; stroke: #000000; stroke-width: 0.8; stroke-linejoin: miter; stroke-linecap: square"/>
   </g>
   <g id="patch_5">
    <path d="M 54.444468 290.32 
L 406.355532 290.32 
" style="fill: none; stroke: #000000; stroke-width: 0.8; stroke-linejoin: miter; stroke-linecap: square"/>
   </g>
   <g id="patch_6">
    <path d="M 54.444468 10.8 
L 406.355532 10.8 
" style="fill: none; stroke: #000000; stroke-width: 0.8; stroke-linejoin: miter; stroke-linecap: square"/>
   </g>
  </g>
 </g>
 <defs>
  <clipPath id="pd88f11f7fa">
   <rect x="54.444468" y="10.8" width="351.911064" height="279.52"/>
  </clipPath>
 </defs>
</svg>
