<?xml version="1.0" encoding="utf-8" standalone="no"?>
<!DOCTYPE svg PUBLIC "-//W3C//DTD SVG 1.1//EN"
  "http://www.w3.org/Graphics/SVG/1.1/DTD/svg11.dtd">
<svg xmlns:xlink="http://www.w3.org/1999/xlink" width="460.8pt" height="316.8pt" viewBox="0 0 460.8 316.8" xmlns="http://www.w3.org/2000/svg" version="1.1">
 <metadata>
  <rdf:RDF xmlns:dc="http://purl.org/dc/elements/1.1/" xmlns:cc="http://creativecommons.org/ns#" xmlns:rdf="http://www.w3.org/1999/02/22-rdf-syntax-ns#">
   <cc:Work>
    <dc:type rdf:resource="http://purl.org/dc/dcmitype/StillImage"/>
    <dc:date>2024-01-11T15:50:30.073616</dc:date>
    <dc:format>image/svg+xml</dc:format>
    <dc:creator>
     <cc:Agent>
      <dc:title>Matplotlib v3.7.2, https://matplotlib.org/</dc:title>
     </cc:Agent>
    </dc:creator>
   </cc:Work>
  </rdf:RDF>
 </metadata>
 <defs>
  <style type="text/css">*{stroke-linejoin: round; stroke-linecap: butt}</style>
 </defs>
 <g id="figure_1">
  <g id="patch_1">
   <path d="M 0 316.8 
L 460.8 316.8 
L 460.8 0 
L 0 0 
z
" style="fill: #ffffff"/>
  </g>
  <g id="axes_1">
   <g id="patch_2">
    <path d="M 50.131306 290.32 
L 410.668694 290.32 
L 410.668694 10.8 
L 50.131306 10.8 
z
" style="fill: #ffffff"/>
   </g>
   <g id="PatchCollection_1">
    <path d="M 181.459792 180.185845 
L 304.610245 180.185845 
L 304.610245 128.873156 
L 181.459792 128.873156 
z
" clip-path="url(#p48b2a416ca)" style="fill: #ffffff; stroke: #0000ff; stroke-width: 3"/>
    <path d="M 66.519369 167.870799 
L 161.299315 184.583061 
L 168.220879 145.328923 
L 73.440933 128.616661 
z
" clip-path="url(#p48b2a416ca)" style="fill: #ff0000; stroke: #ff0000; stroke-width: 2"/>
    <path d="M 300.50523 190.448382 
L 394.280631 168.798625 
L 385.31415 129.96053 
L 291.538749 151.610287 
z
" clip-path="url(#p48b2a416ca)" style="fill: #ff0000; stroke: #ff0000; stroke-width: 2"/>
   </g>
   <g id="PatchCollection_2">
    <path d="M 258.636121 216.707876 
L 162.394043 216.697997 
L 162.389951 256.557693 
L 258.63203 256.567573 
L 258.636121 216.707876 
z
" clip-path="url(#p48b2a416ca)" style="fill: none; stroke: #000000; stroke-width: 0.5"/>
    <path d="M 255.097655 214.355725 
L 158.902064 217.346702 
L 160.140809 257.187146 
L 256.336401 254.196168 
L 255.097655 214.355725 
z
" clip-path="url(#p48b2a416ca)" style="fill: none; stroke: #000000; stroke-width: 0.5"/>
    <path d="M 251.487476 212.114821 
L 155.431944 218.104198 
L 157.912509 257.886634 
L 253.968041 251.897257 
L 251.487476 212.114821 
z
" clip-path="url(#p48b2a416ca)" style="fill: none; stroke: #000000; stroke-width: 0.5"/>
    <path d="M 247.809411 209.988382 
L 151.987286 218.969374 
L 155.706861 258.655142 
L 251.528986 249.67415 
L 247.809411 209.988382 
z
" clip-path="url(#p48b2a416ca)" style="fill: none; stroke: #000000; stroke-width: 0.5"/>
    <path d="M 244.066854 207.977518 
L 148.571286 219.941395 
L 153.526255 259.491915 
L 249.021822 247.528039 
L 244.066854 207.977518 
z
" clip-path="url(#p48b2a416ca)" style="fill: none; stroke: #000000; stroke-width: 0.5"/>
    <path d="M 240.263114 206.083551 
L 145.187085 221.019633 
L 151.373025 260.396397 
L 246.449053 245.460315 
L 240.263114 206.083551 
z
" clip-path="url(#p48b2a416ca)" style="fill: none; stroke: #000000; stroke-width: 0.5"/>
    <path d="M 236.402498 204.309776 
L 141.838313 222.202588 
L 149.248814 261.367366 
L 243.812999 243.474554 
L 236.402498 204.309776 
z
" clip-path="url(#p48b2a416ca)" style="fill: none; stroke: #000000; stroke-width: 0.5"/>
    <path d="M 232.488456 202.657447 
L 138.528042 223.489596 
L 147.155902 262.404316 
L 241.116315 241.572168 
L 232.488456 202.657447 
z
" clip-path="url(#p48b2a416ca)" style="fill: none; stroke: #000000; stroke-width: 0.5"/>
    <path d="M 228.5245 201.127011 
L 135.259435 224.879177 
L 145.096652 263.505911 
L 238.361716 239.753745 
L 228.5245 201.127011 
z
" clip-path="url(#p48b2a416ca)" style="fill: none; stroke: #000000; stroke-width: 0.5"/>
    <path d="M 224.514968 199.721806 
L 132.035708 226.369961 
L 143.072329 264.671246 
L 235.55159 238.023091 
L 224.514968 199.721806 
z
" clip-path="url(#p48b2a416ca)" style="fill: none; stroke: #000000; stroke-width: 0.5"/>
    <path d="M 220.463326 198.441523 
L 128.860066 227.960677 
L 141.085743 265.899157 
L 232.689003 236.380002 
L 220.463326 198.441523 
z
" clip-path="url(#p48b2a416ca)" style="fill: none; stroke: #000000; stroke-width: 0.5"/>
    <path d="M 216.828759 197.127228 
L 126.190281 229.487762 
L 139.592746 267.026667 
L 230.231224 234.666133 
L 216.828759 197.127228 
z
" clip-path="url(#p48b2a416ca)" style="fill: none; stroke: #000000; stroke-width: 0.5"/>
    <path d="M 218.099584 194.081397 
L 128.514 229.251852 
L 143.080223 266.354689 
L 232.665807 231.184235 
L 218.099584 194.081397 
z
" clip-path="url(#p48b2a416ca)" style="fill: none; stroke: #000000; stroke-width: 0.5"/>
    <path d="M 219.274327 190.996848 
L 130.829104 228.943918 
L 146.545293 265.574463 
L 234.990516 227.627393 
L 219.274327 190.996848 
z
" clip-path="url(#p48b2a416ca)" style="fill: none; stroke: #000000; stroke-width: 0.5"/>
    <path d="M 220.35293 187.877819 
L 133.133694 228.56372 
L 149.984199 264.686509 
L 237.203436 224.000608 
L 220.35293 187.877819 
z
" clip-path="url(#p48b2a416ca)" style="fill: none; stroke: #000000; stroke-width: 0.5"/>
    <path d="M 221.333619 184.726783 
L 135.425157 228.111964 
L 153.393598 263.691881 
L 239.302061 220.306701 
L 221.333619 184.726783 
z
" clip-path="url(#p48b2a416ca)" style="fill: none; stroke: #000000; stroke-width: 0.5"/>
    <path d="M 222.215097 181.546026 
L 137.701382 227.589155 
L 156.770642 262.591423 
L 241.284356 216.548293 
L 222.215097 181.546026 
z
" clip-path="url(#p48b2a416ca)" style="fill: none; stroke: #000000; stroke-width: 0.5"/>
    <path d="M 222.99753 178.33975 
L 139.960286 226.99521 
L 160.111471 261.385982 
L 243.148715 212.730521 
L 222.99753 178.33975 
z
" clip-path="url(#p48b2a416ca)" style="fill: none; stroke: #000000; stroke-width: 0.5"/>
    <path d="M 223.679048 175.110191 
L 142.199509 226.331499 
L 163.413367 260.07713 
L 244.892906 208.855822 
L 223.679048 175.110191 
z
" clip-path="url(#p48b2a416ca)" style="fill: none; stroke: #000000; stroke-width: 0.5"/>
    <path d="M 224.260122 171.861584 
L 144.417008 225.598116 
L 166.672573 258.666004 
L 246.515687 204.929472 
L 224.260122 171.861584 
z
" clip-path="url(#p48b2a416ca)" style="fill: none; stroke: #000000; stroke-width: 0.5"/>
    <path d="M 224.739632 168.596432 
L 146.610559 224.79595 
L 169.886197 257.15395 
L 248.015269 200.954432 
L 224.739632 168.596432 
z
" clip-path="url(#p48b2a416ca)" style="fill: none; stroke: #000000; stroke-width: 0.5"/>
    <path d="M 225.116482 165.317257 
L 148.777988 223.925892 
L 173.051387 255.542304 
L 249.389881 196.933669 
L 225.116482 165.317257 
z
" clip-path="url(#p48b2a416ca)" style="fill: none; stroke: #000000; stroke-width: 0.5"/>
    <path d="M 225.391537 162.028424 
L 150.917269 222.98842 
L 176.16451 253.832743 
L 250.638778 192.872746 
L 225.391537 162.028424 
z
" clip-path="url(#p48b2a416ca)" style="fill: none; stroke: #000000; stroke-width: 0.5"/>
    <path d="M 225.563283 158.732276 
L 153.026271 221.985099 
L 179.223111 252.027086 
L 251.760123 188.774263 
L 225.563283 158.732276 
z
" clip-path="url(#p48b2a416ca)" style="fill: none; stroke: #000000; stroke-width: 0.5"/>
    <path d="M 225.632828 155.432775 
L 155.102977 220.916192 
L 182.223641 250.126892 
L 252.753492 184.643475 
L 225.632828 155.432775 
z
" clip-path="url(#p48b2a416ca)" style="fill: none; stroke: #000000; stroke-width: 0.5"/>
    <path d="M 225.599462 152.132633 
L 157.145335 219.782985 
L 185.163459 248.134001 
L 253.617587 180.483649 
L 225.599462 152.132633 
z
" clip-path="url(#p48b2a416ca)" style="fill: none; stroke: #000000; stroke-width: 0.5"/>
    <path d="M 225.462551 148.834989 
L 159.15139 218.587177 
L 188.040011 246.05066 
L 254.351173 176.298473 
L 225.462551 148.834989 
z
" clip-path="url(#p48b2a416ca)" style="fill: none; stroke: #000000; stroke-width: 0.5"/>
    <path d="M 225.223569 145.543286 
L 161.11916 217.328817 
L 190.849913 243.87835 
L 254.954322 172.09282 
L 225.223569 145.543286 
z
" clip-path="url(#p48b2a416ca)" style="fill: none; stroke: #000000; stroke-width: 0.5"/>
    <path d="M 224.882074 142.260717 
L 163.046733 216.009807 
L 193.590716 241.619582 
L 255.426057 167.870491 
L 224.882074 142.260717 
z
" clip-path="url(#p48b2a416ca)" style="fill: none; stroke: #000000; stroke-width: 0.5"/>
    <path d="M 224.437673 138.990088 
L 164.932268 214.631641 
L 196.260034 239.276447 
L 255.76544 163.634894 
L 224.437673 138.990088 
z
" clip-path="url(#p48b2a416ca)" style="fill: none; stroke: #000000; stroke-width: 0.5"/>
    <path d="M 223.892268 135.735327 
L 166.773908 213.195192 
L 198.854747 236.851378 
L 255.973108 159.391513 
L 223.892268 135.735327 
z
" clip-path="url(#p48b2a416ca)" style="fill: none; stroke: #000000; stroke-width: 0.5"/>
    <path d="M 223.244894 132.498807 
L 168.569896 211.70223 
L 201.372849 234.346471 
L 256.047848 155.143048 
L 223.244894 132.498807 
z
" clip-path="url(#p48b2a416ca)" style="fill: none; stroke: #000000; stroke-width: 0.5"/>
    <path d="M 222.497652 129.284222 
L 170.318391 210.153639 
L 203.811334 231.764243 
L 255.990594 150.894827 
L 222.497652 129.284222 
z
" clip-path="url(#p48b2a416ca)" style="fill: none; stroke: #000000; stroke-width: 0.5"/>
    <path d="M 221.650565 126.094537 
L 172.017766 208.551332 
L 206.168138 229.107292 
L 255.800937 146.650497 
L 221.650565 126.094537 
z
" clip-path="url(#p48b2a416ca)" style="fill: none; stroke: #000000; stroke-width: 0.5"/>
    <path d="M 220.703689 122.93259 
L 173.66644 206.897077 
L 208.441239 226.378062 
L 255.478488 142.413575 
L 220.703689 122.93259 
z
" clip-path="url(#p48b2a416ca)" style="fill: none; stroke: #000000; stroke-width: 0.5"/>
    <path d="M 219.659448 119.801909 
L 175.26265 205.191968 
L 210.627866 223.579381 
L 255.024663 138.189322 
L 219.659448 119.801909 
z
" clip-path="url(#p48b2a416ca)" style="fill: none; stroke: #000000; stroke-width: 0.5"/>
    <path d="M 218.517225 116.705133 
L 176.804906 203.438173 
L 212.726331 220.71378 
L 254.438651 133.980741 
L 218.517225 116.705133 
z
" clip-path="url(#p48b2a416ca)" style="fill: none; stroke: #000000; stroke-width: 0.5"/>
    <path d="M 217.279917 113.645627 
L 178.29177 201.636889 
L 214.734301 217.784251 
L 253.722449 129.79299 
L 217.279917 113.645627 
z
" clip-path="url(#p48b2a416ca)" style="fill: none; stroke: #000000; stroke-width: 0.5"/>
    <path d="M 215.94783 110.62619 
L 179.721756 199.790137 
L 216.649967 214.793557 
L 252.876041 125.62961 
L 215.94783 110.62619 
z
" clip-path="url(#p48b2a416ca)" style="fill: none; stroke: #000000; stroke-width: 0.5"/>
    <path d="M 214.521328 107.649664 
L 181.093446 197.899952 
L 218.471578 211.744471 
L 251.89946 121.494183 
L 214.521328 107.649664 
z
" clip-path="url(#p48b2a416ca)" style="fill: none; stroke: #000000; stroke-width: 0.5"/>
    <path d="M 213.003779 104.719106 
L 182.405693 195.96764 
L 220.197259 208.640168 
L 250.795345 117.391634 
L 213.003779 104.719106 
z
" clip-path="url(#p48b2a416ca)" style="fill: none; stroke: #000000; stroke-width: 0.5"/>
    <path d="M 211.395363 101.837308 
L 183.656818 193.995383 
L 221.82508 205.483601 
L 249.563626 113.325526 
L 211.395363 101.837308 
z
" clip-path="url(#p48b2a416ca)" style="fill: none; stroke: #000000; stroke-width: 0.5"/>
    <path d="M 209.69708 99.007035 
L 184.84597 191.985312 
L 223.353928 202.277668 
L 248.205038 109.29939 
L 209.69708 99.007035 
z
" clip-path="url(#p48b2a416ca)" style="fill: none; stroke: #000000; stroke-width: 0.5"/>
    <path d="M 207.912322 96.231076 
L 185.971884 189.938893 
L 224.781988 199.025763 
L 246.722426 105.317946 
L 207.912322 96.231076 
z
" clip-path="url(#p48b2a416ca)" style="fill: none; stroke: #000000; stroke-width: 0.5"/>
    <path d="M 206.040887 93.512173 
L 187.033393 187.858625 
L 226.107995 195.730784 
L 245.115489 101.384332 
L 206.040887 93.512173 
z
" clip-path="url(#p48b2a416ca)" style="fill: none; stroke: #000000; stroke-width: 0.5"/>
    <path d="M 204.086577 90.852868 
L 188.029568 185.74602 
L 227.330592 192.396204 
L 243.387601 97.503052 
L 204.086577 90.852868 
z
" clip-path="url(#p48b2a416ca)" style="fill: none; stroke: #000000; stroke-width: 0.5"/>
    <path d="M 202.050185 88.255784 
L 188.95927 183.603388 
L 228.44851 189.025132 
L 241.539426 93.677528 
L 202.050185 88.255784 
z
" clip-path="url(#p48b2a416ca)" style="fill: none; stroke: #000000; stroke-width: 0.5"/>
    <path d="M 199.932916 85.723543 
L 189.821777 181.433013 
L 229.460887 185.62065 
L 239.572026 89.91118 
L 199.932916 85.723543 
z
" clip-path="url(#p48b2a416ca)" style="fill: none; stroke: #000000; stroke-width: 0.5"/>
    <path d="M 197.738744 83.258452 
L 190.616257 179.236616 
L 230.36665 182.186471 
L 237.489137 86.208307 
L 197.738744 83.258452 
z
" clip-path="url(#p48b2a416ca)" style="fill: none; stroke: #000000; stroke-width: 0.5"/>
    <path d="M 195.468646 80.862981 
L 191.341736 177.016538 
L 231.16477 178.725742 
L 235.29168 82.572186 
L 195.468646 80.862981 
z
" clip-path="url(#p48b2a416ca)" style="fill: none; stroke: #000000; stroke-width: 0.5"/>
    <path d="M 193.124219 78.539585 
L 191.997859 174.775073 
L 231.854826 175.241567 
L 232.981186 79.00608 
L 193.124219 78.539585 
z
" clip-path="url(#p48b2a416ca)" style="fill: none; stroke: #000000; stroke-width: 0.5"/>
    <path d="M 190.709167 76.290241 
L 192.583491 172.514067 
L 232.435628 171.737795 
L 230.561304 75.513969 
L 190.709167 76.290241 
z
" clip-path="url(#p48b2a416ca)" style="fill: none; stroke: #000000; stroke-width: 0.5"/>
    <path d="M 188.224491 74.117407 
L 193.098637 170.235982 
L 232.907183 168.217302 
L 228.033037 72.098727 
L 188.224491 74.117407 
z
" clip-path="url(#p48b2a416ca)" style="fill: none; stroke: #000000; stroke-width: 0.5"/>
    <path d="M 185.674036 72.023024 
L 193.542305 167.942929 
L 233.26857 164.6842 
L 225.400301 68.764296 
L 185.674036 72.023024 
z
" clip-path="url(#p48b2a416ca)" style="fill: none; stroke: #000000; stroke-width: 0.5"/>
    <path d="M 183.059535 70.009013 
L 193.914278 165.637002 
L 233.519643 161.141393 
L 222.6649 65.513404 
L 183.059535 70.009013 
z
" clip-path="url(#p48b2a416ca)" style="fill: none; stroke: #000000; stroke-width: 0.5"/>
    <path d="M 180.382727 68.07793 
L 194.214344 163.320904 
L 233.66025 157.592391 
L 219.828634 62.349417 
L 180.382727 68.07793 
z
" clip-path="url(#p48b2a416ca)" style="fill: none; stroke: #000000; stroke-width: 0.5"/>
    <path d="M 177.64795 66.230952 
L 194.442038 160.996433 
L 233.690186 154.04098 
L 216.896097 59.275499 
L 177.64795 66.230952 
z
" clip-path="url(#p48b2a416ca)" style="fill: none; stroke: #000000; stroke-width: 0.5"/>
    <path d="M 174.855958 64.470417 
L 194.597134 158.666084 
L 233.609287 150.490062 
L 213.868111 56.294395 
L 174.855958 64.470417 
z
" clip-path="url(#p48b2a416ca)" style="fill: none; stroke: #000000; stroke-width: 0.5"/>
    <path d="M 172.011194 62.797271 
L 194.67932 156.331724 
L 233.417624 146.943474 
L 210.749498 53.409022 
L 172.011194 62.797271 
z
" clip-path="url(#p48b2a416ca)" style="fill: none; stroke: #000000; stroke-width: 0.5"/>
    <path d="M 169.115698 61.21382 
L 194.688738 153.996131 
L 233.115535 143.404781 
L 207.542495 50.622469 
L 169.115698 61.21382 
z
" clip-path="url(#p48b2a416ca)" style="fill: none; stroke: #000000; stroke-width: 0.5"/>
    <path d="M 166.17152 59.721773 
L 194.625533 151.661465 
L 232.70335 139.876928 
L 204.249336 47.937236 
L 166.17152 59.721773 
z
" clip-path="url(#p48b2a416ca)" style="fill: none; stroke: #000000; stroke-width: 0.5"/>
    <path d="M 163.182721 58.321952 
L 194.489119 149.329904 
L 232.181045 136.364021 
L 200.874647 45.35607 
L 163.182721 58.321952 
z
" clip-path="url(#p48b2a416ca)" style="fill: none; stroke: #000000; stroke-width: 0.5"/>
    <path d="M 160.152084 57.015917 
L 194.280433 147.003658 
L 231.549828 132.869034 
L 197.421479 42.881293 
L 160.152084 57.015917 
z
" clip-path="url(#p48b2a416ca)" style="fill: none; stroke: #000000; stroke-width: 0.5"/>
    <path d="M 157.081375 55.805247 
L 193.999388 144.68493 
L 230.809869 129.394937 
L 193.891856 40.515253 
L 157.081375 55.805247 
z
" clip-path="url(#p48b2a416ca)" style="fill: none; stroke: #000000; stroke-width: 0.5"/>
    <path d="M 153.975067 54.690656 
L 193.645955 142.376221 
L 229.961879 125.946095 
L 190.290991 38.260529 
L 153.975067 54.690656 
z
" clip-path="url(#p48b2a416ca)" style="fill: none; stroke: #000000; stroke-width: 0.5"/>
    <path d="M 150.834834 53.673895 
L 193.220897 140.079679 
L 229.006786 122.525033 
L 186.620723 36.119249 
L 150.834834 53.673895 
z
" clip-path="url(#p48b2a416ca)" style="fill: none; stroke: #000000; stroke-width: 0.5"/>
    <path d="M 147.665075 52.75507 
L 192.724232 137.797472 
L 227.945461 119.135735 
L 182.886305 34.093333 
L 147.665075 52.75507 
z
" clip-path="url(#p48b2a416ca)" style="fill: none; stroke: #000000; stroke-width: 0.5"/>
    <path d="M 146.488658 55.57197 
L 194.177106 139.16832 
L 228.799437 119.417634 
L 181.110989 35.821284 
L 146.488658 55.57197 
z
" clip-path="url(#p48b2a416ca)" style="fill: none; stroke: #000000; stroke-width: 0.5"/>
    <path d="M 146.199294 59.811157 
L 196.471495 141.879686 
L 230.461063 121.058911 
L 180.188862 38.990381 
L 146.199294 59.811157 
z
" clip-path="url(#p48b2a416ca)" style="fill: none; stroke: #000000; stroke-width: 0.5"/>
    <path d="M 146.042456 64.056962 
L 198.848866 144.518263 
L 232.172782 122.647918 
L 179.366373 42.186617 
L 146.042456 64.056962 
z
" clip-path="url(#p48b2a416ca)" style="fill: none; stroke: #000000; stroke-width: 0.5"/>
    <path d="M 146.018057 68.305666 
L 201.307413 147.081455 
L 233.933257 124.182771 
L 178.643901 45.406982 
L 146.018057 68.305666 
z
" clip-path="url(#p48b2a416ca)" style="fill: none; stroke: #000000; stroke-width: 0.5"/>
    <path d="M 146.126261 72.5532 
L 203.844882 149.566826 
L 235.740907 125.662035 
L 178.022286 48.64841 
L 146.126261 72.5532 
z
" clip-path="url(#p48b2a416ca)" style="fill: none; stroke: #000000; stroke-width: 0.5"/>
    <path d="M 146.36661 76.79518 
L 206.458372 151.971757 
L 237.593564 127.084104 
L 177.501801 51.907527 
L 146.36661 76.79518 
z
" clip-path="url(#p48b2a416ca)" style="fill: none; stroke: #000000; stroke-width: 0.5"/>
    <path d="M 146.739145 81.027643 
L 209.145619 154.294073 
L 239.489702 128.447758 
L 177.083229 55.181327 
L 146.739145 81.027643 
z
" clip-path="url(#p48b2a416ca)" style="fill: none; stroke: #000000; stroke-width: 0.5"/>
    <path d="M 147.243647 85.246375 
L 211.90415 156.531416 
L 241.42762 129.751571 
L 176.767117 58.466529 
L 147.243647 85.246375 
z
" clip-path="url(#p48b2a416ca)" style="fill: none; stroke: #000000; stroke-width: 0.5"/>
    <path d="M 147.879215 89.447326 
L 214.730873 158.681664 
L 243.405022 130.994327 
L 176.553363 61.75999 
L 147.879215 89.447326 
z
" clip-path="url(#p48b2a416ca)" style="fill: none; stroke: #000000; stroke-width: 0.5"/>
    <path d="M 148.645542 93.626334 
L 217.623286 160.742716 
L 245.42026 132.174838 
L 176.442517 65.058456 
L 148.645542 93.626334 
z
" clip-path="url(#p48b2a416ca)" style="fill: none; stroke: #000000; stroke-width: 0.5"/>
    <path d="M 149.541932 97.779608 
L 220.578758 162.712706 
L 247.471502 133.292037 
L 176.434676 68.35894 
L 149.541932 97.779608 
z
" clip-path="url(#p48b2a416ca)" style="fill: none; stroke: #000000; stroke-width: 0.5"/>
    <path d="M 150.567129 101.902707 
L 223.593964 164.589382 
L 249.556327 134.34453 
L 176.529493 71.657855 
L 150.567129 101.902707 
z
" clip-path="url(#p48b2a416ca)" style="fill: none; stroke: #000000; stroke-width: 0.5"/>
    <path d="M 151.720591 105.992041 
L 226.666425 166.37134 
L 251.673164 135.331713 
L 176.727329 74.952415 
L 151.720591 105.992041 
z
" clip-path="url(#p48b2a416ca)" style="fill: none; stroke: #000000; stroke-width: 0.5"/>
    <path d="M 153.000885 110.043373 
L 229.792845 168.056584 
L 253.819643 136.252364 
L 177.027683 78.239153 
L 153.000885 110.043373 
z
" clip-path="url(#p48b2a416ca)" style="fill: none; stroke: #000000; stroke-width: 0.5"/>
    <path d="M 154.406951 114.052768 
L 232.970312 169.64356 
L 255.993839 137.105696 
L 177.430478 81.514904 
L 154.406951 114.052768 
z
" clip-path="url(#p48b2a416ca)" style="fill: none; stroke: #000000; stroke-width: 0.5"/>
    <path d="M 155.93716 118.016284 
L 236.195587 171.130525 
L 258.193424 137.890631 
L 177.934997 84.776389 
L 155.93716 118.016284 
z
" clip-path="url(#p48b2a416ca)" style="fill: none; stroke: #000000; stroke-width: 0.5"/>
    <path d="M 157.590314 121.930341 
L 239.465767 172.516386 
L 260.416524 138.606783 
L 178.541071 88.020738 
L 157.590314 121.930341 
z
" clip-path="url(#p48b2a416ca)" style="fill: none; stroke: #000000; stroke-width: 0.5"/>
    <path d="M 159.364701 125.790796 
L 242.777567 173.799457 
L 262.660872 139.253118 
L 179.248006 91.244456 
L 159.364701 125.790796 
z
" clip-path="url(#p48b2a416ca)" style="fill: none; stroke: #000000; stroke-width: 0.5"/>
    <path d="M 161.258742 129.594303 
L 246.127914 174.978898 
L 264.924434 139.829414 
L 180.055263 94.444819 
L 161.258742 129.594303 
z
" clip-path="url(#p48b2a416ca)" style="fill: none; stroke: #000000; stroke-width: 0.5"/>
    <path d="M 163.270173 133.336677 
L 249.513127 176.053076 
L 267.204585 140.334625 
L 180.961631 97.618226 
L 163.270173 133.336677 
z
" clip-path="url(#p48b2a416ca)" style="fill: none; stroke: #000000; stroke-width: 0.5"/>
    <path d="M 165.397488 137.014455 
L 252.930324 177.021209 
L 269.499553 140.768539 
L 181.966717 100.761785 
L 165.397488 137.014455 
z
" clip-path="url(#p48b2a416ca)" style="fill: none; stroke: #000000; stroke-width: 0.5"/>
    <path d="M 167.638448 140.624395 
L 256.376095 177.882516 
L 271.806949 141.130861 
L 183.069301 103.872739 
L 167.638448 140.624395 
z
" clip-path="url(#p48b2a416ca)" style="fill: none; stroke: #000000; stroke-width: 0.5"/>
    <path d="M 169.908325 144.042515 
L 259.727631 178.611723 
L 274.044842 141.412087 
L 184.225536 106.84288 
L 169.908325 144.042515 
z
" clip-path="url(#p48b2a416ca)" style="fill: none; stroke: #000000; stroke-width: 0.5"/>
    <path d="M 172.280186 147.390912 
L 263.099692 179.239855 
L 276.290275 141.625976 
L 185.47077 109.777033 
L 172.280186 147.390912 
z
" clip-path="url(#p48b2a416ca)" style="fill: none; stroke: #000000; stroke-width: 0.5"/>
    <path d="M 174.751989 150.666187 
L 266.48933 179.765981 
L 278.541324 141.771971 
L 186.803983 112.672176 
L 174.751989 150.666187 
z
" clip-path="url(#p48b2a416ca)" style="fill: none; stroke: #000000; stroke-width: 0.5"/>
    <path d="M 172.454515 152.409299 
L 265.026494 178.733554 
L 275.928969 140.393869 
L 183.356989 114.069614 
L 172.454515 152.409299 
z
" clip-path="url(#p48b2a416ca)" style="fill: none; stroke: #000000; stroke-width: 0.5"/>
    <path d="M 169.745735 154.089105 
L 263.068399 177.613947 
L 272.811466 138.963358 
L 179.488802 115.438516 
L 169.745735 154.089105 
z
" clip-path="url(#p48b2a416ca)" style="fill: none; stroke: #000000; stroke-width: 0.5"/>
    <path d="M 167.088715 155.849567 
L 261.077428 176.553661 
L 269.652252 137.62722 
L 175.663539 116.923126 
L 167.088715 155.849567 
z
" clip-path="url(#p48b2a416ca)" style="fill: none; stroke: #000000; stroke-width: 0.5"/>
    <path d="M 167.263941 158.236323 
L 261.833465 176.100892 
L 269.232269 136.933902 
L 174.662745 119.069333 
L 167.263941 158.236323 
z
" clip-path="url(#p48b2a416ca)" style="fill: none; stroke: #000000; stroke-width: 0.5"/>
    <path d="M 170.199054 161.103933 
L 265.263623 176.112776 
L 271.479698 136.740757 
L 176.415128 121.731914 
L 170.199054 161.103933 
z
" clip-path="url(#p48b2a416ca)" style="fill: none; stroke: #000000; stroke-width: 0.5"/>
    <path d="M 173.219039 163.881604 
L 268.692427 176.021205 
L 273.720174 136.47987 
L 178.246786 124.340269 
L 173.219039 163.881604 
z
" clip-path="url(#p48b2a416ca)" style="fill: none; stroke: #000000; stroke-width: 0.5"/>
    <path d="M 176.321216 166.567362 
L 272.116856 175.826578 
L 275.951661 136.151779 
L 180.15602 126.892563 
L 176.321216 166.567362 
z
" clip-path="url(#p48b2a416ca)" style="fill: none; stroke: #000000; stroke-width: 0.5"/>
    <path d="M 179.503001 169.158493 
L 275.534011 175.528974 
L 278.172414 135.756694 
L 182.141405 129.386213 
L 179.503001 169.158493 
z
" clip-path="url(#p48b2a416ca)" style="fill: none; stroke: #000000; stroke-width: 0.5"/>
    <path d="M 182.761361 171.652479 
L 278.940648 175.128448 
L 280.380259 135.294757 
L 184.200971 131.818788 
L 182.761361 171.652479 
z
" clip-path="url(#p48b2a416ca)" style="fill: none; stroke: #000000; stroke-width: 0.5"/>
    <path d="M 186.093395 174.047188 
L 282.333737 174.625493 
L 282.573248 134.766516 
L 186.332906 134.188211 
L 186.093395 174.047188 
z
" clip-path="url(#p48b2a416ca)" style="fill: none; stroke: #000000; stroke-width: 0.5"/>
    <path d="M 189.495937 176.340706 
L 285.710051 174.020823 
L 284.749247 134.172708 
L 188.535132 136.492591 
L 189.495937 176.340706 
z
" clip-path="url(#p48b2a416ca)" style="fill: none; stroke: #000000; stroke-width: 0.5"/>
    <path d="M 191.219466 174.459349 
L 287.461544 174.459349 
L 287.461544 134.599652 
L 191.219466 134.599652 
L 191.219466 174.459349 
z
" clip-path="url(#p48b2a416ca)" style="fill: none; stroke: #000000; stroke-width: 0.5"/>
   </g>
   <g id="PatchCollection_3">
    <path d="M 156.316575 236.627221 
L 160.934875 235.088315 
L 160.934769 236.114568 
L 181.459845 236.116675 
L 181.459739 237.142929 
L 160.934664 237.140822 
L 160.934559 238.167076 
z
" clip-path="url(#p48b2a416ca)" style="fill: #ff0000; stroke: #ff0000; stroke-width: 0.24"/>
    <path d="M 153.448949 237.455734 
L 158.01702 235.773576 
L 158.048913 236.799334 
L 178.564075 236.161463 
L 178.595968 237.187221 
L 158.080807 237.825092 
L 158.1127 238.85085 
z
" clip-path="url(#p48b2a416ca)" style="fill: #ff0000; stroke: #ff0000; stroke-width: 0.24"/>
    <path d="M 150.608581 238.373504 
L 155.121972 236.549709 
L 155.185838 237.573974 
L 175.671129 236.296649 
L 175.734996 237.320913 
L 155.249704 238.598238 
L 155.313571 239.622503 
z
" clip-path="url(#p48b2a416ca)" style="fill: #ff0000; stroke: #ff0000; stroke-width: 0.24"/>
    <path d="M 147.798162 239.379197 
L 152.252502 237.415583 
L 152.348269 238.437359 
L 172.783783 236.522027 
L 172.879549 237.543803 
L 152.444036 239.459135 
L 152.539802 240.48091 
z
" clip-path="url(#p48b2a416ca)" style="fill: #ff0000; stroke: #ff0000; stroke-width: 0.24"/>
    <path d="M 145.020473 240.471892 
L 149.411433 238.37037 
L 149.539007 239.388663 
L 169.904877 236.837186 
L 170.032451 237.855479 
L 149.666581 240.406957 
L 149.794155 241.42525 
z
" clip-path="url(#p48b2a416ca)" style="fill: #ff0000; stroke: #ff0000; stroke-width: 0.24"/>
    <path d="M 142.278241 241.650877 
L 146.60153 239.413444 
L 146.760797 240.427264 
L 167.037195 237.241919 
L 167.196462 238.255739 
L 146.920064 241.441084 
L 147.079332 242.454904 
z
" clip-path="url(#p48b2a416ca)" style="fill: #ff0000; stroke: #ff0000; stroke-width: 0.24"/>
    <path d="M 139.574061 242.914487 
L 143.825496 240.543364 
L 144.016292 241.551726 
L 164.183531 237.735813 
L 164.374327 238.744175 
L 144.207087 242.560088 
L 144.397883 243.56845 
z
" clip-path="url(#p48b2a416ca)" style="fill: #ff0000; stroke: #ff0000; stroke-width: 0.24"/>
    <path d="M 136.910583 244.262016 
L 141.086032 241.759507 
L 141.308171 242.761431 
L 161.346647 238.318661 
L 161.568785 239.320584 
L 141.530309 243.763354 
L 141.752448 244.765278 
z
" clip-path="url(#p48b2a416ca)" style="fill: #ff0000; stroke: #ff0000; stroke-width: 0.24"/>
    <path d="M 134.290549 245.691935 
L 138.385927 243.060432 
L 138.639203 244.054941 
L 158.529385 238.989433 
L 158.78266 239.983942 
L 138.892478 245.04945 
L 139.145754 246.043959 
z
" clip-path="url(#p48b2a416ca)" style="fill: #ff0000; stroke: #ff0000; stroke-width: 0.24"/>
    <path d="M 131.71613 247.202808 
L 135.72748 244.44491 
L 136.011636 245.43104 
L 155.734234 239.747919 
L 156.01839 240.734049 
L 136.295792 246.41717 
L 136.579948 247.4033 
z
" clip-path="url(#p48b2a416ca)" style="fill: #ff0000; stroke: #ff0000; stroke-width: 0.24"/>
    <path d="M 129.190314 248.793357 
L 133.113709 245.911708 
L 133.428479 246.888497 
L 152.964256 240.593091 
L 153.279027 241.56988 
L 133.743249 247.865286 
L 134.058019 248.842074 
z
" clip-path="url(#p48b2a416ca)" style="fill: #ff0000; stroke: #ff0000; stroke-width: 0.24"/>
    <path d="M 127.169827 250.300021 
L 131.001479 247.29746 
L 131.346548 248.263961 
L 150.676571 241.362589 
L 151.021639 242.32909 
L 131.691616 249.230462 
L 132.036685 250.196964 
z
" clip-path="url(#p48b2a416ca)" style="fill: #ff0000; stroke: #ff0000; stroke-width: 0.24"/>
    <path d="M 130.14189 250.023457 
L 133.878075 246.902904 
L 134.253107 247.858178 
L 153.358584 240.357548 
L 153.733616 241.312822 
L 134.628138 248.813452 
L 135.00317 249.768726 
z
" clip-path="url(#p48b2a416ca)" style="fill: #ff0000; stroke: #ff0000; stroke-width: 0.24"/>
    <path d="M 133.103964 249.654655 
L 136.741017 246.419108 
L 137.145657 247.362222 
L 156.007935 239.269436 
L 156.412574 240.21255 
L 137.550296 248.305335 
L 137.954935 249.248449 
z
" clip-path="url(#p48b2a416ca)" style="fill: #ff0000; stroke: #ff0000; stroke-width: 0.24"/>
    <path d="M 136.053104 249.193471 
L 139.587522 245.846112 
L 140.021366 246.776152 
L 158.622184 238.09927 
L 159.056028 239.029311 
L 140.45521 247.706193 
L 140.889054 248.636234 
z
" clip-path="url(#p48b2a416ca)" style="fill: #ff0000; stroke: #ff0000; stroke-width: 0.24"/>
    <path d="M 138.98628 248.640676 
L 142.414626 245.184757 
L 142.877254 246.100821 
L 161.198529 236.848277 
L 161.661157 237.764341 
L 143.339881 247.016885 
L 143.802508 247.932949 
z
" clip-path="url(#p48b2a416ca)" style="fill: #ff0000; stroke: #ff0000; stroke-width: 0.24"/>
    <path d="M 141.90096 247.996829 
L 145.219866 244.435679 
L 145.710836 245.33687 
L 163.73466 235.517478 
L 164.22563 236.418669 
L 146.201805 246.238062 
L 146.692775 247.139253 
z
" clip-path="url(#p48b2a416ca)" style="fill: #ff0000; stroke: #ff0000; stroke-width: 0.24"/>
    <path d="M 144.794031 247.262044 
L 148.000305 243.599158 
L 148.51913 244.484605 
L 166.228076 234.108094 
L 166.746901 234.993541 
L 149.037956 245.370052 
L 149.556782 246.255499 
z
" clip-path="url(#p48b2a416ca)" style="fill: #ff0000; stroke: #ff0000; stroke-width: 0.24"/>
    <path d="M 147.662922 246.437734 
L 150.75341 242.676643 
L 151.299596 243.54548 
L 168.676337 232.621763 
L 169.222523 233.4906 
L 151.845782 244.414317 
L 152.391968 245.283154 
z
" clip-path="url(#p48b2a416ca)" style="fill: #ff0000; stroke: #ff0000; stroke-width: 0.24"/>
    <path d="M 150.504577 245.524257 
L 153.476311 241.668648 
L 154.049317 242.520035 
L 171.077066 231.059909 
L 171.650072 231.911296 
L 154.622323 243.371423 
L 155.19533 244.22281 
z
" clip-path="url(#p48b2a416ca)" style="fill: #ff0000; stroke: #ff0000; stroke-width: 0.24"/>
    <path d="M 153.316366 244.522627 
L 156.166457 240.576248 
L 156.765727 241.409358 
L 173.42793 229.423963 
L 174.0272 230.257073 
L 157.364997 242.242468 
L 157.964266 243.075578 
z
" clip-path="url(#p48b2a416ca)" style="fill: #ff0000; stroke: #ff0000; stroke-width: 0.24"/>
    <path d="M 156.095708 243.433854 
L 158.821346 239.400514 
L 159.446305 240.214531 
L 175.72664 227.715355 
L 176.351599 228.529372 
L 160.071263 241.028548 
L 160.696222 241.842565 
z
" clip-path="url(#p48b2a416ca)" style="fill: #ff0000; stroke: #ff0000; stroke-width: 0.24"/>
    <path d="M 158.839592 242.25877 
L 161.438166 238.14242 
L 162.088198 238.936558 
L 177.970959 225.935919 
L 178.620991 226.730057 
L 162.73823 239.730696 
L 163.388261 240.524834 
z
" clip-path="url(#p48b2a416ca)" style="fill: #ff0000; stroke: #ff0000; stroke-width: 0.24"/>
    <path d="M 161.545686 240.99902 
L 164.014628 236.803635 
L 164.689108 237.577115 
L 180.158721 224.087497 
L 180.833202 224.860977 
L 165.363589 238.350596 
L 166.03807 239.124077 
z
" clip-path="url(#p48b2a416ca)" style="fill: #ff0000; stroke: #ff0000; stroke-width: 0.24"/>
    <path d="M 164.211009 239.655278 
L 166.547959 235.384963 
L 167.246225 236.137041 
L 182.28778 222.171714 
L 182.986047 222.923792 
L 167.944492 236.889119 
L 168.642758 237.641196 
z
" clip-path="url(#p48b2a416ca)" style="fill: #ff0000; stroke: #ff0000; stroke-width: 0.24"/>
    <path d="M 166.83313 238.229021 
L 169.035817 233.887927 
L 169.75719 234.617871 
L 184.356066 220.190412 
L 185.077439 220.920356 
L 170.478563 235.347814 
L 171.199936 236.077758 
z
" clip-path="url(#p48b2a416ca)" style="fill: #ff0000; stroke: #ff0000; stroke-width: 0.24"/>
    <path d="M 169.409711 236.722128 
L 171.475951 232.314455 
L 172.219736 233.021547 
L 186.361592 218.145841 
L 187.105377 218.852934 
L 172.963521 233.72864 
L 173.707307 234.435733 
z
" clip-path="url(#p48b2a416ca)" style="fill: #ff0000; stroke: #ff0000; stroke-width: 0.24"/>
    <path d="M 171.937851 235.13515 
L 173.865678 230.665205 
L 174.631145 231.348766 
L 188.302378 216.039419 
L 189.067845 216.72298 
L 175.396612 232.032328 
L 176.16208 232.71589 
z
" clip-path="url(#p48b2a416ca)" style="fill: #ff0000; stroke: #ff0000; stroke-width: 0.24"/>
    <path d="M 174.415278 233.470214 
L 176.202817 228.942341 
L 176.989222 229.601707 
L 190.176542 213.873601 
L 190.962947 214.532967 
L 177.775627 230.261073 
L 178.562033 230.920439 
z
" clip-path="url(#p48b2a416ca)" style="fill: #ff0000; stroke: #ff0000; stroke-width: 0.24"/>
    <path d="M 176.839785 231.729028 
L 178.485253 227.147613 
L 179.291839 227.782134 
L 191.982264 211.650432 
L 192.788849 212.284953 
L 180.098424 228.416656 
L 180.905009 229.051177 
z
" clip-path="url(#p48b2a416ca)" style="fill: #ff0000; stroke: #ff0000; stroke-width: 0.24"/>
    <path d="M 179.208647 229.913053 
L 180.71049 225.282567 
L 181.536464 225.891635 
L 193.717817 209.37215 
L 194.543791 209.981217 
L 182.362439 226.500702 
L 183.188413 227.10977 
z
" clip-path="url(#p48b2a416ca)" style="fill: #ff0000; stroke: #ff0000; stroke-width: 0.24"/>
    <path d="M 181.519933 228.024183 
L 182.876644 223.349115 
L 183.72121 223.932128 
L 195.381479 207.040803 
L 196.226045 207.623816 
L 184.565776 224.515141 
L 185.410343 225.098155 
z
" clip-path="url(#p48b2a416ca)" style="fill: #ff0000; stroke: #ff0000; stroke-width: 0.24"/>
    <path d="M 183.77097 226.063941 
L 184.981277 221.34885 
L 185.843608 221.905251 
L 196.971623 204.658628 
L 197.833954 205.215028 
L 186.705939 222.461652 
L 187.56827 223.018052 
z
" clip-path="url(#p48b2a416ca)" style="fill: #ff0000; stroke: #ff0000; stroke-width: 0.24"/>
    <path d="M 185.959809 224.034518 
L 187.022535 219.283987 
L 187.901792 219.813234 
L 198.486736 202.228078 
L 199.365993 202.757326 
L 188.78105 220.342481 
L 189.660308 220.871728 
z
" clip-path="url(#p48b2a416ca)" style="fill: #ff0000; stroke: #ff0000; stroke-width: 0.24"/>
    <path d="M 188.084544 221.937951 
L 188.998608 217.156589 
L 189.893943 217.65816 
L 199.925346 199.751466 
L 200.82068 200.253036 
L 190.789277 218.15973 
L 191.684612 218.6613 
z
" clip-path="url(#p48b2a416ca)" style="fill: #ff0000; stroke: #ff0000; stroke-width: 0.24"/>
    <path d="M 190.142645 219.776047 
L 190.907206 214.968514 
L 191.817742 215.441929 
L 201.286029 197.23121 
L 202.196564 197.704624 
L 192.728278 215.915343 
L 193.638814 216.388757 
z
" clip-path="url(#p48b2a416ca)" style="fill: #ff0000; stroke: #ff0000; stroke-width: 0.24"/>
    <path d="M 192.132467 217.551127 
L 192.746733 212.722089 
L 193.671589 213.166878 
L 202.567371 194.669749 
L 203.492227 195.114538 
L 194.596446 213.611667 
L 195.521302 214.056456 
z
" clip-path="url(#p48b2a416ca)" style="fill: #ff0000; stroke: #ff0000; stroke-width: 0.24"/>
    <path d="M 194.051852 215.265148 
L 194.515274 210.419307 
L 195.453547 210.835048 
L 203.768358 192.069584 
L 204.706631 192.485324 
L 196.391821 211.250789 
L 197.330094 211.666529 
z
" clip-path="url(#p48b2a416ca)" style="fill: #ff0000; stroke: #ff0000; stroke-width: 0.24"/>
    <path d="M 195.899038 212.920451 
L 196.211166 208.062519 
L 197.161944 208.448807 
L 204.887701 189.43325 
L 205.838479 189.819538 
L 198.112722 208.835095 
L 199.0635 209.221383 
z
" clip-path="url(#p48b2a416ca)" style="fill: #ff0000; stroke: #ff0000; stroke-width: 0.24"/>
    <path d="M 197.672328 210.519393 
L 197.83281 205.65409 
L 198.795172 206.01054 
L 205.924172 186.763305 
L 206.886534 187.119755 
L 199.757534 206.36699 
L 200.719896 206.72344 
z
" clip-path="url(#p48b2a416ca)" style="fill: #ff0000; stroke: #ff0000; stroke-width: 0.24"/>
    <path d="M 199.369927 208.064101 
L 199.378656 203.19616 
L 200.351662 203.522435 
L 206.877166 184.062309 
L 207.850172 184.388584 
L 201.324668 203.848711 
L 202.297675 204.174986 
z
" clip-path="url(#p48b2a416ca)" style="fill: #ff0000; stroke: #ff0000; stroke-width: 0.24"/>
    <path d="M 200.989913 205.557106 
L 200.846879 200.691259 
L 201.829584 200.987042 
L 207.745248 181.332942 
L 208.727953 181.628725 
L 202.812289 201.282825 
L 203.794994 201.578608 
z
" clip-path="url(#p48b2a416ca)" style="fill: #ff0000; stroke: #ff0000; stroke-width: 0.24"/>
    <path d="M 202.531186 203.00088 
L 202.236481 198.14186 
L 203.227932 198.406854 
L 208.527806 178.577833 
L 209.519257 178.842827 
L 204.219383 198.671847 
L 205.210834 198.936841 
z
" clip-path="url(#p48b2a416ca)" style="fill: #ff0000; stroke: #ff0000; stroke-width: 0.24"/>
    <path d="M 203.991914 200.397771 
L 203.545872 195.5503 
L 204.545103 195.784257 
L 209.224232 175.799651 
L 210.223462 176.033607 
L 205.544333 196.018213 
L 206.543563 196.25217 
z
" clip-path="url(#p48b2a416ca)" style="fill: #ff0000; stroke: #ff0000; stroke-width: 0.24"/>
    <path d="M 205.370818 197.750462 
L 204.773826 192.919259 
L 205.779866 193.12194 
L 209.833501 173.001136 
L 210.839541 173.203818 
L 206.785906 193.324622 
L 207.791946 193.527304 
z
" clip-path="url(#p48b2a416ca)" style="fill: #ff0000; stroke: #ff0000; stroke-width: 0.24"/>
    <path d="M 206.666458 195.061381 
L 205.919143 190.251137 
L 206.931013 190.422357 
L 210.355412 170.184961 
L 211.367282 170.356181 
L 207.942882 190.593577 
L 208.954752 190.764797 
z
" clip-path="url(#p48b2a416ca)" style="fill: #ff0000; stroke: #ff0000; stroke-width: 0.24"/>
    <path d="M 207.877507 192.333217 
L 206.980596 187.548609 
L 207.997312 187.688201 
L 210.789147 167.353885 
L 211.805863 167.493477 
L 209.014027 187.827792 
L 210.030743 187.967384 
z
" clip-path="url(#p48b2a416ca)" style="fill: #ff0000; stroke: #ff0000; stroke-width: 0.24"/>
    <path d="M 209.003051 189.568632 
L 207.957369 184.814321 
L 208.977944 184.922138 
L 211.134297 164.51065 
L 212.154871 164.618468 
L 209.998518 185.029956 
L 211.019093 185.137774 
z
" clip-path="url(#p48b2a416ca)" style="fill: #ff0000; stroke: #ff0000; stroke-width: 0.24"/>
    <path d="M 210.041836 186.770305 
L 208.848447 182.050904 
L 209.871887 182.126853 
L 211.390864 161.658061 
L 212.414304 161.73401 
L 210.895326 182.202802 
L 211.918766 182.278751 
z
" clip-path="url(#p48b2a416ca)" style="fill: #ff0000; stroke: #ff0000; stroke-width: 0.24"/>
    <path d="M 210.992735 183.940974 
L 209.652799 179.26107 
L 210.678109 179.305077 
L 211.558235 158.79888 
L 212.583545 158.842886 
L 211.703419 179.349083 
L 212.728728 179.393089 
z
" clip-path="url(#p48b2a416ca)" style="fill: #ff0000; stroke: #ff0000; stroke-width: 0.24"/>
    <path d="M 211.855239 181.083326 
L 210.370012 176.447485 
L 211.396196 176.459495 
L 211.636409 155.935825 
L 212.662592 155.947836 
L 212.422379 176.471506 
L 213.448563 176.483517 
z
" clip-path="url(#p48b2a416ca)" style="fill: #ff0000; stroke: #ff0000; stroke-width: 0.24"/>
    <path d="M 212.627878 178.200201 
L 210.998851 173.612915 
L 212.02491 173.592928 
L 211.625182 153.071745 
L 212.651242 153.051759 
L 213.050969 173.572942 
L 214.077028 173.552955 
z
" clip-path="url(#p48b2a416ca)" style="fill: #ff0000; stroke: #ff0000; stroke-width: 0.24"/>
    <path d="M 213.310598 175.294268 
L 211.539309 170.760013 
L 212.564245 170.708039 
L 211.52476 150.209303 
L 212.549697 150.157329 
L 213.589182 170.656065 
L 214.614119 170.604091 
z
" clip-path="url(#p48b2a416ca)" style="fill: #ff0000; stroke: #ff0000; stroke-width: 0.24"/>
    <path d="M 213.902134 172.368649 
L 211.99035 167.891819 
L 213.013169 167.807917 
L 211.335141 147.351551 
L 212.35796 147.267649 
L 214.035987 167.724016 
L 215.058805 167.640115 
z
" clip-path="url(#p48b2a416ca)" style="fill: #ff0000; stroke: #ff0000; stroke-width: 0.24"/>
    <path d="M 214.402182 169.425854 
L 212.351763 165.0108 
L 213.371468 164.895053 
L 211.056531 144.500941 
L 212.076236 144.385194 
L 214.391174 164.779306 
L 215.410879 164.663559 
z
" clip-path="url(#p48b2a416ca)" style="fill: #ff0000; stroke: #ff0000; stroke-width: 0.24"/>
    <path d="M 214.810438 166.469 
L 212.623333 162.120035 
L 213.638933 161.972545 
L 210.689132 141.660543 
L 211.704732 141.513053 
L 214.654533 161.825055 
L 215.670133 161.677565 
z
" clip-path="url(#p48b2a416ca)" style="fill: #ff0000; stroke: #ff0000; stroke-width: 0.24"/>
    <path d="M 215.126263 163.500916 
L 212.804642 159.222248 
L 213.815151 159.043168 
L 210.233558 138.832999 
L 211.244067 138.65392 
L 214.825659 158.864088 
L 215.836168 158.685009 
z
" clip-path="url(#p48b2a416ca)" style="fill: #ff0000; stroke: #ff0000; stroke-width: 0.24"/>
    <path d="M 215.349401 160.524313 
L 212.895479 156.320125 
L 213.899912 156.10962 
L 209.689808 136.020973 
L 210.69424 135.810467 
L 214.904344 155.899115 
L 215.908777 155.688609 
z
" clip-path="url(#p48b2a416ca)" style="fill: #ff0000; stroke: #ff0000; stroke-width: 0.24"/>
    <path d="M 215.479431 157.542098 
L 212.895636 153.416455 
L 213.893018 153.174739 
L 209.058698 133.227106 
L 210.05608 132.98539 
L 214.8904 152.933023 
L 215.887781 152.691307 
z
" clip-path="url(#p48b2a416ca)" style="fill: #ff0000; stroke: #ff0000; stroke-width: 0.24"/>
    <path d="M 215.516472 154.557476 
L 212.805317 150.514387 
L 213.794678 150.241695 
L 208.340841 130.454467 
L 209.330203 130.181775 
L 214.784039 149.969003 
L 215.773401 149.696312 
z
" clip-path="url(#p48b2a416ca)" style="fill: #ff0000; stroke: #ff0000; stroke-width: 0.24"/>
    <path d="M 215.460643 151.573024 
L 212.624722 147.616449 
L 213.605099 147.313037 
L 207.536851 127.70551 
L 208.517227 127.402098 
L 214.585475 147.009624 
L 215.565851 146.706212 
z
" clip-path="url(#p48b2a416ca)" style="fill: #ff0000; stroke: #ff0000; stroke-width: 0.24"/>
    <path d="M 215.311345 148.591973 
L 212.353457 144.725731 
L 213.323898 144.391902 
L 206.647336 124.983084 
L 207.617777 124.649256 
L 214.294339 144.058074 
L 215.26478 143.724246 
z
" clip-path="url(#p48b2a416ca)" style="fill: #ff0000; stroke: #ff0000; stroke-width: 0.24"/>
    <path d="M 215.069533 145.616954 
L 211.992553 141.844803 
L 212.952115 141.480884 
L 205.673729 122.28964 
L 206.633292 121.925721 
L 213.911677 141.116965 
L 214.871239 140.753045 
z
" clip-path="url(#p48b2a416ca)" style="fill: #ff0000; stroke: #ff0000; stroke-width: 0.24"/>
    <path d="M 214.735133 142.650594 
L 211.542015 138.976233 
L 212.489762 138.582567 
L 204.616438 119.627633 
L 205.564185 119.233967 
L 213.437508 138.188901 
L 214.385255 137.795235 
z
" clip-path="url(#p48b2a416ca)" style="fill: #ff0000; stroke: #ff0000; stroke-width: 0.24"/>
    <path d="M 214.3082 139.696438 
L 211.002087 136.123408 
L 211.9371 135.700388 
L 203.476685 117.000118 
L 204.411698 116.577097 
L 212.872114 135.277367 
L 213.807127 134.854346 
z
" clip-path="url(#p48b2a416ca)" style="fill: #ff0000; stroke: #ff0000; stroke-width: 0.24"/>
    <path d="M 213.789524 136.756847 
L 210.373593 133.288657 
L 211.29496 132.836683 
L 202.255493 114.409346 
L 203.176859 113.957373 
L 212.216327 132.38471 
L 213.137694 131.932736 
z
" clip-path="url(#p48b2a416ca)" style="fill: #ff0000; stroke: #ff0000; stroke-width: 0.24"/>
    <path d="M 213.179272 133.83503 
L 209.656881 130.475016 
L 210.56371 129.994539 
L 200.954165 111.857964 
L 201.860994 111.377486 
L 211.470539 129.514062 
L 212.377368 129.033585 
z
" clip-path="url(#p48b2a416ca)" style="fill: #ff0000; stroke: #ff0000; stroke-width: 0.24"/>
    <path d="M 214.498674 134.570119 
L 210.873247 131.321549 
L 211.764657 130.813035 
L 201.594375 112.984852 
L 202.485785 112.476338 
L 212.656066 130.304521 
L 213.547475 129.796006 
z
" clip-path="url(#p48b2a416ca)" style="fill: #ff0000; stroke: #ff0000; stroke-width: 0.24"/>
    <path d="M 216.639785 136.649995 
L 212.914815 133.516063 
L 213.789933 132.979998 
L 203.068627 115.477646 
L 203.943745 114.941581 
L 214.66505 132.443933 
L 215.540168 131.907868 
z
" clip-path="url(#p48b2a416ca)" style="fill: #ff0000; stroke: #ff0000; stroke-width: 0.24"/>
    <path d="M 218.844306 138.662328 
L 215.02344 135.646053 
L 215.881419 135.082965 
L 204.619656 117.923379 
L 205.477635 117.360291 
L 216.739399 134.519877 
L 217.597378 133.956789 
z
" clip-path="url(#p48b2a416ca)" style="fill: #ff0000; stroke: #ff0000; stroke-width: 0.24"/>
    <path d="M 221.110556 140.60495 
L 217.197507 137.709268 
L 218.037513 137.119704 
L 206.246224 120.319578 
L 207.08623 119.730014 
L 218.877519 136.530139 
L 219.717526 135.940575 
z
" clip-path="url(#p48b2a416ca)" style="fill: #ff0000; stroke: #ff0000; stroke-width: 0.24"/>
    <path d="M 223.436467 142.476029 
L 219.435036 139.70376 
L 220.256252 139.088291 
L 207.946885 122.663973 
L 208.768101 122.048505 
L 221.077468 138.472823 
L 221.898684 137.857355 
z
" clip-path="url(#p48b2a416ca)" style="fill: #ff0000; stroke: #ff0000; stroke-width: 0.24"/>
    <path d="M 225.819349 144.273562 
L 221.733426 141.627402 
L 222.535053 140.986628 
L 209.719578 124.954089 
L 210.521205 124.313315 
L 223.33668 140.345854 
L 224.138307 139.70508 
z
" clip-path="url(#p48b2a416ca)" style="fill: #ff0000; stroke: #ff0000; stroke-width: 0.24"/>
    <path d="M 228.257161 145.995966 
L 224.090721 143.478486 
L 224.871979 142.81303 
L 211.562857 127.187859 
L 212.344116 126.522403 
L 225.653238 142.147574 
L 226.434496 141.482118 
z
" clip-path="url(#p48b2a416ca)" style="fill: #ff0000; stroke: #ff0000; stroke-width: 0.24"/>
    <path d="M 230.747674 147.641466 
L 226.504767 145.255116 
L 227.264897 144.565625 
L 213.475069 129.363014 
L 214.2352 128.673523 
L 228.025028 143.876133 
L 228.785158 143.186642 
z
" clip-path="url(#p48b2a416ca)" style="fill: #ff0000; stroke: #ff0000; stroke-width: 0.24"/>
    <path d="M 233.288057 149.208514 
L 228.972809 146.955614 
L 229.711072 146.242758 
L 215.453947 131.47749 
L 216.19221 130.764634 
L 230.449335 145.529901 
L 231.187599 144.817045 
z
" clip-path="url(#p48b2a416ca)" style="fill: #ff0000; stroke: #ff0000; stroke-width: 0.24"/>
    <path d="M 235.876094 150.695597 
L 231.492703 148.578332 
L 232.208382 147.842805 
L 217.497837 133.529224 
L 218.213516 132.793696 
L 232.924061 147.107278 
L 233.63974 146.37175 
z
" clip-path="url(#p48b2a416ca)" style="fill: #ff0000; stroke: #ff0000; stroke-width: 0.24"/>
    <path d="M 238.509434 152.101369 
L 234.06216 150.121803 
L 234.754558 149.364319 
L 219.604883 135.516356 
L 220.297281 134.758872 
L 235.446956 148.606835 
L 236.139354 147.849352 
z
" clip-path="url(#p48b2a416ca)" style="fill: #ff0000; stroke: #ff0000; stroke-width: 0.24"/>
    <path d="M 241.185072 153.424144 
L 236.678239 151.584202 
L 237.346683 150.805498 
L 221.772609 137.436619 
L 222.441053 136.657915 
L 238.015127 150.026795 
L 238.683571 149.248091 
z
" clip-path="url(#p48b2a416ca)" style="fill: #ff0000; stroke: #ff0000; stroke-width: 0.24"/>
    <path d="M 243.90086 154.663058 
L 239.338851 152.964528 
L 239.982691 152.165362 
L 223.999361 139.288566 
L 224.643201 138.489399 
L 240.626531 151.366195 
L 241.270371 150.567029 
z
" clip-path="url(#p48b2a416ca)" style="fill: #ff0000; stroke: #ff0000; stroke-width: 0.24"/>
    <path d="M 246.653849 155.816643 
L 242.0411 154.261178 
L 242.659709 153.442325 
L 226.282665 141.070133 
L 226.901275 140.251281 
L 243.278319 152.623473 
L 243.896929 151.804621 
z
" clip-path="url(#p48b2a416ca)" style="fill: #ff0000; stroke: #ff0000; stroke-width: 0.24"/>
    <path d="M 249.441502 156.883878 
L 244.782499 155.472986 
L 245.375278 154.635245 
L 228.620456 142.779669 
L 229.213235 141.941928 
L 245.968057 153.797503 
L 246.560836 152.959762 
z
" clip-path="url(#p48b2a416ca)" style="fill: #ff0000; stroke: #ff0000; stroke-width: 0.24"/>
    <path d="M 252.260936 157.863493 
L 247.560208 156.598549 
L 248.126579 155.742733 
L 231.010259 144.415319 
L 231.576629 143.559503 
L 248.69295 154.886917 
L 249.25932 154.031101 
z
" clip-path="url(#p48b2a416ca)" style="fill: #ff0000; stroke: #ff0000; stroke-width: 0.24"/>
    <path d="M 255.109653 158.754903 
L 250.371771 157.637138 
L 250.911183 156.764079 
L 233.450007 145.975841 
L 233.989419 145.102783 
L 251.450595 155.89102 
L 251.990007 155.017961 
z
" clip-path="url(#p48b2a416ca)" style="fill: #ff0000; stroke: #ff0000; stroke-width: 0.24"/>
    <path d="M 257.984779 159.556904 
L 253.214349 158.587405 
L 253.726278 157.697952 
L 235.937226 147.459381 
L 236.449154 146.569928 
L 254.238206 156.8085 
L 254.750135 155.919047 
z
" clip-path="url(#p48b2a416ca)" style="fill: #ff0000; stroke: #ff0000; stroke-width: 0.24"/>
    <path d="M 260.883665 160.269125 
L 256.085327 159.448834 
L 256.569274 158.543853 
L 238.469643 148.864903 
L 238.95359 147.959921 
L 257.053222 157.638871 
L 257.537169 156.733889 
z
" clip-path="url(#p48b2a416ca)" style="fill: #ff0000; stroke: #ff0000; stroke-width: 0.24"/>
    <path d="M 263.803068 160.890385 
L 258.981487 160.2201 
L 259.436983 159.30047 
L 241.044372 150.190553 
L 241.499868 149.270922 
L 259.892479 158.380839 
L 260.347975 157.461208 
z
" clip-path="url(#p48b2a416ca)" style="fill: #ff0000; stroke: #ff0000; stroke-width: 0.24"/>
    <path d="M 266.740577 161.420359 
L 261.900442 160.900726 
L 262.327044 159.967341 
L 243.659346 151.435297 
L 244.085948 150.501913 
L 262.753646 159.033956 
L 263.180248 158.100572 
z
" clip-path="url(#p48b2a416ca)" style="fill: #ff0000; stroke: #ff0000; stroke-width: 0.24"/>
    <path d="M 269.693216 161.858662 
L 264.839233 161.490193 
L 265.236525 160.54396 
L 246.311883 152.598104 
L 246.709176 151.651872 
L 265.633818 159.597728 
L 266.031111 158.651496 
z
" clip-path="url(#p48b2a416ca)" style="fill: #ff0000; stroke: #ff0000; stroke-width: 0.24"/>
    <path d="M 272.556212 162.194137 
L 267.693334 161.971995 
L 268.061954 161.014229 
L 248.906632 153.641824 
L 249.275252 152.684058 
L 268.430574 160.056463 
L 268.799195 159.098697 
z
" clip-path="url(#p48b2a416ca)" style="fill: #ff0000; stroke: #ff0000; stroke-width: 0.24"/>
    <path d="M 275.428098 162.443427 
L 270.560736 162.367814 
L 270.90035 161.399382 
L 251.53172 154.607114 
L 251.871333 153.638683 
L 271.239963 160.430951 
L 271.579576 159.462519 
z
" clip-path="url(#p48b2a416ca)" style="fill: #ff0000; stroke: #ff0000; stroke-width: 0.24"/>
    <path d="M 278.306381 162.605943 
L 273.438949 162.676928 
L 273.749248 161.698709 
L 254.184876 155.492739 
L 254.495174 154.51452 
L 274.059546 160.720491 
L 274.369845 159.742272 
z
" clip-path="url(#p48b2a416ca)" style="fill: #ff0000; stroke: #ff0000; stroke-width: 0.24"/>
    <path d="M 276.321473 161.225468 
L 271.458387 161.442986 
L 271.739089 160.455868 
L 251.996717 154.841823 
L 252.27742 153.854705 
L 272.019791 159.468749 
L 272.300493 158.481631 
z
" clip-path="url(#p48b2a416ca)" style="fill: #ff0000; stroke: #ff0000; stroke-width: 0.24"/>
    <path d="M 273.831062 159.773692 
L 268.97673 160.137546 
L 269.227582 159.142423 
L 249.325116 154.125395 
L 249.575967 153.130272 
L 269.478433 158.1473 
L 269.729285 157.152176 
z
" clip-path="url(#p48b2a416ca)" style="fill: #ff0000; stroke: #ff0000; stroke-width: 0.24"/>
    <path d="M 271.298016 158.397417 
L 266.456841 158.907276 
L 266.677614 157.905051 
L 246.633103 153.48959 
L 246.853876 152.487365 
L 266.898387 156.902825 
L 267.11916 155.9006 
z
" clip-path="url(#p48b2a416ca)" style="fill: #ff0000; stroke: #ff0000; stroke-width: 0.24"/>
    <path d="M 271.502707 157.645124 
L 266.67908 158.300527 
L 266.869575 157.292108 
L 246.701197 153.482219 
L 246.891691 152.4738 
L 267.060069 156.283689 
L 267.250564 155.27527 
z
" clip-path="url(#p48b2a416ca)" style="fill: #ff0000; stroke: #ff0000; stroke-width: 0.24"/>
    <path d="M 274.372751 157.374222 
L 269.571046 158.174574 
L 269.731089 157.160877 
L 249.457136 153.960014 
L 249.617179 152.946317 
L 269.891133 156.147179 
L 270.051176 155.133481 
z
" clip-path="url(#p48b2a416ca)" style="fill: #ff0000; stroke: #ff0000; stroke-width: 0.24"/>
    <path d="M 277.233199 157.016867 
L 272.45777 157.961438 
L 272.587218 156.943381 
L 252.226078 154.354428 
L 252.355525 153.336371 
L 272.716666 155.925324 
L 272.846113 154.907267 
z
" clip-path="url(#p48b2a416ca)" style="fill: #ff0000; stroke: #ff0000; stroke-width: 0.24"/>
    <path d="M 280.081499 156.57368 
L 275.336679 157.66162 
L 275.435412 156.640127 
L 255.005547 154.665459 
L 255.10428 153.643966 
L 275.534146 155.618633 
L 275.632879 154.59714 
z
" clip-path="url(#p48b2a416ca)" style="fill: #ff0000; stroke: #ff0000; stroke-width: 0.24"/>
    <path d="M 282.915311 156.04498 
L 278.205402 157.2753 
L 278.273332 156.251296 
L 257.79327 154.892695 
L 257.8612 153.868692 
L 278.341262 155.227293 
L 278.409192 154.20329 
z
" clip-path="url(#p48b2a416ca)" style="fill: #ff0000; stroke: #ff0000; stroke-width: 0.24"/>
    <path d="M 285.731912 155.431029 
L 281.061186 156.802612 
L 281.098251 155.777027 
L 260.586566 155.035724 
L 260.623631 154.01014 
L 281.135316 154.751443 
L 281.172381 153.725859 
z
" clip-path="url(#p48b2a416ca)" style="fill: #ff0000; stroke: #ff0000; stroke-width: 0.24"/>
    <path d="M 288.528805 154.732511 
L 283.901496 156.244114 
L 283.907663 155.217879 
L 263.382958 155.094546 
L 263.389125 154.068311 
L 283.91383 154.191643 
L 283.919996 153.165408 
z
" clip-path="url(#p48b2a416ca)" style="fill: #ff0000; stroke: #ff0000; stroke-width: 0.24"/>
    <path d="M 291.303306 153.950319 
L 286.723612 155.600572 
L 286.698875 154.574616 
L 266.179763 155.069366 
L 266.155026 154.04341 
L 286.674137 153.54866 
L 286.6494 152.522705 
z
" clip-path="url(#p48b2a416ca)" style="fill: #ff0000; stroke: #ff0000; stroke-width: 0.24"/>
    <path d="M 293.536967 154.5295 
L 288.918825 156.068881 
L 288.918825 155.042627 
L 268.393749 155.042627 
L 268.393749 154.016373 
L 288.918825 154.016373 
L 288.918825 152.99012 
z
" clip-path="url(#p48b2a416ca)" style="fill: #ff0000; stroke: #ff0000; stroke-width: 0.24"/>
   </g>
   <g id="matplotlib.axis_1">
    <g id="xtick_1">
     <g id="line2d_1">
      <defs>
       <path id="mfd5636b095" d="M 0 0 
L 0 -3 
" style="stroke: #000000"/>
      </defs>
      <g>
       <use xlink:href="#mfd5636b095" x="58.309339" y="290.32" style="stroke: #000000"/>
      </g>
     </g>
     <g id="text_1">
      <!-- 6 -->
      <g transform="translate(50.569691 303.898359) scale(0.105 -0.105)">
       <defs>
        <path id="DejaVuSans-2212" d="M 678 2272 
L 4684 2272 
L 4684 1741 
L 678 1741 
L 678 2272 
z
" transform="scale(0.015625)"/>
        <path id="DejaVuSans-36" d="M 2113 2584 
Q 1688 2584 1439 2293 
Q 1191 2003 1191 1497 
Q 1191 994 1439 701 
Q 1688 409 2113 409 
Q 2538 409 2786 701 
Q 3034 994 3034 1497 
Q 3034 2003 2786 2293 
Q 2538 2584 2113 2584 
z
M 3366 4563 
L 3366 3988 
Q 3128 4100 2886 4159 
Q 2644 4219 2406 4219 
Q 1781 4219 1451 3797 
Q 1122 3375 1075 2522 
Q 1259 2794 1537 2939 
Q 1816 3084 2150 3084 
Q 2853 3084 3261 2657 
Q 3669 2231 3669 1497 
Q 3669 778 3244 343 
Q 2819 -91 2113 -91 
Q 1303 -91 875 529 
Q 447 1150 447 2328 
Q 447 3434 972 4092 
Q 1497 4750 2381 4750 
Q 2619 4750 2861 4703 
Q 3103 4656 3366 4563 
z
" transform="scale(0.015625)"/>
       </defs>
       <use xlink:href="#DejaVuSans-2212"/>
       <use xlink:href="#DejaVuSans-36" x="83.789062"/>
      </g>
     </g>
    </g>
    <g id="xtick_2">
     <g id="line2d_2">
      <g>
       <use xlink:href="#mfd5636b095" x="99.35949" y="290.32" style="stroke: #000000"/>
      </g>
     </g>
     <g id="text_2">
      <!-- 4 -->
      <g transform="translate(91.619842 303.898359) scale(0.105 -0.105)">
       <defs>
        <path id="DejaVuSans-34" d="M 2419 4116 
L 825 1625 
L 2419 1625 
L 2419 4116 
z
M 2253 4666 
L 3047 4666 
L 3047 1625 
L 3713 1625 
L 3713 1100 
L 3047 1100 
L 3047 0 
L 2419 0 
L 2419 1100 
L 313 1100 
L 313 1709 
L 2253 4666 
z
" transform="scale(0.015625)"/>
       </defs>
       <use xlink:href="#DejaVuSans-2212"/>
       <use xlink:href="#DejaVuSans-34" x="83.789062"/>
      </g>
     </g>
    </g>
    <g id="xtick_3">
     <g id="line2d_3">
      <g>
       <use xlink:href="#mfd5636b095" x="140.409641" y="290.32" style="stroke: #000000"/>
      </g>
     </g>
     <g id="text_3">
      <!-- 2 -->
      <g transform="translate(132.669993 303.898359) scale(0.105 -0.105)">
       <defs>
        <path id="DejaVuSans-32" d="M 1228 531 
L 3431 531 
L 3431 0 
L 469 0 
L 469 531 
Q 828 903 1448 1529 
Q 2069 2156 2228 2338 
Q 2531 2678 2651 2914 
Q 2772 3150 2772 3378 
Q 2772 3750 2511 3984 
Q 2250 4219 1831 4219 
Q 1534 4219 1204 4116 
Q 875 4013 500 3803 
L 500 4441 
Q 881 4594 1212 4672 
Q 1544 4750 1819 4750 
Q 2544 4750 2975 4387 
Q 3406 4025 3406 3419 
Q 3406 3131 3298 2873 
Q 3191 2616 2906 2266 
Q 2828 2175 2409 1742 
Q 1991 1309 1228 531 
z
" transform="scale(0.015625)"/>
       </defs>
       <use xlink:href="#DejaVuSans-2212"/>
       <use xlink:href="#DejaVuSans-32" x="83.789062"/>
      </g>
     </g>
    </g>
    <g id="xtick_4">
     <g id="line2d_4">
      <g>
       <use xlink:href="#mfd5636b095" x="181.459792" y="290.32" style="stroke: #000000"/>
      </g>
     </g>
     <g id="text_4">
      <!-- 0 -->
      <g transform="translate(178.11948 303.898359) scale(0.105 -0.105)">
       <defs>
        <path id="DejaVuSans-30" d="M 2034 4250 
Q 1547 4250 1301 3770 
Q 1056 3291 1056 2328 
Q 1056 1369 1301 889 
Q 1547 409 2034 409 
Q 2525 409 2770 889 
Q 3016 1369 3016 2328 
Q 3016 3291 2770 3770 
Q 2525 4250 2034 4250 
z
M 2034 4750 
Q 2819 4750 3233 4129 
Q 3647 3509 3647 2328 
Q 3647 1150 3233 529 
Q 2819 -91 2034 -91 
Q 1250 -91 836 529 
Q 422 1150 422 2328 
Q 422 3509 836 4129 
Q 1250 4750 2034 4750 
z
" transform="scale(0.015625)"/>
       </defs>
       <use xlink:href="#DejaVuSans-30"/>
      </g>
     </g>
    </g>
    <g id="xtick_5">
     <g id="line2d_5">
      <g>
       <use xlink:href="#mfd5636b095" x="222.509943" y="290.32" style="stroke: #000000"/>
      </g>
     </g>
     <g id="text_5">
      <!-- 2 -->
      <g transform="translate(219.169631 303.898359) scale(0.105 -0.105)">
       <use xlink:href="#DejaVuSans-32"/>
      </g>
     </g>
    </g>
    <g id="xtick_6">
     <g id="line2d_6">
      <g>
       <use xlink:href="#mfd5636b095" x="263.560094" y="290.32" style="stroke: #000000"/>
      </g>
     </g>
     <g id="text_6">
      <!-- 4 -->
      <g transform="translate(260.219782 303.898359) scale(0.105 -0.105)">
       <use xlink:href="#DejaVuSans-34"/>
      </g>
     </g>
    </g>
    <g id="xtick_7">
     <g id="line2d_7">
      <g>
       <use xlink:href="#mfd5636b095" x="304.610245" y="290.32" style="stroke: #000000"/>
      </g>
     </g>
     <g id="text_7">
      <!-- 6 -->
      <g transform="translate(301.269932 303.898359) scale(0.105 -0.105)">
       <use xlink:href="#DejaVuSans-36"/>
      </g>
     </g>
    </g>
    <g id="xtick_8">
     <g id="line2d_8">
      <g>
       <use xlink:href="#mfd5636b095" x="345.660396" y="290.32" style="stroke: #000000"/>
      </g>
     </g>
     <g id="text_8">
      <!-- 8 -->
      <g transform="translate(342.320083 303.898359) scale(0.105 -0.105)">
       <defs>
        <path id="DejaVuSans-38" d="M 2034 2216 
Q 1584 2216 1326 1975 
Q 1069 1734 1069 1313 
Q 1069 891 1326 650 
Q 1584 409 2034 409 
Q 2484 409 2743 651 
Q 3003 894 3003 1313 
Q 3003 1734 2745 1975 
Q 2488 2216 2034 2216 
z
M 1403 2484 
Q 997 2584 770 2862 
Q 544 3141 544 3541 
Q 544 4100 942 4425 
Q 1341 4750 2034 4750 
Q 2731 4750 3128 4425 
Q 3525 4100 3525 3541 
Q 3525 3141 3298 2862 
Q 3072 2584 2669 2484 
Q 3125 2378 3379 2068 
Q 3634 1759 3634 1313 
Q 3634 634 3220 271 
Q 2806 -91 2034 -91 
Q 1263 -91 848 271 
Q 434 634 434 1313 
Q 434 1759 690 2068 
Q 947 2378 1403 2484 
z
M 1172 3481 
Q 1172 3119 1398 2916 
Q 1625 2713 2034 2713 
Q 2441 2713 2670 2916 
Q 2900 3119 2900 3481 
Q 2900 3844 2670 4047 
Q 2441 4250 2034 4250 
Q 1625 4250 1398 4047 
Q 1172 3844 1172 3481 
z
" transform="scale(0.015625)"/>
       </defs>
       <use xlink:href="#DejaVuSans-38"/>
      </g>
     </g>
    </g>
    <g id="xtick_9">
     <g id="line2d_9">
      <g>
       <use xlink:href="#mfd5636b095" x="386.710547" y="290.32" style="stroke: #000000"/>
      </g>
     </g>
     <g id="text_9">
      <!-- 10 -->
      <g transform="translate(380.029922 303.898359) scale(0.105 -0.105)">
       <defs>
        <path id="DejaVuSans-31" d="M 794 531 
L 1825 531 
L 1825 4091 
L 703 3866 
L 703 4441 
L 1819 4666 
L 2450 4666 
L 2450 531 
L 3481 531 
L 3481 0 
L 794 0 
L 794 531 
z
" transform="scale(0.015625)"/>
       </defs>
       <use xlink:href="#DejaVuSans-31"/>
       <use xlink:href="#DejaVuSans-30" x="63.623047"/>
      </g>
     </g>
    </g>
   </g>
   <g id="matplotlib.axis_2">
    <g id="ytick_1">
     <g id="line2d_10">
      <defs>
       <path id="m92f04a6b98" d="M 0 0 
L 3 0 
" style="stroke: #000000"/>
      </defs>
      <g>
       <use xlink:href="#m92f04a6b98" x="50.131306" y="262.286147" style="stroke: #000000"/>
      </g>
     </g>
     <g id="text_10">
      <!-- 4 -->
      <g transform="translate(29.05201 266.275326) scale(0.105 -0.105)">
       <use xlink:href="#DejaVuSans-2212"/>
       <use xlink:href="#DejaVuSans-34" x="83.789062"/>
      </g>
     </g>
    </g>
    <g id="ytick_2">
     <g id="line2d_11">
      <g>
       <use xlink:href="#m92f04a6b98" x="50.131306" y="221.235996" style="stroke: #000000"/>
      </g>
     </g>
     <g id="text_11">
      <!-- 2 -->
      <g transform="translate(29.05201 225.225175) scale(0.105 -0.105)">
       <use xlink:href="#DejaVuSans-2212"/>
       <use xlink:href="#DejaVuSans-32" x="83.789062"/>
      </g>
     </g>
    </g>
    <g id="ytick_3">
     <g id="line2d_12">
      <g>
       <use xlink:href="#m92f04a6b98" x="50.131306" y="180.185845" style="stroke: #000000"/>
      </g>
     </g>
     <g id="text_12">
      <!-- 0 -->
      <g transform="translate(37.850681 184.175024) scale(0.105 -0.105)">
       <use xlink:href="#DejaVuSans-30"/>
      </g>
     </g>
    </g>
    <g id="ytick_4">
     <g id="line2d_13">
      <g>
       <use xlink:href="#m92f04a6b98" x="50.131306" y="139.135694" style="stroke: #000000"/>
      </g>
     </g>
     <g id="text_13">
      <!-- 2 -->
      <g transform="translate(37.850681 143.124873) scale(0.105 -0.105)">
       <use xlink:href="#DejaVuSans-32"/>
      </g>
     </g>
    </g>
    <g id="ytick_5">
     <g id="line2d_14">
      <g>
       <use xlink:href="#m92f04a6b98" x="50.131306" y="98.085543" style="stroke: #000000"/>
      </g>
     </g>
     <g id="text_14">
      <!-- 4 -->
      <g transform="translate(37.850681 102.074722) scale(0.105 -0.105)">
       <use xlink:href="#DejaVuSans-34"/>
      </g>
     </g>
    </g>
    <g id="ytick_6">
     <g id="line2d_15">
      <g>
       <use xlink:href="#m92f04a6b98" x="50.131306" y="57.035392" style="stroke: #000000"/>
      </g>
     </g>
     <g id="text_15">
      <!-- 6 -->
      <g transform="translate(37.850681 61.024572) scale(0.105 -0.105)">
       <use xlink:href="#DejaVuSans-36"/>
      </g>
     </g>
    </g>
    <g id="ytick_7">
     <g id="line2d_16">
      <g>
       <use xlink:href="#m92f04a6b98" x="50.131306" y="15.985241" style="stroke: #000000"/>
      </g>
     </g>
     <g id="text_16">
      <!-- 8 -->
      <g transform="translate(37.850681 19.974421) scale(0.105 -0.105)">
       <use xlink:href="#DejaVuSans-38"/>
      </g>
     </g>
    </g>
   </g>
   <g id="patch_3">
    <path d="M 50.131306 290.32 
L 50.131306 10.8 
" style="fill: none; stroke: #000000; stroke-width: 0.8; stroke-linejoin: miter; stroke-linecap: square"/>
   </g>
   <g id="patch_4">
    <path d="M 410.668694 290.32 
L 410.668694 10.8 
" style="fill: none; stroke: #000000; stroke-width: 0.8; stroke-linejoin: miter; stroke-linecap: square"/>
   </g>
   <g id="patch_5">
    <path d="M 50.131306 290.32 
L 410.668694 290.32 
" style="fill: none; stroke: #000000; stroke-width: 0.8; stroke-linejoin: miter; stroke-linecap: square"/>
   </g>
   <g id="patch_6">
    <path d="M 50.131306 10.8 
L 410.668694 10.8 
" style="fill: none; stroke: #000000; stroke-width: 0.8; stroke-linejoin: miter; stroke-linecap: square"/>
   </g>
  </g>
 </g>
 <defs>
  <clipPath id="p48b2a416ca">
   <rect x="50.131306" y="10.8" width="360.537387" height="279.52"/>
  </clipPath>
 </defs>
</svg>
