<?xml version="1.0" encoding="utf-8" standalone="no"?>
<!DOCTYPE svg PUBLIC "-//W3C//DTD SVG 1.1//EN"
  "http://www.w3.org/Graphics/SVG/1.1/DTD/svg11.dtd">
<svg xmlns:xlink="http://www.w3.org/1999/xlink" width="460.8pt" height="316.8pt" viewBox="0 0 460.8 316.8" xmlns="http://www.w3.org/2000/svg" version="1.1">
 <metadata>
  <rdf:RDF xmlns:dc="http://purl.org/dc/elements/1.1/" xmlns:cc="http://creativecommons.org/ns#" xmlns:rdf="http://www.w3.org/1999/02/22-rdf-syntax-ns#">
   <cc:Work>
    <dc:type rdf:resource="http://purl.org/dc/dcmitype/StillImage"/>
    <dc:date>2024-01-11T15:50:41.629154</dc:date>
    <dc:format>image/svg+xml</dc:format>
    <dc:creator>
     <cc:Agent>
      <dc:title>Matplotlib v3.7.2, https://matplotlib.org/</dc:title>
     </cc:Agent>
    </dc:creator>
   </cc:Work>
  </rdf:RDF>
 </metadata>
 <defs>
  <style type="text/css">*{stroke-linejoin: round; stroke-linecap: butt}</style>
 </defs>
 <g id="figure_1">
  <g id="patch_1">
   <path d="M 0 316.8 
L 460.8 316.8 
L 460.8 0 
L 0 0 
z
" style="fill: #ffffff"/>
  </g>
  <g id="axes_1">
   <g id="patch_2">
    <path d="M 41.070596 290.32 
L 433.47374 290.32 
L 433.47374 10.8 
L 41.070596 10.8 
z
" style="fill: #ffffff"/>
   </g>
   <g id="PatchCollection_1">
    <path d="M 184.006427 90.22041 
L 318.041416 90.22041 
L 318.041416 34.372498 
L 184.006427 34.372498 
z
" clip-path="url(#pa1746ca53a)" style="fill: #ffffff; stroke: #0000ff; stroke-width: 3"/>
    <path d="M 58.907103 76.816912 
L 162.064085 95.006271 
L 169.597404 52.282692 
L 66.440423 34.093333 
z
" clip-path="url(#pa1746ca53a)" style="fill: #ff0000; stroke: #ff0000; stroke-width: 2"/>
    <path d="M 313.573583 101.389993 
L 415.637234 77.826742 
L 405.878259 35.555979 
L 303.814608 59.119229 
z
" clip-path="url(#pa1746ca53a)" style="fill: #ff0000; stroke: #ff0000; stroke-width: 2"/>
   </g>
   <g id="PatchCollection_2">
    <path d="M 268.003913 129.970407 
L 163.255569 129.959655 
L 163.251116 173.342313 
L 267.999459 173.353065 
L 268.003913 129.970407 
z
" clip-path="url(#pa1746ca53a)" style="fill: none; stroke: #000000; stroke-width: 0.5"/>
    <path d="M 270.955037 126.703981 
L 166.282761 130.695252 
L 167.935789 174.046405 
L 272.608065 170.055135 
L 270.955037 126.703981 
z
" clip-path="url(#pa1746ca53a)" style="fill: none; stroke: #000000; stroke-width: 0.5"/>
    <path d="M 273.779066 123.326949 
L 169.335741 131.314905 
L 172.64404 174.571237 
L 277.087365 166.58328 
L 273.779066 123.326949 
z
" clip-path="url(#pa1746ca53a)" style="fill: none; stroke: #000000; stroke-width: 0.5"/>
    <path d="M 276.471994 119.844317 
L 172.410169 131.817292 
L 177.368906 174.915621 
L 281.430731 162.942646 
L 276.471994 119.844317 
z
" clip-path="url(#pa1746ca53a)" style="fill: none; stroke: #000000; stroke-width: 0.5"/>
    <path d="M 279.03023 116.262106 
L 175.501737 132.201576 
L 182.103241 175.07902 
L 285.631734 159.139549 
L 279.03023 116.262106 
z
" clip-path="url(#pa1746ca53a)" style="fill: none; stroke: #000000; stroke-width: 0.5"/>
    <path d="M 281.666816 113.045535 
L 178.708043 132.325229 
L 186.692936 174.966717 
L 289.65171 155.687023 
L 281.666816 113.045535 
z
" clip-path="url(#pa1746ca53a)" style="fill: none; stroke: #000000; stroke-width: 0.5"/>
    <path d="M 286.803599 115.439647 
L 183.183325 130.771135 
L 189.533026 173.68659 
L 293.1533 158.355103 
L 286.803599 115.439647 
z
" clip-path="url(#pa1746ca53a)" style="fill: none; stroke: #000000; stroke-width: 0.5"/>
    <path d="M 291.844774 118.027673 
L 187.71446 129.389602 
L 192.420126 172.516297 
L 296.550439 161.154367 
L 291.844774 118.027673 
z
" clip-path="url(#pa1746ca53a)" style="fill: none; stroke: #000000; stroke-width: 0.5"/>
    <path d="M 296.783848 120.807175 
L 192.295433 128.181915 
L 195.349761 171.456921 
L 299.838176 164.082181 
L 296.783848 120.807175 
z
" clip-path="url(#pa1746ca53a)" style="fill: none; stroke: #000000; stroke-width: 0.5"/>
    <path d="M 301.61305 123.77324 
L 196.919149 127.150019 
L 198.317678 170.510129 
L 303.01158 167.13335 
L 301.61305 123.77324 
z
" clip-path="url(#pa1746ca53a)" style="fill: none; stroke: #000000; stroke-width: 0.5"/>
    <path d="M 306.325247 126.921299 
L 201.578771 126.295677 
L 201.319663 169.677561 
L 306.066139 170.303183 
L 306.325247 126.921299 
z
" clip-path="url(#pa1746ca53a)" style="fill: none; stroke: #000000; stroke-width: 0.5"/>
    <path d="M 310.913794 130.247465 
L 206.26772 125.619865 
L 204.351149 168.960167 
L 308.997224 173.587767 
L 310.913794 130.247465 
z
" clip-path="url(#pa1746ca53a)" style="fill: none; stroke: #000000; stroke-width: 0.5"/>
    <path d="M 315.371754 133.745777 
L 210.97884 125.124 
L 207.408038 168.359453 
L 311.800952 176.98123 
L 315.371754 133.745777 
z
" clip-path="url(#pa1746ca53a)" style="fill: none; stroke: #000000; stroke-width: 0.5"/>
    <path d="M 319.692956 137.412735 
L 215.705723 124.808329 
L 210.485473 167.875765 
L 314.472705 180.48017 
L 319.692956 137.412735 
z
" clip-path="url(#pa1746ca53a)" style="fill: none; stroke: #000000; stroke-width: 0.5"/>
    <path d="M 323.870907 141.242034 
L 220.441239 124.673408 
L 213.579163 167.509923 
L 317.008832 184.078548 
L 323.870907 141.242034 
z
" clip-path="url(#pa1746ca53a)" style="fill: none; stroke: #000000; stroke-width: 0.5"/>
    <path d="M 327.899427 145.227326 
L 225.178186 124.719708 
L 216.684735 167.262819 
L 319.405975 187.770437 
L 327.899427 145.227326 
z
" clip-path="url(#pa1746ca53a)" style="fill: none; stroke: #000000; stroke-width: 0.5"/>
    <path d="M 331.772699 149.364396 
L 229.910086 124.946705 
L 219.797235 167.134206 
L 321.659849 191.551898 
L 331.772699 149.364396 
z
" clip-path="url(#pa1746ca53a)" style="fill: none; stroke: #000000; stroke-width: 0.5"/>
    <path d="M 335.485105 153.646425 
L 234.629898 125.354324 
L 222.912419 167.124597 
L 323.767626 195.416698 
L 335.485105 153.646425 
z
" clip-path="url(#pa1746ca53a)" style="fill: none; stroke: #000000; stroke-width: 0.5"/>
    <path d="M 339.031117 158.066586 
L 239.330304 125.942396 
L 226.025724 167.234565 
L 325.726537 199.358754 
L 339.031117 158.066586 
z
" clip-path="url(#pa1746ca53a)" style="fill: none; stroke: #000000; stroke-width: 0.5"/>
    <path d="M 342.405946 162.619542 
L 244.005432 126.709175 
L 229.132766 167.462811 
L 327.53328 203.373178 
L 342.405946 162.619542 
z
" clip-path="url(#pa1746ca53a)" style="fill: none; stroke: #000000; stroke-width: 0.5"/>
    <path d="M 345.603956 167.298258 
L 248.647463 127.654164 
L 232.228434 167.809743 
L 329.184926 207.453836 
L 345.603956 167.298258 
z
" clip-path="url(#pa1746ca53a)" style="fill: none; stroke: #000000; stroke-width: 0.5"/>
    <path d="M 348.621167 172.094835 
L 253.249876 128.775872 
L 235.30886 168.274922 
L 330.68015 211.593885 
L 348.621167 172.094835 
z
" clip-path="url(#pa1746ca53a)" style="fill: none; stroke: #000000; stroke-width: 0.5"/>
    <path d="M 351.452919 177.004193 
L 257.806526 130.072662 
L 238.369325 168.857328 
L 332.015719 215.788859 
L 351.452919 177.004193 
z
" clip-path="url(#pa1746ca53a)" style="fill: none; stroke: #000000; stroke-width: 0.5"/>
    <path d="M 354.094896 182.01804 
L 262.310178 131.542489 
L 241.405184 169.556121 
L 333.189901 220.031672 
L 354.094896 182.01804 
z
" clip-path="url(#pa1746ca53a)" style="fill: none; stroke: #000000; stroke-width: 0.5"/>
    <path d="M 356.543538 187.128372 
L 266.754017 133.183423 
L 244.412134 170.370724 
L 334.201655 224.315672 
L 356.543538 187.128372 
z
" clip-path="url(#pa1746ca53a)" style="fill: none; stroke: #000000; stroke-width: 0.5"/>
    <path d="M 358.794757 192.329291 
L 271.132082 134.992818 
L 247.385563 171.299261 
L 335.048237 228.635735 
L 358.794757 192.329291 
z
" clip-path="url(#pa1746ca53a)" style="fill: none; stroke: #000000; stroke-width: 0.5"/>
    <path d="M 360.845988 197.612436 
L 275.438199 136.968184 
L 250.321727 172.340742 
L 335.729516 232.984995 
L 360.845988 197.612436 
z
" clip-path="url(#pa1746ca53a)" style="fill: none; stroke: #000000; stroke-width: 0.5"/>
    <path d="M 362.69385 202.969327 
L 279.665055 139.106702 
L 253.215659 173.493974 
L 336.244454 237.356599 
L 362.69385 202.969327 
z
" clip-path="url(#pa1746ca53a)" style="fill: none; stroke: #000000; stroke-width: 0.5"/>
    <path d="M 364.335486 208.393731 
L 283.807562 141.405157 
L 256.06352 174.756666 
L 336.591444 241.74524 
L 364.335486 208.393731 
z
" clip-path="url(#pa1746ca53a)" style="fill: none; stroke: #000000; stroke-width: 0.5"/>
    <path d="M 365.76872 213.876846 
L 287.859285 143.860165 
L 258.861121 176.127199 
L 336.770556 246.14388 
L 365.76872 213.876846 
z
" clip-path="url(#pa1746ca53a)" style="fill: none; stroke: #000000; stroke-width: 0.5"/>
    <path d="M 366.991666 219.410006 
L 291.813785 146.468236 
L 261.604163 177.603968 
L 336.782044 250.545737 
L 366.991666 219.410006 
z
" clip-path="url(#pa1746ca53a)" style="fill: none; stroke: #000000; stroke-width: 0.5"/>
    <path d="M 368.00201 224.986684 
L 295.666187 149.225584 
L 264.288909 179.184247 
L 336.624732 254.945347 
L 368.00201 224.986684 
z
" clip-path="url(#pa1746ca53a)" style="fill: none; stroke: #000000; stroke-width: 0.5"/>
    <path d="M 368.798608 230.597705 
L 299.410495 152.127931 
L 266.911391 180.865767 
L 336.299503 259.335542 
L 368.798608 230.597705 
z
" clip-path="url(#pa1746ca53a)" style="fill: none; stroke: #000000; stroke-width: 0.5"/>
    <path d="M 369.380584 236.234507 
L 303.040719 155.171335 
L 269.467531 182.646706 
L 335.807395 263.709879 
L 369.380584 236.234507 
z
" clip-path="url(#pa1746ca53a)" style="fill: none; stroke: #000000; stroke-width: 0.5"/>
    <path d="M 368.957356 240.854215 
L 305.763419 157.31535 
L 271.164896 183.487802 
L 334.358833 267.026667 
L 368.957356 240.854215 
z
" clip-path="url(#pa1746ca53a)" style="fill: none; stroke: #000000; stroke-width: 0.5"/>
    <path d="M 364.589607 240.304546 
L 304.633898 154.412004 
L 269.060574 179.243309 
L 329.016283 265.13585 
L 364.589607 240.304546 
z
" clip-path="url(#pa1746ca53a)" style="fill: none; stroke: #000000; stroke-width: 0.5"/>
    <path d="M 360.246431 239.588004 
L 303.615641 151.467806 
L 267.119709 174.92206 
L 323.7505 263.042257 
L 360.246431 239.588004 
z
" clip-path="url(#pa1746ca53a)" style="fill: none; stroke: #000000; stroke-width: 0.5"/>
    <path d="M 355.933247 238.706514 
L 302.710948 148.486768 
L 265.345466 170.529358 
L 318.567765 260.749104 
L 355.933247 238.706514 
z
" clip-path="url(#pa1746ca53a)" style="fill: none; stroke: #000000; stroke-width: 0.5"/>
    <path d="M 351.656881 237.661065 
L 301.920809 145.473546 
L 263.740352 166.072277 
L 313.476424 258.259797 
L 351.656881 237.661065 
z
" clip-path="url(#pa1746ca53a)" style="fill: none; stroke: #000000; stroke-width: 0.5"/>
    <path d="M 347.424382 236.452202 
L 301.246241 142.432019 
L 262.306766 161.557194 
L 308.484907 255.577378 
L 347.424382 236.452202 
z
" clip-path="url(#pa1746ca53a)" style="fill: none; stroke: #000000; stroke-width: 0.5"/>
    <path d="M 343.240302 235.083218 
L 300.688461 139.367198 
L 261.046638 156.990502 
L 303.598479 252.706522 
L 343.240302 235.083218 
z
" clip-path="url(#pa1746ca53a)" style="fill: none; stroke: #000000; stroke-width: 0.5"/>
    <path d="M 339.111693 233.555354 
L 300.248304 136.2833 
L 259.962032 152.378993 
L 298.825421 249.651047 
L 339.111693 233.555354 
z
" clip-path="url(#pa1746ca53a)" style="fill: none; stroke: #000000; stroke-width: 0.5"/>
    <path d="M 335.045134 231.870325 
L 299.925972 133.184662 
L 259.054239 147.729643 
L 294.173401 246.415306 
L 335.045134 231.870325 
z
" clip-path="url(#pa1746ca53a)" style="fill: none; stroke: #000000; stroke-width: 0.5"/>
    <path d="M 331.045174 230.03148 
L 299.722507 130.075959 
L 258.324849 143.04858 
L 289.647515 243.004101 
L 331.045174 230.03148 
z
" clip-path="url(#pa1746ca53a)" style="fill: none; stroke: #000000; stroke-width: 0.5"/>
    <path d="M 327.118363 228.041255 
L 299.637941 126.96187 
L 257.774822 138.343184 
L 285.255244 239.422569 
L 327.118363 228.041255 
z
" clip-path="url(#pa1746ca53a)" style="fill: none; stroke: #000000; stroke-width: 0.5"/>
    <path d="M 323.271417 225.902132 
L 299.672357 123.846755 
L 257.40502 133.620561 
L 281.00408 235.675938 
L 323.271417 225.902132 
z
" clip-path="url(#pa1746ca53a)" style="fill: none; stroke: #000000; stroke-width: 0.5"/>
    <path d="M 319.50818 223.617762 
L 299.825962 120.735179 
L 257.216028 128.886783 
L 276.898247 231.769366 
L 319.50818 223.617762 
z
" clip-path="url(#pa1746ca53a)" style="fill: none; stroke: #000000; stroke-width: 0.5"/>
    <path d="M 315.834862 221.191594 
L 300.098232 117.632075 
L 257.207938 124.14957 
L 272.944568 227.70909 
L 315.834862 221.191594 
z
" clip-path="url(#pa1746ca53a)" style="fill: none; stroke: #000000; stroke-width: 0.5"/>
    <path d="M 312.256771 218.626557 
L 300.488715 114.541359 
L 257.380706 119.415226 
L 269.148762 223.500425 
L 312.256771 218.626557 
z
" clip-path="url(#pa1746ca53a)" style="fill: none; stroke: #000000; stroke-width: 0.5"/>
    <path d="M 308.780335 215.926586 
L 300.996996 111.467813 
L 257.734267 114.691367 
L 265.517606 219.15014 
L 308.780335 215.926586 
z
" clip-path="url(#pa1746ca53a)" style="fill: none; stroke: #000000; stroke-width: 0.5"/>
    <path d="M 305.4087 213.095767 
L 301.622488 108.415873 
L 258.268179 109.983973 
L 262.054391 214.663867 
L 305.4087 213.095767 
z
" clip-path="url(#pa1746ca53a)" style="fill: none; stroke: #000000; stroke-width: 0.5"/>
    <path d="M 302.147738 210.138352 
L 302.364182 105.390231 
L 258.981616 105.300588 
L 258.765172 210.048709 
L 302.147738 210.138352 
z
" clip-path="url(#pa1746ca53a)" style="fill: none; stroke: #000000; stroke-width: 0.5"/>
    <path d="M 299.002963 207.058453 
L 303.220701 102.395057 
L 259.873225 100.648236 
L 255.655487 205.311631 
L 299.002963 207.058453 
z
" clip-path="url(#pa1746ca53a)" style="fill: none; stroke: #000000; stroke-width: 0.5"/>
    <path d="M 295.977399 203.860718 
L 304.191318 99.434921 
L 260.942246 96.033038 
L 252.728327 200.458835 
L 295.977399 203.860718 
z
" clip-path="url(#pa1746ca53a)" style="fill: none; stroke: #000000; stroke-width: 0.5"/>
    <path d="M 293.076193 200.549587 
L 305.274296 96.513911 
L 262.186797 91.461935 
L 249.988694 195.497611 
L 293.076193 200.549587 
z
" clip-path="url(#pa1746ca53a)" style="fill: none; stroke: #000000; stroke-width: 0.5"/>
    <path d="M 290.304321 197.130013 
L 306.467757 93.63625 
L 263.604697 86.941989 
L 247.441262 190.435752 
L 290.304321 197.130013 
z
" clip-path="url(#pa1746ca53a)" style="fill: none; stroke: #000000; stroke-width: 0.5"/>
    <path d="M 287.066334 200.451156 
L 306.458619 97.51353 
L 263.825889 89.482006 
L 244.433604 192.419632 
L 287.066334 200.451156 
z
" clip-path="url(#pa1746ca53a)" style="fill: none; stroke: #000000; stroke-width: 0.5"/>
    <path d="M 283.7262 203.669496 
L 306.328363 101.388717 
L 263.967673 92.027787 
L 241.36551 194.308566 
L 283.7262 203.669496 
z
" clip-path="url(#pa1746ca53a)" style="fill: none; stroke: #000000; stroke-width: 0.5"/>
    <path d="M 280.287661 206.781567 
L 306.076574 105.257443 
L 264.029261 94.576687 
L 238.240349 196.10081 
L 280.287661 206.781567 
z
" clip-path="url(#pa1746ca53a)" style="fill: none; stroke: #000000; stroke-width: 0.5"/>
    <path d="M 276.752754 209.784668 
L 305.704208 109.116754 
L 264.011504 97.126197 
L 235.06005 197.794111 
L 276.752754 209.784668 
z
" clip-path="url(#pa1746ca53a)" style="fill: none; stroke: #000000; stroke-width: 0.5"/>
    <path d="M 273.125671 212.675898 
L 305.211341 112.962682 
L 263.914035 99.674055 
L 231.828365 199.387271 
L 273.125671 212.675898 
z
" clip-path="url(#pa1746ca53a)" style="fill: none; stroke: #000000; stroke-width: 0.5"/>
    <path d="M 269.409956 215.452241 
L 304.598451 116.791279 
L 263.736948 102.217584 
L 228.548453 200.878546 
L 269.409956 215.452241 
z
" clip-path="url(#pa1746ca53a)" style="fill: none; stroke: #000000; stroke-width: 0.5"/>
    <path d="M 265.609151 218.110769 
L 303.866045 120.598586 
L 263.480321 104.754081 
L 225.223428 202.266263 
L 265.609151 218.110769 
z
" clip-path="url(#pa1746ca53a)" style="fill: none; stroke: #000000; stroke-width: 0.5"/>
    <path d="M 261.728095 220.649657 
L 303.014995 124.381244 
L 263.144391 107.281828 
L 221.857491 203.550242 
L 261.728095 220.649657 
z
" clip-path="url(#pa1746ca53a)" style="fill: none; stroke: #000000; stroke-width: 0.5"/>
    <path d="M 257.76859 223.065458 
L 302.046078 128.13538 
L 262.729761 109.79738 
L 218.452273 204.727458 
L 257.76859 223.065458 
z
" clip-path="url(#pa1746ca53a)" style="fill: none; stroke: #000000; stroke-width: 0.5"/>
    <path d="M 253.735456 225.356486 
L 300.960213 131.85762 
L 262.236647 112.298977 
L 215.01189 205.797843 
L 253.735456 225.356486 
z
" clip-path="url(#pa1746ca53a)" style="fill: none; stroke: #000000; stroke-width: 0.5"/>
    <path d="M 249.632635 227.520139 
L 299.758458 135.543961 
L 261.66553 114.783809 
L 211.539707 206.759988 
L 249.632635 227.520139 
z
" clip-path="url(#pa1746ca53a)" style="fill: none; stroke: #000000; stroke-width: 0.5"/>
    <path d="M 245.464886 229.554582 
L 298.441831 139.190546 
L 261.016589 117.249572 
L 208.039644 207.613608 
L 245.464886 229.554582 
z
" clip-path="url(#pa1746ca53a)" style="fill: none; stroke: #000000; stroke-width: 0.5"/>
    <path d="M 241.234884 231.457594 
L 297.01204 142.794611 
L 260.291308 119.6939 
L 204.514152 208.356882 
L 241.234884 231.457594 
z
" clip-path="url(#pa1746ca53a)" style="fill: none; stroke: #000000; stroke-width: 0.5"/>
    <path d="M 236.947517 233.227309 
L 295.47014 146.352006 
L 259.489795 122.114229 
L 200.967172 208.989532 
L 236.947517 233.227309 
z
" clip-path="url(#pa1746ca53a)" style="fill: none; stroke: #000000; stroke-width: 0.5"/>
    <path d="M 232.607224 234.862322 
L 293.81798 149.859622 
L 258.613194 124.508526 
L 197.402437 209.511226 
L 232.607224 234.862322 
z
" clip-path="url(#pa1746ca53a)" style="fill: none; stroke: #000000; stroke-width: 0.5"/>
    <path d="M 228.217447 236.360593 
L 292.056545 153.313707 
L 257.66178 126.874055 
L 193.822682 209.920941 
L 228.217447 236.360593 
z
" clip-path="url(#pa1746ca53a)" style="fill: none; stroke: #000000; stroke-width: 0.5"/>
    <path d="M 223.783262 237.720956 
L 290.188171 156.711057 
L 256.637047 129.208747 
L 190.232137 210.218645 
L 223.783262 237.720956 
z
" clip-path="url(#pa1746ca53a)" style="fill: none; stroke: #000000; stroke-width: 0.5"/>
    <path d="M 219.308723 238.941961 
L 288.214567 160.048359 
L 255.53993 131.51026 
L 186.634086 210.403861 
L 219.308723 238.941961 
z
" clip-path="url(#pa1746ca53a)" style="fill: none; stroke: #000000; stroke-width: 0.5"/>
    <path d="M 214.798165 240.022379 
L 286.137461 163.32218 
L 254.371245 133.77624 
L 183.031949 210.476439 
L 214.798165 240.022379 
z
" clip-path="url(#pa1746ca53a)" style="fill: none; stroke: #000000; stroke-width: 0.5"/>
    <path d="M 210.255796 240.961347 
L 283.958836 166.52965 
L 253.132145 136.00474 
L 179.429105 210.436437 
L 210.255796 240.961347 
z
" clip-path="url(#pa1746ca53a)" style="fill: none; stroke: #000000; stroke-width: 0.5"/>
    <path d="M 205.686539 241.75757 
L 281.681152 169.667111 
L 251.82411 138.193121 
L 175.829496 210.28358 
L 205.686539 241.75757 
z
" clip-path="url(#pa1746ca53a)" style="fill: none; stroke: #000000; stroke-width: 0.5"/>
    <path d="M 201.094527 242.410768 
L 279.306449 172.732141 
L 250.448293 140.339829 
L 172.236371 210.018456 
L 201.094527 242.410768 
z
" clip-path="url(#pa1746ca53a)" style="fill: none; stroke: #000000; stroke-width: 0.5"/>
    <path d="M 196.484369 242.919795 
L 276.837021 175.721083 
L 249.005948 142.442164 
L 168.653296 209.640876 
L 196.484369 242.919795 
z
" clip-path="url(#pa1746ca53a)" style="fill: none; stroke: #000000; stroke-width: 0.5"/>
    <path d="M 191.86056 243.284725 
L 274.275408 178.631742 
L 247.498677 144.498742 
L 165.083828 209.151725 
L 191.86056 243.284725 
z
" clip-path="url(#pa1746ca53a)" style="fill: none; stroke: #000000; stroke-width: 0.5"/>
    <path d="M 187.227606 243.50456 
L 271.623969 181.460466 
L 245.927737 146.5068 
L 161.531374 208.550894 
L 187.227606 243.50456 
z
" clip-path="url(#pa1746ca53a)" style="fill: none; stroke: #000000; stroke-width: 0.5"/>
    <path d="M 182.589913 243.579495 
L 268.885294 184.205067 
L 244.294734 148.464903 
L 157.999352 207.839331 
L 182.589913 243.579495 
z
" clip-path="url(#pa1746ca53a)" style="fill: none; stroke: #000000; stroke-width: 0.5"/>
    <path d="M 177.952323 243.509567 
L 266.06225 186.862798 
L 242.601379 150.37112 
L 154.491452 207.017888 
L 177.952323 243.509567 
z
" clip-path="url(#pa1746ca53a)" style="fill: none; stroke: #000000; stroke-width: 0.5"/>
    <path d="M 173.31914 243.294419 
L 263.15748 189.43081 
L 240.849285 152.223292 
L 151.010945 206.0869 
L 173.31914 243.294419 
z
" clip-path="url(#pa1746ca53a)" style="fill: none; stroke: #000000; stroke-width: 0.5"/>
    <path d="M 168.694868 242.934665 
L 260.173687 191.906816 
L 239.039952 154.019875 
L 147.561133 205.047724 
L 168.694868 242.934665 
z
" clip-path="url(#pa1746ca53a)" style="fill: none; stroke: #000000; stroke-width: 0.5"/>
    <path d="M 164.084149 242.430285 
L 257.114013 194.288203 
L 237.175449 155.75888 
L 144.145586 203.900962 
L 164.084149 242.430285 
z
" clip-path="url(#pa1746ca53a)" style="fill: none; stroke: #000000; stroke-width: 0.5"/>
    <path d="M 159.491527 241.78195 
L 253.981431 196.572729 
L 235.257544 157.438715 
L 140.76764 202.647936 
L 159.491527 241.78195 
z
" clip-path="url(#pa1746ca53a)" style="fill: none; stroke: #000000; stroke-width: 0.5"/>
    <path d="M 154.921254 240.990393 
L 250.778722 198.758162 
L 233.287787 159.057756 
L 137.430319 201.289987 
L 154.921254 240.990393 
z
" clip-path="url(#pa1746ca53a)" style="fill: none; stroke: #000000; stroke-width: 0.5"/>
    <path d="M 150.378021 240.05642 
L 247.509329 200.842586 
L 231.268496 160.614606 
L 134.137189 199.82844 
L 150.378021 240.05642 
z
" clip-path="url(#pa1746ca53a)" style="fill: none; stroke: #000000; stroke-width: 0.5"/>
    <path d="M 145.866451 238.980714 
L 244.176544 202.82354 
L 229.201659 162.107353 
L 130.891566 198.264528 
L 145.866451 238.980714 
z
" clip-path="url(#pa1746ca53a)" style="fill: none; stroke: #000000; stroke-width: 0.5"/>
    <path d="M 141.390442 237.764401 
L 240.783189 204.699353 
L 227.088942 163.534773 
L 127.696195 196.599821 
L 141.390442 237.764401 
z
" clip-path="url(#pa1746ca53a)" style="fill: none; stroke: #000000; stroke-width: 0.5"/>
    <path d="M 136.954694 236.408713 
L 237.332837 206.468037 
L 224.932582 164.895345 
L 124.554439 194.836021 
L 136.954694 236.408713 
z
" clip-path="url(#pa1746ca53a)" style="fill: none; stroke: #000000; stroke-width: 0.5"/>
    <path d="M 134.838893 234.298746 
L 236.104271 207.511831 
L 225.01018 165.571681 
L 123.744802 192.358596 
L 134.838893 234.298746 
z
" clip-path="url(#pa1746ca53a)" style="fill: none; stroke: #000000; stroke-width: 0.5"/>
    <path d="M 136.600159 231.155696 
L 238.653688 207.548642 
L 228.876571 165.282071 
L 126.823043 188.889124 
L 136.600159 231.155696 
z
" clip-path="url(#pa1746ca53a)" style="fill: none; stroke: #000000; stroke-width: 0.5"/>
    <path d="M 138.45877 228.069213 
L 241.200644 207.665215 
L 232.750108 165.113559 
L 130.008235 185.517556 
L 138.45877 228.069213 
z
" clip-path="url(#pa1746ca53a)" style="fill: none; stroke: #000000; stroke-width: 0.5"/>
    <path d="M 140.413088 225.042496 
L 243.742784 207.861412 
L 236.627052 165.066302 
L 133.297356 182.247387 
L 140.413088 225.042496 
z
" clip-path="url(#pa1746ca53a)" style="fill: none; stroke: #000000; stroke-width: 0.5"/>
    <path d="M 142.461026 222.078245 
L 246.277484 208.136983 
L 240.50356 165.140276 
L 136.687102 179.081537 
L 142.461026 222.078245 
z
" clip-path="url(#pa1746ca53a)" style="fill: none; stroke: #000000; stroke-width: 0.5"/>
    <path d="M 144.600786 219.179507 
L 248.802438 208.491602 
L 244.375927 165.335362 
L 140.174275 176.023267 
L 144.600786 219.179507 
z
" clip-path="url(#pa1746ca53a)" style="fill: none; stroke: #000000; stroke-width: 0.5"/>
    <path d="M 146.830145 216.349059 
L 251.315071 208.925048 
L 248.240336 165.651488 
L 143.755411 173.075498 
L 146.830145 216.349059 
z
" clip-path="url(#pa1746ca53a)" style="fill: none; stroke: #000000; stroke-width: 0.5"/>
    <path d="M 149.146892 213.589715 
L 253.81288 209.43683 
L 252.092918 166.08828 
L 147.426929 170.241165 
L 149.146892 213.589715 
z
" clip-path="url(#pa1746ca53a)" style="fill: none; stroke: #000000; stroke-width: 0.5"/>
    <path d="M 151.548695 210.904205 
L 256.293362 210.026507 
L 255.929854 166.645372 
L 151.185187 167.52307 
L 151.548695 210.904205 
z
" clip-path="url(#pa1746ca53a)" style="fill: none; stroke: #000000; stroke-width: 0.5"/>
    <path d="M 154.033375 208.295303 
L 258.754259 210.693653 
L 259.747561 167.322367 
L 155.026677 164.924018 
L 154.033375 208.295303 
z
" clip-path="url(#pa1746ca53a)" style="fill: none; stroke: #000000; stroke-width: 0.5"/>
    <path d="M 156.598449 205.76514 
L 261.193112 211.437189 
L 263.542253 168.11818 
L 158.94759 162.44613 
L 156.598449 205.76514 
z
" clip-path="url(#pa1746ca53a)" style="fill: none; stroke: #000000; stroke-width: 0.5"/>
    <path d="M 159.241354 203.316521 
L 263.60748 212.256733 
L 267.310166 169.032375 
L 162.94404 160.092163 
L 159.241354 203.316521 
z
" clip-path="url(#pa1746ca53a)" style="fill: none; stroke: #000000; stroke-width: 0.5"/>
    <path d="M 160.605023 200.79748 
L 264.64052 212.997109 
L 269.693128 169.909684 
L 165.657631 157.710055 
L 160.605023 200.79748 
z
" clip-path="url(#pa1746ca53a)" style="fill: none; stroke: #000000; stroke-width: 0.5"/>
    <path d="M 157.162507 197.688848 
L 260.765616 213.135898 
L 267.163179 170.227551 
L 163.56007 154.780501 
L 157.162507 197.688848 
z
" clip-path="url(#pa1746ca53a)" style="fill: none; stroke: #000000; stroke-width: 0.5"/>
    <path d="M 153.819121 194.474084 
L 256.888482 213.153549 
L 264.624784 170.466259 
L 161.555423 151.786795 
L 153.819121 194.474084 
z
" clip-path="url(#pa1746ca53a)" style="fill: none; stroke: #000000; stroke-width: 0.5"/>
    <path d="M 150.577797 191.156452 
L 253.012606 213.049956 
L 262.080037 170.625473 
L 159.645228 148.731969 
L 150.577797 191.156452 
z
" clip-path="url(#pa1746ca53a)" style="fill: none; stroke: #000000; stroke-width: 0.5"/>
    <path d="M 147.44203 187.739098 
L 249.142063 212.825327 
L 259.531795 170.70516 
L 157.831762 145.618931 
L 147.44203 187.739098 
z
" clip-path="url(#pa1746ca53a)" style="fill: none; stroke: #000000; stroke-width: 0.5"/>
    <path d="M 144.414351 184.225296 
L 245.28015 212.479609 
L 256.981979 170.704949 
L 156.116179 142.450636 
L 144.414351 184.225296 
z
" clip-path="url(#pa1746ca53a)" style="fill: none; stroke: #000000; stroke-width: 0.5"/>
    <path d="M 141.498323 180.61842 
L 241.431192 212.013279 
L 254.433712 170.625002 
L 154.500843 139.230142 
L 141.498323 180.61842 
z
" clip-path="url(#pa1746ca53a)" style="fill: none; stroke: #000000; stroke-width: 0.5"/>
    <path d="M 138.696308 176.922102 
L 237.598491 211.426796 
L 251.888983 170.465389 
L 152.9868 135.960695 
L 138.696308 176.922102 
z
" clip-path="url(#pa1746ca53a)" style="fill: none; stroke: #000000; stroke-width: 0.5"/>
    <path d="M 136.011247 173.140195 
L 233.78603 210.720872 
L 249.350474 170.22639 
L 151.57569 132.645712 
L 136.011247 173.140195 
z
" clip-path="url(#pa1746ca53a)" style="fill: none; stroke: #000000; stroke-width: 0.5"/>
    <path d="M 128.297645 177.235128 
L 228.638464 207.300651 
L 241.090425 165.743417 
L 140.749606 135.677894 
L 128.297645 177.235128 
z
" clip-path="url(#pa1746ca53a)" style="fill: none; stroke: #000000; stroke-width: 0.5"/>
    <path d="M 120.916513 181.902767 
L 223.246665 204.280336 
L 232.514577 161.899198 
L 130.184425 139.521629 
L 120.916513 181.902767 
z
" clip-path="url(#pa1746ca53a)" style="fill: none; stroke: #000000; stroke-width: 0.5"/>
    <path d="M 113.910003 187.116033 
L 217.641352 201.677035 
L 223.671948 158.715576 
L 119.940599 144.154575 
L 113.910003 187.116033 
z
" clip-path="url(#pa1746ca53a)" style="fill: none; stroke: #000000; stroke-width: 0.5"/>
    <path d="M 107.318647 192.845261 
L 211.855004 199.506027 
L 214.613632 156.211166 
L 110.077275 149.5504 
L 107.318647 192.845261 
z
" clip-path="url(#pa1746ca53a)" style="fill: none; stroke: #000000; stroke-width: 0.5"/>
    <path d="M 101.180264 199.05736 
L 205.920815 197.779588 
L 205.391612 154.400158 
L 100.651061 155.67793 
L 101.180264 199.05736 
z
" clip-path="url(#pa1746ca53a)" style="fill: none; stroke: #000000; stroke-width: 0.5"/>
    <path d="M 95.530141 205.716601 
L 199.872896 196.507635 
L 196.058903 153.292955 
L 91.716148 162.501922 
L 95.530141 205.716601 
z
" clip-path="url(#pa1746ca53a)" style="fill: none; stroke: #000000; stroke-width: 0.5"/>
    <path d="M 90.400741 212.784687 
L 193.745994 195.697433 
L 186.669123 152.89588 
L 83.32387 169.983134 
L 90.400741 212.784687 
z
" clip-path="url(#pa1746ca53a)" style="fill: none; stroke: #000000; stroke-width: 0.5"/>
    <path d="M 85.821538 220.221101 
L 187.575321 195.353789 
L 177.276255 153.21136 
L 75.522472 178.078672 
L 85.821538 220.221101 
z
" clip-path="url(#pa1746ca53a)" style="fill: none; stroke: #000000; stroke-width: 0.5"/>
    <path d="M 84.546022 227.114193 
L 184.123512 194.609745 
L 170.661444 153.368652 
L 71.083953 185.873099 
L 84.546022 227.114193 
z
" clip-path="url(#pa1746ca53a)" style="fill: none; stroke: #000000; stroke-width: 0.5"/>
    <path d="M 95.442844 229.881438 
L 192.271726 189.926672 
L 175.724028 149.823945 
L 78.895146 189.77871 
L 95.442844 229.881438 
z
" clip-path="url(#pa1746ca53a)" style="fill: none; stroke: #000000; stroke-width: 0.5"/>
    <path d="M 106.51804 231.815169 
L 200.041796 184.639723 
L 180.503575 145.905849 
L 86.97982 193.081295 
L 106.51804 231.815169 
z
" clip-path="url(#pa1746ca53a)" style="fill: none; stroke: #000000; stroke-width: 0.5"/>
    <path d="M 117.707909 232.904359 
L 207.389017 178.77937 
L 184.972568 141.63697 
L 95.29146 195.761959 
L 117.707909 232.904359 
z
" clip-path="url(#pa1746ca53a)" style="fill: none; stroke: #000000; stroke-width: 0.5"/>
    <path d="M 128.948134 233.142776 
L 214.271159 172.379324 
L 189.105319 137.041872 
L 103.782294 197.805324 
L 128.948134 233.142776 
z
" clip-path="url(#pa1746ca53a)" style="fill: none; stroke: #000000; stroke-width: 0.5"/>
    <path d="M 140.174117 232.528914 
L 220.648669 165.476233 
L 192.878077 132.146828 
L 112.403525 199.199509 
L 140.174117 232.528914 
z
" clip-path="url(#pa1746ca53a)" style="fill: none; stroke: #000000; stroke-width: 0.5"/>
    <path d="M 151.321259 231.066321 
L 226.48489 158.109867 
L 196.269187 126.980037 
L 121.105556 199.936491 
L 151.321259 231.066321 
z
" clip-path="url(#pa1746ca53a)" style="fill: none; stroke: #000000; stroke-width: 0.5"/>
    <path d="M 162.325632 228.763468 
L 231.746277 150.322473 
L 199.259091 121.571163 
L 129.838447 200.012158 
L 162.325632 228.763468 
z
" clip-path="url(#pa1746ca53a)" style="fill: none; stroke: #000000; stroke-width: 0.5"/>
    <path d="M 173.12399 225.633585 
L 236.402657 142.158883 
L 201.830707 115.95134 
L 138.55204 199.426042 
L 173.12399 225.633585 
z
" clip-path="url(#pa1746ca53a)" style="fill: none; stroke: #000000; stroke-width: 0.5"/>
    <path d="M 183.654199 221.694516 
L 240.427199 133.665872 
L 203.969186 110.152721 
L 147.196185 198.181364 
L 183.654199 221.694516 
z
" clip-path="url(#pa1746ca53a)" style="fill: none; stroke: #000000; stroke-width: 0.5"/>
    <path d="M 193.855805 216.969245 
L 243.796655 124.8925 
L 205.662076 104.208957 
L 155.721226 196.285703 
L 193.855805 216.969245 
z
" clip-path="url(#pa1746ca53a)" style="fill: none; stroke: #000000; stroke-width: 0.5"/>
    <path d="M 203.670053 211.484683 
L 246.491897 115.889153 
L 206.899975 98.154024 
L 164.078131 193.749554 
L 203.670053 211.484683 
z
" clip-path="url(#pa1746ca53a)" style="fill: none; stroke: #000000; stroke-width: 0.5"/>
    <path d="M 213.040451 205.272232 
L 248.497174 106.707347 
L 207.675462 92.022563 
L 172.21874 190.587447 
L 213.040451 205.272232 
z
" clip-path="url(#pa1746ca53a)" style="fill: none; stroke: #000000; stroke-width: 0.5"/>
    <path d="M 210.683662 197.534284 
L 251.907979 101.239053 
L 212.026269 84.165557 
L 170.801953 180.460788 
L 210.683662 197.534284 
z
" clip-path="url(#pa1746ca53a)" style="fill: none; stroke: #000000; stroke-width: 0.5"/>
    <path d="M 207.487743 189.4069 
L 255.888664 96.51144 
L 217.415006 76.465676 
L 169.014085 169.361136 
L 207.487743 189.4069 
z
" clip-path="url(#pa1746ca53a)" style="fill: none; stroke: #000000; stroke-width: 0.5"/>
    <path d="M 204.916565 181.060756 
L 260.215909 92.098977 
L 223.371427 69.196156 
L 168.072083 158.157935 
L 204.916565 181.060756 
z
" clip-path="url(#pa1746ca53a)" style="fill: none; stroke: #000000; stroke-width: 0.5"/>
    <path d="M 202.984836 172.543676 
L 264.865112 88.027127 
L 229.86167 62.398742 
L 167.981394 146.915291 
L 202.984836 172.543676 
z
" clip-path="url(#pa1746ca53a)" style="fill: none; stroke: #000000; stroke-width: 0.5"/>
    <path d="M 201.704256 163.904852 
L 269.809455 84.319065 
L 236.848142 56.112561 
L 168.742943 135.698348 
L 201.704256 163.904852 
z
" clip-path="url(#pa1746ca53a)" style="fill: none; stroke: #000000; stroke-width: 0.5"/>
    <path d="M 201.081574 155.19385 
L 275.020267 80.996239 
L 244.290525 50.373731 
L 170.351832 124.571342 
L 201.081574 155.19385 
z
" clip-path="url(#pa1746ca53a)" style="fill: none; stroke: #000000; stroke-width: 0.5"/>
    <path d="M 201.120825 146.460714 
L 280.468052 78.077725 
L 252.146499 45.215214 
L 172.799272 113.598202 
L 201.120825 146.460714 
z
" clip-path="url(#pa1746ca53a)" style="fill: none; stroke: #000000; stroke-width: 0.5"/>
    <path d="M 201.821462 137.755628 
L 286.121182 75.580288 
L 260.370594 40.666649 
L 176.070874 102.841988 
L 201.821462 137.755628 
z
" clip-path="url(#pa1746ca53a)" style="fill: none; stroke: #000000; stroke-width: 0.5"/>
    <path d="M 203.179521 129.128673 
L 291.947227 73.518331 
L 268.915603 36.754227 
L 180.147898 92.364569 
L 203.179521 129.128673 
z
" clip-path="url(#pa1746ca53a)" style="fill: none; stroke: #000000; stroke-width: 0.5"/>
    <path d="M 198.771674 128.87563 
L 289.155481 75.932424 
L 267.22848 38.498994 
L 176.844673 91.4422 
L 198.771674 128.87563 
z
" clip-path="url(#pa1746ca53a)" style="fill: none; stroke: #000000; stroke-width: 0.5"/>
    <path d="M 194.373507 128.491382 
L 286.293253 78.262148 
L 265.490272 40.192592 
L 173.570527 90.421827 
L 194.373507 128.491382 
z
" clip-path="url(#pa1746ca53a)" style="fill: none; stroke: #000000; stroke-width: 0.5"/>
    <path d="M 189.988501 127.976426 
L 283.362763 80.505774 
L 263.70228 41.833815 
L 170.328018 89.304467 
L 189.988501 127.976426 
z
" clip-path="url(#pa1746ca53a)" style="fill: none; stroke: #000000; stroke-width: 0.5"/>
    <path d="M 189.361686 125.520116 
L 284.107657 80.850029 
L 265.607058 41.609962 
L 170.861087 86.280049 
L 189.361686 125.520116 
z
" clip-path="url(#pa1746ca53a)" style="fill: none; stroke: #000000; stroke-width: 0.5"/>
    <path d="M 190.466489 122.27341 
L 286.500236 80.443575 
L 269.175958 40.670161 
L 173.142211 82.499996 
L 190.466489 122.27341 
z
" clip-path="url(#pa1746ca53a)" style="fill: none; stroke: #000000; stroke-width: 0.5"/>
    <path d="M 191.667665 119.061177 
L 288.904028 80.108574 
L 272.771387 39.837084 
L 175.535024 78.789687 
L 191.667665 119.061177 
z
" clip-path="url(#pa1746ca53a)" style="fill: none; stroke: #000000; stroke-width: 0.5"/>
    <path d="M 192.963812 115.885819 
L 291.316646 79.845069 
L 276.38998 39.111181 
L 178.037146 75.15193 
L 192.963812 115.885819 
z
" clip-path="url(#pa1746ca53a)" style="fill: none; stroke: #000000; stroke-width: 0.5"/>
    <path d="M 194.353899 112.75086 
L 293.735995 79.65381 
L 280.028494 38.493642 
L 180.646398 71.590692 
L 194.353899 112.75086 
z
" clip-path="url(#pa1746ca53a)" style="fill: none; stroke: #000000; stroke-width: 0.5"/>
    <path d="M 195.83687 109.658283 
L 296.160174 79.534367 
L 283.684028 37.984387 
L 183.360724 68.108303 
L 195.83687 109.658283 
z
" clip-path="url(#pa1746ca53a)" style="fill: none; stroke: #000000; stroke-width: 0.5"/>
    <path d="M 197.411126 106.611516 
L 298.586688 79.487333 
L 287.352915 37.584381 
L 186.177353 64.708564 
L 197.411126 106.611516 
z
" clip-path="url(#pa1746ca53a)" style="fill: none; stroke: #000000; stroke-width: 0.5"/>
    <path d="M 199.075279 103.61283 
L 301.013451 79.512524 
L 291.032048 37.293729 
L 189.093877 61.394035 
L 199.075279 103.61283 
z
" clip-path="url(#pa1746ca53a)" style="fill: none; stroke: #000000; stroke-width: 0.5"/>
    <path d="M 200.828275 100.665059 
L 303.438681 79.609887 
L 294.718454 37.112679 
L 192.108048 58.167851 
L 200.828275 100.665059 
z
" clip-path="url(#pa1746ca53a)" style="fill: none; stroke: #000000; stroke-width: 0.5"/>
    <path d="M 202.667945 97.770534 
L 305.859659 79.779262 
L 298.408379 37.041299 
L 195.216666 55.032571 
L 202.667945 97.770534 
z
" clip-path="url(#pa1746ca53a)" style="fill: none; stroke: #000000; stroke-width: 0.5"/>
    <path d="M 199.203558 95.782383 
L 302.885099 80.870854 
L 296.709328 37.930024 
L 193.027787 52.841553 
L 199.203558 95.782383 
z
" clip-path="url(#pa1746ca53a)" style="fill: none; stroke: #000000; stroke-width: 0.5"/>
    <path d="M 195.275737 93.766311 
L 299.355223 81.947845 
L 294.460478 38.842201 
L 190.380992 50.660667 
L 195.275737 93.766311 
z
" clip-path="url(#pa1746ca53a)" style="fill: none; stroke: #000000; stroke-width: 0.5"/>
    <path d="M 197.258572 91.183703 
L 301.630506 82.31156 
L 297.956013 39.084796 
L 193.584078 47.956939 
L 197.258572 91.183703 
z
" clip-path="url(#pa1746ca53a)" style="fill: none; stroke: #000000; stroke-width: 0.5"/>
    <path d="M 199.313724 88.658092 
L 303.894719 82.739393 
L 301.443426 39.426044 
L 196.862431 45.344743 
L 199.313724 88.658092 
z
" clip-path="url(#pa1746ca53a)" style="fill: none; stroke: #000000; stroke-width: 0.5"/>
    <path d="M 198.116419 86.312894 
L 302.822917 83.352356 
L 301.596779 39.987029 
L 196.89028 42.947566 
L 198.116419 86.312894 
z
" clip-path="url(#pa1746ca53a)" style="fill: none; stroke: #000000; stroke-width: 0.5"/>
    <path d="M 194.628699 83.987783 
L 299.377044 83.987783 
L 299.377044 40.605125 
L 194.628699 40.605125 
L 194.628699 83.987783 
z
" clip-path="url(#pa1746ca53a)" style="fill: none; stroke: #000000; stroke-width: 0.5"/>
   </g>
   <g id="PatchCollection_3">
    <path d="M 156.64095 151.650305 
L 161.667434 149.975383 
L 161.667319 151.092342 
L 184.006484 151.094635 
L 184.006369 152.211593 
L 161.667204 152.2093 
L 161.66709 153.326258 
z
" clip-path="url(#pa1746ca53a)" style="fill: #ff0000; stroke: #ff0000; stroke-width: 0.24"/>
    <path d="M 160.501684 152.622783 
L 165.460506 150.757043 
L 165.503066 151.87319 
L 187.826009 151.021991 
L 187.868568 152.138138 
L 165.545626 152.989337 
L 165.588186 154.105484 
z
" clip-path="url(#pa1746ca53a)" style="fill: #ff0000; stroke: #ff0000; stroke-width: 0.24"/>
    <path d="M 164.396752 153.447322 
L 169.280662 151.393465 
L 169.36584 152.50717 
L 191.639955 150.803618 
L 191.725132 151.917324 
L 169.451017 153.620876 
L 169.536195 154.734582 
z
" clip-path="url(#pa1746ca53a)" style="fill: #ff0000; stroke: #ff0000; stroke-width: 0.24"/>
    <path d="M 168.320482 154.122269 
L 173.122346 151.883293 
L 173.250016 152.992931 
L 195.442771 150.439513 
L 195.570442 151.549151 
L 173.377687 154.102568 
L 173.505358 155.212206 
z
" clip-path="url(#pa1746ca53a)" style="fill: #ff0000; stroke: #ff0000; stroke-width: 0.24"/>
    <path d="M 172.267101 154.646501 
L 176.979929 152.225725 
L 177.149896 153.329676 
L 199.228909 149.930343 
L 199.398876 151.034294 
L 177.319863 154.433626 
L 177.489829 155.537577 
z
" clip-path="url(#pa1746ca53a)" style="fill: #ff0000; stroke: #ff0000; stroke-width: 0.24"/>
    <path d="M 176.201066 154.863032 
L 180.83313 152.291089 
L 181.038714 153.388965 
L 202.996226 149.277279 
L 203.20181 150.375155 
L 181.244298 154.48684 
L 181.449883 155.584716 
z
" clip-path="url(#pa1746ca53a)" style="fill: #ff0000; stroke: #ff0000; stroke-width: 0.24"/>
    <path d="M 179.816994 153.196685 
L 184.543951 150.803615 
L 184.707434 151.908544 
L 206.806021 148.638873 
L 206.969505 149.743803 
L 184.870918 153.013474 
L 185.034401 154.118403 
z
" clip-path="url(#pa1746ca53a)" style="fill: #ff0000; stroke: #ff0000; stroke-width: 0.24"/>
    <path d="M 183.493914 151.670188 
L 188.308838 149.459438 
L 188.429993 150.569806 
L 210.637353 148.146703 
L 210.758508 149.257071 
L 188.551148 151.680174 
L 188.672303 152.790542 
z
" clip-path="url(#pa1746ca53a)" style="fill: #ff0000; stroke: #ff0000; stroke-width: 0.24"/>
    <path d="M 187.226613 150.284959 
L 192.122494 148.259805 
L 192.201133 149.373992 
L 214.484864 147.801217 
L 214.563502 148.915404 
L 192.279771 150.488178 
L 192.35841 151.602365 
z
" clip-path="url(#pa1746ca53a)" style="fill: #ff0000; stroke: #ff0000; stroke-width: 0.24"/>
    <path d="M 191.009457 149.043238 
L 195.979146 147.206638 
L 196.015153 148.323016 
L 218.342708 147.602867 
L 218.378715 148.719245 
L 196.051161 149.439394 
L 196.087168 150.555771 
z
" clip-path="url(#pa1746ca53a)" style="fill: #ff0000; stroke: #ff0000; stroke-width: 0.24"/>
    <path d="M 194.836942 147.947126 
L 199.873171 146.301738 
L 199.8665 147.418677 
L 222.205266 147.5521 
L 222.198595 148.669038 
L 199.859829 148.535615 
L 199.853157 149.652553 
z
" clip-path="url(#pa1746ca53a)" style="fill: #ff0000; stroke: #ff0000; stroke-width: 0.24"/>
    <path d="M 198.703497 146.997892 
L 203.79892 145.546144 
L 203.749575 146.662011 
L 226.066929 147.648917 
L 226.017584 148.764785 
L 203.700229 147.777879 
L 203.650884 148.893747 
z
" clip-path="url(#pa1746ca53a)" style="fill: #ff0000; stroke: #ff0000; stroke-width: 0.24"/>
    <path d="M 202.603483 146.197464 
L 207.750644 144.941425 
L 207.658708 146.054593 
L 229.922072 147.893317 
L 229.830136 149.006485 
L 207.566772 147.167761 
L 207.474836 148.280929 
z
" clip-path="url(#pa1746ca53a)" style="fill: #ff0000; stroke: #ff0000; stroke-width: 0.24"/>
    <path d="M 206.531251 145.546375 
L 211.722648 144.48793 
L 211.588244 145.596772 
L 233.76509 148.284852 
L 233.630686 149.393694 
L 211.45384 146.705614 
L 211.319436 147.814456 
z
" clip-path="url(#pa1746ca53a)" style="fill: #ff0000; stroke: #ff0000; stroke-width: 0.24"/>
    <path d="M 210.481051 145.045747 
L 215.709101 144.186441 
L 215.532425 145.289338 
L 237.590362 148.822847 
L 237.413687 149.925744 
L 215.35575 146.392235 
L 215.179074 147.495132 
z
" clip-path="url(#pa1746ca53a)" style="fill: #ff0000; stroke: #ff0000; stroke-width: 0.24"/>
    <path d="M 214.447032 144.69669 
L 219.704091 144.037727 
L 219.485413 145.13307 
L 241.392267 149.506629 
L 241.173589 150.601971 
L 219.266735 146.228412 
L 219.048057 147.323755 
z
" clip-path="url(#pa1746ca53a)" style="fill: #ff0000; stroke: #ff0000; stroke-width: 0.24"/>
    <path d="M 218.423434 144.499053 
L 223.701833 144.041447 
L 223.441461 145.127634 
L 245.165201 150.335075 
L 244.904828 151.421262 
L 223.181089 146.213821 
L 222.920717 147.300008 
z
" clip-path="url(#pa1746ca53a)" style="fill: #ff0000; stroke: #ff0000; stroke-width: 0.24"/>
    <path d="M 222.404526 144.45348 
L 227.696556 144.1979 
L 227.39487 145.273344 
L 248.903765 151.307062 
L 248.602079 152.382506 
L 227.093184 146.348789 
L 226.791498 147.424234 
z
" clip-path="url(#pa1746ca53a)" style="fill: #ff0000; stroke: #ff0000; stroke-width: 0.24"/>
    <path d="M 226.384254 144.560594 
L 231.682185 144.507359 
L 231.339637 145.570494 
L 252.602339 152.421462 
L 252.259791 153.484598 
L 230.997088 146.633629 
L 230.65454 147.696765 
z
" clip-path="url(#pa1746ca53a)" style="fill: #ff0000; stroke: #ff0000; stroke-width: 0.24"/>
    <path d="M 230.357422 144.819099 
L 235.653518 144.96834 
L 235.270597 146.01761 
L 256.255991 153.676037 
L 255.87307 154.725307 
L 234.887675 147.06688 
L 234.504754 148.116149 
z
" clip-path="url(#pa1746ca53a)" style="fill: #ff0000; stroke: #ff0000; stroke-width: 0.24"/>
    <path d="M 234.317428 145.229362 
L 239.603953 145.580862 
L 239.181218 146.614734 
L 259.858653 155.069435 
L 259.435918 156.103307 
L 238.758483 147.648605 
L 238.335748 148.682477 
z
" clip-path="url(#pa1746ca53a)" style="fill: #ff0000; stroke: #ff0000; stroke-width: 0.24"/>
    <path d="M 238.258916 145.790824 
L 243.528155 146.344016 
L 243.066234 147.360985 
L 263.4056 156.599407 
L 262.943679 157.616375 
L 242.604313 148.377953 
L 242.142391 149.394921 
z
" clip-path="url(#pa1746ca53a)" style="fill: #ff0000; stroke: #ff0000; stroke-width: 0.24"/>
    <path d="M 242.176359 146.502373 
L 247.420613 147.256503 
L 246.92017 148.255079 
L 266.891676 158.263936 
L 266.391233 159.262511 
L 246.419727 149.253654 
L 245.919284 150.252229 
z
" clip-path="url(#pa1746ca53a)" style="fill: #ff0000; stroke: #ff0000; stroke-width: 0.24"/>
    <path d="M 246.063636 147.362962 
L 251.275244 148.316928 
L 250.73701 149.295652 
L 270.311486 160.060324 
L 269.773252 161.039048 
L 250.198777 150.274375 
L 249.660543 151.253099 
z
" clip-path="url(#pa1746ca53a)" style="fill: #ff0000; stroke: #ff0000; stroke-width: 0.24"/>
    <path d="M 249.91498 148.37172 
L 255.086341 149.524076 
L 254.511113 150.481524 
L 273.660083 161.986099 
L 273.084854 162.943547 
L 253.935884 151.438973 
L 253.360655 152.396421 
z
" clip-path="url(#pa1746ca53a)" style="fill: #ff0000; stroke: #ff0000; stroke-width: 0.24"/>
    <path d="M 253.724988 149.526591 
L 258.84854 150.875707 
L 258.237147 151.810476 
L 276.932535 164.038344 
L 276.321141 164.973114 
L 257.625753 152.745246 
L 257.01436 153.680015 
z
" clip-path="url(#pa1746ca53a)" style="fill: #ff0000; stroke: #ff0000; stroke-width: 0.24"/>
    <path d="M 257.488472 150.826206 
L 262.556732 152.370111 
L 261.910066 153.280836 
L 280.124566 166.214138 
L 279.477901 167.124863 
L 261.263401 154.191561 
L 260.616736 155.102286 
z
" clip-path="url(#pa1746ca53a)" style="fill: #ff0000; stroke: #ff0000; stroke-width: 0.24"/>
    <path d="M 261.199043 152.268916 
L 266.204625 154.005306 
L 265.523642 154.890663 
L 283.230785 168.510331 
L 282.549801 169.395689 
L 264.842658 155.77602 
L 264.161675 156.661377 
z
" clip-path="url(#pa1746ca53a)" style="fill: #ff0000; stroke: #ff0000; stroke-width: 0.24"/>
    <path d="M 264.852098 153.852159 
L 269.787676 155.778548 
L 269.07336 156.637237 
L 286.247154 170.923562 
L 285.532838 171.782251 
L 268.359043 157.495927 
L 267.644727 158.354617 
z
" clip-path="url(#pa1746ca53a)" style="fill: #ff0000; stroke: #ff0000; stroke-width: 0.24"/>
    <path d="M 268.442056 155.573777 
L 273.300421 157.68735 
L 272.553815 158.518118 
L 289.169178 173.450232 
L 288.422572 174.281 
L 271.807209 159.348886 
L 271.060604 160.179654 
z
" clip-path="url(#pa1746ca53a)" style="fill: #ff0000; stroke: #ff0000; stroke-width: 0.24"/>
    <path d="M 271.96326 157.431546 
L 276.737339 159.729169 
L 275.959542 160.53081 
L 291.992359 176.086743 
L 291.214563 176.888384 
L 275.181745 161.332451 
L 274.403949 162.134092 
z
" clip-path="url(#pa1746ca53a)" style="fill: #ff0000; stroke: #ff0000; stroke-width: 0.24"/>
    <path d="M 275.411243 159.422385 
L 280.094041 161.900752 
L 279.286181 162.672087 
L 294.712887 178.829285 
L 293.905027 179.60062 
L 278.478322 163.443422 
L 277.670462 164.214757 
z
" clip-path="url(#pa1746ca53a)" style="fill: #ff0000; stroke: #ff0000; stroke-width: 0.24"/>
    <path d="M 278.780717 161.54333 
L 283.365395 164.198819 
L 282.528652 164.938722 
L 297.326714 181.673586 
L 296.489971 182.413489 
L 281.691909 165.678626 
L 280.855166 166.418529 
z
" clip-path="url(#pa1746ca53a)" style="fill: #ff0000; stroke: #ff0000; stroke-width: 0.24"/>
    <path d="M 282.066324 163.791789 
L 286.546214 166.620478 
L 285.681817 167.327877 
L 299.829794 184.615822 
L 298.965397 185.323221 
L 284.81742 168.035276 
L 283.953023 168.742675 
z
" clip-path="url(#pa1746ca53a)" style="fill: #ff0000; stroke: #ff0000; stroke-width: 0.24"/>
    <path d="M 284.474947 165.128063 
L 288.84348 168.125866 
L 287.952684 168.799719 
L 301.429745 186.615642 
L 300.538948 187.289495 
L 287.061888 169.473572 
L 286.171092 170.147425 
z
" clip-path="url(#pa1746ca53a)" style="fill: #ff0000; stroke: #ff0000; stroke-width: 0.24"/>
    <path d="M 283.062444 161.405564 
L 287.313239 164.568103 
L 286.397345 165.207426 
L 299.183804 183.525306 
L 298.26791 184.164629 
L 285.481451 165.846749 
L 284.565556 166.486072 
z
" clip-path="url(#pa1746ca53a)" style="fill: #ff0000; stroke: #ff0000; stroke-width: 0.24"/>
    <path d="M 281.792773 157.632216 
L 285.919654 160.95483 
L 284.980006 161.558699 
L 297.057376 180.35166 
L 296.117728 180.955529 
L 284.040358 162.162567 
L 283.100709 162.766436 
z
" clip-path="url(#pa1746ca53a)" style="fill: #ff0000; stroke: #ff0000; stroke-width: 0.24"/>
    <path d="M 280.668471 153.812809 
L 284.665379 157.290688 
L 283.703343 157.85821 
L 295.053801 177.098932 
L 294.091765 177.666455 
L 282.741306 158.425733 
L 281.77927 158.993256 
z
" clip-path="url(#pa1746ca53a)" style="fill: #ff0000; stroke: #ff0000; stroke-width: 0.24"/>
    <path d="M 279.690918 149.953439 
L 283.552014 153.581502 
L 282.568995 154.11185 
L 293.175963 173.77223 
L 292.192944 174.302578 
L 281.585976 154.642199 
L 280.602957 155.172547 
z
" clip-path="url(#pa1746ca53a)" style="fill: #ff0000; stroke: #ff0000; stroke-width: 0.24"/>
    <path d="M 278.86144 146.059445 
L 282.581124 149.832356 
L 281.578563 150.324765 
L 291.426748 170.375988 
L 290.424187 170.868397 
L 280.576001 150.817174 
L 279.57344 151.309584 
z
" clip-path="url(#pa1746ca53a)" style="fill: #ff0000; stroke: #ff0000; stroke-width: 0.24"/>
    <path d="M 278.181402 142.136636 
L 281.754204 146.048924 
L 280.733559 146.502665 
L 289.808381 166.91555 
L 288.787737 167.369291 
L 279.712915 146.956406 
L 278.692271 147.410147 
z
" clip-path="url(#pa1746ca53a)" style="fill: #ff0000; stroke: #ff0000; stroke-width: 0.24"/>
    <path d="M 277.651859 138.190705 
L 281.07256 142.236655 
L 280.035324 142.651065 
L 288.323528 163.395798 
L 287.286291 163.810209 
L 278.998087 143.065475 
L 277.96085 143.479885 
z
" clip-path="url(#pa1746ca53a)" style="fill: #ff0000; stroke: #ff0000; stroke-width: 0.24"/>
    <path d="M 277.273157 134.227475 
L 280.536803 138.401145 
L 279.484493 138.77563 
L 286.974184 159.821836 
L 285.921873 160.196321 
L 278.432182 139.150114 
L 277.379872 139.524599 
z
" clip-path="url(#pa1746ca53a)" style="fill: #ff0000; stroke: #ff0000; stroke-width: 0.24"/>
    <path d="M 277.046389 130.252431 
L 280.148173 134.547759 
L 279.082321 134.88176 
L 285.762353 156.198783 
L 284.696502 156.532785 
L 278.01647 135.215762 
L 276.950619 135.549764 
z
" clip-path="url(#pa1746ca53a)" style="fill: #ff0000; stroke: #ff0000; stroke-width: 0.24"/>
    <path d="M 276.971639 126.271743 
L 279.90703 130.682455 
L 278.829195 130.975486 
L 284.68981 152.53219 
L 283.611975 152.82522 
L 277.75136 131.268516 
L 276.673525 131.561547 
z
" clip-path="url(#pa1746ca53a)" style="fill: #ff0000; stroke: #ff0000; stroke-width: 0.24"/>
    <path d="M 277.048963 122.291262 
L 279.813719 126.810889 
L 278.725477 127.062532 
L 283.758332 148.827381 
L 282.67009 149.079024 
L 277.637234 127.314175 
L 276.548992 127.565818 
z
" clip-path="url(#pa1746ca53a)" style="fill: #ff0000; stroke: #ff0000; stroke-width: 0.24"/>
    <path d="M 277.278526 118.316367 
L 279.868565 122.938337 
L 278.771502 123.148213 
L 282.969032 145.089476 
L 281.871969 145.299353 
L 277.674439 123.35809 
L 276.577376 123.567966 
z
" clip-path="url(#pa1746ca53a)" style="fill: #ff0000; stroke: #ff0000; stroke-width: 0.24"/>
    <path d="M 277.659687 114.353476 
L 280.071226 119.071037 
L 278.966945 119.238841 
L 282.323018 141.324471 
L 281.218737 141.492275 
L 277.862663 119.406645 
L 276.758382 119.574448 
z
" clip-path="url(#pa1746ca53a)" style="fill: #ff0000; stroke: #ff0000; stroke-width: 0.24"/>
    <path d="M 278.191834 110.407762 
L 280.421351 115.214024 
L 279.311464 115.33951 
L 281.821179 137.537249 
L 280.711292 137.662735 
L 278.201577 115.464996 
L 277.09169 115.590482 
z
" clip-path="url(#pa1746ca53a)" style="fill: #ff0000; stroke: #ff0000; stroke-width: 0.24"/>
    <path d="M 278.874297 106.485477 
L 280.918584 111.373401 
L 279.804713 111.456396 
L 281.464628 133.733806 
L 280.350757 133.816802 
L 278.690843 111.539392 
L 277.576972 111.622388 
z
" clip-path="url(#pa1746ca53a)" style="fill: #ff0000; stroke: #ff0000; stroke-width: 0.24"/>
    <path d="M 279.706323 102.591851 
L 281.562346 107.554319 
L 280.446117 107.594692 
L 281.253584 129.919259 
L 280.137356 129.959632 
L 279.329889 107.635065 
L 278.213661 107.675439 
z
" clip-path="url(#pa1746ca53a)" style="fill: #ff0000; stroke: #ff0000; stroke-width: 0.24"/>
    <path d="M 280.686562 98.733031 
L 282.35161 103.762794 
L 281.234654 103.760486 
L 281.188494 126.099604 
L 280.071539 126.097296 
L 280.117699 103.758178 
L 279.000743 103.75587 
z
" clip-path="url(#pa1746ca53a)" style="fill: #ff0000; stroke: #ff0000; stroke-width: 0.24"/>
    <path d="M 281.813214 94.914616 
L 283.284906 100.004314 
L 282.168854 99.95934 
L 281.269357 122.280388 
L 280.153305 122.235413 
L 281.052801 99.914365 
L 279.936749 99.86939 
z
" clip-path="url(#pa1746ca53a)" style="fill: #ff0000; stroke: #ff0000; stroke-width: 0.24"/>
    <path d="M 283.085298 91.141948 
L 284.361434 96.284163 
L 283.247915 96.196576 
L 281.496173 118.466953 
L 280.382654 118.379366 
L 282.134397 96.108989 
L 281.020878 96.021402 
z
" clip-path="url(#pa1746ca53a)" style="fill: #ff0000; stroke: #ff0000; stroke-width: 0.24"/>
    <path d="M 284.500569 87.420519 
L 285.579286 92.607741 
L 284.469927 92.477669 
L 281.868498 114.664847 
L 280.759139 114.534776 
L 283.360568 92.347598 
L 282.251209 92.217526 
z
" clip-path="url(#pa1746ca53a)" style="fill: #ff0000; stroke: #ff0000; stroke-width: 0.24"/>
    <path d="M 286.056567 83.755924 
L 286.936341 88.980568 
L 285.832761 88.808213 
L 282.385664 110.879819 
L 281.282084 110.707465 
L 284.72918 88.635858 
L 283.6256 88.463503 
z
" clip-path="url(#pa1746ca53a)" style="fill: #ff0000; stroke: #ff0000; stroke-width: 0.24"/>
    <path d="M 286.366421 86.999679 
L 287.082364 92.249282 
L 285.984714 92.042497 
L 281.849016 113.995499 
L 280.751366 113.788714 
L 284.887064 91.835712 
L 283.789414 91.628927 
z
" clip-path="url(#pa1746ca53a)" style="fill: #ff0000; stroke: #ff0000; stroke-width: 0.24"/>
    <path d="M 286.574813 90.251628 
L 287.126225 95.521053 
L 286.035579 95.280041 
L 281.215327 117.09296 
L 280.124681 116.851948 
L 284.944933 95.039028 
L 283.854287 94.798016 
z
" clip-path="url(#pa1746ca53a)" style="fill: #ff0000; stroke: #ff0000; stroke-width: 0.24"/>
    <path d="M 286.68088 93.508206 
L 287.067275 98.792295 
L 285.984697 98.517302 
L 280.484823 120.168853 
L 279.402245 119.893859 
L 284.90212 98.242308 
L 283.819542 97.967314 
z
" clip-path="url(#pa1746ca53a)" style="fill: #ff0000; stroke: #ff0000; stroke-width: 0.24"/>
    <path d="M 286.685459 96.766666 
L 286.906405 102.060255 
L 285.832958 101.751538 
L 279.658623 123.22049 
L 278.585176 122.911773 
L 284.75951 101.442821 
L 283.686062 101.134105 
z
" clip-path="url(#pa1746ca53a)" style="fill: #ff0000; stroke: #ff0000; stroke-width: 0.24"/>
    <path d="M 286.588143 100.023826 
L 286.643425 105.321735 
L 285.580157 104.979598 
L 278.737404 126.244945 
L 277.674137 125.902808 
L 284.51689 104.63746 
L 283.453622 104.295322 
z
" clip-path="url(#pa1746ca53a)" style="fill: #ff0000; stroke: #ff0000; stroke-width: 0.24"/>
    <path d="M 286.389025 103.276314 
L 286.278588 108.573361 
L 285.226541 108.198137 
L 277.722064 129.239076 
L 276.670017 128.863852 
L 284.174494 107.822913 
L 283.122447 107.447689 
z
" clip-path="url(#pa1746ca53a)" style="fill: #ff0000; stroke: #ff0000; stroke-width: 0.24"/>
    <path d="M 286.088205 106.520734 
L 285.812158 111.811736 
L 284.772361 111.403793 
L 276.613501 132.199737 
L 275.573704 131.791794 
L 283.732563 110.99585 
L 282.692766 110.587907 
z
" clip-path="url(#pa1746ca53a)" style="fill: #ff0000; stroke: #ff0000; stroke-width: 0.24"/>
    <path d="M 285.685989 109.754451 
L 285.244654 115.034236 
L 284.218119 114.593983 
L 275.413065 135.124675 
L 274.38653 134.684422 
L 283.191584 114.15373 
L 282.16505 113.713478 
z
" clip-path="url(#pa1746ca53a)" style="fill: #ff0000; stroke: #ff0000; stroke-width: 0.24"/>
    <path d="M 285.183001 112.97378 
L 284.576756 118.237179 
L 283.564493 117.765037 
L 274.12165 138.010309 
L 273.109387 137.538167 
L 282.552229 117.292895 
L 281.539966 116.820753 
z
" clip-path="url(#pa1746ca53a)" style="fill: #ff0000; stroke: #ff0000; stroke-width: 0.24"/>
    <path d="M 284.579562 116.176045 
L 283.809002 121.41791 
L 282.812 120.91434 
L 272.740608 140.854384 
L 271.743606 140.350814 
L 281.814998 120.410771 
L 280.817996 119.907201 
z
" clip-path="url(#pa1746ca53a)" style="fill: #ff0000; stroke: #ff0000; stroke-width: 0.24"/>
    <path d="M 283.87626 119.357754 
L 282.942138 124.572955 
L 281.961373 124.03845 
L 271.271285 143.653758 
L 270.290519 143.119254 
L 280.980608 123.503946 
L 279.999842 122.969441 
z
" clip-path="url(#pa1746ca53a)" style="fill: #ff0000; stroke: #ff0000; stroke-width: 0.24"/>
    <path d="M 283.073457 122.515697 
L 281.97674 127.699143 
L 281.013165 127.134236 
L 269.715032 146.40573 
L 268.751457 145.840824 
L 280.04959 126.56933 
L 279.086016 126.004423 
z
" clip-path="url(#pa1746ca53a)" style="fill: #ff0000; stroke: #ff0000; stroke-width: 0.24"/>
    <path d="M 282.172689 125.647275 
L 280.914396 130.793885 
L 279.96896 130.199119 
L 268.07364 149.107838 
L 267.128204 148.513072 
L 279.023524 129.604353 
L 278.078088 129.009587 
z
" clip-path="url(#pa1746ca53a)" style="fill: #ff0000; stroke: #ff0000; stroke-width: 0.24"/>
    <path d="M 281.174294 128.748987 
L 279.755667 133.85373 
L 278.829293 133.229688 
L 266.348461 151.757157 
L 265.422087 151.133116 
L 277.90292 132.605646 
L 276.976546 131.981605 
z
" clip-path="url(#pa1746ca53a)" style="fill: #ff0000; stroke: #ff0000; stroke-width: 0.24"/>
    <path d="M 280.079605 131.818154 
L 278.502037 136.876037 
L 277.595632 136.223331 
L 264.541514 154.351439 
L 263.635109 153.698734 
L 276.689226 135.570625 
L 275.782821 134.917919 
z
" clip-path="url(#pa1746ca53a)" style="fill: #ff0000; stroke: #ff0000; stroke-width: 0.24"/>
    <path d="M 278.889099 134.851425 
L 277.154128 139.857499 
L 276.268578 139.176766 
L 262.653927 156.887768 
L 261.768377 156.207035 
L 275.383027 138.496034 
L 274.497477 137.815301 
z
" clip-path="url(#pa1746ca53a)" style="fill: #ff0000; stroke: #ff0000; stroke-width: 0.24"/>
    <path d="M 277.604516 137.846033 
L 275.713844 142.795403 
L 274.850015 142.087311 
L 260.688166 159.363894 
L 259.824337 158.655802 
L 273.986186 141.379218 
L 273.122356 140.671126 
z
" clip-path="url(#pa1746ca53a)" style="fill: #ff0000; stroke: #ff0000; stroke-width: 0.24"/>
    <path d="M 276.227031 140.799035 
L 274.182503 145.686858 
L 273.34124 144.952097 
L 258.646029 161.777348 
L 257.804767 161.042587 
L 272.499977 144.217337 
L 271.658715 143.482576 
z
" clip-path="url(#pa1746ca53a)" style="fill: #ff0000; stroke: #ff0000; stroke-width: 0.24"/>
    <path d="M 274.75775 143.707397 
L 272.56137 148.528893 
L 271.743496 147.768184 
L 256.529315 164.125658 
L 255.711441 163.364949 
L 270.925623 147.007475 
L 270.107749 146.246766 
z
" clip-path="url(#pa1746ca53a)" style="fill: #ff0000; stroke: #ff0000; stroke-width: 0.24"/>
    <path d="M 273.198103 146.568585 
L 270.852015 151.319035 
L 270.058331 150.533121 
L 254.340045 166.406803 
L 253.546361 165.620889 
L 269.264647 149.747207 
L 268.470963 148.961292 
z
" clip-path="url(#pa1746ca53a)" style="fill: #ff0000; stroke: #ff0000; stroke-width: 0.24"/>
    <path d="M 271.549903 149.3793 
L 269.056406 154.05406 
L 268.287688 153.24371 
L 252.08069 168.618088 
L 251.311971 167.807739 
L 267.518969 152.43336 
L 266.75025 151.623011 
z
" clip-path="url(#pa1746ca53a)" style="fill: #ff0000; stroke: #ff0000; stroke-width: 0.24"/>
    <path d="M 269.814613 152.13742 
L 267.176143 156.731914 
L 266.433142 155.897921 
L 249.75327 170.757939 
L 249.010269 169.923946 
L 265.690141 155.063927 
L 264.94714 154.229934 
z
" clip-path="url(#pa1746ca53a)" style="fill: #ff0000; stroke: #ff0000; stroke-width: 0.24"/>
    <path d="M 267.993864 154.839606 
L 265.213005 159.349344 
L 264.496449 158.492523 
L 247.360033 172.823662 
L 246.643476 171.966842 
L 263.779892 157.635702 
L 263.063335 156.778882 
z
" clip-path="url(#pa1746ca53a)" style="fill: #ff0000; stroke: #ff0000; stroke-width: 0.24"/>
    <path d="M 266.089601 157.483927 
L 263.16907 161.904493 
L 262.479659 161.025683 
L 244.903449 174.813907 
L 244.214038 173.935097 
L 261.790248 160.146872 
L 261.100837 159.268062 
z
" clip-path="url(#pa1746ca53a)" style="fill: #ff0000; stroke: #ff0000; stroke-width: 0.24"/>
    <path d="M 264.103497 160.067009 
L 261.046156 164.394082 
L 260.384564 163.494142 
L 242.385766 176.725982 
L 241.724174 175.826042 
L 259.722972 162.594203 
L 259.06138 161.694263 
z
" clip-path="url(#pa1746ca53a)" style="fill: #ff0000; stroke: #ff0000; stroke-width: 0.24"/>
    <path d="M 262.037537 162.586887 
L 258.84637 166.816233 
L 258.213246 165.896043 
L 239.809453 178.558536 
L 239.176329 177.638346 
L 257.580121 164.975853 
L 256.946996 164.055664 
z
" clip-path="url(#pa1746ca53a)" style="fill: #ff0000; stroke: #ff0000; stroke-width: 0.24"/>
    <path d="M 259.893883 165.041049 
L 256.572018 169.168532 
L 255.967979 168.228993 
L 237.177207 180.309771 
L 236.573168 179.370233 
L 255.36394 167.289455 
L 254.759901 166.349916 
z
" clip-path="url(#pa1746ca53a)" style="fill: #ff0000; stroke: #ff0000; stroke-width: 0.24"/>
    <path d="M 257.67456 167.426832 
L 254.225241 171.448411 
L 253.650879 170.490442 
L 234.491498 181.97767 
L 233.917137 181.019701 
L 253.076518 169.532473 
L 252.502157 168.574504 
z
" clip-path="url(#pa1746ca53a)" style="fill: #ff0000; stroke: #ff0000; stroke-width: 0.24"/>
    <path d="M 255.381554 169.742137 
L 251.808159 173.653884 
L 251.264037 172.678422 
L 231.754798 183.56088 
L 231.210675 182.585418 
L 250.719914 171.70296 
L 250.175791 170.727498 
z
" clip-path="url(#pa1746ca53a)" style="fill: #ff0000; stroke: #ff0000; stroke-width: 0.24"/>
    <path d="M 253.017378 171.984502 
L 249.323399 175.782584 
L 248.810048 174.790583 
L 228.970026 185.057609 
L 228.456675 184.065607 
L 248.296697 173.798582 
L 247.783346 172.806581 
z
" clip-path="url(#pa1746ca53a)" style="fill: #ff0000; stroke: #ff0000; stroke-width: 0.24"/>
    <path d="M 250.584301 174.151823 
L 246.773353 177.832527 
L 246.291275 176.824957 
L 226.139878 186.466505 
L 225.6578 185.458935 
L 245.809198 175.817387 
L 245.327121 174.809817 
z
" clip-path="url(#pa1746ca53a)" style="fill: #ff0000; stroke: #ff0000; stroke-width: 0.24"/>
    <path d="M 248.084398 176.241987 
L 244.160211 179.801715 
L 243.709878 178.779562 
L 223.266826 187.786223 
L 222.816493 186.76407 
L 243.259545 177.757409 
L 242.809212 176.735257 
z
" clip-path="url(#pa1746ca53a)" style="fill: #ff0000; stroke: #ff0000; stroke-width: 0.24"/>
    <path d="M 245.520468 178.253165 
L 241.486878 181.688431 
L 241.068731 180.652695 
L 220.354014 189.015637 
L 219.935867 187.979901 
L 240.650584 179.616959 
L 240.232437 178.581223 
z
" clip-path="url(#pa1746ca53a)" style="fill: #ff0000; stroke: #ff0000; stroke-width: 0.24"/>
    <path d="M 242.89507 180.182972 
L 238.756025 183.490419 
L 238.370472 182.442114 
L 217.404361 190.153177 
L 217.018808 189.104871 
L 237.984919 181.393808 
L 237.599366 180.345503 
z
" clip-path="url(#pa1746ca53a)" style="fill: #ff0000; stroke: #ff0000; stroke-width: 0.24"/>
    <path d="M 240.210379 182.029784 
L 235.969925 185.206174 
L 235.617344 184.146323 
L 214.42034 191.197944 
L 214.067759 190.138094 
L 235.264763 183.086473 
L 234.912182 182.026623 
z
" clip-path="url(#pa1746ca53a)" style="fill: #ff0000; stroke: #ff0000; stroke-width: 0.24"/>
    <path d="M 237.469227 183.791642 
L 233.131515 186.833871 
L 232.81225 185.763513 
L 211.405096 192.148814 
L 211.085831 191.078457 
L 232.492985 184.693156 
L 232.17372 183.622798 
z
" clip-path="url(#pa1746ca53a)" style="fill: #ff0000; stroke: #ff0000; stroke-width: 0.24"/>
    <path d="M 236.949751 184.850792 
L 232.519021 187.755881 
L 232.233385 186.676062 
L 210.637016 192.388776 
L 210.35138 191.308958 
L 231.94775 185.596244 
L 231.662114 184.516425 
z
" clip-path="url(#pa1746ca53a)" style="fill: #ff0000; stroke: #ff0000; stroke-width: 0.24"/>
    <path d="M 240.207408 184.925126 
L 235.687998 187.690237 
L 235.43627 186.602014 
L 213.671815 191.636574 
L 213.420087 190.548351 
L 235.184542 185.513791 
L 234.932814 184.425568 
z
" clip-path="url(#pa1746ca53a)" style="fill: #ff0000; stroke: #ff0000; stroke-width: 0.24"/>
    <path d="M 243.461107 185.101355 
L 238.857434 187.723778 
L 238.639861 186.628215 
L 216.728607 190.979675 
L 216.511034 189.884112 
L 238.422288 185.532652 
L 238.204715 184.437089 
z
" clip-path="url(#pa1746ca53a)" style="fill: #ff0000; stroke: #ff0000; stroke-width: 0.24"/>
    <path d="M 246.707756 185.379276 
L 242.024327 187.856451 
L 241.841121 186.75462 
L 219.804504 190.418745 
L 219.621298 189.316914 
L 241.657914 185.652789 
L 241.474708 184.550958 
z
" clip-path="url(#pa1746ca53a)" style="fill: #ff0000; stroke: #ff0000; stroke-width: 0.24"/>
    <path d="M 249.944088 185.758567 
L 245.185481 188.088065 
L 245.036821 186.981044 
L 222.896395 189.954229 
L 222.747736 188.847207 
L 244.888162 185.874023 
L 244.739503 184.767002 
z
" clip-path="url(#pa1746ca53a)" style="fill: #ff0000; stroke: #ff0000; stroke-width: 0.24"/>
    <path d="M 253.167065 186.238792 
L 248.337937 188.418341 
L 248.223969 187.307212 
L 226.001395 189.586569 
L 225.887427 188.47544 
L 248.110002 186.196083 
L 247.996034 185.084955 
z
" clip-path="url(#pa1746ca53a)" style="fill: #ff0000; stroke: #ff0000; stroke-width: 0.24"/>
    <path d="M 256.373468 186.819616 
L 251.478542 188.847079 
L 251.399378 187.732929 
L 229.116391 189.316212 
L 229.037227 188.202062 
L 251.320214 186.61878 
L 251.241049 185.504631 
z
" clip-path="url(#pa1746ca53a)" style="fill: #ff0000; stroke: #ff0000; stroke-width: 0.24"/>
    <path d="M 259.560093 187.500398 
L 254.604158 189.373793 
L 254.559874 188.257713 
L 232.238273 189.143378 
L 232.19399 188.027298 
L 254.515591 187.141633 
L 254.471308 186.025553 
z
" clip-path="url(#pa1746ca53a)" style="fill: #ff0000; stroke: #ff0000; stroke-width: 0.24"/>
    <path d="M 262.723768 188.280534 
L 257.711671 189.998028 
L 257.702312 188.881109 
L 235.363932 189.068291 
L 235.354572 187.951372 
L 257.692953 187.76419 
L 257.683594 186.647271 
z
" clip-path="url(#pa1746ca53a)" style="fill: #ff0000; stroke: #ff0000; stroke-width: 0.24"/>
    <path d="M 265.861569 189.159409 
L 260.798213 190.719324 
L 260.823788 189.602658 
L 238.490479 189.091174 
L 238.516053 187.974509 
L 260.849362 188.485993 
L 260.874936 187.369327 
z
" clip-path="url(#pa1746ca53a)" style="fill: #ff0000; stroke: #ff0000; stroke-width: 0.24"/>
    <path d="M 268.970374 190.135741 
L 263.860712 191.536549 
L 263.921195 190.42123 
L 241.614805 189.211579 
L 241.675287 188.09626 
L 263.981677 189.30591 
L 264.04216 188.190591 
z
" clip-path="url(#pa1746ca53a)" style="fill: #ff0000; stroke: #ff0000; stroke-width: 0.24"/>
    <path d="M 272.047088 191.208918 
L 266.896118 192.449249 
L 266.99145 191.336367 
L 244.733799 189.429731 
L 244.829131 188.316849 
L 267.086782 190.223484 
L 267.182114 189.110601 
z
" clip-path="url(#pa1746ca53a)" style="fill: #ff0000; stroke: #ff0000; stroke-width: 0.24"/>
    <path d="M 273.734217 192.223516 
L 268.546979 193.302157 
L 268.677067 192.1928 
L 246.489927 189.591045 
L 246.620015 188.481688 
L 268.807155 191.083443 
L 268.937242 189.974086 
z
" clip-path="url(#pa1746ca53a)" style="fill: #ff0000; stroke: #ff0000; stroke-width: 0.24"/>
    <path d="M 270.504496 192.656842 
L 265.286064 193.57274 
L 265.450779 192.467994 
L 243.355853 189.173678 
L 243.520569 188.068931 
L 265.615495 191.363248 
L 265.780211 190.258501 
z
" clip-path="url(#pa1746ca53a)" style="fill: #ff0000; stroke: #ff0000; stroke-width: 0.24"/>
    <path d="M 267.263038 192.989073 
L 262.018515 193.741327 
L 262.217699 192.642272 
L 240.236603 188.658595 
L 240.435787 187.55954 
L 262.416883 191.543218 
L 262.616067 190.444163 
z
" clip-path="url(#pa1746ca53a)" style="fill: #ff0000; stroke: #ff0000; stroke-width: 0.24"/>
    <path d="M 264.012669 193.219774 
L 258.747187 193.807654 
L 258.980643 192.715366 
L 237.134875 188.046246 
L 237.368331 186.953957 
L 259.214099 191.623077 
L 259.447555 190.530789 
z
" clip-path="url(#pa1746ca53a)" style="fill: #ff0000; stroke: #ff0000; stroke-width: 0.24"/>
    <path d="M 260.756893 193.348848 
L 255.475602 193.771774 
L 255.743102 192.687321 
L 234.054036 187.337304 
L 234.321537 186.252851 
L 256.010603 191.602868 
L 256.278104 190.518414 
z
" clip-path="url(#pa1746ca53a)" style="fill: #ff0000; stroke: #ff0000; stroke-width: 0.24"/>
    <path d="M 257.498366 193.375874 
L 252.206432 193.633437 
L 252.507715 192.557879 
L 230.996561 186.532221 
L 231.297844 185.456663 
L 252.808998 191.482322 
L 253.11028 190.406764 
z
" clip-path="url(#pa1746ca53a)" style="fill: #ff0000; stroke: #ff0000; stroke-width: 0.24"/>
    <path d="M 254.240861 193.300987 
L 248.943461 193.39293 
L 249.278232 192.32732 
L 227.96604 185.631893 
L 228.300811 184.566283 
L 249.613004 191.261711 
L 249.947775 190.196101 
z
" clip-path="url(#pa1746ca53a)" style="fill: #ff0000; stroke: #ff0000; stroke-width: 0.24"/>
    <path d="M 250.987082 193.124252 
L 245.689398 193.050485 
L 246.05733 191.995866 
L 224.964947 184.63722 
L 225.332879 183.5826 
L 246.425262 190.941247 
L 246.793195 189.886628 
z
" clip-path="url(#pa1746ca53a)" style="fill: #ff0000; stroke: #ff0000; stroke-width: 0.24"/>
    <path d="M 247.740429 192.845966 
L 242.447642 192.606567 
L 242.848374 191.56397 
L 221.996426 183.549323 
L 222.397159 182.506726 
L 243.249107 190.521372 
L 243.649839 189.478775 
z
" clip-path="url(#pa1746ca53a)" style="fill: #ff0000; stroke: #ff0000; stroke-width: 0.24"/>
    <path d="M 241.198605 188.419965 
L 235.902892 188.582221 
L 236.223489 187.512261 
L 214.824295 181.100335 
L 215.144891 180.030375 
L 236.544085 186.442301 
L 236.864681 185.372342 
z
" clip-path="url(#pa1746ca53a)" style="fill: #ff0000; stroke: #ff0000; stroke-width: 0.24"/>
    <path d="M 234.340362 184.502384 
L 229.07216 185.065363 
L 229.310777 183.97419 
L 207.487328 179.201836 
L 207.725946 178.110663 
L 229.549395 182.883018 
L 229.788013 181.791845 
z
" clip-path="url(#pa1746ca53a)" style="fill: #ff0000; stroke: #ff0000; stroke-width: 0.24"/>
    <path d="M 227.204844 181.11549 
L 221.99443 182.075956 
L 222.149698 180.969842 
L 200.027423 177.864489 
L 200.18269 176.758375 
L 222.304966 179.863728 
L 222.460233 178.757615 
z
" clip-path="url(#pa1746ca53a)" style="fill: #ff0000; stroke: #ff0000; stroke-width: 0.24"/>
    <path d="M 219.833328 178.279067 
L 214.71065 179.631499 
L 214.781676 178.516801 
L 192.48772 177.096293 
L 192.558746 175.981595 
L 214.852701 177.402104 
L 214.923727 176.287406 
z
" clip-path="url(#pa1746ca53a)" style="fill: #ff0000; stroke: #ff0000; stroke-width: 0.24"/>
    <path d="M 212.268114 176.009211 
L 207.262614 177.745838 
L 207.248989 176.628963 
L 184.911486 176.901467 
L 184.897861 175.784592 
L 207.235363 175.512087 
L 207.221738 174.395212 
z
" clip-path="url(#pa1746ca53a)" style="fill: #ff0000; stroke: #ff0000; stroke-width: 0.24"/>
    <path d="M 204.552689 174.318965 
L 199.693136 176.429804 
L 199.594938 175.317171 
L 177.342271 177.281122 
L 177.244074 176.168489 
L 199.49674 174.204538 
L 199.398543 173.091904 
z
" clip-path="url(#pa1746ca53a)" style="fill: #ff0000; stroke: #ff0000; stroke-width: 0.24"/>
    <path d="M 196.73138 173.217998 
L 192.045703 175.690919 
L 191.863497 174.588922 
L 169.823563 178.233037 
L 169.641357 177.13104 
L 191.681291 173.486926 
L 191.499086 172.384929 
z
" clip-path="url(#pa1746ca53a)" style="fill: #ff0000; stroke: #ff0000; stroke-width: 0.24"/>
    <path d="M 188.849145 172.712789 
L 184.364275 175.533578 
L 184.099109 174.448551 
L 162.398579 179.751881 
L 162.133413 178.666854 
L 183.833942 173.363525 
L 183.568776 172.278498 
z
" clip-path="url(#pa1746ca53a)" style="fill: #ff0000; stroke: #ff0000; stroke-width: 0.24"/>
    <path d="M 183.678453 171.937308 
L 179.420167 175.089752 
L 179.073564 174.027932 
L 157.837161 180.959996 
L 157.490558 179.898176 
L 178.72696 172.966112 
L 178.380357 171.904292 
z
" clip-path="url(#pa1746ca53a)" style="fill: #ff0000; stroke: #ff0000; stroke-width: 0.24"/>
    <path d="M 190.110342 167.353105 
L 186.103114 170.819087 
L 185.677066 169.786576 
L 165.026846 178.307533 
L 164.600798 177.275022 
L 185.251018 168.754065 
L 184.824971 167.721554 
z
" clip-path="url(#pa1746ca53a)" style="fill: #ff0000; stroke: #ff0000; stroke-width: 0.24"/>
    <path d="M 196.17651 162.294767 
L 192.443371 166.054365 
L 191.940328 165.057097 
L 171.994976 175.117973 
L 171.491932 174.120705 
L 191.437284 164.05983 
L 190.93424 163.062562 
z
" clip-path="url(#pa1746ca53a)" style="fill: #ff0000; stroke: #ff0000; stroke-width: 0.24"/>
    <path d="M 201.842044 156.791451 
L 198.404451 160.823058 
L 197.827302 159.866766 
L 178.701453 171.409736 
L 178.124304 170.453444 
L 197.250154 158.910473 
L 196.673005 157.954181 
z
" clip-path="url(#pa1746ca53a)" style="fill: #ff0000; stroke: #ff0000; stroke-width: 0.24"/>
    <path d="M 207.07438 150.874816 
L 203.952089 155.15526 
L 203.304153 154.245439 
L 185.10773 167.204162 
L 184.459794 166.294341 
L 202.656217 153.335618 
L 202.008281 152.425797 
z
" clip-path="url(#pa1746ca53a)" style="fill: #ff0000; stroke: #ff0000; stroke-width: 0.24"/>
    <path d="M 211.843447 144.578732 
L 209.054404 149.083412 
L 208.339404 148.225291 
L 191.176992 162.525287 
L 190.461992 161.667166 
L 207.624405 147.36717 
L 206.909405 146.50905 
z
" clip-path="url(#pa1746ca53a)" style="fill: #ff0000; stroke: #ff0000; stroke-width: 0.24"/>
    <path d="M 216.121853 137.939469 
L 213.682083 142.642492 
L 212.904129 141.841003 
L 196.874351 157.400067 
L 196.096398 156.598578 
L 212.126176 141.039514 
L 211.348223 140.238025 
z
" clip-path="url(#pa1746ca53a)" style="fill: #ff0000; stroke: #ff0000; stroke-width: 0.24"/>
    <path d="M 219.884964 130.995115 
L 217.808493 135.869453 
L 216.972057 135.129203 
L 202.167057 151.857929 
L 201.330621 151.117679 
L 216.135621 134.388953 
L 215.299185 133.648703 
z
" clip-path="url(#pa1746ca53a)" style="fill: #ff0000; stroke: #ff0000; stroke-width: 0.24"/>
    <path d="M 223.111241 123.785648 
L 221.410004 128.803287 
L 220.519892 128.128531 
L 207.024762 145.93077 
L 206.13465 145.256014 
L 219.62978 127.453774 
L 218.739668 126.779018 
z
" clip-path="url(#pa1746ca53a)" style="fill: #ff0000; stroke: #ff0000; stroke-width: 0.24"/>
    <path d="M 225.782071 116.352359 
L 224.465847 121.48446 
L 223.527175 120.879075 
L 211.419476 139.652511 
L 210.480804 139.047126 
L 222.588503 120.27369 
L 221.649831 119.668305 
z
" clip-path="url(#pa1746ca53a)" style="fill: #ff0000; stroke: #ff0000; stroke-width: 0.24"/>
    <path d="M 227.881955 108.738249 
L 226.958317 113.955317 
L 225.97648 113.422785 
L 215.32584 133.05954 
L 214.344002 132.527008 
L 224.994642 112.890253 
L 224.012804 112.357721 
z
" clip-path="url(#pa1746ca53a)" style="fill: #ff0000; stroke: #ff0000; stroke-width: 0.24"/>
    <path d="M 229.399128 100.986981 
L 228.873376 106.259028 
L 227.854017 105.802408 
L 218.721612 126.189597 
L 217.702253 125.732977 
L 226.834657 105.345788 
L 225.815298 104.889168 
z
" clip-path="url(#pa1746ca53a)" style="fill: #ff0000; stroke: #ff0000; stroke-width: 0.24"/>
    <path d="M 230.324576 93.142902 
L 230.199731 98.439629 
L 229.148709 98.061545 
L 221.587028 119.081994 
L 220.536005 118.70391 
L 228.097686 97.683461 
L 227.046664 97.305377 
z
" clip-path="url(#pa1746ca53a)" style="fill: #ff0000; stroke: #ff0000; stroke-width: 0.24"/>
    <path d="M 234.569469 86.623528 
L 234.131566 91.903598 
L 233.104746 91.464013 
L 224.313038 112.000424 
L 223.286217 111.560838 
L 232.077925 91.024428 
L 231.051104 90.584842 
z
" clip-path="url(#pa1746ca53a)" style="fill: #ff0000; stroke: #ff0000; stroke-width: 0.24"/>
    <path d="M 239.707214 80.624396 
L 238.870565 85.856119 
L 237.879997 85.340007 
L 227.55777 105.151366 
L 226.567202 104.635254 
L 236.889429 84.823896 
L 235.898861 84.307785 
z
" clip-path="url(#pa1746ca53a)" style="fill: #ff0000; stroke: #ff0000; stroke-width: 0.24"/>
    <path d="M 245.284521 75.031723 
L 244.053934 80.185029 
L 243.105312 79.595358 
L 231.311893 98.5678 
L 230.363271 97.978129 
L 242.15669 79.005687 
L 241.208068 78.416016 
z
" clip-path="url(#pa1746ca53a)" style="fill: #ff0000; stroke: #ff0000; stroke-width: 0.24"/>
    <path d="M 251.269674 69.877703 
L 249.652203 74.922967 
L 248.750982 74.263122 
L 235.554079 92.287552 
L 234.652858 91.627706 
L 247.84976 73.603277 
L 246.948539 72.943432 
z
" clip-path="url(#pa1746ca53a)" style="fill: #ff0000; stroke: #ff0000; stroke-width: 0.24"/>
    <path d="M 257.628039 65.191844 
L 255.633 70.100074 
L 254.784357 69.373851 
L 240.259896 86.346721 
L 239.411252 85.620498 
L 253.935713 68.647628 
L 253.08707 67.921405 
z
" clip-path="url(#pa1746ca53a)" style="fill: #ff0000; stroke: #ff0000; stroke-width: 0.24"/>
    <path d="M 264.322884 61.001152 
L 261.961744 65.744139 
L 261.170556 64.955712 
L 245.402014 80.779472 
L 244.610826 79.991044 
L 260.379368 64.167285 
L 259.58818 63.378857 
z
" clip-path="url(#pa1746ca53a)" style="fill: #ff0000; stroke: #ff0000; stroke-width: 0.24"/>
    <path d="M 271.316186 57.329693 
L 268.602515 61.880176 
L 267.87333 61.034076 
L 250.951336 75.617781 
L 250.222151 74.771681 
L 267.144145 60.187977 
L 266.414959 59.341877 
z
" clip-path="url(#pa1746ca53a)" style="fill: #ff0000; stroke: #ff0000; stroke-width: 0.24"/>
    <path d="M 278.567432 54.198559 
L 275.516827 58.530385 
L 274.853835 57.631475 
L 256.875648 70.891305 
L 256.212657 69.992395 
L 274.190844 56.732566 
L 273.527852 55.833657 
z
" clip-path="url(#pa1746ca53a)" style="fill: #ff0000; stroke: #ff0000; stroke-width: 0.24"/>
    <path d="M 286.035006 51.625794 
L 282.665 55.714066 
L 282.072013 54.767513 
L 263.140961 66.627258 
L 262.547973 65.680705 
L 281.479026 53.820961 
L 280.886039 52.874408 
z
" clip-path="url(#pa1746ca53a)" style="fill: #ff0000; stroke: #ff0000; stroke-width: 0.24"/>
    <path d="M 283.897591 53.873591 
L 280.407376 57.85973 
L 279.842829 56.895945 
L 260.567119 68.186882 
L 260.002572 67.223097 
L 279.278283 55.932159 
L 278.713736 54.968374 
z
" clip-path="url(#pa1746ca53a)" style="fill: #ff0000; stroke: #ff0000; stroke-width: 0.24"/>
    <path d="M 281.694331 56.056576 
L 278.087005 59.937053 
L 277.551398 58.95689 
L 257.948126 69.669032 
L 257.412519 68.688868 
L 277.015791 57.976726 
L 276.480184 56.996562 
z
" clip-path="url(#pa1746ca53a)" style="fill: #ff0000; stroke: #ff0000; stroke-width: 0.24"/>
    <path d="M 279.426909 58.17314 
L 275.705666 61.944513 
L 275.199474 60.948839 
L 255.286004 71.072672 
L 254.779812 70.076998 
L 274.693282 59.953166 
L 274.187091 58.957492 
z
" clip-path="url(#pa1746ca53a)" style="fill: #ff0000; stroke: #ff0000; stroke-width: 0.24"/>
    <path d="M 280.838336 58.410131 
L 277.006477 62.069059 
L 276.530148 61.058759 
L 256.32414 70.585329 
L 255.847812 69.575029 
L 276.05382 60.048459 
L 275.577491 59.038158 
z
" clip-path="url(#pa1746ca53a)" style="fill: #ff0000; stroke: #ff0000; stroke-width: 0.24"/>
    <path d="M 283.900368 57.916298 
L 279.961286 61.459537 
L 279.515244 60.435504 
L 259.034599 69.356348 
L 258.588556 68.332316 
L 279.069202 59.411472 
L 278.62316 58.38744 
z
" clip-path="url(#pa1746ca53a)" style="fill: #ff0000; stroke: #ff0000; stroke-width: 0.24"/>
    <path d="M 286.975896 57.513888 
L 282.933086 60.938299 
L 282.517724 59.901443 
L 261.780602 68.208674 
L 261.365241 67.171818 
L 282.102362 58.864587 
L 281.687001 57.827731 
z
" clip-path="url(#pa1746ca53a)" style="fill: #ff0000; stroke: #ff0000; stroke-width: 0.24"/>
    <path d="M 290.061979 57.203 
L 285.919021 60.505544 
L 285.53471 59.456783 
L 264.559484 67.143017 
L 264.175172 66.094255 
L 285.150398 58.408022 
L 284.766086 57.35926 
z
" clip-path="url(#pa1746ca53a)" style="fill: #ff0000; stroke: #ff0000; stroke-width: 0.24"/>
    <path d="M 293.155885 56.984426 
L 288.916453 60.162181 
L 288.563531 59.102444 
L 267.3688 66.16089 
L 267.015877 65.101153 
L 288.210609 58.042708 
L 287.857687 56.982971 
z
" clip-path="url(#pa1746ca53a)" style="fill: #ff0000; stroke: #ff0000; stroke-width: 0.24"/>
    <path d="M 296.255157 56.857761 
L 291.923007 59.907905 
L 291.601788 58.838132 
L 270.20633 65.262512 
L 269.885111 64.192739 
L 291.280569 57.76836 
L 290.95935 56.698587 
z
" clip-path="url(#pa1746ca53a)" style="fill: #ff0000; stroke: #ff0000; stroke-width: 0.24"/>
    <path d="M 299.356657 56.823603 
L 294.935632 59.743439 
L 294.6464 58.664578 
L 273.069184 64.449219 
L 272.779952 63.370358 
L 294.357167 57.585717 
L 294.067935 56.506856 
z
" clip-path="url(#pa1746ca53a)" style="fill: #ff0000; stroke: #ff0000; stroke-width: 0.24"/>
    <path d="M 302.457746 56.881759 
L 297.951761 59.668693 
L 297.694773 58.5817 
L 275.95492 63.721454 
L 275.697932 62.634461 
L 297.437785 57.494707 
L 297.180797 56.407715 
z
" clip-path="url(#pa1746ca53a)" style="fill: #ff0000; stroke: #ff0000; stroke-width: 0.24"/>
    <path d="M 305.556 57.032145 
L 300.969051 59.683711 
L 300.744534 58.58955 
L 278.861317 63.079883 
L 278.6368 61.985722 
L 300.520018 57.495389 
L 300.295501 56.401228 
z
" clip-path="url(#pa1746ca53a)" style="fill: #ff0000; stroke: #ff0000; stroke-width: 0.24"/>
    <path d="M 308.648147 57.274555 
L 303.984298 59.788399 
L 303.792452 58.68804 
L 281.785262 62.52495 
L 281.593417 61.424591 
L 303.600607 57.58768 
L 303.408761 56.487321 
z
" clip-path="url(#pa1746ca53a)" style="fill: #ff0000; stroke: #ff0000; stroke-width: 0.24"/>
    <path d="M 306.342263 58.459127 
L 301.605649 60.833025 
L 301.446643 59.727442 
L 279.33499 62.907551 
L 279.175985 61.801968 
L 301.287638 58.62186 
L 301.128633 57.516277 
z
" clip-path="url(#pa1746ca53a)" style="fill: #ff0000; stroke: #ff0000; stroke-width: 0.24"/>
    <path d="M 303.478021 59.648965 
L 298.672839 61.880809 
L 298.546815 60.770983 
L 276.350294 63.291449 
L 276.224271 62.181623 
L 298.420792 59.661157 
L 298.294769 58.551331 
z
" clip-path="url(#pa1746ca53a)" style="fill: #ff0000; stroke: #ff0000; stroke-width: 0.24"/>
    <path d="M 306.381891 60.138111 
L 301.51555 62.233254 
L 301.420944 61.12031 
L 279.162054 63.012428 
L 279.067448 61.899484 
L 301.326338 60.007365 
L 301.231732 58.894421 
z
" clip-path="url(#pa1746ca53a)" style="fill: #ff0000; stroke: #ff0000; stroke-width: 0.24"/>
    <path d="M 309.270901 60.709092 
L 304.347288 62.665859 
L 304.284176 61.550685 
L 281.9807 62.812937 
L 281.917588 61.697763 
L 304.221063 60.435511 
L 304.157951 59.320338 
z
" clip-path="url(#pa1746ca53a)" style="fill: #ff0000; stroke: #ff0000; stroke-width: 0.24"/>
    <path d="M 308.819599 61.482804 
L 303.842649 63.299633 
L 303.81108 62.183121 
L 281.480839 62.8145 
L 281.44927 61.697988 
L 303.779511 61.066609 
L 303.747942 59.950096 
z
" clip-path="url(#pa1746ca53a)" style="fill: #ff0000; stroke: #ff0000; stroke-width: 0.24"/>
    <path d="M 305.989436 62.296454 
L 300.963124 63.971892 
L 300.963124 62.854933 
L 278.623959 62.854933 
L 278.623959 61.737975 
L 300.963124 61.737975 
L 300.963124 60.621017 
z
" clip-path="url(#pa1746ca53a)" style="fill: #ff0000; stroke: #ff0000; stroke-width: 0.24"/>
   </g>
   <g id="matplotlib.axis_1">
    <g id="xtick_1">
     <g id="line2d_1">
      <defs>
       <path id="mcd84bd7a5b" d="M 0 0 
L 0 -3 
" style="stroke: #000000"/>
      </defs>
      <g>
       <use xlink:href="#mcd84bd7a5b" x="49.971437" y="290.32" style="stroke: #000000"/>
      </g>
     </g>
     <g id="text_1">
      <!-- 6 -->
      <g transform="translate(42.231789 303.898359) scale(0.105 -0.105)">
       <defs>
        <path id="DejaVuSans-2212" d="M 678 2272 
L 4684 2272 
L 4684 1741 
L 678 1741 
L 678 2272 
z
" transform="scale(0.015625)"/>
        <path id="DejaVuSans-36" d="M 2113 2584 
Q 1688 2584 1439 2293 
Q 1191 2003 1191 1497 
Q 1191 994 1439 701 
Q 1688 409 2113 409 
Q 2538 409 2786 701 
Q 3034 994 3034 1497 
Q 3034 2003 2786 2293 
Q 2538 2584 2113 2584 
z
M 3366 4563 
L 3366 3988 
Q 3128 4100 2886 4159 
Q 2644 4219 2406 4219 
Q 1781 4219 1451 3797 
Q 1122 3375 1075 2522 
Q 1259 2794 1537 2939 
Q 1816 3084 2150 3084 
Q 2853 3084 3261 2657 
Q 3669 2231 3669 1497 
Q 3669 778 3244 343 
Q 2819 -91 2113 -91 
Q 1303 -91 875 529 
Q 447 1150 447 2328 
Q 447 3434 972 4092 
Q 1497 4750 2381 4750 
Q 2619 4750 2861 4703 
Q 3103 4656 3366 4563 
z
" transform="scale(0.015625)"/>
       </defs>
       <use xlink:href="#DejaVuSans-2212"/>
       <use xlink:href="#DejaVuSans-36" x="83.789062"/>
      </g>
     </g>
    </g>
    <g id="xtick_2">
     <g id="line2d_2">
      <g>
       <use xlink:href="#mcd84bd7a5b" x="94.649767" y="290.32" style="stroke: #000000"/>
      </g>
     </g>
     <g id="text_2">
      <!-- 4 -->
      <g transform="translate(86.910118 303.898359) scale(0.105 -0.105)">
       <defs>
        <path id="DejaVuSans-34" d="M 2419 4116 
L 825 1625 
L 2419 1625 
L 2419 4116 
z
M 2253 4666 
L 3047 4666 
L 3047 1625 
L 3713 1625 
L 3713 1100 
L 3047 1100 
L 3047 0 
L 2419 0 
L 2419 1100 
L 313 1100 
L 313 1709 
L 2253 4666 
z
" transform="scale(0.015625)"/>
       </defs>
       <use xlink:href="#DejaVuSans-2212"/>
       <use xlink:href="#DejaVuSans-34" x="83.789062"/>
      </g>
     </g>
    </g>
    <g id="xtick_3">
     <g id="line2d_3">
      <g>
       <use xlink:href="#mcd84bd7a5b" x="139.328097" y="290.32" style="stroke: #000000"/>
      </g>
     </g>
     <g id="text_3">
      <!-- 2 -->
      <g transform="translate(131.588448 303.898359) scale(0.105 -0.105)">
       <defs>
        <path id="DejaVuSans-32" d="M 1228 531 
L 3431 531 
L 3431 0 
L 469 0 
L 469 531 
Q 828 903 1448 1529 
Q 2069 2156 2228 2338 
Q 2531 2678 2651 2914 
Q 2772 3150 2772 3378 
Q 2772 3750 2511 3984 
Q 2250 4219 1831 4219 
Q 1534 4219 1204 4116 
Q 875 4013 500 3803 
L 500 4441 
Q 881 4594 1212 4672 
Q 1544 4750 1819 4750 
Q 2544 4750 2975 4387 
Q 3406 4025 3406 3419 
Q 3406 3131 3298 2873 
Q 3191 2616 2906 2266 
Q 2828 2175 2409 1742 
Q 1991 1309 1228 531 
z
" transform="scale(0.015625)"/>
       </defs>
       <use xlink:href="#DejaVuSans-2212"/>
       <use xlink:href="#DejaVuSans-32" x="83.789062"/>
      </g>
     </g>
    </g>
    <g id="xtick_4">
     <g id="line2d_4">
      <g>
       <use xlink:href="#mcd84bd7a5b" x="184.006427" y="290.32" style="stroke: #000000"/>
      </g>
     </g>
     <g id="text_4">
      <!-- 0 -->
      <g transform="translate(180.666114 303.898359) scale(0.105 -0.105)">
       <defs>
        <path id="DejaVuSans-30" d="M 2034 4250 
Q 1547 4250 1301 3770 
Q 1056 3291 1056 2328 
Q 1056 1369 1301 889 
Q 1547 409 2034 409 
Q 2525 409 2770 889 
Q 3016 1369 3016 2328 
Q 3016 3291 2770 3770 
Q 2525 4250 2034 4250 
z
M 2034 4750 
Q 2819 4750 3233 4129 
Q 3647 3509 3647 2328 
Q 3647 1150 3233 529 
Q 2819 -91 2034 -91 
Q 1250 -91 836 529 
Q 422 1150 422 2328 
Q 422 3509 836 4129 
Q 1250 4750 2034 4750 
z
" transform="scale(0.015625)"/>
       </defs>
       <use xlink:href="#DejaVuSans-30"/>
      </g>
     </g>
    </g>
    <g id="xtick_5">
     <g id="line2d_5">
      <g>
       <use xlink:href="#mcd84bd7a5b" x="228.684756" y="290.32" style="stroke: #000000"/>
      </g>
     </g>
     <g id="text_5">
      <!-- 2 -->
      <g transform="translate(225.344444 303.898359) scale(0.105 -0.105)">
       <use xlink:href="#DejaVuSans-32"/>
      </g>
     </g>
    </g>
    <g id="xtick_6">
     <g id="line2d_6">
      <g>
       <use xlink:href="#mcd84bd7a5b" x="273.363086" y="290.32" style="stroke: #000000"/>
      </g>
     </g>
     <g id="text_6">
      <!-- 4 -->
      <g transform="translate(270.022774 303.898359) scale(0.105 -0.105)">
       <use xlink:href="#DejaVuSans-34"/>
      </g>
     </g>
    </g>
    <g id="xtick_7">
     <g id="line2d_7">
      <g>
       <use xlink:href="#mcd84bd7a5b" x="318.041416" y="290.32" style="stroke: #000000"/>
      </g>
     </g>
     <g id="text_7">
      <!-- 6 -->
      <g transform="translate(314.701103 303.898359) scale(0.105 -0.105)">
       <use xlink:href="#DejaVuSans-36"/>
      </g>
     </g>
    </g>
    <g id="xtick_8">
     <g id="line2d_8">
      <g>
       <use xlink:href="#mcd84bd7a5b" x="362.719746" y="290.32" style="stroke: #000000"/>
      </g>
     </g>
     <g id="text_8">
      <!-- 8 -->
      <g transform="translate(359.379433 303.898359) scale(0.105 -0.105)">
       <defs>
        <path id="DejaVuSans-38" d="M 2034 2216 
Q 1584 2216 1326 1975 
Q 1069 1734 1069 1313 
Q 1069 891 1326 650 
Q 1584 409 2034 409 
Q 2484 409 2743 651 
Q 3003 894 3003 1313 
Q 3003 1734 2745 1975 
Q 2488 2216 2034 2216 
z
M 1403 2484 
Q 997 2584 770 2862 
Q 544 3141 544 3541 
Q 544 4100 942 4425 
Q 1341 4750 2034 4750 
Q 2731 4750 3128 4425 
Q 3525 4100 3525 3541 
Q 3525 3141 3298 2862 
Q 3072 2584 2669 2484 
Q 3125 2378 3379 2068 
Q 3634 1759 3634 1313 
Q 3634 634 3220 271 
Q 2806 -91 2034 -91 
Q 1263 -91 848 271 
Q 434 634 434 1313 
Q 434 1759 690 2068 
Q 947 2378 1403 2484 
z
M 1172 3481 
Q 1172 3119 1398 2916 
Q 1625 2713 2034 2713 
Q 2441 2713 2670 2916 
Q 2900 3119 2900 3481 
Q 2900 3844 2670 4047 
Q 2441 4250 2034 4250 
Q 1625 4250 1398 4047 
Q 1172 3844 1172 3481 
z
" transform="scale(0.015625)"/>
       </defs>
       <use xlink:href="#DejaVuSans-38"/>
      </g>
     </g>
    </g>
    <g id="xtick_9">
     <g id="line2d_9">
      <g>
       <use xlink:href="#mcd84bd7a5b" x="407.398076" y="290.32" style="stroke: #000000"/>
      </g>
     </g>
     <g id="text_9">
      <!-- 10 -->
      <g transform="translate(400.717451 303.898359) scale(0.105 -0.105)">
       <defs>
        <path id="DejaVuSans-31" d="M 794 531 
L 1825 531 
L 1825 4091 
L 703 3866 
L 703 4441 
L 1819 4666 
L 2450 4666 
L 2450 531 
L 3481 531 
L 3481 0 
L 794 0 
L 794 531 
z
" transform="scale(0.015625)"/>
       </defs>
       <use xlink:href="#DejaVuSans-31"/>
       <use xlink:href="#DejaVuSans-30" x="63.623047"/>
      </g>
     </g>
    </g>
   </g>
   <g id="matplotlib.axis_2">
    <g id="ytick_1">
     <g id="line2d_10">
      <defs>
       <path id="m6c6299502c" d="M 0 0 
L 3 0 
" style="stroke: #000000"/>
      </defs>
      <g>
       <use xlink:href="#m6c6299502c" x="41.070596" y="268.93373" style="stroke: #000000"/>
      </g>
     </g>
     <g id="text_10">
      <!-- 8 -->
      <g transform="translate(19.9913 272.922909) scale(0.105 -0.105)">
       <use xlink:href="#DejaVuSans-2212"/>
       <use xlink:href="#DejaVuSans-38" x="83.789062"/>
      </g>
     </g>
    </g>
    <g id="ytick_2">
     <g id="line2d_11">
      <g>
       <use xlink:href="#m6c6299502c" x="41.070596" y="224.2554" style="stroke: #000000"/>
      </g>
     </g>
     <g id="text_11">
      <!-- 6 -->
      <g transform="translate(19.9913 228.24458) scale(0.105 -0.105)">
       <use xlink:href="#DejaVuSans-2212"/>
       <use xlink:href="#DejaVuSans-36" x="83.789062"/>
      </g>
     </g>
    </g>
    <g id="ytick_3">
     <g id="line2d_12">
      <g>
       <use xlink:href="#m6c6299502c" x="41.070596" y="179.57707" style="stroke: #000000"/>
      </g>
     </g>
     <g id="text_12">
      <!-- 4 -->
      <g transform="translate(19.9913 183.56625) scale(0.105 -0.105)">
       <use xlink:href="#DejaVuSans-2212"/>
       <use xlink:href="#DejaVuSans-34" x="83.789062"/>
      </g>
     </g>
    </g>
    <g id="ytick_4">
     <g id="line2d_13">
      <g>
       <use xlink:href="#m6c6299502c" x="41.070596" y="134.89874" style="stroke: #000000"/>
      </g>
     </g>
     <g id="text_13">
      <!-- 2 -->
      <g transform="translate(19.9913 138.88792) scale(0.105 -0.105)">
       <use xlink:href="#DejaVuSans-2212"/>
       <use xlink:href="#DejaVuSans-32" x="83.789062"/>
      </g>
     </g>
    </g>
    <g id="ytick_5">
     <g id="line2d_14">
      <g>
       <use xlink:href="#m6c6299502c" x="41.070596" y="90.22041" style="stroke: #000000"/>
      </g>
     </g>
     <g id="text_14">
      <!-- 0 -->
      <g transform="translate(28.789971 94.20959) scale(0.105 -0.105)">
       <use xlink:href="#DejaVuSans-30"/>
      </g>
     </g>
    </g>
    <g id="ytick_6">
     <g id="line2d_15">
      <g>
       <use xlink:href="#m6c6299502c" x="41.070596" y="45.542081" style="stroke: #000000"/>
      </g>
     </g>
     <g id="text_15">
      <!-- 2 -->
      <g transform="translate(28.789971 49.53126) scale(0.105 -0.105)">
       <use xlink:href="#DejaVuSans-32"/>
      </g>
     </g>
    </g>
   </g>
   <g id="patch_3">
    <path d="M 41.070596 290.32 
L 41.070596 10.8 
" style="fill: none; stroke: #000000; stroke-width: 0.8; stroke-linejoin: miter; stroke-linecap: square"/>
   </g>
   <g id="patch_4">
    <path d="M 433.47374 290.32 
L 433.47374 10.8 
" style="fill: none; stroke: #000000; stroke-width: 0.8; stroke-linejoin: miter; stroke-linecap: square"/>
   </g>
   <g id="patch_5">
    <path d="M 41.070596 290.32 
L 433.47374 290.32 
" style="fill: none; stroke: #000000; stroke-width: 0.8; stroke-linejoin: miter; stroke-linecap: square"/>
   </g>
   <g id="patch_6">
    <path d="M 41.070596 10.8 
L 433.47374 10.8 
" style="fill: none; stroke: #000000; stroke-width: 0.8; stroke-linejoin: miter; stroke-linecap: square"/>
   </g>
  </g>
 </g>
 <defs>
  <clipPath id="pa1746ca53a">
   <rect x="41.070596" y="10.8" width="392.403144" height="279.52"/>
  </clipPath>
 </defs>
</svg>
