<?xml version="1.0" encoding="utf-8" standalone="no"?>
<!DOCTYPE svg PUBLIC "-//W3C//DTD SVG 1.1//EN"
  "http://www.w3.org/Graphics/SVG/1.1/DTD/svg11.dtd">
<svg xmlns:xlink="http://www.w3.org/1999/xlink" width="460.8pt" height="316.8pt" viewBox="0 0 460.8 316.8" xmlns="http://www.w3.org/2000/svg" version="1.1">
 <metadata>
  <rdf:RDF xmlns:dc="http://purl.org/dc/elements/1.1/" xmlns:cc="http://creativecommons.org/ns#" xmlns:rdf="http://www.w3.org/1999/02/22-rdf-syntax-ns#">
   <cc:Work>
    <dc:type rdf:resource="http://purl.org/dc/dcmitype/StillImage"/>
    <dc:date>2024-01-11T15:51:13.906145</dc:date>
    <dc:format>image/svg+xml</dc:format>
    <dc:creator>
     <cc:Agent>
      <dc:title>Matplotlib v3.7.2, https://matplotlib.org/</dc:title>
     </cc:Agent>
    </dc:creator>
   </cc:Work>
  </rdf:RDF>
 </metadata>
 <defs>
  <style type="text/css">*{stroke-linejoin: round; stroke-linecap: butt}</style>
 </defs>
 <g id="figure_1">
  <g id="patch_1">
   <path d="M 0 316.8 
L 460.8 316.8 
L 460.8 0 
L 0 0 
z
" style="fill: #ffffff"/>
  </g>
  <g id="axes_1">
   <g id="patch_2">
    <path d="M 31.88 260.882846 
L 450 260.882846 
L 450 55.917154 
L 31.88 55.917154 
z
" style="fill: #ffffff"/>
   </g>
   <g id="PatchCollection_1">
    <path d="M 241.761336 144.426876 
L 351.262622 144.426876 
L 351.262622 98.80134 
L 241.761336 98.80134 
z
" clip-path="url(#p44cdc93d2b)" style="fill: #ffffff; stroke: #0000ff; stroke-width: 3"/>
    <path d="M 114.009837 93.326276 
L 163.093786 163.425421 
L 192.126104 143.096773 
L 143.042155 72.997628 
z
" clip-path="url(#p44cdc93d2b)" style="fill: #ff0000; stroke: #ff0000; stroke-width: 2"/>
    <path d="M 347.612579 153.551983 
L 430.994545 134.301739 
L 423.021849 99.768197 
L 339.639883 119.018441 
z
" clip-path="url(#p44cdc93d2b)" style="fill: #ff0000; stroke: #ff0000; stroke-width: 2"/>
   </g>
   <g id="PatchCollection_2">
    <path d="M 63.639245 198.648262 
L 149.2145 198.648262 
L 149.2145 163.206346 
L 63.639245 163.206346 
L 63.639245 198.648262 
z
" clip-path="url(#p44cdc93d2b)" style="fill: none; stroke: #000000; stroke-width: 0.5"/>
    <path d="M 58.431206 194.861334 
L 143.885594 199.407953 
L 145.768626 164.016095 
L 60.314237 159.469476 
L 58.431206 194.861334 
z
" clip-path="url(#p44cdc93d2b)" style="fill: none; stroke: #000000; stroke-width: 0.5"/>
    <path d="M 53.431987 190.803135 
L 138.524119 199.883514 
L 142.284856 164.641688 
L 57.192724 155.561309 
L 53.431987 190.803135 
z
" clip-path="url(#p44cdc93d2b)" style="fill: none; stroke: #000000; stroke-width: 0.5"/>
    <path d="M 50.885455 186.828143 
L 135.374963 200.41664 
L 141.002785 165.424397 
L 56.513277 151.835901 
L 50.885455 186.828143 
z
" clip-path="url(#p44cdc93d2b)" style="fill: none; stroke: #000000; stroke-width: 0.5"/>
    <path d="M 54.924001 183.877144 
L 138.57222 201.935373 
L 146.051231 167.291559 
L 62.403011 149.23333 
L 54.924001 183.877144 
z
" clip-path="url(#p44cdc93d2b)" style="fill: none; stroke: #000000; stroke-width: 0.5"/>
    <path d="M 59.113674 181.144785 
L 141.684316 203.621736 
L 150.993388 169.424213 
L 68.422746 146.947262 
L 59.113674 181.144785 
z
" clip-path="url(#p44cdc93d2b)" style="fill: none; stroke: #000000; stroke-width: 0.5"/>
    <path d="M 63.442573 178.63897 
L 144.702393 205.47115 
L 155.81523 171.816518 
L 74.555411 144.984338 
L 63.442573 178.63897 
z
" clip-path="url(#p44cdc93d2b)" style="fill: none; stroke: #000000; stroke-width: 0.5"/>
    <path d="M 67.898597 176.366679 
L 147.618052 207.478294 
L 160.503264 174.46162 
L 80.783808 143.350005 
L 67.898597 176.366679 
z
" clip-path="url(#p44cdc93d2b)" style="fill: none; stroke: #000000; stroke-width: 0.5"/>
    <path d="M 72.468908 174.334423 
L 150.422773 209.637667 
L 165.043993 177.352231 
L 87.090127 142.048987 
L 72.468908 174.334423 
z
" clip-path="url(#p44cdc93d2b)" style="fill: none; stroke: #000000; stroke-width: 0.5"/>
    <path d="M 77.140806 172.547759 
L 153.10891 211.942827 
L 169.424803 180.479816 
L 93.456699 141.084748 
L 77.140806 172.547759 
z
" clip-path="url(#p44cdc93d2b)" style="fill: none; stroke: #000000; stroke-width: 0.5"/>
    <path d="M 81.901063 171.011937 
L 155.668811 214.387547 
L 173.633288 183.835837 
L 99.86554 140.460227 
L 81.901063 171.011937 
z
" clip-path="url(#p44cdc93d2b)" style="fill: none; stroke: #000000; stroke-width: 0.5"/>
    <path d="M 86.736072 169.731055 
L 158.095086 216.96468 
L 177.657402 187.410574 
L 106.298388 140.176948 
L 86.736072 169.731055 
z
" clip-path="url(#p44cdc93d2b)" style="fill: none; stroke: #000000; stroke-width: 0.5"/>
    <path d="M 91.632415 168.708873 
L 160.381121 219.667089 
L 181.486016 191.19407 
L 112.73731 140.235854 
L 91.632415 168.708873 
z
" clip-path="url(#p44cdc93d2b)" style="fill: none; stroke: #000000; stroke-width: 0.5"/>
    <path d="M 96.576137 167.948421 
L 162.520334 222.48728 
L 185.108191 195.175779 
L 119.163995 140.63692 
L 96.576137 167.948421 
z
" clip-path="url(#p44cdc93d2b)" style="fill: none; stroke: #000000; stroke-width: 0.5"/>
    <path d="M 101.553308 167.451602 
L 164.506717 225.417044 
L 188.513731 199.344209 
L 125.560322 141.378767 
L 101.553308 167.451602 
z
" clip-path="url(#p44cdc93d2b)" style="fill: none; stroke: #000000; stroke-width: 0.5"/>
    <path d="M 103.386479 173.173796 
L 168.867032 228.268453 
L 191.68508 201.148975 
L 126.204526 146.054317 
L 103.386479 173.173796 
z
" clip-path="url(#p44cdc93d2b)" style="fill: none; stroke: #000000; stroke-width: 0.5"/>
    <path d="M 105.263284 179.333476 
L 173.578531 230.871338 
L 194.923493 202.577841 
L 126.608246 151.039979 
L 105.263284 179.333476 
z
" clip-path="url(#p44cdc93d2b)" style="fill: none; stroke: #000000; stroke-width: 0.5"/>
    <path d="M 107.464777 185.384513 
L 178.421741 233.219996 
L 198.233323 203.832403 
L 127.276359 155.99692 
L 107.464777 185.384513 
z
" clip-path="url(#p44cdc93d2b)" style="fill: none; stroke: #000000; stroke-width: 0.5"/>
    <path d="M 109.984738 191.310221 
L 183.38298 235.3082 
L 201.605219 204.909525 
L 128.206976 160.911546 
L 109.984738 191.310221 
z
" clip-path="url(#p44cdc93d2b)" style="fill: none; stroke: #000000; stroke-width: 0.5"/>
    <path d="M 103.575448 193.383405 
L 179.932925 232.018362 
L 195.93401 200.394088 
L 119.576533 161.759131 
L 103.575448 193.383405 
z
" clip-path="url(#p44cdc93d2b)" style="fill: none; stroke: #000000; stroke-width: 0.5"/>
    <path d="M 97.331046 195.90989 
L 176.256549 228.983885 
L 189.954501 196.296035 
L 111.028998 163.22204 
L 97.331046 195.90989 
z
" clip-path="url(#p44cdc93d2b)" style="fill: none; stroke: #000000; stroke-width: 0.5"/>
    <path d="M 91.28338 198.876629 
L 172.372518 226.220292 
L 183.697191 192.63635 
L 102.608053 165.292687 
L 91.28338 198.876629 
z
" clip-path="url(#p44cdc93d2b)" style="fill: none; stroke: #000000; stroke-width: 0.5"/>
    <path d="M 85.463349 202.268328 
L 168.300705 223.741489 
L 177.194047 189.433503 
L 94.356691 167.960342 
L 85.463349 202.268328 
z
" clip-path="url(#p44cdc93d2b)" style="fill: none; stroke: #000000; stroke-width: 0.5"/>
    <path d="M 90.657795 208.423077 
L 174.818963 223.91572 
L 181.235408 189.059463 
L 97.07424 173.56682 
L 90.657795 208.423077 
z
" clip-path="url(#p44cdc93d2b)" style="fill: none; stroke: #000000; stroke-width: 0.5"/>
    <path d="M 97.012509 214.323803 
L 182.066291 223.756639 
L 185.973002 188.530697 
L 100.91922 179.09786 
L 97.012509 214.323803 
z
" clip-path="url(#p44cdc93d2b)" style="fill: none; stroke: #000000; stroke-width: 0.5"/>
    <path d="M 103.77302 219.755009 
L 189.28367 223.079618 
L 190.660593 187.664459 
L 105.149943 184.33985 
L 103.77302 219.755009 
z
" clip-path="url(#p44cdc93d2b)" style="fill: none; stroke: #000000; stroke-width: 0.5"/>
    <path d="M 110.904782 224.688457 
L 196.434196 221.887839 
L 195.27429 186.464908 
L 109.744876 189.265526 
L 110.904782 224.688457 
z
" clip-path="url(#p44cdc93d2b)" style="fill: none; stroke: #000000; stroke-width: 0.5"/>
    <path d="M 118.371067 229.099322 
L 203.481056 220.187869 
L 199.790282 184.938647 
L 114.680293 193.8501 
L 118.371067 229.099322 
z
" clip-path="url(#p44cdc93d2b)" style="fill: none; stroke: #000000; stroke-width: 0.5"/>
    <path d="M 126.133772 232.964672 
L 210.388283 217.987972 
L 204.185521 183.093056 
L 119.93101 198.069756 
L 126.133772 232.964672 
z
" clip-path="url(#p44cdc93d2b)" style="fill: none; stroke: #000000; stroke-width: 0.5"/>
    <path d="M 134.153183 236.265007 
L 217.120549 215.299791 
L 208.437579 180.93796 
L 125.470212 201.903176 
L 134.153183 236.265007 
z
" clip-path="url(#p44cdc93d2b)" style="fill: none; stroke: #000000; stroke-width: 0.5"/>
    <path d="M 142.387871 238.983052 
L 223.643048 212.136813 
L 212.524388 178.484104 
L 131.269212 205.330343 
L 142.387871 238.983052 
z
" clip-path="url(#p44cdc93d2b)" style="fill: none; stroke: #000000; stroke-width: 0.5"/>
    <path d="M 150.796167 241.105161 
L 229.922831 208.51536 
L 216.425414 175.744197 
L 137.298749 208.333998 
L 150.796167 241.105161 
z
" clip-path="url(#p44cdc93d2b)" style="fill: none; stroke: #000000; stroke-width: 0.5"/>
    <path d="M 159.334725 242.62052 
L 235.927484 204.454127 
L 220.12046 172.732409 
L 143.527702 210.898802 
L 159.334725 242.62052 
z
" clip-path="url(#p44cdc93d2b)" style="fill: none; stroke: #000000; stroke-width: 0.5"/>
    <path d="M 167.959614 243.521084 
L 241.626096 199.973712 
L 223.590482 169.463943 
L 149.924 213.011314 
L 167.959614 243.521084 
z
" clip-path="url(#p44cdc93d2b)" style="fill: none; stroke: #000000; stroke-width: 0.5"/>
    <path d="M 176.626917 243.802372 
L 246.989665 195.097055 
L 226.817832 165.955563 
L 156.455084 214.66088 
L 176.626917 243.802372 
z
" clip-path="url(#p44cdc93d2b)" style="fill: none; stroke: #000000; stroke-width: 0.5"/>
    <path d="M 185.292157 243.463071 
L 251.990676 189.849343 
L 229.785972 162.225431 
L 163.087453 215.839159 
L 185.292157 243.463071 
z
" clip-path="url(#p44cdc93d2b)" style="fill: none; stroke: #000000; stroke-width: 0.5"/>
    <path d="M 193.910928 242.504605 
L 256.603497 184.25715 
L 232.479684 158.292346 
L 169.787115 216.5398 
L 193.910928 242.504605 
z
" clip-path="url(#p44cdc93d2b)" style="fill: none; stroke: #000000; stroke-width: 0.5"/>
    <path d="M 202.438998 240.93223 
L 260.804483 178.349529 
L 234.885181 154.176833 
L 176.519697 216.759534 
L 202.438998 240.93223 
z
" clip-path="url(#p44cdc93d2b)" style="fill: none; stroke: #000000; stroke-width: 0.5"/>
    <path d="M 210.832811 238.753785 
L 264.572125 172.15641 
L 236.990103 149.899693 
L 183.250789 216.497067 
L 210.832811 238.753785 
z
" clip-path="url(#p44cdc93d2b)" style="fill: none; stroke: #000000; stroke-width: 0.5"/>
    <path d="M 219.049311 235.980642 
L 267.887128 165.709795 
L 238.783697 145.483086 
L 189.945881 215.753933 
L 219.049311 235.980642 
z
" clip-path="url(#p44cdc93d2b)" style="fill: none; stroke: #000000; stroke-width: 0.5"/>
    <path d="M 227.046311 232.626615 
L 270.73249 159.042364 
L 240.256778 140.949261 
L 196.570599 214.533512 
L 227.046311 232.626615 
z
" clip-path="url(#p44cdc93d2b)" style="fill: none; stroke: #000000; stroke-width: 0.5"/>
    <path d="M 227.842328 226.893991 
L 273.913092 154.778743 
L 244.045784 135.698039 
L 197.975019 207.813286 
L 227.842328 226.893991 
z
" clip-path="url(#p44cdc93d2b)" style="fill: none; stroke: #000000; stroke-width: 0.5"/>
    <path d="M 226.419599 220.309677 
L 277.53102 151.674795 
L 249.105142 130.506449 
L 197.993722 199.14133 
L 226.419599 220.309677 
z
" clip-path="url(#p44cdc93d2b)" style="fill: none; stroke: #000000; stroke-width: 0.5"/>
    <path d="M 225.471652 213.640494 
L 281.361721 148.837528 
L 254.522873 125.690052 
L 198.632804 190.493018 
L 225.471652 213.640494 
z
" clip-path="url(#p44cdc93d2b)" style="fill: none; stroke: #000000; stroke-width: 0.5"/>
    <path d="M 225.003232 206.920603 
L 285.385606 146.281562 
L 260.271292 121.27355 
L 199.888919 181.912591 
L 225.003232 206.920603 
z
" clip-path="url(#p44cdc93d2b)" style="fill: none; stroke: #000000; stroke-width: 0.5"/>
    <path d="M 225.016577 200.184445 
L 289.581837 144.019942 
L 266.320701 117.279542 
L 201.755441 173.444045 
L 225.016577 200.184445 
z
" clip-path="url(#p44cdc93d2b)" style="fill: none; stroke: #000000; stroke-width: 0.5"/>
    <path d="M 225.511835 193.466462 
L 293.92925 142.064307 
L 272.640493 113.728495 
L 204.223078 165.13065 
L 225.511835 193.466462 
z
" clip-path="url(#p44cdc93d2b)" style="fill: none; stroke: #000000; stroke-width: 0.5"/>
    <path d="M 226.486404 186.801121 
L 298.405447 140.424667 
L 279.198137 110.638618 
L 207.279095 157.015072 
L 226.486404 186.801121 
z
" clip-path="url(#p44cdc93d2b)" style="fill: none; stroke: #000000; stroke-width: 0.5"/>
    <path d="M 227.935229 180.222598 
L 302.987391 139.109374 
L 285.959905 108.02571 
L 210.907743 149.138935 
L 227.935229 180.222598 
z
" clip-path="url(#p44cdc93d2b)" style="fill: none; stroke: #000000; stroke-width: 0.5"/>
    <path d="M 229.850933 173.764533 
L 307.65174 138.125248 
L 292.891345 105.903203 
L 215.090538 141.542488 
L 229.850933 173.764533 
z
" clip-path="url(#p44cdc93d2b)" style="fill: none; stroke: #000000; stroke-width: 0.5"/>
    <path d="M 232.223657 167.460014 
L 312.374507 137.477262 
L 299.956826 104.281921 
L 219.805976 134.264673 
L 232.223657 167.460014 
z
" clip-path="url(#p44cdc93d2b)" style="fill: none; stroke: #000000; stroke-width: 0.5"/>
    <path d="M 235.041171 161.341436 
L 317.131398 137.168747 
L 307.120018 103.170193 
L 225.029791 127.342882 
L 235.041171 161.341436 
z
" clip-path="url(#p44cdc93d2b)" style="fill: none; stroke: #000000; stroke-width: 0.5"/>
    <path d="M 238.289242 155.439983 
L 321.898297 137.201284 
L 314.344543 102.57369 
L 230.735488 120.81239 
L 238.289242 155.439983 
z
" clip-path="url(#p44cdc93d2b)" style="fill: none; stroke: #000000; stroke-width: 0.5"/>
    <path d="M 241.951246 149.786072 
L 326.650769 137.574805 
L 321.593341 102.495583 
L 236.893818 114.70685 
L 241.951246 149.786072 
z
" clip-path="url(#p44cdc93d2b)" style="fill: none; stroke: #000000; stroke-width: 0.5"/>
    <path d="M 246.008143 144.408649 
L 331.364183 138.287318 
L 328.828967 102.936192 
L 243.472927 109.057523 
L 246.008143 144.408649 
z
" clip-path="url(#p44cdc93d2b)" style="fill: none; stroke: #000000; stroke-width: 0.5"/>
    <path d="M 250.439313 139.335066 
L 336.014568 139.335066 
L 336.014568 103.89315 
L 250.439313 103.89315 
L 250.439313 139.335066 
z
" clip-path="url(#p44cdc93d2b)" style="fill: none; stroke: #000000; stroke-width: 0.5"/>
   </g>
   <g id="PatchCollection_3">
    <path d="M 154.616563 180.927304 
L 150.510265 182.29607 
L 150.510265 181.38356 
L 132.260051 181.38356 
L 132.260051 180.471049 
L 150.510265 180.471049 
L 150.510265 179.558538 
z
" clip-path="url(#p44cdc93d2b)" style="fill: #ff0000; stroke: #ff0000; stroke-width: 0.24"/>
    <path d="M 150.221543 181.999036 
L 146.048322 183.147701 
L 146.096804 182.236479 
L 127.872366 181.266844 
L 127.920848 180.355622 
L 146.145286 181.325257 
L 146.193767 180.414035 
z
" clip-path="url(#p44cdc93d2b)" style="fill: #ff0000; stroke: #ff0000; stroke-width: 0.24"/>
    <path d="M 145.776053 182.835813 
L 141.547698 183.761133 
L 141.644524 182.853774 
L 123.497343 180.917246 
L 123.594169 180.009887 
L 141.74135 181.946415 
L 141.838177 181.039056 
z
" clip-path="url(#p44cdc93d2b)" style="fill: #ff0000; stroke: #ff0000; stroke-width: 0.24"/>
    <path d="M 143.522398 183.778312 
L 139.250853 184.477673 
L 139.39575 183.57674 
L 121.377088 180.678788 
L 121.521985 179.777855 
L 139.540648 182.675806 
L 139.685545 181.774873 
z
" clip-path="url(#p44cdc93d2b)" style="fill: #ff0000; stroke: #ff0000; stroke-width: 0.24"/>
    <path d="M 147.592142 185.753418 
L 143.289472 186.224844 
L 143.482032 185.332882 
L 125.642787 181.481692 
L 125.835347 180.58973 
L 143.674591 184.440919 
L 143.867151 183.548957 
z
" clip-path="url(#p44cdc93d2b)" style="fill: #ff0000; stroke: #ff0000; stroke-width: 0.24"/>
    <path d="M 151.551245 187.941865 
L 147.229606 188.184024 
L 147.469283 187.303553 
L 129.859848 182.510004 
L 130.099525 181.629532 
L 147.708961 186.423081 
L 147.948638 185.542609 
z
" clip-path="url(#p44cdc93d2b)" style="fill: #ff0000; stroke: #ff0000; stroke-width: 0.24"/>
    <path d="M 155.388457 190.337655 
L 151.060056 190.349864 
L 151.346174 189.48337 
L 134.016291 183.761002 
L 134.30241 182.894508 
L 151.632292 188.616875 
L 151.918411 187.750381 
z
" clip-path="url(#p44cdc93d2b)" style="fill: #ff0000; stroke: #ff0000; stroke-width: 0.24"/>
    <path d="M 159.093065 192.933924 
L 154.770129 192.716147 
L 155.10188 191.866078 
L 138.100503 185.231057 
L 138.432254 184.380988 
L 155.433631 191.016009 
L 155.765382 190.165941 
z
" clip-path="url(#p44cdc93d2b)" style="fill: #ff0000; stroke: #ff0000; stroke-width: 0.24"/>
    <path d="M 162.654335 195.723518 
L 158.349075 195.276367 
L 158.725523 194.445125 
L 142.100685 186.916176 
L 142.477132 186.084934 
L 159.10197 193.613883 
L 159.478418 192.782641 
z
" clip-path="url(#p44cdc93d2b)" style="fill: #ff0000; stroke: #ff0000; stroke-width: 0.24"/>
    <path d="M 166.062454 198.698193 
L 161.787032 198.022936 
L 162.207112 197.212869 
L 146.005767 188.811276 
L 146.425847 188.001209 
L 162.627191 196.402801 
L 163.047271 195.592734 
z
" clip-path="url(#p44cdc93d2b)" style="fill: #ff0000; stroke: #ff0000; stroke-width: 0.24"/>
    <path d="M 169.307747 201.849841 
L 165.07424 200.948384 
L 165.536765 200.16178 
L 149.804679 190.911277 
L 150.267205 190.124672 
L 165.99929 199.375176 
L 166.461815 198.588571 
z
" clip-path="url(#p44cdc93d2b)" style="fill: #ff0000; stroke: #ff0000; stroke-width: 0.24"/>
    <path d="M 172.380886 205.169319 
L 168.201253 204.044209 
L 168.704917 203.28329 
L 153.486531 193.210006 
L 153.990195 192.449087 
L 169.208582 202.52237 
L 169.712246 201.761451 
z
" clip-path="url(#p44cdc93d2b)" style="fill: #ff0000; stroke: #ff0000; stroke-width: 0.24"/>
    <path d="M 175.273431 208.647391 
L 171.159478 207.301807 
L 171.702859 206.568722 
L 157.04116 195.701114 
L 157.58454 194.968029 
L 172.246239 205.835637 
L 172.789619 205.102552 
z
" clip-path="url(#p44cdc93d2b)" style="fill: #ff0000; stroke: #ff0000; stroke-width: 0.24"/>
    <path d="M 177.977087 212.274375 
L 173.940435 210.712117 
L 174.521997 210.008937 
L 160.458402 198.377703 
L 161.039964 197.674523 
L 175.103559 209.305757 
L 175.68512 208.602578 
z
" clip-path="url(#p44cdc93d2b)" style="fill: #ff0000; stroke: #ff0000; stroke-width: 0.24"/>
    <path d="M 180.48425 216.03978 
L 176.536303 214.265261 
L 177.154403 213.593973 
L 163.728639 201.231968 
L 164.346739 200.56068 
L 177.772504 212.922685 
L 178.390604 212.251397 
z
" clip-path="url(#p44cdc93d2b)" style="fill: #ff0000; stroke: #ff0000; stroke-width: 0.24"/>
    <path d="M 184.409612 218.186645 
L 180.386318 216.590301 
L 180.973807 215.892065 
L 167.009091 204.142298 
L 167.596579 203.444062 
L 181.561295 215.193829 
L 182.148783 214.495594 
z
" clip-path="url(#p44cdc93d2b)" style="fill: #ff0000; stroke: #ff0000; stroke-width: 0.24"/>
    <path d="M 188.563512 219.977992 
L 184.461088 218.597661 
L 185.010649 217.869198 
L 170.441392 206.877971 
L 170.990953 206.149508 
L 185.56021 217.140735 
L 186.109772 216.412272 
z
" clip-path="url(#p44cdc93d2b)" style="fill: #ff0000; stroke: #ff0000; stroke-width: 0.24"/>
    <path d="M 192.806795 221.545884 
L 188.636827 220.385464 
L 189.146909 219.628832 
L 174.014266 209.427193 
L 174.524348 208.670561 
L 189.656991 218.872199 
L 190.167073 218.115567 
z
" clip-path="url(#p44cdc93d2b)" style="fill: #ff0000; stroke: #ff0000; stroke-width: 0.24"/>
    <path d="M 197.127471 222.8863 
L 192.90174 221.949069 
L 193.370902 221.166404 
L 177.717619 211.783172 
L 178.186781 211.000507 
L 193.840063 220.38374 
L 194.309225 219.601076 
z
" clip-path="url(#p44cdc93d2b)" style="fill: #ff0000; stroke: #ff0000; stroke-width: 0.24"/>
    <path d="M 192.753645 218.645114 
L 188.471697 218.012558 
L 188.883671 217.198338 
L 172.599287 208.958851 
L 173.011262 208.144632 
L 189.295646 216.384119 
L 189.70762 215.5699 
z
" clip-path="url(#p44cdc93d2b)" style="fill: #ff0000; stroke: #ff0000; stroke-width: 0.24"/>
    <path d="M 188.087813 214.727805 
L 183.771587 214.403165 
L 184.124263 213.561562 
L 167.292209 206.508034 
L 167.644885 205.666431 
L 184.476939 212.719959 
L 184.829616 211.878357 
z
" clip-path="url(#p44cdc93d2b)" style="fill: #ff0000; stroke: #ff0000; stroke-width: 0.24"/>
    <path d="M 183.153725 211.15443 
L 178.825333 211.139365 
L 179.116906 210.274691 
L 161.823423 204.443242 
L 162.114996 203.578568 
L 179.408478 209.410017 
L 179.700051 208.545343 
z
" clip-path="url(#p44cdc93d2b)" style="fill: #ff0000; stroke: #ff0000; stroke-width: 0.24"/>
    <path d="M 177.976606 207.943021 
L 173.658224 208.237612 
L 173.887198 207.354297 
L 156.220882 202.774821 
L 156.449855 201.891505 
L 174.116172 206.470981 
L 174.345145 205.587665 
z
" clip-path="url(#p44cdc93d2b)" style="fill: #ff0000; stroke: #ff0000; stroke-width: 0.24"/>
    <path d="M 183.339983 207.465587 
L 179.053736 208.068326 
L 179.218938 207.170894 
L 161.270299 203.866854 
L 161.435501 202.969422 
L 179.38414 206.273462 
L 179.549342 205.37603 
z
" clip-path="url(#p44cdc93d2b)" style="fill: #ff0000; stroke: #ff0000; stroke-width: 0.24"/>
    <path d="M 189.388791 206.739129 
L 185.156638 207.646923 
L 185.257223 206.739973 
L 167.118221 204.728279 
L 167.218806 203.821328 
L 185.357808 205.833023 
L 185.458393 204.926073 
z
" clip-path="url(#p44cdc93d2b)" style="fill: #ff0000; stroke: #ff0000; stroke-width: 0.24"/>
    <path d="M 195.370116 205.581909 
L 191.213742 206.790112 
L 191.249193 205.87829 
L 173.012756 205.169267 
L 173.048208 204.257445 
L 191.284644 204.966468 
L 191.320095 204.054646 
z
" clip-path="url(#p44cdc93d2b)" style="fill: #ff0000; stroke: #ff0000; stroke-width: 0.24"/>
    <path d="M 201.253413 203.999581 
L 197.19411 205.502 
L 197.164246 204.589978 
L 178.923808 205.187252 
L 178.893944 204.27523 
L 197.134382 203.677956 
L 197.104519 202.765935 
z
" clip-path="url(#p44cdc93d2b)" style="fill: #ff0000; stroke: #ff0000; stroke-width: 0.24"/>
    <path d="M 207.008362 202.000709 
L 203.066927 203.789647 
L 202.971902 202.882097 
L 184.820912 204.782599 
L 184.725887 203.875049 
L 202.876877 201.974548 
L 202.781852 201.066998 
z
" clip-path="url(#p44cdc93d2b)" style="fill: #ff0000; stroke: #ff0000; stroke-width: 0.24"/>
    <path d="M 212.605592 199.595088 
L 208.80222 201.661381 
L 208.642519 200.762953 
L 190.673973 203.956961 
L 190.514273 203.058533 
L 208.482819 199.864526 
L 208.323118 198.966099 
z
" clip-path="url(#p44cdc93d2b)" style="fill: #ff0000; stroke: #ff0000; stroke-width: 0.24"/>
    <path d="M 218.016501 196.795415 
L 214.370677 199.128477 
L 214.14712 198.243775 
L 196.453077 202.714924 
L 196.229519 201.830221 
L 213.923562 197.359073 
L 213.700005 196.474371 
z
" clip-path="url(#p44cdc93d2b)" style="fill: #ff0000; stroke: #ff0000; stroke-width: 0.24"/>
    <path d="M 223.21307 193.615751 
L 219.743472 196.203625 
L 219.457203 195.33718 
L 202.128311 201.062545 
L 201.842043 200.196101 
L 219.170935 194.470735 
L 218.884667 193.604291 
z
" clip-path="url(#p44cdc93d2b)" style="fill: #ff0000; stroke: #ff0000; stroke-width: 0.24"/>
    <path d="M 228.169109 190.0725 
L 224.893514 192.901932 
L 224.546001 192.058184 
L 207.671046 199.008451 
L 207.323532 198.164703 
L 224.198488 191.214436 
L 223.850974 190.370688 
z
" clip-path="url(#p44cdc93d2b)" style="fill: #ff0000; stroke: #ff0000; stroke-width: 0.24"/>
    <path d="M 232.859002 186.183958 
L 229.794193 189.240451 
L 229.387215 188.423723 
L 213.052653 196.563282 
L 212.645675 195.746554 
L 228.980237 187.606995 
L 228.573259 186.790267 
z
" clip-path="url(#p44cdc93d2b)" style="fill: #ff0000; stroke: #ff0000; stroke-width: 0.24"/>
    <path d="M 237.258594 181.969836 
L 234.420269 185.237728 
L 233.955912 184.452203 
L 218.245423 193.739337 
L 217.781067 192.953813 
L 233.491556 183.666679 
L 233.027199 182.881155 
z
" clip-path="url(#p44cdc93d2b)" style="fill: #ff0000; stroke: #ff0000; stroke-width: 0.24"/>
    <path d="M 241.3455 177.451714 
L 238.748204 180.914266 
L 238.228847 180.16397 
L 223.222929 190.551113 
L 222.703572 189.800818 
L 237.70949 179.413674 
L 237.190133 178.663378 
z
" clip-path="url(#p44cdc93d2b)" style="fill: #ff0000; stroke: #ff0000; stroke-width: 0.24"/>
    <path d="M 245.098766 172.652942 
L 242.755806 176.292413 
L 242.184109 175.58119 
L 227.959644 187.015126 
L 227.387947 186.303903 
L 241.612412 174.869966 
L 241.040716 174.158743 
z
" clip-path="url(#p44cdc93d2b)" style="fill: #ff0000; stroke: #ff0000; stroke-width: 0.24"/>
    <path d="M 248.499151 167.597792 
L 246.422531 171.395536 
L 245.801424 170.727029 
L 232.431287 183.149177 
L 231.81018 182.480671 
L 245.180316 170.058522 
L 244.559209 169.390015 
z
" clip-path="url(#p44cdc93d2b)" style="fill: #ff0000; stroke: #ff0000; stroke-width: 0.24"/>
    <path d="M 251.529239 162.312556 
L 249.729595 166.249114 
L 249.062259 165.626748 
L 236.614939 178.973453 
L 235.947604 178.351087 
L 248.394924 165.004382 
L 247.727589 164.382016 
z
" clip-path="url(#p44cdc93d2b)" style="fill: #ff0000; stroke: #ff0000; stroke-width: 0.24"/>
    <path d="M 254.173487 156.823994 
L 252.660042 160.8792 
L 251.949897 160.306164 
L 240.489178 174.509059 
L 239.779033 173.936023 
L 251.239752 159.733128 
L 250.529608 159.160092 
z
" clip-path="url(#p44cdc93d2b)" style="fill: #ff0000; stroke: #ff0000; stroke-width: 0.24"/>
    <path d="M 256.418371 151.160491 
L 255.19888 155.313567 
L 254.449564 154.792797 
L 244.034163 169.779115 
L 243.284847 169.258345 
L 253.700248 154.272027 
L 252.950932 153.751257 
z
" clip-path="url(#p44cdc93d2b)" style="fill: #ff0000; stroke: #ff0000; stroke-width: 0.24"/>
    <path d="M 258.252388 145.350699 
L 257.333094 149.580368 
L 256.548446 149.114532 
L 247.231709 164.807483 
L 246.447062 164.341646 
L 255.763799 148.648695 
L 254.979151 148.182858 
z
" clip-path="url(#p44cdc93d2b)" style="fill: #ff0000; stroke: #ff0000; stroke-width: 0.24"/>
    <path d="M 261.887723 140.68601 
L 260.830508 144.883331 
L 260.061525 144.392067 
L 250.236239 159.771732 
L 249.467256 159.280467 
L 259.292542 143.900803 
L 258.523558 143.409538 
z
" clip-path="url(#p44cdc93d2b)" style="fill: #ff0000; stroke: #ff0000; stroke-width: 0.24"/>
    <path d="M 266.544564 136.757944 
L 265.189808 140.868886 
L 264.457937 140.323872 
L 253.557655 154.961296 
L 252.825784 154.416282 
L 263.726065 139.778858 
L 262.994194 139.233844 
z
" clip-path="url(#p44cdc93d2b)" style="fill: #ff0000; stroke: #ff0000; stroke-width: 0.24"/>
    <path d="M 271.47044 133.173008 
L 269.82509 137.17651 
L 269.13408 136.58054 
L 257.214679 150.400751 
L 256.523669 149.804781 
L 268.443069 135.98457 
L 267.752059 135.3886 
z
" clip-path="url(#p44cdc93d2b)" style="fill: #ff0000; stroke: #ff0000; stroke-width: 0.24"/>
    <path d="M 276.640175 129.949628 
L 274.712662 133.82518 
L 274.066053 133.181307 
L 261.1886 146.113498 
L 260.541991 145.469625 
L 273.419443 132.537435 
L 272.772834 131.893562 
z
" clip-path="url(#p44cdc93d2b)" style="fill: #ff0000; stroke: #ff0000; stroke-width: 0.24"/>
    <path d="M 282.027045 127.104275 
L 279.827249 130.832023 
L 279.228353 130.143547 
L 265.458837 142.121475 
L 264.85994 141.432999 
L 278.629456 129.455071 
L 278.03056 128.766595 
z
" clip-path="url(#p44cdc93d2b)" style="fill: #ff0000; stroke: #ff0000; stroke-width: 0.24"/>
    <path d="M 287.603821 124.651565 
L 285.143007 128.212407 
L 284.594893 127.482855 
L 270.003847 138.44514 
L 269.455733 137.715588 
L 284.046779 126.753303 
L 283.498664 126.02375 
z
" clip-path="url(#p44cdc93d2b)" style="fill: #ff0000; stroke: #ff0000; stroke-width: 0.24"/>
    <path d="M 293.341787 122.604061 
L 290.632563 125.979755 
L 290.138039 125.212864 
L 274.800218 135.103343 
L 274.305694 134.336452 
L 289.643515 124.445973 
L 289.148991 123.679082 
z
" clip-path="url(#p44cdc93d2b)" style="fill: #ff0000; stroke: #ff0000; stroke-width: 0.24"/>
    <path d="M 299.211425 120.972209 
L 296.267675 124.145463 
L 295.829274 123.345163 
L 279.823269 132.113179 
L 279.384868 131.312878 
L 295.390874 122.544863 
L 294.952473 121.744562 
z
" clip-path="url(#p44cdc93d2b)" style="fill: #ff0000; stroke: #ff0000; stroke-width: 0.24"/>
    <path d="M 305.182832 119.764443 
L 302.019634 122.718997 
L 301.639604 121.889387 
L 285.047408 129.490002 
L 284.667377 128.660392 
L 301.259573 121.059777 
L 300.879542 120.230167 
z
" clip-path="url(#p44cdc93d2b)" style="fill: #ff0000; stroke: #ff0000; stroke-width: 0.24"/>
    <path d="M 311.225307 118.986886 
L 307.858867 121.707601 
L 307.539154 120.852932 
L 290.445775 127.247207 
L 290.126062 126.392538 
L 307.21944 119.998263 
L 306.899726 119.143595 
z
" clip-path="url(#p44cdc93d2b)" style="fill: #ff0000; stroke: #ff0000; stroke-width: 0.24"/>
    <path d="M 317.307774 118.643534 
L 313.755343 121.116475 
L 313.497583 120.241126 
L 295.990604 125.396317 
L 295.732844 124.520968 
L 313.239824 119.365777 
L 312.982064 118.490428 
z
" clip-path="url(#p44cdc93d2b)" style="fill: #ff0000; stroke: #ff0000; stroke-width: 0.24"/>
    <path d="M 323.399364 118.736142 
L 319.679139 120.948637 
L 319.484655 120.057092 
L 301.653763 123.94677 
L 301.459279 123.055225 
L 319.290171 119.165548 
L 319.095687 118.274003 
z
" clip-path="url(#p44cdc93d2b)" style="fill: #ff0000; stroke: #ff0000; stroke-width: 0.24"/>
    <path d="M 329.468837 119.26434 
L 325.599878 121.205052 
L 325.469666 120.30188 
L 307.406215 122.906117 
L 307.276003 122.002944 
L 325.339454 119.398707 
L 325.209242 118.495535 
z
" clip-path="url(#p44cdc93d2b)" style="fill: #ff0000; stroke: #ff0000; stroke-width: 0.24"/>
    <path d="M 335.4848 120.225337 
L 331.486931 121.884327 
L 331.421657 120.974153 
L 313.218194 122.27962 
L 313.152921 121.369446 
L 331.356384 120.06398 
L 331.291111 119.153807 
z
" clip-path="url(#p44cdc93d2b)" style="fill: #ff0000; stroke: #ff0000; stroke-width: 0.24"/>
    <path d="M 341.416631 121.614108 
L 337.310333 122.982874 
L 337.310333 122.070363 
L 319.060119 122.070363 
L 319.060119 121.157853 
L 337.310333 121.157853 
L 337.310333 120.245342 
z
" clip-path="url(#p44cdc93d2b)" style="fill: #ff0000; stroke: #ff0000; stroke-width: 0.24"/>
   </g>
   <g id="matplotlib.axis_1">
    <g id="xtick_1">
     <g id="line2d_1">
      <defs>
       <path id="mba7e58e1fe" d="M 0 0 
L 0 -3 
" style="stroke: #000000"/>
      </defs>
      <g>
       <use xlink:href="#mba7e58e1fe" x="59.259194" y="260.882846" style="stroke: #000000"/>
      </g>
     </g>
     <g id="text_1">
      <!-- −10 -->
      <g transform="translate(48.179233 274.461206) scale(0.105 -0.105)">
       <defs>
        <path id="DejaVuSans-2212" d="M 678 2272 
L 4684 2272 
L 4684 1741 
L 678 1741 
L 678 2272 
z
" transform="scale(0.015625)"/>
        <path id="DejaVuSans-31" d="M 794 531 
L 1825 531 
L 1825 4091 
L 703 3866 
L 703 4441 
L 1819 4666 
L 2450 4666 
L 2450 531 
L 3481 531 
L 3481 0 
L 794 0 
L 794 531 
z
" transform="scale(0.015625)"/>
        <path id="DejaVuSans-30" d="M 2034 4250 
Q 1547 4250 1301 3770 
Q 1056 3291 1056 2328 
Q 1056 1369 1301 889 
Q 1547 409 2034 409 
Q 2525 409 2770 889 
Q 3016 1369 3016 2328 
Q 3016 3291 2770 3770 
Q 2525 4250 2034 4250 
z
M 2034 4750 
Q 2819 4750 3233 4129 
Q 3647 3509 3647 2328 
Q 3647 1150 3233 529 
Q 2819 -91 2034 -91 
Q 1250 -91 836 529 
Q 422 1150 422 2328 
Q 422 3509 836 4129 
Q 1250 4750 2034 4750 
z
" transform="scale(0.015625)"/>
       </defs>
       <use xlink:href="#DejaVuSans-2212"/>
       <use xlink:href="#DejaVuSans-31" x="83.789062"/>
       <use xlink:href="#DejaVuSans-30" x="147.412109"/>
      </g>
     </g>
    </g>
    <g id="xtick_2">
     <g id="line2d_2">
      <g>
       <use xlink:href="#mba7e58e1fe" x="150.510265" y="260.882846" style="stroke: #000000"/>
      </g>
     </g>
     <g id="text_2">
      <!-- −5 -->
      <g transform="translate(142.770617 274.461206) scale(0.105 -0.105)">
       <defs>
        <path id="DejaVuSans-35" d="M 691 4666 
L 3169 4666 
L 3169 4134 
L 1269 4134 
L 1269 2991 
Q 1406 3038 1543 3061 
Q 1681 3084 1819 3084 
Q 2600 3084 3056 2656 
Q 3513 2228 3513 1497 
Q 3513 744 3044 326 
Q 2575 -91 1722 -91 
Q 1428 -91 1123 -41 
Q 819 9 494 109 
L 494 744 
Q 775 591 1075 516 
Q 1375 441 1709 441 
Q 2250 441 2565 725 
Q 2881 1009 2881 1497 
Q 2881 1984 2565 2268 
Q 2250 2553 1709 2553 
Q 1456 2553 1204 2497 
Q 953 2441 691 2322 
L 691 4666 
z
" transform="scale(0.015625)"/>
       </defs>
       <use xlink:href="#DejaVuSans-2212"/>
       <use xlink:href="#DejaVuSans-35" x="83.789062"/>
      </g>
     </g>
    </g>
    <g id="xtick_3">
     <g id="line2d_3">
      <g>
       <use xlink:href="#mba7e58e1fe" x="241.761336" y="260.882846" style="stroke: #000000"/>
      </g>
     </g>
     <g id="text_3">
      <!-- 0 -->
      <g transform="translate(238.421024 274.461206) scale(0.105 -0.105)">
       <use xlink:href="#DejaVuSans-30"/>
      </g>
     </g>
    </g>
    <g id="xtick_4">
     <g id="line2d_4">
      <g>
       <use xlink:href="#mba7e58e1fe" x="333.012408" y="260.882846" style="stroke: #000000"/>
      </g>
     </g>
     <g id="text_4">
      <!-- 5 -->
      <g transform="translate(329.672095 274.461206) scale(0.105 -0.105)">
       <use xlink:href="#DejaVuSans-35"/>
      </g>
     </g>
    </g>
    <g id="xtick_5">
     <g id="line2d_5">
      <g>
       <use xlink:href="#mba7e58e1fe" x="424.263479" y="260.882846" style="stroke: #000000"/>
      </g>
     </g>
     <g id="text_5">
      <!-- 10 -->
      <g transform="translate(417.582854 274.461206) scale(0.105 -0.105)">
       <use xlink:href="#DejaVuSans-31"/>
       <use xlink:href="#DejaVuSans-30" x="63.623047"/>
      </g>
     </g>
    </g>
   </g>
   <g id="matplotlib.axis_2">
    <g id="ytick_1">
     <g id="line2d_6">
      <defs>
       <path id="m6d547bb71f" d="M 0 0 
L 3 0 
" style="stroke: #000000"/>
      </defs>
      <g>
       <use xlink:href="#m6d547bb71f" x="31.88" y="253.928161" style="stroke: #000000"/>
      </g>
     </g>
     <g id="text_6">
      <!-- −6 -->
      <g transform="translate(10.800703 257.917341) scale(0.105 -0.105)">
       <defs>
        <path id="DejaVuSans-36" d="M 2113 2584 
Q 1688 2584 1439 2293 
Q 1191 2003 1191 1497 
Q 1191 994 1439 701 
Q 1688 409 2113 409 
Q 2538 409 2786 701 
Q 3034 994 3034 1497 
Q 3034 2003 2786 2293 
Q 2538 2584 2113 2584 
z
M 3366 4563 
L 3366 3988 
Q 3128 4100 2886 4159 
Q 2644 4219 2406 4219 
Q 1781 4219 1451 3797 
Q 1122 3375 1075 2522 
Q 1259 2794 1537 2939 
Q 1816 3084 2150 3084 
Q 2853 3084 3261 2657 
Q 3669 2231 3669 1497 
Q 3669 778 3244 343 
Q 2819 -91 2113 -91 
Q 1303 -91 875 529 
Q 447 1150 447 2328 
Q 447 3434 972 4092 
Q 1497 4750 2381 4750 
Q 2619 4750 2861 4703 
Q 3103 4656 3366 4563 
z
" transform="scale(0.015625)"/>
       </defs>
       <use xlink:href="#DejaVuSans-2212"/>
       <use xlink:href="#DejaVuSans-36" x="83.789062"/>
      </g>
     </g>
    </g>
    <g id="ytick_2">
     <g id="line2d_7">
      <g>
       <use xlink:href="#m6d547bb71f" x="31.88" y="217.427733" style="stroke: #000000"/>
      </g>
     </g>
     <g id="text_7">
      <!-- −4 -->
      <g transform="translate(10.800703 221.416913) scale(0.105 -0.105)">
       <defs>
        <path id="DejaVuSans-34" d="M 2419 4116 
L 825 1625 
L 2419 1625 
L 2419 4116 
z
M 2253 4666 
L 3047 4666 
L 3047 1625 
L 3713 1625 
L 3713 1100 
L 3047 1100 
L 3047 0 
L 2419 0 
L 2419 1100 
L 313 1100 
L 313 1709 
L 2253 4666 
z
" transform="scale(0.015625)"/>
       </defs>
       <use xlink:href="#DejaVuSans-2212"/>
       <use xlink:href="#DejaVuSans-34" x="83.789062"/>
      </g>
     </g>
    </g>
    <g id="ytick_3">
     <g id="line2d_8">
      <g>
       <use xlink:href="#m6d547bb71f" x="31.88" y="180.927304" style="stroke: #000000"/>
      </g>
     </g>
     <g id="text_8">
      <!-- −2 -->
      <g transform="translate(10.800703 184.916484) scale(0.105 -0.105)">
       <defs>
        <path id="DejaVuSans-32" d="M 1228 531 
L 3431 531 
L 3431 0 
L 469 0 
L 469 531 
Q 828 903 1448 1529 
Q 2069 2156 2228 2338 
Q 2531 2678 2651 2914 
Q 2772 3150 2772 3378 
Q 2772 3750 2511 3984 
Q 2250 4219 1831 4219 
Q 1534 4219 1204 4116 
Q 875 4013 500 3803 
L 500 4441 
Q 881 4594 1212 4672 
Q 1544 4750 1819 4750 
Q 2544 4750 2975 4387 
Q 3406 4025 3406 3419 
Q 3406 3131 3298 2873 
Q 3191 2616 2906 2266 
Q 2828 2175 2409 1742 
Q 1991 1309 1228 531 
z
" transform="scale(0.015625)"/>
       </defs>
       <use xlink:href="#DejaVuSans-2212"/>
       <use xlink:href="#DejaVuSans-32" x="83.789062"/>
      </g>
     </g>
    </g>
    <g id="ytick_4">
     <g id="line2d_9">
      <g>
       <use xlink:href="#m6d547bb71f" x="31.88" y="144.426876" style="stroke: #000000"/>
      </g>
     </g>
     <g id="text_9">
      <!-- 0 -->
      <g transform="translate(19.599375 148.416056) scale(0.105 -0.105)">
       <use xlink:href="#DejaVuSans-30"/>
      </g>
     </g>
    </g>
    <g id="ytick_5">
     <g id="line2d_10">
      <g>
       <use xlink:href="#m6d547bb71f" x="31.88" y="107.926447" style="stroke: #000000"/>
      </g>
     </g>
     <g id="text_10">
      <!-- 2 -->
      <g transform="translate(19.599375 111.915627) scale(0.105 -0.105)">
       <use xlink:href="#DejaVuSans-32"/>
      </g>
     </g>
    </g>
    <g id="ytick_6">
     <g id="line2d_11">
      <g>
       <use xlink:href="#m6d547bb71f" x="31.88" y="71.426019" style="stroke: #000000"/>
      </g>
     </g>
     <g id="text_11">
      <!-- 4 -->
      <g transform="translate(19.599375 75.415199) scale(0.105 -0.105)">
       <use xlink:href="#DejaVuSans-34"/>
      </g>
     </g>
    </g>
   </g>
   <g id="patch_3">
    <path d="M 31.88 260.882846 
L 31.88 55.917154 
" style="fill: none; stroke: #000000; stroke-width: 0.8; stroke-linejoin: miter; stroke-linecap: square"/>
   </g>
   <g id="patch_4">
    <path d="M 450 260.882846 
L 450 55.917154 
" style="fill: none; stroke: #000000; stroke-width: 0.8; stroke-linejoin: miter; stroke-linecap: square"/>
   </g>
   <g id="patch_5">
    <path d="M 31.88 260.882846 
L 450 260.882846 
" style="fill: none; stroke: #000000; stroke-width: 0.8; stroke-linejoin: miter; stroke-linecap: square"/>
   </g>
   <g id="patch_6">
    <path d="M 31.88 55.917154 
L 450 55.917154 
" style="fill: none; stroke: #000000; stroke-width: 0.8; stroke-linejoin: miter; stroke-linecap: square"/>
   </g>
  </g>
 </g>
 <defs>
  <clipPath id="p44cdc93d2b">
   <rect x="31.88" y="55.917154" width="418.12" height="204.965693"/>
  </clipPath>
 </defs>
</svg>
