<?xml version="1.0" encoding="utf-8" standalone="no"?>
<!DOCTYPE svg PUBLIC "-//W3C//DTD SVG 1.1//EN"
  "http://www.w3.org/Graphics/SVG/1.1/DTD/svg11.dtd">
<svg xmlns:xlink="http://www.w3.org/1999/xlink" width="460.8pt" height="316.8pt" viewBox="0 0 460.8 316.8" xmlns="http://www.w3.org/2000/svg" version="1.1">
 <metadata>
  <rdf:RDF xmlns:dc="http://purl.org/dc/elements/1.1/" xmlns:cc="http://creativecommons.org/ns#" xmlns:rdf="http://www.w3.org/1999/02/22-rdf-syntax-ns#">
   <cc:Work>
    <dc:type rdf:resource="http://purl.org/dc/dcmitype/StillImage"/>
    <dc:date>2024-01-11T15:51:05.944865</dc:date>
    <dc:format>image/svg+xml</dc:format>
    <dc:creator>
     <cc:Agent>
      <dc:title>Matplotlib v3.7.2, https://matplotlib.org/</dc:title>
     </cc:Agent>
    </dc:creator>
   </cc:Work>
  </rdf:RDF>
 </metadata>
 <defs>
  <style type="text/css">*{stroke-linejoin: round; stroke-linecap: butt}</style>
 </defs>
 <g id="figure_1">
  <g id="patch_1">
   <path d="M 0 316.8 
L 460.8 316.8 
L 460.8 0 
L 0 0 
z
" style="fill: #ffffff"/>
  </g>
  <g id="axes_1">
   <g id="patch_2">
    <path d="M 31.88 255.32545 
L 450 255.32545 
L 450 61.47455 
L 31.88 61.47455 
z
" style="fill: #ffffff"/>
   </g>
   <g id="PatchCollection_1">
    <path d="M 253.860028 144.491185 
L 356.360311 144.491185 
L 356.360311 101.782734 
L 253.860028 101.782734 
z
" clip-path="url(#pd404193b2c)" style="fill: #ffffff; stroke: #0000ff; stroke-width: 3"/>
    <path d="M 134.276366 96.65772 
L 180.222116 162.275051 
L 207.398242 143.246123 
L 161.452492 77.628792 
z
" clip-path="url(#pd404193b2c)" style="fill: #ff0000; stroke: #ff0000; stroke-width: 2"/>
    <path d="M 352.943634 153.032875 
L 430.994545 135.013403 
L 423.531586 102.687775 
L 345.480675 120.707248 
z
" clip-path="url(#pd404193b2c)" style="fill: #ff0000; stroke: #ff0000; stroke-width: 2"/>
   </g>
   <g id="PatchCollection_2">
    <path d="M 87.126236 195.245908 
L 167.230206 195.245908 
L 167.230206 162.069984 
L 87.126236 162.069984 
L 87.126236 195.245908 
z
" clip-path="url(#pd404193b2c)" style="fill: none; stroke: #000000; stroke-width: 0.5"/>
    <path d="M 84.314858 193.250203 
L 164.381813 195.685124 
L 165.390262 162.52453 
L 85.323307 160.089608 
L 84.314858 193.250203 
z
" clip-path="url(#pd404193b2c)" style="fill: none; stroke: #000000; stroke-width: 0.5"/>
    <path d="M 81.565502 191.169905 
L 161.521443 196.037506 
L 163.537413 162.922889 
L 83.581471 158.055288 
L 81.565502 191.169905 
z
" clip-path="url(#pd404193b2c)" style="fill: none; stroke: #000000; stroke-width: 0.5"/>
    <path d="M 78.880775 189.007193 
L 158.651809 196.302967 
L 161.673432 163.264932 
L 81.902399 155.969158 
L 78.880775 189.007193 
z
" clip-path="url(#pd404193b2c)" style="fill: none; stroke: #000000; stroke-width: 0.5"/>
    <path d="M 76.262882 186.763719 
L 155.775283 196.480931 
L 159.799771 163.550011 
L 80.28737 153.832799 
L 76.262882 186.763719 
z
" clip-path="url(#pd404193b2c)" style="fill: none; stroke: #000000; stroke-width: 0.5"/>
    <path d="M 73.714315 184.441661 
L 152.894596 196.571346 
L 157.918236 163.777978 
L 78.737955 151.648293 
L 73.714315 184.441661 
z
" clip-path="url(#pd404193b2c)" style="fill: none; stroke: #000000; stroke-width: 0.5"/>
    <path d="M 71.237688 182.043292 
L 150.012684 196.574162 
L 156.0308 163.948646 
L 77.255805 149.417777 
L 71.237688 182.043292 
z
" clip-path="url(#pd404193b2c)" style="fill: none; stroke: #000000; stroke-width: 0.5"/>
    <path d="M 68.835029 179.570679 
L 147.131923 196.489382 
L 154.138986 164.061878 
L 75.842092 147.143175 
L 68.835029 179.570679 
z
" clip-path="url(#pd404193b2c)" style="fill: none; stroke: #000000; stroke-width: 0.5"/>
    <path d="M 66.508667 177.026261 
L 144.255096 196.317161 
L 152.244631 164.117638 
L 74.498201 144.826737 
L 66.508667 177.026261 
z
" clip-path="url(#pd404193b2c)" style="fill: none; stroke: #000000; stroke-width: 0.5"/>
    <path d="M 64.260698 174.412242 
L 141.384809 196.057511 
L 150.349431 164.115728 
L 73.22532 142.470459 
L 64.260698 174.412242 
z
" clip-path="url(#pd404193b2c)" style="fill: none; stroke: #000000; stroke-width: 0.5"/>
    <path d="M 62.093159 171.731238 
L 138.523696 195.710794 
L 148.455088 164.056261 
L 72.024551 140.076705 
L 62.093159 171.731238 
z
" clip-path="url(#pd404193b2c)" style="fill: none; stroke: #000000; stroke-width: 0.5"/>
    <path d="M 60.008208 168.985489 
L 135.674512 195.277248 
L 146.563527 163.939231 
L 70.897223 137.647472 
L 60.008208 168.985489 
z
" clip-path="url(#pd404193b2c)" style="fill: none; stroke: #000000; stroke-width: 0.5"/>
    <path d="M 58.007598 166.177436 
L 132.839737 194.757097 
L 144.676313 163.764559 
L 69.844174 135.184897 
L 58.007598 166.177436 
z
" clip-path="url(#pd404193b2c)" style="fill: none; stroke: #000000; stroke-width: 0.5"/>
    <path d="M 56.093362 163.310194 
L 130.022206 194.151271 
L 142.795371 163.532841 
L 68.866527 132.691765 
L 56.093362 163.310194 
z
" clip-path="url(#pd404193b2c)" style="fill: none; stroke: #000000; stroke-width: 0.5"/>
    <path d="M 54.267157 160.385994 
L 127.224353 193.460057 
L 140.922334 163.244047 
L 67.965138 130.169983 
L 54.267157 160.385994 
z
" clip-path="url(#pd404193b2c)" style="fill: none; stroke: #000000; stroke-width: 0.5"/>
    <path d="M 52.530564 157.407425 
L 124.448683 192.683908 
L 139.05882 162.898242 
L 67.1407 127.621759 
L 52.530564 157.407425 
z
" clip-path="url(#pd404193b2c)" style="fill: none; stroke: #000000; stroke-width: 0.5"/>
    <path d="M 50.885455 154.377685 
L 121.69803 191.823984 
L 137.206819 162.496191 
L 66.394244 125.049892 
L 50.885455 154.377685 
z
" clip-path="url(#pd404193b2c)" style="fill: none; stroke: #000000; stroke-width: 0.5"/>
    <path d="M 52.922846 153.276743 
L 122.564471 192.858181 
L 138.957551 164.015349 
L 69.315926 124.433912 
L 52.922846 153.276743 
z
" clip-path="url(#pd404193b2c)" style="fill: none; stroke: #000000; stroke-width: 0.5"/>
    <path d="M 55.492821 152.523501 
L 123.899094 194.203566 
L 141.161343 165.872369 
L 72.75507 124.192304 
L 55.492821 152.523501 
z
" clip-path="url(#pd404193b2c)" style="fill: none; stroke: #000000; stroke-width: 0.5"/>
    <path d="M 58.084568 151.848873 
L 125.192269 195.589045 
L 143.307733 167.795666 
L 76.200033 124.055494 
L 58.084568 151.848873 
z
" clip-path="url(#pd404193b2c)" style="fill: none; stroke: #000000; stroke-width: 0.5"/>
    <path d="M 60.695641 151.253438 
L 126.442747 197.013292 
L 145.394685 169.783418 
L 79.647579 124.023564 
L 60.695641 151.253438 
z
" clip-path="url(#pd404193b2c)" style="fill: none; stroke: #000000; stroke-width: 0.5"/>
    <path d="M 63.323514 150.737479 
L 127.649309 198.474657 
L 147.420177 171.833435 
L 83.094382 124.096256 
L 63.323514 150.737479 
z
" clip-path="url(#pd404193b2c)" style="fill: none; stroke: #000000; stroke-width: 0.5"/>
    <path d="M 65.966022 150.301753 
L 128.811009 199.972204 
L 149.382563 173.944274 
L 86.537576 124.273823 
L 65.966022 150.301753 
z
" clip-path="url(#pd404193b2c)" style="fill: none; stroke: #000000; stroke-width: 0.5"/>
    <path d="M 68.620365 149.946502 
L 129.926463 201.504319 
L 151.27969 176.113737 
L 89.973592 124.55592 
L 68.620365 149.946502 
z
" clip-path="url(#pd404193b2c)" style="fill: none; stroke: #000000; stroke-width: 0.5"/>
    <path d="M 71.284398 149.672054 
L 130.994946 203.069586 
L 153.110111 178.339818 
L 93.399562 124.942285 
L 71.284398 149.672054 
z
" clip-path="url(#pd404193b2c)" style="fill: none; stroke: #000000; stroke-width: 0.5"/>
    <path d="M 73.955548 149.478767 
L 132.015417 204.666606 
L 154.872057 180.620484 
L 96.812188 125.432644 
L 73.955548 149.478767 
z
" clip-path="url(#pd404193b2c)" style="fill: none; stroke: #000000; stroke-width: 0.5"/>
    <path d="M 76.631289 149.3668 
L 132.986767 206.294002 
L 156.563782 182.953772 
L 100.208305 126.026571 
L 76.631289 149.3668 
z
" clip-path="url(#pd404193b2c)" style="fill: none; stroke: #000000; stroke-width: 0.5"/>
    <path d="M 79.309124 149.336121 
L 133.908125 207.950071 
L 158.183726 185.337305 
L 103.584725 126.723355 
L 79.309124 149.336121 
z
" clip-path="url(#pd404193b2c)" style="fill: none; stroke: #000000; stroke-width: 0.5"/>
    <path d="M 81.986841 149.387003 
L 134.778965 209.633478 
L 159.730693 187.769049 
L 106.938569 127.522574 
L 81.986841 149.387003 
z
" clip-path="url(#pd404193b2c)" style="fill: none; stroke: #000000; stroke-width: 0.5"/>
    <path d="M 76.287375 149.376702 
L 132.864723 206.083401 
L 156.350415 182.651282 
L 99.773067 125.944582 
L 76.287375 149.376702 
z
" clip-path="url(#pd404193b2c)" style="fill: none; stroke: #000000; stroke-width: 0.5"/>
    <path d="M 74.748275 153.523993 
L 134.874033 206.453563 
L 156.795386 181.551831 
L 96.669628 128.622261 
L 74.748275 153.523993 
z
" clip-path="url(#pd404193b2c)" style="fill: none; stroke: #000000; stroke-width: 0.5"/>
    <path d="M 76.77018 160.576972 
L 140.192682 209.507865 
L 160.45794 183.240751 
L 97.035438 134.309857 
L 76.77018 160.576972 
z
" clip-path="url(#pd404193b2c)" style="fill: none; stroke: #000000; stroke-width: 0.5"/>
    <path d="M 79.243975 167.484557 
L 145.6978 212.211901 
L 164.222112 184.689331 
L 97.768287 139.961988 
L 79.243975 167.484557 
z
" clip-path="url(#pd404193b2c)" style="fill: none; stroke: #000000; stroke-width: 0.5"/>
    <path d="M 82.159326 174.217591 
L 151.366272 214.554234 
L 168.072128 185.891429 
L 98.865182 145.554787 
L 82.159326 174.217591 
z
" clip-path="url(#pd404193b2c)" style="fill: none; stroke: #000000; stroke-width: 0.5"/>
    <path d="M 85.503875 180.748077 
L 157.174265 216.525183 
L 171.99174 186.842117 
L 100.32135 151.065011 
L 85.503875 180.748077 
z
" clip-path="url(#pd404193b2c)" style="fill: none; stroke: #000000; stroke-width: 0.5"/>
    <path d="M 89.263821 187.048734 
L 163.097698 218.116479 
L 175.96474 187.537382 
L 102.130863 156.469637 
L 89.263821 187.048734 
z
" clip-path="url(#pd404193b2c)" style="fill: none; stroke: #000000; stroke-width: 0.5"/>
    <path d="M 93.423233 193.093037 
L 169.111517 219.321453 
L 179.974299 187.974333 
L 104.286015 161.745917 
L 93.423233 193.093037 
z
" clip-path="url(#pd404193b2c)" style="fill: none; stroke: #000000; stroke-width: 0.5"/>
    <path d="M 97.964652 198.855514 
L 175.190537 220.134818 
L 184.003591 188.150883 
L 106.777706 166.871579 
L 97.964652 198.855514 
z
" clip-path="url(#pd404193b2c)" style="fill: none; stroke: #000000; stroke-width: 0.5"/>
    <path d="M 102.869474 204.312411 
L 181.309718 220.553535 
L 188.036155 188.066661 
L 109.595911 171.825537 
L 102.869474 204.312411 
z
" clip-path="url(#pd404193b2c)" style="fill: none; stroke: #000000; stroke-width: 0.5"/>
    <path d="M 108.116743 209.440879 
L 187.443034 220.575764 
L 192.054667 187.721924 
L 112.728376 176.587039 
L 108.116743 209.440879 
z
" clip-path="url(#pd404193b2c)" style="fill: none; stroke: #000000; stroke-width: 0.5"/>
    <path d="M 113.684499 214.21912 
L 193.564786 220.201238 
L 196.042345 187.117954 
L 116.162057 181.135836 
L 113.684499 214.21912 
z
" clip-path="url(#pd404193b2c)" style="fill: none; stroke: #000000; stroke-width: 0.5"/>
    <path d="M 119.549812 218.627396 
L 199.649744 219.431682 
L 199.982848 186.25743 
L 119.882915 185.453143 
L 119.549812 218.627396 
z
" clip-path="url(#pd404193b2c)" style="fill: none; stroke: #000000; stroke-width: 0.5"/>
    <path d="M 125.687745 222.647091 
L 205.672048 218.27018 
L 203.859303 185.143817 
L 123.875 189.520727 
L 125.687745 222.647091 
z
" clip-path="url(#pd404193b2c)" style="fill: none; stroke: #000000; stroke-width: 0.5"/>
    <path d="M 132.072923 226.261605 
L 211.606805 216.721809 
L 207.655796 183.781993 
L 128.121914 193.321789 
L 132.072923 226.261605 
z
" clip-path="url(#pd404193b2c)" style="fill: none; stroke: #000000; stroke-width: 0.5"/>
    <path d="M 138.678334 229.455678 
L 217.428894 214.79296 
L 211.356171 182.177564 
L 132.60561 196.840283 
L 138.678334 229.455678 
z
" clip-path="url(#pd404193b2c)" style="fill: none; stroke: #000000; stroke-width: 0.5"/>
    <path d="M 145.476414 232.215724 
L 223.11403 212.491456 
L 214.945011 180.336999 
L 137.307396 200.061267 
L 145.476414 232.215724 
z
" clip-path="url(#pd404193b2c)" style="fill: none; stroke: #000000; stroke-width: 0.5"/>
    <path d="M 152.43892 234.530729 
L 228.638601 209.827395 
L 218.407448 178.268474 
L 142.207767 202.971808 
L 152.43892 234.530729 
z
" clip-path="url(#pd404193b2c)" style="fill: none; stroke: #000000; stroke-width: 0.5"/>
    <path d="M 159.536483 236.390409 
L 233.979303 206.811486 
L 221.728872 175.980188 
L 147.286052 205.559111 
L 159.536483 236.390409 
z
" clip-path="url(#pd404193b2c)" style="fill: none; stroke: #000000; stroke-width: 0.5"/>
    <path d="M 166.739366 237.787326 
L 239.113732 203.456622 
L 224.8953 173.481997 
L 152.520934 207.812701 
L 166.739366 237.787326 
z
" clip-path="url(#pd404193b2c)" style="fill: none; stroke: #000000; stroke-width: 0.5"/>
    <path d="M 174.017592 238.715574 
L 244.02053 199.776716 
L 227.893581 170.784242 
L 157.890643 209.723101 
L 174.017592 238.715574 
z
" clip-path="url(#pd404193b2c)" style="fill: none; stroke: #000000; stroke-width: 0.5"/>
    <path d="M 181.340497 239.171208 
L 248.679034 195.787253 
L 230.7111 167.89827 
L 163.372563 211.282226 
L 181.340497 239.171208 
z
" clip-path="url(#pd404193b2c)" style="fill: none; stroke: #000000; stroke-width: 0.5"/>
    <path d="M 188.677563 239.152432 
L 253.06984 191.50497 
L 233.336129 164.836213 
L 168.943851 212.483675 
L 188.677563 239.152432 
z
" clip-path="url(#pd404193b2c)" style="fill: none; stroke: #000000; stroke-width: 0.5"/>
    <path d="M 195.99812 238.659277 
L 257.174615 186.947745 
L 235.757725 161.610839 
L 174.58123 213.322371 
L 195.99812 238.659277 
z
" clip-path="url(#pd404193b2c)" style="fill: none; stroke: #000000; stroke-width: 0.5"/>
    <path d="M 203.27151 237.693738 
L 260.976102 182.134524 
L 237.965654 158.235544 
L 180.261062 213.794758 
L 203.27151 237.693738 
z
" clip-path="url(#pd404193b2c)" style="fill: none; stroke: #000000; stroke-width: 0.5"/>
    <path d="M 209.38322 235.676788 
L 264.474391 177.525184 
L 240.390276 154.708581 
L 185.299106 212.860184 
L 209.38322 235.676788 
z
" clip-path="url(#pd404193b2c)" style="fill: none; stroke: #000000; stroke-width: 0.5"/>
    <path d="M 212.804389 232.065532 
L 267.89556 173.913928 
L 243.811445 151.097325 
L 188.720275 209.248929 
L 212.804389 232.065532 
z
" clip-path="url(#pd404193b2c)" style="fill: none; stroke: #000000; stroke-width: 0.5"/>
    <path d="M 216.225558 228.454276 
L 271.316729 170.302673 
L 247.232614 147.486069 
L 192.141444 205.637673 
L 216.225558 228.454276 
z
" clip-path="url(#pd404193b2c)" style="fill: none; stroke: #000000; stroke-width: 0.5"/>
    <path d="M 219.646727 224.843191 
L 274.737898 166.691588 
L 250.653783 143.874984 
L 195.562613 202.026588 
L 219.646727 224.843191 
z
" clip-path="url(#pd404193b2c)" style="fill: none; stroke: #000000; stroke-width: 0.5"/>
    <path d="M 223.067888 221.231936 
L 278.159059 163.080332 
L 254.074944 140.263728 
L 198.983773 198.415332 
L 223.067888 221.231936 
z
" clip-path="url(#pd404193b2c)" style="fill: none; stroke: #000000; stroke-width: 0.5"/>
    <path d="M 226.489048 217.620697 
L 281.580219 159.469093 
L 257.496104 136.65249 
L 202.404933 194.804093 
L 226.489048 217.620697 
z
" clip-path="url(#pd404193b2c)" style="fill: none; stroke: #000000; stroke-width: 0.5"/>
    <path d="M 229.910217 214.009475 
L 285.001388 155.857872 
L 260.917273 133.041268 
L 205.826102 191.192872 
L 229.910217 214.009475 
z
" clip-path="url(#pd404193b2c)" style="fill: none; stroke: #000000; stroke-width: 0.5"/>
    <path d="M 233.331386 210.398254 
L 288.422557 152.24665 
L 264.338442 129.430047 
L 209.247271 187.58165 
L 233.331386 210.398254 
z
" clip-path="url(#pd404193b2c)" style="fill: none; stroke: #000000; stroke-width: 0.5"/>
    <path d="M 236.752555 206.787032 
L 291.843726 148.635428 
L 267.759611 125.818825 
L 212.668441 183.970429 
L 236.752555 206.787032 
z
" clip-path="url(#pd404193b2c)" style="fill: none; stroke: #000000; stroke-width: 0.5"/>
    <path d="M 238.145831 202.018956 
L 295.28971 145.883199 
L 272.040479 122.216444 
L 214.896601 178.352202 
L 238.145831 202.018956 
z
" clip-path="url(#pd404193b2c)" style="fill: none; stroke: #000000; stroke-width: 0.5"/>
    <path d="M 238.200409 196.319831 
L 298.854593 143.996642 
L 277.184379 118.876057 
L 216.530195 171.199246 
L 238.200409 196.319831 
z
" clip-path="url(#pd404193b2c)" style="fill: none; stroke: #000000; stroke-width: 0.5"/>
    <path d="M 238.623339 190.636164 
L 302.533951 142.344551 
L 282.533458 115.875281 
L 218.622846 164.166894 
L 238.623339 190.636164 
z
" clip-path="url(#pd404193b2c)" style="fill: none; stroke: #000000; stroke-width: 0.5"/>
    <path d="M 239.412987 184.991745 
L 306.312518 140.933841 
L 288.065461 113.226678 
L 221.165931 157.284581 
L 239.412987 184.991745 
z
" clip-path="url(#pd404193b2c)" style="fill: none; stroke: #000000; stroke-width: 0.5"/>
    <path d="M 240.565926 179.410138 
L 310.174397 139.770424 
L 293.757181 110.941324 
L 224.14871 150.581038 
L 240.565926 179.410138 
z
" clip-path="url(#pd404193b2c)" style="fill: none; stroke: #000000; stroke-width: 0.5"/>
    <path d="M 242.077405 173.914832 
L 314.103414 138.85916 
L 299.584729 109.02881 
L 227.55872 144.084483 
L 242.077405 173.914832 
z
" clip-path="url(#pd404193b2c)" style="fill: none; stroke: #000000; stroke-width: 0.5"/>
    <path d="M 243.941014 168.528744 
L 318.083084 138.203844 
L 305.523699 107.497105 
L 231.381629 137.822004 
L 243.941014 168.528744 
z
" clip-path="url(#pd404193b2c)" style="fill: none; stroke: #000000; stroke-width: 0.5"/>
    <path d="M 246.148955 163.274385 
L 322.096779 137.807264 
L 311.549295 106.352653 
L 235.601472 131.819773 
L 246.148955 163.274385 
z
" clip-path="url(#pd404193b2c)" style="fill: none; stroke: #000000; stroke-width: 0.5"/>
    <path d="M 248.692102 158.173899 
L 326.127756 137.671079 
L 317.636292 105.600267 
L 240.200638 126.103086 
L 248.692102 158.173899 
z
" clip-path="url(#pd404193b2c)" style="fill: none; stroke: #000000; stroke-width: 0.5"/>
    <path d="M 251.559724 153.248396 
L 330.159089 137.795696 
L 323.759186 105.24292 
L 245.159821 120.69562 
L 251.559724 153.248396 
z
" clip-path="url(#pd404193b2c)" style="fill: none; stroke: #000000; stroke-width: 0.5"/>
    <path d="M 254.739945 148.518772 
L 334.17403 138.180871 
L 329.892476 105.282386 
L 250.458391 115.620288 
L 254.739945 148.518772 
z
" clip-path="url(#pd404193b2c)" style="fill: none; stroke: #000000; stroke-width: 0.5"/>
    <path d="M 258.219315 144.004673 
L 338.15564 138.824897 
L 336.01038 105.718405 
L 256.074055 110.89818 
L 258.219315 144.004673 
z
" clip-path="url(#pd404193b2c)" style="fill: none; stroke: #000000; stroke-width: 0.5"/>
    <path d="M 261.983176 139.724922 
L 342.087146 139.724922 
L 342.087146 106.548997 
L 261.983176 106.548997 
L 261.983176 139.724922 
z
" clip-path="url(#pd404193b2c)" style="fill: none; stroke: #000000; stroke-width: 0.5"/>
   </g>
   <g id="PatchCollection_3">
    <path d="M 172.286887 178.657946 
L 168.443126 179.939199 
L 168.443126 179.08503 
L 151.359746 179.08503 
L 151.359746 178.230861 
L 168.443126 178.230861 
L 168.443126 177.376692 
z
" clip-path="url(#pd404193b2c)" style="fill: #ff0000; stroke: #ff0000; stroke-width: 0.24"/>
    <path d="M 169.940381 179.258535 
L 166.05945 180.422358 
L 166.085415 179.568583 
L 149.009928 179.0493 
L 149.035893 178.195525 
L 166.111379 178.714809 
L 166.137343 177.861035 
z
" clip-path="url(#pd404193b2c)" style="fill: #ff0000; stroke: #ff0000; stroke-width: 0.24"/>
    <path d="M 167.576764 179.787472 
L 163.66225 180.832787 
L 163.714154 179.980197 
L 146.662343 178.942108 
L 146.714248 178.089517 
L 163.766059 179.127606 
L 163.817963 178.275016 
z
" clip-path="url(#pd404193b2c)" style="fill: #ff0000; stroke: #ff0000; stroke-width: 0.24"/>
    <path d="M 165.198284 180.244506 
L 161.253804 181.170349 
L 161.331601 180.31973 
L 144.319224 178.763796 
L 144.397021 177.913177 
L 161.409397 179.469111 
L 161.487194 178.618492 
z
" clip-path="url(#pd404193b2c)" style="fill: #ff0000; stroke: #ff0000; stroke-width: 0.24"/>
    <path d="M 162.806864 180.628884 
L 158.836064 181.434399 
L 158.939681 180.586538 
L 141.982462 178.514196 
L 142.086079 177.666335 
L 159.043298 179.738677 
L 159.146915 178.890816 
z
" clip-path="url(#pd404193b2c)" style="fill: #ff0000; stroke: #ff0000; stroke-width: 0.24"/>
    <path d="M 160.404787 180.940366 
L 156.411337 181.624807 
L 156.540678 180.780488 
L 139.654289 178.193649 
L 139.783631 177.34933 
L 156.67002 179.936168 
L 156.799362 179.091849 
z
" clip-path="url(#pd404193b2c)" style="fill: #ff0000; stroke: #ff0000; stroke-width: 0.24"/>
    <path d="M 157.994529 181.178687 
L 153.98212 181.741425 
L 154.137066 180.901427 
L 137.33711 177.8025 
L 137.492056 176.962502 
L 154.292012 180.061429 
L 154.446959 179.221431 
z
" clip-path="url(#pd404193b2c)" style="fill: #ff0000; stroke: #ff0000; stroke-width: 0.24"/>
    <path d="M 155.578061 181.343648 
L 151.550399 181.784159 
L 151.730808 180.94926 
L 135.032814 177.341091 
L 135.213222 176.506191 
L 151.911216 180.11436 
L 152.091625 179.27946 
z
" clip-path="url(#pd404193b2c)" style="fill: #ff0000; stroke: #ff0000; stroke-width: 0.24"/>
    <path d="M 153.157721 181.435166 
L 149.11853 181.753044 
L 149.324234 180.924014 
L 132.743635 176.809938 
L 132.949339 175.980908 
L 149.529938 180.094984 
L 149.735642 179.265954 
z
" clip-path="url(#pd404193b2c)" style="fill: #ff0000; stroke: #ff0000; stroke-width: 0.24"/>
    <path d="M 150.735692 181.453009 
L 146.688706 181.647959 
L 146.919515 180.825565 
L 130.471634 176.209385 
L 130.702443 175.386991 
L 147.150324 180.003171 
L 147.381133 179.180777 
z
" clip-path="url(#pd404193b2c)" style="fill: #ff0000; stroke: #ff0000; stroke-width: 0.24"/>
    <path d="M 148.314182 181.397272 
L 144.263139 181.469119 
L 144.51884 180.654121 
L 128.218874 175.540119 
L 128.474574 174.72512 
L 144.77454 179.839123 
L 145.03024 179.024124 
z
" clip-path="url(#pd404193b2c)" style="fill: #ff0000; stroke: #ff0000; stroke-width: 0.24"/>
    <path d="M 145.895566 181.267945 
L 141.844212 181.216618 
L 142.124567 180.409769 
L 125.987586 174.802655 
L 126.267942 173.995806 
L 142.404923 179.60292 
L 142.685279 178.796071 
z
" clip-path="url(#pd404193b2c)" style="fill: #ff0000; stroke: #ff0000; stroke-width: 0.24"/>
    <path d="M 143.481914 181.064961 
L 139.433992 180.890507 
L 139.738744 180.092553 
L 123.779661 173.997509 
L 124.084413 173.199555 
L 140.043496 179.294599 
L 140.348248 178.496645 
z
" clip-path="url(#pd404193b2c)" style="fill: #ff0000; stroke: #ff0000; stroke-width: 0.24"/>
    <path d="M 141.075656 180.788944 
L 137.034907 180.491529 
L 137.363773 179.703207 
L 121.597331 173.125882 
L 121.926198 172.33756 
L 137.692639 178.914885 
L 138.021506 178.126563 
z
" clip-path="url(#pd404193b2c)" style="fill: #ff0000; stroke: #ff0000; stroke-width: 0.24"/>
    <path d="M 138.678873 180.439901 
L 134.649032 180.019795 
L 135.00171 179.241834 
L 119.442487 172.188291 
L 119.795164 171.41033 
L 135.354387 178.463873 
L 135.707064 177.685912 
z
" clip-path="url(#pd404193b2c)" style="fill: #ff0000; stroke: #ff0000; stroke-width: 0.24"/>
    <path d="M 136.293688 180.017954 
L 132.27848 179.475547 
L 132.654642 178.708665 
L 117.317018 171.185423 
L 117.69318 170.418542 
L 133.030804 177.941784 
L 133.406966 177.174903 
z
" clip-path="url(#pd404193b2c)" style="fill: #ff0000; stroke: #ff0000; stroke-width: 0.24"/>
    <path d="M 133.922572 179.52394 
L 129.925706 178.859732 
L 130.325006 178.104639 
L 115.223156 170.118651 
L 115.622455 169.363558 
L 130.724305 177.349547 
L 131.123605 176.594454 
z
" clip-path="url(#pd404193b2c)" style="fill: #ff0000; stroke: #ff0000; stroke-width: 0.24"/>
    <path d="M 135.157241 180.935401 
L 131.182412 180.15001 
L 131.604478 179.407403 
L 116.752351 170.966064 
L 117.174418 170.223458 
L 132.026545 178.664797 
L 132.448612 177.922191 
z
" clip-path="url(#pd404193b2c)" style="fill: #ff0000; stroke: #ff0000; stroke-width: 0.24"/>
    <path d="M 136.848465 182.669083 
L 132.899347 181.76323 
L 133.343792 181.033797 
L 118.755122 172.144894 
L 119.199567 171.41546 
L 133.788237 180.304363 
L 134.232682 179.57493 
z
" clip-path="url(#pd404193b2c)" style="fill: #ff0000; stroke: #ff0000; stroke-width: 0.24"/>
    <path d="M 138.486273 184.453518 
L 134.566515 183.428041 
L 135.032927 182.712455 
L 120.721198 173.384203 
L 121.18761 172.668616 
L 135.49934 181.996868 
L 135.965753 181.281282 
z
" clip-path="url(#pd404193b2c)" style="fill: #ff0000; stroke: #ff0000; stroke-width: 0.24"/>
    <path d="M 140.069098 186.287013 
L 136.182323 185.14286 
L 136.670272 184.441781 
L 122.64871 174.682802 
L 123.136659 173.981724 
L 137.158221 183.740703 
L 137.64617 183.039625 
z
" clip-path="url(#pd404193b2c)" style="fill: #ff0000; stroke: #ff0000; stroke-width: 0.24"/>
    <path d="M 141.595403 188.167526 
L 137.745202 186.905757 
L 138.254236 186.219835 
L 124.535789 176.039161 
L 125.044823 175.353239 
L 138.763269 185.533913 
L 139.272303 184.847991 
z
" clip-path="url(#pd404193b2c)" style="fill: #ff0000; stroke: #ff0000; stroke-width: 0.24"/>
    <path d="M 143.063968 190.093759 
L 139.253901 188.715538 
L 139.78355 188.045406 
L 126.380908 177.452433 
L 126.910557 176.782301 
L 140.313198 187.375274 
L 140.842847 186.705142 
z
" clip-path="url(#pd404193b2c)" style="fill: #ff0000; stroke: #ff0000; stroke-width: 0.24"/>
    <path d="M 144.473114 192.063691 
L 140.706701 190.570291 
L 141.256475 189.916569 
L 128.182025 178.921086 
L 128.731799 178.267364 
L 141.80625 189.262846 
L 142.356024 188.609124 
z
" clip-path="url(#pd404193b2c)" style="fill: #ff0000; stroke: #ff0000; stroke-width: 0.24"/>
    <path d="M 145.821844 194.0755 
L 142.102568 192.468301 
L 142.671959 191.831592 
L 129.937784 180.443763 
L 130.507175 179.807054 
L 143.241351 191.194883 
L 143.810742 190.558175 
z
" clip-path="url(#pd404193b2c)" style="fill: #ff0000; stroke: #ff0000; stroke-width: 0.24"/>
    <path d="M 147.108851 196.127359 
L 143.440146 194.40785 
L 144.028628 193.788743 
L 131.646485 182.019104 
L 132.234967 181.399997 
L 144.61711 193.169636 
L 145.205592 192.550529 
z
" clip-path="url(#pd404193b2c)" style="fill: #ff0000; stroke: #ff0000; stroke-width: 0.24"/>
    <path d="M 148.332796 198.2175 
L 144.718055 196.387268 
L 145.325084 195.786335 
L 133.306428 183.64575 
L 133.913458 183.044817 
L 145.932114 195.185402 
L 146.539143 194.584469 
z
" clip-path="url(#pd404193b2c)" style="fill: #ff0000; stroke: #ff0000; stroke-width: 0.24"/>
    <path d="M 149.492568 200.34378 
L 145.935131 198.404515 
L 146.560146 197.822312 
L 134.916086 185.322003 
L 135.541101 184.739799 
L 147.185162 197.240109 
L 147.810177 196.657906 
z
" clip-path="url(#pd404193b2c)" style="fill: #ff0000; stroke: #ff0000; stroke-width: 0.24"/>
    <path d="M 150.587409 202.50441 
L 147.090563 200.457909 
L 147.732986 199.894973 
L 136.474269 187.046503 
L 137.116693 186.483567 
L 148.37541 199.332037 
L 149.017833 198.769101 
z
" clip-path="url(#pd404193b2c)" style="fill: #ff0000; stroke: #ff0000; stroke-width: 0.24"/>
    <path d="M 148.179097 197.947035 
L 144.557236 196.130932 
L 145.161914 195.527634 
L 133.095941 183.434074 
L 133.700619 182.830776 
L 145.766592 194.924335 
L 146.37127 194.321036 
z
" clip-path="url(#pd404193b2c)" style="fill: #ff0000; stroke: #ff0000; stroke-width: 0.24"/>
    <path d="M 149.630236 197.343954 
L 145.898521 195.765851 
L 146.462922 195.124715 
L 133.640197 183.836686 
L 134.204599 183.19555 
L 147.027324 194.483579 
L 147.591725 193.842443 
z
" clip-path="url(#pd404193b2c)" style="fill: #ff0000; stroke: #ff0000; stroke-width: 0.24"/>
    <path d="M 154.328949 199.463143 
L 150.502999 198.129647 
L 151.024762 197.453356 
L 137.498957 187.018105 
L 138.020719 186.341815 
L 151.546525 196.777066 
L 152.068287 196.100776 
z
" clip-path="url(#pd404193b2c)" style="fill: #ff0000; stroke: #ff0000; stroke-width: 0.24"/>
    <path d="M 159.154951 201.274095 
L 155.25078 200.19079 
L 155.727719 199.482176 
L 141.555438 189.943396 
L 142.032377 189.234782 
L 156.204658 198.773562 
L 156.681597 198.064948 
z
" clip-path="url(#pd404193b2c)" style="fill: #ff0000; stroke: #ff0000; stroke-width: 0.24"/>
    <path d="M 164.08799 202.769141 
L 160.121939 201.940559 
L 160.552059 201.202587 
L 145.792634 192.60019 
L 146.222754 191.862219 
L 160.982179 200.464616 
L 161.412299 199.726645 
z
" clip-path="url(#pd404193b2c)" style="fill: #ff0000; stroke: #ff0000; stroke-width: 0.24"/>
    <path d="M 169.107301 203.942133 
L 165.095972 203.37174 
L 165.477473 202.607501 
L 150.192681 194.977493 
L 150.574181 194.213253 
L 165.858973 201.843261 
L 166.240473 201.079021 
z
" clip-path="url(#pd404193b2c)" style="fill: #ff0000; stroke: #ff0000; stroke-width: 0.24"/>
    <path d="M 174.192091 204.788127 
L 170.152273 204.478317 
L 170.483557 203.691007 
L 154.737368 197.065342 
L 155.068652 196.278033 
L 170.81484 202.903698 
L 171.146123 202.116388 
z
" clip-path="url(#pd404193b2c)" style="fill: #ff0000; stroke: #ff0000; stroke-width: 0.24"/>
    <path d="M 179.320842 205.303601 
L 175.269446 205.255664 
L 175.549126 204.448581 
L 159.407458 198.854976 
L 159.687138 198.047892 
L 175.828806 203.641498 
L 176.108487 202.834414 
z
" clip-path="url(#pd404193b2c)" style="fill: #ff0000; stroke: #ff0000; stroke-width: 0.24"/>
    <path d="M 184.472061 205.486138 
L 180.426044 205.700277 
L 180.652951 204.876798 
L 164.183366 200.338665 
L 164.410273 199.515186 
L 180.879858 204.053318 
L 181.106764 203.229839 
z
" clip-path="url(#pd404193b2c)" style="fill: #ff0000; stroke: #ff0000; stroke-width: 0.24"/>
    <path d="M 189.624592 205.335343 
L 185.60089 205.810661 
L 185.774073 204.974233 
L 169.045508 201.510568 
L 169.218691 200.674139 
L 185.947257 204.137804 
L 186.12044 203.301376 
z
" clip-path="url(#pd404193b2c)" style="fill: #ff0000; stroke: #ff0000; stroke-width: 0.24"/>
    <path d="M 194.756439 204.85175 
L 190.771894 205.586261 
L 190.890628 204.740385 
L 173.9731 202.365702 
L 174.091834 201.519826 
L 191.009362 203.894508 
L 191.128096 203.048632 
z
" clip-path="url(#pd404193b2c)" style="fill: #ff0000; stroke: #ff0000; stroke-width: 0.24"/>
    <path d="M 199.846126 204.037226 
L 195.917416 205.027852 
L 195.981204 204.176068 
L 178.945528 202.900291 
L 179.009317 202.048507 
L 196.044993 203.324284 
L 196.108782 202.4725 
z
" clip-path="url(#pd404193b2c)" style="fill: #ff0000; stroke: #ff0000; stroke-width: 0.24"/>
    <path d="M 204.872722 202.895328 
L 201.016291 204.137923 
L 201.024867 203.283797 
L 183.942348 203.112271 
L 183.950924 202.258145 
L 201.033443 202.429671 
L 201.04202 201.575545 
z
" clip-path="url(#pd404193b2c)" style="fill: #ff0000; stroke: #ff0000; stroke-width: 0.24"/>
    <path d="M 209.814802 201.430699 
L 206.046792 202.920063 
L 206.00012 202.06717 
L 188.942261 203.000612 
L 188.895588 202.147719 
L 205.953448 201.214277 
L 205.906776 200.361384 
z
" clip-path="url(#pd404193b2c)" style="fill: #ff0000; stroke: #ff0000; stroke-width: 0.24"/>
    <path d="M 214.651994 199.649687 
L 210.988176 201.379586 
L 210.886451 200.531496 
L 193.924651 202.566001 
L 193.822926 201.717911 
L 210.784726 199.683406 
L 210.683001 198.835316 
z
" clip-path="url(#pd404193b2c)" style="fill: #ff0000; stroke: #ff0000; stroke-width: 0.24"/>
    <path d="M 219.363777 197.559656 
L 215.819488 199.522848 
L 215.663136 198.68311 
L 198.86839 201.810156 
L 198.712038 200.970419 
L 215.506783 197.843373 
L 215.350431 197.003636 
z
" clip-path="url(#pd404193b2c)" style="fill: #ff0000; stroke: #ff0000; stroke-width: 0.24"/>
    <path d="M 223.930509 195.169104 
L 220.520583 197.357371 
L 220.310258 196.529501 
L 203.752865 200.735999 
L 203.54254 199.908129 
L 220.099933 195.701631 
L 219.889608 194.873762 
z
" clip-path="url(#pd404193b2c)" style="fill: #ff0000; stroke: #ff0000; stroke-width: 0.24"/>
    <path d="M 228.333241 192.4885 
L 225.071954 194.892685 
L 224.808536 194.080149 
L 208.557804 199.348508 
L 208.294386 198.535971 
L 224.545118 193.267612 
L 224.2817 192.455076 
z
" clip-path="url(#pd404193b2c)" style="fill: #ff0000; stroke: #ff0000; stroke-width: 0.24"/>
    <path d="M 232.5534 189.528624 
L 229.454399 192.138662 
L 229.138991 191.344859 
L 213.262937 197.653011 
L 212.947529 196.859208 
L 228.823584 190.551057 
L 228.508176 189.757254 
z
" clip-path="url(#pd404193b2c)" style="fill: #ff0000; stroke: #ff0000; stroke-width: 0.24"/>
    <path d="M 236.573254 186.302134 
L 233.649511 189.1071 
L 233.283434 188.335353 
L 217.848509 195.656894 
L 217.482432 194.885148 
L 232.917357 187.563607 
L 232.55128 186.791861 
z
" clip-path="url(#pd404193b2c)" style="fill: #ff0000; stroke: #ff0000; stroke-width: 0.24"/>
    <path d="M 240.376094 182.822406 
L 237.63985 185.810562 
L 237.224635 185.064103 
L 222.295452 193.368403 
L 221.880238 192.621943 
L 236.80942 184.317644 
L 236.394205 183.571185 
z
" clip-path="url(#pd404193b2c)" style="fill: #ff0000; stroke: #ff0000; stroke-width: 0.24"/>
    <path d="M 243.945911 179.104086 
L 241.408616 182.262921 
L 240.946002 181.544873 
L 226.585043 190.797157 
L 226.122429 190.079109 
L 240.483388 180.826825 
L 240.020774 180.108777 
z
" clip-path="url(#pd404193b2c)" style="fill: #ff0000; stroke: #ff0000; stroke-width: 0.24"/>
    <path d="M 247.267842 175.162775 
L 244.940117 178.479069 
L 244.43204 177.792438 
L 230.699415 187.953978 
L 230.191338 187.267347 
L 243.923963 177.105806 
L 243.415886 176.419175 
z
" clip-path="url(#pd404193b2c)" style="fill: #ff0000; stroke: #ff0000; stroke-width: 0.24"/>
    <path d="M 250.328026 171.014925 
L 248.219613 174.474796 
L 247.6682 173.822455 
L 234.62139 184.85072 
L 234.069976 184.198379 
L 247.116787 173.170115 
L 246.565374 172.517774 
z
" clip-path="url(#pd404193b2c)" style="fill: #ff0000; stroke: #ff0000; stroke-width: 0.24"/>
    <path d="M 253.113565 166.677777 
L 251.233293 170.266745 
L 250.640851 169.651426 
L 238.334477 181.500266 
L 237.742035 180.884948 
L 250.048409 169.036107 
L 249.455967 168.420788 
z
" clip-path="url(#pd404193b2c)" style="fill: #ff0000; stroke: #ff0000; stroke-width: 0.24"/>
    <path d="M 255.910045 162.445977 
L 254.196642 166.117538 
L 253.576557 165.530087 
L 241.827534 177.931794 
L 241.207448 177.344343 
L 252.956472 164.942636 
L 252.336386 164.355185 
z
" clip-path="url(#pd404193b2c)" style="fill: #ff0000; stroke: #ff0000; stroke-width: 0.24"/>
    <path d="M 259.331214 158.834721 
L 257.617811 162.506282 
L 256.997726 161.918831 
L 245.248703 174.320538 
L 244.628617 173.733087 
L 256.377641 161.33138 
L 255.757555 160.743929 
z
" clip-path="url(#pd404193b2c)" style="fill: #ff0000; stroke: #ff0000; stroke-width: 0.24"/>
    <path d="M 262.752383 155.223466 
L 261.03898 158.895026 
L 260.418895 158.307575 
L 248.669872 170.709282 
L 248.049786 170.121831 
L 259.79881 157.720124 
L 259.178724 157.132673 
z
" clip-path="url(#pd404193b2c)" style="fill: #ff0000; stroke: #ff0000; stroke-width: 0.24"/>
    <path d="M 266.173552 151.612381 
L 264.460149 155.283942 
L 263.840064 154.69649 
L 252.091041 167.098197 
L 251.470955 166.510746 
L 263.219979 154.109039 
L 262.599893 153.521588 
z
" clip-path="url(#pd404193b2c)" style="fill: #ff0000; stroke: #ff0000; stroke-width: 0.24"/>
    <path d="M 269.594712 148.001125 
L 267.88131 151.672686 
L 267.261225 151.085235 
L 255.512201 163.486941 
L 254.892116 162.89949 
L 266.641139 150.497783 
L 266.021054 149.910332 
z
" clip-path="url(#pd404193b2c)" style="fill: #ff0000; stroke: #ff0000; stroke-width: 0.24"/>
    <path d="M 273.015873 144.389886 
L 271.30247 148.061447 
L 270.682385 147.473996 
L 258.933362 159.875703 
L 258.313276 159.288252 
L 270.0623 146.886545 
L 269.442214 146.299094 
z
" clip-path="url(#pd404193b2c)" style="fill: #ff0000; stroke: #ff0000; stroke-width: 0.24"/>
    <path d="M 276.437042 140.778665 
L 274.723639 144.450225 
L 274.103554 143.862774 
L 262.354531 156.264481 
L 261.734445 155.67703 
L 273.483469 143.275323 
L 272.863383 142.687872 
z
" clip-path="url(#pd404193b2c)" style="fill: #ff0000; stroke: #ff0000; stroke-width: 0.24"/>
    <path d="M 279.858211 137.167443 
L 278.144808 140.839004 
L 277.524723 140.251553 
L 265.7757 152.65326 
L 265.155614 152.065808 
L 276.904638 139.664101 
L 276.284552 139.07665 
z
" clip-path="url(#pd404193b2c)" style="fill: #ff0000; stroke: #ff0000; stroke-width: 0.24"/>
    <path d="M 283.27938 133.556221 
L 281.565977 137.227782 
L 280.945892 136.640331 
L 269.196869 149.042038 
L 268.576783 148.454587 
L 280.325807 136.05288 
L 279.705721 135.465429 
z
" clip-path="url(#pd404193b2c)" style="fill: #ff0000; stroke: #ff0000; stroke-width: 0.24"/>
    <path d="M 287.272385 130.50617 
L 285.428242 134.113834 
L 284.829652 133.504494 
L 272.642857 145.476291 
L 272.044268 144.866952 
L 284.231062 132.895154 
L 283.632472 132.285814 
z
" clip-path="url(#pd404193b2c)" style="fill: #ff0000; stroke: #ff0000; stroke-width: 0.24"/>
    <path d="M 291.84837 128.133372 
L 289.774804 131.614238 
L 289.216869 130.967467 
L 276.281449 142.126176 
L 275.723513 141.479405 
L 288.658933 130.320696 
L 288.100998 129.673925 
z
" clip-path="url(#pd404193b2c)" style="fill: #ff0000; stroke: #ff0000; stroke-width: 0.24"/>
    <path d="M 296.568155 126.061437 
L 294.273846 129.400936 
L 293.7589 128.719441 
L 280.128998 139.018356 
L 279.614052 138.336861 
L 293.243954 128.037946 
L 292.729009 127.356451 
z
" clip-path="url(#pd404193b2c)" style="fill: #ff0000; stroke: #ff0000; stroke-width: 0.24"/>
    <path d="M 301.412121 124.299039 
L 298.906671 127.483192 
L 298.436871 126.769826 
L 284.169536 136.165838 
L 283.699736 135.452472 
L 297.96707 126.056459 
L 297.49727 125.343092 
z
" clip-path="url(#pd404193b2c)" style="fill: #ff0000; stroke: #ff0000; stroke-width: 0.24"/>
    <path d="M 306.359926 122.853559 
L 303.65382 125.869035 
L 303.231132 125.126783 
L 288.386075 133.58055 
L 287.963387 132.838297 
L 302.808444 124.38453 
L 302.385755 123.642277 
z
" clip-path="url(#pd404193b2c)" style="fill: #ff0000; stroke: #ff0000; stroke-width: 0.24"/>
    <path d="M 311.390819 121.731044 
L 308.495388 124.565226 
L 308.12158 123.797194 
L 292.760947 131.273345 
L 292.387139 130.505314 
L 307.747773 123.029163 
L 307.373965 122.261131 
z
" clip-path="url(#pd404193b2c)" style="fill: #ff0000; stroke: #ff0000; stroke-width: 0.24"/>
    <path d="M 316.483718 120.936171 
L 313.411081 123.577194 
L 313.087719 122.786598 
L 297.275803 129.25384 
L 296.952441 128.463245 
L 312.764357 121.996002 
L 312.440994 121.205407 
z
" clip-path="url(#pd404193b2c)" style="fill: #ff0000; stroke: #ff0000; stroke-width: 0.24"/>
    <path d="M 321.617355 120.472309 
L 318.380369 122.909116 
L 318.108807 122.099265 
L 301.911787 127.530513 
L 301.640225 126.720662 
L 317.837244 121.289414 
L 317.565682 120.479563 
z
" clip-path="url(#pd404193b2c)" style="fill: #ff0000; stroke: #ff0000; stroke-width: 0.24"/>
    <path d="M 326.770263 120.341402 
L 323.382481 122.563797 
L 323.163854 121.738081 
L 306.649533 126.110617 
L 306.430906 125.2849 
L 322.945227 120.912365 
L 322.726601 120.086649 
z
" clip-path="url(#pd404193b2c)" style="fill: #ff0000; stroke: #ff0000; stroke-width: 0.24"/>
    <path d="M 331.920837 120.543833 
L 328.396439 122.542513 
L 328.231663 121.704388 
L 311.469162 124.99991 
L 311.304386 124.161785 
L 328.066887 120.866263 
L 327.902111 120.028138 
z
" clip-path="url(#pd404193b2c)" style="fill: #ff0000; stroke: #ff0000; stroke-width: 0.24"/>
    <path d="M 337.047646 121.079033 
L 333.401383 122.845633 
L 333.291148 121.998607 
L 316.350631 124.20332 
L 316.240395 123.356294 
L 333.180912 121.151581 
L 333.070676 120.304555 
z
" clip-path="url(#pd404193b2c)" style="fill: #ff0000; stroke: #ff0000; stroke-width: 0.24"/>
    <path d="M 342.129107 121.94467 
L 338.376241 123.471792 
L 338.321008 122.619411 
L 321.27338 123.724076 
L 321.218147 122.871695 
L 338.265775 121.767029 
L 338.210541 120.914648 
z
" clip-path="url(#pd404193b2c)" style="fill: #ff0000; stroke: #ff0000; stroke-width: 0.24"/>
    <path d="M 347.143827 123.13696 
L 343.300066 124.418213 
L 343.300066 123.564044 
L 326.216686 123.564044 
L 326.216686 122.709875 
L 343.300066 122.709875 
L 343.300066 121.855706 
z
" clip-path="url(#pd404193b2c)" style="fill: #ff0000; stroke: #ff0000; stroke-width: 0.24"/>
   </g>
   <g id="matplotlib.axis_1">
    <g id="xtick_1">
     <g id="line2d_1">
      <defs>
       <path id="m814c6d9241" d="M 0 0 
L 0 -3 
" style="stroke: #000000"/>
      </defs>
      <g>
       <use xlink:href="#m814c6d9241" x="83.026225" y="255.32545" style="stroke: #000000"/>
      </g>
     </g>
     <g id="text_1">
      <!-- −10 -->
      <g transform="translate(71.946264 268.90381) scale(0.105 -0.105)">
       <defs>
        <path id="DejaVuSans-2212" d="M 678 2272 
L 4684 2272 
L 4684 1741 
L 678 1741 
L 678 2272 
z
" transform="scale(0.015625)"/>
        <path id="DejaVuSans-31" d="M 794 531 
L 1825 531 
L 1825 4091 
L 703 3866 
L 703 4441 
L 1819 4666 
L 2450 4666 
L 2450 531 
L 3481 531 
L 3481 0 
L 794 0 
L 794 531 
z
" transform="scale(0.015625)"/>
        <path id="DejaVuSans-30" d="M 2034 4250 
Q 1547 4250 1301 3770 
Q 1056 3291 1056 2328 
Q 1056 1369 1301 889 
Q 1547 409 2034 409 
Q 2525 409 2770 889 
Q 3016 1369 3016 2328 
Q 3016 3291 2770 3770 
Q 2525 4250 2034 4250 
z
M 2034 4750 
Q 2819 4750 3233 4129 
Q 3647 3509 3647 2328 
Q 3647 1150 3233 529 
Q 2819 -91 2034 -91 
Q 1250 -91 836 529 
Q 422 1150 422 2328 
Q 422 3509 836 4129 
Q 1250 4750 2034 4750 
z
" transform="scale(0.015625)"/>
       </defs>
       <use xlink:href="#DejaVuSans-2212"/>
       <use xlink:href="#DejaVuSans-31" x="83.789062"/>
       <use xlink:href="#DejaVuSans-30" x="147.412109"/>
      </g>
     </g>
    </g>
    <g id="xtick_2">
     <g id="line2d_2">
      <g>
       <use xlink:href="#m814c6d9241" x="168.443126" y="255.32545" style="stroke: #000000"/>
      </g>
     </g>
     <g id="text_2">
      <!-- −5 -->
      <g transform="translate(160.703478 268.90381) scale(0.105 -0.105)">
       <defs>
        <path id="DejaVuSans-35" d="M 691 4666 
L 3169 4666 
L 3169 4134 
L 1269 4134 
L 1269 2991 
Q 1406 3038 1543 3061 
Q 1681 3084 1819 3084 
Q 2600 3084 3056 2656 
Q 3513 2228 3513 1497 
Q 3513 744 3044 326 
Q 2575 -91 1722 -91 
Q 1428 -91 1123 -41 
Q 819 9 494 109 
L 494 744 
Q 775 591 1075 516 
Q 1375 441 1709 441 
Q 2250 441 2565 725 
Q 2881 1009 2881 1497 
Q 2881 1984 2565 2268 
Q 2250 2553 1709 2553 
Q 1456 2553 1204 2497 
Q 953 2441 691 2322 
L 691 4666 
z
" transform="scale(0.015625)"/>
       </defs>
       <use xlink:href="#DejaVuSans-2212"/>
       <use xlink:href="#DejaVuSans-35" x="83.789062"/>
      </g>
     </g>
    </g>
    <g id="xtick_3">
     <g id="line2d_3">
      <g>
       <use xlink:href="#m814c6d9241" x="253.860028" y="255.32545" style="stroke: #000000"/>
      </g>
     </g>
     <g id="text_3">
      <!-- 0 -->
      <g transform="translate(250.519716 268.90381) scale(0.105 -0.105)">
       <use xlink:href="#DejaVuSans-30"/>
      </g>
     </g>
    </g>
    <g id="xtick_4">
     <g id="line2d_4">
      <g>
       <use xlink:href="#m814c6d9241" x="339.27693" y="255.32545" style="stroke: #000000"/>
      </g>
     </g>
     <g id="text_4">
      <!-- 5 -->
      <g transform="translate(335.936618 268.90381) scale(0.105 -0.105)">
       <use xlink:href="#DejaVuSans-35"/>
      </g>
     </g>
    </g>
    <g id="xtick_5">
     <g id="line2d_5">
      <g>
       <use xlink:href="#m814c6d9241" x="424.693832" y="255.32545" style="stroke: #000000"/>
      </g>
     </g>
     <g id="text_5">
      <!-- 10 -->
      <g transform="translate(418.013207 268.90381) scale(0.105 -0.105)">
       <use xlink:href="#DejaVuSans-31"/>
       <use xlink:href="#DejaVuSans-30" x="63.623047"/>
      </g>
     </g>
    </g>
   </g>
   <g id="matplotlib.axis_2">
    <g id="ytick_1">
     <g id="line2d_6">
      <defs>
       <path id="m4e9d727059" d="M 0 0 
L 3 0 
" style="stroke: #000000"/>
      </defs>
      <g>
       <use xlink:href="#m4e9d727059" x="31.88" y="246.991467" style="stroke: #000000"/>
      </g>
     </g>
     <g id="text_6">
      <!-- −6 -->
      <g transform="translate(10.800703 250.980647) scale(0.105 -0.105)">
       <defs>
        <path id="DejaVuSans-36" d="M 2113 2584 
Q 1688 2584 1439 2293 
Q 1191 2003 1191 1497 
Q 1191 994 1439 701 
Q 1688 409 2113 409 
Q 2538 409 2786 701 
Q 3034 994 3034 1497 
Q 3034 2003 2786 2293 
Q 2538 2584 2113 2584 
z
M 3366 4563 
L 3366 3988 
Q 3128 4100 2886 4159 
Q 2644 4219 2406 4219 
Q 1781 4219 1451 3797 
Q 1122 3375 1075 2522 
Q 1259 2794 1537 2939 
Q 1816 3084 2150 3084 
Q 2853 3084 3261 2657 
Q 3669 2231 3669 1497 
Q 3669 778 3244 343 
Q 2819 -91 2113 -91 
Q 1303 -91 875 529 
Q 447 1150 447 2328 
Q 447 3434 972 4092 
Q 1497 4750 2381 4750 
Q 2619 4750 2861 4703 
Q 3103 4656 3366 4563 
z
" transform="scale(0.015625)"/>
       </defs>
       <use xlink:href="#DejaVuSans-2212"/>
       <use xlink:href="#DejaVuSans-36" x="83.789062"/>
      </g>
     </g>
    </g>
    <g id="ytick_2">
     <g id="line2d_7">
      <g>
       <use xlink:href="#m4e9d727059" x="31.88" y="212.824707" style="stroke: #000000"/>
      </g>
     </g>
     <g id="text_7">
      <!-- −4 -->
      <g transform="translate(10.800703 216.813886) scale(0.105 -0.105)">
       <defs>
        <path id="DejaVuSans-34" d="M 2419 4116 
L 825 1625 
L 2419 1625 
L 2419 4116 
z
M 2253 4666 
L 3047 4666 
L 3047 1625 
L 3713 1625 
L 3713 1100 
L 3047 1100 
L 3047 0 
L 2419 0 
L 2419 1100 
L 313 1100 
L 313 1709 
L 2253 4666 
z
" transform="scale(0.015625)"/>
       </defs>
       <use xlink:href="#DejaVuSans-2212"/>
       <use xlink:href="#DejaVuSans-34" x="83.789062"/>
      </g>
     </g>
    </g>
    <g id="ytick_3">
     <g id="line2d_8">
      <g>
       <use xlink:href="#m4e9d727059" x="31.88" y="178.657946" style="stroke: #000000"/>
      </g>
     </g>
     <g id="text_8">
      <!-- −2 -->
      <g transform="translate(10.800703 182.647126) scale(0.105 -0.105)">
       <defs>
        <path id="DejaVuSans-32" d="M 1228 531 
L 3431 531 
L 3431 0 
L 469 0 
L 469 531 
Q 828 903 1448 1529 
Q 2069 2156 2228 2338 
Q 2531 2678 2651 2914 
Q 2772 3150 2772 3378 
Q 2772 3750 2511 3984 
Q 2250 4219 1831 4219 
Q 1534 4219 1204 4116 
Q 875 4013 500 3803 
L 500 4441 
Q 881 4594 1212 4672 
Q 1544 4750 1819 4750 
Q 2544 4750 2975 4387 
Q 3406 4025 3406 3419 
Q 3406 3131 3298 2873 
Q 3191 2616 2906 2266 
Q 2828 2175 2409 1742 
Q 1991 1309 1228 531 
z
" transform="scale(0.015625)"/>
       </defs>
       <use xlink:href="#DejaVuSans-2212"/>
       <use xlink:href="#DejaVuSans-32" x="83.789062"/>
      </g>
     </g>
    </g>
    <g id="ytick_4">
     <g id="line2d_9">
      <g>
       <use xlink:href="#m4e9d727059" x="31.88" y="144.491185" style="stroke: #000000"/>
      </g>
     </g>
     <g id="text_9">
      <!-- 0 -->
      <g transform="translate(19.599375 148.480365) scale(0.105 -0.105)">
       <use xlink:href="#DejaVuSans-30"/>
      </g>
     </g>
    </g>
    <g id="ytick_5">
     <g id="line2d_10">
      <g>
       <use xlink:href="#m4e9d727059" x="31.88" y="110.324424" style="stroke: #000000"/>
      </g>
     </g>
     <g id="text_10">
      <!-- 2 -->
      <g transform="translate(19.599375 114.313604) scale(0.105 -0.105)">
       <use xlink:href="#DejaVuSans-32"/>
      </g>
     </g>
    </g>
    <g id="ytick_6">
     <g id="line2d_11">
      <g>
       <use xlink:href="#m4e9d727059" x="31.88" y="76.157664" style="stroke: #000000"/>
      </g>
     </g>
     <g id="text_11">
      <!-- 4 -->
      <g transform="translate(19.599375 80.146843) scale(0.105 -0.105)">
       <use xlink:href="#DejaVuSans-34"/>
      </g>
     </g>
    </g>
   </g>
   <g id="patch_3">
    <path d="M 31.88 255.32545 
L 31.88 61.47455 
" style="fill: none; stroke: #000000; stroke-width: 0.8; stroke-linejoin: miter; stroke-linecap: square"/>
   </g>
   <g id="patch_4">
    <path d="M 450 255.32545 
L 450 61.47455 
" style="fill: none; stroke: #000000; stroke-width: 0.8; stroke-linejoin: miter; stroke-linecap: square"/>
   </g>
   <g id="patch_5">
    <path d="M 31.88 255.32545 
L 450 255.32545 
" style="fill: none; stroke: #000000; stroke-width: 0.8; stroke-linejoin: miter; stroke-linecap: square"/>
   </g>
   <g id="patch_6">
    <path d="M 31.88 61.47455 
L 450 61.47455 
" style="fill: none; stroke: #000000; stroke-width: 0.8; stroke-linejoin: miter; stroke-linecap: square"/>
   </g>
  </g>
 </g>
 <defs>
  <clipPath id="pd404193b2c">
   <rect x="31.88" y="61.47455" width="418.12" height="193.8509"/>
  </clipPath>
 </defs>
</svg>
