<?xml version="1.0" encoding="utf-8" standalone="no"?>
<!DOCTYPE svg PUBLIC "-//W3C//DTD SVG 1.1//EN"
  "http://www.w3.org/Graphics/SVG/1.1/DTD/svg11.dtd">
<svg xmlns:xlink="http://www.w3.org/1999/xlink" width="460.8pt" height="316.8pt" viewBox="0 0 460.8 316.8" xmlns="http://www.w3.org/2000/svg" version="1.1">
 <metadata>
  <rdf:RDF xmlns:dc="http://purl.org/dc/elements/1.1/" xmlns:cc="http://creativecommons.org/ns#" xmlns:rdf="http://www.w3.org/1999/02/22-rdf-syntax-ns#">
   <cc:Work>
    <dc:type rdf:resource="http://purl.org/dc/dcmitype/StillImage"/>
    <dc:date>2024-01-11T15:51:35.366966</dc:date>
    <dc:format>image/svg+xml</dc:format>
    <dc:creator>
     <cc:Agent>
      <dc:title>Matplotlib v3.7.2, https://matplotlib.org/</dc:title>
     </cc:Agent>
    </dc:creator>
   </cc:Work>
  </rdf:RDF>
 </metadata>
 <defs>
  <style type="text/css">*{stroke-linejoin: round; stroke-linecap: butt}</style>
 </defs>
 <g id="figure_1">
  <g id="patch_1">
   <path d="M 0 316.8 
L 460.8 316.8 
L 460.8 0 
L 0 0 
z
" style="fill: #ffffff"/>
  </g>
  <g id="axes_1">
   <g id="patch_2">
    <path d="M 31.88 254.106421 
L 450 254.106421 
L 450 62.693579 
L 31.88 62.693579 
z
" style="fill: #ffffff"/>
   </g>
   <g id="PatchCollection_1">
    <path d="M 252.741246 145.929346 
L 355.888921 145.929346 
L 355.888921 102.951148 
L 252.741246 102.951148 
z
" clip-path="url(#p11896fd68a)" style="fill: #ffffff; stroke: #0000ff; stroke-width: 3"/>
    <path d="M 132.402293 97.793765 
L 178.638236 163.825535 
L 205.986007 144.67642 
L 159.750064 78.644649 
z
" clip-path="url(#p11896fd68a)" style="fill: #ff0000; stroke: #ff0000; stroke-width: 2"/>
    <path d="M 352.450665 154.524986 
L 430.994545 136.391702 
L 423.48445 103.861905 
L 344.940569 121.995189 
z
" clip-path="url(#p11896fd68a)" style="fill: #ff0000; stroke: #ff0000; stroke-width: 2"/>
   </g>
   <g id="PatchCollection_2">
    <path d="M 50.885455 128.066057 
L 120.695673 168.371026 
L 137.388412 139.45837 
L 67.578193 99.153401 
L 50.885455 128.066057 
z
" clip-path="url(#p11896fd68a)" style="fill: none; stroke: #000000; stroke-width: 0.5"/>
    <path d="M 55.564705 126.790526 
L 123.066179 170.853075 
L 141.315159 142.896611 
L 73.813685 98.834062 
L 55.564705 126.790526 
z
" clip-path="url(#p11896fd68a)" style="fill: none; stroke: #000000; stroke-width: 0.5"/>
    <path d="M 59.696066 127.378467 
L 125.909872 173.353341 
L 144.950863 145.930178 
L 78.737057 99.955304 
L 59.696066 127.378467 
z
" clip-path="url(#p11896fd68a)" style="fill: none; stroke: #000000; stroke-width: 0.5"/>
    <path d="M 63.173002 129.792672 
L 129.386808 175.767547 
L 148.427799 148.344384 
L 82.213993 102.369509 
L 63.173002 129.792672 
z
" clip-path="url(#p11896fd68a)" style="fill: none; stroke: #000000; stroke-width: 0.5"/>
    <path d="M 66.65011 132.206878 
L 132.863916 178.181753 
L 151.904907 150.75859 
L 85.691101 104.783715 
L 66.65011 132.206878 
z
" clip-path="url(#p11896fd68a)" style="fill: none; stroke: #000000; stroke-width: 0.5"/>
    <path d="M 70.127046 134.621084 
L 136.340852 180.595958 
L 155.381843 153.172795 
L 89.168037 107.197921 
L 70.127046 134.621084 
z
" clip-path="url(#p11896fd68a)" style="fill: none; stroke: #000000; stroke-width: 0.5"/>
    <path d="M 73.603982 137.035289 
L 139.817788 183.010164 
L 158.858779 155.587001 
L 92.644973 109.612126 
L 73.603982 137.035289 
z
" clip-path="url(#p11896fd68a)" style="fill: none; stroke: #000000; stroke-width: 0.5"/>
    <path d="M 77.080919 139.449495 
L 143.294725 185.42437 
L 162.335715 158.001207 
L 96.12191 112.026332 
L 77.080919 139.449495 
z
" clip-path="url(#p11896fd68a)" style="fill: none; stroke: #000000; stroke-width: 0.5"/>
    <path d="M 80.558027 141.86377 
L 146.771833 187.838644 
L 165.812824 160.415481 
L 99.599018 114.440607 
L 80.558027 141.86377 
z
" clip-path="url(#p11896fd68a)" style="fill: none; stroke: #000000; stroke-width: 0.5"/>
    <path d="M 84.034963 144.277941 
L 150.248769 190.252815 
L 169.28976 162.829653 
L 103.075954 116.854778 
L 84.034963 144.277941 
z
" clip-path="url(#p11896fd68a)" style="fill: none; stroke: #000000; stroke-width: 0.5"/>
    <path d="M 87.511899 146.692112 
L 153.725705 192.666987 
L 172.766696 165.243824 
L 106.55289 119.268949 
L 87.511899 146.692112 
z
" clip-path="url(#p11896fd68a)" style="fill: none; stroke: #000000; stroke-width: 0.5"/>
    <path d="M 90.988835 149.106284 
L 157.202641 195.081158 
L 176.243632 167.657995 
L 110.029826 121.683121 
L 90.988835 149.106284 
z
" clip-path="url(#p11896fd68a)" style="fill: none; stroke: #000000; stroke-width: 0.5"/>
    <path d="M 94.465943 151.520455 
L 160.679749 197.495329 
L 179.72074 170.072167 
L 113.506934 124.097292 
L 94.465943 151.520455 
z
" clip-path="url(#p11896fd68a)" style="fill: none; stroke: #000000; stroke-width: 0.5"/>
    <path d="M 97.94288 153.934798 
L 164.156685 199.909673 
L 183.197676 172.48651 
L 116.983871 126.511635 
L 97.94288 153.934798 
z
" clip-path="url(#p11896fd68a)" style="fill: none; stroke: #000000; stroke-width: 0.5"/>
    <path d="M 101.419816 156.348969 
L 167.633622 202.323844 
L 186.674613 174.900681 
L 120.460807 128.925806 
L 101.419816 156.348969 
z
" clip-path="url(#p11896fd68a)" style="fill: none; stroke: #000000; stroke-width: 0.5"/>
    <path d="M 104.896924 158.763141 
L 171.11073 204.738015 
L 190.151721 177.314852 
L 123.937915 131.339978 
L 104.896924 158.763141 
z
" clip-path="url(#p11896fd68a)" style="fill: none; stroke: #000000; stroke-width: 0.5"/>
    <path d="M 108.37386 161.177312 
L 174.587666 207.152187 
L 193.628657 179.729024 
L 127.414851 133.754149 
L 108.37386 161.177312 
z
" clip-path="url(#p11896fd68a)" style="fill: none; stroke: #000000; stroke-width: 0.5"/>
    <path d="M 111.850796 163.591483 
L 178.064602 209.566358 
L 197.105593 182.143195 
L 130.891787 136.16832 
L 111.850796 163.591483 
z
" clip-path="url(#p11896fd68a)" style="fill: none; stroke: #000000; stroke-width: 0.5"/>
    <path d="M 115.327732 166.005827 
L 181.541538 211.980701 
L 200.582529 184.557538 
L 134.368723 138.582664 
L 115.327732 166.005827 
z
" clip-path="url(#p11896fd68a)" style="fill: none; stroke: #000000; stroke-width: 0.5"/>
    <path d="M 118.804841 168.419998 
L 185.018646 214.394872 
L 204.059637 186.97171 
L 137.845832 140.996835 
L 118.804841 168.419998 
z
" clip-path="url(#p11896fd68a)" style="fill: none; stroke: #000000; stroke-width: 0.5"/>
    <path d="M 122.281777 170.834169 
L 188.495583 216.809044 
L 207.536574 189.385881 
L 141.322768 143.411006 
L 122.281777 170.834169 
z
" clip-path="url(#p11896fd68a)" style="fill: none; stroke: #000000; stroke-width: 0.5"/>
    <path d="M 125.758713 173.248341 
L 191.972519 219.223215 
L 211.01351 191.800052 
L 144.799704 145.825178 
L 125.758713 173.248341 
z
" clip-path="url(#p11896fd68a)" style="fill: none; stroke: #000000; stroke-width: 0.5"/>
    <path d="M 129.235649 175.662512 
L 195.449455 221.637386 
L 214.490446 194.214224 
L 148.27664 148.239349 
L 129.235649 175.662512 
z
" clip-path="url(#p11896fd68a)" style="fill: none; stroke: #000000; stroke-width: 0.5"/>
    <path d="M 132.457729 178.782128 
L 199.187084 224.005467 
L 217.916819 196.368784 
L 151.187464 151.145445 
L 132.457729 178.782128 
z
" clip-path="url(#p11896fd68a)" style="fill: none; stroke: #000000; stroke-width: 0.5"/>
    <path d="M 134.891495 184.53193 
L 203.994234 226.038179 
L 221.184495 197.418533 
L 152.081757 155.912284 
L 134.891495 184.53193 
z
" clip-path="url(#p11896fd68a)" style="fill: none; stroke: #000000; stroke-width: 0.5"/>
    <path d="M 137.636154 190.140134 
L 208.905438 227.805057 
L 224.504773 198.288113 
L 153.235489 160.623191 
L 137.636154 190.140134 
z
" clip-path="url(#p11896fd68a)" style="fill: none; stroke: #000000; stroke-width: 0.5"/>
    <path d="M 140.683364 195.589581 
L 213.905835 229.300511 
L 227.867581 198.974634 
L 154.64511 165.263703 
L 140.683364 195.589581 
z
" clip-path="url(#p11896fd68a)" style="fill: none; stroke: #000000; stroke-width: 0.5"/>
    <path d="M 134.693054 198.283975 
L 210.210597 226.480746 
L 221.888594 195.20434 
L 146.371052 167.007568 
L 134.693054 198.283975 
z
" clip-path="url(#p11896fd68a)" style="fill: none; stroke: #000000; stroke-width: 0.5"/>
    <path d="M 128.918714 201.414623 
L 206.316743 223.942436 
L 215.64688 191.887207 
L 138.248852 169.359394 
L 128.918714 201.414623 
z
" clip-path="url(#p11896fd68a)" style="fill: none; stroke: #000000; stroke-width: 0.5"/>
    <path d="M 123.391916 204.963993 
L 202.245504 221.699251 
L 209.176592 189.041186 
L 130.323004 172.305928 
L 123.391916 204.963993 
z
" clip-path="url(#p11896fd68a)" style="fill: none; stroke: #000000; stroke-width: 0.5"/>
    <path d="M 118.143083 208.91297 
L 198.019352 219.76372 
L 202.513307 186.6821 
L 122.637038 175.83135 
L 118.143083 208.91297 
z
" clip-path="url(#p11896fd68a)" style="fill: none; stroke: #000000; stroke-width: 0.5"/>
    <path d="M 121.554208 213.9767 
L 202.014641 218.883421 
L 204.046812 185.559864 
L 123.586379 180.653143 
L 121.554208 213.9767 
z
" clip-path="url(#p11896fd68a)" style="fill: none; stroke: #000000; stroke-width: 0.5"/>
    <path d="M 128.406652 218.931033 
L 209.009534 217.866771 
L 208.568758 184.484217 
L 127.965877 185.548479 
L 128.406652 218.931033 
z
" clip-path="url(#p11896fd68a)" style="fill: none; stroke: #000000; stroke-width: 0.5"/>
    <path d="M 135.607215 223.364251 
L 215.910046 216.33485 
L 212.998744 183.076565 
L 132.695912 190.105966 
L 135.607215 223.364251 
z
" clip-path="url(#p11896fd68a)" style="fill: none; stroke: #000000; stroke-width: 0.5"/>
    <path d="M 143.116329 227.251972 
L 222.67826 214.296037 
L 217.31242 181.344603 
L 137.750488 194.300538 
L 143.116329 227.251972 
z
" clip-path="url(#p11896fd68a)" style="fill: none; stroke: #000000; stroke-width: 0.5"/>
    <path d="M 150.892729 230.573293 
L 229.276967 211.761903 
L 221.486027 179.298224 
L 143.101789 198.109614 
L 150.892729 230.573293 
z
" clip-path="url(#p11896fd68a)" style="fill: none; stroke: #000000; stroke-width: 0.5"/>
    <path d="M 158.89358 233.309527 
L 235.669826 208.746032 
L 225.49659 176.948321 
L 148.720344 201.511815 
L 158.89358 233.309527 
z
" clip-path="url(#p11896fd68a)" style="fill: none; stroke: #000000; stroke-width: 0.5"/>
    <path d="M 167.075075 235.446063 
L 241.821814 205.265237 
L 229.322099 174.308068 
L 154.57536 204.488894 
L 167.075075 235.446063 
z
" clip-path="url(#p11896fd68a)" style="fill: none; stroke: #000000; stroke-width: 0.5"/>
    <path d="M 175.392293 236.970907 
L 247.699171 201.338441 
L 232.9416 171.391766 
L 160.634722 207.024233 
L 175.392293 236.970907 
z
" clip-path="url(#p11896fd68a)" style="fill: none; stroke: #000000; stroke-width: 0.5"/>
    <path d="M 183.799539 237.875508 
L 253.269636 196.98709 
L 236.335256 168.215299 
L 166.865159 209.103717 
L 183.799539 237.875508 
z
" clip-path="url(#p11896fd68a)" style="fill: none; stroke: #000000; stroke-width: 0.5"/>
    <path d="M 192.250864 238.155351 
L 258.502761 192.235383 
L 239.48451 164.796445 
L 173.232614 210.716412 
L 192.250864 238.155351 
z
" clip-path="url(#p11896fd68a)" style="fill: none; stroke: #000000; stroke-width: 0.5"/>
    <path d="M 200.699587 237.808529 
L 263.369615 187.109172 
L 242.371929 161.153703 
L 179.701901 211.85306 
L 200.699587 237.808529 
z
" clip-path="url(#p11896fd68a)" style="fill: none; stroke: #000000; stroke-width: 0.5"/>
    <path d="M 209.099494 236.837241 
L 267.843553 181.636764 
L 244.981679 157.307277 
L 186.23762 212.507754 
L 209.099494 236.837241 
z
" clip-path="url(#p11896fd68a)" style="fill: none; stroke: #000000; stroke-width: 0.5"/>
    <path d="M 217.404409 235.246548 
L 271.899999 175.847997 
L 247.299448 153.27806 
L 192.803857 212.676611 
L 217.404409 235.246548 
z
" clip-path="url(#p11896fd68a)" style="fill: none; stroke: #000000; stroke-width: 0.5"/>
    <path d="M 225.56871 233.045293 
L 275.516718 169.774813 
L 249.312565 149.088306 
L 199.364557 212.358786 
L 225.56871 233.045293 
z
" clip-path="url(#p11896fd68a)" style="fill: none; stroke: #000000; stroke-width: 0.5"/>
    <path d="M 233.547675 230.245727 
L 278.67383 163.450613 
L 251.009912 144.761128 
L 205.883757 211.556243 
L 233.547675 230.245727 
z
" clip-path="url(#p11896fd68a)" style="fill: none; stroke: #000000; stroke-width: 0.5"/>
    <path d="M 240.451851 226.626222 
L 281.428416 157.208081 
L 252.678143 140.237194 
L 211.701578 209.655335 
L 240.451851 226.626222 
z
" clip-path="url(#p11896fd68a)" style="fill: none; stroke: #000000; stroke-width: 0.5"/>
    <path d="M 238.847238 220.256766 
L 284.85133 154.063257 
L 257.436573 135.010165 
L 211.432481 201.203675 
L 238.847238 220.256766 
z
" clip-path="url(#p11896fd68a)" style="fill: none; stroke: #000000; stroke-width: 0.5"/>
    <path d="M 237.718701 213.786026 
L 288.497691 151.180504 
L 262.568938 130.149837 
L 211.789948 192.755358 
L 237.718701 213.786026 
z
" clip-path="url(#p11896fd68a)" style="fill: none; stroke: #000000; stroke-width: 0.5"/>
    <path d="M 237.072439 207.249515 
L 292.347496 148.575626 
L 268.047071 125.682864 
L 212.772014 184.356753 
L 237.072439 207.249515 
z
" clip-path="url(#p11896fd68a)" style="fill: none; stroke: #000000; stroke-width: 0.5"/>
    <path d="M 236.911864 200.683053 
L 296.379594 146.262963 
L 273.840925 121.63376 
L 214.373195 176.053851 
L 236.911864 200.683053 
z
" clip-path="url(#p11896fd68a)" style="fill: none; stroke: #000000; stroke-width: 0.5"/>
    <path d="M 237.237894 194.122722 
L 300.571823 144.255192 
L 279.918647 118.024761 
L 216.584718 167.892291 
L 237.237894 194.122722 
z
" clip-path="url(#p11896fd68a)" style="fill: none; stroke: #000000; stroke-width: 0.5"/>
    <path d="M 238.048948 187.604598 
L 304.901333 142.563331 
L 286.247006 114.875694 
L 219.39462 159.916961 
L 238.048948 187.604598 
z
" clip-path="url(#p11896fd68a)" style="fill: none; stroke: #000000; stroke-width: 0.5"/>
    <path d="M 239.340283 181.164364 
L 309.34416 141.196697 
L 292.791119 112.203835 
L 222.787242 152.171502 
L 239.340283 181.164364 
z
" clip-path="url(#p11896fd68a)" style="fill: none; stroke: #000000; stroke-width: 0.5"/>
    <path d="M 241.104991 174.837471 
L 313.876008 140.16275 
L 299.515098 110.023848 
L 226.744081 144.698569 
L 241.104991 174.837471 
z
" clip-path="url(#p11896fd68a)" style="fill: none; stroke: #000000; stroke-width: 0.5"/>
    <path d="M 243.33316 168.658536 
L 318.47185 139.467194 
L 306.38194 108.347694 
L 231.24325 137.539036 
L 243.33316 168.658536 
z
" clip-path="url(#p11896fd68a)" style="fill: none; stroke: #000000; stroke-width: 0.5"/>
    <path d="M 246.012783 162.661536 
L 323.10664 139.11383 
L 313.354103 107.184576 
L 236.260246 130.732282 
L 246.012783 162.661536 
z
" clip-path="url(#p11896fd68a)" style="fill: none; stroke: #000000; stroke-width: 0.5"/>
    <path d="M 249.129174 156.879466 
L 327.75494 139.104592 
L 320.393284 106.540882 
L 241.767518 124.315755 
L 249.129174 156.879466 
z
" clip-path="url(#p11896fd68a)" style="fill: none; stroke: #000000; stroke-width: 0.5"/>
    <path d="M 252.664972 151.344013 
L 332.391021 139.439632 
L 327.460694 106.420228 
L 247.734645 118.324608 
L 252.664972 151.344013 
z
" clip-path="url(#p11896fd68a)" style="fill: none; stroke: #000000; stroke-width: 0.5"/>
    <path d="M 256.601144 146.085538 
L 336.989782 140.116956 
L 334.51783 106.823133 
L 254.129191 112.791715 
L 256.601144 146.085538 
z
" clip-path="url(#p11896fd68a)" style="fill: none; stroke: #000000; stroke-width: 0.5"/>
    <path d="M 260.915699 141.132979 
L 341.525607 141.132979 
L 341.525607 107.747515 
L 260.915699 107.747515 
L 260.915699 141.132979 
z
" clip-path="url(#p11896fd68a)" style="fill: none; stroke: #000000; stroke-width: 0.5"/>
   </g>
   <g id="PatchCollection_3">
    <path d="M 133.448915 156.459009 
L 129.454423 155.641595 
L 129.884205 154.897191 
L 114.996123 146.301548 
L 115.425905 145.557144 
L 130.313987 154.152787 
L 130.743769 153.408383 
z
" clip-path="url(#p11896fd68a)" style="fill: #ff0000; stroke: #ff0000; stroke-width: 0.24"/>
    <path d="M 136.451799 159.656356 
L 132.507989 158.621708 
L 132.977839 157.901923 
L 118.582131 148.504919 
L 119.051982 147.785134 
L 133.447689 157.182137 
L 133.91754 156.462352 
z
" clip-path="url(#p11896fd68a)" style="fill: #ff0000; stroke: #ff0000; stroke-width: 0.24"/>
    <path d="M 139.610211 162.543991 
L 135.697602 161.396985 
L 136.187844 160.69093 
L 122.066751 150.886095 
L 122.556992 150.18004 
L 136.678086 159.984876 
L 137.168327 159.278821 
z
" clip-path="url(#p11896fd68a)" style="fill: #ff0000; stroke: #ff0000; stroke-width: 0.24"/>
    <path d="M 143.087147 164.958197 
L 139.174538 163.811191 
L 139.66478 163.105136 
L 125.543687 153.3003 
L 126.033929 152.594246 
L 140.155022 162.399081 
L 140.645264 161.693027 
z
" clip-path="url(#p11896fd68a)" style="fill: #ff0000; stroke: #ff0000; stroke-width: 0.24"/>
    <path d="M 146.564255 167.372403 
L 142.651646 166.225396 
L 143.141888 165.519342 
L 129.020795 155.714506 
L 129.511037 155.008451 
L 143.63213 164.813287 
L 144.122372 164.107232 
z
" clip-path="url(#p11896fd68a)" style="fill: #ff0000; stroke: #ff0000; stroke-width: 0.24"/>
    <path d="M 150.041191 169.786608 
L 146.128583 168.639602 
L 146.618824 167.933548 
L 132.497731 158.128712 
L 132.987973 157.422657 
L 147.109066 167.227493 
L 147.599308 166.521438 
z
" clip-path="url(#p11896fd68a)" style="fill: #ff0000; stroke: #ff0000; stroke-width: 0.24"/>
    <path d="M 153.518127 172.200814 
L 149.605519 171.053808 
L 150.095761 170.347753 
L 135.974667 160.542918 
L 136.464909 159.836863 
L 150.586002 169.641699 
L 151.076244 168.935644 
z
" clip-path="url(#p11896fd68a)" style="fill: #ff0000; stroke: #ff0000; stroke-width: 0.24"/>
    <path d="M 156.995064 174.61502 
L 153.082455 173.468014 
L 153.572697 172.761959 
L 139.451604 162.957123 
L 139.941845 162.251069 
L 154.062939 172.055904 
L 154.55318 171.34985 
z
" clip-path="url(#p11896fd68a)" style="fill: #ff0000; stroke: #ff0000; stroke-width: 0.24"/>
    <path d="M 160.472172 177.029294 
L 156.559563 175.882288 
L 157.049805 175.176233 
L 142.928712 165.371398 
L 143.418953 164.665343 
L 157.540047 174.470179 
L 158.030288 173.764124 
z
" clip-path="url(#p11896fd68a)" style="fill: #ff0000; stroke: #ff0000; stroke-width: 0.24"/>
    <path d="M 163.949108 179.443465 
L 160.036499 178.296459 
L 160.526741 177.590405 
L 146.405648 167.785569 
L 146.89589 167.079514 
L 161.016983 176.88435 
L 161.507225 176.178295 
z
" clip-path="url(#p11896fd68a)" style="fill: #ff0000; stroke: #ff0000; stroke-width: 0.24"/>
    <path d="M 167.426044 181.857637 
L 163.513435 180.710631 
L 164.003677 180.004576 
L 149.882584 170.19974 
L 150.372826 169.493686 
L 164.493919 179.298521 
L 164.984161 178.592467 
z
" clip-path="url(#p11896fd68a)" style="fill: #ff0000; stroke: #ff0000; stroke-width: 0.24"/>
    <path d="M 170.90298 184.271808 
L 166.990372 183.124802 
L 167.480613 182.418747 
L 153.35952 172.613912 
L 153.849762 171.907857 
L 167.970855 181.712693 
L 168.461097 181.006638 
z
" clip-path="url(#p11896fd68a)" style="fill: #ff0000; stroke: #ff0000; stroke-width: 0.24"/>
    <path d="M 174.380088 186.685979 
L 170.46748 185.538973 
L 170.957721 184.832919 
L 156.836628 175.028083 
L 157.32687 174.322028 
L 171.447963 184.126864 
L 171.938205 183.420809 
z
" clip-path="url(#p11896fd68a)" style="fill: #ff0000; stroke: #ff0000; stroke-width: 0.24"/>
    <path d="M 177.857025 189.100323 
L 173.944416 187.953317 
L 174.434658 187.247262 
L 160.313565 177.442426 
L 160.803806 176.736372 
L 174.924899 186.541207 
L 175.415141 185.835153 
z
" clip-path="url(#p11896fd68a)" style="fill: #ff0000; stroke: #ff0000; stroke-width: 0.24"/>
    <path d="M 181.333961 191.514494 
L 177.421352 190.367488 
L 177.911594 189.661433 
L 163.790501 179.856597 
L 164.280742 179.150543 
L 178.401836 188.955379 
L 178.892077 188.249324 
z
" clip-path="url(#p11896fd68a)" style="fill: #ff0000; stroke: #ff0000; stroke-width: 0.24"/>
    <path d="M 184.811069 193.928665 
L 180.89846 192.781659 
L 181.388702 192.075605 
L 167.267609 182.270769 
L 167.757851 181.564714 
L 181.878944 191.36955 
L 182.369186 190.663495 
z
" clip-path="url(#p11896fd68a)" style="fill: #ff0000; stroke: #ff0000; stroke-width: 0.24"/>
    <path d="M 188.288005 196.342837 
L 184.375396 195.19583 
L 184.865638 194.489776 
L 170.744545 184.68494 
L 171.234787 183.978885 
L 185.35588 193.783721 
L 185.846122 193.077667 
z
" clip-path="url(#p11896fd68a)" style="fill: #ff0000; stroke: #ff0000; stroke-width: 0.24"/>
    <path d="M 191.764941 198.757008 
L 187.852333 197.610002 
L 188.342574 196.903947 
L 174.221481 187.099111 
L 174.711723 186.393057 
L 188.832816 196.197892 
L 189.323058 195.491838 
z
" clip-path="url(#p11896fd68a)" style="fill: #ff0000; stroke: #ff0000; stroke-width: 0.24"/>
    <path d="M 195.241877 201.171351 
L 191.329269 200.024345 
L 191.819511 199.31829 
L 177.698417 189.513455 
L 178.188659 188.8074 
L 192.309752 198.612236 
L 192.799994 197.906181 
z
" clip-path="url(#p11896fd68a)" style="fill: #ff0000; stroke: #ff0000; stroke-width: 0.24"/>
    <path d="M 198.718985 203.585522 
L 194.806377 202.438516 
L 195.296619 201.732462 
L 181.175525 191.927626 
L 181.665767 191.221571 
L 195.78686 201.026407 
L 196.277102 200.320352 
z
" clip-path="url(#p11896fd68a)" style="fill: #ff0000; stroke: #ff0000; stroke-width: 0.24"/>
    <path d="M 202.195922 205.999694 
L 198.283313 204.852688 
L 198.773555 204.146633 
L 184.652462 194.341797 
L 185.142703 193.635743 
L 199.263797 203.440578 
L 199.754038 202.734524 
z
" clip-path="url(#p11896fd68a)" style="fill: #ff0000; stroke: #ff0000; stroke-width: 0.24"/>
    <path d="M 205.672858 208.413865 
L 201.760249 207.266859 
L 202.250491 206.560804 
L 188.129398 196.755969 
L 188.61964 196.049914 
L 202.740733 205.85475 
L 203.230975 205.148695 
z
" clip-path="url(#p11896fd68a)" style="fill: #ff0000; stroke: #ff0000; stroke-width: 0.24"/>
    <path d="M 209.149794 210.828036 
L 205.237185 209.68103 
L 205.727427 208.974976 
L 191.606334 199.17014 
L 192.096576 198.464085 
L 206.217669 208.268921 
L 206.707911 207.562866 
z
" clip-path="url(#p11896fd68a)" style="fill: #ff0000; stroke: #ff0000; stroke-width: 0.24"/>
    <path d="M 212.76434 213.041915 
L 208.839013 211.939217 
L 209.321241 211.227665 
L 195.0902 201.583106 
L 195.572428 200.871554 
L 209.803469 210.516113 
L 210.285697 209.804561 
z
" clip-path="url(#p11896fd68a)" style="fill: #ff0000; stroke: #ff0000; stroke-width: 0.24"/>
    <path d="M 216.951576 214.348499 
L 212.971818 213.462127 
L 213.41441 212.725266 
L 198.677208 203.873433 
L 199.1198 203.136572 
L 213.857002 211.988406 
L 214.299593 211.251546 
z
" clip-path="url(#p11896fd68a)" style="fill: #ff0000; stroke: #ff0000; stroke-width: 0.24"/>
    <path d="M 221.204083 215.424239 
L 217.181806 214.756845 
L 217.583437 213.996882 
L 202.384187 205.964269 
L 202.785817 205.204306 
L 217.985067 213.23692 
L 218.386698 212.476957 
z
" clip-path="url(#p11896fd68a)" style="fill: #ff0000; stroke: #ff0000; stroke-width: 0.24"/>
    <path d="M 225.508984 216.265625 
L 221.456227 215.819202 
L 221.815696 215.038412 
L 206.199899 207.849048 
L 206.559367 207.068258 
L 222.175164 214.257623 
L 222.534632 213.476833 
z
" clip-path="url(#p11896fd68a)" style="fill: #ff0000; stroke: #ff0000; stroke-width: 0.24"/>
    <path d="M 220.816751 212.622505 
L 216.742065 212.477387 
L 217.042734 211.672124 
L 200.937479 205.658738 
L 201.238148 204.853475 
L 217.343404 210.866862 
L 217.644073 210.061599 
z
" clip-path="url(#p11896fd68a)" style="fill: #ff0000; stroke: #ff0000; stroke-width: 0.24"/>
    <path d="M 215.867676 209.336923 
L 211.793429 209.493906 
L 212.033649 208.668591 
L 195.527351 203.864195 
L 195.767571 203.03888 
L 212.273869 207.843276 
L 212.514088 207.017961 
z
" clip-path="url(#p11896fd68a)" style="fill: #ff0000; stroke: #ff0000; stroke-width: 0.24"/>
    <path d="M 210.688796 206.426656 
L 206.637356 206.884874 
L 206.815809 206.044039 
L 189.999091 202.474992 
L 190.177544 201.634156 
L 206.994261 205.203203 
L 207.172713 204.362367 
z
" clip-path="url(#p11896fd68a)" style="fill: #ff0000; stroke: #ff0000; stroke-width: 0.24"/>
    <path d="M 205.308636 203.90788 
L 201.302245 204.664822 
L 201.41795 203.813081 
L 184.38313 201.498995 
L 184.498834 200.647254 
L 201.533654 202.96134 
L 201.649358 202.109599 
z
" clip-path="url(#p11896fd68a)" style="fill: #ff0000; stroke: #ff0000; stroke-width: 0.24"/>
    <path d="M 208.109909 202.531386 
L 204.170561 203.582894 
L 204.222883 202.724924 
L 187.063482 201.678492 
L 187.115803 200.820522 
L 204.275205 201.866954 
L 204.327526 201.008984 
z
" clip-path="url(#p11896fd68a)" style="fill: #ff0000; stroke: #ff0000; stroke-width: 0.24"/>
    <path d="M 213.877321 201.108311 
L 210.026643 202.448613 
L 210.015295 201.589124 
L 192.825514 201.816094 
L 192.814165 200.956605 
L 210.003946 200.729635 
L 209.992598 199.870146 
z
" clip-path="url(#p11896fd68a)" style="fill: #ff0000; stroke: #ff0000; stroke-width: 0.24"/>
    <path d="M 219.523629 199.261966 
L 215.78276 200.883704 
L 215.707804 200.027414 
L 198.582014 201.52654 
L 198.507057 200.670251 
L 215.632848 199.171125 
L 215.557892 198.314835 
z
" clip-path="url(#p11896fd68a)" style="fill: #ff0000; stroke: #ff0000; stroke-width: 0.24"/>
    <path d="M 225.017804 197.002458 
L 221.407281 198.896727 
L 221.269129 198.048338 
L 204.301346 200.811387 
L 204.163194 199.962998 
L 221.130976 197.199949 
L 220.992824 196.35156 
z
" clip-path="url(#p11896fd68a)" style="fill: #ff0000; stroke: #ff0000; stroke-width: 0.24"/>
    <path d="M 230.329617 194.342567 
L 226.869263 196.498971 
L 226.668672 195.66314 
L 209.952051 199.674953 
L 209.75146 198.839122 
L 226.468082 194.827309 
L 226.267491 193.991478 
z
" clip-path="url(#p11896fd68a)" style="fill: #ff0000; stroke: #ff0000; stroke-width: 0.24"/>
    <path d="M 235.429821 191.29657 
L 232.13863 193.703267 
L 231.876703 192.884583 
L 215.503011 198.123119 
L 215.241084 197.304434 
L 231.614777 192.065898 
L 231.35285 191.247214 
z
" clip-path="url(#p11896fd68a)" style="fill: #ff0000; stroke: #ff0000; stroke-width: 0.24"/>
    <path d="M 240.290454 187.881444 
L 237.186497 190.525225 
L 236.864671 189.728182 
L 220.923801 196.164698 
L 220.601976 195.367655 
L 236.542845 188.931138 
L 236.22102 188.134095 
z
" clip-path="url(#p11896fd68a)" style="fill: #ff0000; stroke: #ff0000; stroke-width: 0.24"/>
    <path d="M 244.884863 184.115752 
L 241.98518 186.982103 
L 241.605222 186.211076 
L 226.184689 193.810237 
L 225.804731 193.039211 
L 241.225264 185.44005 
L 240.845306 184.669023 
z
" clip-path="url(#p11896fd68a)" style="fill: #ff0000; stroke: #ff0000; stroke-width: 0.24"/>
    <path d="M 249.187848 180.020053 
L 246.508356 183.093235 
L 246.072352 182.352458 
L 231.256805 191.07253 
L 230.820802 190.331753 
L 245.636348 181.61168 
L 245.200345 180.870903 
z
" clip-path="url(#p11896fd68a)" style="fill: #ff0000; stroke: #ff0000; stroke-width: 0.24"/>
    <path d="M 253.175883 175.617149 
L 250.731294 178.880293 
L 250.241638 178.173832 
L 236.112421 187.966958 
L 235.622765 187.260498 
L 249.751982 177.467372 
L 249.262325 176.760911 
z
" clip-path="url(#p11896fd68a)" style="fill: #ff0000; stroke: #ff0000; stroke-width: 0.24"/>
    <path d="M 256.826909 170.930966 
L 254.63064 174.366157 
L 254.09002 173.69789 
L 240.724691 184.510293 
L 240.184071 183.842027 
L 253.5494 173.029624 
L 253.00878 172.361357 
z
" clip-path="url(#p11896fd68a)" style="fill: #ff0000; stroke: #ff0000; stroke-width: 0.24"/>
    <path d="M 260.120921 165.987409 
L 258.185033 169.575789 
L 257.596416 168.949386 
L 245.068359 180.721721 
L 244.479743 180.095318 
L 257.0078 168.322983 
L 256.419183 167.69658 
z
" clip-path="url(#p11896fd68a)" style="fill: #ff0000; stroke: #ff0000; stroke-width: 0.24"/>
    <path d="M 263.039837 160.813408 
L 261.374959 164.535277 
L 260.741577 163.954176 
L 249.11957 176.621814 
L 248.486188 176.040713 
L 260.108195 163.373076 
L 259.474813 162.791976 
z
" clip-path="url(#p11896fd68a)" style="fill: #ff0000; stroke: #ff0000; stroke-width: 0.24"/>
    <path d="M 265.567683 155.437517 
L 264.182949 159.272441 
L 263.50828 158.739833 
L 252.856114 172.233218 
L 252.181444 171.700609 
L 262.833611 158.207225 
L 262.158941 157.674616 
z
" clip-path="url(#p11896fd68a)" style="fill: #ff0000; stroke: #ff0000; stroke-width: 0.24"/>
    <path d="M 267.690526 149.889331 
L 266.593543 153.816258 
L 265.88129 153.335067 
L 256.257457 167.580133 
L 255.545203 167.098941 
L 265.169037 152.853875 
L 264.456783 152.372683 
z
" clip-path="url(#p11896fd68a)" style="fill: #ff0000; stroke: #ff0000; stroke-width: 0.24"/>
    <path d="M 269.639985 144.340516 
L 268.784074 148.326936 
L 268.043851 147.889992 
L 259.30498 162.694458 
L 258.564757 162.257515 
L 267.303628 147.453049 
L 266.563405 147.016105 
z
" clip-path="url(#p11896fd68a)" style="fill: #ff0000; stroke: #ff0000; stroke-width: 0.24"/>
    <path d="M 274.048028 140.358149 
L 272.899295 144.270251 
L 272.193457 143.779697 
L 262.38239 157.896462 
L 261.676552 157.405909 
L 271.487618 143.289144 
L 270.78178 142.798591 
z
" clip-path="url(#p11896fd68a)" style="fill: #ff0000; stroke: #ff0000; stroke-width: 0.24"/>
    <path d="M 278.738813 136.713105 
L 277.303569 140.529413 
L 276.63599 139.987944 
L 265.806605 153.339516 
L 265.139026 152.798046 
L 275.968412 139.446474 
L 275.300833 138.905005 
z
" clip-path="url(#p11896fd68a)" style="fill: #ff0000; stroke: #ff0000; stroke-width: 0.24"/>
    <path d="M 283.686603 133.42537 
L 281.972731 137.124933 
L 281.347076 136.535521 
L 269.558836 149.048614 
L 268.933181 148.459202 
L 280.721421 135.946109 
L 280.095767 135.356697 
z
" clip-path="url(#p11896fd68a)" style="fill: #ff0000; stroke: #ff0000; stroke-width: 0.24"/>
    <path d="M 288.864247 130.513013 
L 286.881152 134.075521 
L 286.300857 133.441402 
L 273.618466 145.047307 
L 273.038171 144.413188 
L 285.720562 132.807282 
L 285.140266 132.173163 
z
" clip-path="url(#p11896fd68a)" style="fill: #ff0000; stroke: #ff0000; stroke-width: 0.24"/>
    <path d="M 294.243282 127.992016 
L 292.001852 131.39791 
L 291.470101 130.722565 
L 277.963185 141.357568 
L 277.431435 140.682222 
L 290.938351 130.047219 
L 290.406601 129.371873 
z
" clip-path="url(#p11896fd68a)" style="fill: #ff0000; stroke: #ff0000; stroke-width: 0.24"/>
    <path d="M 299.794324 125.876216 
L 297.306866 129.106802 
L 296.82658 128.393938 
L 282.5693 137.999667 
L 282.089013 137.286803 
L 296.346293 127.681074 
L 295.866007 126.96821 
z
" clip-path="url(#p11896fd68a)" style="fill: #ff0000; stroke: #ff0000; stroke-width: 0.24"/>
    <path d="M 305.486737 124.177249 
L 302.766904 127.214787 
L 302.340718 126.468317 
L 287.411335 134.992025 
L 286.98515 134.245556 
L 301.914533 125.721848 
L 301.488347 124.975379 
z
" clip-path="url(#p11896fd68a)" style="fill: #ff0000; stroke: #ff0000; stroke-width: 0.24"/>
    <path d="M 311.28933 122.904407 
L 308.352057 125.732224 
L 307.982312 124.956249 
L 292.462794 132.351156 
L 292.093049 131.57518 
L 307.612566 124.180273 
L 307.242821 123.404297 
z
" clip-path="url(#p11896fd68a)" style="fill: #ff0000; stroke: #ff0000; stroke-width: 0.24"/>
    <path d="M 317.170135 122.064697 
L 314.031544 124.667268 
L 313.720269 123.866045 
L 297.69581 130.091539 
L 297.384535 129.290316 
L 313.408994 123.064822 
L 313.097719 122.263599 
z
" clip-path="url(#p11896fd68a)" style="fill: #ff0000; stroke: #ff0000; stroke-width: 0.24"/>
    <path d="M 323.097034 121.662719 
L 319.774356 124.025755 
L 319.52326 123.203683 
L 303.081832 128.225587 
L 302.830737 127.403516 
L 319.272165 122.381612 
L 319.02107 121.559541 
z
" clip-path="url(#p11896fd68a)" style="fill: #ff0000; stroke: #ff0000; stroke-width: 0.24"/>
    <path d="M 329.037479 121.700672 
L 325.548956 123.811203 
L 325.359418 122.972797 
L 308.591287 126.763557 
L 308.401749 125.92515 
L 325.16988 122.13439 
L 324.980342 121.295984 
z
" clip-path="url(#p11896fd68a)" style="fill: #ff0000; stroke: #ff0000; stroke-width: 0.24"/>
    <path d="M 334.958681 122.178449 
L 331.323464 124.024885 
L 331.196525 123.174746 
L 314.193742 125.713534 
L 314.066802 124.863395 
L 331.069585 122.324607 
L 330.942646 121.474467 
z
" clip-path="url(#p11896fd68a)" style="fill: #ff0000; stroke: #ff0000; stroke-width: 0.24"/>
    <path d="M 340.828457 123.093269 
L 337.066503 124.665476 
L 337.002859 123.808272 
L 319.858769 125.081162 
L 319.795124 124.223957 
L 336.939214 122.951067 
L 336.87557 122.093863 
z
" clip-path="url(#p11896fd68a)" style="fill: #ff0000; stroke: #ff0000; stroke-width: 0.24"/>
    <path d="M 346.614225 124.440247 
L 342.746188 125.729593 
L 342.746188 124.870029 
L 325.554909 124.870029 
L 325.554909 124.010465 
L 342.746188 124.010465 
L 342.746188 123.150901 
z
" clip-path="url(#p11896fd68a)" style="fill: #ff0000; stroke: #ff0000; stroke-width: 0.24"/>
   </g>
   <g id="matplotlib.axis_1">
    <g id="xtick_1">
     <g id="line2d_1">
      <defs>
       <path id="m0f1ddfcec2" d="M 0 0 
L 0 -3 
" style="stroke: #000000"/>
      </defs>
      <g>
       <use xlink:href="#m0f1ddfcec2" x="80.828456" y="254.106421" style="stroke: #000000"/>
      </g>
     </g>
     <g id="text_1">
      <!-- −10 -->
      <g transform="translate(69.748495 267.68478) scale(0.105 -0.105)">
       <defs>
        <path id="DejaVuSans-2212" d="M 678 2272 
L 4684 2272 
L 4684 1741 
L 678 1741 
L 678 2272 
z
" transform="scale(0.015625)"/>
        <path id="DejaVuSans-31" d="M 794 531 
L 1825 531 
L 1825 4091 
L 703 3866 
L 703 4441 
L 1819 4666 
L 2450 4666 
L 2450 531 
L 3481 531 
L 3481 0 
L 794 0 
L 794 531 
z
" transform="scale(0.015625)"/>
        <path id="DejaVuSans-30" d="M 2034 4250 
Q 1547 4250 1301 3770 
Q 1056 3291 1056 2328 
Q 1056 1369 1301 889 
Q 1547 409 2034 409 
Q 2525 409 2770 889 
Q 3016 1369 3016 2328 
Q 3016 3291 2770 3770 
Q 2525 4250 2034 4250 
z
M 2034 4750 
Q 2819 4750 3233 4129 
Q 3647 3509 3647 2328 
Q 3647 1150 3233 529 
Q 2819 -91 2034 -91 
Q 1250 -91 836 529 
Q 422 1150 422 2328 
Q 422 3509 836 4129 
Q 1250 4750 2034 4750 
z
" transform="scale(0.015625)"/>
       </defs>
       <use xlink:href="#DejaVuSans-2212"/>
       <use xlink:href="#DejaVuSans-31" x="83.789062"/>
       <use xlink:href="#DejaVuSans-30" x="147.412109"/>
      </g>
     </g>
    </g>
    <g id="xtick_2">
     <g id="line2d_2">
      <g>
       <use xlink:href="#m0f1ddfcec2" x="166.784851" y="254.106421" style="stroke: #000000"/>
      </g>
     </g>
     <g id="text_2">
      <!-- −5 -->
      <g transform="translate(159.045203 267.68478) scale(0.105 -0.105)">
       <defs>
        <path id="DejaVuSans-35" d="M 691 4666 
L 3169 4666 
L 3169 4134 
L 1269 4134 
L 1269 2991 
Q 1406 3038 1543 3061 
Q 1681 3084 1819 3084 
Q 2600 3084 3056 2656 
Q 3513 2228 3513 1497 
Q 3513 744 3044 326 
Q 2575 -91 1722 -91 
Q 1428 -91 1123 -41 
Q 819 9 494 109 
L 494 744 
Q 775 591 1075 516 
Q 1375 441 1709 441 
Q 2250 441 2565 725 
Q 2881 1009 2881 1497 
Q 2881 1984 2565 2268 
Q 2250 2553 1709 2553 
Q 1456 2553 1204 2497 
Q 953 2441 691 2322 
L 691 4666 
z
" transform="scale(0.015625)"/>
       </defs>
       <use xlink:href="#DejaVuSans-2212"/>
       <use xlink:href="#DejaVuSans-35" x="83.789062"/>
      </g>
     </g>
    </g>
    <g id="xtick_3">
     <g id="line2d_3">
      <g>
       <use xlink:href="#m0f1ddfcec2" x="252.741246" y="254.106421" style="stroke: #000000"/>
      </g>
     </g>
     <g id="text_3">
      <!-- 0 -->
      <g transform="translate(249.400934 267.68478) scale(0.105 -0.105)">
       <use xlink:href="#DejaVuSans-30"/>
      </g>
     </g>
    </g>
    <g id="xtick_4">
     <g id="line2d_4">
      <g>
       <use xlink:href="#m0f1ddfcec2" x="338.697641" y="254.106421" style="stroke: #000000"/>
      </g>
     </g>
     <g id="text_4">
      <!-- 5 -->
      <g transform="translate(335.357329 267.68478) scale(0.105 -0.105)">
       <use xlink:href="#DejaVuSans-35"/>
      </g>
     </g>
    </g>
    <g id="xtick_5">
     <g id="line2d_5">
      <g>
       <use xlink:href="#m0f1ddfcec2" x="424.654037" y="254.106421" style="stroke: #000000"/>
      </g>
     </g>
     <g id="text_5">
      <!-- 10 -->
      <g transform="translate(417.973412 267.68478) scale(0.105 -0.105)">
       <use xlink:href="#DejaVuSans-31"/>
       <use xlink:href="#DejaVuSans-30" x="63.623047"/>
      </g>
     </g>
    </g>
   </g>
   <g id="matplotlib.axis_2">
    <g id="ytick_1">
     <g id="line2d_6">
      <defs>
       <path id="m5d9dfaf7fa" d="M 0 0 
L 3 0 
" style="stroke: #000000"/>
      </defs>
      <g>
       <use xlink:href="#m5d9dfaf7fa" x="31.88" y="249.07702" style="stroke: #000000"/>
      </g>
     </g>
     <g id="text_6">
      <!-- −6 -->
      <g transform="translate(10.800703 253.0662) scale(0.105 -0.105)">
       <defs>
        <path id="DejaVuSans-36" d="M 2113 2584 
Q 1688 2584 1439 2293 
Q 1191 2003 1191 1497 
Q 1191 994 1439 701 
Q 1688 409 2113 409 
Q 2538 409 2786 701 
Q 3034 994 3034 1497 
Q 3034 2003 2786 2293 
Q 2538 2584 2113 2584 
z
M 3366 4563 
L 3366 3988 
Q 3128 4100 2886 4159 
Q 2644 4219 2406 4219 
Q 1781 4219 1451 3797 
Q 1122 3375 1075 2522 
Q 1259 2794 1537 2939 
Q 1816 3084 2150 3084 
Q 2853 3084 3261 2657 
Q 3669 2231 3669 1497 
Q 3669 778 3244 343 
Q 2819 -91 2113 -91 
Q 1303 -91 875 529 
Q 447 1150 447 2328 
Q 447 3434 972 4092 
Q 1497 4750 2381 4750 
Q 2619 4750 2861 4703 
Q 3103 4656 3366 4563 
z
" transform="scale(0.015625)"/>
       </defs>
       <use xlink:href="#DejaVuSans-2212"/>
       <use xlink:href="#DejaVuSans-36" x="83.789062"/>
      </g>
     </g>
    </g>
    <g id="ytick_2">
     <g id="line2d_7">
      <g>
       <use xlink:href="#m5d9dfaf7fa" x="31.88" y="214.694462" style="stroke: #000000"/>
      </g>
     </g>
     <g id="text_7">
      <!-- −4 -->
      <g transform="translate(10.800703 218.683642) scale(0.105 -0.105)">
       <defs>
        <path id="DejaVuSans-34" d="M 2419 4116 
L 825 1625 
L 2419 1625 
L 2419 4116 
z
M 2253 4666 
L 3047 4666 
L 3047 1625 
L 3713 1625 
L 3713 1100 
L 3047 1100 
L 3047 0 
L 2419 0 
L 2419 1100 
L 313 1100 
L 313 1709 
L 2253 4666 
z
" transform="scale(0.015625)"/>
       </defs>
       <use xlink:href="#DejaVuSans-2212"/>
       <use xlink:href="#DejaVuSans-34" x="83.789062"/>
      </g>
     </g>
    </g>
    <g id="ytick_3">
     <g id="line2d_8">
      <g>
       <use xlink:href="#m5d9dfaf7fa" x="31.88" y="180.311904" style="stroke: #000000"/>
      </g>
     </g>
     <g id="text_8">
      <!-- −2 -->
      <g transform="translate(10.800703 184.301084) scale(0.105 -0.105)">
       <defs>
        <path id="DejaVuSans-32" d="M 1228 531 
L 3431 531 
L 3431 0 
L 469 0 
L 469 531 
Q 828 903 1448 1529 
Q 2069 2156 2228 2338 
Q 2531 2678 2651 2914 
Q 2772 3150 2772 3378 
Q 2772 3750 2511 3984 
Q 2250 4219 1831 4219 
Q 1534 4219 1204 4116 
Q 875 4013 500 3803 
L 500 4441 
Q 881 4594 1212 4672 
Q 1544 4750 1819 4750 
Q 2544 4750 2975 4387 
Q 3406 4025 3406 3419 
Q 3406 3131 3298 2873 
Q 3191 2616 2906 2266 
Q 2828 2175 2409 1742 
Q 1991 1309 1228 531 
z
" transform="scale(0.015625)"/>
       </defs>
       <use xlink:href="#DejaVuSans-2212"/>
       <use xlink:href="#DejaVuSans-32" x="83.789062"/>
      </g>
     </g>
    </g>
    <g id="ytick_4">
     <g id="line2d_9">
      <g>
       <use xlink:href="#m5d9dfaf7fa" x="31.88" y="145.929346" style="stroke: #000000"/>
      </g>
     </g>
     <g id="text_9">
      <!-- 0 -->
      <g transform="translate(19.599375 149.918526) scale(0.105 -0.105)">
       <use xlink:href="#DejaVuSans-30"/>
      </g>
     </g>
    </g>
    <g id="ytick_5">
     <g id="line2d_10">
      <g>
       <use xlink:href="#m5d9dfaf7fa" x="31.88" y="111.546788" style="stroke: #000000"/>
      </g>
     </g>
     <g id="text_10">
      <!-- 2 -->
      <g transform="translate(19.599375 115.535968) scale(0.105 -0.105)">
       <use xlink:href="#DejaVuSans-32"/>
      </g>
     </g>
    </g>
    <g id="ytick_6">
     <g id="line2d_11">
      <g>
       <use xlink:href="#m5d9dfaf7fa" x="31.88" y="77.16423" style="stroke: #000000"/>
      </g>
     </g>
     <g id="text_11">
      <!-- 4 -->
      <g transform="translate(19.599375 81.153409) scale(0.105 -0.105)">
       <use xlink:href="#DejaVuSans-34"/>
      </g>
     </g>
    </g>
   </g>
   <g id="patch_3">
    <path d="M 31.88 254.106421 
L 31.88 62.693579 
" style="fill: none; stroke: #000000; stroke-width: 0.8; stroke-linejoin: miter; stroke-linecap: square"/>
   </g>
   <g id="patch_4">
    <path d="M 450 254.106421 
L 450 62.693579 
" style="fill: none; stroke: #000000; stroke-width: 0.8; stroke-linejoin: miter; stroke-linecap: square"/>
   </g>
   <g id="patch_5">
    <path d="M 31.88 254.106421 
L 450 254.106421 
" style="fill: none; stroke: #000000; stroke-width: 0.8; stroke-linejoin: miter; stroke-linecap: square"/>
   </g>
   <g id="patch_6">
    <path d="M 31.88 62.693579 
L 450 62.693579 
" style="fill: none; stroke: #000000; stroke-width: 0.8; stroke-linejoin: miter; stroke-linecap: square"/>
   </g>
  </g>
 </g>
 <defs>
  <clipPath id="p11896fd68a">
   <rect x="31.88" y="62.693579" width="418.12" height="191.412842"/>
  </clipPath>
 </defs>
</svg>
