<?xml version="1.0" encoding="utf-8" standalone="no"?>
<!DOCTYPE svg PUBLIC "-//W3C//DTD SVG 1.1//EN"
  "http://www.w3.org/Graphics/SVG/1.1/DTD/svg11.dtd">
<svg xmlns:xlink="http://www.w3.org/1999/xlink" width="460.8pt" height="316.8pt" viewBox="0 0 460.8 316.8" xmlns="http://www.w3.org/2000/svg" version="1.1">
 <metadata>
  <rdf:RDF xmlns:dc="http://purl.org/dc/elements/1.1/" xmlns:cc="http://creativecommons.org/ns#" xmlns:rdf="http://www.w3.org/1999/02/22-rdf-syntax-ns#">
   <cc:Work>
    <dc:type rdf:resource="http://purl.org/dc/dcmitype/StillImage"/>
    <dc:date>2024-01-04T21:54:50.392014</dc:date>
    <dc:format>image/svg+xml</dc:format>
    <dc:creator>
     <cc:Agent>
      <dc:title>Matplotlib v3.7.2, https://matplotlib.org/</dc:title>
     </cc:Agent>
    </dc:creator>
   </cc:Work>
  </rdf:RDF>
 </metadata>
 <defs>
  <style type="text/css">*{stroke-linejoin: round; stroke-linecap: butt}</style>
 </defs>
 <g id="figure_1">
  <g id="patch_1">
   <path d="M 0 316.8 
L 460.8 316.8 
L 460.8 0 
L 0 0 
z
" style="fill: #ffffff"/>
  </g>
  <g id="axes_1">
   <g id="patch_2">
    <path d="M 104.283855 290.32 
L 356.516145 290.32 
L 356.516145 10.8 
L 104.283855 10.8 
z
" style="fill: #ffffff"/>
   </g>
   <g id="PatchCollection_1">
    <path d="M 251.682736 154.742836 
L 301.953362 154.742836 
L 301.953362 34.093333 
L 251.682736 34.093333 
z
" clip-path="url(#p10f97f515d)" style="fill: #ffffff; stroke: #0000ff; stroke-width: 3"/>
    <path d="M 207.444585 146.699536 
L 246.494807 146.699536 
L 246.494807 52.411949 
L 207.444585 52.411949 
z
" clip-path="url(#p10f97f515d)" style="fill: #ff0000; stroke: #ff0000; stroke-width: 2"/>
    <path d="M 297.931712 148.710361 
L 336.833336 152.113812 
L 345.051041 58.185018 
L 306.149416 54.781567 
z
" clip-path="url(#p10f97f515d)" style="fill: #ff0000; stroke: #ff0000; stroke-width: 2"/>
   </g>
   <g id="PatchCollection_2">
    <path d="M 210.040553 175.436143 
L 115.752968 175.426464 
L 115.748959 214.476686 
L 210.036545 214.486365 
z
" clip-path="url(#p10f97f515d)" style="fill: #ffffff; stroke: #000000; stroke-width: 0.5"/>
    <path d="M 212.662116 175.49067 
L 118.374864 175.239615 
L 118.270887 214.289699 
L 212.558139 214.540754 
z
" clip-path="url(#p10f97f515d)" style="fill: #ffffff; stroke: #000000; stroke-width: 0.5"/>
    <path d="M 215.351048 175.612615 
L 121.067033 174.792073 
L 120.727196 213.840816 
L 215.011212 214.661358 
z
" clip-path="url(#p10f97f515d)" style="fill: #ffffff; stroke: #000000; stroke-width: 0.5"/>
    <path d="M 218.464465 176.214989 
L 124.241839 172.715587 
L 122.792524 211.738905 
L 217.01515 215.238307 
z
" clip-path="url(#p10f97f515d)" style="fill: #ffffff; stroke: #000000; stroke-width: 0.5"/>
    <path d="M 221.559605 176.905555 
L 127.474468 170.73012 
L 124.916845 209.696495 
L 219.001982 215.87193 
z
" clip-path="url(#p10f97f515d)" style="fill: #ffffff; stroke: #000000; stroke-width: 0.5"/>
    <path d="M 224.633831 177.683861 
L 130.76217 168.83738 
L 127.098305 207.715342 
L 220.969966 216.561823 
z
" clip-path="url(#p10f97f515d)" style="fill: #ffffff; stroke: #000000; stroke-width: 0.5"/>
    <path d="M 227.684721 178.549042 
L 134.10235 167.03866 
L 129.335201 205.796809 
L 222.917572 217.307191 
z
" clip-path="url(#p10f97f515d)" style="fill: #ffffff; stroke: #000000; stroke-width: 0.5"/>
    <path d="M 229.995458 178.554002 
L 136.268588 168.286435 
L 132.016165 207.10443 
L 225.743034 217.371997 
z
" clip-path="url(#p10f97f515d)" style="fill: #ffffff; stroke: #000000; stroke-width: 0.5"/>
    <path d="M 233.013085 179.459177 
L 139.613375 166.550143 
L 134.26696 205.232642 
L 227.666669 218.141676 
z
" clip-path="url(#p10f97f515d)" style="fill: #ffffff; stroke: #000000; stroke-width: 0.5"/>
    <path d="M 236.004346 180.449328 
L 143.00638 164.908183 
L 136.569847 203.424296 
L 229.567813 218.96544 
z
" clip-path="url(#p10f97f515d)" style="fill: #ffffff; stroke: #000000; stroke-width: 0.5"/>
    <path d="M 238.966283 181.523563 
L 146.44422 163.362702 
L 138.922704 201.681714 
L 231.444766 219.842575 
z
" clip-path="url(#p10f97f515d)" style="fill: #ffffff; stroke: #000000; stroke-width: 0.5"/>
    <path d="M 241.89678 182.680764 
L 149.924195 161.915588 
L 141.324073 200.007028 
L 233.296658 220.772203 
z
" clip-path="url(#p10f97f515d)" style="fill: #ffffff; stroke: #000000; stroke-width: 0.5"/>
    <path d="M 243.359869 183.560333 
L 152.010286 160.206476 
L 142.338034 198.039892 
L 233.687617 221.393749 
z
" clip-path="url(#p10f97f515d)" style="fill: #ffffff; stroke: #000000; stroke-width: 0.5"/>
    <path d="M 245.444353 183.516053 
L 153.468239 162.766512 
L 144.874593 200.859413 
L 236.850707 221.608954 
z
" clip-path="url(#p10f97f515d)" style="fill: #ffffff; stroke: #000000; stroke-width: 0.5"/>
    <path d="M 247.526593 183.412221 
L 154.997999 165.28467 
L 147.490277 203.606386 
L 240.018871 221.733938 
z
" clip-path="url(#p10f97f515d)" style="fill: #ffffff; stroke: #000000; stroke-width: 0.5"/>
    <path d="M 250.069796 183.913855 
L 157.560833 165.686383 
L 150.011728 203.999969 
L 242.520691 222.227441 
z
" clip-path="url(#p10f97f515d)" style="fill: #ffffff; stroke: #000000; stroke-width: 0.5"/>
    <path d="M 253.017754 185.080875 
L 161.064103 164.232013 
L 152.429322 202.315611 
L 244.382972 223.164473 
z
" clip-path="url(#p10f97f515d)" style="fill: #ffffff; stroke: #000000; stroke-width: 0.5"/>
    <path d="M 255.931222 186.331093 
L 164.606914 162.878592 
L 154.893808 200.701541 
L 246.218115 224.154042 
z
" clip-path="url(#p10f97f515d)" style="fill: #ffffff; stroke: #000000; stroke-width: 0.5"/>
    <path d="M 258.80803 187.663605 
L 168.186771 161.626394 
L 157.403179 199.158167 
L 248.024437 225.195378 
z
" clip-path="url(#p10f97f515d)" style="fill: #ffffff; stroke: #000000; stroke-width: 0.5"/>
    <path d="M 261.645957 189.077514 
L 171.801171 160.475707 
L 159.955424 197.685896 
L 249.80021 226.287703 
z
" clip-path="url(#p10f97f515d)" style="fill: #ffffff; stroke: #000000; stroke-width: 0.5"/>
    <path d="M 264.442462 190.571206 
L 175.4464 159.428795 
L 162.548433 196.287475 
L 251.544496 227.429887 
z
" clip-path="url(#p10f97f515d)" style="fill: #ffffff; stroke: #000000; stroke-width: 0.5"/>
    <path d="M 266.036664 191.705605 
L 177.961152 158.047723 
L 164.021376 194.525147 
L 252.096888 228.18303 
z
" clip-path="url(#p10f97f515d)" style="fill: #ffffff; stroke: #000000; stroke-width: 0.5"/>
    <path d="M 268.099791 193.059242 
L 180.938759 157.099495 
L 166.045641 193.198178 
L 253.206673 229.157925 
z
" clip-path="url(#p10f97f515d)" style="fill: #ffffff; stroke: #000000; stroke-width: 0.5"/>
    <path d="M 270.563391 194.64764 
L 184.376986 156.410844 
L 168.540804 192.105874 
L 254.727208 230.342671 
z
" clip-path="url(#p10f97f515d)" style="fill: #ffffff; stroke: #000000; stroke-width: 0.5"/>
    <path d="M 272.984406 196.300034 
L 187.832104 155.812574 
L 171.063786 191.079319 
L 256.216087 231.566779 
z
" clip-path="url(#p10f97f515d)" style="fill: #ffffff; stroke: #000000; stroke-width: 0.5"/>
    <path d="M 275.361192 198.015363 
L 191.301754 155.305179 
L 173.61287 190.119303 
L 257.672308 232.829487 
z
" clip-path="url(#p10f97f515d)" style="fill: #ffffff; stroke: #000000; stroke-width: 0.5"/>
    <path d="M 277.692096 199.792766 
L 194.783529 154.889331 
L 176.186286 189.22681 
L 259.094853 234.130244 
z
" clip-path="url(#p10f97f515d)" style="fill: #ffffff; stroke: #000000; stroke-width: 0.5"/>
    <path d="M 279.673349 200.58471 
L 196.18324 156.772034 
L 178.037747 191.350365 
L 261.527856 235.163041 
z
" clip-path="url(#p10f97f515d)" style="fill: #ffffff; stroke: #000000; stroke-width: 0.5"/>
    <path d="M 282.160392 202.414168 
L 199.71323 156.669065 
L 180.767402 190.815448 
L 263.214563 236.56055 
z
" clip-path="url(#p10f97f515d)" style="fill: #ffffff; stroke: #000000; stroke-width: 0.5"/>
    <path d="M 284.637549 204.454978 
L 203.53993 156.35794 
L 183.620022 189.945395 
L 264.717641 238.042433 
z
" clip-path="url(#p10f97f515d)" style="fill: #ffffff; stroke: #000000; stroke-width: 0.5"/>
    <path d="M 287.055059 206.566406 
L 207.374561 156.156415 
L 186.496719 189.156953 
L 266.177216 239.566945 
z
" clip-path="url(#p10f97f515d)" style="fill: #ffffff; stroke: #000000; stroke-width: 0.5"/>
    <path d="M 289.41079 208.746301 
L 211.212835 156.065861 
L 189.394662 188.452389 
L 267.592616 241.132829 
z
" clip-path="url(#p10f97f515d)" style="fill: #ffffff; stroke: #000000; stroke-width: 0.5"/>
    <path d="M 291.702889 210.993156 
L 215.052702 156.085072 
L 192.311926 187.830575 
L 268.962113 242.738659 
z
" clip-path="url(#p10f97f515d)" style="fill: #ffffff; stroke: #000000; stroke-width: 0.5"/>
    <path d="M 290.667914 210.880957 
L 215.628364 153.791424 
L 191.984117 184.869864 
L 267.023667 241.959397 
z
" clip-path="url(#p10f97f515d)" style="fill: #ffffff; stroke: #000000; stroke-width: 0.5"/>
    <path d="M 292.802525 213.228146 
L 219.416727 154.027863 
L 194.89829 184.421383 
L 268.284088 243.621667 
z
" clip-path="url(#p10f97f515d)" style="fill: #ffffff; stroke: #000000; stroke-width: 0.5"/>
    <path d="M 294.869507 215.634979 
L 223.196202 154.372541 
L 197.823701 184.056815 
L 269.497006 245.319253 
z
" clip-path="url(#p10f97f515d)" style="fill: #ffffff; stroke: #000000; stroke-width: 0.5"/>
    <path d="M 296.867223 218.099698 
L 226.964338 154.824619 
L 200.758281 183.775654 
L 270.661165 247.050733 
z
" clip-path="url(#p10f97f515d)" style="fill: #ffffff; stroke: #000000; stroke-width: 0.5"/>
    <path d="M 298.794071 220.620075 
L 230.718103 155.383494 
L 203.699669 183.577892 
L 271.775637 248.814473 
z
" clip-path="url(#p10f97f515d)" style="fill: #ffffff; stroke: #000000; stroke-width: 0.5"/>
    <path d="M 300.544996 223.089589 
L 234.351635 155.94357 
L 206.542386 183.358266 
L 272.735747 250.504285 
z
" clip-path="url(#p10f97f515d)" style="fill: #ffffff; stroke: #000000; stroke-width: 0.5"/>
    <path d="M 298.765724 222.000201 
L 234.507817 152.999692 
L 205.93051 179.612799 
L 270.188418 248.613308 
z
" clip-path="url(#p10f97f515d)" style="fill: #ffffff; stroke: #000000; stroke-width: 0.5"/>
    <path d="M 297.018083 220.86065 
L 234.747563 150.061419 
L 205.425296 175.851427 
L 267.695817 246.650659 
z
" clip-path="url(#p10f97f515d)" style="fill: #ffffff; stroke: #000000; stroke-width: 0.5"/>
    <path d="M 297.798569 222.612555 
L 237.565763 150.071822 
L 207.522235 175.017889 
L 267.755041 247.558622 
z
" clip-path="url(#p10f97f515d)" style="fill: #ffffff; stroke: #000000; stroke-width: 0.5"/>
    <path d="M 299.348764 225.380672 
L 241.203096 151.156483 
L 210.462346 175.238139 
L 268.608014 249.462328 
z
" clip-path="url(#p10f97f515d)" style="fill: #ffffff; stroke: #000000; stroke-width: 0.5"/>
    <path d="M 300.819936 228.191609 
L 244.807674 152.344556 
L 213.394798 175.542639 
L 269.407059 251.389692 
z
" clip-path="url(#p10f97f515d)" style="fill: #ffffff; stroke: #000000; stroke-width: 0.5"/>
    <path d="M 302.210326 231.043209 
L 248.376741 153.634592 
L 216.317126 175.930353 
L 270.150712 253.33897 
z
" clip-path="url(#p10f97f515d)" style="fill: #ffffff; stroke: #000000; stroke-width: 0.5"/>
    <path d="M 303.51917 233.933515 
L 251.908558 155.02538 
L 219.227902 176.400472 
L 270.838513 255.308607 
z
" clip-path="url(#p10f97f515d)" style="fill: #ffffff; stroke: #000000; stroke-width: 0.5"/>
    <path d="M 304.745254 236.859572 
L 255.398555 156.516232 
L 222.123493 176.953701 
L 271.470192 257.29704 
z
" clip-path="url(#p10f97f515d)" style="fill: #ffffff; stroke: #000000; stroke-width: 0.5"/>
    <path d="M 305.897841 239.846561 
L 258.876184 158.120723 
L 225.028545 177.59525 
L 272.050202 259.321088 
z
" clip-path="url(#p10f97f515d)" style="fill: #ffffff; stroke: #000000; stroke-width: 0.5"/>
    <path d="M 306.964412 242.865699 
L 262.307329 159.82418 
L 227.914787 178.319394 
L 272.57187 261.360912 
z
" clip-path="url(#p10f97f515d)" style="fill: #ffffff; stroke: #000000; stroke-width: 0.5"/>
    <path d="M 307.943658 245.914035 
L 265.687086 161.625654 
L 230.778143 179.126669 
L 273.034714 263.41505 
z
" clip-path="url(#p10f97f515d)" style="fill: #ffffff; stroke: #000000; stroke-width: 0.5"/>
    <path d="M 308.835202 248.989463 
L 269.014777 163.523197 
L 233.618 180.015256 
L 273.438425 265.481522 
z
" clip-path="url(#p10f97f515d)" style="fill: #ffffff; stroke: #000000; stroke-width: 0.5"/>
    <path d="M 309.407561 251.556789 
L 272.055214 164.983403 
L 236.199911 180.453281 
L 273.552258 267.026667 
z
" clip-path="url(#p10f97f515d)" style="fill: #ffffff; stroke: #000000; stroke-width: 0.5"/>
    <path d="M 308.13274 249.881213 
L 273.280091 162.271614 
L 236.995629 176.706216 
L 271.848278 264.315814 
z
" clip-path="url(#p10f97f515d)" style="fill: #ffffff; stroke: #000000; stroke-width: 0.5"/>
    <path d="M 306.906369 248.16969 
L 274.581237 159.596361 
L 237.897636 172.984163 
L 270.222768 261.557493 
z
" clip-path="url(#p10f97f515d)" style="fill: #ffffff; stroke: #000000; stroke-width: 0.5"/>
    <path d="M 305.729693 246.42374 
L 275.959579 156.959282 
L 238.906907 169.288896 
L 268.677021 258.753354 
z
" clip-path="url(#p10f97f515d)" style="fill: #ffffff; stroke: #000000; stroke-width: 0.5"/>
    <path d="M 304.603603 244.6445 
L 277.412123 154.362872 
L 240.021011 165.624518 
L 267.212491 255.906145 
z
" clip-path="url(#p10f97f515d)" style="fill: #ffffff; stroke: #000000; stroke-width: 0.5"/>
    <path d="M 303.529147 242.833895 
L 278.939592 151.809158 
L 241.240714 161.993188 
L 265.830269 253.017925 
z
" clip-path="url(#p10f97f515d)" style="fill: #ffffff; stroke: #000000; stroke-width: 0.5"/>
    <path d="M 302.506874 240.993092 
L 280.53858 149.300437 
L 242.563077 158.398844 
L 264.531371 250.091499 
z
" clip-path="url(#p10f97f515d)" style="fill: #ffffff; stroke: #000000; stroke-width: 0.5"/>
    <path d="M 301.537983 239.123588 
L 282.209031 146.838483 
L 243.988158 154.843778 
L 263.31711 247.128882 
z
" clip-path="url(#p10f97f515d)" style="fill: #ffffff; stroke: #000000; stroke-width: 0.5"/>
    <path d="M 300.623054 237.227473 
L 283.950281 144.425709 
L 245.515427 151.330918 
L 262.1882 244.132682 
z
" clip-path="url(#p10f97f515d)" style="fill: #ffffff; stroke: #000000; stroke-width: 0.5"/>
    <path d="M 299.762926 235.305366 
L 285.759131 142.063515 
L 247.142012 147.863338 
L 261.145806 241.105188 
z
" clip-path="url(#p10f97f515d)" style="fill: #ffffff; stroke: #000000; stroke-width: 0.5"/>
    <path d="M 299.536973 237.702576 
L 288.214619 144.097271 
L 249.446971 148.786546 
L 260.769324 242.391852 
z
" clip-path="url(#p10f97f515d)" style="fill: #ffffff; stroke: #000000; stroke-width: 0.5"/>
    <path d="M 298.909732 236.572382 
L 290.157971 142.691843 
L 251.276331 146.31648 
L 260.028093 240.197019 
z
" clip-path="url(#p10f97f515d)" style="fill: #ffffff; stroke: #000000; stroke-width: 0.5"/>
    <path d="M 298.244883 234.673302 
L 292.071234 140.588048 
L 253.10481 143.144932 
L 259.278459 237.230185 
z
" clip-path="url(#p10f97f515d)" style="fill: #ffffff; stroke: #000000; stroke-width: 0.5"/>
    <path d="M 297.653378 232.732861 
L 293.952252 138.517944 
L 254.932126 140.050806 
L 258.633252 234.265723 
z
" clip-path="url(#p10f97f515d)" style="fill: #ffffff; stroke: #000000; stroke-width: 0.5"/>
    <path d="M 297.131963 230.730967 
L 295.805035 136.452719 
L 256.75868 137.002281 
L 258.085608 231.280529 
z
" clip-path="url(#p10f97f515d)" style="fill: #ffffff; stroke: #000000; stroke-width: 0.5"/>
    <path d="M 297.096774 228.224474 
L 295.769845 133.946225 
L 256.72349 134.495787 
L 258.050419 228.774036 
z
" clip-path="url(#p10f97f515d)" style="fill: #ffffff; stroke: #000000; stroke-width: 0.5"/>
    <path d="M 297.061384 225.717779 
L 295.734455 131.439531 
L 256.6881 131.989093 
L 258.015028 226.267341 
z
" clip-path="url(#p10f97f515d)" style="fill: #ffffff; stroke: #000000; stroke-width: 0.5"/>
    <path d="M 297.026194 223.211085 
L 295.699265 128.932836 
L 256.65291 129.482398 
L 257.979839 223.760647 
z
" clip-path="url(#p10f97f515d)" style="fill: #ffffff; stroke: #000000; stroke-width: 0.5"/>
    <path d="M 296.991005 220.704592 
L 295.664076 126.426343 
L 256.617721 126.975905 
L 257.94465 221.254153 
z
" clip-path="url(#p10f97f515d)" style="fill: #ffffff; stroke: #000000; stroke-width: 0.5"/>
    <path d="M 296.955614 218.197897 
L 295.628685 123.919648 
L 256.58233 124.46921 
L 257.909259 218.747459 
z
" clip-path="url(#p10f97f515d)" style="fill: #ffffff; stroke: #000000; stroke-width: 0.5"/>
    <path d="M 297.09233 215.500213 
L 294.858519 121.239092 
L 255.819258 122.164248 
L 258.053068 216.42537 
z
" clip-path="url(#p10f97f515d)" style="fill: #ffffff; stroke: #000000; stroke-width: 0.5"/>
    <path d="M 296.789357 213.296425 
L 295.946091 119.01261 
L 256.89743 119.361858 
L 257.740696 213.645673 
z
" clip-path="url(#p10f97f515d)" style="fill: #ffffff; stroke: #000000; stroke-width: 0.5"/>
    <path d="M 296.767036 210.799986 
L 295.92377 116.516171 
L 256.87511 116.865419 
L 257.718376 211.149234 
z
" clip-path="url(#p10f97f515d)" style="fill: #ffffff; stroke: #000000; stroke-width: 0.5"/>
    <path d="M 296.744716 208.303547 
L 295.90145 114.019732 
L 256.85279 114.368979 
L 257.696056 208.652795 
z
" clip-path="url(#p10f97f515d)" style="fill: #ffffff; stroke: #000000; stroke-width: 0.5"/>
    <path d="M 296.722396 205.807309 
L 295.87913 111.523493 
L 256.83047 111.872741 
L 257.673736 206.156556 
z
" clip-path="url(#p10f97f515d)" style="fill: #ffffff; stroke: #000000; stroke-width: 0.5"/>
    <path d="M 296.700076 203.310869 
L 295.85681 109.027054 
L 256.808149 109.376302 
L 257.651415 203.660117 
z
" clip-path="url(#p10f97f515d)" style="fill: #ffffff; stroke: #000000; stroke-width: 0.5"/>
    <path d="M 296.677756 200.81443 
L 295.83449 106.530615 
L 256.785829 106.879863 
L 257.629095 201.163678 
z
" clip-path="url(#p10f97f515d)" style="fill: #ffffff; stroke: #000000; stroke-width: 0.5"/>
    <path d="M 296.655436 198.318192 
L 295.81217 104.034377 
L 256.763509 104.383624 
L 257.606775 198.66744 
z
" clip-path="url(#p10f97f515d)" style="fill: #ffffff; stroke: #000000; stroke-width: 0.5"/>
    <path d="M 296.633116 195.821752 
L 295.789849 101.537937 
L 256.741189 101.887185 
L 257.584455 196.171 
z
" clip-path="url(#p10f97f515d)" style="fill: #ffffff; stroke: #000000; stroke-width: 0.5"/>
    <path d="M 296.610795 193.325374 
L 295.767529 99.041558 
L 256.718869 99.390806 
L 257.562135 193.674621 
z
" clip-path="url(#p10f97f515d)" style="fill: #ffffff; stroke: #000000; stroke-width: 0.5"/>
    <path d="M 296.588475 190.828995 
L 295.745209 96.545179 
L 256.696549 96.894427 
L 257.539815 191.178242 
z
" clip-path="url(#p10f97f515d)" style="fill: #ffffff; stroke: #000000; stroke-width: 0.5"/>
    <path d="M 296.566155 188.332616 
L 295.722889 94.0488 
L 256.674228 94.398048 
L 257.517495 188.681863 
z
" clip-path="url(#p10f97f515d)" style="fill: #ffffff; stroke: #000000; stroke-width: 0.5"/>
    <path d="M 296.543835 185.836237 
L 295.700569 91.552421 
L 256.651908 91.901669 
L 257.495174 186.185484 
z
" clip-path="url(#p10f97f515d)" style="fill: #ffffff; stroke: #000000; stroke-width: 0.5"/>
    <path d="M 296.521515 183.339858 
L 295.678249 89.056042 
L 256.629588 89.40529 
L 257.472854 183.689105 
z
" clip-path="url(#p10f97f515d)" style="fill: #ffffff; stroke: #000000; stroke-width: 0.5"/>
    <path d="M 296.685553 180.637751 
L 294.861799 86.367805 
L 255.818882 87.123132 
L 257.642636 181.393079 
z
" clip-path="url(#p10f97f515d)" style="fill: #ffffff; stroke: #000000; stroke-width: 0.5"/>
    <path d="M 296.295988 178.217351 
L 296.376729 83.9298 
L 257.326521 83.89636 
L 257.24578 178.183911 
z
" clip-path="url(#p10f97f515d)" style="fill: #ffffff; stroke: #000000; stroke-width: 0.5"/>
    <path d="M 296.298401 175.398993 
L 296.379142 81.111441 
L 257.328934 81.078002 
L 257.248193 175.365553 
z
" clip-path="url(#p10f97f515d)" style="fill: #ffffff; stroke: #000000; stroke-width: 0.5"/>
    <path d="M 296.300613 172.580627 
L 296.381354 78.293075 
L 257.331146 78.259635 
L 257.250405 172.547187 
z
" clip-path="url(#p10f97f515d)" style="fill: #ffffff; stroke: #000000; stroke-width: 0.5"/>
    <path d="M 296.303026 169.762254 
L 296.383767 75.474703 
L 257.333559 75.441263 
L 257.252818 169.728814 
z
" clip-path="url(#p10f97f515d)" style="fill: #ffffff; stroke: #000000; stroke-width: 0.5"/>
    <path d="M 296.305439 166.943902 
L 296.38618 72.65635 
L 257.335972 72.622911 
L 257.255231 166.910462 
z
" clip-path="url(#p10f97f515d)" style="fill: #ffffff; stroke: #000000; stroke-width: 0.5"/>
    <path d="M 296.307852 164.12553 
L 296.388593 69.837978 
L 257.338385 69.804538 
L 257.257644 164.09209 
z
" clip-path="url(#p10f97f515d)" style="fill: #ffffff; stroke: #000000; stroke-width: 0.5"/>
    <path d="M 296.310265 161.307157 
L 296.391006 67.019606 
L 257.340798 66.986166 
L 257.260057 161.273717 
z
" clip-path="url(#p10f97f515d)" style="fill: #ffffff; stroke: #000000; stroke-width: 0.5"/>
    <path d="M 296.312678 158.488785 
L 296.393419 64.201233 
L 257.343211 64.167793 
L 257.26247 158.455345 
z
" clip-path="url(#p10f97f515d)" style="fill: #ffffff; stroke: #000000; stroke-width: 0.5"/>
    <path d="M 296.315091 155.670432 
L 296.395832 61.382881 
L 257.345624 61.349441 
L 257.264883 155.636993 
z
" clip-path="url(#p10f97f515d)" style="fill: #ffffff; stroke: #000000; stroke-width: 0.5"/>
    <path d="M 296.317504 152.85208 
L 296.398245 58.564529 
L 257.348037 58.531089 
L 257.267296 152.81864 
z
" clip-path="url(#p10f97f515d)" style="fill: #ffffff; stroke: #000000; stroke-width: 0.5"/>
    <path d="M 296.319917 150.033708 
L 296.400658 55.746156 
L 257.35045 55.712716 
L 257.269709 150.000268 
z
" clip-path="url(#p10f97f515d)" style="fill: #ffffff; stroke: #000000; stroke-width: 0.5"/>
    <path d="M 296.32233 147.215335 
L 296.403071 52.927784 
L 257.352863 52.894344 
L 257.272122 147.181896 
z
" clip-path="url(#p10f97f515d)" style="fill: #ffffff; stroke: #000000; stroke-width: 0.5"/>
    <path d="M 296.324743 144.396963 
L 296.405484 50.109411 
L 257.355276 50.075972 
L 257.274535 144.363523 
z
" clip-path="url(#p10f97f515d)" style="fill: #ffffff; stroke: #000000; stroke-width: 0.5"/>
    <path d="M 296.343229 141.561806 
L 296.342882 47.27422 
L 257.29266 47.274363 
L 257.293006 141.561949 
z
" clip-path="url(#p10f97f515d)" style="fill: #ffffff; stroke: #000000; stroke-width: 0.5"/>
   </g>
   <g id="PatchCollection_3">
    <path d="M 166.725378 194.956808 
L 171.249889 193.449154 
L 171.249786 194.454566 
L 191.358036 194.45663 
L 191.357933 195.462043 
L 171.249683 195.459979 
L 171.24958 196.465391 
z
" clip-path="url(#p10f97f515d)" style="fill: #ff0000; stroke: #ff0000; stroke-width: 0.24"/>
    <path d="M 169.297109 194.900384 
L 173.825465 193.404318 
L 173.822788 194.409727 
L 193.930967 194.463268 
L 193.92829 195.468677 
L 173.820111 195.415136 
L 173.817434 196.420545 
z
" clip-path="url(#p10f97f515d)" style="fill: #ff0000; stroke: #ff0000; stroke-width: 0.24"/>
    <path d="M 171.869599 194.760052 
L 176.406908 193.291363 
L 176.398159 194.296738 
L 196.505648 194.471731 
L 196.496898 195.477105 
L 176.389409 195.302112 
L 176.380659 196.307487 
z
" clip-path="url(#p10f97f515d)" style="fill: #ff0000; stroke: #ff0000; stroke-width: 0.24"/>
    <path d="M 174.456477 194.119117 
L 179.033689 192.779955 
L 178.996374 193.784675 
L 199.09077 194.530975 
L 199.053455 195.535695 
L 178.959059 194.789395 
L 178.921744 195.794115 
z
" clip-path="url(#p10f97f515d)" style="fill: #ff0000; stroke: #ff0000; stroke-width: 0.24"/>
    <path d="M 177.060622 193.551914 
L 181.674039 192.34336 
L 181.608189 193.346614 
L 201.673264 194.663618 
L 201.607413 195.666872 
L 181.542338 194.349867 
L 181.476488 195.353121 
z
" clip-path="url(#p10f97f515d)" style="fill: #ff0000; stroke: #ff0000; stroke-width: 0.24"/>
    <path d="M 179.679792 193.059007 
L 184.325689 191.982037 
L 184.231356 192.983014 
L 204.250904 194.86966 
L 204.156572 195.870637 
L 184.137024 193.983991 
L 184.042692 194.984969 
z
" clip-path="url(#p10f97f515d)" style="fill: #ff0000; stroke: #ff0000; stroke-width: 0.24"/>
    <path d="M 182.311932 192.640558 
L 186.986556 191.696041 
L 186.863818 192.693933 
L 206.82167 195.148696 
L 206.698932 196.146588 
L 186.74108 193.691826 
L 186.618342 194.689718 
z
" clip-path="url(#p10f97f515d)" style="fill: #ff0000; stroke: #ff0000; stroke-width: 0.24"/>
    <path d="M 184.813653 193.246356 
L 189.475332 192.239892 
L 189.365846 193.239325 
L 209.354515 195.429039 
L 209.245029 196.428472 
L 189.25636 194.238759 
L 189.146875 195.238192 
z
" clip-path="url(#p10f97f515d)" style="fill: #ff0000; stroke: #ff0000; stroke-width: 0.24"/>
    <path d="M 187.434572 192.870365 
L 192.122803 191.995883 
L 191.98515 192.991828 
L 211.904048 195.744874 
L 211.766395 196.740819 
L 191.847498 193.987772 
L 191.709846 194.983717 
z
" clip-path="url(#p10f97f515d)" style="fill: #ff0000; stroke: #ff0000; stroke-width: 0.24"/>
    <path d="M 190.065325 192.568202 
L 194.776378 191.826447 
L 194.610659 192.818108 
L 214.443878 196.132491 
L 214.278159 197.124152 
L 194.44494 193.809768 
L 194.27922 194.801429 
z
" clip-path="url(#p10f97f515d)" style="fill: #ff0000; stroke: #ff0000; stroke-width: 0.24"/>
    <path d="M 192.703387 192.34046 
L 197.433506 191.732023 
L 197.239852 192.718609 
L 216.971578 196.591687 
L 216.777924 197.578273 
L 197.046198 193.705195 
L 196.852544 194.691782 
z
" clip-path="url(#p10f97f515d)" style="fill: #ff0000; stroke: #ff0000; stroke-width: 0.24"/>
    <path d="M 195.346997 192.187523 
L 200.092405 191.712842 
L 199.870981 192.693569 
L 219.485522 197.122056 
L 219.264098 198.102783 
L 199.649556 193.674296 
L 199.428132 194.655023 
z
" clip-path="url(#p10f97f515d)" style="fill: #ff0000; stroke: #ff0000; stroke-width: 0.24"/>
    <path d="M 196.560211 191.74891 
L 201.31713 191.408411 
L 201.068102 192.382494 
L 220.549779 197.363057 
L 220.300751 198.337141 
L 200.819074 193.356578 
L 200.570046 194.330662 
z
" clip-path="url(#p10f97f515d)" style="fill: #ff0000; stroke: #ff0000; stroke-width: 0.24"/>
    <path d="M 198.896186 193.030725 
L 203.641514 192.555237 
L 203.420256 193.536002 
L 223.03555 197.961154 
L 222.814293 198.941919 
L 203.198999 194.516766 
L 202.977741 195.497531 
z
" clip-path="url(#p10f97f515d)" style="fill: #ff0000; stroke: #ff0000; stroke-width: 0.24"/>
    <path d="M 201.267594 194.245772 
L 205.997494 193.635632 
L 205.804195 194.622288 
L 225.537314 198.488262 
L 225.344015 199.474918 
L 205.610897 195.608944 
L 205.417598 196.5956 
z
" clip-path="url(#p10f97f515d)" style="fill: #ff0000; stroke: #ff0000; stroke-width: 0.24"/>
    <path d="M 203.799124 194.69744 
L 208.529679 194.092409 
L 208.335315 195.078855 
L 228.064247 198.966139 
L 227.869883 199.952585 
L 208.140951 196.065302 
L 207.946587 197.051748 
z
" clip-path="url(#p10f97f515d)" style="fill: #ff0000; stroke: #ff0000; stroke-width: 0.24"/>
    <path d="M 206.459339 194.54527 
L 211.205177 194.074907 
L 210.98286 195.055433 
L 230.593364 199.501767 
L 230.371047 200.482292 
L 210.760544 196.035958 
L 210.538227 197.016483 
z
" clip-path="url(#p10f97f515d)" style="fill: #ff0000; stroke: #ff0000; stroke-width: 0.24"/>
    <path d="M 209.122747 194.469122 
L 213.880032 194.13376 
L 213.629952 195.107575 
L 233.106238 200.109174 
L 232.856158 201.082989 
L 213.379872 196.081389 
L 213.129792 197.055203 
z
" clip-path="url(#p10f97f515d)" style="fill: #ff0000; stroke: #ff0000; stroke-width: 0.24"/>
    <path d="M 211.787274 194.4687 
L 216.552165 194.26861 
L 216.274524 195.234927 
L 235.600874 200.787756 
L 235.323233 201.754073 
L 215.996882 196.201245 
L 215.719241 197.167562 
z
" clip-path="url(#p10f97f515d)" style="fill: #ff0000; stroke: #ff0000; stroke-width: 0.24"/>
    <path d="M 214.450814 194.543711 
L 219.219467 194.479101 
L 218.914478 195.437139 
L 238.075235 201.536906 
L 237.770246 202.494944 
L 218.60949 196.395177 
L 218.304502 197.353215 
z
" clip-path="url(#p10f97f515d)" style="fill: #ff0000; stroke: #ff0000; stroke-width: 0.24"/>
    <path d="M 217.111091 194.694563 
L 221.879654 194.76544 
L 221.547575 195.714427 
L 240.527328 202.356016 
L 240.195248 203.305004 
L 221.215495 196.663415 
L 220.883416 197.612403 
z
" clip-path="url(#p10f97f515d)" style="fill: #ff0000; stroke: #ff0000; stroke-width: 0.24"/>
    <path d="M 218.607264 194.482795 
L 223.37189 194.689099 
L 223.012987 195.628271 
L 241.796419 202.806322 
L 241.437517 203.745494 
L 222.654085 196.567442 
L 222.295182 197.506614 
z
" clip-path="url(#p10f97f515d)" style="fill: #ff0000; stroke: #ff0000; stroke-width: 0.24"/>
    <path d="M 220.613807 194.589646 
L 225.371371 194.921032 
L 224.987923 195.850452 
L 243.576328 203.51941 
L 243.19288 204.448831 
L 224.604475 196.779872 
L 224.221027 197.709292 
z
" clip-path="url(#p10f97f515d)" style="fill: #ff0000; stroke: #ff0000; stroke-width: 0.24"/>
    <path d="M 223.053592 194.930203 
L 227.800809 195.386441 
L 227.393081 196.305469 
L 245.773632 204.460043 
L 245.365903 205.37907 
L 226.985352 197.224496 
L 226.577623 198.143524 
z
" clip-path="url(#p10f97f515d)" style="fill: #ff0000; stroke: #ff0000; stroke-width: 0.24"/>
    <path d="M 225.483578 195.33456 
L 230.217174 195.915336 
L 229.785445 196.823336 
L 247.945459 205.457898 
L 247.513731 206.365899 
L 229.353717 197.731337 
L 228.921989 198.639338 
z
" clip-path="url(#p10f97f515d)" style="fill: #ff0000; stroke: #ff0000; stroke-width: 0.24"/>
    <path d="M 227.902114 195.80252 
L 232.61882 196.507432 
L 232.163391 197.403779 
L 250.090334 206.51237 
L 249.634905 207.408717 
L 231.707961 198.300126 
L 231.252532 199.196473 
z
" clip-path="url(#p10f97f515d)" style="fill: #ff0000; stroke: #ff0000; stroke-width: 0.24"/>
    <path d="M 230.307517 196.33408 
L 235.00408 197.162642 
L 234.525264 198.046717 
L 252.206766 207.623052 
L 251.72795 208.507128 
L 234.046447 198.930793 
L 233.56763 199.814868 
z
" clip-path="url(#p10f97f515d)" style="fill: #ff0000; stroke: #ff0000; stroke-width: 0.24"/>
    <path d="M 232.247501 197.747515 
L 236.954523 198.514436 
L 236.487337 199.404713 
L 254.292863 208.748427 
L 253.825677 209.638703 
L 236.020151 200.294989 
L 235.552966 201.185265 
z
" clip-path="url(#p10f97f515d)" style="fill: #ff0000; stroke: #ff0000; stroke-width: 0.24"/>
    <path d="M 234.813477 198.473294 
L 239.501363 199.349624 
L 239.013571 200.228779 
L 256.596672 209.984612 
L 256.108881 210.863767 
L 238.525779 201.107934 
L 238.037988 201.987089 
z
" clip-path="url(#p10f97f515d)" style="fill: #ff0000; stroke: #ff0000; stroke-width: 0.24"/>
    <path d="M 237.423538 199.154225 
L 242.084285 200.164997 
L 241.571414 201.029762 
L 258.866705 211.287181 
L 258.353834 212.151946 
L 241.058543 201.894526 
L 240.545672 202.759291 
z
" clip-path="url(#p10f97f515d)" style="fill: #ff0000; stroke: #ff0000; stroke-width: 0.24"/>
    <path d="M 240.013068 199.909686 
L 244.64281 201.054112 
L 244.105276 201.903765 
L 261.098344 212.654457 
L 260.56081 213.50411 
L 243.567741 202.753419 
L 243.030207 203.603072 
z
" clip-path="url(#p10f97f515d)" style="fill: #ff0000; stroke: #ff0000; stroke-width: 0.24"/>
    <path d="M 242.579674 200.739593 
L 247.174592 202.016678 
L 246.612848 202.850523 
L 263.289741 214.085422 
L 262.727996 214.919267 
L 246.051103 203.684368 
L 245.489358 204.518212 
z
" clip-path="url(#p10f97f515d)" style="fill: #ff0000; stroke: #ff0000; stroke-width: 0.24"/>
    <path d="M 245.121475 201.642616 
L 249.677755 203.05135 
L 249.092256 203.868691 
L 265.439065 215.578668 
L 264.853566 216.396009 
L 248.506757 204.686031 
L 247.921258 205.503372 
z
" clip-path="url(#p10f97f515d)" style="fill: #ff0000; stroke: #ff0000; stroke-width: 0.24"/>
    <path d="M 244.374647 200.194787 
L 248.888534 201.733959 
L 248.279774 202.534125 
L 264.28309 214.709329 
L 263.67433 215.509495 
L 247.671013 203.334291 
L 247.062253 204.134457 
z
" clip-path="url(#p10f97f515d)" style="fill: #ff0000; stroke: #ff0000; stroke-width: 0.24"/>
    <path d="M 246.831852 201.229895 
L 251.300145 202.896802 
L 250.668877 203.679334 
L 266.319506 216.304687 
L 265.688238 217.087219 
L 250.03761 204.461865 
L 249.406342 205.244397 
z
" clip-path="url(#p10f97f515d)" style="fill: #ff0000; stroke: #ff0000; stroke-width: 0.24"/>
    <path d="M 249.258475 202.334806 
L 253.677579 204.128056 
L 253.024322 204.892327 
L 268.309736 217.957466 
L 267.656479 218.721737 
L 252.371065 205.656598 
L 251.717808 206.420868 
z
" clip-path="url(#p10f97f515d)" style="fill: #ff0000; stroke: #ff0000; stroke-width: 0.24"/>
    <path d="M 251.652696 203.508352 
L 256.019039 205.426496 
L 255.34432 206.171888 
L 270.252165 219.666254 
L 269.577447 220.411646 
L 254.669602 206.917281 
L 253.994884 207.662673 
z
" clip-path="url(#p10f97f515d)" style="fill: #ff0000; stroke: #ff0000; stroke-width: 0.24"/>
    <path d="M 254.012592 204.74935 
L 258.322645 206.790837 
L 257.627011 207.516748 
L 272.145238 221.429434 
L 271.449604 222.155345 
L 256.931376 208.24266 
L 256.235742 208.968571 
z
" clip-path="url(#p10f97f515d)" style="fill: #ff0000; stroke: #ff0000; stroke-width: 0.24"/>
    <path d="M 256.232928 205.951869 
L 260.483186 208.115092 
L 259.767191 208.820928 
L 273.883924 223.14083 
L 273.167929 223.846667 
L 259.051196 209.526765 
L 258.335201 210.232602 
z
" clip-path="url(#p10f97f515d)" style="fill: #ff0000; stroke: #ff0000; stroke-width: 0.24"/>
    <path d="M 254.958723 203.609784 
L 259.145771 205.892951 
L 258.410001 206.578149 
L 272.11397 221.293549 
L 271.3782 221.978747 
L 257.674231 207.263348 
L 256.938461 207.948546 
z
" clip-path="url(#p10f97f515d)" style="fill: #ff0000; stroke: #ff0000; stroke-width: 0.24"/>
    <path d="M 253.751554 201.232399 
L 257.872008 203.633666 
L 257.117058 204.297672 
L 270.397186 219.396676 
L 269.642236 220.060683 
L 256.362108 204.961678 
L 255.607157 205.625685 
z
" clip-path="url(#p10f97f515d)" style="fill: #ff0000; stroke: #ff0000; stroke-width: 0.24"/>
    <path d="M 255.10748 201.762334 
L 259.15801 204.279759 
L 258.38449 204.922037 
L 271.230045 220.392443 
L 270.456524 221.034721 
L 257.61097 205.564315 
L 256.837449 206.206592 
z
" clip-path="url(#p10f97f515d)" style="fill: #ff0000; stroke: #ff0000; stroke-width: 0.24"/>
    <path d="M 257.267839 203.324912 
L 261.245145 205.9565 
L 260.453674 206.576522 
L 272.854115 222.40595 
L 272.062643 223.025972 
L 259.662202 207.196544 
L 258.870731 207.816566 
z
" clip-path="url(#p10f97f515d)" style="fill: #ff0000; stroke: #ff0000; stroke-width: 0.24"/>
    <path d="M 259.382977 204.948562 
L 263.28387 207.692146 
L 262.475094 208.289419 
L 274.420553 224.464948 
L 273.611777 225.062221 
L 261.666317 208.886692 
L 260.857541 209.483965 
z
" clip-path="url(#p10f97f515d)" style="fill: #ff0000; stroke: #ff0000; stroke-width: 0.24"/>
    <path d="M 261.450823 206.631661 
L 265.272151 209.485024 
L 264.446723 210.059065 
L 275.927547 226.567621 
L 275.102119 227.141662 
L 263.621295 210.633106 
L 262.795867 211.207148 
z
" clip-path="url(#p10f97f515d)" style="fill: #ff0000; stroke: #ff0000; stroke-width: 0.24"/>
    <path d="M 263.47032 208.372794 
L 267.208963 211.333667 
L 266.367546 211.884005 
L 277.374287 228.712355 
L 276.53287 229.262692 
L 265.526128 212.434342 
L 264.684711 212.984679 
z
" clip-path="url(#p10f97f515d)" style="fill: #ff0000; stroke: #ff0000; stroke-width: 0.24"/>
    <path d="M 265.439182 210.170745 
L 269.092148 213.236697 
L 268.235426 213.762893 
L 278.759354 230.897323 
L 277.902633 231.423519 
L 267.378705 214.28909 
L 266.521983 214.815286 
z
" clip-path="url(#p10f97f515d)" style="fill: #ff0000; stroke: #ff0000; stroke-width: 0.24"/>
    <path d="M 267.373542 212.041181 
L 270.937054 215.210661 
L 270.065591 215.712064 
L 280.093669 233.141333 
L 279.222205 233.642737 
L 269.194128 216.213468 
L 268.322664 216.714872 
z
" clip-path="url(#p10f97f515d)" style="fill: #ff0000; stroke: #ff0000; stroke-width: 0.24"/>
    <path d="M 269.253883 213.966274 
L 272.724977 217.236707 
L 271.839484 217.712897 
L 281.363281 235.422754 
L 280.477788 235.898943 
L 270.953991 218.189087 
L 270.068498 218.665276 
z
" clip-path="url(#p10f97f515d)" style="fill: #ff0000; stroke: #ff0000; stroke-width: 0.24"/>
    <path d="M 271.077658 215.944736 
L 274.453507 219.313395 
L 273.554719 219.763988 
L 282.56657 237.739757 
L 281.667782 238.190349 
L 272.65593 220.21458 
L 271.757142 220.665173 
z
" clip-path="url(#p10f97f515d)" style="fill: #ff0000; stroke: #ff0000; stroke-width: 0.24"/>
    <path d="M 272.844386 217.974598 
L 276.122177 221.438743 
L 275.210829 221.863359 
L 283.703135 240.090329 
L 282.791787 240.514945 
L 274.29948 222.287974 
L 273.388132 222.712589 
z
" clip-path="url(#p10f97f515d)" style="fill: #ff0000; stroke: #ff0000; stroke-width: 0.24"/>
    <path d="M 274.32125 219.522252 
L 277.49832 223.078999 
L 276.575166 223.477296 
L 284.541117 241.940377 
L 283.617963 242.338674 
L 275.652012 223.875594 
L 274.728858 224.273891 
z
" clip-path="url(#p10f97f515d)" style="fill: #ff0000; stroke: #ff0000; stroke-width: 0.24"/>
    <path d="M 273.980143 216.853029 
L 277.05384 220.499481 
L 276.119637 220.871123 
L 283.55249 239.555192 
L 282.618287 239.926835 
L 275.185433 221.242766 
L 274.25123 221.614409 
z
" clip-path="url(#p10f97f515d)" style="fill: #ff0000; stroke: #ff0000; stroke-width: 0.24"/>
    <path d="M 273.715276 214.175395 
L 276.683106 217.908519 
L 275.738626 218.25321 
L 282.632448 237.142809 
L 281.687968 237.4875 
L 274.794146 218.597901 
L 273.849666 218.942592 
z
" clip-path="url(#p10f97f515d)" style="fill: #ff0000; stroke: #ff0000; stroke-width: 0.24"/>
    <path d="M 273.527771 211.490991 
L 276.387252 215.307741 
L 275.43327 215.625188 
L 281.782196 234.704833 
L 280.828214 235.02228 
L 274.479288 215.942634 
L 273.525306 216.26008 
z
" clip-path="url(#p10f97f515d)" style="fill: #ff0000; stroke: #ff0000; stroke-width: 0.24"/>
    <path d="M 273.417015 208.802381 
L 276.165833 212.699588 
L 275.203137 212.989538 
L 281.00213 232.243457 
L 280.039434 232.533407 
L 274.240441 213.279487 
L 273.277745 213.569437 
z
" clip-path="url(#p10f97f515d)" style="fill: #ff0000; stroke: #ff0000; stroke-width: 0.24"/>
    <path d="M 273.38393 206.111603 
L 276.019781 210.086086 
L 275.049161 210.348291 
L 280.293255 229.760689 
L 279.322635 230.022894 
L 274.078541 210.610495 
L 273.107921 210.8727 
z
" clip-path="url(#p10f97f515d)" style="fill: #ff0000; stroke: #ff0000; stroke-width: 0.24"/>
    <path d="M 273.427482 203.421166 
L 275.948236 207.469625 
L 274.970493 207.703878 
L 279.655564 227.25872 
L 278.677821 227.492974 
L 273.992751 207.938132 
L 273.015009 208.172385 
z
" clip-path="url(#p10f97f515d)" style="fill: #ff0000; stroke: #ff0000; stroke-width: 0.24"/>
    <path d="M 273.548348 200.73295 
L 275.95193 204.852053 
L 274.96787 205.058163 
L 279.090061 224.739354 
L 278.106001 224.945463 
L 273.983811 205.264272 
L 272.999751 205.470382 
z
" clip-path="url(#p10f97f515d)" style="fill: #ff0000; stroke: #ff0000; stroke-width: 0.24"/>
    <path d="M 273.746605 198.049453 
L 276.030996 202.235833 
L 275.041427 202.413619 
L 278.597147 222.204996 
L 277.607578 222.382782 
L 274.051858 202.591405 
L 273.062289 202.769191 
z
" clip-path="url(#p10f97f515d)" style="fill: #ff0000; stroke: #ff0000; stroke-width: 0.24"/>
    <path d="M 274.021401 195.372488 
L 276.18476 199.622676 
L 275.190499 199.772002 
L 278.177019 219.657234 
L 277.182758 219.80656 
L 274.196237 199.921328 
L 273.201976 200.070654 
z
" clip-path="url(#p10f97f515d)" style="fill: #ff0000; stroke: #ff0000; stroke-width: 0.24"/>
    <path d="M 274.951965 197.047464 
L 276.99247 201.357982 
L 275.994333 201.478715 
L 278.408995 221.441458 
L 277.410858 221.562192 
L 274.996196 201.599448 
L 273.998058 201.720181 
z
" clip-path="url(#p10f97f515d)" style="fill: #ff0000; stroke: #ff0000; stroke-width: 0.24"/>
    <path d="M 275.44859 195.258516 
L 277.370148 199.623357 
L 276.369076 199.716679 
L 278.235521 219.73812 
L 277.234449 219.831443 
L 275.368004 199.810001 
L 274.366932 199.903324 
z
" clip-path="url(#p10f97f515d)" style="fill: #ff0000; stroke: #ff0000; stroke-width: 0.24"/>
    <path d="M 275.925663 192.731518 
L 277.726786 197.147419 
L 276.723531 197.21325 
L 278.040155 217.27835 
L 277.0369 217.344181 
L 275.720276 197.279081 
L 274.717021 197.344912 
z
" clip-path="url(#p10f97f515d)" style="fill: #ff0000; stroke: #ff0000; stroke-width: 0.24"/>
    <path d="M 276.443118 190.219503 
L 278.127671 194.681173 
L 277.123034 194.720639 
L 277.912355 214.813392 
L 276.907717 214.852858 
L 276.118396 194.760105 
L 275.113758 194.799571 
z
" clip-path="url(#p10f97f515d)" style="fill: #ff0000; stroke: #ff0000; stroke-width: 0.24"/>
    <path d="M 276.999231 187.696866 
L 278.570872 192.199551 
L 277.565559 192.2137 
L 277.848547 212.319959 
L 276.843234 212.334108 
L 276.560246 192.227849 
L 275.554933 192.241999 
z
" clip-path="url(#p10f97f515d)" style="fill: #ff0000; stroke: #ff0000; stroke-width: 0.24"/>
    <path d="M 276.964041 185.190373 
L 278.535683 189.693057 
L 277.53037 189.707206 
L 277.813358 209.813466 
L 276.808045 209.827615 
L 276.525057 189.721356 
L 275.519744 189.735505 
z
" clip-path="url(#p10f97f515d)" style="fill: #ff0000; stroke: #ff0000; stroke-width: 0.24"/>
    <path d="M 276.928651 182.683678 
L 278.500292 187.186363 
L 277.494979 187.200512 
L 277.777967 207.306771 
L 276.772654 207.32092 
L 276.489666 187.214661 
L 275.484353 187.228811 
z
" clip-path="url(#p10f97f515d)" style="fill: #ff0000; stroke: #ff0000; stroke-width: 0.24"/>
    <path d="M 276.893461 180.176984 
L 278.465103 184.679668 
L 277.45979 184.693817 
L 277.742778 204.800077 
L 276.737465 204.814226 
L 276.454477 184.707967 
L 275.449164 184.722116 
z
" clip-path="url(#p10f97f515d)" style="fill: #ff0000; stroke: #ff0000; stroke-width: 0.24"/>
    <path d="M 276.858272 177.67049 
L 278.429913 182.173175 
L 277.424601 182.187324 
L 277.707588 202.293583 
L 276.702275 202.307733 
L 276.419288 182.201473 
L 275.413975 182.215623 
z
" clip-path="url(#p10f97f515d)" style="fill: #ff0000; stroke: #ff0000; stroke-width: 0.24"/>
    <path d="M 276.822881 175.163796 
L 278.394523 179.66648 
L 277.38921 179.68063 
L 277.672198 199.786889 
L 276.666885 199.801038 
L 276.383897 179.694779 
L 275.378584 179.708928 
z
" clip-path="url(#p10f97f515d)" style="fill: #ff0000; stroke: #ff0000; stroke-width: 0.24"/>
    <path d="M 276.546547 172.661777 
L 278.161431 177.149134 
L 277.1563 177.172954 
L 277.632694 197.27556 
L 276.627564 197.29938 
L 276.15117 177.196773 
L 275.14604 177.220593 
z
" clip-path="url(#p10f97f515d)" style="fill: #ff0000; stroke: #ff0000; stroke-width: 0.24"/>
    <path d="M 276.877653 170.15961 
L 278.426175 174.670298 
L 277.420803 174.67929 
L 277.600642 194.786736 
L 276.59527 194.795728 
L 276.41543 174.688281 
L 275.410058 174.697273 
z
" clip-path="url(#p10f97f515d)" style="fill: #ff0000; stroke: #ff0000; stroke-width: 0.24"/>
    <path d="M 276.855333 167.663171 
L 278.403855 172.173858 
L 277.398483 172.18285 
L 277.578322 192.290296 
L 276.572949 192.299288 
L 276.39311 172.191842 
L 275.387738 172.200834 
z
" clip-path="url(#p10f97f515d)" style="fill: #ff0000; stroke: #ff0000; stroke-width: 0.24"/>
    <path d="M 276.833012 165.166732 
L 278.381535 169.677419 
L 277.376162 169.686411 
L 277.556002 189.793857 
L 276.550629 189.802849 
L 276.37079 169.695403 
L 275.365418 169.704395 
z
" clip-path="url(#p10f97f515d)" style="fill: #ff0000; stroke: #ff0000; stroke-width: 0.24"/>
    <path d="M 276.810692 162.670493 
L 278.359215 167.181181 
L 277.353842 167.190173 
L 277.533681 187.297619 
L 276.528309 187.306611 
L 276.34847 167.199165 
L 275.343098 167.208157 
z
" clip-path="url(#p10f97f515d)" style="fill: #ff0000; stroke: #ff0000; stroke-width: 0.24"/>
    <path d="M 276.788372 160.174054 
L 278.336894 164.684741 
L 277.331522 164.693733 
L 277.511361 184.80118 
L 276.505989 184.810172 
L 276.32615 164.702725 
L 275.320777 164.711717 
z
" clip-path="url(#p10f97f515d)" style="fill: #ff0000; stroke: #ff0000; stroke-width: 0.24"/>
    <path d="M 276.766052 157.677615 
L 278.314574 162.188302 
L 277.309202 162.197294 
L 277.489041 182.30474 
L 276.483669 182.313732 
L 276.30383 162.206286 
L 275.298457 162.215278 
z
" clip-path="url(#p10f97f515d)" style="fill: #ff0000; stroke: #ff0000; stroke-width: 0.24"/>
    <path d="M 276.743732 155.181377 
L 278.292254 159.692064 
L 277.286882 159.701056 
L 277.466721 179.808502 
L 276.461349 179.817494 
L 276.281509 159.710048 
L 275.276137 159.71904 
z
" clip-path="url(#p10f97f515d)" style="fill: #ff0000; stroke: #ff0000; stroke-width: 0.24"/>
    <path d="M 276.721412 152.684937 
L 278.269934 157.195625 
L 277.264562 157.204617 
L 277.444401 177.312063 
L 276.439028 177.321055 
L 276.259189 157.213609 
L 275.253817 157.222601 
z
" clip-path="url(#p10f97f515d)" style="fill: #ff0000; stroke: #ff0000; stroke-width: 0.24"/>
    <path d="M 276.699091 150.188558 
L 278.247614 154.699246 
L 277.242241 154.708238 
L 277.422081 174.815684 
L 276.416708 174.824676 
L 276.236869 154.71723 
L 275.231497 154.726222 
z
" clip-path="url(#p10f97f515d)" style="fill: #ff0000; stroke: #ff0000; stroke-width: 0.24"/>
    <path d="M 276.676771 147.692179 
L 278.225294 152.202867 
L 277.219921 152.211859 
L 277.39976 172.319305 
L 276.394388 172.328297 
L 276.214549 152.220851 
L 275.209177 152.229843 
z
" clip-path="url(#p10f97f515d)" style="fill: #ff0000; stroke: #ff0000; stroke-width: 0.24"/>
    <path d="M 276.654451 145.1958 
L 278.202973 149.706488 
L 277.197601 149.71548 
L 277.37744 169.822926 
L 276.372068 169.831918 
L 276.192229 149.724472 
L 275.186856 149.733464 
z
" clip-path="url(#p10f97f515d)" style="fill: #ff0000; stroke: #ff0000; stroke-width: 0.24"/>
    <path d="M 276.632131 142.699421 
L 278.180653 147.210109 
L 277.175281 147.219101 
L 277.35512 167.326547 
L 276.349748 167.335539 
L 276.169909 147.228093 
L 275.164536 147.237085 
z
" clip-path="url(#p10f97f515d)" style="fill: #ff0000; stroke: #ff0000; stroke-width: 0.24"/>
    <path d="M 276.609811 140.203042 
L 278.158333 144.71373 
L 277.152961 144.722722 
L 277.3328 164.830168 
L 276.327428 164.83916 
L 276.147588 144.731714 
L 275.142216 144.740706 
z
" clip-path="url(#p10f97f515d)" style="fill: #ff0000; stroke: #ff0000; stroke-width: 0.24"/>
    <path d="M 276.326311 137.710347 
L 277.92166 142.204686 
L 276.916436 142.224133 
L 277.305379 162.328622 
L 276.300154 162.348069 
L 275.911211 142.24358 
L 274.905987 142.263028 
z
" clip-path="url(#p10f97f515d)" style="fill: #ff0000; stroke: #ff0000; stroke-width: 0.24"/>
    <path d="M 276.807975 134.887476 
L 278.312219 139.413122 
L 277.306806 139.412261 
L 277.289587 159.520504 
L 276.284175 159.519643 
L 276.301394 139.4114 
L 275.295982 139.410539 
z
" clip-path="url(#p10f97f515d)" style="fill: #ff0000; stroke: #ff0000; stroke-width: 0.24"/>
    <path d="M 276.810388 132.069118 
L 278.314632 136.594764 
L 277.309219 136.593903 
L 277.292 156.702146 
L 276.286588 156.701285 
L 276.303807 136.593042 
L 275.298395 136.592181 
z
" clip-path="url(#p10f97f515d)" style="fill: #ff0000; stroke: #ff0000; stroke-width: 0.24"/>
    <path d="M 276.8126 129.250751 
L 278.316843 133.776397 
L 277.311431 133.775536 
L 277.294212 153.883779 
L 276.2888 153.882918 
L 276.306019 133.774675 
L 275.300607 133.773814 
z
" clip-path="url(#p10f97f515d)" style="fill: #ff0000; stroke: #ff0000; stroke-width: 0.24"/>
    <path d="M 276.815013 126.432379 
L 278.319256 130.958025 
L 277.313844 130.957164 
L 277.296625 151.065407 
L 276.291213 151.064546 
L 276.308432 130.956303 
L 275.30302 130.955442 
z
" clip-path="url(#p10f97f515d)" style="fill: #ff0000; stroke: #ff0000; stroke-width: 0.24"/>
    <path d="M 276.817426 123.614027 
L 278.321669 128.139673 
L 277.316257 128.138812 
L 277.299038 148.247055 
L 276.293626 148.246194 
L 276.310845 128.137951 
L 275.305433 128.13709 
z
" clip-path="url(#p10f97f515d)" style="fill: #ff0000; stroke: #ff0000; stroke-width: 0.24"/>
    <path d="M 276.819839 120.795654 
L 278.324082 125.3213 
L 277.31867 125.320439 
L 277.301451 145.428682 
L 276.296039 145.427821 
L 276.313258 125.319578 
L 275.307846 125.318717 
z
" clip-path="url(#p10f97f515d)" style="fill: #ff0000; stroke: #ff0000; stroke-width: 0.24"/>
    <path d="M 276.822252 117.977282 
L 278.326495 122.502928 
L 277.321083 122.502067 
L 277.303864 142.61031 
L 276.298452 142.609449 
L 276.315671 122.501206 
L 275.310259 122.500345 
z
" clip-path="url(#p10f97f515d)" style="fill: #ff0000; stroke: #ff0000; stroke-width: 0.24"/>
    <path d="M 276.824665 115.158909 
L 278.328908 119.684556 
L 277.323496 119.683695 
L 277.306277 139.791938 
L 276.300865 139.791077 
L 276.318084 119.682834 
L 275.312672 119.681973 
z
" clip-path="url(#p10f97f515d)" style="fill: #ff0000; stroke: #ff0000; stroke-width: 0.24"/>
    <path d="M 276.827078 112.340557 
L 278.331321 116.866203 
L 277.325909 116.865342 
L 277.30869 136.973585 
L 276.303278 136.972724 
L 276.320497 116.864481 
L 275.315085 116.86362 
z
" clip-path="url(#p10f97f515d)" style="fill: #ff0000; stroke: #ff0000; stroke-width: 0.24"/>
    <path d="M 276.82949 109.522205 
L 278.333734 114.047851 
L 277.328322 114.04699 
L 277.311103 134.155233 
L 276.305691 134.154372 
L 276.32291 114.046129 
L 275.317498 114.045268 
z
" clip-path="url(#p10f97f515d)" style="fill: #ff0000; stroke: #ff0000; stroke-width: 0.24"/>
    <path d="M 276.831903 106.703832 
L 278.336147 111.229479 
L 277.330735 111.228618 
L 277.313516 131.336861 
L 276.308104 131.336 
L 276.325323 111.227757 
L 275.319911 111.226896 
z
" clip-path="url(#p10f97f515d)" style="fill: #ff0000; stroke: #ff0000; stroke-width: 0.24"/>
    <path d="M 276.834316 103.88546 
L 278.33856 108.411106 
L 277.333148 108.410245 
L 277.315929 128.518488 
L 276.310517 128.517627 
L 276.327736 108.409384 
L 275.322324 108.408523 
z
" clip-path="url(#p10f97f515d)" style="fill: #ff0000; stroke: #ff0000; stroke-width: 0.24"/>
    <path d="M 276.836729 101.067088 
L 278.340973 105.592734 
L 277.335561 105.591873 
L 277.318342 125.700116 
L 276.31293 125.699255 
L 276.330149 105.591012 
L 275.324737 105.590151 
z
" clip-path="url(#p10f97f515d)" style="fill: #ff0000; stroke: #ff0000; stroke-width: 0.24"/>
    <path d="M 276.817958 98.248706 
L 278.326094 102.773057 
L 277.320681 102.773061 
L 277.320755 122.881311 
L 276.315343 122.881315 
L 276.315269 102.773064 
L 275.309856 102.773068 
z
" clip-path="url(#p10f97f515d)" style="fill: #ff0000; stroke: #ff0000; stroke-width: 0.24"/>
   </g>
   <g id="matplotlib.axis_1">
    <g id="xtick_1">
     <g id="line2d_1">
      <defs>
       <path id="ma682fb0351" d="M 0 0 
L 0 -3 
" style="stroke: #000000"/>
      </defs>
      <g>
       <use xlink:href="#ma682fb0351" x="131.033233" y="290.32" style="stroke: #000000"/>
      </g>
     </g>
     <g id="text_1">
      <!-- 6 -->
      <g transform="translate(123.293585 303.898359) scale(0.105 -0.105)">
       <defs>
        <path id="DejaVuSans-2212" d="M 678 2272 
L 4684 2272 
L 4684 1741 
L 678 1741 
L 678 2272 
z
" transform="scale(0.015625)"/>
        <path id="DejaVuSans-36" d="M 2113 2584 
Q 1688 2584 1439 2293 
Q 1191 2003 1191 1497 
Q 1191 994 1439 701 
Q 1688 409 2113 409 
Q 2538 409 2786 701 
Q 3034 994 3034 1497 
Q 3034 2003 2786 2293 
Q 2538 2584 2113 2584 
z
M 3366 4563 
L 3366 3988 
Q 3128 4100 2886 4159 
Q 2644 4219 2406 4219 
Q 1781 4219 1451 3797 
Q 1122 3375 1075 2522 
Q 1259 2794 1537 2939 
Q 1816 3084 2150 3084 
Q 2853 3084 3261 2657 
Q 3669 2231 3669 1497 
Q 3669 778 3244 343 
Q 2819 -91 2113 -91 
Q 1303 -91 875 529 
Q 447 1150 447 2328 
Q 447 3434 972 4092 
Q 1497 4750 2381 4750 
Q 2619 4750 2861 4703 
Q 3103 4656 3366 4563 
z
" transform="scale(0.015625)"/>
       </defs>
       <use xlink:href="#DejaVuSans-2212"/>
       <use xlink:href="#DejaVuSans-36" x="83.789062"/>
      </g>
     </g>
    </g>
    <g id="xtick_2">
     <g id="line2d_2">
      <g>
       <use xlink:href="#ma682fb0351" x="171.249734" y="290.32" style="stroke: #000000"/>
      </g>
     </g>
     <g id="text_2">
      <!-- 4 -->
      <g transform="translate(163.510086 303.898359) scale(0.105 -0.105)">
       <defs>
        <path id="DejaVuSans-34" d="M 2419 4116 
L 825 1625 
L 2419 1625 
L 2419 4116 
z
M 2253 4666 
L 3047 4666 
L 3047 1625 
L 3713 1625 
L 3713 1100 
L 3047 1100 
L 3047 0 
L 2419 0 
L 2419 1100 
L 313 1100 
L 313 1709 
L 2253 4666 
z
" transform="scale(0.015625)"/>
       </defs>
       <use xlink:href="#DejaVuSans-2212"/>
       <use xlink:href="#DejaVuSans-34" x="83.789062"/>
      </g>
     </g>
    </g>
    <g id="xtick_3">
     <g id="line2d_3">
      <g>
       <use xlink:href="#ma682fb0351" x="211.466235" y="290.32" style="stroke: #000000"/>
      </g>
     </g>
     <g id="text_3">
      <!-- 2 -->
      <g transform="translate(203.726587 303.898359) scale(0.105 -0.105)">
       <defs>
        <path id="DejaVuSans-32" d="M 1228 531 
L 3431 531 
L 3431 0 
L 469 0 
L 469 531 
Q 828 903 1448 1529 
Q 2069 2156 2228 2338 
Q 2531 2678 2651 2914 
Q 2772 3150 2772 3378 
Q 2772 3750 2511 3984 
Q 2250 4219 1831 4219 
Q 1534 4219 1204 4116 
Q 875 4013 500 3803 
L 500 4441 
Q 881 4594 1212 4672 
Q 1544 4750 1819 4750 
Q 2544 4750 2975 4387 
Q 3406 4025 3406 3419 
Q 3406 3131 3298 2873 
Q 3191 2616 2906 2266 
Q 2828 2175 2409 1742 
Q 1991 1309 1228 531 
z
" transform="scale(0.015625)"/>
       </defs>
       <use xlink:href="#DejaVuSans-2212"/>
       <use xlink:href="#DejaVuSans-32" x="83.789062"/>
      </g>
     </g>
    </g>
    <g id="xtick_4">
     <g id="line2d_4">
      <g>
       <use xlink:href="#ma682fb0351" x="251.682736" y="290.32" style="stroke: #000000"/>
      </g>
     </g>
     <g id="text_4">
      <!-- 0 -->
      <g transform="translate(248.342423 303.898359) scale(0.105 -0.105)">
       <defs>
        <path id="DejaVuSans-30" d="M 2034 4250 
Q 1547 4250 1301 3770 
Q 1056 3291 1056 2328 
Q 1056 1369 1301 889 
Q 1547 409 2034 409 
Q 2525 409 2770 889 
Q 3016 1369 3016 2328 
Q 3016 3291 2770 3770 
Q 2525 4250 2034 4250 
z
M 2034 4750 
Q 2819 4750 3233 4129 
Q 3647 3509 3647 2328 
Q 3647 1150 3233 529 
Q 2819 -91 2034 -91 
Q 1250 -91 836 529 
Q 422 1150 422 2328 
Q 422 3509 836 4129 
Q 1250 4750 2034 4750 
z
" transform="scale(0.015625)"/>
       </defs>
       <use xlink:href="#DejaVuSans-30"/>
      </g>
     </g>
    </g>
    <g id="xtick_5">
     <g id="line2d_5">
      <g>
       <use xlink:href="#ma682fb0351" x="291.899237" y="290.32" style="stroke: #000000"/>
      </g>
     </g>
     <g id="text_5">
      <!-- 2 -->
      <g transform="translate(288.558924 303.898359) scale(0.105 -0.105)">
       <use xlink:href="#DejaVuSans-32"/>
      </g>
     </g>
    </g>
    <g id="xtick_6">
     <g id="line2d_6">
      <g>
       <use xlink:href="#ma682fb0351" x="332.115738" y="290.32" style="stroke: #000000"/>
      </g>
     </g>
     <g id="text_6">
      <!-- 4 -->
      <g transform="translate(328.775425 303.898359) scale(0.105 -0.105)">
       <use xlink:href="#DejaVuSans-34"/>
      </g>
     </g>
    </g>
   </g>
   <g id="matplotlib.axis_2">
    <g id="ytick_1">
     <g id="line2d_7">
      <defs>
       <path id="mbc6a652254" d="M 0 0 
L 3 0 
" style="stroke: #000000"/>
      </defs>
      <g>
       <use xlink:href="#mbc6a652254" x="104.283855" y="275.392338" style="stroke: #000000"/>
      </g>
     </g>
     <g id="text_7">
      <!-- 6 -->
      <g transform="translate(83.204558 279.381518) scale(0.105 -0.105)">
       <use xlink:href="#DejaVuSans-2212"/>
       <use xlink:href="#DejaVuSans-36" x="83.789062"/>
      </g>
     </g>
    </g>
    <g id="ytick_2">
     <g id="line2d_8">
      <g>
       <use xlink:href="#mbc6a652254" x="104.283855" y="235.175838" style="stroke: #000000"/>
      </g>
     </g>
     <g id="text_8">
      <!-- 4 -->
      <g transform="translate(83.204558 239.165017) scale(0.105 -0.105)">
       <use xlink:href="#DejaVuSans-2212"/>
       <use xlink:href="#DejaVuSans-34" x="83.789062"/>
      </g>
     </g>
    </g>
    <g id="ytick_3">
     <g id="line2d_9">
      <g>
       <use xlink:href="#mbc6a652254" x="104.283855" y="194.959337" style="stroke: #000000"/>
      </g>
     </g>
     <g id="text_9">
      <!-- 2 -->
      <g transform="translate(83.204558 198.948516) scale(0.105 -0.105)">
       <use xlink:href="#DejaVuSans-2212"/>
       <use xlink:href="#DejaVuSans-32" x="83.789062"/>
      </g>
     </g>
    </g>
    <g id="ytick_4">
     <g id="line2d_10">
      <g>
       <use xlink:href="#mbc6a652254" x="104.283855" y="154.742836" style="stroke: #000000"/>
      </g>
     </g>
     <g id="text_10">
      <!-- 0 -->
      <g transform="translate(92.00323 158.732016) scale(0.105 -0.105)">
       <use xlink:href="#DejaVuSans-30"/>
      </g>
     </g>
    </g>
    <g id="ytick_5">
     <g id="line2d_11">
      <g>
       <use xlink:href="#mbc6a652254" x="104.283855" y="114.526335" style="stroke: #000000"/>
      </g>
     </g>
     <g id="text_11">
      <!-- 2 -->
      <g transform="translate(92.00323 118.515515) scale(0.105 -0.105)">
       <use xlink:href="#DejaVuSans-32"/>
      </g>
     </g>
    </g>
    <g id="ytick_6">
     <g id="line2d_12">
      <g>
       <use xlink:href="#mbc6a652254" x="104.283855" y="74.309834" style="stroke: #000000"/>
      </g>
     </g>
     <g id="text_12">
      <!-- 4 -->
      <g transform="translate(92.00323 78.299014) scale(0.105 -0.105)">
       <use xlink:href="#DejaVuSans-34"/>
      </g>
     </g>
    </g>
    <g id="ytick_7">
     <g id="line2d_13">
      <g>
       <use xlink:href="#mbc6a652254" x="104.283855" y="34.093333" style="stroke: #000000"/>
      </g>
     </g>
     <g id="text_13">
      <!-- 6 -->
      <g transform="translate(92.00323 38.082513) scale(0.105 -0.105)">
       <use xlink:href="#DejaVuSans-36"/>
      </g>
     </g>
    </g>
   </g>
   <g id="patch_3">
    <path d="M 104.283855 290.32 
L 104.283855 10.8 
" style="fill: none; stroke: #000000; stroke-width: 0.8; stroke-linejoin: miter; stroke-linecap: square"/>
   </g>
   <g id="patch_4">
    <path d="M 356.516145 290.32 
L 356.516145 10.8 
" style="fill: none; stroke: #000000; stroke-width: 0.8; stroke-linejoin: miter; stroke-linecap: square"/>
   </g>
   <g id="patch_5">
    <path d="M 104.283855 290.32 
L 356.516145 290.32 
" style="fill: none; stroke: #000000; stroke-width: 0.8; stroke-linejoin: miter; stroke-linecap: square"/>
   </g>
   <g id="patch_6">
    <path d="M 104.283855 10.8 
L 356.516145 10.8 
" style="fill: none; stroke: #000000; stroke-width: 0.8; stroke-linejoin: miter; stroke-linecap: square"/>
   </g>
  </g>
 </g>
 <defs>
  <clipPath id="p10f97f515d">
   <rect x="104.283855" y="10.8" width="252.23229" height="279.52"/>
  </clipPath>
 </defs>
</svg>
