<?xml version="1.0" encoding="utf-8" standalone="no"?>
<!DOCTYPE svg PUBLIC "-//W3C//DTD SVG 1.1//EN"
  "http://www.w3.org/Graphics/SVG/1.1/DTD/svg11.dtd">
<svg xmlns:xlink="http://www.w3.org/1999/xlink" width="460.8pt" height="316.8pt" viewBox="0 0 460.8 316.8" xmlns="http://www.w3.org/2000/svg" version="1.1">
 <metadata>
  <rdf:RDF xmlns:dc="http://purl.org/dc/elements/1.1/" xmlns:cc="http://creativecommons.org/ns#" xmlns:rdf="http://www.w3.org/1999/02/22-rdf-syntax-ns#">
   <cc:Work>
    <dc:type rdf:resource="http://purl.org/dc/dcmitype/StillImage"/>
    <dc:date>2024-01-11T15:51:22.945076</dc:date>
    <dc:format>image/svg+xml</dc:format>
    <dc:creator>
     <cc:Agent>
      <dc:title>Matplotlib v3.7.2, https://matplotlib.org/</dc:title>
     </cc:Agent>
    </dc:creator>
   </cc:Work>
  </rdf:RDF>
 </metadata>
 <defs>
  <style type="text/css">*{stroke-linejoin: round; stroke-linecap: butt}</style>
 </defs>
 <g id="figure_1">
  <g id="patch_1">
   <path d="M 0 316.8 
L 460.8 316.8 
L 460.8 0 
L 0 0 
z
" style="fill: #ffffff"/>
  </g>
  <g id="axes_1">
   <g id="patch_2">
    <path d="M 31.88 244.749518 
L 450 244.749518 
L 450 72.050482 
L 31.88 72.050482 
z
" style="fill: #ffffff"/>
   </g>
   <g id="PatchCollection_1">
    <path d="M 252.741246 153.726765 
L 355.888921 153.726765 
L 355.888921 110.748567 
L 252.741246 110.748567 
z
" clip-path="url(#pbce641819f)" style="fill: #ffffff; stroke: #0000ff; stroke-width: 3"/>
    <path d="M 132.402293 105.591184 
L 178.638236 171.622954 
L 205.986007 152.473839 
L 159.750064 86.442068 
z
" clip-path="url(#pbce641819f)" style="fill: #ff0000; stroke: #ff0000; stroke-width: 2"/>
    <path d="M 352.450665 162.322405 
L 430.994545 144.189121 
L 423.48445 111.659324 
L 344.940569 129.792608 
z
" clip-path="url(#pbce641819f)" style="fill: #ff0000; stroke: #ff0000; stroke-width: 2"/>
   </g>
   <g id="PatchCollection_2">
    <path d="M 50.885455 135.863476 
L 120.695673 176.168445 
L 137.388412 147.255789 
L 67.578193 106.95082 
L 50.885455 135.863476 
z
" clip-path="url(#pbce641819f)" style="fill: none; stroke: #000000; stroke-width: 0.5"/>
    <path d="M 54.855017 136.733415 
L 123.842726 178.430574 
L 141.112055 149.858569 
L 72.124346 108.161409 
L 54.855017 136.733415 
z
" clip-path="url(#pbce641819f)" style="fill: none; stroke: #000000; stroke-width: 0.5"/>
    <path d="M 58.445243 138.903435 
L 127.432953 180.600595 
L 144.702282 152.028589 
L 75.714572 110.33143 
L 58.445243 138.903435 
z
" clip-path="url(#pbce641819f)" style="fill: none; stroke: #000000; stroke-width: 0.5"/>
    <path d="M 62.03547 141.073439 
L 131.02318 182.770598 
L 148.292509 154.198593 
L 79.304799 112.501434 
L 62.03547 141.073439 
z
" clip-path="url(#pbce641819f)" style="fill: none; stroke: #000000; stroke-width: 0.5"/>
    <path d="M 65.625697 143.243442 
L 134.613407 184.940602 
L 151.882735 156.368597 
L 82.895026 114.671437 
L 65.625697 143.243442 
z
" clip-path="url(#pbce641819f)" style="fill: none; stroke: #000000; stroke-width: 0.5"/>
    <path d="M 69.216095 145.413463 
L 138.203805 187.110623 
L 155.473134 158.538617 
L 86.485424 116.841458 
L 69.216095 145.413463 
z
" clip-path="url(#pbce641819f)" style="fill: none; stroke: #000000; stroke-width: 0.5"/>
    <path d="M 72.806322 147.583467 
L 141.794032 189.280626 
L 159.063361 160.708621 
L 90.075651 119.011462 
L 72.806322 147.583467 
z
" clip-path="url(#pbce641819f)" style="fill: none; stroke: #000000; stroke-width: 0.5"/>
    <path d="M 76.396549 149.75347 
L 145.384259 191.45063 
L 162.653588 162.878625 
L 93.665878 121.181465 
L 76.396549 149.75347 
z
" clip-path="url(#pbce641819f)" style="fill: none; stroke: #000000; stroke-width: 0.5"/>
    <path d="M 79.986776 151.923474 
L 148.974485 193.620633 
L 166.243814 165.048628 
L 97.256105 123.351469 
L 79.986776 151.923474 
z
" clip-path="url(#pbce641819f)" style="fill: none; stroke: #000000; stroke-width: 0.5"/>
    <path d="M 83.577002 154.093529 
L 152.564712 195.790688 
L 169.834041 167.218683 
L 100.846331 125.521524 
L 83.577002 154.093529 
z
" clip-path="url(#pbce641819f)" style="fill: none; stroke: #000000; stroke-width: 0.5"/>
    <path d="M 87.167401 156.263412 
L 156.155111 197.960572 
L 173.42444 169.388567 
L 104.43673 127.691407 
L 87.167401 156.263412 
z
" clip-path="url(#pbce641819f)" style="fill: none; stroke: #000000; stroke-width: 0.5"/>
    <path d="M 90.757628 158.433468 
L 159.745337 200.130627 
L 177.014666 171.558622 
L 108.026957 129.861462 
L 90.757628 158.433468 
z
" clip-path="url(#pbce641819f)" style="fill: none; stroke: #000000; stroke-width: 0.5"/>
    <path d="M 94.347854 160.603523 
L 163.335564 202.300682 
L 180.604893 173.728677 
L 111.617183 132.031518 
L 94.347854 160.603523 
z
" clip-path="url(#pbce641819f)" style="fill: none; stroke: #000000; stroke-width: 0.5"/>
    <path d="M 97.938081 162.773578 
L 166.925791 204.470737 
L 184.19512 175.898732 
L 115.20741 134.201573 
L 97.938081 162.773578 
z
" clip-path="url(#pbce641819f)" style="fill: none; stroke: #000000; stroke-width: 0.5"/>
    <path d="M 101.192521 166.116336 
L 170.938324 206.532671 
L 187.677185 177.646694 
L 117.931382 137.230358 
L 101.192521 166.116336 
z
" clip-path="url(#pbce641819f)" style="fill: none; stroke: #000000; stroke-width: 0.5"/>
    <path d="M 103.998207 171.631548 
L 175.832109 208.208151 
L 190.980703 178.457364 
L 119.146802 141.880762 
L 103.998207 171.631548 
z
" clip-path="url(#pbce641819f)" style="fill: none; stroke: #000000; stroke-width: 0.5"/>
    <path d="M 107.098657 176.986743 
L 180.809468 209.616079 
L 194.32326 179.08795 
L 120.612449 146.458615 
L 107.098657 176.986743 
z
" clip-path="url(#pbce641819f)" style="fill: none; stroke: #000000; stroke-width: 0.5"/>
    <path d="M 108.731582 181.752577 
L 184.253551 209.937491 
L 195.926637 178.659252 
L 120.404669 150.474338 
L 108.731582 181.752577 
z
" clip-path="url(#pbce641819f)" style="fill: none; stroke: #000000; stroke-width: 0.5"/>
    <path d="M 112.796213 187.197454 
L 189.861663 210.837964 
L 199.652635 178.920476 
L 122.587186 155.279966 
L 112.796213 187.197454 
z
" clip-path="url(#pbce641819f)" style="fill: none; stroke: #000000; stroke-width: 0.5"/>
    <path d="M 117.177539 192.390897 
L 195.513268 211.40328 
L 203.387452 178.959692 
L 125.051723 159.947308 
L 117.177539 192.390897 
z
" clip-path="url(#pbce641819f)" style="fill: none; stroke: #000000; stroke-width: 0.5"/>
    <path d="M 121.860292 197.314243 
L 201.188626 211.631106 
L 207.11811 178.77642 
L 127.789776 164.459556 
L 121.860292 197.314243 
z
" clip-path="url(#pbce641819f)" style="fill: none; stroke: #000000; stroke-width: 0.5"/>
    <path d="M 126.827697 201.950216 
L 206.867452 211.520731 
L 210.831184 178.371402 
L 130.791429 168.800887 
L 126.827697 201.950216 
z
" clip-path="url(#pbce641819f)" style="fill: none; stroke: #000000; stroke-width: 0.5"/>
    <path d="M 132.062123 206.282462 
L 212.529572 211.072752 
L 214.513522 177.746289 
L 134.046074 172.955999 
L 132.062123 206.282462 
z
" clip-path="url(#pbce641819f)" style="fill: none; stroke: #000000; stroke-width: 0.5"/>
    <path d="M 137.545123 210.295408 
L 218.15503 210.288483 
L 218.152162 176.903019 
L 137.542255 176.909944 
L 137.545123 210.295408 
z
" clip-path="url(#pbce641819f)" style="fill: none; stroke: #000000; stroke-width: 0.5"/>
    <path d="M 143.257246 213.974961 
L 223.723871 209.170847 
L 221.734195 175.844725 
L 141.267571 180.648839 
L 143.257246 213.974961 
z
" clip-path="url(#pbce641819f)" style="fill: none; stroke: #000000; stroke-width: 0.5"/>
    <path d="M 149.178236 217.308114 
L 229.216344 207.723832 
L 225.24691 174.575185 
L 145.208802 184.159467 
L 149.178236 217.308114 
z
" clip-path="url(#pbce641819f)" style="fill: none; stroke: #000000; stroke-width: 0.5"/>
    <path d="M 155.287186 220.282926 
L 234.613071 205.952497 
L 228.677969 173.098825 
L 149.352084 187.429254 
L 155.287186 220.282926 
z
" clip-path="url(#pbce641819f)" style="fill: none; stroke: #000000; stroke-width: 0.5"/>
    <path d="M 161.562129 222.888933 
L 239.894587 203.863076 
L 232.014823 171.420842 
L 153.682365 190.446699 
L 161.562129 222.888933 
z
" clip-path="url(#pbce641819f)" style="fill: none; stroke: #000000; stroke-width: 0.5"/>
    <path d="M 167.981264 225.117008 
L 245.042645 201.463243 
L 235.246183 169.54744 
L 158.184801 193.201205 
L 167.981264 225.117008 
z
" clip-path="url(#pbce641819f)" style="fill: none; stroke: #000000; stroke-width: 0.5"/>
    <path d="M 174.521485 226.959001 
L 250.038605 198.761097 
L 238.360139 167.484866 
L 162.843019 195.68277 
L 174.521485 226.959001 
z
" clip-path="url(#pbce641819f)" style="fill: none; stroke: #000000; stroke-width: 0.5"/>
    <path d="M 181.159696 228.408518 
L 254.864893 195.766504 
L 241.345851 165.240701 
L 167.640653 197.882714 
L 181.159696 228.408518 
z
" clip-path="url(#pbce641819f)" style="fill: none; stroke: #000000; stroke-width: 0.5"/>
    <path d="M 187.872469 229.460379 
L 259.504446 192.489891 
L 244.192719 162.822734 
L 172.560741 199.793222 
L 187.872469 229.460379 
z
" clip-path="url(#pbce641819f)" style="fill: none; stroke: #000000; stroke-width: 0.5"/>
    <path d="M 194.635915 230.110923 
L 263.940792 188.943081 
L 246.890685 160.239718 
L 177.585808 201.40756 
L 194.635915 230.110923 
z
" clip-path="url(#pbce641819f)" style="fill: none; stroke: #000000; stroke-width: 0.5"/>
    <path d="M 201.426127 230.357932 
L 268.158195 185.138597 
L 249.430119 157.50079 
L 182.698051 202.720125 
L 201.426127 230.357932 
z
" clip-path="url(#pbce641819f)" style="fill: none; stroke: #000000; stroke-width: 0.5"/>
    <path d="M 208.21895 230.200281 
L 272.141707 181.08981 
L 251.802075 154.61551 
L 187.879318 203.725981 
L 208.21895 230.200281 
z
" clip-path="url(#pbce641819f)" style="fill: none; stroke: #000000; stroke-width: 0.5"/>
    <path d="M 214.990412 229.638686 
L 275.877219 176.8111 
L 253.998103 151.594171 
L 193.111296 204.421758 
L 214.990412 229.638686 
z
" clip-path="url(#pbce641819f)" style="fill: none; stroke: #000000; stroke-width: 0.5"/>
    <path d="M 221.716401 228.675046 
L 279.351483 172.317664 
L 256.010465 148.447472 
L 198.375383 204.804854 
L 221.716401 228.675046 
z
" clip-path="url(#pbce641819f)" style="fill: none; stroke: #000000; stroke-width: 0.5"/>
    <path d="M 228.373172 227.312994 
L 282.552172 167.625531 
L 257.831964 145.186713 
L 203.652965 204.874176 
L 228.373172 227.312994 
z
" clip-path="url(#pbce641819f)" style="fill: none; stroke: #000000; stroke-width: 0.5"/>
    <path d="M 234.937026 225.557106 
L 285.467952 162.751194 
L 259.456204 141.823265 
L 208.925278 204.629178 
L 234.937026 225.557106 
z
" clip-path="url(#pbce641819f)" style="fill: none; stroke: #000000; stroke-width: 0.5"/>
    <path d="M 237.765743 221.923271 
L 288.30207 159.121704 
L 262.292122 138.191539 
L 211.755795 200.993106 
L 237.765743 221.923271 
z
" clip-path="url(#pbce641819f)" style="fill: none; stroke: #000000; stroke-width: 0.5"/>
    <path d="M 237.187905 216.676999 
L 291.372038 156.994195 
L 266.65376 134.553252 
L 212.469628 194.236055 
L 237.187905 216.676999 
z
" clip-path="url(#pbce641819f)" style="fill: none; stroke: #000000; stroke-width: 0.5"/>
    <path d="M 236.923261 211.405603 
L 294.563189 155.053177 
L 271.224223 131.180978 
L 213.584295 187.533404 
L 236.923261 211.405603 
z
" clip-path="url(#pbce641819f)" style="fill: none; stroke: #000000; stroke-width: 0.5"/>
    <path d="M 236.972726 206.127833 
L 297.864075 153.305482 
L 275.987128 128.086672 
L 215.095779 180.909022 
L 236.972726 206.127833 
z
" clip-path="url(#pbce641819f)" style="fill: none; stroke: #000000; stroke-width: 0.5"/>
    <path d="M 237.336263 200.862323 
L 301.263243 151.757349 
L 280.925888 125.2813 
L 216.998908 174.386273 
L 237.336263 200.862323 
z
" clip-path="url(#pbce641819f)" style="fill: none; stroke: #000000; stroke-width: 0.5"/>
    <path d="M 238.012615 195.627837 
L 304.748572 150.414241 
L 286.022873 122.774824 
L 219.286916 167.98842 
L 238.012615 195.627837 
z
" clip-path="url(#pbce641819f)" style="fill: none; stroke: #000000; stroke-width: 0.5"/>
    <path d="M 238.999112 190.442814 
L 308.307529 149.280933 
L 291.259891 120.576103 
L 221.951474 161.737984 
L 238.999112 190.442814 
z
" clip-path="url(#pbce641819f)" style="fill: none; stroke: #000000; stroke-width: 0.5"/>
    <path d="M 240.292555 185.325741 
L 311.927711 148.361412 
L 296.618536 118.692939 
L 224.983379 155.657267 
L 240.292555 185.325741 
z
" clip-path="url(#pbce641819f)" style="fill: none; stroke: #000000; stroke-width: 0.5"/>
    <path d="M 241.888108 180.294651 
L 315.596112 147.658977 
L 302.079695 117.132011 
L 228.371691 149.767685 
L 241.888108 180.294651 
z
" clip-path="url(#pbce641819f)" style="fill: none; stroke: #000000; stroke-width: 0.5"/>
    <path d="M 243.780312 175.367496 
L 319.299857 147.176087 
L 307.62408 115.898852 
L 232.104535 144.090261 
L 243.780312 175.367496 
z
" clip-path="url(#pbce641819f)" style="fill: none; stroke: #000000; stroke-width: 0.5"/>
    <path d="M 245.962372 170.561608 
L 323.025788 146.914471 
L 313.23207 114.997824 
L 236.168654 138.644962 
L 245.962372 170.561608 
z
" clip-path="url(#pbce641819f)" style="fill: none; stroke: #000000; stroke-width: 0.5"/>
    <path d="M 248.426612 165.894264 
L 326.760706 146.875144 
L 318.883732 114.432233 
L 240.549638 133.451353 
L 248.426612 165.894264 
z
" clip-path="url(#pbce641819f)" style="fill: none; stroke: #000000; stroke-width: 0.5"/>
    <path d="M 251.164159 161.381592 
L 330.491276 147.057985 
L 324.558999 114.203803 
L 245.231882 128.527409 
L 251.164159 161.381592 
z
" clip-path="url(#pbce641819f)" style="fill: none; stroke: #000000; stroke-width: 0.5"/>
    <path d="M 254.165526 157.03994 
L 334.204458 147.462541 
L 330.237874 114.313553 
L 250.198943 123.890951 
L 254.165526 157.03994 
z
" clip-path="url(#pbce641819f)" style="fill: none; stroke: #000000; stroke-width: 0.5"/>
    <path d="M 257.419846 152.884763 
L 337.886883 148.087562 
L 335.90007 114.761269 
L 255.433033 119.558471 
L 257.419846 152.884763 
z
" clip-path="url(#pbce641819f)" style="fill: none; stroke: #000000; stroke-width: 0.5"/>
    <path d="M 260.915699 148.930398 
L 341.525607 148.930398 
L 341.525607 115.544934 
L 260.915699 115.544934 
L 260.915699 148.930398 
z
" clip-path="url(#pbce641819f)" style="fill: none; stroke: #000000; stroke-width: 0.5"/>
   </g>
   <g id="PatchCollection_3">
    <path d="M 133.448915 164.256428 
L 129.454423 163.439014 
L 129.884205 162.69461 
L 114.996123 154.098967 
L 115.425905 153.354563 
L 130.313987 161.950206 
L 130.743769 161.205802 
z
" clip-path="url(#pbce641819f)" style="fill: #ff0000; stroke: #ff0000; stroke-width: 0.24"/>
    <path d="M 136.832341 166.776766 
L 132.855049 165.879392 
L 133.299677 165.143759 
L 118.587007 156.251211 
L 119.031634 155.515577 
L 133.744304 164.408125 
L 134.188932 163.672492 
z
" clip-path="url(#pbce641819f)" style="fill: #ff0000; stroke: #ff0000; stroke-width: 0.24"/>
    <path d="M 140.422568 168.946786 
L 136.445276 168.049413 
L 136.889903 167.31378 
L 122.177233 158.421231 
L 122.621861 157.685598 
L 137.334531 166.578146 
L 137.779158 165.842513 
z
" clip-path="url(#pbce641819f)" style="fill: #ff0000; stroke: #ff0000; stroke-width: 0.24"/>
    <path d="M 144.012795 171.11679 
L 140.035503 170.219417 
L 140.48013 169.483783 
L 125.76746 160.591235 
L 126.212088 159.855601 
L 140.924758 168.74815 
L 141.369385 168.012516 
z
" clip-path="url(#pbce641819f)" style="fill: #ff0000; stroke: #ff0000; stroke-width: 0.24"/>
    <path d="M 147.603021 173.286794 
L 143.625729 172.38942 
L 144.070357 171.653787 
L 129.357687 162.761239 
L 129.802314 162.025605 
L 144.514984 170.918153 
L 144.959612 170.18252 
z
" clip-path="url(#pbce641819f)" style="fill: #ff0000; stroke: #ff0000; stroke-width: 0.24"/>
    <path d="M 151.19342 175.456814 
L 147.216128 174.559441 
L 147.660755 173.823808 
L 132.948085 164.931259 
L 133.392713 164.195626 
L 148.105383 173.088174 
L 148.55001 172.352541 
z
" clip-path="url(#pbce641819f)" style="fill: #ff0000; stroke: #ff0000; stroke-width: 0.24"/>
    <path d="M 154.783647 177.626818 
L 150.806355 176.729445 
L 151.250982 175.993811 
L 136.538312 167.101263 
L 136.98294 166.365629 
L 151.69561 175.258178 
L 152.140237 174.522544 
z
" clip-path="url(#pbce641819f)" style="fill: #ff0000; stroke: #ff0000; stroke-width: 0.24"/>
    <path d="M 158.373873 179.796821 
L 154.396582 178.899448 
L 154.841209 178.163815 
L 140.128539 169.271266 
L 140.573166 168.535633 
L 155.285836 177.428181 
L 155.730464 176.692548 
z
" clip-path="url(#pbce641819f)" style="fill: #ff0000; stroke: #ff0000; stroke-width: 0.24"/>
    <path d="M 161.9641 181.966825 
L 157.986808 181.069452 
L 158.431436 180.333818 
L 143.718766 171.44127 
L 144.163393 170.705637 
L 158.876063 179.598185 
L 159.32069 178.862551 
z
" clip-path="url(#pbce641819f)" style="fill: #ff0000; stroke: #ff0000; stroke-width: 0.24"/>
    <path d="M 165.554327 184.13688 
L 161.577035 183.239507 
L 162.021662 182.503874 
L 147.308992 173.611325 
L 147.75362 172.875692 
L 162.46629 181.76824 
L 162.910917 181.032607 
z
" clip-path="url(#pbce641819f)" style="fill: #ff0000; stroke: #ff0000; stroke-width: 0.24"/>
    <path d="M 169.144725 186.306763 
L 165.167434 185.40939 
L 165.612061 184.673757 
L 150.899391 175.781208 
L 151.344018 175.045575 
L 166.056688 183.938123 
L 166.501316 183.20249 
z
" clip-path="url(#pbce641819f)" style="fill: #ff0000; stroke: #ff0000; stroke-width: 0.24"/>
    <path d="M 172.734952 188.476819 
L 168.75766 187.579445 
L 169.202288 186.843812 
L 154.489618 177.951264 
L 154.934245 177.21563 
L 169.646915 186.108178 
L 170.091543 185.372545 
z
" clip-path="url(#pbce641819f)" style="fill: #ff0000; stroke: #ff0000; stroke-width: 0.24"/>
    <path d="M 176.325179 190.646874 
L 172.347887 189.749501 
L 172.792514 189.013867 
L 158.079844 180.121319 
L 158.524472 179.385685 
L 173.237142 188.278234 
L 173.681769 187.5426 
z
" clip-path="url(#pbce641819f)" style="fill: #ff0000; stroke: #ff0000; stroke-width: 0.24"/>
    <path d="M 179.915406 192.816929 
L 175.938114 191.919556 
L 176.382741 191.183922 
L 161.670071 182.291374 
L 162.114699 181.55574 
L 176.827369 190.448289 
L 177.271996 189.712655 
z
" clip-path="url(#pbce641819f)" style="fill: #ff0000; stroke: #ff0000; stroke-width: 0.24"/>
    <path d="M 183.710561 194.641023 
L 179.717378 193.817235 
L 180.148348 193.073518 
L 165.274003 184.454125 
L 165.704973 183.710407 
L 180.579318 192.329801 
L 181.010287 191.586083 
z
" clip-path="url(#pbce641819f)" style="fill: #ff0000; stroke: #ff0000; stroke-width: 0.24"/>
    <path d="M 187.941026 195.641709 
L 183.909064 195.035569 
L 184.299089 194.269585 
L 168.979426 186.469073 
L 169.369452 185.70309 
L 184.689115 193.503602 
L 185.07914 192.737619 
z
" clip-path="url(#pbce641819f)" style="fill: #ff0000; stroke: #ff0000; stroke-width: 0.24"/>
    <path d="M 192.219467 196.411789 
L 188.160577 196.025078 
L 188.508512 195.23908 
L 172.78857 188.280382 
L 173.136505 187.494385 
L 188.856447 194.453083 
L 189.204382 193.667086 
z
" clip-path="url(#pbce641819f)" style="fill: #ff0000; stroke: #ff0000; stroke-width: 0.24"/>
    <path d="M 194.857529 196.077586 
L 190.78282 195.933108 
L 191.083363 195.127798 
L 174.977163 189.116939 
L 175.277706 188.311629 
L 191.383906 194.322488 
L 191.684449 193.517178 
z
" clip-path="url(#pbce641819f)" style="fill: #ff0000; stroke: #ff0000; stroke-width: 0.24"/>
    <path d="M 199.622018 196.371562 
L 195.545933 196.469833 
L 195.798018 195.648065 
L 179.362648 190.606369 
L 179.614733 189.784601 
L 196.050103 194.826296 
L 196.302187 194.004528 
z
" clip-path="url(#pbce641819f)" style="fill: #ff0000; stroke: #ff0000; stroke-width: 0.24"/>
    <path d="M 204.395418 196.38167 
L 200.332405 196.722339 
L 200.535139 195.887025 
L 183.828862 191.832347 
L 184.031596 190.997034 
L 200.737872 195.051711 
L 200.940606 194.216397 
z
" clip-path="url(#pbce641819f)" style="fill: #ff0000; stroke: #ff0000; stroke-width: 0.24"/>
    <path d="M 209.161085 196.107536 
L 205.125547 196.689394 
L 205.278211 195.843495 
L 188.360247 192.790208 
L 188.512911 191.94431 
L 205.430876 194.997597 
L 205.58354 194.151699 
z
" clip-path="url(#pbce641819f)" style="fill: #ff0000; stroke: #ff0000; stroke-width: 0.24"/>
    <path d="M 213.901945 195.550219 
L 209.908187 196.371208 
L 210.01024 195.517724 
L 192.940554 193.476667 
L 193.042607 192.623183 
L 210.112292 194.66424 
L 210.214345 193.810755 
z
" clip-path="url(#pbce641819f)" style="fill: #ff0000; stroke: #ff0000; stroke-width: 0.24"/>
    <path d="M 218.601173 194.711914 
L 214.663351 195.769121 
L 214.714431 194.911077 
L 197.553533 193.889475 
L 197.604613 193.03143 
L 214.765511 194.053032 
L 214.816591 193.194987 
z
" clip-path="url(#pbce641819f)" style="fill: #ff0000; stroke: #ff0000; stroke-width: 0.24"/>
    <path d="M 223.242215 193.595314 
L 219.374288 194.884992 
L 219.374214 194.025428 
L 202.182935 194.026905 
L 202.182861 193.167341 
L 219.37414 193.165864 
L 219.374066 192.306301 
z
" clip-path="url(#pbce641819f)" style="fill: #ff0000; stroke: #ff0000; stroke-width: 0.24"/>
    <path d="M 227.808607 192.20452 
L 224.024285 193.722097 
L 223.973058 192.864061 
L 206.812336 193.888611 
L 206.761109 193.030575 
L 223.92183 192.006025 
L 223.870603 191.147989 
z
" clip-path="url(#pbce641819f)" style="fill: #ff0000; stroke: #ff0000; stroke-width: 0.24"/>
    <path d="M 232.28415 190.544487 
L 228.596849 192.284585 
L 228.494649 191.431118 
L 211.425315 193.475111 
L 211.323115 192.621644 
L 228.39245 190.577652 
L 228.29025 189.724185 
z
" clip-path="url(#pbce641819f)" style="fill: #ff0000; stroke: #ff0000; stroke-width: 0.24"/>
    <path d="M 236.653083 188.621032 
L 233.075872 190.57748 
L 232.923063 189.731608 
L 216.005621 192.787788 
L 215.852812 191.941916 
L 232.770254 188.885736 
L 232.617445 188.039864 
z
" clip-path="url(#pbce641819f)" style="fill: #ff0000; stroke: #ff0000; stroke-width: 0.24"/>
    <path d="M 240.899556 186.440924 
L 237.445118 188.606791 
L 237.24224 187.771513 
L 220.536661 191.829064 
L 220.333784 190.993785 
L 237.039362 186.936234 
L 236.836485 186.100955 
z
" clip-path="url(#pbce641819f)" style="fill: #ff0000; stroke: #ff0000; stroke-width: 0.24"/>
    <path d="M 245.009027 184.012163 
L 241.689603 186.379768 
L 241.437377 185.558043 
L 225.002875 190.602565 
L 224.750648 189.78084 
L 241.185151 184.736318 
L 240.932925 183.914593 
z
" clip-path="url(#pbce641819f)" style="fill: #ff0000; stroke: #ff0000; stroke-width: 0.24"/>
    <path d="M 248.966501 181.342948 
L 245.793861 183.903902 
L 245.493179 183.098643 
L 229.388014 189.112272 
L 229.087333 188.307014 
L 245.192498 182.293385 
L 244.891816 181.488127 
z
" clip-path="url(#pbce641819f)" style="fill: #ff0000; stroke: #ff0000; stroke-width: 0.24"/>
    <path d="M 252.758121 178.443028 
L 249.743508 181.188249 
L 249.395438 180.402312 
L 233.676693 187.363713 
L 233.328623 186.577776 
L 249.047368 179.616374 
L 248.699298 178.830437 
z
" clip-path="url(#pbce641819f)" style="fill: #ff0000; stroke: #ff0000; stroke-width: 0.24"/>
    <path d="M 256.370456 175.322496 
L 253.524559 178.242257 
L 253.130334 177.478427 
L 237.853734 185.362941 
L 237.459508 184.599111 
L 252.736108 176.714597 
L 252.341882 175.950767 
z
" clip-path="url(#pbce641819f)" style="fill: #ff0000; stroke: #ff0000; stroke-width: 0.24"/>
    <path d="M 259.79071 171.992619 
L 257.123615 175.076567 
L 256.684632 174.337551 
L 241.904321 183.117215 
L 241.465338 182.378199 
L 256.245649 173.598536 
L 255.806666 172.85952 
z
" clip-path="url(#pbce641819f)" style="fill: #ff0000; stroke: #ff0000; stroke-width: 0.24"/>
    <path d="M 263.006716 168.465156 
L 260.52788 171.702362 
L 260.045694 170.990781 
L 245.814074 180.634486 
L 245.331889 179.922905 
L 259.563509 170.2792 
L 259.081324 169.567619 
z
" clip-path="url(#pbce641819f)" style="fill: #ff0000; stroke: #ff0000; stroke-width: 0.24"/>
    <path d="M 266.007109 164.75249 
L 263.725314 168.131475 
L 263.201636 167.449851 
L 249.569144 177.9234 
L 249.045467 177.241775 
L 262.677959 166.768226 
L 262.154282 166.086601 
z
" clip-path="url(#pbce641819f)" style="fill: #ff0000; stroke: #ff0000; stroke-width: 0.24"/>
    <path d="M 268.78123 160.867816 
L 266.704569 164.376607 
L 266.141255 163.727355 
L 253.156225 174.993635 
L 252.592911 174.344384 
L 265.577941 163.078104 
L 265.014627 162.428852 
z
" clip-path="url(#pbce641819f)" style="fill: #ff0000; stroke: #ff0000; stroke-width: 0.24"/>
    <path d="M 271.319273 156.824925 
L 269.455104 160.451081 
L 268.854151 159.836503 
L 256.5626 171.855565 
L 255.961647 171.240988 
L 268.253198 159.221926 
L 267.652244 158.607348 
z
" clip-path="url(#pbce641819f)" style="fill: #ff0000; stroke: #ff0000; stroke-width: 0.24"/>
    <path d="M 273.612197 152.638264 
L 271.967131 156.368932 
L 271.330668 155.791208 
L 259.776179 168.52046 
L 259.139716 167.942735 
L 270.694205 155.213483 
L 270.057743 154.635759 
z
" clip-path="url(#pbce641819f)" style="fill: #ff0000; stroke: #ff0000; stroke-width: 0.24"/>
    <path d="M 275.651917 148.322514 
L 274.231781 152.144469 
L 273.562066 151.605645 
L 262.785584 164.999954 
L 262.115868 164.46113 
L 272.892351 151.066821 
L 272.222635 150.527997 
z
" clip-path="url(#pbce641819f)" style="fill: #ff0000; stroke: #ff0000; stroke-width: 0.24"/>
    <path d="M 278.487276 144.692181 
L 277.066812 148.514014 
L 276.397143 147.975132 
L 265.619508 161.368514 
L 264.949839 160.829632 
L 275.727474 147.436251 
L 275.057805 146.897369 
z
" clip-path="url(#pbce641819f)" style="fill: #ff0000; stroke: #ff0000; stroke-width: 0.24"/>
    <path d="M 282.433352 142.006159 
L 280.787965 145.736686 
L 280.151552 145.158907 
L 268.595968 157.887165 
L 267.959555 157.309386 
L 279.515139 144.581128 
L 278.878726 144.003348 
z
" clip-path="url(#pbce641819f)" style="fill: #ff0000; stroke: #ff0000; stroke-width: 0.24"/>
    <path d="M 286.532311 139.559748 
L 284.66783 143.185743 
L 284.06693 142.571114 
L 271.774345 154.589119 
L 271.173445 153.97449 
L 283.46603 141.956485 
L 282.865129 141.341856 
z
" clip-path="url(#pbce641819f)" style="fill: #ff0000; stroke: #ff0000; stroke-width: 0.24"/>
    <path d="M 290.769458 137.361589 
L 288.692495 140.8702 
L 288.129237 140.2209 
L 275.143238 151.486064 
L 274.57998 150.836764 
L 287.565979 139.5716 
L 287.002721 138.9223 
z
" clip-path="url(#pbce641819f)" style="fill: #ff0000; stroke: #ff0000; stroke-width: 0.24"/>
    <path d="M 295.130049 135.419501 
L 292.847964 138.79829 
L 292.324345 138.116621 
L 278.690952 148.588997 
L 278.167334 147.907327 
L 291.800727 137.434951 
L 291.277108 136.753281 
z
" clip-path="url(#pbce641819f)" style="fill: #ff0000; stroke: #ff0000; stroke-width: 0.24"/>
    <path d="M 299.598527 133.740358 
L 297.119412 136.97735 
L 296.637288 136.265728 
L 282.404839 145.908209 
L 281.922714 145.196587 
L 296.155164 135.554105 
L 295.67304 134.842483 
z
" clip-path="url(#pbce641819f)" style="fill: #ff0000; stroke: #ff0000; stroke-width: 0.24"/>
    <path d="M 304.158905 132.330114 
L 301.491545 135.413832 
L 301.052625 134.674779 
L 286.27156 143.453171 
L 285.83264 142.714118 
L 300.613706 133.935725 
L 300.174786 133.196672 
z
" clip-path="url(#pbce641819f)" style="fill: #ff0000; stroke: #ff0000; stroke-width: 0.24"/>
    <path d="M 308.795198 131.193748 
L 305.94905 134.113264 
L 305.55489 133.3494 
L 290.277612 141.232601 
L 289.883452 140.468737 
L 305.16073 132.585536 
L 304.76657 131.821672 
z
" clip-path="url(#pbce641819f)" style="fill: #ff0000; stroke: #ff0000; stroke-width: 0.24"/>
    <path d="M 313.49083 130.335319 
L 310.475981 133.080281 
L 310.127978 132.294314 
L 294.408634 139.254364 
L 294.060632 138.468397 
L 309.779976 131.508347 
L 309.431973 130.722379 
z
" clip-path="url(#pbce641819f)" style="fill: #ff0000; stroke: #ff0000; stroke-width: 0.24"/>
    <path d="M 318.22925 129.757845 
L 315.05639 132.318526 
L 314.755778 131.513242 
L 298.650095 137.525485 
L 298.349483 136.720201 
L 314.455166 130.707958 
L 314.154554 129.902674 
z
" clip-path="url(#pbce641819f)" style="fill: #ff0000; stroke: #ff0000; stroke-width: 0.24"/>
    <path d="M 322.99367 129.463387 
L 319.674042 131.830707 
L 319.421887 131.00896 
L 302.986951 136.052069 
L 302.734795 135.230322 
L 319.169732 130.187213 
L 318.917576 129.365467 
z
" clip-path="url(#pbce641819f)" style="fill: #ff0000; stroke: #ff0000; stroke-width: 0.24"/>
    <path d="M 327.767173 129.453078 
L 324.312548 131.618649 
L 324.109742 130.783352 
L 307.403815 134.839466 
L 307.201009 134.00417 
L 323.906937 129.948056 
L 323.704131 129.112759 
z
" clip-path="url(#pbce641819f)" style="fill: #ff0000; stroke: #ff0000; stroke-width: 0.24"/>
    <path d="M 332.532778 129.726695 
L 328.955399 131.682836 
L 328.802663 130.836951 
L 311.884958 133.891676 
L 311.732222 133.045791 
L 328.649926 129.991066 
L 328.49719 129.145181 
z
" clip-path="url(#pbce641819f)" style="fill: #ff0000; stroke: #ff0000; stroke-width: 0.24"/>
    <path d="M 337.273741 130.28346 
L 333.586291 132.023241 
L 333.484164 131.169765 
L 316.414654 133.21229 
L 316.312528 132.358815 
L 333.382038 130.31629 
L 333.279912 129.462814 
z
" clip-path="url(#pbce641819f)" style="fill: #ff0000; stroke: #ff0000; stroke-width: 0.24"/>
    <path d="M 341.973076 131.121585 
L 338.188625 132.638838 
L 338.137471 131.780797 
L 320.976661 132.803873 
L 320.925507 131.945832 
L 338.086317 130.922757 
L 338.035163 130.064716 
z
" clip-path="url(#pbce641819f)" style="fill: #ff0000; stroke: #ff0000; stroke-width: 0.24"/>
    <path d="M 346.614225 132.237666 
L 342.746188 133.527012 
L 342.746188 132.667448 
L 325.554909 132.667448 
L 325.554909 131.807884 
L 342.746188 131.807884 
L 342.746188 130.94832 
z
" clip-path="url(#pbce641819f)" style="fill: #ff0000; stroke: #ff0000; stroke-width: 0.24"/>
   </g>
   <g id="matplotlib.axis_1">
    <g id="xtick_1">
     <g id="line2d_1">
      <defs>
       <path id="m828617d45f" d="M 0 0 
L 0 -3 
" style="stroke: #000000"/>
      </defs>
      <g>
       <use xlink:href="#m828617d45f" x="80.828456" y="244.749518" style="stroke: #000000"/>
      </g>
     </g>
     <g id="text_1">
      <!-- −10 -->
      <g transform="translate(69.748495 258.327877) scale(0.105 -0.105)">
       <defs>
        <path id="DejaVuSans-2212" d="M 678 2272 
L 4684 2272 
L 4684 1741 
L 678 1741 
L 678 2272 
z
" transform="scale(0.015625)"/>
        <path id="DejaVuSans-31" d="M 794 531 
L 1825 531 
L 1825 4091 
L 703 3866 
L 703 4441 
L 1819 4666 
L 2450 4666 
L 2450 531 
L 3481 531 
L 3481 0 
L 794 0 
L 794 531 
z
" transform="scale(0.015625)"/>
        <path id="DejaVuSans-30" d="M 2034 4250 
Q 1547 4250 1301 3770 
Q 1056 3291 1056 2328 
Q 1056 1369 1301 889 
Q 1547 409 2034 409 
Q 2525 409 2770 889 
Q 3016 1369 3016 2328 
Q 3016 3291 2770 3770 
Q 2525 4250 2034 4250 
z
M 2034 4750 
Q 2819 4750 3233 4129 
Q 3647 3509 3647 2328 
Q 3647 1150 3233 529 
Q 2819 -91 2034 -91 
Q 1250 -91 836 529 
Q 422 1150 422 2328 
Q 422 3509 836 4129 
Q 1250 4750 2034 4750 
z
" transform="scale(0.015625)"/>
       </defs>
       <use xlink:href="#DejaVuSans-2212"/>
       <use xlink:href="#DejaVuSans-31" x="83.789062"/>
       <use xlink:href="#DejaVuSans-30" x="147.412109"/>
      </g>
     </g>
    </g>
    <g id="xtick_2">
     <g id="line2d_2">
      <g>
       <use xlink:href="#m828617d45f" x="166.784851" y="244.749518" style="stroke: #000000"/>
      </g>
     </g>
     <g id="text_2">
      <!-- −5 -->
      <g transform="translate(159.045203 258.327877) scale(0.105 -0.105)">
       <defs>
        <path id="DejaVuSans-35" d="M 691 4666 
L 3169 4666 
L 3169 4134 
L 1269 4134 
L 1269 2991 
Q 1406 3038 1543 3061 
Q 1681 3084 1819 3084 
Q 2600 3084 3056 2656 
Q 3513 2228 3513 1497 
Q 3513 744 3044 326 
Q 2575 -91 1722 -91 
Q 1428 -91 1123 -41 
Q 819 9 494 109 
L 494 744 
Q 775 591 1075 516 
Q 1375 441 1709 441 
Q 2250 441 2565 725 
Q 2881 1009 2881 1497 
Q 2881 1984 2565 2268 
Q 2250 2553 1709 2553 
Q 1456 2553 1204 2497 
Q 953 2441 691 2322 
L 691 4666 
z
" transform="scale(0.015625)"/>
       </defs>
       <use xlink:href="#DejaVuSans-2212"/>
       <use xlink:href="#DejaVuSans-35" x="83.789062"/>
      </g>
     </g>
    </g>
    <g id="xtick_3">
     <g id="line2d_3">
      <g>
       <use xlink:href="#m828617d45f" x="252.741246" y="244.749518" style="stroke: #000000"/>
      </g>
     </g>
     <g id="text_3">
      <!-- 0 -->
      <g transform="translate(249.400934 258.327877) scale(0.105 -0.105)">
       <use xlink:href="#DejaVuSans-30"/>
      </g>
     </g>
    </g>
    <g id="xtick_4">
     <g id="line2d_4">
      <g>
       <use xlink:href="#m828617d45f" x="338.697641" y="244.749518" style="stroke: #000000"/>
      </g>
     </g>
     <g id="text_4">
      <!-- 5 -->
      <g transform="translate(335.357329 258.327877) scale(0.105 -0.105)">
       <use xlink:href="#DejaVuSans-35"/>
      </g>
     </g>
    </g>
    <g id="xtick_5">
     <g id="line2d_5">
      <g>
       <use xlink:href="#m828617d45f" x="424.654037" y="244.749518" style="stroke: #000000"/>
      </g>
     </g>
     <g id="text_5">
      <!-- 10 -->
      <g transform="translate(417.973412 258.327877) scale(0.105 -0.105)">
       <use xlink:href="#DejaVuSans-31"/>
       <use xlink:href="#DejaVuSans-30" x="63.623047"/>
      </g>
     </g>
    </g>
   </g>
   <g id="matplotlib.axis_2">
    <g id="ytick_1">
     <g id="line2d_6">
      <defs>
       <path id="m73c3466d74" d="M 0 0 
L 3 0 
" style="stroke: #000000"/>
      </defs>
      <g>
       <use xlink:href="#m73c3466d74" x="31.88" y="222.491881" style="stroke: #000000"/>
      </g>
     </g>
     <g id="text_6">
      <!-- −4 -->
      <g transform="translate(10.800703 226.481061) scale(0.105 -0.105)">
       <defs>
        <path id="DejaVuSans-34" d="M 2419 4116 
L 825 1625 
L 2419 1625 
L 2419 4116 
z
M 2253 4666 
L 3047 4666 
L 3047 1625 
L 3713 1625 
L 3713 1100 
L 3047 1100 
L 3047 0 
L 2419 0 
L 2419 1100 
L 313 1100 
L 313 1709 
L 2253 4666 
z
" transform="scale(0.015625)"/>
       </defs>
       <use xlink:href="#DejaVuSans-2212"/>
       <use xlink:href="#DejaVuSans-34" x="83.789062"/>
      </g>
     </g>
    </g>
    <g id="ytick_2">
     <g id="line2d_7">
      <g>
       <use xlink:href="#m73c3466d74" x="31.88" y="188.109323" style="stroke: #000000"/>
      </g>
     </g>
     <g id="text_7">
      <!-- −2 -->
      <g transform="translate(10.800703 192.098503) scale(0.105 -0.105)">
       <defs>
        <path id="DejaVuSans-32" d="M 1228 531 
L 3431 531 
L 3431 0 
L 469 0 
L 469 531 
Q 828 903 1448 1529 
Q 2069 2156 2228 2338 
Q 2531 2678 2651 2914 
Q 2772 3150 2772 3378 
Q 2772 3750 2511 3984 
Q 2250 4219 1831 4219 
Q 1534 4219 1204 4116 
Q 875 4013 500 3803 
L 500 4441 
Q 881 4594 1212 4672 
Q 1544 4750 1819 4750 
Q 2544 4750 2975 4387 
Q 3406 4025 3406 3419 
Q 3406 3131 3298 2873 
Q 3191 2616 2906 2266 
Q 2828 2175 2409 1742 
Q 1991 1309 1228 531 
z
" transform="scale(0.015625)"/>
       </defs>
       <use xlink:href="#DejaVuSans-2212"/>
       <use xlink:href="#DejaVuSans-32" x="83.789062"/>
      </g>
     </g>
    </g>
    <g id="ytick_3">
     <g id="line2d_8">
      <g>
       <use xlink:href="#m73c3466d74" x="31.88" y="153.726765" style="stroke: #000000"/>
      </g>
     </g>
     <g id="text_8">
      <!-- 0 -->
      <g transform="translate(19.599375 157.715945) scale(0.105 -0.105)">
       <use xlink:href="#DejaVuSans-30"/>
      </g>
     </g>
    </g>
    <g id="ytick_4">
     <g id="line2d_9">
      <g>
       <use xlink:href="#m73c3466d74" x="31.88" y="119.344207" style="stroke: #000000"/>
      </g>
     </g>
     <g id="text_9">
      <!-- 2 -->
      <g transform="translate(19.599375 123.333387) scale(0.105 -0.105)">
       <use xlink:href="#DejaVuSans-32"/>
      </g>
     </g>
    </g>
    <g id="ytick_5">
     <g id="line2d_10">
      <g>
       <use xlink:href="#m73c3466d74" x="31.88" y="84.961649" style="stroke: #000000"/>
      </g>
     </g>
     <g id="text_10">
      <!-- 4 -->
      <g transform="translate(19.599375 88.950829) scale(0.105 -0.105)">
       <use xlink:href="#DejaVuSans-34"/>
      </g>
     </g>
    </g>
   </g>
   <g id="patch_3">
    <path d="M 31.88 244.749518 
L 31.88 72.050482 
" style="fill: none; stroke: #000000; stroke-width: 0.8; stroke-linejoin: miter; stroke-linecap: square"/>
   </g>
   <g id="patch_4">
    <path d="M 450 244.749518 
L 450 72.050482 
" style="fill: none; stroke: #000000; stroke-width: 0.8; stroke-linejoin: miter; stroke-linecap: square"/>
   </g>
   <g id="patch_5">
    <path d="M 31.88 244.749518 
L 450 244.749518 
" style="fill: none; stroke: #000000; stroke-width: 0.8; stroke-linejoin: miter; stroke-linecap: square"/>
   </g>
   <g id="patch_6">
    <path d="M 31.88 72.050482 
L 450 72.050482 
" style="fill: none; stroke: #000000; stroke-width: 0.8; stroke-linejoin: miter; stroke-linecap: square"/>
   </g>
  </g>
 </g>
 <defs>
  <clipPath id="pbce641819f">
   <rect x="31.88" y="72.050482" width="418.12" height="172.699036"/>
  </clipPath>
 </defs>
</svg>
