<?xml version="1.0" encoding="utf-8" standalone="no"?>
<!DOCTYPE svg PUBLIC "-//W3C//DTD SVG 1.1//EN"
  "http://www.w3.org/Graphics/SVG/1.1/DTD/svg11.dtd">
<svg xmlns:xlink="http://www.w3.org/1999/xlink" width="460.8pt" height="316.8pt" viewBox="0 0 460.8 316.8" xmlns="http://www.w3.org/2000/svg" version="1.1">
 <metadata>
  <rdf:RDF xmlns:dc="http://purl.org/dc/elements/1.1/" xmlns:cc="http://creativecommons.org/ns#" xmlns:rdf="http://www.w3.org/1999/02/22-rdf-syntax-ns#">
   <cc:Work>
    <dc:type rdf:resource="http://purl.org/dc/dcmitype/StillImage"/>
    <dc:date>2024-01-11T15:52:32.389780</dc:date>
    <dc:format>image/svg+xml</dc:format>
    <dc:creator>
     <cc:Agent>
      <dc:title>Matplotlib v3.7.2, https://matplotlib.org/</dc:title>
     </cc:Agent>
    </dc:creator>
   </cc:Work>
  </rdf:RDF>
 </metadata>
 <defs>
  <style type="text/css">*{stroke-linejoin: round; stroke-linecap: butt}</style>
 </defs>
 <g id="figure_1">
  <g id="patch_1">
   <path d="M 0 316.8 
L 460.8 316.8 
L 460.8 0 
L 0 0 
z
" style="fill: #ffffff"/>
  </g>
  <g id="axes_1">
   <g id="patch_2">
    <path d="M 72.18257 290.32 
L 388.61743 290.32 
L 388.61743 10.8 
L 72.18257 10.8 
z
" style="fill: #ffffff"/>
   </g>
   <g id="PatchCollection_1">
    <path d="M 281.496541 153.927699 
L 331.427526 153.927699 
L 331.427526 34.093333 
L 281.496541 34.093333 
z
" clip-path="url(#paf2d63c200)" style="fill: #ffffff; stroke: #0000ff; stroke-width: 3"/>
    <path d="M 237.557273 145.938741 
L 276.343663 145.938741 
L 276.343663 52.288184 
L 237.557273 52.288184 
z
" clip-path="url(#paf2d63c200)" style="fill: #ff0000; stroke: #ff0000; stroke-width: 2"/>
    <path d="M 327.433047 147.93598 
L 366.071843 151.316437 
L 374.234027 58.022249 
L 335.595231 54.641793 
z
" clip-path="url(#paf2d63c200)" style="fill: #ff0000; stroke: #ff0000; stroke-width: 2"/>
   </g>
   <g id="PatchCollection_2">
    <path d="M 86.565973 213.265682 
L 180.21653 213.265682 
L 180.21653 174.479292 
L 86.565973 174.479292 
L 86.565973 213.265682 
z
" clip-path="url(#paf2d63c200)" style="fill: none; stroke: #000000; stroke-width: 0.5"/>
    <path d="M 89.940092 209.834881 
L 183.488431 214.209242 
L 185.30012 175.465187 
L 91.751781 171.090826 
L 89.940092 209.834881 
z
" clip-path="url(#paf2d63c200)" style="fill: none; stroke: #000000; stroke-width: 0.5"/>
    <path d="M 93.470954 206.565577 
L 186.712863 215.30475 
L 190.332286 176.687607 
L 97.090377 167.948433 
L 93.470954 206.565577 
z
" clip-path="url(#paf2d63c200)" style="fill: none; stroke: #000000; stroke-width: 0.5"/>
    <path d="M 97.150411 203.464567 
L 189.882349 216.549457 
L 195.301597 178.143523 
L 102.569659 165.058633 
L 97.150411 203.464567 
z
" clip-path="url(#paf2d63c200)" style="fill: none; stroke: #000000; stroke-width: 0.5"/>
    <path d="M 100.970938 200.538812 
L 192.990464 217.940928 
L 200.197738 179.830047 
L 108.178212 162.427932 
L 100.970938 200.538812 
z
" clip-path="url(#paf2d63c200)" style="fill: none; stroke: #000000; stroke-width: 0.5"/>
    <path d="M 104.923865 197.794932 
L 196.03012 219.476194 
L 205.009649 181.743555 
L 113.903394 160.062293 
L 104.923865 197.794932 
z
" clip-path="url(#paf2d63c200)" style="fill: none; stroke: #000000; stroke-width: 0.5"/>
    <path d="M 109.000532 195.238556 
L 198.994637 221.151636 
L 209.726819 183.879605 
L 119.732714 157.966526 
L 109.000532 195.238556 
z
" clip-path="url(#paf2d63c200)" style="fill: none; stroke: #000000; stroke-width: 0.5"/>
    <path d="M 113.192321 192.875321 
L 201.877798 222.963741 
L 214.339242 186.233693 
L 125.653766 156.145273 
L 113.192321 192.875321 
z
" clip-path="url(#paf2d63c200)" style="fill: none; stroke: #000000; stroke-width: 0.5"/>
    <path d="M 117.489835 190.710485 
L 204.673115 224.908474 
L 218.836582 188.800577 
L 131.653302 154.602588 
L 117.489835 190.710485 
z
" clip-path="url(#paf2d63c200)" style="fill: none; stroke: #000000; stroke-width: 0.5"/>
    <path d="M 121.883729 188.74877 
L 207.374459 226.981763 
L 223.209066 191.574854 
L 137.718336 153.341861 
L 121.883729 188.74877 
z
" clip-path="url(#paf2d63c200)" style="fill: none; stroke: #000000; stroke-width: 0.5"/>
    <path d="M 125.425376 192.35543 
L 211.841544 228.447985 
L 226.789666 192.657795 
L 140.373498 156.56524 
L 125.425376 192.35543 
z
" clip-path="url(#paf2d63c200)" style="fill: none; stroke: #000000; stroke-width: 0.5"/>
    <path d="M 128.904773 197.480664 
L 216.912501 229.497325 
L 230.172547 193.047974 
L 142.164819 161.031313 
L 128.904773 197.480664 
z
" clip-path="url(#paf2d63c200)" style="fill: none; stroke: #000000; stroke-width: 0.5"/>
    <path d="M 132.619613 202.437937 
L 222.02675 230.3089 
L 233.56981 193.279968 
L 144.162673 165.409005 
L 132.619613 202.437937 
z
" clip-path="url(#paf2d63c200)" style="fill: none; stroke: #000000; stroke-width: 0.5"/>
    <path d="M 136.562072 207.216116 
L 227.173473 230.880451 
L 236.974313 193.352761 
L 146.362912 169.688426 
L 136.562072 207.216116 
z
" clip-path="url(#paf2d63c200)" style="fill: none; stroke: #000000; stroke-width: 0.5"/>
    <path d="M 140.723373 211.804944 
L 232.341212 231.211082 
L 240.378474 193.266564 
L 148.760635 173.860426 
L 140.723373 211.804944 
z
" clip-path="url(#paf2d63c200)" style="fill: none; stroke: #000000; stroke-width: 0.5"/>
    <path d="M 145.094561 216.19459 
L 237.518844 231.30017 
L 243.774983 193.021655 
L 151.3507 177.916075 
L 145.094561 216.19459 
z
" clip-path="url(#paf2d63c200)" style="fill: none; stroke: #000000; stroke-width: 0.5"/>
    <path d="M 149.665927 220.375044 
L 242.69491 231.146997 
L 247.156231 192.618039 
L 154.127248 181.846085 
L 149.665927 220.375044 
z
" clip-path="url(#paf2d63c200)" style="fill: none; stroke: #000000; stroke-width: 0.5"/>
    <path d="M 154.427766 224.337499 
L 247.85836 230.752396 
L 250.515159 192.057106 
L 157.084565 185.64221 
L 154.427766 224.337499 
z
" clip-path="url(#paf2d63c200)" style="fill: none; stroke: #000000; stroke-width: 0.5"/>
    <path d="M 159.369237 228.073242 
L 252.997489 230.11705 
L 253.843954 191.339898 
L 160.215702 189.296091 
L 159.369237 228.073242 
z
" clip-path="url(#paf2d63c200)" style="fill: none; stroke: #000000; stroke-width: 0.5"/>
    <path d="M 164.479921 231.573918 
L 258.101445 229.242166 
L 257.135725 190.467801 
L 163.514201 192.799552 
L 164.479921 231.573918 
z
" clip-path="url(#paf2d63c200)" style="fill: none; stroke: #000000; stroke-width: 0.5"/>
    <path d="M 169.748637 234.832253 
L 263.15906 228.130041 
L 260.383267 189.443106 
L 166.972844 196.145317 
L 169.748637 234.832253 
z
" clip-path="url(#paf2d63c200)" style="fill: none; stroke: #000000; stroke-width: 0.5"/>
    <path d="M 175.16366 237.840915 
L 268.159069 226.782856 
L 263.579254 188.267803 
L 170.583845 199.325862 
L 175.16366 237.840915 
z
" clip-path="url(#paf2d63c200)" style="fill: none; stroke: #000000; stroke-width: 0.5"/>
    <path d="M 180.713284 240.593209 
L 273.090681 225.203496 
L 266.716865 186.944399 
L 174.339468 202.334112 
L 180.713284 240.593209 
z
" clip-path="url(#paf2d63c200)" style="fill: none; stroke: #000000; stroke-width: 0.5"/>
    <path d="M 186.385531 243.083542 
L 277.943244 223.395679 
L 269.789303 185.476063 
L 178.23159 205.163926 
L 186.385531 243.083542 
z
" clip-path="url(#paf2d63c200)" style="fill: none; stroke: #000000; stroke-width: 0.5"/>
    <path d="M 192.167769 245.306019 
L 282.70595 221.363076 
L 272.789722 183.865711 
L 182.251541 207.808654 
L 192.167769 245.306019 
z
" clip-path="url(#paf2d63c200)" style="fill: none; stroke: #000000; stroke-width: 0.5"/>
    <path d="M 198.047555 247.255921 
L 287.368566 219.110163 
L 275.711696 182.116902 
L 186.390685 210.26266 
L 198.047555 247.255921 
z
" clip-path="url(#paf2d63c200)" style="fill: none; stroke: #000000; stroke-width: 0.5"/>
    <path d="M 204.012054 248.929102 
L 291.920882 216.641881 
L 278.548781 180.23349 
L 190.639952 212.520711 
L 204.012054 248.929102 
z
" clip-path="url(#paf2d63c200)" style="fill: none; stroke: #000000; stroke-width: 0.5"/>
    <path d="M 210.048149 250.322016 
L 296.352924 213.963902 
L 281.294818 178.219847 
L 194.990043 214.577961 
L 210.048149 250.322016 
z
" clip-path="url(#paf2d63c200)" style="fill: none; stroke: #000000; stroke-width: 0.5"/>
    <path d="M 216.142754 251.431384 
L 300.65504 211.081659 
L 283.943765 176.079983 
L 199.43148 216.429708 
L 216.142754 251.431384 
z
" clip-path="url(#paf2d63c200)" style="fill: none; stroke: #000000; stroke-width: 0.5"/>
    <path d="M 222.282483 252.254703 
L 304.817831 208.001534 
L 286.489903 173.818628 
L 203.954555 218.071797 
L 222.282483 252.254703 
z
" clip-path="url(#paf2d63c200)" style="fill: none; stroke: #000000; stroke-width: 0.5"/>
    <path d="M 228.453974 252.790489 
L 308.832217 204.730477 
L 288.927644 171.440959 
L 208.549401 219.500971 
L 228.453974 252.790489 
z
" clip-path="url(#paf2d63c200)" style="fill: none; stroke: #000000; stroke-width: 0.5"/>
    <path d="M 227.602674 257.476164 
L 305.648301 205.714142 
L 284.210501 173.390703 
L 206.164874 225.152725 
L 227.602674 257.476164 
z
" clip-path="url(#paf2d63c200)" style="fill: none; stroke: #000000; stroke-width: 0.5"/>
    <path d="M 226.90862 262.23762 
L 302.45131 206.886662 
L 279.527113 175.59984 
L 203.984422 230.950799 
L 226.90862 262.23762 
z
" clip-path="url(#paf2d63c200)" style="fill: none; stroke: #000000; stroke-width: 0.5"/>
    <path d="M 226.437778 267.026667 
L 299.312571 208.207525 
L 274.951988 178.025643 
L 202.077196 236.844784 
L 226.437778 267.026667 
z
" clip-path="url(#paf2d63c200)" style="fill: none; stroke: #000000; stroke-width: 0.5"/>
    <path d="M 231.533734 266.534528 
L 302.083402 204.945803 
L 276.575767 175.726896 
L 206.026098 237.315621 
L 231.533734 266.534528 
z
" clip-path="url(#paf2d63c200)" style="fill: none; stroke: #000000; stroke-width: 0.5"/>
    <path d="M 236.606885 265.84611 
L 304.726239 201.579631 
L 278.109582 173.367265 
L 209.990228 237.633744 
L 236.606885 265.84611 
z
" clip-path="url(#paf2d63c200)" style="fill: none; stroke: #000000; stroke-width: 0.5"/>
    <path d="M 241.64969 264.962357 
L 307.237163 198.113946 
L 279.551171 170.950185 
L 213.963698 237.798597 
L 241.64969 264.962357 
z
" clip-path="url(#paf2d63c200)" style="fill: none; stroke: #000000; stroke-width: 0.5"/>
    <path d="M 246.65461 263.884559 
L 309.61241 194.553887 
L 280.898364 168.479234 
L 217.940563 237.809906 
L 246.65461 263.884559 
z
" clip-path="url(#paf2d63c200)" style="fill: none; stroke: #000000; stroke-width: 0.5"/>
    <path d="M 251.614253 262.614587 
L 311.848439 190.904967 
L 282.149125 165.958329 
L 221.91494 237.667949 
L 251.614253 262.614587 
z
" clip-path="url(#paf2d63c200)" style="fill: none; stroke: #000000; stroke-width: 0.5"/>
    <path d="M 256.521103 261.153765 
L 313.941934 187.172179 
L 283.301661 163.390722 
L 225.880831 237.372308 
L 256.521103 261.153765 
z
" clip-path="url(#paf2d63c200)" style="fill: none; stroke: #000000; stroke-width: 0.5"/>
    <path d="M 261.36789 259.504674 
L 315.88975 183.36143 
L 284.354203 160.780613 
L 229.832343 236.923856 
L 261.36789 259.504674 
z
" clip-path="url(#paf2d63c200)" style="fill: none; stroke: #000000; stroke-width: 0.5"/>
    <path d="M 266.147404 257.669819 
L 317.689 179.478447 
L 285.305199 158.131938 
L 233.763603 236.32331 
L 266.147404 257.669819 
z
" clip-path="url(#paf2d63c200)" style="fill: none; stroke: #000000; stroke-width: 0.5"/>
    <path d="M 270.852811 255.651755 
L 319.336975 175.528646 
L 286.153124 155.448406 
L 237.66896 235.571515 
L 270.852811 255.651755 
z
" clip-path="url(#paf2d63c200)" style="fill: none; stroke: #000000; stroke-width: 0.5"/>
    <path d="M 275.476061 253.453404 
L 320.831307 171.518501 
L 286.897081 152.734136 
L 241.541836 234.66904 
L 275.476061 253.453404 
z
" clip-path="url(#paf2d63c200)" style="fill: none; stroke: #000000; stroke-width: 0.5"/>
    <path d="M 280.011732 251.078378 
L 322.169618 167.453385 
L 287.535424 149.993241 
L 245.377538 233.618234 
L 280.011732 251.078378 
z
" clip-path="url(#paf2d63c200)" style="fill: none; stroke: #000000; stroke-width: 0.5"/>
    <path d="M 284.451573 248.529756 
L 323.350082 163.339776 
L 288.067731 147.229538 
L 249.169223 232.419519 
L 284.451573 248.529756 
z
" clip-path="url(#paf2d63c200)" style="fill: none; stroke: #000000; stroke-width: 0.5"/>
    <path d="M 288.790469 245.811849 
L 324.370753 159.183504 
L 288.492689 144.447545 
L 252.912405 231.07589 
L 288.790469 245.811849 
z
" clip-path="url(#paf2d63c200)" style="fill: none; stroke: #000000; stroke-width: 0.5"/>
    <path d="M 293.021213 242.928449 
L 325.230211 154.990931 
L 288.809938 141.651226 
L 256.60094 229.588745 
L 293.021213 242.928449 
z
" clip-path="url(#paf2d63c200)" style="fill: none; stroke: #000000; stroke-width: 0.5"/>
    <path d="M 297.136656 239.88378 
L 325.927226 150.768518 
L 289.019178 138.844593 
L 260.228608 227.959854 
L 297.136656 239.88378 
z
" clip-path="url(#paf2d63c200)" style="fill: none; stroke: #000000; stroke-width: 0.5"/>
    <path d="M 301.132396 236.682563 
L 326.460722 146.522136 
L 289.119807 136.032136 
L 263.791481 226.192563 
L 301.132396 236.682563 
z
" clip-path="url(#paf2d63c200)" style="fill: none; stroke: #000000; stroke-width: 0.5"/>
    <path d="M 305.00156 233.32944 
L 326.829869 142.258305 
L 289.111774 133.217875 
L 267.283465 224.28901 
L 305.00156 233.32944 
z
" clip-path="url(#paf2d63c200)" style="fill: none; stroke: #000000; stroke-width: 0.5"/>
    <path d="M 308.737508 229.829482 
L 327.034166 137.983639 
L 288.995217 130.40588 
L 270.698559 222.251724 
L 308.737508 229.829482 
z
" clip-path="url(#paf2d63c200)" style="fill: none; stroke: #000000; stroke-width: 0.5"/>
    <path d="M 312.336329 226.187855 
L 327.073139 133.704056 
L 288.769974 127.600646 
L 274.033164 220.084446 
L 312.336329 226.187855 
z
" clip-path="url(#paf2d63c200)" style="fill: none; stroke: #000000; stroke-width: 0.5"/>
    <path d="M 315.791026 222.410088 
L 326.946941 129.426367 
L 288.436729 124.806024 
L 277.280814 217.789745 
L 315.791026 222.410088 
z
" clip-path="url(#paf2d63c200)" style="fill: none; stroke: #000000; stroke-width: 0.5"/>
    <path d="M 319.098305 218.501629 
L 326.655762 125.156508 
L 287.995872 122.026505 
L 280.438415 215.371626 
L 319.098305 218.501629 
z
" clip-path="url(#paf2d63c200)" style="fill: none; stroke: #000000; stroke-width: 0.5"/>
    <path d="M 322.251979 214.468424 
L 326.199709 120.901111 
L 287.447795 119.266116 
L 283.500065 212.833429 
L 322.251979 214.468424 
z
" clip-path="url(#paf2d63c200)" style="fill: none; stroke: #000000; stroke-width: 0.5"/>
    <path d="M 325.144117 210.342758 
L 325.605469 116.693338 
L 286.81955 116.502265 
L 286.358198 210.151685 
L 325.144117 210.342758 
z
" clip-path="url(#paf2d63c200)" style="fill: none; stroke: #000000; stroke-width: 0.5"/>
    <path d="M 325.161294 206.872076 
L 325.622645 113.222655 
L 286.836726 113.031582 
L 286.375375 206.681002 
L 325.161294 206.872076 
z
" clip-path="url(#paf2d63c200)" style="fill: none; stroke: #000000; stroke-width: 0.5"/>
    <path d="M 325.17827 203.401473 
L 325.639621 109.752052 
L 286.853702 109.560979 
L 286.392351 203.210399 
L 325.17827 203.401473 
z
" clip-path="url(#paf2d63c200)" style="fill: none; stroke: #000000; stroke-width: 0.5"/>
    <path d="M 325.195446 199.93087 
L 325.656798 106.281449 
L 286.870879 106.090376 
L 286.409527 199.739796 
L 325.195446 199.93087 
z
" clip-path="url(#paf2d63c200)" style="fill: none; stroke: #000000; stroke-width: 0.5"/>
    <path d="M 325.212423 196.460267 
L 325.673774 102.810847 
L 286.887855 102.619773 
L 286.426504 196.269193 
L 325.212423 196.460267 
z
" clip-path="url(#paf2d63c200)" style="fill: none; stroke: #000000; stroke-width: 0.5"/>
    <path d="M 325.229599 192.989664 
L 325.69095 99.340244 
L 286.905032 99.14917 
L 286.44368 192.79859 
L 325.229599 192.989664 
z
" clip-path="url(#paf2d63c200)" style="fill: none; stroke: #000000; stroke-width: 0.5"/>
    <path d="M 325.246775 189.519061 
L 325.708127 95.869641 
L 286.922208 95.678567 
L 286.460856 189.327987 
L 325.246775 189.519061 
z
" clip-path="url(#paf2d63c200)" style="fill: none; stroke: #000000; stroke-width: 0.5"/>
    <path d="M 325.263752 186.048458 
L 325.725103 92.399038 
L 286.939184 92.207964 
L 286.477833 185.857384 
L 325.263752 186.048458 
z
" clip-path="url(#paf2d63c200)" style="fill: none; stroke: #000000; stroke-width: 0.5"/>
    <path d="M 325.280928 182.577855 
L 325.74228 88.928435 
L 286.956361 88.737361 
L 286.495009 182.386781 
L 325.280928 182.577855 
z
" clip-path="url(#paf2d63c200)" style="fill: none; stroke: #000000; stroke-width: 0.5"/>
    <path d="M 325.298104 179.107252 
L 325.759456 85.457832 
L 286.973537 85.266758 
L 286.512185 178.916178 
L 325.298104 179.107252 
z
" clip-path="url(#paf2d63c200)" style="fill: none; stroke: #000000; stroke-width: 0.5"/>
    <path d="M 325.315081 175.636649 
L 325.776432 81.987229 
L 286.990513 81.796155 
L 286.529162 175.445575 
L 325.315081 175.636649 
z
" clip-path="url(#paf2d63c200)" style="fill: none; stroke: #000000; stroke-width: 0.5"/>
    <path d="M 325.332257 172.166046 
L 325.793609 78.516626 
L 287.00769 78.325552 
L 286.546338 171.974972 
L 325.332257 172.166046 
z
" clip-path="url(#paf2d63c200)" style="fill: none; stroke: #000000; stroke-width: 0.5"/>
    <path d="M 325.349234 168.695443 
L 325.810585 75.046023 
L 287.024666 74.854949 
L 286.563315 168.504369 
L 325.349234 168.695443 
z
" clip-path="url(#paf2d63c200)" style="fill: none; stroke: #000000; stroke-width: 0.5"/>
    <path d="M 325.36641 165.22484 
L 325.827761 71.57542 
L 287.041842 71.384346 
L 286.580491 165.033767 
L 325.36641 165.22484 
z
" clip-path="url(#paf2d63c200)" style="fill: none; stroke: #000000; stroke-width: 0.5"/>
    <path d="M 325.383586 161.754038 
L 325.844938 68.104617 
L 287.059019 67.913544 
L 286.597667 161.562964 
L 325.383586 161.754038 
z
" clip-path="url(#paf2d63c200)" style="fill: none; stroke: #000000; stroke-width: 0.5"/>
    <path d="M 325.400563 158.283435 
L 325.861914 64.634014 
L 287.075995 64.442941 
L 286.614644 158.092361 
L 325.400563 158.283435 
z
" clip-path="url(#paf2d63c200)" style="fill: none; stroke: #000000; stroke-width: 0.5"/>
    <path d="M 325.417739 154.812832 
L 325.87909 61.163411 
L 287.093172 60.972338 
L 286.63182 154.621758 
L 325.417739 154.812832 
z
" clip-path="url(#paf2d63c200)" style="fill: none; stroke: #000000; stroke-width: 0.5"/>
    <path d="M 325.434915 151.342229 
L 325.896267 57.692809 
L 287.110348 57.501735 
L 286.648996 151.151155 
L 325.434915 151.342229 
z
" clip-path="url(#paf2d63c200)" style="fill: none; stroke: #000000; stroke-width: 0.5"/>
    <path d="M 325.451892 147.871626 
L 325.913243 54.222206 
L 287.127324 54.031132 
L 286.665973 147.680552 
L 325.451892 147.871626 
z
" clip-path="url(#paf2d63c200)" style="fill: none; stroke: #000000; stroke-width: 0.5"/>
    <path d="M 325.469068 144.401023 
L 325.930419 50.751603 
L 287.144501 50.560529 
L 286.683149 144.209949 
L 325.469068 144.401023 
z
" clip-path="url(#paf2d63c200)" style="fill: none; stroke: #000000; stroke-width: 0.5"/>
    <path d="M 325.855504 140.835723 
L 325.85516 47.185167 
L 287.068771 47.185309 
L 287.069115 140.835865 
L 325.855504 140.835723 
z
" clip-path="url(#paf2d63c200)" style="fill: none; stroke: #000000; stroke-width: 0.5"/>
   </g>
   <g id="PatchCollection_3">
    <path d="M 186.128358 193.872487 
L 181.63457 195.370417 
L 181.63457 194.371797 
L 161.662175 194.371797 
L 161.662175 193.373177 
L 181.63457 193.373177 
L 181.63457 192.374558 
z
" clip-path="url(#paf2d63c200)" style="fill: #ff0000; stroke: #ff0000; stroke-width: 0.24"/>
    <path d="M 190.299652 195.113352 
L 185.7408 196.399745 
L 185.787445 195.402215 
L 165.83685 194.469316 
L 165.883495 193.471787 
L 185.83409 194.404685 
L 185.880735 193.407155 
z
" clip-path="url(#paf2d63c200)" style="fill: #ff0000; stroke: #ff0000; stroke-width: 0.24"/>
    <path d="M 194.408607 196.547852 
L 189.794645 197.619899 
L 189.887833 196.625637 
L 170.002589 194.761876 
L 170.095777 193.767614 
L 189.981021 195.631374 
L 190.074209 194.637112 
z
" clip-path="url(#paf2d63c200)" style="fill: #ff0000; stroke: #ff0000; stroke-width: 0.24"/>
    <path d="M 198.445813 198.172493 
L 193.786812 199.027855 
L 193.92634 198.039031 
L 174.149855 195.248481 
L 174.289382 194.259656 
L 194.065867 197.050207 
L 194.205395 196.061382 
z
" clip-path="url(#paf2d63c200)" style="fill: #ff0000; stroke: #ff0000; stroke-width: 0.24"/>
    <path d="M 202.402968 199.984022 
L 197.709099 200.620829 
L 197.894662 199.639601 
L 178.27011 195.928337 
L 178.455673 194.94711 
L 198.080226 198.658374 
L 198.265789 197.677146 
z
" clip-path="url(#paf2d63c200)" style="fill: #ff0000; stroke: #ff0000; stroke-width: 0.24"/>
    <path d="M 206.2711 201.978536 
L 201.55261 202.395402 
L 201.783802 201.423913 
L 182.354019 196.800057 
L 182.585212 195.828567 
L 202.014995 200.452424 
L 202.246188 199.480935 
z
" clip-path="url(#paf2d63c200)" style="fill: #ff0000; stroke: #ff0000; stroke-width: 0.24"/>
    <path d="M 210.041738 204.151422 
L 205.308926 204.347437 
L 205.585244 203.387807 
L 186.392643 197.861452 
L 186.668961 196.901822 
L 205.861562 202.428177 
L 206.13788 201.468547 
z
" clip-path="url(#paf2d63c200)" style="fill: #ff0000; stroke: #ff0000; stroke-width: 0.24"/>
    <path d="M 213.706921 206.498093 
L 208.970119 206.472824 
L 209.290959 205.527148 
L 190.377443 199.110339 
L 190.698284 198.164663 
L 209.6118 204.581473 
L 209.93264 203.635797 
z
" clip-path="url(#paf2d63c200)" style="fill: #ff0000; stroke: #ff0000; stroke-width: 0.24"/>
    <path d="M 217.258421 209.013324 
L 212.527969 208.766832 
L 212.892631 207.837174 
L 194.299481 200.543937 
L 194.664143 199.61428 
L 213.257293 206.907517 
L 213.621955 205.977859 
z
" clip-path="url(#paf2d63c200)" style="fill: #ff0000; stroke: #ff0000; stroke-width: 0.24"/>
    <path d="M 220.688491 211.691822 
L 215.974716 211.22464 
L 216.382404 210.31303 
L 198.150216 202.159268 
L 198.557904 201.247658 
L 216.790092 209.401421 
L 217.19778 208.489812 
z
" clip-path="url(#paf2d63c200)" style="fill: #ff0000; stroke: #ff0000; stroke-width: 0.24"/>
    <path d="M 224.770753 212.831286 
L 220.046807 212.481614 
L 220.431671 211.560136 
L 202.00212 203.862854 
L 202.386984 202.941377 
L 220.816536 210.638659 
L 221.2014 209.717181 
z
" clip-path="url(#paf2d63c200)" style="fill: #ff0000; stroke: #ff0000; stroke-width: 0.24"/>
    <path d="M 229.09814 213.293748 
L 224.363018 213.165114 
L 224.70442 212.226665 
L 205.935444 205.398629 
L 206.276846 204.46018 
L 225.045822 211.288216 
L 225.387224 210.349767 
z
" clip-path="url(#paf2d63c200)" style="fill: #ff0000; stroke: #ff0000; stroke-width: 0.24"/>
    <path d="M 233.442237 213.55383 
L 228.706274 213.646508 
L 229.003469 212.693137 
L 209.936048 206.749233 
L 210.233244 205.795862 
L 229.300665 211.739766 
L 229.59786 210.786395 
z
" clip-path="url(#paf2d63c200)" style="fill: #ff0000; stroke: #ff0000; stroke-width: 0.24"/>
    <path d="M 237.79387 213.610452 
L 233.067406 213.924246 
L 233.319745 212.958033 
L 213.995497 207.911257 
L 214.247835 206.945044 
L 233.572084 211.991821 
L 233.824423 211.025608 
z
" clip-path="url(#paf2d63c200)" style="fill: #ff0000; stroke: #ff0000; stroke-width: 0.24"/>
    <path d="M 242.143354 213.463864 
L 237.436705 213.998084 
L 237.643638 213.021139 
L 218.104751 208.882488 
L 218.311684 207.905543 
L 237.850571 212.044195 
L 238.057503 211.067251 
z
" clip-path="url(#paf2d63c200)" style="fill: #ff0000; stroke: #ff0000; stroke-width: 0.24"/>
    <path d="M 246.481332 213.114474 
L 241.804774 213.867954 
L 241.965849 212.88241 
L 222.254976 209.660917 
L 222.41605 208.675374 
L 242.126923 211.896866 
L 242.287998 210.911323 
z
" clip-path="url(#paf2d63c200)" style="fill: #ff0000; stroke: #ff0000; stroke-width: 0.24"/>
    <path d="M 250.798162 212.562514 
L 246.161903 213.533613 
L 246.276767 212.541621 
L 226.436933 210.244339 
L 226.551797 209.252348 
L 246.391631 211.549629 
L 246.506495 210.557638 
z
" clip-path="url(#paf2d63c200)" style="fill: #ff0000; stroke: #ff0000; stroke-width: 0.24"/>
    <path d="M 255.084702 211.809701 
L 250.498863 212.996296 
L 250.567267 212.000021 
L 230.641783 210.631948 
L 230.710187 209.635674 
L 250.63567 211.003747 
L 250.704074 210.007473 
z
" clip-path="url(#paf2d63c200)" style="fill: #ff0000; stroke: #ff0000; stroke-width: 0.24"/>
    <path d="M 259.331143 210.857493 
L 254.805734 212.256994 
L 254.827527 211.258612 
L 234.85989 210.822739 
L 234.881684 209.824358 
L 254.849321 210.26023 
L 254.871115 209.261849 
z
" clip-path="url(#paf2d63c200)" style="fill: #ff0000; stroke: #ff0000; stroke-width: 0.24"/>
    <path d="M 263.528581 209.707788 
L 259.073481 211.317142 
L 259.048617 210.318831 
L 239.082415 210.816113 
L 239.057551 209.817803 
L 259.023753 209.320521 
L 258.998889 208.322211 
z
" clip-path="url(#paf2d63c200)" style="fill: #ff0000; stroke: #ff0000; stroke-width: 0.24"/>
    <path d="M 267.667833 208.363487 
L 263.292768 210.179178 
L 263.221301 209.183119 
L 243.300119 210.612467 
L 243.228651 209.616408 
L 263.149833 208.18706 
L 263.078366 207.191001 
z
" clip-path="url(#paf2d63c200)" style="fill: #ff0000; stroke: #ff0000; stroke-width: 0.24"/>
    <path d="M 271.739633 206.827273 
L 267.454154 208.845341 
L 267.336239 207.853707 
L 247.503565 210.212005 
L 247.38565 209.220371 
L 267.218324 206.862073 
L 267.100409 205.870439 
z
" clip-path="url(#paf2d63c200)" style="fill: #ff0000; stroke: #ff0000; stroke-width: 0.24"/>
    <path d="M 275.735232 205.10245 
L 271.548692 207.318485 
L 271.384587 206.333441 
L 251.683714 209.61553 
L 251.519609 208.630486 
L 271.220483 205.348398 
L 271.056378 204.363354 
z
" clip-path="url(#paf2d63c200)" style="fill: #ff0000; stroke: #ff0000; stroke-width: 0.24"/>
    <path d="M 279.645988 203.193046 
L 275.567529 205.602216 
L 275.357592 204.625913 
L 255.831528 208.824647 
L 255.621592 207.848343 
L 275.147655 203.64961 
L 274.937719 202.673307 
z
" clip-path="url(#paf2d63c200)" style="fill: #ff0000; stroke: #ff0000; stroke-width: 0.24"/>
    <path d="M 283.463191 201.10296 
L 279.501713 203.700001 
L 279.246404 202.734569 
L 259.93777 207.840763 
L 259.682461 206.875332 
L 278.991094 201.769138 
L 278.735784 200.803706 
z
" clip-path="url(#paf2d63c200)" style="fill: #ff0000; stroke: #ff0000; stroke-width: 0.24"/>
    <path d="M 287.178651 198.83679 
L 283.342802 201.616034 
L 283.042677 200.663581 
L 263.993623 206.666088 
L 263.693498 205.713636 
L 282.742551 199.711128 
L 282.442426 198.758676 
z
" clip-path="url(#paf2d63c200)" style="fill: #ff0000; stroke: #ff0000; stroke-width: 0.24"/>
    <path d="M 290.784205 196.399508 
L 287.082361 199.35489 
L 286.738075 198.417495 
L 267.990191 205.303233 
L 267.645904 204.365838 
L 286.393788 197.480101 
L 286.049501 196.542707 
z
" clip-path="url(#paf2d63c200)" style="fill: #ff0000; stroke: #ff0000; stroke-width: 0.24"/>
    <path d="M 294.271987 193.796715 
L 290.712226 196.921781 
L 290.324531 196.001491 
L 271.918735 203.755408 
L 271.531039 202.835118 
L 289.936835 195.081202 
L 289.549139 194.160912 
z
" clip-path="url(#paf2d63c200)" style="fill: #ff0000; stroke: #ff0000; stroke-width: 0.24"/>
    <path d="M 297.634364 191.033686 
L 294.224462 194.321617 
L 293.794202 193.420441 
L 275.770682 202.025629 
L 275.340423 201.124453 
L 293.363943 192.519265 
L 292.933683 191.618089 
z
" clip-path="url(#paf2d63c200)" style="fill: #ff0000; stroke: #ff0000; stroke-width: 0.24"/>
    <path d="M 300.864032 188.116535 
L 297.611427 191.56015 
L 297.139544 190.680055 
L 279.537636 200.117711 
L 279.065753 199.237616 
L 296.667661 189.79996 
L 296.195779 188.919864 
z
" clip-path="url(#paf2d63c200)" style="fill: #ff0000; stroke: #ff0000; stroke-width: 0.24"/>
    <path d="M 303.953925 185.051859 
L 300.865718 188.643642 
L 300.353242 187.786549 
L 283.211369 198.036071 
L 282.698893 197.178978 
L 299.840766 186.929455 
L 299.32829 186.072361 
z
" clip-path="url(#paf2d63c200)" style="fill: #ff0000; stroke: #ff0000; stroke-width: 0.24"/>
    <path d="M 299.856145 186.284869 
L 296.939081 190.016982 
L 296.38713 189.184762 
L 279.742722 200.223794 
L 279.19077 199.391573 
L 295.835178 188.352541 
L 295.283226 187.520321 
z
" clip-path="url(#paf2d63c200)" style="fill: #ff0000; stroke: #ff0000; stroke-width: 0.24"/>
    <path d="M 295.757955 187.749141 
L 293.018398 191.613433 
L 292.428176 190.807902 
L 276.317558 202.612329 
L 275.727336 201.806798 
L 291.837955 190.002371 
L 291.247734 189.19684 
z
" clip-path="url(#paf2d63c200)" style="fill: #ff0000; stroke: #ff0000; stroke-width: 0.24"/>
    <path d="M 291.732607 189.40354 
L 289.176542 193.391579 
L 288.549338 192.614496 
L 273.007689 205.158566 
L 272.380486 204.381483 
L 287.922135 191.837414 
L 287.294931 191.060332 
z
" clip-path="url(#paf2d63c200)" style="fill: #ff0000; stroke: #ff0000; stroke-width: 0.24"/>
    <path d="M 293.783136 186.448471 
L 291.382939 190.532218 
L 290.726203 189.779929 
L 275.680422 202.914654 
L 275.023685 202.162364 
L 290.069467 189.02764 
L 289.41273 188.27535 
z
" clip-path="url(#paf2d63c200)" style="fill: #ff0000; stroke: #ff0000; stroke-width: 0.24"/>
    <path d="M 295.718045 183.416532 
L 293.477296 187.589897 
L 292.792007 186.863523 
L 278.264527 200.56932 
L 277.579237 199.842946 
L 292.106717 186.137149 
L 291.421427 185.410775 
z
" clip-path="url(#paf2d63c200)" style="fill: #ff0000; stroke: #ff0000; stroke-width: 0.24"/>
    <path d="M 297.534473 180.312162 
L 295.456513 184.568923 
L 294.743692 183.869547 
L 280.756173 198.125979 
L 280.043352 197.426603 
L 294.03087 183.170171 
L 293.318048 182.470795 
z
" clip-path="url(#paf2d63c200)" style="fill: #ff0000; stroke: #ff0000; stroke-width: 0.24"/>
    <path d="M 299.229691 177.13996 
L 297.317619 181.47377 
L 296.578328 180.802435 
L 283.151627 195.588247 
L 282.412337 194.916912 
L 295.839038 180.1311 
L 295.099747 179.459765 
z
" clip-path="url(#paf2d63c200)" style="fill: #ff0000; stroke: #ff0000; stroke-width: 0.24"/>
    <path d="M 300.801153 173.904873 
L 299.057824 178.309272 
L 298.293166 177.66698 
L 285.447317 192.960138 
L 284.682659 192.317846 
L 297.528508 177.024687 
L 296.76385 176.382395 
z
" clip-path="url(#paf2d63c200)" style="fill: #ff0000; stroke: #ff0000; stroke-width: 0.24"/>
    <path d="M 302.246571 170.611255 
L 300.67458 175.079674 
L 299.885695 174.467381 
L 287.639837 190.245071 
L 286.850952 189.632778 
L 299.096811 173.855088 
L 298.307926 173.242795 
z
" clip-path="url(#paf2d63c200)" style="fill: #ff0000; stroke: #ff0000; stroke-width: 0.24"/>
    <path d="M 303.563749 167.264367 
L 302.165439 171.790145 
L 301.353504 171.208764 
L 289.725895 187.44746 
L 288.91396 186.866079 
L 300.541569 170.627384 
L 299.729634 170.046003 
z
" clip-path="url(#paf2d63c200)" style="fill: #ff0000; stroke: #ff0000; stroke-width: 0.24"/>
    <path d="M 304.750739 163.869248 
L 303.528195 168.445635 
L 302.694421 167.896034 
L 291.702398 184.571523 
L 290.868623 184.021922 
L 301.860646 167.346432 
L 301.026872 166.796831 
z
" clip-path="url(#paf2d63c200)" style="fill: #ff0000; stroke: #ff0000; stroke-width: 0.24"/>
    <path d="M 305.805683 160.430637 
L 304.760747 165.050815 
L 303.906374 164.533816 
L 293.566395 181.621277 
L 292.712022 181.104279 
L 303.052001 164.016817 
L 302.197628 163.499818 
z
" clip-path="url(#paf2d63c200)" style="fill: #ff0000; stroke: #ff0000; stroke-width: 0.24"/>
    <path d="M 306.72731 156.954057 
L 305.861494 161.611126 
L 304.987801 161.127492 
L 295.315111 178.601346 
L 294.441418 178.117712 
L 304.114109 160.643857 
L 303.240416 160.160223 
z
" clip-path="url(#paf2d63c200)" style="fill: #ff0000; stroke: #ff0000; stroke-width: 0.24"/>
    <path d="M 307.513799 153.444363 
L 306.82844 158.131389 
L 305.936726 157.681849 
L 296.94592 175.51614 
L 296.054206 175.0666 
L 305.045011 157.232308 
L 304.153296 156.782768 
z
" clip-path="url(#paf2d63c200)" style="fill: #ff0000; stroke: #ff0000; stroke-width: 0.24"/>
    <path d="M 308.164432 149.906914 
L 307.660504 154.616903 
L 306.752102 154.202118 
L 298.456408 172.370167 
L 297.548005 171.955382 
L 305.843699 153.787333 
L 304.935297 153.372548 
z
" clip-path="url(#paf2d63c200)" style="fill: #ff0000; stroke: #ff0000; stroke-width: 0.24"/>
    <path d="M 308.677779 146.346983 
L 308.356081 151.072916 
L 307.432341 150.693515 
L 299.844309 169.168316 
L 298.920569 168.788915 
L 306.508601 150.314113 
L 305.584861 149.934711 
z
" clip-path="url(#paf2d63c200)" style="fill: #ff0000; stroke: #ff0000; stroke-width: 0.24"/>
    <path d="M 309.053315 142.769894 
L 308.914327 147.504723 
L 307.976627 147.161271 
L 301.107573 165.915273 
L 300.169872 165.57182 
L 307.038927 146.817818 
L 306.101227 146.474365 
z
" clip-path="url(#paf2d63c200)" style="fill: #ff0000; stroke: #ff0000; stroke-width: 0.24"/>
    <path d="M 309.290649 139.181024 
L 309.334531 143.91769 
L 308.384273 143.610689 
L 302.244249 162.615863 
L 301.293991 162.308862 
L 307.434014 143.303687 
L 306.483755 142.996686 
z
" clip-path="url(#paf2d63c200)" style="fill: #ff0000; stroke: #ff0000; stroke-width: 0.24"/>
    <path d="M 309.389152 135.585627 
L 309.615887 140.317066 
L 308.654483 140.046984 
L 303.252835 159.275055 
L 302.291432 159.004973 
L 307.693079 139.776902 
L 306.731676 139.506819 
z
" clip-path="url(#paf2d63c200)" style="fill: #ff0000; stroke: #ff0000; stroke-width: 0.24"/>
    <path d="M 309.348766 131.989091 
L 309.758014 136.708248 
L 308.786899 136.475487 
L 304.131683 155.897781 
L 303.160568 155.66502 
L 307.815785 136.242726 
L 306.84467 136.009966 
z
" clip-path="url(#paf2d63c200)" style="fill: #ff0000; stroke: #ff0000; stroke-width: 0.24"/>
    <path d="M 309.169695 128.396856 
L 309.7608 133.096699 
L 308.781424 132.901597 
L 304.879386 152.489109 
L 303.90001 152.294007 
L 307.802048 132.706495 
L 306.822673 132.511393 
z
" clip-path="url(#paf2d63c200)" style="fill: #ff0000; stroke: #ff0000; stroke-width: 0.24"/>
    <path d="M 308.851839 124.814176 
L 309.623966 129.487691 
L 308.637788 129.330549 
L 305.494941 149.054115 
L 304.508763 148.896972 
L 307.65161 129.173407 
L 306.665431 129.016264 
z
" clip-path="url(#paf2d63c200)" style="fill: #ff0000; stroke: #ff0000; stroke-width: 0.24"/>
    <path d="M 308.396068 121.246462 
L 309.348019 125.88669 
L 308.35651 125.767732 
L 305.977343 145.597913 
L 304.985834 145.478955 
L 307.365001 125.648774 
L 306.373492 125.529815 
z
" clip-path="url(#paf2d63c200)" style="fill: #ff0000; stroke: #ff0000; stroke-width: 0.24"/>
    <path d="M 307.802893 117.698959 
L 308.933295 122.298972 
L 307.937932 122.218385 
L 306.326191 142.125641 
L 305.330828 142.045054 
L 306.94257 122.137798 
L 305.947207 122.057211 
z
" clip-path="url(#paf2d63c200)" style="fill: #ff0000; stroke: #ff0000; stroke-width: 0.24"/>
    <path d="M 307.072958 114.177039 
L 308.380126 118.729977 
L 307.382394 118.687881 
L 306.540481 138.642523 
L 305.542749 138.600427 
L 306.384662 118.645786 
L 305.386929 118.60369 
z
" clip-path="url(#paf2d63c200)" style="fill: #ff0000; stroke: #ff0000; stroke-width: 0.24"/>
    <path d="M 306.241633 110.686044 
L 307.717406 115.187158 
L 306.718799 115.182238 
L 306.620409 135.15439 
L 305.621801 135.149471 
L 305.720191 115.177319 
L 304.721583 115.172399 
z
" clip-path="url(#paf2d63c200)" style="fill: #ff0000; stroke: #ff0000; stroke-width: 0.24"/>
    <path d="M 306.258809 107.215362 
L 307.734583 111.716475 
L 306.735975 111.711556 
L 306.637585 131.683707 
L 305.638977 131.678788 
L 305.737367 111.706636 
L 304.73876 111.701717 
z
" clip-path="url(#paf2d63c200)" style="fill: #ff0000; stroke: #ff0000; stroke-width: 0.24"/>
    <path d="M 306.275785 103.744759 
L 307.751559 108.245872 
L 306.752951 108.240953 
L 306.654561 128.213104 
L 305.655954 128.208185 
L 305.754344 108.236033 
L 304.755736 108.231114 
z
" clip-path="url(#paf2d63c200)" style="fill: #ff0000; stroke: #ff0000; stroke-width: 0.24"/>
    <path d="M 306.292962 100.274156 
L 307.768735 104.775269 
L 306.770128 104.77035 
L 306.671738 124.742502 
L 305.67313 124.737582 
L 305.77152 104.76543 
L 304.772913 104.760511 
z
" clip-path="url(#paf2d63c200)" style="fill: #ff0000; stroke: #ff0000; stroke-width: 0.24"/>
    <path d="M 306.309938 96.803553 
L 307.785712 101.304666 
L 306.787104 101.299747 
L 306.688714 121.271899 
L 305.690107 121.266979 
L 305.788497 101.294827 
L 304.789889 101.289908 
z
" clip-path="url(#paf2d63c200)" style="fill: #ff0000; stroke: #ff0000; stroke-width: 0.24"/>
    <path d="M 306.327115 93.33295 
L 307.802888 97.834063 
L 306.804281 97.829144 
L 306.70589 117.801296 
L 305.707283 117.796376 
L 305.805673 97.824224 
L 304.807065 97.819305 
z
" clip-path="url(#paf2d63c200)" style="fill: #ff0000; stroke: #ff0000; stroke-width: 0.24"/>
    <path d="M 306.344291 89.862347 
L 307.820064 94.36346 
L 306.821457 94.358541 
L 306.723067 114.330693 
L 305.724459 114.325773 
L 305.822849 94.353621 
L 304.824242 94.348702 
z
" clip-path="url(#paf2d63c200)" style="fill: #ff0000; stroke: #ff0000; stroke-width: 0.24"/>
    <path d="M 306.361267 86.391744 
L 307.837041 90.892857 
L 306.838433 90.887938 
L 306.740043 110.86009 
L 305.741436 110.85517 
L 305.839826 90.883018 
L 304.841218 90.878099 
z
" clip-path="url(#paf2d63c200)" style="fill: #ff0000; stroke: #ff0000; stroke-width: 0.24"/>
    <path d="M 306.378444 82.921141 
L 307.854217 87.422254 
L 306.85561 87.417335 
L 306.757219 107.389487 
L 305.758612 107.384567 
L 305.857002 87.412415 
L 304.858394 87.407496 
z
" clip-path="url(#paf2d63c200)" style="fill: #ff0000; stroke: #ff0000; stroke-width: 0.24"/>
    <path d="M 306.39562 79.450538 
L 307.871393 83.951651 
L 306.872786 83.946732 
L 306.774396 103.918884 
L 305.775788 103.913964 
L 305.874178 83.941812 
L 304.875571 83.936893 
z
" clip-path="url(#paf2d63c200)" style="fill: #ff0000; stroke: #ff0000; stroke-width: 0.24"/>
    <path d="M 306.412596 75.979935 
L 307.88837 80.481049 
L 306.889762 80.476129 
L 306.791372 100.448281 
L 305.792765 100.443361 
L 305.891155 80.47121 
L 304.892547 80.46629 
z
" clip-path="url(#paf2d63c200)" style="fill: #ff0000; stroke: #ff0000; stroke-width: 0.24"/>
    <path d="M 306.429773 72.509332 
L 307.905546 77.010446 
L 306.906939 77.005526 
L 306.808548 96.977678 
L 305.809941 96.972758 
L 305.908331 77.000607 
L 304.909723 76.995687 
z
" clip-path="url(#paf2d63c200)" style="fill: #ff0000; stroke: #ff0000; stroke-width: 0.24"/>
    <path d="M 306.446749 69.038729 
L 307.922523 73.539843 
L 306.923915 73.534923 
L 306.825525 93.507075 
L 305.826917 93.502156 
L 305.925308 73.530004 
L 304.9267 73.525084 
z
" clip-path="url(#paf2d63c200)" style="fill: #ff0000; stroke: #ff0000; stroke-width: 0.24"/>
    <path d="M 306.463925 65.568126 
L 307.939699 70.06924 
L 306.941091 70.06432 
L 306.842701 90.036472 
L 305.844094 90.031553 
L 305.942484 70.059401 
L 304.943876 70.054481 
z
" clip-path="url(#paf2d63c200)" style="fill: #ff0000; stroke: #ff0000; stroke-width: 0.24"/>
    <path d="M 306.481102 62.097324 
L 307.956875 66.598437 
L 306.958268 66.593518 
L 306.859878 86.565669 
L 305.86127 86.56075 
L 305.95966 66.588598 
L 304.961052 66.583679 
z
" clip-path="url(#paf2d63c200)" style="fill: #ff0000; stroke: #ff0000; stroke-width: 0.24"/>
    <path d="M 306.498078 58.626721 
L 307.973852 63.127834 
L 306.975244 63.122915 
L 306.876854 83.095066 
L 305.878246 83.090147 
L 305.976637 63.117995 
L 304.978029 63.113076 
z
" clip-path="url(#paf2d63c200)" style="fill: #ff0000; stroke: #ff0000; stroke-width: 0.24"/>
    <path d="M 306.515254 55.156118 
L 307.991028 59.657231 
L 306.99242 59.652312 
L 306.89403 79.624464 
L 305.895423 79.619544 
L 305.993813 59.647392 
L 304.995205 59.642473 
z
" clip-path="url(#paf2d63c200)" style="fill: #ff0000; stroke: #ff0000; stroke-width: 0.24"/>
    <path d="M 306.532431 51.685515 
L 308.008204 56.186628 
L 307.009597 56.181709 
L 306.911207 76.153861 
L 305.912599 76.148941 
L 306.010989 56.176789 
L 305.012382 56.17187 
z
" clip-path="url(#paf2d63c200)" style="fill: #ff0000; stroke: #ff0000; stroke-width: 0.24"/>
    <path d="M 306.549407 48.214912 
L 308.025181 52.716025 
L 307.026573 52.711106 
L 306.928183 72.683258 
L 305.929576 72.678338 
L 306.027966 52.706186 
L 305.029358 52.701267 
z
" clip-path="url(#paf2d63c200)" style="fill: #ff0000; stroke: #ff0000; stroke-width: 0.24"/>
    <path d="M 306.566584 44.744309 
L 308.042357 49.245422 
L 307.04375 49.240503 
L 306.945359 69.212655 
L 305.946752 69.207735 
L 306.045142 49.235583 
L 305.046534 49.230664 
z
" clip-path="url(#paf2d63c200)" style="fill: #ff0000; stroke: #ff0000; stroke-width: 0.24"/>
    <path d="M 306.461944 41.273409 
L 307.95989 45.767192 
L 306.96127 45.767196 
L 306.961343 65.73959 
L 305.962724 65.739594 
L 305.96265 45.7672 
L 304.964031 45.767203 
z
" clip-path="url(#paf2d63c200)" style="fill: #ff0000; stroke: #ff0000; stroke-width: 0.24"/>
   </g>
   <g id="matplotlib.axis_1">
    <g id="xtick_1">
     <g id="line2d_1">
      <defs>
       <path id="m917c80e26b" d="M 0 0 
L 0 -3 
" style="stroke: #000000"/>
      </defs>
      <g>
       <use xlink:href="#m917c80e26b" x="81.772598" y="290.32" style="stroke: #000000"/>
      </g>
     </g>
     <g id="text_1">
      <!-- −10 -->
      <g transform="translate(70.692638 303.898359) scale(0.105 -0.105)">
       <defs>
        <path id="DejaVuSans-2212" d="M 678 2272 
L 4684 2272 
L 4684 1741 
L 678 1741 
L 678 2272 
z
" transform="scale(0.015625)"/>
        <path id="DejaVuSans-31" d="M 794 531 
L 1825 531 
L 1825 4091 
L 703 3866 
L 703 4441 
L 1819 4666 
L 2450 4666 
L 2450 531 
L 3481 531 
L 3481 0 
L 794 0 
L 794 531 
z
" transform="scale(0.015625)"/>
        <path id="DejaVuSans-30" d="M 2034 4250 
Q 1547 4250 1301 3770 
Q 1056 3291 1056 2328 
Q 1056 1369 1301 889 
Q 1547 409 2034 409 
Q 2525 409 2770 889 
Q 3016 1369 3016 2328 
Q 3016 3291 2770 3770 
Q 2525 4250 2034 4250 
z
M 2034 4750 
Q 2819 4750 3233 4129 
Q 3647 3509 3647 2328 
Q 3647 1150 3233 529 
Q 2819 -91 2034 -91 
Q 1250 -91 836 529 
Q 422 1150 422 2328 
Q 422 3509 836 4129 
Q 1250 4750 2034 4750 
z
" transform="scale(0.015625)"/>
       </defs>
       <use xlink:href="#DejaVuSans-2212"/>
       <use xlink:href="#DejaVuSans-31" x="83.789062"/>
       <use xlink:href="#DejaVuSans-30" x="147.412109"/>
      </g>
     </g>
    </g>
    <g id="xtick_2">
     <g id="line2d_2">
      <g>
       <use xlink:href="#m917c80e26b" x="121.717387" y="290.32" style="stroke: #000000"/>
      </g>
     </g>
     <g id="text_2">
      <!-- −8 -->
      <g transform="translate(113.977738 303.898359) scale(0.105 -0.105)">
       <defs>
        <path id="DejaVuSans-38" d="M 2034 2216 
Q 1584 2216 1326 1975 
Q 1069 1734 1069 1313 
Q 1069 891 1326 650 
Q 1584 409 2034 409 
Q 2484 409 2743 651 
Q 3003 894 3003 1313 
Q 3003 1734 2745 1975 
Q 2488 2216 2034 2216 
z
M 1403 2484 
Q 997 2584 770 2862 
Q 544 3141 544 3541 
Q 544 4100 942 4425 
Q 1341 4750 2034 4750 
Q 2731 4750 3128 4425 
Q 3525 4100 3525 3541 
Q 3525 3141 3298 2862 
Q 3072 2584 2669 2484 
Q 3125 2378 3379 2068 
Q 3634 1759 3634 1313 
Q 3634 634 3220 271 
Q 2806 -91 2034 -91 
Q 1263 -91 848 271 
Q 434 634 434 1313 
Q 434 1759 690 2068 
Q 947 2378 1403 2484 
z
M 1172 3481 
Q 1172 3119 1398 2916 
Q 1625 2713 2034 2713 
Q 2441 2713 2670 2916 
Q 2900 3119 2900 3481 
Q 2900 3844 2670 4047 
Q 2441 4250 2034 4250 
Q 1625 4250 1398 4047 
Q 1172 3844 1172 3481 
z
" transform="scale(0.015625)"/>
       </defs>
       <use xlink:href="#DejaVuSans-2212"/>
       <use xlink:href="#DejaVuSans-38" x="83.789062"/>
      </g>
     </g>
    </g>
    <g id="xtick_3">
     <g id="line2d_3">
      <g>
       <use xlink:href="#m917c80e26b" x="161.662175" y="290.32" style="stroke: #000000"/>
      </g>
     </g>
     <g id="text_3">
      <!-- −6 -->
      <g transform="translate(153.922527 303.898359) scale(0.105 -0.105)">
       <defs>
        <path id="DejaVuSans-36" d="M 2113 2584 
Q 1688 2584 1439 2293 
Q 1191 2003 1191 1497 
Q 1191 994 1439 701 
Q 1688 409 2113 409 
Q 2538 409 2786 701 
Q 3034 994 3034 1497 
Q 3034 2003 2786 2293 
Q 2538 2584 2113 2584 
z
M 3366 4563 
L 3366 3988 
Q 3128 4100 2886 4159 
Q 2644 4219 2406 4219 
Q 1781 4219 1451 3797 
Q 1122 3375 1075 2522 
Q 1259 2794 1537 2939 
Q 1816 3084 2150 3084 
Q 2853 3084 3261 2657 
Q 3669 2231 3669 1497 
Q 3669 778 3244 343 
Q 2819 -91 2113 -91 
Q 1303 -91 875 529 
Q 447 1150 447 2328 
Q 447 3434 972 4092 
Q 1497 4750 2381 4750 
Q 2619 4750 2861 4703 
Q 3103 4656 3366 4563 
z
" transform="scale(0.015625)"/>
       </defs>
       <use xlink:href="#DejaVuSans-2212"/>
       <use xlink:href="#DejaVuSans-36" x="83.789062"/>
      </g>
     </g>
    </g>
    <g id="xtick_4">
     <g id="line2d_4">
      <g>
       <use xlink:href="#m917c80e26b" x="201.606964" y="290.32" style="stroke: #000000"/>
      </g>
     </g>
     <g id="text_4">
      <!-- −4 -->
      <g transform="translate(193.867315 303.898359) scale(0.105 -0.105)">
       <defs>
        <path id="DejaVuSans-34" d="M 2419 4116 
L 825 1625 
L 2419 1625 
L 2419 4116 
z
M 2253 4666 
L 3047 4666 
L 3047 1625 
L 3713 1625 
L 3713 1100 
L 3047 1100 
L 3047 0 
L 2419 0 
L 2419 1100 
L 313 1100 
L 313 1709 
L 2253 4666 
z
" transform="scale(0.015625)"/>
       </defs>
       <use xlink:href="#DejaVuSans-2212"/>
       <use xlink:href="#DejaVuSans-34" x="83.789062"/>
      </g>
     </g>
    </g>
    <g id="xtick_5">
     <g id="line2d_5">
      <g>
       <use xlink:href="#m917c80e26b" x="241.551752" y="290.32" style="stroke: #000000"/>
      </g>
     </g>
     <g id="text_5">
      <!-- −2 -->
      <g transform="translate(233.812104 303.898359) scale(0.105 -0.105)">
       <defs>
        <path id="DejaVuSans-32" d="M 1228 531 
L 3431 531 
L 3431 0 
L 469 0 
L 469 531 
Q 828 903 1448 1529 
Q 2069 2156 2228 2338 
Q 2531 2678 2651 2914 
Q 2772 3150 2772 3378 
Q 2772 3750 2511 3984 
Q 2250 4219 1831 4219 
Q 1534 4219 1204 4116 
Q 875 4013 500 3803 
L 500 4441 
Q 881 4594 1212 4672 
Q 1544 4750 1819 4750 
Q 2544 4750 2975 4387 
Q 3406 4025 3406 3419 
Q 3406 3131 3298 2873 
Q 3191 2616 2906 2266 
Q 2828 2175 2409 1742 
Q 1991 1309 1228 531 
z
" transform="scale(0.015625)"/>
       </defs>
       <use xlink:href="#DejaVuSans-2212"/>
       <use xlink:href="#DejaVuSans-32" x="83.789062"/>
      </g>
     </g>
    </g>
    <g id="xtick_6">
     <g id="line2d_6">
      <g>
       <use xlink:href="#m917c80e26b" x="281.496541" y="290.32" style="stroke: #000000"/>
      </g>
     </g>
     <g id="text_6">
      <!-- 0 -->
      <g transform="translate(278.156228 303.898359) scale(0.105 -0.105)">
       <use xlink:href="#DejaVuSans-30"/>
      </g>
     </g>
    </g>
    <g id="xtick_7">
     <g id="line2d_7">
      <g>
       <use xlink:href="#m917c80e26b" x="321.441329" y="290.32" style="stroke: #000000"/>
      </g>
     </g>
     <g id="text_7">
      <!-- 2 -->
      <g transform="translate(318.101017 303.898359) scale(0.105 -0.105)">
       <use xlink:href="#DejaVuSans-32"/>
      </g>
     </g>
    </g>
    <g id="xtick_8">
     <g id="line2d_8">
      <g>
       <use xlink:href="#m917c80e26b" x="361.386118" y="290.32" style="stroke: #000000"/>
      </g>
     </g>
     <g id="text_8">
      <!-- 4 -->
      <g transform="translate(358.045805 303.898359) scale(0.105 -0.105)">
       <use xlink:href="#DejaVuSans-34"/>
      </g>
     </g>
    </g>
   </g>
   <g id="matplotlib.axis_2">
    <g id="ytick_1">
     <g id="line2d_9">
      <defs>
       <path id="m0be06304fe" d="M 0 0 
L 3 0 
" style="stroke: #000000"/>
      </defs>
      <g>
       <use xlink:href="#m0be06304fe" x="72.18257" y="273.762064" style="stroke: #000000"/>
      </g>
     </g>
     <g id="text_9">
      <!-- −6 -->
      <g transform="translate(51.103274 277.751244) scale(0.105 -0.105)">
       <use xlink:href="#DejaVuSans-2212"/>
       <use xlink:href="#DejaVuSans-36" x="83.789062"/>
      </g>
     </g>
    </g>
    <g id="ytick_2">
     <g id="line2d_10">
      <g>
       <use xlink:href="#m0be06304fe" x="72.18257" y="233.817276" style="stroke: #000000"/>
      </g>
     </g>
     <g id="text_10">
      <!-- −4 -->
      <g transform="translate(51.103274 237.806455) scale(0.105 -0.105)">
       <use xlink:href="#DejaVuSans-2212"/>
       <use xlink:href="#DejaVuSans-34" x="83.789062"/>
      </g>
     </g>
    </g>
    <g id="ytick_3">
     <g id="line2d_11">
      <g>
       <use xlink:href="#m0be06304fe" x="72.18257" y="193.872487" style="stroke: #000000"/>
      </g>
     </g>
     <g id="text_11">
      <!-- −2 -->
      <g transform="translate(51.103274 197.861667) scale(0.105 -0.105)">
       <use xlink:href="#DejaVuSans-2212"/>
       <use xlink:href="#DejaVuSans-32" x="83.789062"/>
      </g>
     </g>
    </g>
    <g id="ytick_4">
     <g id="line2d_12">
      <g>
       <use xlink:href="#m0be06304fe" x="72.18257" y="153.927699" style="stroke: #000000"/>
      </g>
     </g>
     <g id="text_12">
      <!-- 0 -->
      <g transform="translate(59.901945 157.916878) scale(0.105 -0.105)">
       <use xlink:href="#DejaVuSans-30"/>
      </g>
     </g>
    </g>
    <g id="ytick_5">
     <g id="line2d_13">
      <g>
       <use xlink:href="#m0be06304fe" x="72.18257" y="113.98291" style="stroke: #000000"/>
      </g>
     </g>
     <g id="text_13">
      <!-- 2 -->
      <g transform="translate(59.901945 117.97209) scale(0.105 -0.105)">
       <use xlink:href="#DejaVuSans-32"/>
      </g>
     </g>
    </g>
    <g id="ytick_6">
     <g id="line2d_14">
      <g>
       <use xlink:href="#m0be06304fe" x="72.18257" y="74.038122" style="stroke: #000000"/>
      </g>
     </g>
     <g id="text_14">
      <!-- 4 -->
      <g transform="translate(59.901945 78.027301) scale(0.105 -0.105)">
       <use xlink:href="#DejaVuSans-34"/>
      </g>
     </g>
    </g>
    <g id="ytick_7">
     <g id="line2d_15">
      <g>
       <use xlink:href="#m0be06304fe" x="72.18257" y="34.093333" style="stroke: #000000"/>
      </g>
     </g>
     <g id="text_15">
      <!-- 6 -->
      <g transform="translate(59.901945 38.082513) scale(0.105 -0.105)">
       <use xlink:href="#DejaVuSans-36"/>
      </g>
     </g>
    </g>
   </g>
   <g id="patch_3">
    <path d="M 72.18257 290.32 
L 72.18257 10.8 
" style="fill: none; stroke: #000000; stroke-width: 0.8; stroke-linejoin: miter; stroke-linecap: square"/>
   </g>
   <g id="patch_4">
    <path d="M 388.61743 290.32 
L 388.61743 10.8 
" style="fill: none; stroke: #000000; stroke-width: 0.8; stroke-linejoin: miter; stroke-linecap: square"/>
   </g>
   <g id="patch_5">
    <path d="M 72.18257 290.32 
L 388.61743 290.32 
" style="fill: none; stroke: #000000; stroke-width: 0.8; stroke-linejoin: miter; stroke-linecap: square"/>
   </g>
   <g id="patch_6">
    <path d="M 72.18257 10.8 
L 388.61743 10.8 
" style="fill: none; stroke: #000000; stroke-width: 0.8; stroke-linejoin: miter; stroke-linecap: square"/>
   </g>
  </g>
 </g>
 <defs>
  <clipPath id="paf2d63c200">
   <rect x="72.18257" y="10.8" width="316.434859" height="279.52"/>
  </clipPath>
 </defs>
</svg>
