<?xml version="1.0" encoding="utf-8" standalone="no"?>
<!DOCTYPE svg PUBLIC "-//W3C//DTD SVG 1.1//EN"
  "http://www.w3.org/Graphics/SVG/1.1/DTD/svg11.dtd">
<svg xmlns:xlink="http://www.w3.org/1999/xlink" width="460.8pt" height="316.8pt" viewBox="0 0 460.8 316.8" xmlns="http://www.w3.org/2000/svg" version="1.1">
 <metadata>
  <rdf:RDF xmlns:dc="http://purl.org/dc/elements/1.1/" xmlns:cc="http://creativecommons.org/ns#" xmlns:rdf="http://www.w3.org/1999/02/22-rdf-syntax-ns#">
   <cc:Work>
    <dc:type rdf:resource="http://purl.org/dc/dcmitype/StillImage"/>
    <dc:date>2024-01-11T15:52:48.361724</dc:date>
    <dc:format>image/svg+xml</dc:format>
    <dc:creator>
     <cc:Agent>
      <dc:title>Matplotlib v3.7.2, https://matplotlib.org/</dc:title>
     </cc:Agent>
    </dc:creator>
   </cc:Work>
  </rdf:RDF>
 </metadata>
 <defs>
  <style type="text/css">*{stroke-linejoin: round; stroke-linecap: butt}</style>
 </defs>
 <g id="figure_1">
  <g id="patch_1">
   <path d="M 0 316.8 
L 460.8 316.8 
L 460.8 0 
L 0 0 
z
" style="fill: #ffffff"/>
  </g>
  <g id="axes_1">
   <g id="patch_2">
    <path d="M 58.426546 290.32 
L 402.373454 290.32 
L 402.373454 10.8 
L 58.426546 10.8 
z
" style="fill: #ffffff"/>
   </g>
   <g id="PatchCollection_1">
    <path d="M 285.939068 164.346553 
L 340.211243 164.346553 
L 340.211243 34.093333 
L 285.939068 34.093333 
z
" clip-path="url(#pe2547532f4)" style="fill: #ffffff; stroke: #0000ff; stroke-width: 3"/>
    <path d="M 238.179554 155.663005 
L 280.338179 155.663005 
L 280.338179 53.870114 
L 238.179554 53.870114 
z
" clip-path="url(#pe2547532f4)" style="fill: #ff0000; stroke: #ff0000; stroke-width: 2"/>
    <path d="M 335.869469 157.833892 
L 377.867668 161.508259 
L 386.739503 60.10272 
L 344.741304 56.428354 
z
" clip-path="url(#pe2547532f4)" style="fill: #ff0000; stroke: #ff0000; stroke-width: 2"/>
   </g>
   <g id="PatchCollection_2">
    <path d="M 74.060497 228.843606 
L 175.853388 228.843606 
L 175.853388 186.684981 
L 74.060497 186.684981 
L 74.060497 228.843606 
z
" clip-path="url(#pe2547532f4)" style="fill: none; stroke: #000000; stroke-width: 0.5"/>
    <path d="M 77.454133 225.381345 
L 179.151569 229.788638 
L 180.976896 187.669546 
L 79.27946 183.262254 
L 77.454133 225.381345 
z
" clip-path="url(#pe2547532f4)" style="fill: none; stroke: #000000; stroke-width: 0.5"/>
    <path d="M 80.994172 222.069214 
L 182.405421 230.875543 
L 186.052657 188.874979 
L 84.641409 180.06865 
L 80.994172 222.069214 
z
" clip-path="url(#pe2547532f4)" style="fill: none; stroke: #000000; stroke-width: 0.5"/>
    <path d="M 84.674513 218.913495 
L 185.609376 232.102364 
L 191.071689 190.299101 
L 90.136826 177.110231 
L 84.674513 218.913495 
z
" clip-path="url(#pe2547532f4)" style="fill: none; stroke: #000000; stroke-width: 0.5"/>
    <path d="M 88.488116 215.920155 
L 188.757297 233.46678 
L 196.024421 191.939215 
L 95.75524 174.392591 
L 88.488116 215.920155 
z
" clip-path="url(#pe2547532f4)" style="fill: none; stroke: #000000; stroke-width: 0.5"/>
    <path d="M 92.427632 213.094663 
L 191.843081 234.966134 
L 200.901387 193.792152 
L 101.485938 171.920681 
L 92.427632 213.094663 
z
" clip-path="url(#pe2547532f4)" style="fill: none; stroke: #000000; stroke-width: 0.5"/>
    <path d="M 96.485859 210.442333 
L 194.861125 236.597632 
L 205.693625 195.854453 
L 107.318358 169.699154 
L 96.485859 210.442333 
z
" clip-path="url(#pe2547532f4)" style="fill: none; stroke: #000000; stroke-width: 0.5"/>
    <path d="M 100.655085 207.96841 
L 197.80564 238.35858 
L 210.392058 198.122629 
L 113.241503 167.732458 
L 100.655085 207.96841 
z
" clip-path="url(#pe2547532f4)" style="fill: none; stroke: #000000; stroke-width: 0.5"/>
    <path d="M 104.612265 212.343629 
L 202.839707 239.048729 
L 213.899913 198.366772 
L 115.672471 171.661673 
L 104.612265 212.343629 
z
" clip-path="url(#pe2547532f4)" style="fill: none; stroke: #000000; stroke-width: 0.5"/>
    <path d="M 108.750428 217.015556 
L 208.041995 239.442713 
L 217.330444 198.320038 
L 118.038877 175.892881 
L 108.750428 217.015556 
z
" clip-path="url(#pe2547532f4)" style="fill: none; stroke: #000000; stroke-width: 0.5"/>
    <path d="M 113.087002 221.503986 
L 213.256477 239.611139 
L 220.75575 198.124868 
L 120.586275 180.017716 
L 113.087002 221.503986 
z
" clip-path="url(#pe2547532f4)" style="fill: none; stroke: #000000; stroke-width: 0.5"/>
    <path d="M 117.613816 225.80056 
L 218.473335 239.553749 
L 224.169367 197.78169 
L 123.309848 184.028501 
L 117.613816 225.80056 
z
" clip-path="url(#pe2547532f4)" style="fill: none; stroke: #000000; stroke-width: 0.5"/>
    <path d="M 122.322408 229.896985 
L 223.682816 239.270366 
L 227.564904 197.290858 
L 126.204495 187.917477 
L 122.322408 229.896985 
z
" clip-path="url(#pe2547532f4)" style="fill: none; stroke: #000000; stroke-width: 0.5"/>
    <path d="M 127.203789 233.785761 
L 228.874984 238.761785 
L 230.935858 196.653562 
L 129.264663 191.677537 
L 127.203789 233.785761 
z
" clip-path="url(#pe2547532f4)" style="fill: none; stroke: #000000; stroke-width: 0.5"/>
    <path d="M 132.249126 237.459533 
L 234.040425 238.028862 
L 234.276218 195.870896 
L 132.484919 195.301567 
L 132.249126 237.459533 
z
" clip-path="url(#pe2547532f4)" style="fill: none; stroke: #000000; stroke-width: 0.5"/>
    <path d="M 137.448853 240.911403 
L 239.169348 237.072971 
L 237.57962 194.944329 
L 135.859125 198.782761 
L 137.448853 240.911403 
z
" clip-path="url(#pe2547532f4)" style="fill: none; stroke: #000000; stroke-width: 0.5"/>
    <path d="M 142.792903 244.134769 
L 244.251819 235.895778 
L 240.839552 193.875472 
L 139.380636 202.114463 
L 142.792903 244.134769 
z
" clip-path="url(#pe2547532f4)" style="fill: none; stroke: #000000; stroke-width: 0.5"/>
    <path d="M 148.271805 247.124017 
L 249.278853 234.49988 
L 244.05043 192.666719 
L 143.043382 205.290857 
L 148.271805 247.124017 
z
" clip-path="url(#pe2547532f4)" style="fill: none; stroke: #000000; stroke-width: 0.5"/>
    <path d="M 153.874896 249.873084 
L 254.240647 232.887536 
L 247.205899 191.319976 
L 146.840148 208.305524 
L 153.874896 249.873084 
z
" clip-path="url(#pe2547532f4)" style="fill: none; stroke: #000000; stroke-width: 0.5"/>
    <path d="M 159.591504 252.377008 
L 259.127724 231.061907 
L 250.299845 189.837906 
L 150.763624 211.153007 
L 159.591504 252.377008 
z
" clip-path="url(#pe2547532f4)" style="fill: none; stroke: #000000; stroke-width: 0.5"/>
    <path d="M 165.411534 254.630905 
L 263.931548 229.026226 
L 253.327093 188.223098 
L 154.807079 213.827777 
L 165.411534 254.630905 
z
" clip-path="url(#pe2547532f4)" style="fill: none; stroke: #000000; stroke-width: 0.5"/>
    <path d="M 171.323587 256.630961 
L 268.642594 226.784626 
L 256.281412 186.478908 
L 158.962405 216.325243 
L 171.323587 256.630961 
z
" clip-path="url(#pe2547532f4)" style="fill: none; stroke: #000000; stroke-width: 0.5"/>
    <path d="M 177.316528 258.373071 
L 273.252034 224.341155 
L 259.157349 184.608429 
L 163.221842 218.640344 
L 177.316528 258.373071 
z
" clip-path="url(#pe2547532f4)" style="fill: none; stroke: #000000; stroke-width: 0.5"/>
    <path d="M 183.379308 259.853939 
L 277.751392 221.700268 
L 261.949637 182.61505 
L 167.577553 220.768721 
L 183.379308 259.853939 
z
" clip-path="url(#pe2547532f4)" style="fill: none; stroke: #000000; stroke-width: 0.5"/>
    <path d="M 189.500596 261.071013 
L 282.132265 218.867143 
L 264.653077 180.502737 
L 172.021408 222.706607 
L 189.500596 261.071013 
z
" clip-path="url(#pe2547532f4)" style="fill: none; stroke: #000000; stroke-width: 0.5"/>
    <path d="M 195.668876 262.021981 
L 286.386357 215.846973 
L 267.262479 178.275348 
L 176.544998 224.450356 
L 195.668876 262.021981 
z
" clip-path="url(#pe2547532f4)" style="fill: none; stroke: #000000; stroke-width: 0.5"/>
    <path d="M 201.872671 262.704959 
L 290.505869 212.645504 
L 269.773205 175.937108 
L 181.140007 225.996562 
L 201.872671 262.704959 
z
" clip-path="url(#pe2547532f4)" style="fill: none; stroke: #000000; stroke-width: 0.5"/>
    <path d="M 208.099989 263.118669 
L 294.482675 209.268653 
L 272.180109 173.492331 
L 185.797423 227.342347 
L 208.099989 263.118669 
z
" clip-path="url(#pe2547532f4)" style="fill: none; stroke: #000000; stroke-width: 0.5"/>
    <path d="M 214.339437 263.262412 
L 298.309605 205.722828 
L 274.478965 170.945676 
L 190.508797 228.48526 
L 214.339437 263.262412 
z
" clip-path="url(#pe2547532f4)" style="fill: none; stroke: #000000; stroke-width: 0.5"/>
    <path d="M 220.579314 263.135968 
L 301.979418 202.014648 
L 276.665364 168.301916 
L 195.265259 229.423235 
L 220.579314 263.135968 
z
" clip-path="url(#pe2547532f4)" style="fill: none; stroke: #000000; stroke-width: 0.5"/>
    <path d="M 226.807807 262.739184 
L 305.485243 198.150843 
L 278.735284 165.565733 
L 200.057848 230.154073 
L 226.807807 262.739184 
z
" clip-path="url(#pe2547532f4)" style="fill: none; stroke: #000000; stroke-width: 0.5"/>
    <path d="M 233.013287 262.073385 
L 308.820499 194.139156 
L 280.684804 162.74278 
L 204.877593 230.677009 
L 233.013287 262.073385 
z
" clip-path="url(#pe2547532f4)" style="fill: none; stroke: #000000; stroke-width: 0.5"/>
    <path d="M 239.184125 261.13943 
L 311.978938 189.986721 
L 282.510275 159.837963 
L 209.715462 230.990672 
L 239.184125 261.13943 
z
" clip-path="url(#pe2547532f4)" style="fill: none; stroke: #000000; stroke-width: 0.5"/>
    <path d="M 245.308715 259.939098 
L 314.954605 185.701354 
L 284.208242 156.856756 
L 214.562351 231.0945 
L 245.308715 259.939098 
z
" clip-path="url(#pe2547532f4)" style="fill: none; stroke: #000000; stroke-width: 0.5"/>
    <path d="M 251.375685 258.474806 
L 317.741957 181.29119 
L 285.775529 153.804881 
L 219.409257 230.988497 
L 251.375685 258.474806 
z
" clip-path="url(#pe2547532f4)" style="fill: none; stroke: #000000; stroke-width: 0.5"/>
    <path d="M 257.373469 256.749181 
L 320.33573 176.764517 
L 287.209217 150.688016 
L 224.246956 230.67268 
L 257.373469 256.749181 
z
" clip-path="url(#pe2547532f4)" style="fill: none; stroke: #000000; stroke-width: 0.5"/>
    <path d="M 263.290947 254.765472 
L 322.731114 172.12977 
L 288.506645 147.511983 
L 229.066478 230.147685 
L 263.290947 254.765472 
z
" clip-path="url(#pe2547532f4)" style="fill: none; stroke: #000000; stroke-width: 0.5"/>
    <path d="M 269.116974 252.527423 
L 324.923568 167.395662 
L 289.66533 144.282758 
L 233.858736 229.414519 
L 269.116974 252.527423 
z
" clip-path="url(#pe2547532f4)" style="fill: none; stroke: #000000; stroke-width: 0.5"/>
    <path d="M 274.840461 250.039199 
L 326.908995 162.571144 
L 290.683155 141.006399 
L 238.614621 228.474453 
L 274.840461 250.039199 
z
" clip-path="url(#pe2547532f4)" style="fill: none; stroke: #000000; stroke-width: 0.5"/>
    <path d="M 280.451032 247.305527 
L 328.683682 157.665111 
L 291.558135 137.689038 
L 243.325485 227.329454 
L 280.451032 247.305527 
z
" clip-path="url(#pe2547532f4)" style="fill: none; stroke: #000000; stroke-width: 0.5"/>
    <path d="M 285.937963 244.331497 
L 330.244271 152.686836 
L 292.288645 134.3369 
L 247.982337 225.981561 
L 285.937963 244.331497 
z
" clip-path="url(#pe2547532f4)" style="fill: none; stroke: #000000; stroke-width: 0.5"/>
    <path d="M 291.29099 241.122701 
L 331.587861 147.645672 
L 292.87334 130.956287 
L 252.576469 224.433316 
L 291.29099 241.122701 
z
" clip-path="url(#pe2547532f4)" style="fill: none; stroke: #000000; stroke-width: 0.5"/>
    <path d="M 296.500072 237.685146 
L 332.71193 142.551061 
L 293.311122 127.553529 
L 257.099263 222.687613 
L 296.500072 237.685146 
z
" clip-path="url(#pe2547532f4)" style="fill: none; stroke: #000000; stroke-width: 0.5"/>
    <path d="M 300.99996 235.674639 
L 333.058893 139.06192 
L 293.045691 125.784366 
L 260.986759 222.397086 
L 300.99996 235.674639 
z
" clip-path="url(#pe2547532f4)" style="fill: none; stroke: #000000; stroke-width: 0.5"/>
    <path d="M 303.401849 239.885864 
L 331.24773 141.975703 
L 290.697179 130.44303 
L 262.851298 228.353192 
L 303.401849 239.885864 
z
" clip-path="url(#pe2547532f4)" style="fill: none; stroke: #000000; stroke-width: 0.5"/>
    <path d="M 305.983822 243.989132 
L 329.564427 144.965156 
L 288.552578 135.198994 
L 264.971973 234.22297 
L 305.983822 243.989132 
z
" clip-path="url(#pe2547532f4)" style="fill: none; stroke: #000000; stroke-width: 0.5"/>
    <path d="M 308.741029 247.976756 
L 328.012135 148.024681 
L 286.615903 140.043344 
L 267.344798 239.995419 
L 308.741029 247.976756 
z
" clip-path="url(#pe2547532f4)" style="fill: none; stroke: #000000; stroke-width: 0.5"/>
    <path d="M 311.668279 251.84126 
L 326.593743 151.148543 
L 284.890766 144.967001 
L 269.965303 245.659718 
L 311.668279 251.84126 
z
" clip-path="url(#pe2547532f4)" style="fill: none; stroke: #000000; stroke-width: 0.5"/>
    <path d="M 314.760972 255.575302 
L 325.311789 154.330682 
L 283.380236 149.960948 
L 272.829419 251.205568 
L 314.760972 255.575302 
z
" clip-path="url(#pe2547532f4)" style="fill: none; stroke: #000000; stroke-width: 0.5"/>
    <path d="M 318.011576 259.172049 
L 324.168965 157.565556 
L 282.087539 155.015407 
L 275.93015 256.6219 
L 318.011576 259.172049 
z
" clip-path="url(#pe2547532f4)" style="fill: none; stroke: #000000; stroke-width: 0.5"/>
    <path d="M 321.414876 262.62467 
L 323.167289 160.846864 
L 281.014912 160.121083 
L 279.262499 261.898889 
L 321.414876 262.62467 
z
" clip-path="url(#pe2547532f4)" style="fill: none; stroke: #000000; stroke-width: 0.5"/>
    <path d="M 324.964464 265.926718 
L 322.308615 164.168479 
L 280.164341 165.268428 
L 282.82019 267.026667 
L 324.964464 265.926718 
z
" clip-path="url(#pe2547532f4)" style="fill: none; stroke: #000000; stroke-width: 0.5"/>
    <path d="M 321.888347 263.082591 
L 323.04228 161.296241 
L 280.886363 160.818327 
L 279.732431 262.604678 
L 321.888347 263.082591 
z
" clip-path="url(#pe2547532f4)" style="fill: none; stroke: #000000; stroke-width: 0.5"/>
    <path d="M 318.921613 260.125185 
L 323.882695 158.45326 
L 281.774169 156.398574 
L 276.813087 258.0705 
L 318.921613 260.125185 
z
" clip-path="url(#pe2547532f4)" style="fill: none; stroke: #000000; stroke-width: 0.5"/>
    <path d="M 316.066776 257.058976 
L 324.829074 155.643914 
L 282.82693 152.014913 
L 274.064632 253.429976 
L 316.066776 257.058976 
z
" clip-path="url(#pe2547532f4)" style="fill: none; stroke: #000000; stroke-width: 0.5"/>
    <path d="M 314.491756 253.726384 
L 325.623539 152.543994 
L 283.717759 147.933645 
L 272.585976 249.116036 
L 314.491756 253.726384 
z
" clip-path="url(#pe2547532f4)" style="fill: none; stroke: #000000; stroke-width: 0.5"/>
    <path d="M 314.891568 250.092406 
L 326.023352 148.910016 
L 284.117572 144.299667 
L 272.985788 245.482058 
L 314.891568 250.092406 
z
" clip-path="url(#pe2547532f4)" style="fill: none; stroke: #000000; stroke-width: 0.5"/>
    <path d="M 315.29138 246.458413 
L 326.423164 145.276023 
L 284.517384 140.665674 
L 273.3856 241.848065 
L 315.29138 246.458413 
z
" clip-path="url(#pe2547532f4)" style="fill: none; stroke: #000000; stroke-width: 0.5"/>
    <path d="M 315.691193 242.824429 
L 326.822976 141.642038 
L 284.917196 137.03169 
L 273.785413 238.21408 
L 315.691193 242.824429 
z
" clip-path="url(#pe2547532f4)" style="fill: none; stroke: #000000; stroke-width: 0.5"/>
    <path d="M 316.091005 239.190451 
L 327.222788 138.00806 
L 285.317008 133.397712 
L 274.185225 234.580102 
L 316.091005 239.190451 
z
" clip-path="url(#pe2547532f4)" style="fill: none; stroke: #000000; stroke-width: 0.5"/>
    <path d="M 316.490817 235.556451 
L 327.622601 134.37406 
L 285.716821 129.763712 
L 274.585037 230.946103 
L 316.490817 235.556451 
z
" clip-path="url(#pe2547532f4)" style="fill: none; stroke: #000000; stroke-width: 0.5"/>
    <path d="M 316.890629 231.922473 
L 328.022413 130.740082 
L 286.116633 126.129734 
L 274.984849 227.312125 
L 316.890629 231.922473 
z
" clip-path="url(#pe2547532f4)" style="fill: none; stroke: #000000; stroke-width: 0.5"/>
    <path d="M 317.290442 228.288495 
L 328.422225 127.106104 
L 286.516445 122.495756 
L 275.384662 223.678147 
L 317.290442 228.288495 
z
" clip-path="url(#pe2547532f4)" style="fill: none; stroke: #000000; stroke-width: 0.5"/>
    <path d="M 317.690254 224.65456 
L 328.822037 123.47217 
L 286.916257 118.861821 
L 275.784474 220.044212 
L 317.690254 224.65456 
z
" clip-path="url(#pe2547532f4)" style="fill: none; stroke: #000000; stroke-width: 0.5"/>
    <path d="M 318.090066 221.020495 
L 329.22185 119.838105 
L 287.31607 115.227757 
L 276.184286 216.410147 
L 318.090066 221.020495 
z
" clip-path="url(#pe2547532f4)" style="fill: none; stroke: #000000; stroke-width: 0.5"/>
    <path d="M 318.489878 217.386431 
L 329.621662 116.20404 
L 287.715882 111.593692 
L 276.584099 212.776082 
L 318.489878 217.386431 
z
" clip-path="url(#pe2547532f4)" style="fill: none; stroke: #000000; stroke-width: 0.5"/>
    <path d="M 318.889691 213.752583 
L 330.021474 112.570192 
L 288.115694 107.959844 
L 276.983911 209.142235 
L 318.889691 213.752583 
z
" clip-path="url(#pe2547532f4)" style="fill: none; stroke: #000000; stroke-width: 0.5"/>
    <path d="M 319.289503 210.118518 
L 330.421286 108.936128 
L 288.515506 104.325779 
L 277.383723 205.50817 
L 319.289503 210.118518 
z
" clip-path="url(#pe2547532f4)" style="fill: none; stroke: #000000; stroke-width: 0.5"/>
    <path d="M 319.689272 206.48467 
L 330.821055 105.30228 
L 288.915275 100.691931 
L 277.783492 201.874322 
L 319.689272 206.48467 
z
" clip-path="url(#pe2547532f4)" style="fill: none; stroke: #000000; stroke-width: 0.5"/>
    <path d="M 320.089149 202.850605 
L 331.220933 101.668215 
L 289.315153 97.057867 
L 278.183369 198.240257 
L 320.089149 202.850605 
z
" clip-path="url(#pe2547532f4)" style="fill: none; stroke: #000000; stroke-width: 0.5"/>
    <path d="M 320.489027 199.216541 
L 331.62081 98.03415 
L 289.71503 93.423802 
L 278.583247 194.606192 
L 320.489027 199.216541 
z
" clip-path="url(#pe2547532f4)" style="fill: none; stroke: #000000; stroke-width: 0.5"/>
    <path d="M 320.888687 195.582693 
L 332.02047 94.400302 
L 290.11469 89.789954 
L 278.982907 190.972344 
L 320.888687 195.582693 
z
" clip-path="url(#pe2547532f4)" style="fill: none; stroke: #000000; stroke-width: 0.5"/>
    <path d="M 321.288564 191.948628 
L 332.420348 90.766238 
L 290.514568 86.155889 
L 279.382784 187.33828 
L 321.288564 191.948628 
z
" clip-path="url(#pe2547532f4)" style="fill: none; stroke: #000000; stroke-width: 0.5"/>
    <path d="M 321.688442 188.314563 
L 332.820225 87.132173 
L 290.914445 82.521824 
L 279.782662 183.704215 
L 321.688442 188.314563 
z
" clip-path="url(#pe2547532f4)" style="fill: none; stroke: #000000; stroke-width: 0.5"/>
    <path d="M 322.088102 184.680715 
L 333.219885 83.498325 
L 291.314105 78.887977 
L 280.182322 180.070367 
L 322.088102 184.680715 
z
" clip-path="url(#pe2547532f4)" style="fill: none; stroke: #000000; stroke-width: 0.5"/>
    <path d="M 322.487979 181.046651 
L 333.619763 79.86426 
L 291.713983 75.253912 
L 280.582199 176.436302 
L 322.487979 181.046651 
z
" clip-path="url(#pe2547532f4)" style="fill: none; stroke: #000000; stroke-width: 0.5"/>
    <path d="M 322.887857 177.412803 
L 334.01964 76.230412 
L 292.11386 71.620064 
L 280.982077 172.802454 
L 322.887857 177.412803 
z
" clip-path="url(#pe2547532f4)" style="fill: none; stroke: #000000; stroke-width: 0.5"/>
    <path d="M 323.287517 173.778738 
L 334.4193 72.596348 
L 292.51352 67.985999 
L 281.381737 169.16839 
L 323.287517 173.778738 
z
" clip-path="url(#pe2547532f4)" style="fill: none; stroke: #000000; stroke-width: 0.5"/>
    <path d="M 323.687394 170.144673 
L 334.819178 68.962283 
L 292.913398 64.351934 
L 281.781614 165.534325 
L 323.687394 170.144673 
z
" clip-path="url(#pe2547532f4)" style="fill: none; stroke: #000000; stroke-width: 0.5"/>
    <path d="M 324.087272 166.510825 
L 335.219055 65.328435 
L 293.313275 60.718087 
L 282.181492 161.900477 
L 324.087272 166.510825 
z
" clip-path="url(#pe2547532f4)" style="fill: none; stroke: #000000; stroke-width: 0.5"/>
    <path d="M 324.487149 162.876761 
L 335.618933 61.69437 
L 293.713153 57.084022 
L 282.581369 158.266412 
L 324.487149 162.876761 
z
" clip-path="url(#pe2547532f4)" style="fill: none; stroke: #000000; stroke-width: 0.5"/>
    <path d="M 327.718266 158.769135 
L 335.329978 57.261232 
L 293.289384 54.108759 
L 285.677671 155.616662 
L 327.718266 158.769135 
z
" clip-path="url(#pe2547532f4)" style="fill: none; stroke: #000000; stroke-width: 0.5"/>
    <path d="M 331.0171 154.503088 
L 334.825945 52.78148 
L 292.696842 51.204006 
L 288.887997 152.925614 
L 331.0171 154.503088 
z
" clip-path="url(#pe2547532f4)" style="fill: none; stroke: #000000; stroke-width: 0.5"/>
    <path d="M 334.154768 150.116312 
L 334.154394 48.32342 
L 291.995769 48.323575 
L 291.996142 150.116466 
L 334.154768 150.116312 
z
" clip-path="url(#pe2547532f4)" style="fill: none; stroke: #000000; stroke-width: 0.5"/>
   </g>
   <g id="PatchCollection_3">
    <path d="M 182.279214 207.764293 
L 177.394718 209.392459 
L 177.394718 208.307015 
L 155.685848 208.307015 
L 155.685848 207.221572 
L 177.394718 207.221572 
L 177.394718 206.136128 
z
" clip-path="url(#pe2547532f4)" style="fill: #ff0000; stroke: #ff0000; stroke-width: 0.24"/>
    <path d="M 186.484032 209.007309 
L 181.533623 210.422465 
L 181.580619 209.338039 
L 159.892106 208.398118 
L 159.939102 207.313692 
L 181.627615 208.253613 
L 181.674611 207.169188 
z
" clip-path="url(#pe2547532f4)" style="fill: #ff0000; stroke: #ff0000; stroke-width: 0.24"/>
    <path d="M 190.630773 210.431173 
L 185.623734 211.630665 
L 185.717638 210.549291 
L 164.090159 208.671209 
L 164.184063 207.589835 
L 185.811542 209.467917 
L 185.905446 208.386544 
z
" clip-path="url(#pe2547532f4)" style="fill: #ff0000; stroke: #ff0000; stroke-width: 0.24"/>
    <path d="M 194.712193 212.033299 
L 189.657915 213.014877 
L 189.798552 211.938583 
L 168.272669 209.125858 
L 168.413306 208.049564 
L 189.939188 210.862289 
L 190.079824 209.785995 
z
" clip-path="url(#pe2547532f4)" style="fill: #ff0000; stroke: #ff0000; stroke-width: 0.24"/>
    <path d="M 198.720498 213.810654 
L 193.628461 214.572479 
L 193.815565 213.503283 
L 172.431649 209.761201 
L 172.618753 208.692005 
L 194.002669 212.434087 
L 194.189773 211.364891 
z
" clip-path="url(#pe2547532f4)" style="fill: #ff0000; stroke: #ff0000; stroke-width: 0.24"/>
    <path d="M 202.64798 215.759812 
L 197.527733 216.300455 
L 197.760954 215.240363 
L 176.55911 210.575942 
L 176.792331 209.515849 
L 197.994175 214.180271 
L 198.227396 213.120178 
z
" clip-path="url(#pe2547532f4)" style="fill: #ff0000; stroke: #ff0000; stroke-width: 0.24"/>
    <path d="M 206.487458 217.877134 
L 201.348605 218.195582 
L 201.627506 217.146582 
L 180.647496 211.56857 
L 180.926396 210.519569 
L 201.906406 216.097581 
L 202.185307 215.048581 
z
" clip-path="url(#pe2547532f4)" style="fill: #ff0000; stroke: #ff0000; stroke-width: 0.24"/>
    <path d="M 210.23162 220.159029 
L 205.083798 220.254679 
L 205.407856 219.218738 
L 184.689034 212.737575 
L 185.013093 211.701634 
L 205.731914 218.182796 
L 206.055972 217.146855 
z
" clip-path="url(#pe2547532f4)" style="fill: #ff0000; stroke: #ff0000; stroke-width: 0.24"/>
    <path d="M 214.570562 220.393549 
L 209.430008 220.683251 
L 209.714771 219.635826 
L 188.766287 213.940561 
L 189.05105 212.893137 
L 209.999534 218.588402 
L 210.284297 217.540978 
z
" clip-path="url(#pe2547532f4)" style="fill: #ff0000; stroke: #ff0000; stroke-width: 0.24"/>
    <path d="M 218.954145 220.297123 
L 213.830955 220.809121 
L 214.070102 219.750349 
L 192.894677 214.96742 
L 193.133823 213.908648 
L 214.309248 218.691578 
L 214.548395 217.632807 
z
" clip-path="url(#pe2547532f4)" style="fill: #ff0000; stroke: #ff0000; stroke-width: 0.24"/>
    <path d="M 223.329459 220.011044 
L 218.23324 220.744378 
L 218.426321 219.676245 
L 197.063669 215.814622 
L 197.256751 214.746489 
L 218.619402 218.608113 
L 218.812484 217.53998 
z
" clip-path="url(#pe2547532f4)" style="fill: #ff0000; stroke: #ff0000; stroke-width: 0.24"/>
    <path d="M 227.688256 219.53591 
L 222.628567 220.489204 
L 222.775221 219.413713 
L 201.265406 216.480638 
L 201.41206 215.405148 
L 222.921874 218.338223 
L 223.068528 217.262732 
z
" clip-path="url(#pe2547532f4)" style="fill: #ff0000; stroke: #ff0000; stroke-width: 0.24"/>
    <path d="M 232.022384 218.872321 
L 227.008715 220.04379 
L 227.108666 218.962958 
L 205.492029 216.963943 
L 205.59198 215.883111 
L 227.208617 217.882126 
L 227.308567 216.801295 
z
" clip-path="url(#pe2547532f4)" style="fill: #ff0000; stroke: #ff0000; stroke-width: 0.24"/>
    <path d="M 236.323564 218.021792 
L 231.365317 219.409238 
L 231.418378 218.325092 
L 209.735462 217.26388 
L 209.788522 216.179734 
L 231.471439 217.240947 
L 231.524499 216.156801 
z
" clip-path="url(#pe2547532f4)" style="fill: #ff0000; stroke: #ff0000; stroke-width: 0.24"/>
    <path d="M 240.584047 216.985818 
L 235.690521 218.586639 
L 235.696592 217.501213 
L 213.988061 217.379795 
L 213.994132 216.294368 
L 235.702663 216.415786 
L 235.708734 215.330359 
z
" clip-path="url(#pe2547532f4)" style="fill: #ff0000; stroke: #ff0000; stroke-width: 0.24"/>
    <path d="M 244.79574 215.766343 
L 239.976113 217.577536 
L 239.935183 216.492865 
L 218.241752 217.311468 
L 218.200822 216.226797 
L 239.894253 215.408193 
L 239.853322 214.323522 
z
" clip-path="url(#pe2547532f4)" style="fill: #ff0000; stroke: #ff0000; stroke-width: 0.24"/>
    <path d="M 248.950429 214.365527 
L 244.21374 216.383695 
L 244.125886 215.301813 
L 222.488241 217.058902 
L 222.400386 215.97702 
L 244.038031 214.219931 
L 243.950177 213.138048 
z
" clip-path="url(#pe2547532f4)" style="fill: #ff0000; stroke: #ff0000; stroke-width: 0.24"/>
    <path d="M 253.04086 212.786382 
L 248.395994 215.007743 
L 248.26138 213.930679 
L 226.720102 216.622967 
L 226.585488 215.545903 
L 248.126765 212.853615 
L 247.992151 211.776551 
z
" clip-path="url(#pe2547532f4)" style="fill: #ff0000; stroke: #ff0000; stroke-width: 0.24"/>
    <path d="M 257.059008 211.031519 
L 252.514675 213.451902 
L 252.333554 212.381677 
L 230.929043 216.004101 
L 230.747922 214.933876 
L 252.152433 211.311451 
L 251.971311 210.241226 
z
" clip-path="url(#pe2547532f4)" style="fill: #ff0000; stroke: #ff0000; stroke-width: 0.24"/>
    <path d="M 260.997154 209.104359 
L 256.561876 211.719227 
L 256.334588 210.657847 
L 235.106987 215.203614 
L 234.879699 214.142234 
L 256.1073 209.596467 
L 255.880011 208.535087 
z
" clip-path="url(#pe2547532f4)" style="fill: #ff0000; stroke: #ff0000; stroke-width: 0.24"/>
    <path d="M 264.848541 207.008329 
L 260.530636 209.812776 
L 260.257607 208.762232 
L 239.246728 214.222817 
L 238.973699 213.172273 
L 259.984578 207.711688 
L 259.711549 206.661144 
z
" clip-path="url(#pe2547532f4)" style="fill: #ff0000; stroke: #ff0000; stroke-width: 0.24"/>
    <path d="M 268.605408 204.747674 
L 264.412979 207.736445 
L 264.09472 206.698708 
L 243.339973 213.063889 
L 243.021714 212.026152 
L 263.77646 205.660971 
L 263.458201 204.623233 
z
" clip-path="url(#pe2547532f4)" style="fill: #ff0000; stroke: #ff0000; stroke-width: 0.24"/>
    <path d="M 272.260761 202.326477 
L 268.201666 205.493964 
L 267.838775 204.470979 
L 247.379081 211.728798 
L 247.01619 210.705814 
L 267.475884 203.447994 
L 267.112994 202.42501 
z
" clip-path="url(#pe2547532f4)" style="fill: #ff0000; stroke: #ff0000; stroke-width: 0.24"/>
    <path d="M 275.807891 199.749153 
L 271.889743 203.089413 
L 271.482901 202.0831 
L 251.35663 210.219946 
L 250.949788 209.213632 
L 271.076058 201.076786 
L 270.669216 200.070473 
z
" clip-path="url(#pe2547532f4)" style="fill: #ff0000; stroke: #ff0000; stroke-width: 0.24"/>
    <path d="M 279.240181 197.020759 
L 275.470329 200.527529 
L 275.020298 199.539774 
L 255.265197 208.540386 
L 254.815167 207.552631 
L 274.570268 198.552019 
L 274.120237 197.564264 
z
" clip-path="url(#pe2547532f4)" style="fill: #ff0000; stroke: #ff0000; stroke-width: 0.24"/>
    <path d="M 282.551092 194.146295 
L 278.93661 197.813002 
L 278.444234 196.845659 
L 259.097362 206.693176 
L 258.604986 205.725832 
L 277.951858 195.878315 
L 277.459482 194.910971 
z
" clip-path="url(#pe2547532f4)" style="fill: #ff0000; stroke: #ff0000; stroke-width: 0.24"/>
    <path d="M 285.734638 191.13123 
L 282.2823 194.950992 
L 281.748504 194.005874 
L 262.846137 204.681808 
L 262.31234 203.73669 
L 281.214707 193.060756 
L 280.68091 192.115637 
z
" clip-path="url(#pe2547532f4)" style="fill: #ff0000; stroke: #ff0000; stroke-width: 0.24"/>
    <path d="M 288.784426 187.981131 
L 285.500708 191.946786 
L 284.926491 191.025665 
L 266.50408 202.509994 
L 265.929864 201.588873 
L 284.352275 190.104545 
L 283.778059 189.183424 
z
" clip-path="url(#pe2547532f4)" style="fill: #ff0000; stroke: #ff0000; stroke-width: 0.24"/>
    <path d="M 291.695025 184.701981 
L 288.586085 188.806091 
L 287.972525 187.910695 
L 270.06462 200.18188 
L 269.451061 199.286485 
L 287.358966 187.0153 
L 286.745407 186.119905 
z
" clip-path="url(#pe2547532f4)" style="fill: #ff0000; stroke: #ff0000; stroke-width: 0.24"/>
    <path d="M 294.460892 181.299909 
L 291.532565 185.534779 
L 290.880813 184.666789 
L 273.521012 197.701833 
L 272.86926 196.833843 
L 290.229061 183.798799 
L 289.577309 182.930809 
z
" clip-path="url(#pe2547532f4)" style="fill: #ff0000; stroke: #ff0000; stroke-width: 0.24"/>
    <path d="M 297.076892 177.781054 
L 294.334666 182.138739 
L 293.645944 181.299781 
L 276.866794 195.07422 
L 276.178072 194.235262 
L 292.957223 180.460824 
L 292.268501 179.621866 
z
" clip-path="url(#pe2547532f4)" style="fill: #ff0000; stroke: #ff0000; stroke-width: 0.24"/>
    <path d="M 299.538093 174.15252 
L 296.98711 178.624847 
L 296.262711 177.816496 
L 280.095679 192.304495 
L 279.371279 191.496144 
L 295.538311 177.008144 
L 294.813911 176.199793 
z
" clip-path="url(#pe2547532f4)" style="fill: #ff0000; stroke: #ff0000; stroke-width: 0.24"/>
    <path d="M 301.839886 170.420723 
L 299.484932 174.999305 
L 298.726212 174.223075 
L 283.20162 189.397464 
L 282.442901 188.621234 
L 297.967493 173.446846 
L 297.208773 172.670616 
z
" clip-path="url(#pe2547532f4)" style="fill: #ff0000; stroke: #ff0000; stroke-width: 0.24"/>
    <path d="M 303.977922 166.592688 
L 301.823413 171.268938 
L 301.031797 170.526286 
L 286.17876 186.358605 
L 285.387144 185.615953 
L 300.240181 169.783634 
L 299.448565 169.040982 
z
" clip-path="url(#pe2547532f4)" style="fill: #ff0000; stroke: #ff0000; stroke-width: 0.24"/>
    <path d="M 305.948211 162.675706 
L 303.998192 167.440855 
L 303.175164 166.733175 
L 289.021555 183.193746 
L 288.198526 182.486065 
L 302.352135 166.025494 
L 301.529107 165.317814 
z
" clip-path="url(#pe2547532f4)" style="fill: #ff0000; stroke: #ff0000; stroke-width: 0.24"/>
    <path d="M 307.747059 158.677118 
L 306.005182 163.522227 
L 305.152285 162.850845 
L 291.724633 179.908781 
L 290.871736 179.237398 
L 304.299388 162.179462 
L 303.446492 161.508079 
z
" clip-path="url(#pe2547532f4)" style="fill: #ff0000; stroke: #ff0000; stroke-width: 0.24"/>
    <path d="M 309.371127 154.604376 
L 307.84066 159.52036 
L 306.959494 158.886534 
L 294.282982 176.509844 
L 293.401816 175.876019 
L 306.078329 158.252708 
L 305.197163 157.618883 
z
" clip-path="url(#pe2547532f4)" style="fill: #ff0000; stroke: #ff0000; stroke-width: 0.24"/>
    <path d="M 310.817322 150.465143 
L 309.501135 155.44278 
L 308.593353 154.8477 
L 296.691755 173.003332 
L 295.783974 172.408253 
L 307.685572 154.25262 
L 306.77779 153.65754 
z
" clip-path="url(#pe2547532f4)" style="fill: #ff0000; stroke: #ff0000; stroke-width: 0.24"/>
    <path d="M 312.082977 146.267222 
L 310.983528 151.297176 
L 310.050834 150.741956 
L 298.946434 169.395838 
L 298.01374 168.840618 
L 309.11814 150.186736 
L 308.185446 149.631516 
z
" clip-path="url(#pe2547532f4)" style="fill: #ff0000; stroke: #ff0000; stroke-width: 0.24"/>
    <path d="M 313.165665 142.018392 
L 312.285026 147.091231 
L 311.329168 146.576914 
L 301.042827 165.694085 
L 300.086969 165.179768 
L 310.373309 146.062597 
L 309.417451 145.54828 
z
" clip-path="url(#pe2547532f4)" style="fill: #ff0000; stroke: #ff0000; stroke-width: 0.24"/>
    <path d="M 314.063358 137.726664 
L 313.403182 142.832875 
L 312.425951 142.360426 
L 302.976963 161.905032 
L 301.999732 161.432583 
L 311.448721 141.887976 
L 310.471491 141.415527 
z
" clip-path="url(#pe2547532f4)" style="fill: #ff0000; stroke: #ff0000; stroke-width: 0.24"/>
    <path d="M 314.774399 133.400105 
L 314.335922 138.530111 
L 313.339153 138.100415 
L 304.745237 158.035802 
L 303.748468 157.606106 
L 312.342384 137.670719 
L 311.345614 137.241023 
z
" clip-path="url(#pe2547532f4)" style="fill: #ff0000; stroke: #ff0000; stroke-width: 0.24"/>
    <path d="M 315.297453 129.046816 
L 315.081498 134.190996 
L 314.067059 133.80486 
L 306.344334 154.093639 
L 305.329895 153.707503 
L 313.05262 133.418724 
L 312.038181 133.032587 
z
" clip-path="url(#pe2547532f4)" style="fill: #ff0000; stroke: #ff0000; stroke-width: 0.24"/>
    <path d="M 315.076059 126.324323 
L 315.083031 131.473029 
L 314.052825 131.131177 
L 307.215774 151.735297 
L 306.185568 151.393444 
L 313.022619 130.789324 
L 311.992413 130.447472 
z
" clip-path="url(#pe2547532f4)" style="fill: #ff0000; stroke: #ff0000; stroke-width: 0.24"/>
    <path d="M 312.730266 130.028644 
L 312.960153 135.17222 
L 311.916112 134.875292 
L 305.977558 155.756112 
L 304.933517 155.459184 
L 310.872071 134.578365 
L 309.82803 134.281437 
z
" clip-path="url(#pe2547532f4)" style="fill: #ff0000; stroke: #ff0000; stroke-width: 0.24"/>
    <path d="M 310.547063 133.831041 
L 310.999433 138.959841 
L 309.943515 138.708395 
L 304.914595 159.826752 
L 303.858677 159.575306 
L 308.887597 138.456949 
L 307.831679 138.205503 
z
" clip-path="url(#pe2547532f4)" style="fill: #ff0000; stroke: #ff0000; stroke-width: 0.24"/>
    <path d="M 308.530536 137.724391 
L 309.20454 142.828795 
L 308.138726 142.623303 
L 304.028872 163.939591 
L 302.963057 163.734098 
L 307.072911 142.41781 
L 306.007097 142.212317 
z
" clip-path="url(#pe2547532f4)" style="fill: #ff0000; stroke: #ff0000; stroke-width: 0.24"/>
    <path d="M 306.684446 141.701396 
L 307.578821 146.771832 
L 306.505109 146.612678 
L 303.322029 168.086919 
L 302.248317 167.927765 
L 305.431397 146.453524 
L 304.357685 146.294369 
z
" clip-path="url(#pe2547532f4)" style="fill: #ff0000; stroke: #ff0000; stroke-width: 0.24"/>
    <path d="M 305.012048 145.7546 
L 306.125166 150.781546 
L 305.045569 150.66904 
L 302.795449 172.260983 
L 301.715851 172.148477 
L 303.965972 150.556534 
L 302.886375 150.444028 
z
" clip-path="url(#pe2547532f4)" style="fill: #ff0000; stroke: #ff0000; stroke-width: 0.24"/>
    <path d="M 303.516946 149.876423 
L 304.84667 154.850461 
L 303.763214 154.784803 
L 302.450058 176.453921 
L 301.366602 176.388263 
L 302.679758 154.719145 
L 301.596302 154.653488 
z
" clip-path="url(#pe2547532f4)" style="fill: #ff0000; stroke: #ff0000; stroke-width: 0.24"/>
    <path d="M 302.201724 154.059101 
L 303.745559 158.970902 
L 302.660277 158.952216 
L 302.286548 180.657868 
L 301.201265 180.639182 
L 301.574994 158.933529 
L 300.489711 158.914843 
z
" clip-path="url(#pe2547532f4)" style="fill: #ff0000; stroke: #ff0000; stroke-width: 0.24"/>
    <path d="M 301.068823 158.294815 
L 302.823874 163.135168 
L 301.7388 163.163488 
L 302.3052 184.864968 
L 301.220126 184.893288 
L 300.653726 163.191808 
L 299.568652 163.220128 
z
" clip-path="url(#pe2547532f4)" style="fill: #ff0000; stroke: #ff0000; stroke-width: 0.24"/>
    <path d="M 302.037165 154.631871 
L 303.609855 159.53451 
L 302.524481 159.522205 
L 302.278388 181.22968 
L 301.193014 181.217376 
L 301.439108 159.509901 
L 300.353734 159.497596 
z
" clip-path="url(#pe2547532f4)" style="fill: #ff0000; stroke: #ff0000; stroke-width: 0.24"/>
    <path d="M 303.141607 151.007728 
L 304.529782 155.965771 
L 303.445628 155.91287 
L 302.387603 177.595942 
L 301.303449 177.54304 
L 302.361475 155.859968 
L 301.277321 155.807067 
z
" clip-path="url(#pe2547532f4)" style="fill: #ff0000; stroke: #ff0000; stroke-width: 0.24"/>
    <path d="M 304.381135 147.427439 
L 305.582801 152.433957 
L 304.501386 152.340522 
L 302.632694 173.968814 
L 301.55128 173.87538 
L 303.419972 152.247087 
L 302.338557 152.153653 
z
" clip-path="url(#pe2547532f4)" style="fill: #ff0000; stroke: #ff0000; stroke-width: 0.24"/>
    <path d="M 305.373359 143.851533 
L 306.457605 148.884786 
L 305.378672 148.766084 
L 303.004651 170.344756 
L 301.925717 170.226055 
L 304.299738 148.647383 
L 303.220804 148.528682 
z
" clip-path="url(#pe2547532f4)" style="fill: #ff0000; stroke: #ff0000; stroke-width: 0.24"/>
    <path d="M 305.773172 140.217555 
L 306.857417 145.250808 
L 305.778484 145.132106 
L 303.404463 166.710778 
L 302.325529 166.592077 
L 304.69955 145.013405 
L 303.620617 144.894704 
z
" clip-path="url(#pe2547532f4)" style="fill: #ff0000; stroke: #ff0000; stroke-width: 0.24"/>
    <path d="M 306.172984 136.583562 
L 307.25723 141.616814 
L 306.178296 141.498113 
L 303.804275 163.076785 
L 302.725342 162.958084 
L 305.099363 141.379412 
L 304.020429 141.260711 
z
" clip-path="url(#pe2547532f4)" style="fill: #ff0000; stroke: #ff0000; stroke-width: 0.24"/>
    <path d="M 306.572796 132.949577 
L 307.657042 137.98283 
L 306.578108 137.864129 
L 304.204088 159.4428 
L 303.125154 159.324099 
L 305.499175 137.745428 
L 304.420241 137.626727 
z
" clip-path="url(#pe2547532f4)" style="fill: #ff0000; stroke: #ff0000; stroke-width: 0.24"/>
    <path d="M 306.972608 129.315599 
L 308.056854 134.348852 
L 306.977921 134.230151 
L 304.6039 155.808822 
L 303.524966 155.690121 
L 305.898987 134.11145 
L 304.820053 133.992749 
z
" clip-path="url(#pe2547532f4)" style="fill: #ff0000; stroke: #ff0000; stroke-width: 0.24"/>
    <path d="M 307.372421 125.681599 
L 308.456666 130.714852 
L 307.377733 130.596151 
L 305.003712 152.174823 
L 303.924779 152.056121 
L 306.298799 130.47745 
L 305.219866 130.358749 
z
" clip-path="url(#pe2547532f4)" style="fill: #ff0000; stroke: #ff0000; stroke-width: 0.24"/>
    <path d="M 307.772233 122.047621 
L 308.856479 127.080874 
L 307.777545 126.962173 
L 305.403524 148.540845 
L 304.324591 148.422143 
L 306.698612 126.843472 
L 305.619678 126.724771 
z
" clip-path="url(#pe2547532f4)" style="fill: #ff0000; stroke: #ff0000; stroke-width: 0.24"/>
    <path d="M 308.172045 118.413643 
L 309.256291 123.446896 
L 308.177357 123.328195 
L 305.803337 144.906867 
L 304.724403 144.788165 
L 307.098424 123.209494 
L 306.01949 123.090793 
z
" clip-path="url(#pe2547532f4)" style="fill: #ff0000; stroke: #ff0000; stroke-width: 0.24"/>
    <path d="M 308.571858 114.779709 
L 309.656103 119.812962 
L 308.57717 119.69426 
L 306.203149 141.272932 
L 305.124215 141.154231 
L 307.498236 119.575559 
L 306.419302 119.456858 
z
" clip-path="url(#pe2547532f4)" style="fill: #ff0000; stroke: #ff0000; stroke-width: 0.24"/>
    <path d="M 308.97167 111.145644 
L 310.055915 116.178897 
L 308.976982 116.060196 
L 306.602961 137.638867 
L 305.524028 137.520166 
L 307.898048 115.941495 
L 306.819115 115.822794 
z
" clip-path="url(#pe2547532f4)" style="fill: #ff0000; stroke: #ff0000; stroke-width: 0.24"/>
    <path d="M 309.371482 107.511579 
L 310.455728 112.544832 
L 309.376794 112.426131 
L 307.002773 134.004802 
L 305.92384 133.886101 
L 308.297861 112.30743 
L 307.218927 112.188729 
z
" clip-path="url(#pe2547532f4)" style="fill: #ff0000; stroke: #ff0000; stroke-width: 0.24"/>
    <path d="M 309.771294 103.877731 
L 310.85554 108.910984 
L 309.776606 108.792283 
L 307.402586 130.370955 
L 306.323652 130.252253 
L 308.697673 108.673582 
L 307.618739 108.554881 
z
" clip-path="url(#pe2547532f4)" style="fill: #ff0000; stroke: #ff0000; stroke-width: 0.24"/>
    <path d="M 310.171107 100.243667 
L 311.255352 105.276919 
L 310.176419 105.158218 
L 307.802398 126.73689 
L 306.723464 126.618189 
L 309.097485 105.039517 
L 308.018552 104.920816 
z
" clip-path="url(#pe2547532f4)" style="fill: #ff0000; stroke: #ff0000; stroke-width: 0.24"/>
    <path d="M 310.570875 96.609819 
L 311.655121 101.643072 
L 310.576188 101.52437 
L 308.202167 123.103042 
L 307.123233 122.984341 
L 309.497254 101.405669 
L 308.41832 101.286968 
z
" clip-path="url(#pe2547532f4)" style="fill: #ff0000; stroke: #ff0000; stroke-width: 0.24"/>
    <path d="M 310.970753 92.975754 
L 312.054998 98.009007 
L 310.976065 97.890306 
L 308.602044 119.468977 
L 307.523111 119.350276 
L 309.897131 97.771605 
L 308.818198 97.652904 
z
" clip-path="url(#pe2547532f4)" style="fill: #ff0000; stroke: #ff0000; stroke-width: 0.24"/>
    <path d="M 311.37063 89.341689 
L 312.454876 94.374942 
L 311.375942 94.256241 
L 309.001922 115.834912 
L 307.922988 115.716211 
L 310.297009 94.13754 
L 309.218075 94.018839 
z
" clip-path="url(#pe2547532f4)" style="fill: #ff0000; stroke: #ff0000; stroke-width: 0.24"/>
    <path d="M 311.77029 85.707841 
L 312.854536 90.741094 
L 311.775603 90.622393 
L 309.401582 112.201065 
L 308.322648 112.082363 
L 310.696669 90.503692 
L 309.617735 90.384991 
z
" clip-path="url(#pe2547532f4)" style="fill: #ff0000; stroke: #ff0000; stroke-width: 0.24"/>
    <path d="M 312.170168 82.073777 
L 313.254414 87.107029 
L 312.17548 86.988328 
L 309.801459 108.567 
L 308.722526 108.448299 
L 311.096546 86.869627 
L 310.017613 86.750926 
z
" clip-path="url(#pe2547532f4)" style="fill: #ff0000; stroke: #ff0000; stroke-width: 0.24"/>
    <path d="M 312.570045 78.439712 
L 313.654291 83.472964 
L 312.575357 83.354263 
L 310.201337 104.932935 
L 309.122403 104.814234 
L 311.496424 83.235562 
L 310.41749 83.116861 
z
" clip-path="url(#pe2547532f4)" style="fill: #ff0000; stroke: #ff0000; stroke-width: 0.24"/>
    <path d="M 312.969706 74.805864 
L 314.053951 79.839117 
L 312.975018 79.720416 
L 310.600997 101.299087 
L 309.522063 101.180386 
L 311.896084 79.601715 
L 310.81715 79.483014 
z
" clip-path="url(#pe2547532f4)" style="fill: #ff0000; stroke: #ff0000; stroke-width: 0.24"/>
    <path d="M 313.369583 71.171799 
L 314.453829 76.205052 
L 313.374895 76.086351 
L 311.000874 97.665022 
L 309.921941 97.546321 
L 312.295961 75.96765 
L 311.217028 75.848949 
z
" clip-path="url(#pe2547532f4)" style="fill: #ff0000; stroke: #ff0000; stroke-width: 0.24"/>
    <path d="M 313.76946 67.537951 
L 314.853706 72.571204 
L 313.774772 72.452503 
L 311.400752 94.031175 
L 310.321818 93.912473 
L 312.695839 72.333802 
L 311.616905 72.215101 
z
" clip-path="url(#pe2547532f4)" style="fill: #ff0000; stroke: #ff0000; stroke-width: 0.24"/>
    <path d="M 314.169121 63.903887 
L 315.253366 68.937139 
L 314.174433 68.818438 
L 311.800412 90.39711 
L 310.721478 90.278409 
L 313.095499 68.699737 
L 312.016566 68.581036 
z
" clip-path="url(#pe2547532f4)" style="fill: #ff0000; stroke: #ff0000; stroke-width: 0.24"/>
    <path d="M 314.568998 60.269822 
L 315.653244 65.303074 
L 314.57431 65.184373 
L 312.200289 86.763045 
L 311.121356 86.644344 
L 313.495377 65.065672 
L 312.416443 64.946971 
z
" clip-path="url(#pe2547532f4)" style="fill: #ff0000; stroke: #ff0000; stroke-width: 0.24"/>
    <path d="M 314.968875 56.635974 
L 316.053121 61.669227 
L 314.974187 61.550526 
L 312.600167 83.129197 
L 311.521233 83.010496 
L 313.895254 61.431825 
L 312.81632 61.313124 
z
" clip-path="url(#pe2547532f4)" style="fill: #ff0000; stroke: #ff0000; stroke-width: 0.24"/>
    <path d="M 315.368753 53.001909 
L 316.452998 58.035162 
L 315.374065 57.916461 
L 313.000044 79.495132 
L 311.921111 79.376431 
L 314.295131 57.79776 
L 313.216198 57.679059 
z
" clip-path="url(#pe2547532f4)" style="fill: #ff0000; stroke: #ff0000; stroke-width: 0.24"/>
    <path d="M 314.790182 49.27716 
L 316.048543 54.269729 
L 314.966139 54.188563 
L 313.342826 75.836655 
L 312.260421 75.75549 
L 313.883734 54.107398 
L 312.801329 54.026232 
z
" clip-path="url(#pe2547532f4)" style="fill: #ff0000; stroke: #ff0000; stroke-width: 0.24"/>
    <path d="M 314.001832 45.571417 
L 315.446091 50.513415 
L 314.361408 50.4728 
L 313.549114 72.166468 
L 312.464431 72.125853 
L 313.276724 50.432185 
L 312.192041 50.391571 
z
" clip-path="url(#pe2547532f4)" style="fill: #ff0000; stroke: #ff0000; stroke-width: 0.24"/>
    <path d="M 313.075058 41.897672 
L 314.703241 46.782162 
L 313.617797 46.782166 
L 313.617877 68.491036 
L 312.532434 68.49104 
L 312.532354 46.78217 
L 311.44691 46.782174 
z
" clip-path="url(#pe2547532f4)" style="fill: #ff0000; stroke: #ff0000; stroke-width: 0.24"/>
   </g>
   <g id="matplotlib.axis_1">
    <g id="xtick_1">
     <g id="line2d_1">
      <defs>
       <path id="mb8e200b11a" d="M 0 0 
L 0 -3 
" style="stroke: #000000"/>
      </defs>
      <g>
       <use xlink:href="#mb8e200b11a" x="68.850368" y="290.32" style="stroke: #000000"/>
      </g>
     </g>
     <g id="text_1">
      <!-- −10 -->
      <g transform="translate(57.770407 303.898359) scale(0.105 -0.105)">
       <defs>
        <path id="DejaVuSans-2212" d="M 678 2272 
L 4684 2272 
L 4684 1741 
L 678 1741 
L 678 2272 
z
" transform="scale(0.015625)"/>
        <path id="DejaVuSans-31" d="M 794 531 
L 1825 531 
L 1825 4091 
L 703 3866 
L 703 4441 
L 1819 4666 
L 2450 4666 
L 2450 531 
L 3481 531 
L 3481 0 
L 794 0 
L 794 531 
z
" transform="scale(0.015625)"/>
        <path id="DejaVuSans-30" d="M 2034 4250 
Q 1547 4250 1301 3770 
Q 1056 3291 1056 2328 
Q 1056 1369 1301 889 
Q 1547 409 2034 409 
Q 2525 409 2770 889 
Q 3016 1369 3016 2328 
Q 3016 3291 2770 3770 
Q 2525 4250 2034 4250 
z
M 2034 4750 
Q 2819 4750 3233 4129 
Q 3647 3509 3647 2328 
Q 3647 1150 3233 529 
Q 2819 -91 2034 -91 
Q 1250 -91 836 529 
Q 422 1150 422 2328 
Q 422 3509 836 4129 
Q 1250 4750 2034 4750 
z
" transform="scale(0.015625)"/>
       </defs>
       <use xlink:href="#DejaVuSans-2212"/>
       <use xlink:href="#DejaVuSans-31" x="83.789062"/>
       <use xlink:href="#DejaVuSans-30" x="147.412109"/>
      </g>
     </g>
    </g>
    <g id="xtick_2">
     <g id="line2d_2">
      <g>
       <use xlink:href="#mb8e200b11a" x="112.268108" y="290.32" style="stroke: #000000"/>
      </g>
     </g>
     <g id="text_2">
      <!-- −8 -->
      <g transform="translate(104.52846 303.898359) scale(0.105 -0.105)">
       <defs>
        <path id="DejaVuSans-38" d="M 2034 2216 
Q 1584 2216 1326 1975 
Q 1069 1734 1069 1313 
Q 1069 891 1326 650 
Q 1584 409 2034 409 
Q 2484 409 2743 651 
Q 3003 894 3003 1313 
Q 3003 1734 2745 1975 
Q 2488 2216 2034 2216 
z
M 1403 2484 
Q 997 2584 770 2862 
Q 544 3141 544 3541 
Q 544 4100 942 4425 
Q 1341 4750 2034 4750 
Q 2731 4750 3128 4425 
Q 3525 4100 3525 3541 
Q 3525 3141 3298 2862 
Q 3072 2584 2669 2484 
Q 3125 2378 3379 2068 
Q 3634 1759 3634 1313 
Q 3634 634 3220 271 
Q 2806 -91 2034 -91 
Q 1263 -91 848 271 
Q 434 634 434 1313 
Q 434 1759 690 2068 
Q 947 2378 1403 2484 
z
M 1172 3481 
Q 1172 3119 1398 2916 
Q 1625 2713 2034 2713 
Q 2441 2713 2670 2916 
Q 2900 3119 2900 3481 
Q 2900 3844 2670 4047 
Q 2441 4250 2034 4250 
Q 1625 4250 1398 4047 
Q 1172 3844 1172 3481 
z
" transform="scale(0.015625)"/>
       </defs>
       <use xlink:href="#DejaVuSans-2212"/>
       <use xlink:href="#DejaVuSans-38" x="83.789062"/>
      </g>
     </g>
    </g>
    <g id="xtick_3">
     <g id="line2d_3">
      <g>
       <use xlink:href="#mb8e200b11a" x="155.685848" y="290.32" style="stroke: #000000"/>
      </g>
     </g>
     <g id="text_3">
      <!-- −6 -->
      <g transform="translate(147.9462 303.898359) scale(0.105 -0.105)">
       <defs>
        <path id="DejaVuSans-36" d="M 2113 2584 
Q 1688 2584 1439 2293 
Q 1191 2003 1191 1497 
Q 1191 994 1439 701 
Q 1688 409 2113 409 
Q 2538 409 2786 701 
Q 3034 994 3034 1497 
Q 3034 2003 2786 2293 
Q 2538 2584 2113 2584 
z
M 3366 4563 
L 3366 3988 
Q 3128 4100 2886 4159 
Q 2644 4219 2406 4219 
Q 1781 4219 1451 3797 
Q 1122 3375 1075 2522 
Q 1259 2794 1537 2939 
Q 1816 3084 2150 3084 
Q 2853 3084 3261 2657 
Q 3669 2231 3669 1497 
Q 3669 778 3244 343 
Q 2819 -91 2113 -91 
Q 1303 -91 875 529 
Q 447 1150 447 2328 
Q 447 3434 972 4092 
Q 1497 4750 2381 4750 
Q 2619 4750 2861 4703 
Q 3103 4656 3366 4563 
z
" transform="scale(0.015625)"/>
       </defs>
       <use xlink:href="#DejaVuSans-2212"/>
       <use xlink:href="#DejaVuSans-36" x="83.789062"/>
      </g>
     </g>
    </g>
    <g id="xtick_4">
     <g id="line2d_4">
      <g>
       <use xlink:href="#mb8e200b11a" x="199.103588" y="290.32" style="stroke: #000000"/>
      </g>
     </g>
     <g id="text_4">
      <!-- −4 -->
      <g transform="translate(191.36394 303.898359) scale(0.105 -0.105)">
       <defs>
        <path id="DejaVuSans-34" d="M 2419 4116 
L 825 1625 
L 2419 1625 
L 2419 4116 
z
M 2253 4666 
L 3047 4666 
L 3047 1625 
L 3713 1625 
L 3713 1100 
L 3047 1100 
L 3047 0 
L 2419 0 
L 2419 1100 
L 313 1100 
L 313 1709 
L 2253 4666 
z
" transform="scale(0.015625)"/>
       </defs>
       <use xlink:href="#DejaVuSans-2212"/>
       <use xlink:href="#DejaVuSans-34" x="83.789062"/>
      </g>
     </g>
    </g>
    <g id="xtick_5">
     <g id="line2d_5">
      <g>
       <use xlink:href="#mb8e200b11a" x="242.521328" y="290.32" style="stroke: #000000"/>
      </g>
     </g>
     <g id="text_5">
      <!-- −2 -->
      <g transform="translate(234.78168 303.898359) scale(0.105 -0.105)">
       <defs>
        <path id="DejaVuSans-32" d="M 1228 531 
L 3431 531 
L 3431 0 
L 469 0 
L 469 531 
Q 828 903 1448 1529 
Q 2069 2156 2228 2338 
Q 2531 2678 2651 2914 
Q 2772 3150 2772 3378 
Q 2772 3750 2511 3984 
Q 2250 4219 1831 4219 
Q 1534 4219 1204 4116 
Q 875 4013 500 3803 
L 500 4441 
Q 881 4594 1212 4672 
Q 1544 4750 1819 4750 
Q 2544 4750 2975 4387 
Q 3406 4025 3406 3419 
Q 3406 3131 3298 2873 
Q 3191 2616 2906 2266 
Q 2828 2175 2409 1742 
Q 1991 1309 1228 531 
z
" transform="scale(0.015625)"/>
       </defs>
       <use xlink:href="#DejaVuSans-2212"/>
       <use xlink:href="#DejaVuSans-32" x="83.789062"/>
      </g>
     </g>
    </g>
    <g id="xtick_6">
     <g id="line2d_6">
      <g>
       <use xlink:href="#mb8e200b11a" x="285.939068" y="290.32" style="stroke: #000000"/>
      </g>
     </g>
     <g id="text_6">
      <!-- 0 -->
      <g transform="translate(282.598755 303.898359) scale(0.105 -0.105)">
       <use xlink:href="#DejaVuSans-30"/>
      </g>
     </g>
    </g>
    <g id="xtick_7">
     <g id="line2d_7">
      <g>
       <use xlink:href="#mb8e200b11a" x="329.356808" y="290.32" style="stroke: #000000"/>
      </g>
     </g>
     <g id="text_7">
      <!-- 2 -->
      <g transform="translate(326.016495 303.898359) scale(0.105 -0.105)">
       <use xlink:href="#DejaVuSans-32"/>
      </g>
     </g>
    </g>
    <g id="xtick_8">
     <g id="line2d_8">
      <g>
       <use xlink:href="#mb8e200b11a" x="372.774548" y="290.32" style="stroke: #000000"/>
      </g>
     </g>
     <g id="text_8">
      <!-- 4 -->
      <g transform="translate(369.434235 303.898359) scale(0.105 -0.105)">
       <use xlink:href="#DejaVuSans-34"/>
      </g>
     </g>
    </g>
   </g>
   <g id="matplotlib.axis_2">
    <g id="ytick_1">
     <g id="line2d_9">
      <defs>
       <path id="mb0534ba60c" d="M 0 0 
L 3 0 
" style="stroke: #000000"/>
      </defs>
      <g>
       <use xlink:href="#mb0534ba60c" x="58.426546" y="251.182033" style="stroke: #000000"/>
      </g>
     </g>
     <g id="text_9">
      <!-- −4 -->
      <g transform="translate(37.34725 255.171213) scale(0.105 -0.105)">
       <use xlink:href="#DejaVuSans-2212"/>
       <use xlink:href="#DejaVuSans-34" x="83.789062"/>
      </g>
     </g>
    </g>
    <g id="ytick_2">
     <g id="line2d_10">
      <g>
       <use xlink:href="#mb0534ba60c" x="58.426546" y="207.764293" style="stroke: #000000"/>
      </g>
     </g>
     <g id="text_10">
      <!-- −2 -->
      <g transform="translate(37.34725 211.753473) scale(0.105 -0.105)">
       <use xlink:href="#DejaVuSans-2212"/>
       <use xlink:href="#DejaVuSans-32" x="83.789062"/>
      </g>
     </g>
    </g>
    <g id="ytick_3">
     <g id="line2d_11">
      <g>
       <use xlink:href="#mb0534ba60c" x="58.426546" y="164.346553" style="stroke: #000000"/>
      </g>
     </g>
     <g id="text_11">
      <!-- 0 -->
      <g transform="translate(46.145921 168.335733) scale(0.105 -0.105)">
       <use xlink:href="#DejaVuSans-30"/>
      </g>
     </g>
    </g>
    <g id="ytick_4">
     <g id="line2d_12">
      <g>
       <use xlink:href="#mb0534ba60c" x="58.426546" y="120.928813" style="stroke: #000000"/>
      </g>
     </g>
     <g id="text_12">
      <!-- 2 -->
      <g transform="translate(46.145921 124.917993) scale(0.105 -0.105)">
       <use xlink:href="#DejaVuSans-32"/>
      </g>
     </g>
    </g>
    <g id="ytick_5">
     <g id="line2d_13">
      <g>
       <use xlink:href="#mb0534ba60c" x="58.426546" y="77.511073" style="stroke: #000000"/>
      </g>
     </g>
     <g id="text_13">
      <!-- 4 -->
      <g transform="translate(46.145921 81.500253) scale(0.105 -0.105)">
       <use xlink:href="#DejaVuSans-34"/>
      </g>
     </g>
    </g>
    <g id="ytick_6">
     <g id="line2d_14">
      <g>
       <use xlink:href="#mb0534ba60c" x="58.426546" y="34.093333" style="stroke: #000000"/>
      </g>
     </g>
     <g id="text_14">
      <!-- 6 -->
      <g transform="translate(46.145921 38.082513) scale(0.105 -0.105)">
       <use xlink:href="#DejaVuSans-36"/>
      </g>
     </g>
    </g>
   </g>
   <g id="patch_3">
    <path d="M 58.426546 290.32 
L 58.426546 10.8 
" style="fill: none; stroke: #000000; stroke-width: 0.8; stroke-linejoin: miter; stroke-linecap: square"/>
   </g>
   <g id="patch_4">
    <path d="M 402.373454 290.32 
L 402.373454 10.8 
" style="fill: none; stroke: #000000; stroke-width: 0.8; stroke-linejoin: miter; stroke-linecap: square"/>
   </g>
   <g id="patch_5">
    <path d="M 58.426546 290.32 
L 402.373454 290.32 
" style="fill: none; stroke: #000000; stroke-width: 0.8; stroke-linejoin: miter; stroke-linecap: square"/>
   </g>
   <g id="patch_6">
    <path d="M 58.426546 10.8 
L 402.373454 10.8 
" style="fill: none; stroke: #000000; stroke-width: 0.8; stroke-linejoin: miter; stroke-linecap: square"/>
   </g>
  </g>
 </g>
 <defs>
  <clipPath id="pe2547532f4">
   <rect x="58.426546" y="10.8" width="343.946907" height="279.52"/>
  </clipPath>
 </defs>
</svg>
