<?xml version="1.0" encoding="utf-8" standalone="no"?>
<!DOCTYPE svg PUBLIC "-//W3C//DTD SVG 1.1//EN"
  "http://www.w3.org/Graphics/SVG/1.1/DTD/svg11.dtd">
<svg xmlns:xlink="http://www.w3.org/1999/xlink" width="460.8pt" height="316.8pt" viewBox="0 0 460.8 316.8" xmlns="http://www.w3.org/2000/svg" version="1.1">
 <metadata>
  <rdf:RDF xmlns:dc="http://purl.org/dc/elements/1.1/" xmlns:cc="http://creativecommons.org/ns#" xmlns:rdf="http://www.w3.org/1999/02/22-rdf-syntax-ns#">
   <cc:Work>
    <dc:type rdf:resource="http://purl.org/dc/dcmitype/StillImage"/>
    <dc:date>2024-01-11T15:52:59.369005</dc:date>
    <dc:format>image/svg+xml</dc:format>
    <dc:creator>
     <cc:Agent>
      <dc:title>Matplotlib v3.7.2, https://matplotlib.org/</dc:title>
     </cc:Agent>
    </dc:creator>
   </cc:Work>
  </rdf:RDF>
 </metadata>
 <defs>
  <style type="text/css">*{stroke-linejoin: round; stroke-linecap: butt}</style>
 </defs>
 <g id="figure_1">
  <g id="patch_1">
   <path d="M 0 316.8 
L 460.8 316.8 
L 460.8 0 
L 0 0 
z
" style="fill: #ffffff"/>
  </g>
  <g id="axes_1">
   <g id="patch_2">
    <path d="M 122.761156 290.32 
L 338.038844 290.32 
L 338.038844 10.8 
L 122.761156 10.8 
z
" style="fill: #ffffff"/>
   </g>
   <g id="PatchCollection_1">
    <path d="M 233.793738 156.153198 
L 284.652014 156.153198 
L 284.652014 34.093333 
L 233.793738 34.093333 
z
" clip-path="url(#p45402630ba)" style="fill: #ffffff; stroke: #0000ff; stroke-width: 3"/>
    <path d="M 189.038454 148.015874 
L 228.545163 148.015874 
L 228.545163 52.626089 
L 189.038454 52.626089 
z
" clip-path="url(#p45402630ba)" style="fill: #ff0000; stroke: #ff0000; stroke-width: 2"/>
    <path d="M 280.583352 150.050205 
L 319.939727 153.493441 
L 328.253494 58.466644 
L 288.89712 55.023407 
z
" clip-path="url(#p45402630ba)" style="fill: #ff0000; stroke: #ff0000; stroke-width: 2"/>
   </g>
   <g id="PatchCollection_2">
    <path d="M 177.6462 216.593174 
L 273.035984 216.593174 
L 273.035984 177.086465 
L 177.6462 177.086465 
L 177.6462 216.593174 
z
" clip-path="url(#p45402630ba)" style="fill: none; stroke: #000000; stroke-width: 0.5"/>
    <path d="M 176.103663 219.01013 
L 271.447137 216.038084 
L 270.216232 176.550555 
L 174.872759 179.5226 
L 176.103663 219.01013 
z
" clip-path="url(#p45402630ba)" style="fill: none; stroke: #000000; stroke-width: 0.5"/>
    <path d="M 173.980402 221.495518 
L 269.184987 215.554312 
L 266.724372 176.124305 
L 171.519787 182.065511 
L 173.980402 221.495518 
z
" clip-path="url(#p45402630ba)" style="fill: none; stroke: #000000; stroke-width: 0.5"/>
    <path d="M 171.935627 224.045834 
L 266.908881 215.141237 
L 263.220946 175.807037 
L 168.247692 184.711635 
L 171.935627 224.045834 
z
" clip-path="url(#p45402630ba)" style="fill: none; stroke: #000000; stroke-width: 0.5"/>
    <path d="M 169.9713 226.658846 
L 264.621002 214.799466 
L 259.709311 175.59927 
L 165.05961 187.45865 
L 169.9713 226.658846 
z
" clip-path="url(#p45402630ba)" style="fill: none; stroke: #000000; stroke-width: 0.5"/>
    <path d="M 168.089322 229.331454 
L 262.32357 214.528835 
L 256.192905 175.500704 
L 161.958658 190.303323 
L 168.089322 229.331454 
z
" clip-path="url(#p45402630ba)" style="fill: none; stroke: #000000; stroke-width: 0.5"/>
    <path d="M 166.29152 232.061604 
L 260.018831 214.330213 
L 252.675183 175.512035 
L 158.947873 193.243426 
L 166.29152 232.061604 
z
" clip-path="url(#p45402630ba)" style="fill: none; stroke: #000000; stroke-width: 0.5"/>
    <path d="M 164.579672 234.846446 
L 257.709022 214.203406 
L 249.159484 175.63288 
L 156.030134 196.27592 
L 164.579672 234.846446 
z
" clip-path="url(#p45402630ba)" style="fill: none; stroke: #000000; stroke-width: 0.5"/>
    <path d="M 162.955424 237.683153 
L 255.396386 214.148507 
L 245.649258 175.863085 
L 153.208297 199.39773 
L 162.955424 237.683153 
z
" clip-path="url(#p45402630ba)" style="fill: none; stroke: #000000; stroke-width: 0.5"/>
    <path d="M 161.420346 240.569203 
L 253.08316 214.165804 
L 242.147907 176.20266 
L 150.485093 202.606058 
L 161.420346 240.569203 
z
" clip-path="url(#p45402630ba)" style="fill: none; stroke: #000000; stroke-width: 0.5"/>
    <path d="M 159.975942 243.501706 
L 250.771605 214.255192 
L 238.658845 176.651187 
L 147.863183 205.897701 
L 159.975942 243.501706 
z
" clip-path="url(#p45402630ba)" style="fill: none; stroke: #000000; stroke-width: 0.5"/>
    <path d="M 158.623613 246.477809 
L 248.463962 214.416577 
L 235.185457 177.208226 
L 145.345107 209.269458 
L 158.623613 246.477809 
z
" clip-path="url(#p45402630ba)" style="fill: none; stroke: #000000; stroke-width: 0.5"/>
    <path d="M 157.364652 249.494495 
L 246.162453 214.649677 
L 231.731096 177.873108 
L 142.933294 212.717926 
L 157.364652 249.494495 
z
" clip-path="url(#p45402630ba)" style="fill: none; stroke: #000000; stroke-width: 0.5"/>
    <path d="M 156.200291 252.548992 
L 243.869324 214.954422 
L 228.299127 178.645346 
L 140.630094 216.239915 
L 156.200291 252.548992 
z
" clip-path="url(#p45402630ba)" style="fill: none; stroke: #000000; stroke-width: 0.5"/>
    <path d="M 155.131664 255.638167 
L 241.586801 215.330349 
L 224.892882 179.52402 
L 138.437745 219.831838 
L 155.131664 255.638167 
z
" clip-path="url(#p45402630ba)" style="fill: none; stroke: #000000; stroke-width: 0.5"/>
    <path d="M 154.159821 258.759336 
L 239.317115 215.777409 
L 221.515685 180.508595 
L 136.358391 223.490523 
L 154.159821 258.759336 
z
" clip-path="url(#p45402630ba)" style="fill: none; stroke: #000000; stroke-width: 0.5"/>
    <path d="M 153.285574 261.909052 
L 237.062338 216.29475 
L 218.170682 181.597698 
L 134.393917 227.212 
L 153.285574 261.909052 
z
" clip-path="url(#p45402630ba)" style="fill: none; stroke: #000000; stroke-width: 0.5"/>
    <path d="M 152.510045 265.084728 
L 234.824933 216.882342 
L 214.861394 182.790742 
L 132.546506 230.993128 
L 152.510045 265.084728 
z
" clip-path="url(#p45402630ba)" style="fill: none; stroke: #000000; stroke-width: 0.5"/>
    <path d="M 154.039235 266.918943 
L 234.812371 216.175358 
L 213.796367 182.722292 
L 133.023231 233.465876 
L 154.039235 266.918943 
z
" clip-path="url(#p45402630ba)" style="fill: none; stroke: #000000; stroke-width: 0.5"/>
    <path d="M 158.246066 267.026667 
L 237.398971 213.791073 
L 215.350875 181.009042 
L 136.19797 234.244636 
L 158.246066 267.026667 
z
" clip-path="url(#p45402630ba)" style="fill: none; stroke: #000000; stroke-width: 0.5"/>
    <path d="M 162.454185 267.003382 
L 239.910003 211.32747 
L 216.851222 179.248306 
L 139.395404 234.924218 
L 162.454185 267.003382 
z
" clip-path="url(#p45402630ba)" style="fill: none; stroke: #000000; stroke-width: 0.5"/>
    <path d="M 166.659664 266.849157 
L 242.343185 208.786988 
L 218.296111 177.44184 
L 142.612589 235.504009 
L 166.659664 266.849157 
z
" clip-path="url(#p45402630ba)" style="fill: none; stroke: #000000; stroke-width: 0.5"/>
    <path d="M 170.858181 266.563712 
L 244.695918 206.171664 
L 219.683899 175.590967 
L 145.846162 235.983016 
L 170.858181 266.563712 
z
" clip-path="url(#p45402630ba)" style="fill: none; stroke: #000000; stroke-width: 0.5"/>
    <path d="M 175.045777 266.147841 
L 246.966034 203.484553 
L 221.013357 173.698002 
L 149.0931 236.36129 
L 175.045777 266.147841 
z
" clip-path="url(#p45402630ba)" style="fill: none; stroke: #000000; stroke-width: 0.5"/>
    <path d="M 179.218386 265.601585 
L 249.151329 200.727904 
L 222.283193 171.76442 
L 152.350251 236.638101 
L 179.218386 265.601585 
z
" clip-path="url(#p45402630ba)" style="fill: none; stroke: #000000; stroke-width: 0.5"/>
    <path d="M 183.371942 264.925453 
L 251.249665 197.90437 
L 223.49216 169.792078 
L 155.614436 236.813161 
L 183.371942 264.925453 
z
" clip-path="url(#p45402630ba)" style="fill: none; stroke: #000000; stroke-width: 0.5"/>
    <path d="M 187.502417 264.120426 
L 253.259014 195.017018 
L 224.639091 167.783213 
L 158.882495 236.886621 
L 187.502417 264.120426 
z
" clip-path="url(#p45402630ba)" style="fill: none; stroke: #000000; stroke-width: 0.5"/>
    <path d="M 191.605811 263.186934 
L 255.177431 192.0683 
L 225.72288 165.739427 
L 162.15126 236.858061 
L 191.605811 263.186934 
z
" clip-path="url(#p45402630ba)" style="fill: none; stroke: #000000; stroke-width: 0.5"/>
    <path d="M 195.678124 262.126087 
L 257.00304 189.061283 
L 226.742462 163.662907 
L 165.417546 236.727711 
L 195.678124 262.126087 
z
" clip-path="url(#p45402630ba)" style="fill: none; stroke: #000000; stroke-width: 0.5"/>
    <path d="M 199.715352 260.939027 
L 258.734093 185.999057 
L 227.696895 161.555807 
L 168.678154 236.495778 
L 199.715352 260.939027 
z
" clip-path="url(#p45402630ba)" style="fill: none; stroke: #000000; stroke-width: 0.5"/>
    <path d="M 203.71368 259.626653 
L 260.368866 182.884222 
L 228.585159 159.419865 
L 171.929973 236.162296 
L 203.71368 259.626653 
z
" clip-path="url(#p45402630ba)" style="fill: none; stroke: #000000; stroke-width: 0.5"/>
    <path d="M 207.669187 258.190243 
L 261.905807 179.719866 
L 229.406453 157.257184 
L 175.169833 235.727561 
L 207.669187 258.190243 
z
" clip-path="url(#p45402630ba)" style="fill: none; stroke: #000000; stroke-width: 0.5"/>
    <path d="M 211.578017 256.631377 
L 263.343407 176.50925 
L 230.159962 155.070054 
L 178.394572 235.192182 
L 211.578017 256.631377 
z
" clip-path="url(#p45402630ba)" style="fill: none; stroke: #000000; stroke-width: 0.5"/>
    <path d="M 215.436163 254.951437 
L 264.680304 173.255504 
L 230.845051 152.860511 
L 181.60091 234.556444 
L 215.436163 254.951437 
z
" clip-path="url(#p45402630ba)" style="fill: none; stroke: #000000; stroke-width: 0.5"/>
    <path d="M 219.240935 253.15245 
L 265.915107 169.961509 
L 231.46068 150.630896 
L 184.786509 233.821837 
L 219.240935 253.15245 
z
" clip-path="url(#p45402630ba)" style="fill: none; stroke: #000000; stroke-width: 0.5"/>
    <path d="M 222.987034 251.235369 
L 267.046738 166.63068 
L 232.006792 148.382878 
L 187.947088 232.987567 
L 222.987034 251.235369 
z
" clip-path="url(#p45402630ba)" style="fill: none; stroke: #000000; stroke-width: 0.5"/>
    <path d="M 226.671573 249.202593 
L 268.074033 163.266296 
L 232.482588 146.11902 
L 191.080127 232.055317 
L 226.671573 249.202593 
z
" clip-path="url(#p45402630ba)" style="fill: none; stroke: #000000; stroke-width: 0.5"/>
    <path d="M 230.290996 247.05602 
L 268.996017 159.871547 
L 232.887625 143.841445 
L 194.182605 231.025918 
L 230.290996 247.05602 
z
" clip-path="url(#p45402630ba)" style="fill: none; stroke: #000000; stroke-width: 0.5"/>
    <path d="M 233.841793 244.797722 
L 269.811796 156.449718 
L 233.221516 141.552353 
L 197.251512 229.900357 
L 233.841793 244.797722 
z
" clip-path="url(#p45402630ba)" style="fill: none; stroke: #000000; stroke-width: 0.5"/>
    <path d="M 237.320501 242.429886 
L 270.520565 153.004125 
L 233.48392 139.25396 
L 200.283856 228.679721 
L 237.320501 242.429886 
z
" clip-path="url(#p45402630ba)" style="fill: none; stroke: #000000; stroke-width: 0.5"/>
    <path d="M 240.724518 239.95487 
L 271.121506 149.537869 
L 233.674328 136.948629 
L 203.277341 227.36563 
L 240.724518 239.95487 
z
" clip-path="url(#p45402630ba)" style="fill: none; stroke: #000000; stroke-width: 0.5"/>
    <path d="M 244.048995 237.374974 
L 271.614289 146.054847 
L 233.793072 134.638383 
L 206.227778 225.95851 
L 244.048995 237.374974 
z
" clip-path="url(#p45402630ba)" style="fill: none; stroke: #000000; stroke-width: 0.5"/>
    <path d="M 247.291476 234.692729 
L 271.998314 142.558137 
L 233.839777 132.325533 
L 209.132939 224.460125 
L 247.291476 234.692729 
z
" clip-path="url(#p45402630ba)" style="fill: none; stroke: #000000; stroke-width: 0.5"/>
    <path d="M 250.448799 231.910777 
L 272.273194 139.05117 
L 233.814385 130.01236 
L 211.989989 222.871968 
L 250.448799 231.910777 
z
" clip-path="url(#p45402630ba)" style="fill: none; stroke: #000000; stroke-width: 0.5"/>
    <path d="M 253.517923 229.031803 
L 272.438687 135.537335 
L 233.716943 127.701096 
L 214.796179 221.195564 
L 253.517923 229.031803 
z
" clip-path="url(#p45402630ba)" style="fill: none; stroke: #000000; stroke-width: 0.5"/>
    <path d="M 256.496637 226.058534 
L 272.49446 132.019815 
L 233.547309 125.394144 
L 217.549486 219.432863 
L 256.496637 226.058534 
z
" clip-path="url(#p45402630ba)" style="fill: none; stroke: #000000; stroke-width: 0.5"/>
    <path d="M 259.380492 222.993988 
L 272.440777 128.502508 
L 233.306109 123.09345 
L 220.245825 217.584931 
L 259.380492 222.993988 
z
" clip-path="url(#p45402630ba)" style="fill: none; stroke: #000000; stroke-width: 0.5"/>
    <path d="M 262.167452 219.841069 
L 272.277518 124.988565 
L 232.993329 120.801372 
L 222.883263 215.653875 
L 262.167452 219.841069 
z
" clip-path="url(#p45402630ba)" style="fill: none; stroke: #000000; stroke-width: 0.5"/>
    <path d="M 261.281521 216.597077 
L 272.960887 121.924994 
L 233.751421 117.087858 
L 222.072055 211.759941 
L 261.281521 216.597077 
z
" clip-path="url(#p45402630ba)" style="fill: none; stroke: #000000; stroke-width: 0.5"/>
    <path d="M 261.703787 213.174233 
L 273.383153 118.50215 
L 234.173687 113.665015 
L 222.494322 208.337098 
L 261.703787 213.174233 
z
" clip-path="url(#p45402630ba)" style="fill: none; stroke: #000000; stroke-width: 0.5"/>
    <path d="M 262.126054 209.751471 
L 273.805419 115.079388 
L 234.595953 110.242253 
L 222.916588 204.914336 
L 262.126054 209.751471 
z
" clip-path="url(#p45402630ba)" style="fill: none; stroke: #000000; stroke-width: 0.5"/>
    <path d="M 262.54834 206.328506 
L 274.227706 111.656423 
L 235.01824 106.819287 
L 223.338874 201.49137 
L 262.54834 206.328506 
z
" clip-path="url(#p45402630ba)" style="fill: none; stroke: #000000; stroke-width: 0.5"/>
    <path d="M 262.970606 202.905744 
L 274.649972 108.233661 
L 235.440506 103.396525 
L 223.76114 198.068608 
L 262.970606 202.905744 
z
" clip-path="url(#p45402630ba)" style="fill: none; stroke: #000000; stroke-width: 0.5"/>
    <path d="M 263.392893 199.482982 
L 275.072258 104.810899 
L 235.862792 99.973763 
L 224.183427 194.645846 
L 263.392893 199.482982 
z
" clip-path="url(#p45402630ba)" style="fill: none; stroke: #000000; stroke-width: 0.5"/>
    <path d="M 263.815159 196.060016 
L 275.494524 101.387933 
L 236.285059 96.550798 
L 224.605693 191.222881 
L 263.815159 196.060016 
z
" clip-path="url(#p45402630ba)" style="fill: none; stroke: #000000; stroke-width: 0.5"/>
    <path d="M 264.237425 192.637254 
L 275.916791 97.965171 
L 236.707325 93.128036 
L 225.027959 187.800119 
L 264.237425 192.637254 
z
" clip-path="url(#p45402630ba)" style="fill: none; stroke: #000000; stroke-width: 0.5"/>
    <path d="M 264.659752 189.214492 
L 276.339118 94.542409 
L 237.129652 89.705274 
L 225.450286 184.377357 
L 264.659752 189.214492 
z
" clip-path="url(#p45402630ba)" style="fill: none; stroke: #000000; stroke-width: 0.5"/>
    <path d="M 265.082079 185.791527 
L 276.761445 91.119444 
L 237.551979 86.282308 
L 225.872613 180.954391 
L 265.082079 185.791527 
z
" clip-path="url(#p45402630ba)" style="fill: none; stroke: #000000; stroke-width: 0.5"/>
    <path d="M 265.504203 182.368765 
L 277.183568 87.696682 
L 237.974103 82.859546 
L 226.294737 177.531629 
L 265.504203 182.368765 
z
" clip-path="url(#p45402630ba)" style="fill: none; stroke: #000000; stroke-width: 0.5"/>
    <path d="M 265.92653 178.946003 
L 277.605896 84.27392 
L 238.39643 79.436784 
L 226.717064 174.108867 
L 265.92653 178.946003 
z
" clip-path="url(#p45402630ba)" style="fill: none; stroke: #000000; stroke-width: 0.5"/>
    <path d="M 266.348857 175.523037 
L 278.028223 80.850954 
L 238.818757 76.013819 
L 227.139391 170.685902 
L 266.348857 175.523037 
z
" clip-path="url(#p45402630ba)" style="fill: none; stroke: #000000; stroke-width: 0.5"/>
    <path d="M 266.770981 172.100275 
L 278.450346 77.428192 
L 239.240881 72.591057 
L 227.561515 167.26314 
L 266.770981 172.100275 
z
" clip-path="url(#p45402630ba)" style="fill: none; stroke: #000000; stroke-width: 0.5"/>
    <path d="M 267.193308 168.67731 
L 278.872674 74.005227 
L 239.663208 69.168091 
L 227.983842 163.840174 
L 267.193308 168.67731 
z
" clip-path="url(#p45402630ba)" style="fill: none; stroke: #000000; stroke-width: 0.5"/>
    <path d="M 267.615635 165.254548 
L 279.295001 70.582465 
L 240.085535 65.745329 
L 228.406169 160.417412 
L 267.615635 165.254548 
z
" clip-path="url(#p45402630ba)" style="fill: none; stroke: #000000; stroke-width: 0.5"/>
    <path d="M 268.037962 161.831786 
L 279.717328 67.159703 
L 240.507862 62.322567 
L 228.828496 156.99465 
L 268.037962 161.831786 
z
" clip-path="url(#p45402630ba)" style="fill: none; stroke: #000000; stroke-width: 0.5"/>
    <path d="M 268.460086 158.40882 
L 280.139452 63.736737 
L 240.929986 58.899602 
L 229.25062 153.571685 
L 268.460086 158.40882 
z
" clip-path="url(#p45402630ba)" style="fill: none; stroke: #000000; stroke-width: 0.5"/>
    <path d="M 269.639833 154.882316 
L 280.397501 60.101076 
L 241.142827 55.645672 
L 230.385159 150.426912 
L 269.639833 154.882316 
z
" clip-path="url(#p45402630ba)" style="fill: none; stroke: #000000; stroke-width: 0.5"/>
    <path d="M 272.90255 150.979166 
L 280.083021 55.860021 
L 240.6884 52.886152 
L 233.507928 148.005297 
L 272.90255 150.979166 
z
" clip-path="url(#p45402630ba)" style="fill: none; stroke: #000000; stroke-width: 0.5"/>
    <path d="M 276.016105 146.95592 
L 279.609191 51.633831 
L 240.130518 50.145715 
L 236.537432 145.467804 
L 276.016105 146.95592 
z
" clip-path="url(#p45402630ba)" style="fill: none; stroke: #000000; stroke-width: 0.5"/>
    <path d="M 278.976512 142.818085 
L 278.976161 47.428301 
L 239.469452 47.428446 
L 239.469802 142.81823 
L 278.976512 142.818085 
z
" clip-path="url(#p45402630ba)" style="fill: none; stroke: #000000; stroke-width: 0.5"/>
   </g>
   <g id="PatchCollection_3">
    <path d="M 279.057604 196.839819 
L 274.480359 198.365568 
L 274.480359 197.348402 
L 254.137048 197.348402 
L 254.137048 196.331237 
L 274.480359 196.331237 
L 274.480359 195.314071 
z
" clip-path="url(#p45402630ba)" style="fill: #ff0000; stroke: #ff0000; stroke-width: 0.24"/>
    <path d="M 276.850381 196.106705 
L 272.322895 197.774325 
L 272.291204 196.757653 
L 251.95777 197.391487 
L 251.926078 196.374815 
L 272.259512 195.740981 
L 272.22782 194.72431 
z
" clip-path="url(#p45402630ba)" style="fill: #ff0000; stroke: #ff0000; stroke-width: 0.24"/>
    <path d="M 273.964609 195.464261 
L 269.491279 197.272134 
L 269.427927 196.256943 
L 249.124112 197.523995 
L 249.06076 196.508804 
L 269.364574 195.241752 
L 269.301221 194.226562 
z
" clip-path="url(#p45402630ba)" style="fill: #ff0000; stroke: #ff0000; stroke-width: 0.24"/>
    <path d="M 271.06024 194.912021 
L 266.64541 196.858391 
L 266.550458 195.845667 
L 246.295978 197.744707 
L 246.201026 196.731983 
L 266.455506 194.832943 
L 266.360554 193.820219 
z
" clip-path="url(#p45402630ba)" style="fill: #ff0000; stroke: #ff0000; stroke-width: 0.24"/>
    <path d="M 268.140058 194.450727 
L 263.788015 196.533706 
L 263.661555 195.524432 
L 243.476078 198.053624 
L 243.349618 197.04435 
L 263.535095 194.515159 
L 263.408636 193.505885 
z
" clip-path="url(#p45402630ba)" style="fill: #ff0000; stroke: #ff0000; stroke-width: 0.24"/>
    <path d="M 265.206913 194.080332 
L 260.921882 196.297897 
L 260.764038 195.293053 
L 240.667163 198.449935 
L 240.509319 197.445091 
L 260.606194 194.288209 
L 260.44835 193.283365 
z
" clip-path="url(#p45402630ba)" style="fill: #ff0000; stroke: #ff0000; stroke-width: 0.24"/>
    <path d="M 262.263681 193.801804 
L 258.049821 196.151795 
L 257.860746 195.152357 
L 237.871983 198.933844 
L 237.682909 197.934406 
L 257.671672 194.152919 
L 257.482598 193.153481 
z
" clip-path="url(#p45402630ba)" style="fill: #ff0000; stroke: #ff0000; stroke-width: 0.24"/>
    <path d="M 259.31318 193.615021 
L 255.174584 196.095163 
L 254.954462 195.102101 
L 235.093223 199.50454 
L 234.873101 198.511479 
L 254.73434 194.109039 
L 254.514218 193.115977 
z
" clip-path="url(#p45402630ba)" style="fill: #ff0000; stroke: #ff0000; stroke-width: 0.24"/>
    <path d="M 256.358293 193.520137 
L 252.298981 196.128021 
L 252.048025 195.142299 
L 232.333595 200.161418 
L 232.082639 199.175696 
L 251.797069 194.156578 
L 251.546113 193.170856 
z
" clip-path="url(#p45402630ba)" style="fill: #ff0000; stroke: #ff0000; stroke-width: 0.24"/>
    <path d="M 253.401883 193.517479 
L 249.425795 196.250573 
L 249.144249 195.273149 
L 229.595771 200.904072 
L 229.314224 199.926648 
L 248.862703 194.295725 
L 248.581156 193.318301 
z
" clip-path="url(#p45402630ba)" style="fill: #ff0000; stroke: #ff0000; stroke-width: 0.24"/>
    <path d="M 250.446834 193.606961 
L 246.557831 196.46261 
L 246.245968 195.494433 
L 226.882423 201.731693 
L 226.57056 200.763516 
L 245.934105 194.526256 
L 245.622242 193.558078 
z
" clip-path="url(#p45402630ba)" style="fill: #ff0000; stroke: #ff0000; stroke-width: 0.24"/>
    <path d="M 247.496013 193.788489 
L 243.697872 196.763922 
L 243.355994 195.805931 
L 224.196184 202.643473 
L 223.854307 201.685482 
L 243.014117 194.847941 
L 242.67224 193.88995 
z
" clip-path="url(#p45402630ba)" style="fill: #ff0000; stroke: #ff0000; stroke-width: 0.24"/>
    <path d="M 244.552266 194.061762 
L 240.848674 197.154089 
L 240.477115 196.207215 
L 221.539644 203.638398 
L 221.168084 202.691525 
L 240.105555 195.260342 
L 239.733996 194.313468 
z
" clip-path="url(#p45402630ba)" style="fill: #ff0000; stroke: #ff0000; stroke-width: 0.24"/>
    <path d="M 241.618461 194.426672 
L 238.013015 197.632889 
L 237.612134 196.698052 
L 218.91539 204.715662 
L 218.51451 203.780824 
L 237.211254 195.763215 
L 236.810373 194.828378 
z
" clip-path="url(#p45402630ba)" style="fill: #ff0000; stroke: #ff0000; stroke-width: 0.24"/>
    <path d="M 238.697449 194.882694 
L 235.193649 198.19969 
L 234.763836 197.277797 
L 216.325974 205.874047 
L 215.896161 204.952154 
L 234.334024 196.355904 
L 233.904211 195.434011 
z
" clip-path="url(#p45402630ba)" style="fill: #ff0000; stroke: #ff0000; stroke-width: 0.24"/>
    <path d="M 235.792079 195.429705 
L 232.393327 198.854258 
L 231.935 197.946204 
L 213.773922 207.112749 
L 213.315595 206.204695 
L 231.476673 197.03815 
L 231.018346 196.130096 
z
" clip-path="url(#p45402630ba)" style="fill: #ff0000; stroke: #ff0000; stroke-width: 0.24"/>
    <path d="M 232.905041 196.066754 
L 229.614638 199.595539 
L 229.128242 198.702206 
L 211.261582 208.430145 
L 210.775186 207.536812 
L 228.641845 197.808873 
L 228.155448 196.915541 
z
" clip-path="url(#p45402630ba)" style="fill: #ff0000; stroke: #ff0000; stroke-width: 0.24"/>
    <path d="M 230.039412 196.793696 
L 226.860553 200.423287 
L 226.346558 199.545543 
L 208.791666 209.825429 
L 208.277672 208.947684 
L 225.832564 198.667798 
L 225.31857 197.790053 
z
" clip-path="url(#p45402630ba)" style="fill: #ff0000; stroke: #ff0000; stroke-width: 0.24"/>
    <path d="M 229.403292 196.245562 
L 226.339059 199.972431 
L 225.797967 199.111127 
L 208.571877 209.932962 
L 208.030785 209.071658 
L 225.256876 198.249822 
L 224.715784 197.388518 
z
" clip-path="url(#p45402630ba)" style="fill: #ff0000; stroke: #ff0000; stroke-width: 0.24"/>
    <path d="M 231.371566 194.039482 
L 228.424939 197.860015 
L 227.857275 197.015987 
L 210.976723 208.369281 
L 210.409059 207.525253 
L 227.28961 196.17196 
L 226.721945 195.327932 
z
" clip-path="url(#p45402630ba)" style="fill: #ff0000; stroke: #ff0000; stroke-width: 0.24"/>
    <path d="M 233.270125 191.773265 
L 230.443964 195.68375 
L 229.850278 194.857819 
L 213.331656 206.731547 
L 212.73797 205.905616 
L 229.256592 194.031888 
L 228.662905 193.205957 
z
" clip-path="url(#p45402630ba)" style="fill: #ff0000; stroke: #ff0000; stroke-width: 0.24"/>
    <path d="M 235.097281 189.449155 
L 232.394332 193.445796 
L 231.7752 192.638764 
L 215.634547 205.021397 
L 215.015416 204.214365 
L 231.156069 191.831731 
L 230.536937 191.024698 
z
" clip-path="url(#p45402630ba)" style="fill: #ff0000; stroke: #ff0000; stroke-width: 0.24"/>
    <path d="M 236.851024 187.068979 
L 234.27391 191.147896 
L 233.629935 190.360545 
L 217.882923 203.240061 
L 217.238947 202.45271 
L 232.985959 189.573195 
L 232.341983 188.785844 
z
" clip-path="url(#p45402630ba)" style="fill: #ff0000; stroke: #ff0000; stroke-width: 0.24"/>
    <path d="M 238.529767 184.635566 
L 236.080991 188.792797 
L 235.412796 188.025893 
L 220.074716 201.389785 
L 219.406522 200.622881 
L 234.744602 187.258989 
L 234.076407 186.492085 
z
" clip-path="url(#p45402630ba)" style="fill: #ff0000; stroke: #ff0000; stroke-width: 0.24"/>
    <path d="M 240.13188 182.150916 
L 237.81382 186.382425 
L 237.122055 185.636713 
L 222.2078 199.472004 
L 221.516036 198.726291 
L 236.430291 184.891 
L 235.738526 184.145287 
z
" clip-path="url(#p45402630ba)" style="fill: #ff0000; stroke: #ff0000; stroke-width: 0.24"/>
    <path d="M 241.655794 179.61742 
L 239.470699 183.919099 
L 238.756036 183.195302 
L 224.280088 197.488559 
L 223.565425 196.764761 
L 238.041374 182.471504 
L 237.326711 181.747707 
z
" clip-path="url(#p45402630ba)" style="fill: #ff0000; stroke: #ff0000; stroke-width: 0.24"/>
    <path d="M 243.100034 177.037862 
L 241.050028 181.405533 
L 240.313161 180.704354 
L 226.289574 195.441698 
L 225.552707 194.740519 
L 239.576293 180.003174 
L 238.839426 179.301995 
z
" clip-path="url(#p45402630ba)" style="fill: #ff0000; stroke: #ff0000; stroke-width: 0.24"/>
    <path d="M 244.463207 174.414396 
L 242.55028 178.843819 
L 241.791924 178.165938 
L 228.234317 193.33306 
L 227.475961 192.65518 
L 241.033568 177.488058 
L 240.275212 176.810178 
z
" clip-path="url(#p45402630ba)" style="fill: #ff0000; stroke: #ff0000; stroke-width: 0.24"/>
    <path d="M 245.743976 171.749772 
L 243.969984 176.236645 
L 243.190876 175.582722 
L 230.112412 191.164894 
L 229.333304 190.510971 
L 242.411767 174.928799 
L 241.632659 174.274876 
z
" clip-path="url(#p45402630ba)" style="fill: #ff0000; stroke: #ff0000; stroke-width: 0.24"/>
    <path d="M 246.941139 169.046736 
L 245.307802 173.586702 
L 244.508698 172.95737 
L 231.922061 188.93945 
L 231.122957 188.310118 
L 243.709594 172.328038 
L 242.91049 171.698707 
z
" clip-path="url(#p45402630ba)" style="fill: #ff0000; stroke: #ff0000; stroke-width: 0.24"/>
    <path d="M 248.053455 166.307565 
L 246.562362 170.896216 
L 245.744038 170.292087 
L 233.661464 186.658569 
L 232.84314 186.05444 
L 244.925714 169.687959 
L 244.10739 169.08383 
z
" clip-path="url(#p45402630ba)" style="fill: #ff0000; stroke: #ff0000; stroke-width: 0.24"/>
    <path d="M 249.079896 163.534968 
L 247.732495 168.167849 
L 246.895746 167.58951 
L 235.328968 184.324502 
L 234.492219 183.746163 
L 246.058996 167.011172 
L 245.222247 166.432833 
z
" clip-path="url(#p45402630ba)" style="fill: #ff0000; stroke: #ff0000; stroke-width: 0.24"/>
    <path d="M 250.019451 160.731825 
L 248.817051 165.404438 
L 247.962688 164.852451 
L 236.922938 181.939703 
L 236.068575 181.387716 
L 247.108326 164.300463 
L 246.253963 163.748476 
z
" clip-path="url(#p45402630ba)" style="fill: #ff0000; stroke: #ff0000; stroke-width: 0.24"/>
    <path d="M 250.871286 157.900832 
L 249.815041 162.608637 
L 248.943896 162.083534 
L 238.44184 179.506424 
L 237.570695 178.981321 
L 248.072752 161.558431 
L 247.201607 161.033328 
z
" clip-path="url(#p45402630ba)" style="fill: #ff0000; stroke: #ff0000; stroke-width: 0.24"/>
    <path d="M 251.634269 155.044652 
L 250.725255 159.783088 
L 249.838168 159.285389 
L 239.884197 177.027113 
L 238.997111 176.529414 
L 248.951082 158.787691 
L 248.063996 158.289992 
z
" clip-path="url(#p45402630ba)" style="fill: #ff0000; stroke: #ff0000; stroke-width: 0.24"/>
    <path d="M 252.308098 152.165984 
L 251.547151 156.93044 
L 250.64499 156.46062 
L 241.248593 174.503846 
L 240.346432 174.034027 
L 249.742828 155.9908 
L 248.840667 155.52098 
z
" clip-path="url(#p45402630ba)" style="fill: #ff0000; stroke: #ff0000; stroke-width: 0.24"/>
    <path d="M 252.891901 149.267803 
L 252.27976 154.053653 
L 251.363399 153.612168 
L 242.5337 171.939381 
L 241.617339 171.497896 
L 250.447039 153.170683 
L 249.530678 152.729199 
z
" clip-path="url(#p45402630ba)" style="fill: #ff0000; stroke: #ff0000; stroke-width: 0.24"/>
    <path d="M 253.385132 146.352848 
L 252.922391 151.155447 
L 251.992721 150.742725 
L 243.738291 169.336129 
L 242.808621 168.923408 
L 251.06305 150.330004 
L 250.13338 149.917282 
z
" clip-path="url(#p45402630ba)" style="fill: #ff0000; stroke: #ff0000; stroke-width: 0.24"/>
    <path d="M 253.787315 143.423938 
L 253.474423 148.238622 
L 252.532346 147.855064 
L 244.8612 166.696609 
L 243.919123 166.313052 
L 251.590269 147.471507 
L 250.648191 147.08795 
z
" clip-path="url(#p45402630ba)" style="fill: #ff0000; stroke: #ff0000; stroke-width: 0.24"/>
    <path d="M 254.098045 140.483911 
L 253.935306 145.306005 
L 252.981737 144.951984 
L 245.901322 164.023377 
L 244.947752 163.669356 
L 252.028167 144.597964 
L 251.074597 144.243943 
z
" clip-path="url(#p45402630ba)" style="fill: #ff0000; stroke: #ff0000; stroke-width: 0.24"/>
    <path d="M 254.316772 137.535543 
L 254.304392 142.360367 
L 253.340253 142.036236 
L 246.857636 161.319026 
L 245.893497 160.994895 
L 252.376113 141.712106 
L 251.411974 141.387975 
z
" clip-path="url(#p45402630ba)" style="fill: #ff0000; stroke: #ff0000; stroke-width: 0.24"/>
    <path d="M 254.44378 134.581898 
L 254.581724 139.404766 
L 253.607954 139.11083 
L 247.729239 158.586225 
L 246.75547 158.292289 
L 252.634184 138.816894 
L 251.660415 138.522959 
z
" clip-path="url(#p45402630ba)" style="fill: #ff0000; stroke: #ff0000; stroke-width: 0.24"/>
    <path d="M 254.478701 131.625704 
L 254.766834 136.441933 
L 253.784379 136.178477 
L 248.515273 155.827569 
L 247.532819 155.564114 
L 252.801925 135.915022 
L 251.81947 135.651567 
z
" clip-path="url(#p45402630ba)" style="fill: #ff0000; stroke: #ff0000; stroke-width: 0.24"/>
    <path d="M 254.421486 128.669866 
L 254.859529 133.47478 
L 253.869343 133.242061 
L 249.214962 153.045773 
L 248.224776 152.813054 
L 252.879158 133.009342 
L 251.888972 132.776623 
z
" clip-path="url(#p45402630ba)" style="fill: #ff0000; stroke: #ff0000; stroke-width: 0.24"/>
    <path d="M 254.272216 125.71724 
L 254.859743 130.506174 
L 253.862787 130.304417 
L 249.827649 150.243523 
L 248.830694 150.041766 
L 252.865832 130.10266 
L 251.868877 129.900903 
z
" clip-path="url(#p45402630ba)" style="fill: #ff0000; stroke: #ff0000; stroke-width: 0.24"/>
    <path d="M 254.03077 122.770648 
L 254.767259 127.538946 
L 253.7645 127.368357 
L 250.352723 147.423532 
L 249.349964 147.252944 
L 252.761741 127.197768 
L 251.758982 127.027179 
z
" clip-path="url(#p45402630ba)" style="fill: #ff0000; stroke: #ff0000; stroke-width: 0.24"/>
    <path d="M 253.697893 119.833066 
L 254.58258 124.576104 
L 253.574993 124.436838 
L 250.78969 144.588572 
L 249.782103 144.449307 
L 252.567406 124.297573 
L 251.559819 124.158308 
z
" clip-path="url(#p45402630ba)" style="fill: #ff0000; stroke: #ff0000; stroke-width: 0.24"/>
    <path d="M 253.273636 116.907265 
L 254.305663 121.620438 
L 253.294226 121.512632 
L 251.138102 141.741359 
L 250.126666 141.633553 
L 252.28279 121.404825 
L 251.271354 121.297019 
z
" clip-path="url(#p45402630ba)" style="fill: #ff0000; stroke: #ff0000; stroke-width: 0.24"/>
    <path d="M 254.093431 113.530112 
L 255.04727 118.259728 
L 254.037757 118.135188 
L 251.546956 138.325438 
L 250.537444 138.200898 
L 253.028245 118.010648 
L 252.018732 117.886108 
z
" clip-path="url(#p45402630ba)" style="fill: #ff0000; stroke: #ff0000; stroke-width: 0.24"/>
    <path d="M 254.515697 110.107268 
L 255.469536 114.836885 
L 254.460023 114.712345 
L 251.969222 134.902595 
L 250.95971 134.778055 
L 253.450511 114.587805 
L 252.440998 114.463265 
z
" clip-path="url(#p45402630ba)" style="fill: #ff0000; stroke: #ff0000; stroke-width: 0.24"/>
    <path d="M 254.937963 106.684506 
L 255.891802 111.414123 
L 254.88229 111.289583 
L 252.391489 131.479833 
L 251.381976 131.355293 
L 253.872777 111.165043 
L 252.863264 111.040503 
z
" clip-path="url(#p45402630ba)" style="fill: #ff0000; stroke: #ff0000; stroke-width: 0.24"/>
    <path d="M 255.36025 103.261541 
L 256.314088 107.991157 
L 255.304576 107.866617 
L 252.813775 128.056867 
L 251.804262 127.932327 
L 254.295063 107.742077 
L 253.285551 107.617537 
z
" clip-path="url(#p45402630ba)" style="fill: #ff0000; stroke: #ff0000; stroke-width: 0.24"/>
    <path d="M 255.782516 99.838779 
L 256.736355 104.568395 
L 255.726842 104.443855 
L 253.236041 124.634105 
L 252.226529 124.509565 
L 254.71733 104.319315 
L 253.707817 104.194775 
z
" clip-path="url(#p45402630ba)" style="fill: #ff0000; stroke: #ff0000; stroke-width: 0.24"/>
    <path d="M 256.204802 96.416017 
L 257.158641 101.145633 
L 256.149129 101.021093 
L 253.658328 121.211343 
L 252.648815 121.086803 
L 255.139616 100.896553 
L 254.130103 100.772013 
z
" clip-path="url(#p45402630ba)" style="fill: #ff0000; stroke: #ff0000; stroke-width: 0.24"/>
    <path d="M 256.627069 92.993051 
L 257.580907 97.722668 
L 256.571395 97.598128 
L 254.080594 117.788378 
L 253.071081 117.663838 
L 255.561882 97.473588 
L 254.55237 97.349048 
z
" clip-path="url(#p45402630ba)" style="fill: #ff0000; stroke: #ff0000; stroke-width: 0.24"/>
    <path d="M 257.049335 89.570289 
L 258.003173 94.299906 
L 256.993661 94.175366 
L 254.50286 114.365616 
L 253.493347 114.241076 
L 255.984148 94.050826 
L 254.974636 93.926286 
z
" clip-path="url(#p45402630ba)" style="fill: #ff0000; stroke: #ff0000; stroke-width: 0.24"/>
    <path d="M 257.471662 86.147527 
L 258.4255 90.877144 
L 257.415988 90.752604 
L 254.925187 110.942854 
L 253.915674 110.818314 
L 256.406475 90.628064 
L 255.396963 90.503524 
z
" clip-path="url(#p45402630ba)" style="fill: #ff0000; stroke: #ff0000; stroke-width: 0.24"/>
    <path d="M 257.893989 82.724562 
L 258.847827 87.454178 
L 257.838315 87.329638 
L 255.347514 107.519888 
L 254.338001 107.395348 
L 256.828802 87.205098 
L 255.81929 87.080558 
z
" clip-path="url(#p45402630ba)" style="fill: #ff0000; stroke: #ff0000; stroke-width: 0.24"/>
    <path d="M 258.316113 79.3018 
L 259.269951 84.031416 
L 258.260439 83.906876 
L 255.769638 104.097126 
L 254.760125 103.972586 
L 257.250926 83.782336 
L 256.241414 83.657796 
z
" clip-path="url(#p45402630ba)" style="fill: #ff0000; stroke: #ff0000; stroke-width: 0.24"/>
    <path d="M 258.73844 75.879038 
L 259.692278 80.608654 
L 258.682766 80.484114 
L 256.191965 100.674364 
L 255.182452 100.549824 
L 257.673253 80.359574 
L 256.663741 80.235034 
z
" clip-path="url(#p45402630ba)" style="fill: #ff0000; stroke: #ff0000; stroke-width: 0.24"/>
    <path d="M 259.160767 72.456072 
L 260.114605 77.185689 
L 259.105093 77.061149 
L 256.614292 97.251399 
L 255.604779 97.126859 
L 258.09558 76.936609 
L 257.086068 76.812069 
z
" clip-path="url(#p45402630ba)" style="fill: #ff0000; stroke: #ff0000; stroke-width: 0.24"/>
    <path d="M 259.582891 69.03331 
L 260.536729 73.762927 
L 259.527217 73.638387 
L 257.036416 93.828637 
L 256.026903 93.704097 
L 258.517704 73.513847 
L 257.508192 73.389307 
z
" clip-path="url(#p45402630ba)" style="fill: #ff0000; stroke: #ff0000; stroke-width: 0.24"/>
    <path d="M 260.005218 65.610345 
L 260.959056 70.339961 
L 259.949544 70.215421 
L 257.458743 90.405671 
L 256.44923 90.281131 
L 258.940031 70.090881 
L 257.930519 69.966341 
z
" clip-path="url(#p45402630ba)" style="fill: #ff0000; stroke: #ff0000; stroke-width: 0.24"/>
    <path d="M 260.427545 62.187583 
L 261.381383 66.917199 
L 260.371871 66.792659 
L 257.88107 86.982909 
L 256.871557 86.858369 
L 259.362358 66.668119 
L 258.352846 66.543579 
z
" clip-path="url(#p45402630ba)" style="fill: #ff0000; stroke: #ff0000; stroke-width: 0.24"/>
    <path d="M 260.849872 58.764821 
L 261.803711 63.494437 
L 260.794198 63.369897 
L 258.303397 83.560147 
L 257.293885 83.435607 
L 259.784686 63.245357 
L 258.775173 63.120817 
z
" clip-path="url(#p45402630ba)" style="fill: #ff0000; stroke: #ff0000; stroke-width: 0.24"/>
    <path d="M 261.271996 55.341855 
L 262.225834 60.071472 
L 261.216322 59.946932 
L 258.725521 80.137182 
L 257.716008 80.012642 
L 260.206809 59.822392 
L 259.197297 59.697852 
z
" clip-path="url(#p45402630ba)" style="fill: #ff0000; stroke: #ff0000; stroke-width: 0.24"/>
    <path d="M 261.449257 51.890169 
L 262.449069 56.610281 
L 261.438393 56.495569 
L 259.144158 76.709099 
L 258.133481 76.594387 
L 260.427716 56.380857 
L 259.41704 56.266146 
z
" clip-path="url(#p45402630ba)" style="fill: #ff0000; stroke: #ff0000; stroke-width: 0.24"/>
    <path d="M 260.838988 48.368551 
L 262.015855 53.04766 
L 261.001576 52.971093 
L 259.470232 73.256686 
L 258.455952 73.180119 
L 259.987296 52.894526 
L 258.973016 52.817959 
z
" clip-path="url(#p45402630ba)" style="fill: #ff0000; stroke: #ff0000; stroke-width: 0.24"/>
    <path d="M 260.096674 44.872427 
L 261.448926 49.503894 
L 260.432483 49.46558 
L 259.666203 69.794454 
L 258.649759 69.75614 
L 259.416039 49.427266 
L 258.399595 49.388952 
z
" clip-path="url(#p45402630ba)" style="fill: #ff0000; stroke: #ff0000; stroke-width: 0.24"/>
    <path d="M 259.222784 41.406754 
L 260.74855 45.983993 
L 259.731384 45.983997 
L 259.731459 66.327307 
L 258.714293 66.327311 
L 258.714218 45.984 
L 257.697053 45.984004 
z
" clip-path="url(#p45402630ba)" style="fill: #ff0000; stroke: #ff0000; stroke-width: 0.24"/>
   </g>
   <g id="matplotlib.axis_1">
    <g id="xtick_1">
     <g id="line2d_1">
      <defs>
       <path id="m934061f08c" d="M 0 0 
L 0 -3 
" style="stroke: #000000"/>
      </defs>
      <g>
       <use xlink:href="#m934061f08c" x="152.420494" y="290.32" style="stroke: #000000"/>
      </g>
     </g>
     <g id="text_1">
      <!-- −4 -->
      <g transform="translate(144.680846 303.898359) scale(0.105 -0.105)">
       <defs>
        <path id="DejaVuSans-2212" d="M 678 2272 
L 4684 2272 
L 4684 1741 
L 678 1741 
L 678 2272 
z
" transform="scale(0.015625)"/>
        <path id="DejaVuSans-34" d="M 2419 4116 
L 825 1625 
L 2419 1625 
L 2419 4116 
z
M 2253 4666 
L 3047 4666 
L 3047 1625 
L 3713 1625 
L 3713 1100 
L 3047 1100 
L 3047 0 
L 2419 0 
L 2419 1100 
L 313 1100 
L 313 1709 
L 2253 4666 
z
" transform="scale(0.015625)"/>
       </defs>
       <use xlink:href="#DejaVuSans-2212"/>
       <use xlink:href="#DejaVuSans-34" x="83.789062"/>
      </g>
     </g>
    </g>
    <g id="xtick_2">
     <g id="line2d_2">
      <g>
       <use xlink:href="#m934061f08c" x="193.107116" y="290.32" style="stroke: #000000"/>
      </g>
     </g>
     <g id="text_2">
      <!-- −2 -->
      <g transform="translate(185.367468 303.898359) scale(0.105 -0.105)">
       <defs>
        <path id="DejaVuSans-32" d="M 1228 531 
L 3431 531 
L 3431 0 
L 469 0 
L 469 531 
Q 828 903 1448 1529 
Q 2069 2156 2228 2338 
Q 2531 2678 2651 2914 
Q 2772 3150 2772 3378 
Q 2772 3750 2511 3984 
Q 2250 4219 1831 4219 
Q 1534 4219 1204 4116 
Q 875 4013 500 3803 
L 500 4441 
Q 881 4594 1212 4672 
Q 1544 4750 1819 4750 
Q 2544 4750 2975 4387 
Q 3406 4025 3406 3419 
Q 3406 3131 3298 2873 
Q 3191 2616 2906 2266 
Q 2828 2175 2409 1742 
Q 1991 1309 1228 531 
z
" transform="scale(0.015625)"/>
       </defs>
       <use xlink:href="#DejaVuSans-2212"/>
       <use xlink:href="#DejaVuSans-32" x="83.789062"/>
      </g>
     </g>
    </g>
    <g id="xtick_3">
     <g id="line2d_3">
      <g>
       <use xlink:href="#m934061f08c" x="233.793738" y="290.32" style="stroke: #000000"/>
      </g>
     </g>
     <g id="text_3">
      <!-- 0 -->
      <g transform="translate(230.453425 303.898359) scale(0.105 -0.105)">
       <defs>
        <path id="DejaVuSans-30" d="M 2034 4250 
Q 1547 4250 1301 3770 
Q 1056 3291 1056 2328 
Q 1056 1369 1301 889 
Q 1547 409 2034 409 
Q 2525 409 2770 889 
Q 3016 1369 3016 2328 
Q 3016 3291 2770 3770 
Q 2525 4250 2034 4250 
z
M 2034 4750 
Q 2819 4750 3233 4129 
Q 3647 3509 3647 2328 
Q 3647 1150 3233 529 
Q 2819 -91 2034 -91 
Q 1250 -91 836 529 
Q 422 1150 422 2328 
Q 422 3509 836 4129 
Q 1250 4750 2034 4750 
z
" transform="scale(0.015625)"/>
       </defs>
       <use xlink:href="#DejaVuSans-30"/>
      </g>
     </g>
    </g>
    <g id="xtick_4">
     <g id="line2d_4">
      <g>
       <use xlink:href="#m934061f08c" x="274.480359" y="290.32" style="stroke: #000000"/>
      </g>
     </g>
     <g id="text_4">
      <!-- 2 -->
      <g transform="translate(271.140047 303.898359) scale(0.105 -0.105)">
       <use xlink:href="#DejaVuSans-32"/>
      </g>
     </g>
    </g>
    <g id="xtick_5">
     <g id="line2d_5">
      <g>
       <use xlink:href="#m934061f08c" x="315.166981" y="290.32" style="stroke: #000000"/>
      </g>
     </g>
     <g id="text_5">
      <!-- 4 -->
      <g transform="translate(311.826668 303.898359) scale(0.105 -0.105)">
       <use xlink:href="#DejaVuSans-34"/>
      </g>
     </g>
    </g>
   </g>
   <g id="matplotlib.axis_2">
    <g id="ytick_1">
     <g id="line2d_6">
      <defs>
       <path id="mf9aace9816" d="M 0 0 
L 3 0 
" style="stroke: #000000"/>
      </defs>
      <g>
       <use xlink:href="#mf9aace9816" x="122.761156" y="278.213062" style="stroke: #000000"/>
      </g>
     </g>
     <g id="text_6">
      <!-- −6 -->
      <g transform="translate(101.681859 282.202242) scale(0.105 -0.105)">
       <defs>
        <path id="DejaVuSans-36" d="M 2113 2584 
Q 1688 2584 1439 2293 
Q 1191 2003 1191 1497 
Q 1191 994 1439 701 
Q 1688 409 2113 409 
Q 2538 409 2786 701 
Q 3034 994 3034 1497 
Q 3034 2003 2786 2293 
Q 2538 2584 2113 2584 
z
M 3366 4563 
L 3366 3988 
Q 3128 4100 2886 4159 
Q 2644 4219 2406 4219 
Q 1781 4219 1451 3797 
Q 1122 3375 1075 2522 
Q 1259 2794 1537 2939 
Q 1816 3084 2150 3084 
Q 2853 3084 3261 2657 
Q 3669 2231 3669 1497 
Q 3669 778 3244 343 
Q 2819 -91 2113 -91 
Q 1303 -91 875 529 
Q 447 1150 447 2328 
Q 447 3434 972 4092 
Q 1497 4750 2381 4750 
Q 2619 4750 2861 4703 
Q 3103 4656 3366 4563 
z
" transform="scale(0.015625)"/>
       </defs>
       <use xlink:href="#DejaVuSans-2212"/>
       <use xlink:href="#DejaVuSans-36" x="83.789062"/>
      </g>
     </g>
    </g>
    <g id="ytick_2">
     <g id="line2d_7">
      <g>
       <use xlink:href="#mf9aace9816" x="122.761156" y="237.526441" style="stroke: #000000"/>
      </g>
     </g>
     <g id="text_7">
      <!-- −4 -->
      <g transform="translate(101.681859 241.515621) scale(0.105 -0.105)">
       <use xlink:href="#DejaVuSans-2212"/>
       <use xlink:href="#DejaVuSans-34" x="83.789062"/>
      </g>
     </g>
    </g>
    <g id="ytick_3">
     <g id="line2d_8">
      <g>
       <use xlink:href="#mf9aace9816" x="122.761156" y="196.839819" style="stroke: #000000"/>
      </g>
     </g>
     <g id="text_8">
      <!-- −2 -->
      <g transform="translate(101.681859 200.828999) scale(0.105 -0.105)">
       <use xlink:href="#DejaVuSans-2212"/>
       <use xlink:href="#DejaVuSans-32" x="83.789062"/>
      </g>
     </g>
    </g>
    <g id="ytick_4">
     <g id="line2d_9">
      <g>
       <use xlink:href="#mf9aace9816" x="122.761156" y="156.153198" style="stroke: #000000"/>
      </g>
     </g>
     <g id="text_9">
      <!-- 0 -->
      <g transform="translate(110.480531 160.142378) scale(0.105 -0.105)">
       <use xlink:href="#DejaVuSans-30"/>
      </g>
     </g>
    </g>
    <g id="ytick_5">
     <g id="line2d_10">
      <g>
       <use xlink:href="#mf9aace9816" x="122.761156" y="115.466576" style="stroke: #000000"/>
      </g>
     </g>
     <g id="text_10">
      <!-- 2 -->
      <g transform="translate(110.480531 119.455756) scale(0.105 -0.105)">
       <use xlink:href="#DejaVuSans-32"/>
      </g>
     </g>
    </g>
    <g id="ytick_6">
     <g id="line2d_11">
      <g>
       <use xlink:href="#mf9aace9816" x="122.761156" y="74.779955" style="stroke: #000000"/>
      </g>
     </g>
     <g id="text_11">
      <!-- 4 -->
      <g transform="translate(110.480531 78.769135) scale(0.105 -0.105)">
       <use xlink:href="#DejaVuSans-34"/>
      </g>
     </g>
    </g>
    <g id="ytick_7">
     <g id="line2d_12">
      <g>
       <use xlink:href="#mf9aace9816" x="122.761156" y="34.093333" style="stroke: #000000"/>
      </g>
     </g>
     <g id="text_12">
      <!-- 6 -->
      <g transform="translate(110.480531 38.082513) scale(0.105 -0.105)">
       <use xlink:href="#DejaVuSans-36"/>
      </g>
     </g>
    </g>
   </g>
   <g id="patch_3">
    <path d="M 122.761156 290.32 
L 122.761156 10.8 
" style="fill: none; stroke: #000000; stroke-width: 0.8; stroke-linejoin: miter; stroke-linecap: square"/>
   </g>
   <g id="patch_4">
    <path d="M 338.038844 290.32 
L 338.038844 10.8 
" style="fill: none; stroke: #000000; stroke-width: 0.8; stroke-linejoin: miter; stroke-linecap: square"/>
   </g>
   <g id="patch_5">
    <path d="M 122.761156 290.32 
L 338.038844 290.32 
" style="fill: none; stroke: #000000; stroke-width: 0.8; stroke-linejoin: miter; stroke-linecap: square"/>
   </g>
   <g id="patch_6">
    <path d="M 122.761156 10.8 
L 338.038844 10.8 
" style="fill: none; stroke: #000000; stroke-width: 0.8; stroke-linejoin: miter; stroke-linecap: square"/>
   </g>
  </g>
 </g>
 <defs>
  <clipPath id="p45402630ba">
   <rect x="122.761156" y="10.8" width="215.277687" height="279.52"/>
  </clipPath>
 </defs>
</svg>
