<?xml version="1.0" encoding="utf-8" standalone="no"?>
<!DOCTYPE svg PUBLIC "-//W3C//DTD SVG 1.1//EN"
  "http://www.w3.org/Graphics/SVG/1.1/DTD/svg11.dtd">
<svg xmlns:xlink="http://www.w3.org/1999/xlink" width="460.8pt" height="316.8pt" viewBox="0 0 460.8 316.8" xmlns="http://www.w3.org/2000/svg" version="1.1">
 <metadata>
  <rdf:RDF xmlns:dc="http://purl.org/dc/elements/1.1/" xmlns:cc="http://creativecommons.org/ns#" xmlns:rdf="http://www.w3.org/1999/02/22-rdf-syntax-ns#">
   <cc:Work>
    <dc:type rdf:resource="http://purl.org/dc/dcmitype/StillImage"/>
    <dc:date>2024-01-11T15:53:20.712171</dc:date>
    <dc:format>image/svg+xml</dc:format>
    <dc:creator>
     <cc:Agent>
      <dc:title>Matplotlib v3.7.2, https://matplotlib.org/</dc:title>
     </cc:Agent>
    </dc:creator>
   </cc:Work>
  </rdf:RDF>
 </metadata>
 <defs>
  <style type="text/css">*{stroke-linejoin: round; stroke-linecap: butt}</style>
 </defs>
 <g id="figure_1">
  <g id="patch_1">
   <path d="M 0 316.8 
L 460.8 316.8 
L 460.8 0 
L 0 0 
z
" style="fill: #ffffff"/>
  </g>
  <g id="axes_1">
   <g id="patch_2">
    <path d="M 159.289857 290.32 
L 301.510143 290.32 
L 301.510143 10.8 
L 159.289857 10.8 
z
" style="fill: #ffffff"/>
   </g>
   <g id="PatchCollection_1">
    <path d="M 213.95514 138.877519 
L 257.615218 138.877519 
L 257.615218 34.093333 
L 213.95514 34.093333 
z
" clip-path="url(#p32243d789e)" style="fill: #ffffff; stroke: #0000ff; stroke-width: 3"/>
    <path d="M 175.534272 131.891907 
L 209.44942 131.891907 
L 209.44942 50.003066 
L 175.534272 50.003066 
z
" clip-path="url(#p32243d789e)" style="fill: #ff0000; stroke: #ff0000; stroke-width: 2"/>
    <path d="M 254.122412 133.63831 
L 287.908502 136.59421 
L 295.045585 55.01698 
L 261.259494 52.06108 
z
" clip-path="url(#p32243d789e)" style="fill: #ff0000; stroke: #ff0000; stroke-width: 2"/>
   </g>
   <g id="PatchCollection_2">
    <path d="M 165.754415 190.763155 
L 247.643256 190.763155 
L 247.643256 156.848007 
L 165.754415 156.848007 
L 165.754415 190.763155 
z
" clip-path="url(#p32243d789e)" style="fill: none; stroke: #000000; stroke-width: 0.5"/>
    <path d="M 168.755281 192.757691 
L 250.60457 190.212881 
L 249.55061 156.314114 
L 167.70132 158.858924 
L 168.755281 192.757691 
z
" clip-path="url(#p32243d789e)" style="fill: none; stroke: #000000; stroke-width: 0.5"/>
    <path d="M 171.816765 194.657909 
L 253.547439 189.570756 
L 251.44054 155.721114 
L 169.709865 160.808268 
L 171.816765 194.657909 
z
" clip-path="url(#p32243d789e)" style="fill: none; stroke: #000000; stroke-width: 0.5"/>
    <path d="M 174.935826 196.46205 
L 256.468935 188.837459 
L 253.311128 155.069641 
L 171.778019 162.694232 
L 174.935826 196.46205 
z
" clip-path="url(#p32243d789e)" style="fill: none; stroke: #000000; stroke-width: 0.5"/>
    <path d="M 178.109344 198.1685 
L 259.366134 188.013876 
L 255.160487 154.360499 
L 173.903697 164.515123 
L 178.109344 198.1685 
z
" clip-path="url(#p32243d789e)" style="fill: none; stroke: #000000; stroke-width: 0.5"/>
    <path d="M 181.334544 199.775454 
L 262.236511 187.100519 
L 256.987049 153.594095 
L 176.085082 166.26903 
L 181.334544 199.775454 
z
" clip-path="url(#p32243d789e)" style="fill: none; stroke: #000000; stroke-width: 0.5"/>
    <path d="M 184.607972 201.281424 
L 265.076979 186.098501 
L 258.788808 152.771392 
L 178.3198 167.954316 
L 184.607972 201.281424 
z
" clip-path="url(#p32243d789e)" style="fill: none; stroke: #000000; stroke-width: 0.5"/>
    <path d="M 187.926752 202.684852 
L 267.885053 185.008527 
L 260.564212 151.892934 
L 180.605911 169.569258 
L 187.926752 202.684852 
z
" clip-path="url(#p32243d789e)" style="fill: none; stroke: #000000; stroke-width: 0.5"/>
    <path d="M 191.28731 203.984486 
L 270.657683 183.831914 
L 262.311278 150.959817 
L 182.940905 171.112388 
L 191.28731 203.984486 
z
" clip-path="url(#p32243d789e)" style="fill: none; stroke: #000000; stroke-width: 0.5"/>
    <path d="M 194.686803 205.179109 
L 273.392581 182.569758 
L 264.028674 149.97291 
L 185.322896 172.582261 
L 194.686803 205.179109 
z
" clip-path="url(#p32243d789e)" style="fill: none; stroke: #000000; stroke-width: 0.5"/>
    <path d="M 198.121817 206.267535 
L 276.086949 181.223165 
L 265.714552 148.933063 
L 187.74942 173.977433 
L 198.121817 206.267535 
z
" clip-path="url(#p32243d789e)" style="fill: none; stroke: #000000; stroke-width: 0.5"/>
    <path d="M 201.588949 207.248607 
L 278.738147 179.793488 
L 267.367313 147.841315 
L 190.218115 175.296433 
L 201.588949 207.248607 
z
" clip-path="url(#p32243d789e)" style="fill: none; stroke: #000000; stroke-width: 0.5"/>
    <path d="M 205.084849 208.121553 
L 281.343591 178.282206 
L 268.985303 146.698825 
L 192.726562 176.538171 
L 205.084849 208.121553 
z
" clip-path="url(#p32243d789e)" style="fill: none; stroke: #000000; stroke-width: 0.5"/>
    <path d="M 207.628661 209.299528 
L 282.923252 177.104702 
L 269.589417 145.920634 
L 194.294826 178.11546 
L 207.628661 209.299528 
z
" clip-path="url(#p32243d789e)" style="fill: none; stroke: #000000; stroke-width: 0.5"/>
    <path d="M 206.710725 211.943723 
L 280.968465 177.424592 
L 266.671993 146.669947 
L 192.414254 181.189078 
L 206.710725 211.943723 
z
" clip-path="url(#p32243d789e)" style="fill: none; stroke: #000000; stroke-width: 0.5"/>
    <path d="M 205.875537 214.615135 
L 279.024695 177.805042 
L 263.779398 147.509528 
L 190.630239 184.319621 
L 205.875537 214.615135 
z
" clip-path="url(#p32243d789e)" style="fill: none; stroke: #000000; stroke-width: 0.5"/>
    <path d="M 205.123571 217.311213 
L 277.093451 178.245644 
L 260.914024 148.438541 
L 188.944144 187.50411 
L 205.123571 217.311213 
z
" clip-path="url(#p32243d789e)" style="fill: none; stroke: #000000; stroke-width: 0.5"/>
    <path d="M 204.455993 220.029472 
L 275.177111 178.746235 
L 258.079212 149.456319 
L 187.358094 190.739557 
L 204.455993 220.029472 
z
" clip-path="url(#p32243d789e)" style="fill: none; stroke: #000000; stroke-width: 0.5"/>
    <path d="M 203.873006 222.766923 
L 273.277051 179.305895 
L 255.277196 150.561461 
L 185.873152 194.022489 
L 203.873006 222.766923 
z
" clip-path="url(#p32243d789e)" style="fill: none; stroke: #000000; stroke-width: 0.5"/>
    <path d="M 203.375478 225.521315 
L 271.395361 179.92441 
L 252.51091 151.753241 
L 184.491027 197.350146 
L 203.375478 225.521315 
z
" clip-path="url(#p32243d789e)" style="fill: none; stroke: #000000; stroke-width: 0.5"/>
    <path d="M 202.963728 228.289956 
L 269.533791 180.601287 
L 249.783014 153.030577 
L 183.212951 200.719245 
L 202.963728 228.289956 
z
" clip-path="url(#p32243d789e)" style="fill: none; stroke: #000000; stroke-width: 0.5"/>
    <path d="M 202.638241 231.069858 
L 267.694129 181.335426 
L 247.096076 154.391827 
L 182.040189 204.126259 
L 202.638241 231.069858 
z
" clip-path="url(#p32243d789e)" style="fill: none; stroke: #000000; stroke-width: 0.5"/>
    <path d="M 202.399423 233.858605 
L 265.878344 182.126517 
L 244.45294 155.836037 
L 180.97402 207.568125 
L 202.399423 233.858605 
z
" clip-path="url(#p32243d789e)" style="fill: none; stroke: #000000; stroke-width: 0.5"/>
    <path d="M 202.247278 236.653439 
L 264.087913 182.973666 
L 241.855855 157.361698 
L 180.01522 211.041472 
L 202.247278 236.653439 
z
" clip-path="url(#p32243d789e)" style="fill: none; stroke: #000000; stroke-width: 0.5"/>
    <path d="M 202.18195 239.451642 
L 262.32451 183.875976 
L 239.307247 158.967285 
L 179.164687 214.542951 
L 202.18195 239.451642 
z
" clip-path="url(#p32243d789e)" style="fill: none; stroke: #000000; stroke-width: 0.5"/>
    <path d="M 202.203728 242.250615 
L 260.590172 184.832799 
L 236.809963 160.651423 
L 178.42352 218.069238 
L 202.203728 242.250615 
z
" clip-path="url(#p32243d789e)" style="fill: none; stroke: #000000; stroke-width: 0.5"/>
    <path d="M 202.312511 245.047397 
L 258.886439 185.842897 
L 234.366256 162.412193 
L 177.792327 221.616694 
L 202.312511 245.047397 
z
" clip-path="url(#p32243d789e)" style="fill: none; stroke: #000000; stroke-width: 0.5"/>
    <path d="M 202.508169 247.839603 
L 257.214873 186.905551 
L 231.978377 164.248178 
L 177.271673 225.18223 
L 202.508169 247.839603 
z
" clip-path="url(#p32243d789e)" style="fill: none; stroke: #000000; stroke-width: 0.5"/>
    <path d="M 202.790362 250.624281 
L 255.577058 188.019593 
L 229.648651 166.157412 
L 176.861954 228.7621 
L 202.790362 250.624281 
z
" clip-path="url(#p32243d789e)" style="fill: none; stroke: #000000; stroke-width: 0.5"/>
    <path d="M 203.159005 253.398807 
L 253.974704 189.183956 
L 227.37943 168.138086 
L 176.563731 232.352936 
L 203.159005 253.398807 
z
" clip-path="url(#p32243d789e)" style="fill: none; stroke: #000000; stroke-width: 0.5"/>
    <path d="M 203.613761 256.160608 
L 252.409311 190.397574 
L 225.17284 170.18837 
L 176.37729 235.951404 
L 203.613761 256.160608 
z
" clip-path="url(#p32243d789e)" style="fill: none; stroke: #000000; stroke-width: 0.5"/>
    <path d="M 204.154064 258.906914 
L 250.882395 191.659272 
L 223.031057 172.306229 
L 176.302726 239.553871 
L 204.154064 258.906914 
z
" clip-path="url(#p32243d789e)" style="fill: none; stroke: #000000; stroke-width: 0.5"/>
    <path d="M 204.779456 261.635096 
L 249.395431 192.967804 
L 220.95613 174.489616 
L 176.340155 243.156908 
L 204.779456 261.635096 
z
" clip-path="url(#p32243d789e)" style="fill: none; stroke: #000000; stroke-width: 0.5"/>
    <path d="M 205.48905 264.342477 
L 247.949852 194.322033 
L 218.950129 176.736433 
L 176.489327 246.756877 
L 205.48905 264.342477 
z
" clip-path="url(#p32243d789e)" style="fill: none; stroke: #000000; stroke-width: 0.5"/>
    <path d="M 206.283305 267.026667 
L 246.547003 195.720167 
L 217.014646 179.044521 
L 176.750948 250.351021 
L 206.283305 267.026667 
z
" clip-path="url(#p32243d789e)" style="fill: none; stroke: #000000; stroke-width: 0.5"/>
    <path d="M 210.153729 265.043857 
L 247.715025 192.277578 
L 217.578085 176.721162 
L 180.016789 249.487441 
L 210.153729 265.043857 
z
" clip-path="url(#p32243d789e)" style="fill: none; stroke: #000000; stroke-width: 0.5"/>
    <path d="M 213.947741 262.917322 
L 248.753051 188.793286 
L 218.053781 174.378291 
L 183.248471 248.502327 
L 213.947741 262.917322 
z
" clip-path="url(#p32243d789e)" style="fill: none; stroke: #000000; stroke-width: 0.5"/>
    <path d="M 217.65864 260.649898 
L 249.659727 185.272762 
L 218.441472 172.019166 
L 186.440385 247.396302 
L 217.65864 260.649898 
z
" clip-path="url(#p32243d789e)" style="fill: none; stroke: #000000; stroke-width: 0.5"/>
    <path d="M 221.282557 258.244883 
L 250.433635 181.720397 
L 218.740193 169.647163 
L 189.589115 246.171649 
L 221.282557 258.244883 
z
" clip-path="url(#p32243d789e)" style="fill: none; stroke: #000000; stroke-width: 0.5"/>
    <path d="M 224.813043 255.705652 
L 251.073855 178.141794 
L 218.949946 167.265595 
L 192.689133 244.829453 
L 224.813043 255.705652 
z
" clip-path="url(#p32243d789e)" style="fill: none; stroke: #000000; stroke-width: 0.5"/>
    <path d="M 228.246486 253.035843 
L 251.579303 174.5415 
L 219.070023 164.877962 
L 195.737205 243.372305 
L 228.246486 253.035843 
z
" clip-path="url(#p32243d789e)" style="fill: none; stroke: #000000; stroke-width: 0.5"/>
    <path d="M 231.57663 250.239027 
L 251.949402 170.924889 
L 219.100595 162.487285 
L 198.727823 241.801423 
L 231.57663 250.239027 
z
" clip-path="url(#p32243d789e)" style="fill: none; stroke: #000000; stroke-width: 0.5"/>
    <path d="M 234.800413 247.319355 
L 252.183679 167.296831 
L 219.041486 160.097364 
L 201.65822 240.119888 
L 234.800413 247.319355 
z
" clip-path="url(#p32243d789e)" style="fill: none; stroke: #000000; stroke-width: 0.5"/>
    <path d="M 237.912215 244.280893 
L 252.281506 163.662621 
L 218.892577 157.711424 
L 204.523287 238.329696 
L 237.912215 244.280893 
z
" clip-path="url(#p32243d789e)" style="fill: none; stroke: #000000; stroke-width: 0.5"/>
    <path d="M 240.907262 241.127765 
L 252.243163 160.027336 
L 218.654544 155.33245 
L 207.318643 236.432879 
L 240.907262 241.127765 
z
" clip-path="url(#p32243d789e)" style="fill: none; stroke: #000000; stroke-width: 0.5"/>
    <path d="M 243.782641 237.864548 
L 252.068389 156.395974 
L 218.327299 152.964342 
L 210.041551 234.432916 
L 243.782641 237.864548 
z
" clip-path="url(#p32243d789e)" style="fill: none; stroke: #000000; stroke-width: 0.5"/>
    <path d="M 246.532936 234.495738 
L 251.757687 152.773744 
L 217.91164 150.609857 
L 212.68689 232.331851 
L 246.532936 234.495738 
z
" clip-path="url(#p32243d789e)" style="fill: none; stroke: #000000; stroke-width: 0.5"/>
    <path d="M 249.155606 231.026076 
L 251.311189 149.165611 
L 217.407793 148.272853 
L 215.25221 230.133318 
L 249.155606 231.026076 
z
" clip-path="url(#p32243d789e)" style="fill: none; stroke: #000000; stroke-width: 0.5"/>
    <path d="M 249.757515 227.950343 
L 251.236046 146.074851 
L 217.326427 145.462501 
L 215.847895 227.337993 
L 249.757515 227.950343 
z
" clip-path="url(#p32243d789e)" style="fill: none; stroke: #000000; stroke-width: 0.5"/>
    <path d="M 249.81078 225.002415 
L 251.289311 143.126922 
L 217.379692 142.514573 
L 215.901161 224.390065 
L 249.81078 225.002415 
z
" clip-path="url(#p32243d789e)" style="fill: none; stroke: #000000; stroke-width: 0.5"/>
    <path d="M 249.863871 222.054696 
L 251.342402 140.179204 
L 217.432783 139.566854 
L 215.954251 221.442346 
L 249.863871 222.054696 
z
" clip-path="url(#p32243d789e)" style="fill: none; stroke: #000000; stroke-width: 0.5"/>
    <path d="M 249.917136 219.106907 
L 251.395667 137.231415 
L 217.486048 136.619065 
L 216.007517 218.494557 
L 249.917136 219.106907 
z
" clip-path="url(#p32243d789e)" style="fill: none; stroke: #000000; stroke-width: 0.5"/>
    <path d="M 249.970401 216.159118 
L 251.448933 134.283626 
L 217.539313 133.671276 
L 216.060782 215.546769 
L 249.970401 216.159118 
z
" clip-path="url(#p32243d789e)" style="fill: none; stroke: #000000; stroke-width: 0.5"/>
    <path d="M 250.023667 213.21133 
L 251.502198 131.335837 
L 217.592578 130.723488 
L 216.114047 212.59898 
L 250.023667 213.21133 
z
" clip-path="url(#p32243d789e)" style="fill: none; stroke: #000000; stroke-width: 0.5"/>
    <path d="M 250.076932 210.263541 
L 251.555463 128.388049 
L 217.645844 127.775699 
L 216.167312 209.651191 
L 250.076932 210.263541 
z
" clip-path="url(#p32243d789e)" style="fill: none; stroke: #000000; stroke-width: 0.5"/>
    <path d="M 250.130023 207.315752 
L 251.608554 125.44026 
L 217.698934 124.82791 
L 216.220403 206.703403 
L 250.130023 207.315752 
z
" clip-path="url(#p32243d789e)" style="fill: none; stroke: #000000; stroke-width: 0.5"/>
    <path d="M 250.183288 204.367964 
L 251.661819 122.492471 
L 217.7522 121.880122 
L 216.273668 203.755614 
L 250.183288 204.367964 
z
" clip-path="url(#p32243d789e)" style="fill: none; stroke: #000000; stroke-width: 0.5"/>
    <path d="M 250.236553 201.420175 
L 251.715084 119.544683 
L 217.805465 118.932333 
L 216.326934 200.807825 
L 250.236553 201.420175 
z
" clip-path="url(#p32243d789e)" style="fill: none; stroke: #000000; stroke-width: 0.5"/>
    <path d="M 250.289818 198.472386 
L 251.76835 116.596894 
L 217.85873 115.984544 
L 216.380199 197.860036 
L 250.289818 198.472386 
z
" clip-path="url(#p32243d789e)" style="fill: none; stroke: #000000; stroke-width: 0.5"/>
    <path d="M 250.342909 195.524597 
L 251.82144 113.649105 
L 217.911821 113.036755 
L 216.43329 194.912248 
L 250.342909 195.524597 
z
" clip-path="url(#p32243d789e)" style="fill: none; stroke: #000000; stroke-width: 0.5"/>
    <path d="M 250.396174 192.576809 
L 251.874706 110.701316 
L 217.965086 110.088967 
L 216.486555 191.964459 
L 250.396174 192.576809 
z
" clip-path="url(#p32243d789e)" style="fill: none; stroke: #000000; stroke-width: 0.5"/>
    <path d="M 250.44944 189.62902 
L 251.927971 107.753528 
L 218.018352 107.141178 
L 216.53982 189.01667 
L 250.44944 189.62902 
z
" clip-path="url(#p32243d789e)" style="fill: none; stroke: #000000; stroke-width: 0.5"/>
    <path d="M 250.502705 186.681266 
L 251.981236 104.805774 
L 218.071617 104.193424 
L 216.593085 186.068916 
L 250.502705 186.681266 
z
" clip-path="url(#p32243d789e)" style="fill: none; stroke: #000000; stroke-width: 0.5"/>
    <path d="M 250.55597 183.733512 
L 252.034502 101.85802 
L 218.124882 101.24567 
L 216.646351 183.121163 
L 250.55597 183.733512 
z
" clip-path="url(#p32243d789e)" style="fill: none; stroke: #000000; stroke-width: 0.5"/>
    <path d="M 250.609061 180.785584 
L 252.087592 98.910092 
L 218.177973 98.297742 
L 216.699441 180.173234 
L 250.609061 180.785584 
z
" clip-path="url(#p32243d789e)" style="fill: none; stroke: #000000; stroke-width: 0.5"/>
    <path d="M 250.662326 177.83783 
L 252.140858 95.962338 
L 218.231238 95.349988 
L 216.752707 177.225481 
L 250.662326 177.83783 
z
" clip-path="url(#p32243d789e)" style="fill: none; stroke: #000000; stroke-width: 0.5"/>
    <path d="M 250.715592 174.890076 
L 252.194123 93.014584 
L 218.284503 92.402234 
L 216.805972 174.277727 
L 250.715592 174.890076 
z
" clip-path="url(#p32243d789e)" style="fill: none; stroke: #000000; stroke-width: 0.5"/>
    <path d="M 250.768857 171.942323 
L 252.247388 90.06683 
L 218.337769 89.454481 
L 216.859237 171.329973 
L 250.768857 171.942323 
z
" clip-path="url(#p32243d789e)" style="fill: none; stroke: #000000; stroke-width: 0.5"/>
    <path d="M 250.821947 168.994569 
L 252.300479 87.119077 
L 218.390859 86.506727 
L 216.912328 168.382219 
L 250.821947 168.994569 
z
" clip-path="url(#p32243d789e)" style="fill: none; stroke: #000000; stroke-width: 0.5"/>
    <path d="M 250.875213 166.04664 
L 252.353744 84.171148 
L 218.444125 83.558799 
L 216.965593 165.434291 
L 250.875213 166.04664 
z
" clip-path="url(#p32243d789e)" style="fill: none; stroke: #000000; stroke-width: 0.5"/>
    <path d="M 250.928478 163.098887 
L 252.407009 81.223394 
L 218.49739 80.611045 
L 217.018859 162.486537 
L 250.928478 163.098887 
z
" clip-path="url(#p32243d789e)" style="fill: none; stroke: #000000; stroke-width: 0.5"/>
    <path d="M 250.981743 160.151133 
L 252.460275 78.275641 
L 218.550655 77.663291 
L 217.072124 159.538783 
L 250.981743 160.151133 
z
" clip-path="url(#p32243d789e)" style="fill: none; stroke: #000000; stroke-width: 0.5"/>
    <path d="M 251.035009 157.203379 
L 252.51354 75.327887 
L 218.60392 74.715537 
L 217.125389 156.591029 
L 251.035009 157.203379 
z
" clip-path="url(#p32243d789e)" style="fill: none; stroke: #000000; stroke-width: 0.5"/>
    <path d="M 251.088099 154.255625 
L 252.566631 72.380133 
L 218.657011 71.767783 
L 217.17848 153.643276 
L 251.088099 154.255625 
z
" clip-path="url(#p32243d789e)" style="fill: none; stroke: #000000; stroke-width: 0.5"/>
    <path d="M 251.141365 151.307697 
L 252.619896 69.432205 
L 218.710276 68.819855 
L 217.231745 150.695347 
L 251.141365 151.307697 
z
" clip-path="url(#p32243d789e)" style="fill: none; stroke: #000000; stroke-width: 0.5"/>
    <path d="M 251.19463 148.359943 
L 252.673161 66.484451 
L 218.763542 65.872101 
L 217.28501 147.747593 
L 251.19463 148.359943 
z
" clip-path="url(#p32243d789e)" style="fill: none; stroke: #000000; stroke-width: 0.5"/>
    <path d="M 251.247895 145.412189 
L 252.726427 63.536697 
L 218.816807 62.924347 
L 217.338276 144.79984 
L 251.247895 145.412189 
z
" clip-path="url(#p32243d789e)" style="fill: none; stroke: #000000; stroke-width: 0.5"/>
    <path d="M 251.300986 142.464436 
L 252.779517 60.588943 
L 218.869898 59.976594 
L 217.391366 141.852086 
L 251.300986 142.464436 
z
" clip-path="url(#p32243d789e)" style="fill: none; stroke: #000000; stroke-width: 0.5"/>
    <path d="M 251.354251 139.516682 
L 252.832782 57.64119 
L 218.923163 57.02884 
L 217.444632 138.904332 
L 251.354251 139.516682 
z
" clip-path="url(#p32243d789e)" style="fill: none; stroke: #000000; stroke-width: 0.5"/>
    <path d="M 251.407516 136.568753 
L 252.886048 54.693261 
L 218.976428 54.080911 
L 217.497897 135.956404 
L 251.407516 136.568753 
z
" clip-path="url(#p32243d789e)" style="fill: none; stroke: #000000; stroke-width: 0.5"/>
    <path d="M 251.460782 133.621 
L 252.939313 51.745507 
L 219.029694 51.133158 
L 217.551162 133.00865 
L 251.460782 133.621 
z
" clip-path="url(#p32243d789e)" style="fill: none; stroke: #000000; stroke-width: 0.5"/>
    <path d="M 251.514047 130.673246 
L 252.992578 48.797754 
L 219.082959 48.185404 
L 217.604428 130.060896 
L 251.514047 130.673246 
z
" clip-path="url(#p32243d789e)" style="fill: none; stroke: #000000; stroke-width: 0.5"/>
    <path d="M 252.742994 127.429784 
L 252.742693 45.540943 
L 218.827545 45.541068 
L 218.827846 127.429909 
L 252.742994 127.429784 
z
" clip-path="url(#p32243d789e)" style="fill: none; stroke: #000000; stroke-width: 0.5"/>
   </g>
   <g id="PatchCollection_3">
    <path d="M 252.812609 173.805581 
L 248.883202 175.115383 
L 248.883202 174.242182 
L 231.419171 174.242182 
L 231.419171 173.36898 
L 248.883202 173.36898 
L 248.883202 172.495778 
z
" clip-path="url(#p32243d789e)" style="fill: #ff0000; stroke: #ff0000; stroke-width: 0.24"/>
    <path d="M 255.244447 173.102853 
L 251.357641 174.534134 
L 251.330505 173.661355 
L 233.874909 174.204074 
L 233.847773 173.331294 
L 251.303369 172.788575 
L 251.276233 171.915795 
z
" clip-path="url(#p32243d789e)" style="fill: #ff0000; stroke: #ff0000; stroke-width: 0.24"/>
    <path d="M 257.653358 172.324801 
L 253.812909 173.876179 
L 253.758663 173.004664 
L 236.328364 174.089576 
L 236.274118 173.218061 
L 253.704418 172.133149 
L 253.650172 171.261634 
z
" clip-path="url(#p32243d789e)" style="fill: #ff0000; stroke: #ff0000; stroke-width: 0.24"/>
    <path d="M 260.036929 171.472236 
L 256.246546 173.142212 
L 256.165243 172.272804 
L 238.777077 173.898863 
L 238.695774 173.029455 
L 256.08394 171.403396 
L 256.002637 170.533987 
z
" clip-path="url(#p32243d789e)" style="fill: #ff0000; stroke: #ff0000; stroke-width: 0.24"/>
    <path d="M 262.392765 170.546162 
L 258.656108 172.333121 
L 258.547827 171.466659 
L 241.218591 173.632286 
L 241.110309 172.765824 
L 258.439546 170.600197 
L 258.331264 169.733736 
z
" clip-path="url(#p32243d789e)" style="fill: #ff0000; stroke: #ff0000; stroke-width: 0.24"/>
    <path d="M 264.718835 169.547183 
L 261.039517 171.449402 
L 260.904361 170.586724 
L 243.650796 173.289845 
L 243.51564 172.427167 
L 260.769205 169.724046 
L 260.634049 168.861368 
z
" clip-path="url(#p32243d789e)" style="fill: #ff0000; stroke: #ff0000; stroke-width: 0.24"/>
    <path d="M 267.012618 168.476502 
L 263.39419 170.492142 
L 263.232291 169.63408 
L 246.071061 172.872068 
L 245.909161 172.014006 
L 263.070391 168.776019 
L 262.908492 167.917957 
z
" clip-path="url(#p32243d789e)" style="fill: #ff0000; stroke: #ff0000; stroke-width: 0.24"/>
    <path d="M 269.272117 167.334887 
L 265.718077 169.462002 
L 265.52959 168.609387 
L 248.477276 172.37913 
L 248.288789 171.526514 
L 265.341103 167.756771 
L 265.152616 166.904155 
z
" clip-path="url(#p32243d789e)" style="fill: #ff0000; stroke: #ff0000; stroke-width: 0.24"/>
    <path d="M 271.494852 166.123705 
L 268.008631 168.360239 
L 267.793739 167.513892 
L 250.866809 171.811732 
L 250.651917 170.965386 
L 267.578847 166.667546 
L 267.363955 165.821199 
z
" clip-path="url(#p32243d789e)" style="fill: #ff0000; stroke: #ff0000; stroke-width: 0.24"/>
    <path d="M 273.679045 164.844085 
L 270.264011 167.187877 
L 270.022921 166.348617 
L 253.237727 171.170402 
L 252.996637 170.331143 
L 269.781832 165.509357 
L 269.540743 164.670098 
z
" clip-path="url(#p32243d789e)" style="fill: #ff0000; stroke: #ff0000; stroke-width: 0.24"/>
    <path d="M 275.822414 163.497151 
L 272.481866 165.94594 
L 272.214812 165.114578 
L 255.587571 170.455667 
L 255.320517 169.624305 
L 271.947757 164.283216 
L 271.680703 163.451854 
z
" clip-path="url(#p32243d789e)" style="fill: #ff0000; stroke: #ff0000; stroke-width: 0.24"/>
    <path d="M 277.922886 162.084257 
L 274.660051 164.635673 
L 274.36729 163.813012 
L 257.914059 169.66823 
L 257.621298 168.845568 
L 274.074529 162.99035 
L 273.781768 162.167689 
z
" clip-path="url(#p32243d789e)" style="fill: #ff0000; stroke: #ff0000; stroke-width: 0.24"/>
    <path d="M 279.978392 160.606863 
L 276.79642 163.258443 
L 276.478236 162.445277 
L 260.214908 168.808967 
L 259.896724 167.995801 
L 276.160051 161.63211 
L 275.841867 160.818944 
z
" clip-path="url(#p32243d789e)" style="fill: #ff0000; stroke: #ff0000; stroke-width: 0.24"/>
    <path d="M 281.009416 159.480322 
L 277.911384 162.229508 
L 277.568082 161.426622 
L 261.510375 168.292655 
L 261.167073 167.489769 
L 277.224781 160.623737 
L 276.881479 159.820851 
z
" clip-path="url(#p32243d789e)" style="fill: #ff0000; stroke: #ff0000; stroke-width: 0.24"/>
    <path d="M 278.507858 159.868199 
L 275.496756 162.712331 
L 275.12867 161.920501 
L 259.292086 169.282227 
L 258.924 168.490398 
L 274.760583 161.128672 
L 274.392497 160.336843 
z
" clip-path="url(#p32243d789e)" style="fill: #ff0000; stroke: #ff0000; stroke-width: 0.24"/>
    <path d="M 276.019694 160.333594 
L 273.098431 163.269926 
L 272.705916 162.489918 
L 257.105754 170.340225 
L 256.713239 169.560217 
L 272.3134 161.70991 
L 271.920885 160.929901 
z
" clip-path="url(#p32243d789e)" style="fill: #ff0000; stroke: #ff0000; stroke-width: 0.24"/>
    <path d="M 273.546941 160.876021 
L 270.718341 163.901718 
L 270.301775 163.134285 
L 254.953113 171.465607 
L 254.536547 170.698174 
L 269.885209 162.366852 
L 269.468643 161.599419 
z
" clip-path="url(#p32243d789e)" style="fill: #ff0000; stroke: #ff0000; stroke-width: 0.24"/>
    <path d="M 271.092536 161.495212 
L 268.359329 164.60735 
L 267.919115 163.853232 
L 252.83677 172.657506 
L 252.396556 171.903388 
L 267.478902 163.099115 
L 267.038688 162.344998 
z
" clip-path="url(#p32243d789e)" style="fill: #ff0000; stroke: #ff0000; stroke-width: 0.24"/>
    <path d="M 268.658356 162.190137 
L 266.023181 165.385708 
L 265.559745 164.645635 
L 250.758286 173.914355 
L 250.29485 173.174282 
L 265.096309 163.905562 
L 264.632873 163.165489 
z
" clip-path="url(#p32243d789e)" style="fill: #ff0000; stroke: #ff0000; stroke-width: 0.24"/>
    <path d="M 266.246991 162.960454 
L 263.712398 166.236375 
L 263.226186 165.511062 
L 248.71992 175.23529 
L 248.233709 174.509976 
L 262.739975 164.785748 
L 262.253764 164.060435 
z
" clip-path="url(#p32243d789e)" style="fill: #ff0000; stroke: #ff0000; stroke-width: 0.24"/>
    <path d="M 263.860735 163.805515 
L 261.429169 167.158619 
L 260.920652 166.448766 
L 246.723582 176.619094 
L 246.215066 175.90924 
L 260.412136 165.738912 
L 259.903619 165.029059 
z
" clip-path="url(#p32243d789e)" style="fill: #ff0000; stroke: #ff0000; stroke-width: 0.24"/>
    <path d="M 261.501851 164.724067 
L 259.175664 168.151118 
L 258.645333 167.45741 
L 244.771183 178.064028 
L 244.240852 177.370321 
L 258.115002 166.763703 
L 257.584671 166.069995 
z
" clip-path="url(#p32243d789e)" style="fill: #ff0000; stroke: #ff0000; stroke-width: 0.24"/>
    <path d="M 259.172842 165.715613 
L 256.954277 169.213297 
L 256.402645 168.536405 
L 242.864807 179.569053 
L 242.313175 178.892161 
L 255.851012 167.859513 
L 255.29938 167.182621 
z
" clip-path="url(#p32243d789e)" style="fill: #ff0000; stroke: #ff0000; stroke-width: 0.24"/>
    <path d="M 256.875665 166.779068 
L 254.766866 170.344006 
L 254.194465 169.684584 
L 241.006016 181.132605 
L 240.433615 180.473183 
L 253.622064 169.025161 
L 253.049663 168.365739 
z
" clip-path="url(#p32243d789e)" style="fill: #ff0000; stroke: #ff0000; stroke-width: 0.24"/>
    <path d="M 254.612466 167.913335 
L 252.615473 171.542086 
L 252.022855 170.900771 
L 239.196547 182.75312 
L 238.60393 182.111805 
L 251.430238 170.259456 
L 250.83762 169.61814 
z
" clip-path="url(#p32243d789e)" style="fill: #ff0000; stroke: #ff0000; stroke-width: 0.24"/>
    <path d="M 252.385797 169.117527 
L 250.502536 172.806585 
L 249.890275 172.183996 
L 237.438485 184.429211 
L 236.826224 183.806622 
L 249.278014 171.561406 
L 248.665753 170.938817 
z
" clip-path="url(#p32243d789e)" style="fill: #ff0000; stroke: #ff0000; stroke-width: 0.24"/>
    <path d="M 250.19766 170.390174 
L 248.429949 174.135974 
L 247.798636 173.532712 
L 235.733392 186.158965 
L 235.10208 185.555703 
L 247.167323 172.92945 
L 246.536011 172.326187 
z
" clip-path="url(#p32243d789e)" style="fill: #ff0000; stroke: #ff0000; stroke-width: 0.24"/>
    <path d="M 248.050066 171.730313 
L 246.399618 175.529239 
L 245.749862 174.945888 
L 234.082832 187.940994 
L 233.433077 187.357642 
L 245.100107 174.362536 
L 244.450352 173.779185 
z
" clip-path="url(#p32243d789e)" style="fill: #ff0000; stroke: #ff0000; stroke-width: 0.24"/>
    <path d="M 245.945092 173.13649 
L 244.413496 176.984871 
L 243.745926 176.421993 
L 232.488367 189.773387 
L 231.820797 189.210509 
L 243.078356 175.859115 
L 242.410787 175.296237 
z
" clip-path="url(#p32243d789e)" style="fill: #ff0000; stroke: #ff0000; stroke-width: 0.24"/>
    <path d="M 243.884882 174.607365 
L 242.473618 178.501482 
L 241.788879 177.959622 
L 230.951664 191.654408 
L 230.266925 191.112547 
L 241.104139 177.417761 
L 240.4194 176.8759 
z
" clip-path="url(#p32243d789e)" style="fill: #ff0000; stroke: #ff0000; stroke-width: 0.24"/>
    <path d="M 241.871366 176.141584 
L 240.581801 180.077679 
L 239.880553 179.55736 
L 229.474166 193.582319 
L 228.772918 193.062 
L 239.179305 179.03704 
L 238.478057 178.516721 
z
" clip-path="url(#p32243d789e)" style="fill: #ff0000; stroke: #ff0000; stroke-width: 0.24"/>
    <path d="M 239.90652 177.737645 
L 238.739896 181.711913 
L 238.022817 181.213637 
L 228.057296 195.555211 
L 227.340217 195.056935 
L 237.305739 180.715361 
L 236.58866 180.217085 
z
" clip-path="url(#p32243d789e)" style="fill: #ff0000; stroke: #ff0000; stroke-width: 0.24"/>
    <path d="M 237.992229 179.393986 
L 236.949673 183.402589 
L 236.217456 182.926837 
L 226.702426 197.571174 
L 225.970209 197.095422 
L 235.485239 182.451086 
L 234.753022 181.975334 
z
" clip-path="url(#p32243d789e)" style="fill: #ff0000; stroke: #ff0000; stroke-width: 0.24"/>
    <path d="M 236.130391 181.10909 
L 235.212893 185.148152 
L 234.466247 184.695381 
L 225.41084 199.628297 
L 224.664195 199.175527 
L 233.719601 184.242611 
L 232.972956 183.789841 
z
" clip-path="url(#p32243d789e)" style="fill: #ff0000; stroke: #ff0000; stroke-width: 0.24"/>
    <path d="M 234.322529 182.881017 
L 233.531029 186.946647 
L 232.77067 186.517305 
L 224.183828 201.724492 
L 223.423469 201.29515 
L 232.01031 186.087963 
L 231.249951 185.658621 
z
" clip-path="url(#p32243d789e)" style="fill: #ff0000; stroke: #ff0000; stroke-width: 0.24"/>
    <path d="M 235.017667 179.905892 
L 234.379189 183.998345 
L 233.603264 183.597819 
L 225.592751 199.116326 
L 224.816825 198.7158 
L 232.827338 183.197293 
L 232.051413 182.796768 
z
" clip-path="url(#p32243d789e)" style="fill: #ff0000; stroke: #ff0000; stroke-width: 0.24"/>
    <path d="M 235.600553 176.9066 
L 235.116037 181.020123 
L 234.325634 180.648985 
L 226.902876 196.457054 
L 226.112473 196.085916 
L 233.53523 180.277847 
L 232.744827 179.906709 
z
" clip-path="url(#p32243d789e)" style="fill: #ff0000; stroke: #ff0000; stroke-width: 0.24"/>
    <path d="M 236.070715 173.887672 
L 235.740803 178.01647 
L 234.937037 177.675235 
L 228.112323 193.750546 
L 227.308557 193.40931 
L 234.133272 177.333999 
L 233.329506 176.992763 
z
" clip-path="url(#p32243d789e)" style="fill: #ff0000; stroke: #ff0000; stroke-width: 0.24"/>
    <path d="M 236.427119 170.85306 
L 236.252315 174.991328 
L 235.436315 174.680483 
L 229.219407 191.000484 
L 228.403407 190.689638 
L 234.620315 174.369637 
L 233.804314 174.058792 
z
" clip-path="url(#p32243d789e)" style="fill: #ff0000; stroke: #ff0000; stroke-width: 0.24"/>
    <path d="M 236.669653 167.807363 
L 236.650162 171.949275 
L 235.823079 171.66925 
L 230.222564 188.210913 
L 229.395481 187.930887 
L 234.995996 171.389224 
L 234.168912 171.109198 
z
" clip-path="url(#p32243d789e)" style="fill: #ff0000; stroke: #ff0000; stroke-width: 0.24"/>
    <path d="M 236.797581 164.75466 
L 236.933472 168.894389 
L 236.096467 168.645585 
L 231.120391 185.385688 
L 230.283386 185.136885 
L 235.259461 168.396782 
L 234.422456 168.147978 
z
" clip-path="url(#p32243d789e)" style="fill: #ff0000; stroke: #ff0000; stroke-width: 0.24"/>
    <path d="M 236.811059 161.699266 
L 237.102099 165.830987 
L 236.256353 165.613747 
L 231.911552 182.528683 
L 231.065805 182.311443 
L 235.410606 165.396507 
L 234.564859 165.179267 
z
" clip-path="url(#p32243d789e)" style="fill: #ff0000; stroke: #ff0000; stroke-width: 0.24"/>
    <path d="M 236.709926 158.645558 
L 237.155747 162.763454 
L 236.302447 162.578092 
L 232.595203 179.644103 
L 231.741903 179.45874 
L 235.449146 162.39273 
L 234.595846 162.207368 
z
" clip-path="url(#p32243d789e)" style="fill: #ff0000; stroke: #ff0000; stroke-width: 0.24"/>
    <path d="M 236.494124 155.597876 
L 237.094098 159.69615 
L 236.234445 159.542927 
L 233.169977 176.73599 
L 232.310324 176.582766 
L 235.374792 159.389703 
L 234.515139 159.23648 
z
" clip-path="url(#p32243d789e)" style="fill: #ff0000; stroke: #ff0000; stroke-width: 0.24"/>
    <path d="M 236.164448 152.560309 
L 236.917691 156.633201 
L 236.052897 156.512323 
L 233.635345 173.808214 
L 232.77055 173.687336 
L 235.188102 156.391446 
L 234.323308 156.270568 
z
" clip-path="url(#p32243d789e)" style="fill: #ff0000; stroke: #ff0000; stroke-width: 0.24"/>
    <path d="M 235.720894 149.537334 
L 236.626386 153.579105 
L 235.757666 153.490752 
L 233.990605 170.865154 
L 233.121885 170.776801 
L 234.888946 153.402399 
L 234.020225 153.314046 
z
" clip-path="url(#p32243d789e)" style="fill: #ff0000; stroke: #ff0000; stroke-width: 0.24"/>
    <path d="M 235.164483 146.53298 
L 236.220909 150.53795 
L 235.349487 150.482237 
L 234.23523 167.910686 
L 233.363808 167.854973 
L 234.478064 150.426525 
L 233.606642 150.370812 
z
" clip-path="url(#p32243d789e)" style="fill: #ff0000; stroke: #ff0000; stroke-width: 0.24"/>
    <path d="M 234.495566 143.55167 
L 235.701479 147.514194 
L 234.82858 147.491209 
L 234.368869 164.949188 
L 233.495971 164.926202 
L 233.955681 147.468223 
L 233.082782 147.445237 
z
" clip-path="url(#p32243d789e)" style="fill: #ff0000; stroke: #ff0000; stroke-width: 0.24"/>
    <path d="M 234.374571 140.600165 
L 235.613213 144.552581 
L 234.740154 144.536815 
L 234.424835 161.997999 
L 233.551775 161.982233 
L 233.867094 144.521049 
L 232.994035 144.505283 
z
" clip-path="url(#p32243d789e)" style="fill: #ff0000; stroke: #ff0000; stroke-width: 0.24"/>
    <path d="M 234.427836 137.652237 
L 235.666478 141.604652 
L 234.793419 141.588886 
L 234.4781 159.050071 
L 233.605041 159.034305 
L 233.92036 141.57312 
L 233.047301 141.557355 
z
" clip-path="url(#p32243d789e)" style="fill: #ff0000; stroke: #ff0000; stroke-width: 0.24"/>
    <path d="M 234.480927 134.704518 
L 235.719569 138.656934 
L 234.84651 138.641168 
L 234.53119 156.102352 
L 233.658131 156.086586 
L 233.97345 138.625402 
L 233.100391 138.609636 
z
" clip-path="url(#p32243d789e)" style="fill: #ff0000; stroke: #ff0000; stroke-width: 0.24"/>
    <path d="M 234.534192 131.756729 
L 235.772834 135.709145 
L 234.899775 135.693379 
L 234.584456 153.154563 
L 233.711397 153.138797 
L 234.026716 135.677613 
L 233.153656 135.661847 
z
" clip-path="url(#p32243d789e)" style="fill: #ff0000; stroke: #ff0000; stroke-width: 0.24"/>
    <path d="M 234.587457 128.808941 
L 235.826099 132.761356 
L 234.95304 132.74559 
L 234.637721 150.206774 
L 233.764662 150.191008 
L 234.079981 132.729824 
L 233.206922 132.714058 
z
" clip-path="url(#p32243d789e)" style="fill: #ff0000; stroke: #ff0000; stroke-width: 0.24"/>
    <path d="M 234.640723 125.861152 
L 235.879365 129.813567 
L 235.006305 129.797801 
L 234.690986 147.258986 
L 233.817927 147.24322 
L 234.133246 129.782036 
L 233.260187 129.76627 
z
" clip-path="url(#p32243d789e)" style="fill: #ff0000; stroke: #ff0000; stroke-width: 0.24"/>
    <path d="M 234.693988 122.913363 
L 235.93263 126.865779 
L 235.059571 126.850013 
L 234.744252 144.311197 
L 233.871192 144.295431 
L 234.186512 126.834247 
L 233.313452 126.818481 
z
" clip-path="url(#p32243d789e)" style="fill: #ff0000; stroke: #ff0000; stroke-width: 0.24"/>
    <path d="M 234.747079 119.965575 
L 235.985721 123.91799 
L 235.112661 123.902224 
L 234.797342 141.363408 
L 233.924283 141.347642 
L 234.239602 123.886458 
L 233.366543 123.870692 
z
" clip-path="url(#p32243d789e)" style="fill: #ff0000; stroke: #ff0000; stroke-width: 0.24"/>
    <path d="M 234.800344 117.017786 
L 236.038986 120.970201 
L 235.165927 120.954435 
L 234.850608 138.415619 
L 233.977548 138.399853 
L 234.292867 120.938669 
L 233.419808 120.922903 
z
" clip-path="url(#p32243d789e)" style="fill: #ff0000; stroke: #ff0000; stroke-width: 0.24"/>
    <path d="M 234.853609 114.069997 
L 236.092251 118.022413 
L 235.219192 118.006647 
L 234.903873 135.467831 
L 234.030814 135.452065 
L 234.346133 117.990881 
L 233.473074 117.975115 
z
" clip-path="url(#p32243d789e)" style="fill: #ff0000; stroke: #ff0000; stroke-width: 0.24"/>
    <path d="M 234.906874 111.122209 
L 236.145516 115.074624 
L 235.272457 115.058858 
L 234.957138 132.520042 
L 234.084079 132.504276 
L 234.399398 115.043092 
L 233.526339 115.027326 
z
" clip-path="url(#p32243d789e)" style="fill: #ff0000; stroke: #ff0000; stroke-width: 0.24"/>
    <path d="M 234.959965 108.17442 
L 236.198607 112.126835 
L 235.325548 112.111069 
L 235.010229 129.572253 
L 234.13717 129.556487 
L 234.452489 112.095303 
L 233.57943 112.079537 
z
" clip-path="url(#p32243d789e)" style="fill: #ff0000; stroke: #ff0000; stroke-width: 0.24"/>
    <path d="M 235.01323 105.226631 
L 236.251872 109.179046 
L 235.378813 109.163281 
L 235.063494 126.624465 
L 234.190435 126.608699 
L 234.505754 109.147515 
L 233.632695 109.131749 
z
" clip-path="url(#p32243d789e)" style="fill: #ff0000; stroke: #ff0000; stroke-width: 0.24"/>
    <path d="M 235.066496 102.278842 
L 236.305138 106.231258 
L 235.432079 106.215492 
L 235.116759 123.676676 
L 234.2437 123.66091 
L 234.559019 106.199726 
L 233.68596 106.18396 
z
" clip-path="url(#p32243d789e)" style="fill: #ff0000; stroke: #ff0000; stroke-width: 0.24"/>
    <path d="M 235.119761 99.331089 
L 236.358403 103.283504 
L 235.485344 103.267738 
L 235.170025 120.728922 
L 234.296966 120.713156 
L 234.612285 103.251972 
L 233.739225 103.236206 
z
" clip-path="url(#p32243d789e)" style="fill: #ff0000; stroke: #ff0000; stroke-width: 0.24"/>
    <path d="M 235.173026 96.383335 
L 236.411668 100.33575 
L 235.538609 100.319984 
L 235.22329 117.781168 
L 234.350231 117.765402 
L 234.66555 100.304218 
L 233.792491 100.288452 
z
" clip-path="url(#p32243d789e)" style="fill: #ff0000; stroke: #ff0000; stroke-width: 0.24"/>
    <path d="M 235.226117 93.435406 
L 236.464759 97.387822 
L 235.5917 97.372056 
L 235.276381 114.83324 
L 234.403321 114.817474 
L 234.718641 97.35629 
L 233.845581 97.340524 
z
" clip-path="url(#p32243d789e)" style="fill: #ff0000; stroke: #ff0000; stroke-width: 0.24"/>
    <path d="M 235.279382 90.487653 
L 236.518024 94.440068 
L 235.644965 94.424302 
L 235.329646 111.885486 
L 234.456587 111.86972 
L 234.771906 94.408536 
L 233.898847 94.39277 
z
" clip-path="url(#p32243d789e)" style="fill: #ff0000; stroke: #ff0000; stroke-width: 0.24"/>
    <path d="M 235.332648 87.539899 
L 236.57129 91.492314 
L 235.69823 91.476548 
L 235.382911 108.937732 
L 234.509852 108.921966 
L 234.825171 91.460782 
L 233.952112 91.445016 
z
" clip-path="url(#p32243d789e)" style="fill: #ff0000; stroke: #ff0000; stroke-width: 0.24"/>
    <path d="M 235.385913 84.592145 
L 236.624555 88.54456 
L 235.751496 88.528794 
L 235.436177 105.989979 
L 234.563117 105.974213 
L 234.878436 88.513029 
L 234.005377 88.497263 
z
" clip-path="url(#p32243d789e)" style="fill: #ff0000; stroke: #ff0000; stroke-width: 0.24"/>
    <path d="M 235.439004 81.644391 
L 236.677646 85.596807 
L 235.804586 85.581041 
L 235.489267 103.042225 
L 234.616208 103.026459 
L 234.931527 85.565275 
L 234.058468 85.549509 
z
" clip-path="url(#p32243d789e)" style="fill: #ff0000; stroke: #ff0000; stroke-width: 0.24"/>
    <path d="M 235.492269 78.696463 
L 236.730911 82.648878 
L 235.857852 82.633112 
L 235.542532 100.094296 
L 234.669473 100.07853 
L 234.984792 82.617346 
L 234.111733 82.60158 
z
" clip-path="url(#p32243d789e)" style="fill: #ff0000; stroke: #ff0000; stroke-width: 0.24"/>
    <path d="M 235.545534 75.748709 
L 236.784176 79.701124 
L 235.911117 79.685359 
L 235.595798 97.146543 
L 234.722739 97.130777 
L 235.038058 79.669593 
L 234.164998 79.653827 
z
" clip-path="url(#p32243d789e)" style="fill: #ff0000; stroke: #ff0000; stroke-width: 0.24"/>
    <path d="M 235.598799 72.800955 
L 236.837441 76.753371 
L 235.964382 76.737605 
L 235.649063 94.198789 
L 234.776004 94.183023 
L 235.091323 76.721839 
L 234.218264 76.706073 
z
" clip-path="url(#p32243d789e)" style="fill: #ff0000; stroke: #ff0000; stroke-width: 0.24"/>
    <path d="M 235.652065 69.853202 
L 236.890707 73.805617 
L 236.017647 73.789851 
L 235.702328 91.251035 
L 234.829269 91.235269 
L 235.144588 73.774085 
L 234.271529 73.758319 
z
" clip-path="url(#p32243d789e)" style="fill: #ff0000; stroke: #ff0000; stroke-width: 0.24"/>
    <path d="M 235.705155 66.905448 
L 236.943797 70.857863 
L 236.070738 70.842097 
L 235.755419 88.303281 
L 234.88236 88.287515 
L 235.197679 70.826331 
L 234.32462 70.810565 
z
" clip-path="url(#p32243d789e)" style="fill: #ff0000; stroke: #ff0000; stroke-width: 0.24"/>
    <path d="M 235.758421 63.957519 
L 236.997063 67.909935 
L 236.124003 67.894169 
L 235.808684 85.355353 
L 234.935625 85.339587 
L 235.250944 67.878403 
L 234.377885 67.862637 
z
" clip-path="url(#p32243d789e)" style="fill: #ff0000; stroke: #ff0000; stroke-width: 0.24"/>
    <path d="M 235.811686 61.009766 
L 237.050328 64.962181 
L 236.177269 64.946415 
L 235.86195 82.407599 
L 234.98889 82.391833 
L 235.30421 64.930649 
L 234.43115 64.914883 
z
" clip-path="url(#p32243d789e)" style="fill: #ff0000; stroke: #ff0000; stroke-width: 0.24"/>
    <path d="M 235.864951 58.062012 
L 237.103593 62.014427 
L 236.230534 61.998661 
L 235.915215 79.459845 
L 235.042156 79.444079 
L 235.357475 61.982895 
L 234.484416 61.967129 
z
" clip-path="url(#p32243d789e)" style="fill: #ff0000; stroke: #ff0000; stroke-width: 0.24"/>
    <path d="M 235.918042 55.114258 
L 237.156684 59.066673 
L 236.283625 59.050907 
L 235.968306 76.512091 
L 235.095246 76.496326 
L 235.410565 59.035141 
L 234.537506 59.019375 
z
" clip-path="url(#p32243d789e)" style="fill: #ff0000; stroke: #ff0000; stroke-width: 0.24"/>
    <path d="M 235.971307 52.166504 
L 237.209949 56.11892 
L 236.33689 56.103154 
L 236.021571 73.564338 
L 235.148512 73.548572 
L 235.463831 56.087388 
L 234.590772 56.071622 
z
" clip-path="url(#p32243d789e)" style="fill: #ff0000; stroke: #ff0000; stroke-width: 0.24"/>
    <path d="M 236.024572 49.218576 
L 237.263214 53.170991 
L 236.390155 53.155225 
L 236.074836 70.616409 
L 235.201777 70.600643 
L 235.517096 53.139459 
L 234.644037 53.123693 
z
" clip-path="url(#p32243d789e)" style="fill: #ff0000; stroke: #ff0000; stroke-width: 0.24"/>
    <path d="M 236.077838 46.270822 
L 237.31648 50.223237 
L 236.443421 50.207471 
L 236.128101 67.668656 
L 235.255042 67.65289 
L 235.570361 50.191705 
L 234.697302 50.17594 
z
" clip-path="url(#p32243d789e)" style="fill: #ff0000; stroke: #ff0000; stroke-width: 0.24"/>
    <path d="M 236.131103 43.323068 
L 237.369745 47.275484 
L 236.496686 47.259718 
L 236.181367 64.720902 
L 235.308308 64.705136 
L 235.623627 47.243952 
L 234.750567 47.228186 
z
" clip-path="url(#p32243d789e)" style="fill: #ff0000; stroke: #ff0000; stroke-width: 0.24"/>
    <path d="M 235.7851 40.371652 
L 237.094917 44.301055 
L 236.221716 44.301058 
L 236.22178 61.765089 
L 235.348578 61.765092 
L 235.348514 44.301061 
L 234.475313 44.301064 
z
" clip-path="url(#p32243d789e)" style="fill: #ff0000; stroke: #ff0000; stroke-width: 0.24"/>
   </g>
   <g id="matplotlib.axis_1">
    <g id="xtick_1">
     <g id="line2d_1">
      <defs>
       <path id="m85511c71d4" d="M 0 0 
L 0 -3 
" style="stroke: #000000"/>
      </defs>
      <g>
       <use xlink:href="#m85511c71d4" x="170.295063" y="290.32" style="stroke: #000000"/>
      </g>
     </g>
     <g id="text_1">
      <!-- −2.5 -->
      <g transform="translate(157.546587 303.898359) scale(0.105 -0.105)">
       <defs>
        <path id="DejaVuSans-2212" d="M 678 2272 
L 4684 2272 
L 4684 1741 
L 678 1741 
L 678 2272 
z
" transform="scale(0.015625)"/>
        <path id="DejaVuSans-32" d="M 1228 531 
L 3431 531 
L 3431 0 
L 469 0 
L 469 531 
Q 828 903 1448 1529 
Q 2069 2156 2228 2338 
Q 2531 2678 2651 2914 
Q 2772 3150 2772 3378 
Q 2772 3750 2511 3984 
Q 2250 4219 1831 4219 
Q 1534 4219 1204 4116 
Q 875 4013 500 3803 
L 500 4441 
Q 881 4594 1212 4672 
Q 1544 4750 1819 4750 
Q 2544 4750 2975 4387 
Q 3406 4025 3406 3419 
Q 3406 3131 3298 2873 
Q 3191 2616 2906 2266 
Q 2828 2175 2409 1742 
Q 1991 1309 1228 531 
z
" transform="scale(0.015625)"/>
        <path id="DejaVuSans-2e" d="M 684 794 
L 1344 794 
L 1344 0 
L 684 0 
L 684 794 
z
" transform="scale(0.015625)"/>
        <path id="DejaVuSans-35" d="M 691 4666 
L 3169 4666 
L 3169 4134 
L 1269 4134 
L 1269 2991 
Q 1406 3038 1543 3061 
Q 1681 3084 1819 3084 
Q 2600 3084 3056 2656 
Q 3513 2228 3513 1497 
Q 3513 744 3044 326 
Q 2575 -91 1722 -91 
Q 1428 -91 1123 -41 
Q 819 9 494 109 
L 494 744 
Q 775 591 1075 516 
Q 1375 441 1709 441 
Q 2250 441 2565 725 
Q 2881 1009 2881 1497 
Q 2881 1984 2565 2268 
Q 2250 2553 1709 2553 
Q 1456 2553 1204 2497 
Q 953 2441 691 2322 
L 691 4666 
z
" transform="scale(0.015625)"/>
       </defs>
       <use xlink:href="#DejaVuSans-2212"/>
       <use xlink:href="#DejaVuSans-32" x="83.789062"/>
       <use xlink:href="#DejaVuSans-2e" x="147.412109"/>
       <use xlink:href="#DejaVuSans-35" x="179.199219"/>
      </g>
     </g>
    </g>
    <g id="xtick_2">
     <g id="line2d_2">
      <g>
       <use xlink:href="#m85511c71d4" x="213.95514" y="290.32" style="stroke: #000000"/>
      </g>
     </g>
     <g id="text_2">
      <!-- 0.0 -->
      <g transform="translate(205.606 303.898359) scale(0.105 -0.105)">
       <defs>
        <path id="DejaVuSans-30" d="M 2034 4250 
Q 1547 4250 1301 3770 
Q 1056 3291 1056 2328 
Q 1056 1369 1301 889 
Q 1547 409 2034 409 
Q 2525 409 2770 889 
Q 3016 1369 3016 2328 
Q 3016 3291 2770 3770 
Q 2525 4250 2034 4250 
z
M 2034 4750 
Q 2819 4750 3233 4129 
Q 3647 3509 3647 2328 
Q 3647 1150 3233 529 
Q 2819 -91 2034 -91 
Q 1250 -91 836 529 
Q 422 1150 422 2328 
Q 422 3509 836 4129 
Q 1250 4750 2034 4750 
z
" transform="scale(0.015625)"/>
       </defs>
       <use xlink:href="#DejaVuSans-30"/>
       <use xlink:href="#DejaVuSans-2e" x="63.623047"/>
       <use xlink:href="#DejaVuSans-30" x="95.410156"/>
      </g>
     </g>
    </g>
    <g id="xtick_3">
     <g id="line2d_3">
      <g>
       <use xlink:href="#m85511c71d4" x="257.615218" y="290.32" style="stroke: #000000"/>
      </g>
     </g>
     <g id="text_3">
      <!-- 2.5 -->
      <g transform="translate(249.266077 303.898359) scale(0.105 -0.105)">
       <use xlink:href="#DejaVuSans-32"/>
       <use xlink:href="#DejaVuSans-2e" x="63.623047"/>
       <use xlink:href="#DejaVuSans-35" x="95.410156"/>
      </g>
     </g>
    </g>
    <g id="xtick_4">
     <g id="line2d_4">
      <g>
       <use xlink:href="#m85511c71d4" x="301.275295" y="290.32" style="stroke: #000000"/>
      </g>
     </g>
     <g id="text_4">
      <!-- 5.0 -->
      <g transform="translate(292.926154 303.898359) scale(0.105 -0.105)">
       <use xlink:href="#DejaVuSans-35"/>
       <use xlink:href="#DejaVuSans-2e" x="63.623047"/>
       <use xlink:href="#DejaVuSans-30" x="95.410156"/>
      </g>
     </g>
    </g>
   </g>
   <g id="matplotlib.axis_2">
    <g id="ytick_1">
     <g id="line2d_5">
      <defs>
       <path id="mbe78bdfb27" d="M 0 0 
L 3 0 
" style="stroke: #000000"/>
      </defs>
      <g>
       <use xlink:href="#mbe78bdfb27" x="159.289857" y="278.589766" style="stroke: #000000"/>
      </g>
     </g>
     <g id="text_5">
      <!-- −8 -->
      <g transform="translate(138.21056 282.578946) scale(0.105 -0.105)">
       <defs>
        <path id="DejaVuSans-38" d="M 2034 2216 
Q 1584 2216 1326 1975 
Q 1069 1734 1069 1313 
Q 1069 891 1326 650 
Q 1584 409 2034 409 
Q 2484 409 2743 651 
Q 3003 894 3003 1313 
Q 3003 1734 2745 1975 
Q 2488 2216 2034 2216 
z
M 1403 2484 
Q 997 2584 770 2862 
Q 544 3141 544 3541 
Q 544 4100 942 4425 
Q 1341 4750 2034 4750 
Q 2731 4750 3128 4425 
Q 3525 4100 3525 3541 
Q 3525 3141 3298 2862 
Q 3072 2584 2669 2484 
Q 3125 2378 3379 2068 
Q 3634 1759 3634 1313 
Q 3634 634 3220 271 
Q 2806 -91 2034 -91 
Q 1263 -91 848 271 
Q 434 634 434 1313 
Q 434 1759 690 2068 
Q 947 2378 1403 2484 
z
M 1172 3481 
Q 1172 3119 1398 2916 
Q 1625 2713 2034 2713 
Q 2441 2713 2670 2916 
Q 2900 3119 2900 3481 
Q 2900 3844 2670 4047 
Q 2441 4250 2034 4250 
Q 1625 4250 1398 4047 
Q 1172 3844 1172 3481 
z
" transform="scale(0.015625)"/>
       </defs>
       <use xlink:href="#DejaVuSans-2212"/>
       <use xlink:href="#DejaVuSans-38" x="83.789062"/>
      </g>
     </g>
    </g>
    <g id="ytick_2">
     <g id="line2d_6">
      <g>
       <use xlink:href="#mbe78bdfb27" x="159.289857" y="243.661704" style="stroke: #000000"/>
      </g>
     </g>
     <g id="text_6">
      <!-- −6 -->
      <g transform="translate(138.21056 247.650884) scale(0.105 -0.105)">
       <defs>
        <path id="DejaVuSans-36" d="M 2113 2584 
Q 1688 2584 1439 2293 
Q 1191 2003 1191 1497 
Q 1191 994 1439 701 
Q 1688 409 2113 409 
Q 2538 409 2786 701 
Q 3034 994 3034 1497 
Q 3034 2003 2786 2293 
Q 2538 2584 2113 2584 
z
M 3366 4563 
L 3366 3988 
Q 3128 4100 2886 4159 
Q 2644 4219 2406 4219 
Q 1781 4219 1451 3797 
Q 1122 3375 1075 2522 
Q 1259 2794 1537 2939 
Q 1816 3084 2150 3084 
Q 2853 3084 3261 2657 
Q 3669 2231 3669 1497 
Q 3669 778 3244 343 
Q 2819 -91 2113 -91 
Q 1303 -91 875 529 
Q 447 1150 447 2328 
Q 447 3434 972 4092 
Q 1497 4750 2381 4750 
Q 2619 4750 2861 4703 
Q 3103 4656 3366 4563 
z
" transform="scale(0.015625)"/>
       </defs>
       <use xlink:href="#DejaVuSans-2212"/>
       <use xlink:href="#DejaVuSans-36" x="83.789062"/>
      </g>
     </g>
    </g>
    <g id="ytick_3">
     <g id="line2d_7">
      <g>
       <use xlink:href="#mbe78bdfb27" x="159.289857" y="208.733643" style="stroke: #000000"/>
      </g>
     </g>
     <g id="text_7">
      <!-- −4 -->
      <g transform="translate(138.21056 212.722822) scale(0.105 -0.105)">
       <defs>
        <path id="DejaVuSans-34" d="M 2419 4116 
L 825 1625 
L 2419 1625 
L 2419 4116 
z
M 2253 4666 
L 3047 4666 
L 3047 1625 
L 3713 1625 
L 3713 1100 
L 3047 1100 
L 3047 0 
L 2419 0 
L 2419 1100 
L 313 1100 
L 313 1709 
L 2253 4666 
z
" transform="scale(0.015625)"/>
       </defs>
       <use xlink:href="#DejaVuSans-2212"/>
       <use xlink:href="#DejaVuSans-34" x="83.789062"/>
      </g>
     </g>
    </g>
    <g id="ytick_4">
     <g id="line2d_8">
      <g>
       <use xlink:href="#mbe78bdfb27" x="159.289857" y="173.805581" style="stroke: #000000"/>
      </g>
     </g>
     <g id="text_8">
      <!-- −2 -->
      <g transform="translate(138.21056 177.79476) scale(0.105 -0.105)">
       <use xlink:href="#DejaVuSans-2212"/>
       <use xlink:href="#DejaVuSans-32" x="83.789062"/>
      </g>
     </g>
    </g>
    <g id="ytick_5">
     <g id="line2d_9">
      <g>
       <use xlink:href="#mbe78bdfb27" x="159.289857" y="138.877519" style="stroke: #000000"/>
      </g>
     </g>
     <g id="text_9">
      <!-- 0 -->
      <g transform="translate(147.009232 142.866699) scale(0.105 -0.105)">
       <use xlink:href="#DejaVuSans-30"/>
      </g>
     </g>
    </g>
    <g id="ytick_6">
     <g id="line2d_10">
      <g>
       <use xlink:href="#mbe78bdfb27" x="159.289857" y="103.949457" style="stroke: #000000"/>
      </g>
     </g>
     <g id="text_10">
      <!-- 2 -->
      <g transform="translate(147.009232 107.938637) scale(0.105 -0.105)">
       <use xlink:href="#DejaVuSans-32"/>
      </g>
     </g>
    </g>
    <g id="ytick_7">
     <g id="line2d_11">
      <g>
       <use xlink:href="#mbe78bdfb27" x="159.289857" y="69.021395" style="stroke: #000000"/>
      </g>
     </g>
     <g id="text_11">
      <!-- 4 -->
      <g transform="translate(147.009232 73.010575) scale(0.105 -0.105)">
       <use xlink:href="#DejaVuSans-34"/>
      </g>
     </g>
    </g>
    <g id="ytick_8">
     <g id="line2d_12">
      <g>
       <use xlink:href="#mbe78bdfb27" x="159.289857" y="34.093333" style="stroke: #000000"/>
      </g>
     </g>
     <g id="text_12">
      <!-- 6 -->
      <g transform="translate(147.009232 38.082513) scale(0.105 -0.105)">
       <use xlink:href="#DejaVuSans-36"/>
      </g>
     </g>
    </g>
   </g>
   <g id="patch_3">
    <path d="M 159.289857 290.32 
L 159.289857 10.8 
" style="fill: none; stroke: #000000; stroke-width: 0.8; stroke-linejoin: miter; stroke-linecap: square"/>
   </g>
   <g id="patch_4">
    <path d="M 301.510143 290.32 
L 301.510143 10.8 
" style="fill: none; stroke: #000000; stroke-width: 0.8; stroke-linejoin: miter; stroke-linecap: square"/>
   </g>
   <g id="patch_5">
    <path d="M 159.289857 290.32 
L 301.510143 290.32 
" style="fill: none; stroke: #000000; stroke-width: 0.8; stroke-linejoin: miter; stroke-linecap: square"/>
   </g>
   <g id="patch_6">
    <path d="M 159.289857 10.8 
L 301.510143 10.8 
" style="fill: none; stroke: #000000; stroke-width: 0.8; stroke-linejoin: miter; stroke-linecap: square"/>
   </g>
  </g>
 </g>
 <defs>
  <clipPath id="p32243d789e">
   <rect x="159.289857" y="10.8" width="142.220287" height="279.52"/>
  </clipPath>
 </defs>
</svg>
