<?xml version="1.0" encoding="utf-8" standalone="no"?>
<!DOCTYPE svg PUBLIC "-//W3C//DTD SVG 1.1//EN"
  "http://www.w3.org/Graphics/SVG/1.1/DTD/svg11.dtd">
<svg xmlns:xlink="http://www.w3.org/1999/xlink" width="460.8pt" height="316.8pt" viewBox="0 0 460.8 316.8" xmlns="http://www.w3.org/2000/svg" version="1.1">
 <metadata>
  <rdf:RDF xmlns:dc="http://purl.org/dc/elements/1.1/" xmlns:cc="http://creativecommons.org/ns#" xmlns:rdf="http://www.w3.org/1999/02/22-rdf-syntax-ns#">
   <cc:Work>
    <dc:type rdf:resource="http://purl.org/dc/dcmitype/StillImage"/>
    <dc:date>2024-01-11T15:53:54.230262</dc:date>
    <dc:format>image/svg+xml</dc:format>
    <dc:creator>
     <cc:Agent>
      <dc:title>Matplotlib v3.7.2, https://matplotlib.org/</dc:title>
     </cc:Agent>
    </dc:creator>
   </cc:Work>
  </rdf:RDF>
 </metadata>
 <defs>
  <style type="text/css">*{stroke-linejoin: round; stroke-linecap: butt}</style>
 </defs>
 <g id="figure_1">
  <g id="patch_1">
   <path d="M 0 316.8 
L 460.8 316.8 
L 460.8 0 
L 0 0 
z
" style="fill: #ffffff"/>
  </g>
  <g id="axes_1">
   <g id="patch_2">
    <path d="M 150.981747 290.32 
L 309.818253 290.32 
L 309.818253 10.8 
L 150.981747 10.8 
z
" style="fill: #ffffff"/>
   </g>
   <g id="PatchCollection_1">
    <path d="M 226.994674 131.787657 
L 267.700642 131.787657 
L 267.700642 34.093333 
L 226.994674 34.093333 
z
" clip-path="url(#p18477357b4)" style="fill: #ffffff; stroke: #0000ff; stroke-width: 3"/>
    <path d="M 191.173422 125.274702 
L 222.793818 125.274702 
L 222.793818 48.926588 
L 191.173422 48.926588 
z
" clip-path="url(#p18477357b4)" style="fill: #ff0000; stroke: #ff0000; stroke-width: 2"/>
    <path d="M 264.444165 126.90294 
L 295.944235 129.65884 
L 302.598412 53.601254 
L 271.098341 50.845354 
z
" clip-path="url(#p18477357b4)" style="fill: #ff0000; stroke: #ff0000; stroke-width: 2"/>
   </g>
   <g id="PatchCollection_2">
    <path d="M 239.370911 148.548518 
L 163.022798 148.54068 
L 163.019552 180.161076 
L 239.367665 180.168914 
L 239.370911 148.548518 
z
" clip-path="url(#p18477357b4)" style="fill: none; stroke: #000000; stroke-width: 0.5"/>
    <path d="M 242.091154 150.480884 
L 165.779658 148.116558 
L 164.800447 179.721788 
L 241.111943 182.086114 
L 242.091154 150.480884 
z
" clip-path="url(#p18477357b4)" style="fill: none; stroke: #000000; stroke-width: 0.5"/>
    <path d="M 244.750506 152.496189 
L 168.548343 147.777628 
L 166.5941 179.337577 
L 242.796263 184.056138 
L 244.750506 152.496189 
z
" clip-path="url(#p18477357b4)" style="fill: none; stroke: #000000; stroke-width: 0.5"/>
    <path d="M 247.346467 154.592778 
L 171.326249 147.524478 
L 168.398836 179.009072 
L 244.419054 186.077372 
L 247.346467 154.592778 
z
" clip-path="url(#p18477357b4)" style="fill: none; stroke: #000000; stroke-width: 0.5"/>
    <path d="M 249.876352 156.768956 
L 174.110611 147.356894 
L 170.212504 178.736094 
L 245.978246 188.148156 
L 249.876352 156.768956 
z
" clip-path="url(#p18477357b4)" style="fill: none; stroke: #000000; stroke-width: 0.5"/>
    <path d="M 252.337921 159.021631 
L 176.898782 147.275537 
L 172.03401 178.519471 
L 247.473149 190.265565 
L 252.337921 159.021631 
z
" clip-path="url(#p18477357b4)" style="fill: none; stroke: #000000; stroke-width: 0.5"/>
    <path d="M 254.728783 161.349254 
L 179.68813 147.28032 
L 173.861329 178.359217 
L 248.901982 192.428151 
L 254.728783 161.349254 
z
" clip-path="url(#p18477357b4)" style="fill: none; stroke: #000000; stroke-width: 0.5"/>
    <path d="M 257.046668 163.749647 
L 182.476007 147.371279 
L 175.692728 178.255523 
L 250.26339 194.633892 
L 257.046668 163.749647 
z
" clip-path="url(#p18477357b4)" style="fill: none; stroke: #000000; stroke-width: 0.5"/>
    <path d="M 259.289362 166.220299 
L 185.259749 147.548104 
L 177.526458 178.208268 
L 251.55607 196.880463 
L 259.289362 166.220299 
z
" clip-path="url(#p18477357b4)" style="fill: none; stroke: #000000; stroke-width: 0.5"/>
    <path d="M 261.454694 168.759659 
L 188.03688 147.810695 
L 179.36064 178.217475 
L 252.778454 199.16644 
L 261.454694 168.759659 
z
" clip-path="url(#p18477357b4)" style="fill: none; stroke: #000000; stroke-width: 0.5"/>
    <path d="M 263.540577 171.363951 
L 190.804334 148.158919 
L 181.19372 178.283419 
L 253.929962 201.488451 
L 263.540577 171.363951 
z
" clip-path="url(#p18477357b4)" style="fill: none; stroke: #000000; stroke-width: 0.5"/>
    <path d="M 265.545137 174.031458 
L 193.559774 148.592471 
L 183.023943 178.405987 
L 255.009305 203.844974 
L 265.545137 174.031458 
z
" clip-path="url(#p18477357b4)" style="fill: none; stroke: #000000; stroke-width: 0.5"/>
    <path d="M 267.466389 176.759676 
L 196.300501 149.110974 
L 184.849492 178.585096 
L 256.015381 206.233798 
L 267.466389 176.759676 
z
" clip-path="url(#p18477357b4)" style="fill: none; stroke: #000000; stroke-width: 0.5"/>
    <path d="M 269.302571 179.545778 
L 199.023969 149.713706 
L 186.668694 178.820349 
L 256.947297 208.65242 
L 269.302571 179.545778 
z
" clip-path="url(#p18477357b4)" style="fill: none; stroke: #000000; stroke-width: 0.5"/>
    <path d="M 271.0517 182.38789 
L 201.727671 150.400183 
L 188.479616 179.111478 
L 257.803646 211.099185 
L 271.0517 182.38789 
z
" clip-path="url(#p18477357b4)" style="fill: none; stroke: #000000; stroke-width: 0.5"/>
    <path d="M 272.71243 185.281953 
L 204.408733 151.169793 
L 190.280814 179.458507 
L 258.584511 213.570666 
L 272.71243 185.281953 
z
" clip-path="url(#p18477357b4)" style="fill: none; stroke: #000000; stroke-width: 0.5"/>
    <path d="M 274.283041 188.225953 
L 207.064762 152.021845 
L 192.07044 179.861021 
L 259.288719 216.065129 
L 274.283041 188.225953 
z
" clip-path="url(#p18477357b4)" style="fill: none; stroke: #000000; stroke-width: 0.5"/>
    <path d="M 275.762013 191.217101 
L 209.693203 152.955543 
L 193.846766 180.318655 
L 259.915576 218.580212 
L 275.762013 191.217101 
z
" clip-path="url(#p18477357b4)" style="fill: none; stroke: #000000; stroke-width: 0.5"/>
    <path d="M 277.147773 194.252899 
L 212.29179 153.969702 
L 195.608069 180.830508 
L 260.464051 221.113704 
L 277.147773 194.252899 
z
" clip-path="url(#p18477357b4)" style="fill: none; stroke: #000000; stroke-width: 0.5"/>
    <path d="M 278.439366 197.329536 
L 214.857628 155.063745 
L 197.352795 181.396809 
L 260.934533 223.662599 
L 278.439366 197.329536 
z
" clip-path="url(#p18477357b4)" style="fill: none; stroke: #000000; stroke-width: 0.5"/>
    <path d="M 279.635367 200.444552 
L 217.38846 156.236442 
L 199.079194 182.016671 
L 261.326101 226.224781 
L 279.635367 200.444552 
z
" clip-path="url(#p18477357b4)" style="fill: none; stroke: #000000; stroke-width: 0.5"/>
    <path d="M 280.734653 203.59506 
L 219.88189 157.486756 
L 200.785638 182.689585 
L 261.638401 228.797889 
L 280.734653 203.59506 
z
" clip-path="url(#p18477357b4)" style="fill: none; stroke: #000000; stroke-width: 0.5"/>
    <path d="M 281.736172 206.778031 
L 222.33554 158.813468 
L 202.470498 183.414881 
L 261.871131 231.379444 
L 281.736172 206.778031 
z
" clip-path="url(#p18477357b4)" style="fill: none; stroke: #000000; stroke-width: 0.5"/>
    <path d="M 282.638699 209.99086 
L 224.747295 160.215165 
L 204.132153 184.191515 
L 262.023557 233.96721 
L 282.638699 209.99086 
z
" clip-path="url(#p18477357b4)" style="fill: none; stroke: #000000; stroke-width: 0.5"/>
    <path d="M 283.441902 213.229423 
L 227.114412 161.690618 
L 205.769059 185.019256 
L 262.096549 236.558061 
L 283.441902 213.229423 
z
" clip-path="url(#p18477357b4)" style="fill: none; stroke: #000000; stroke-width: 0.5"/>
    <path d="M 284.144754 216.491334 
L 229.434851 163.238531 
L 207.379628 185.897229 
L 262.089531 239.150031 
L 284.144754 216.491334 
z
" clip-path="url(#p18477357b4)" style="fill: none; stroke: #000000; stroke-width: 0.5"/>
    <path d="M 284.746598 219.773338 
L 231.706414 164.857281 
L 208.962336 186.824446 
L 262.00252 241.740503 
L 284.746598 219.773338 
z
" clip-path="url(#p18477357b4)" style="fill: none; stroke: #000000; stroke-width: 0.5"/>
    <path d="M 285.246847 223.072368 
L 233.926923 166.545385 
L 210.515662 187.800086 
L 261.835586 244.327069 
L 285.246847 223.072368 
z
" clip-path="url(#p18477357b4)" style="fill: none; stroke: #000000; stroke-width: 0.5"/>
    <path d="M 285.644669 226.385744 
L 236.094488 168.301203 
L 212.038147 188.822945 
L 261.588329 246.907487 
L 285.644669 226.385744 
z
" clip-path="url(#p18477357b4)" style="fill: none; stroke: #000000; stroke-width: 0.5"/>
    <path d="M 285.940386 229.709415 
L 238.206597 170.123176 
L 213.528313 189.89264 
L 261.262101 249.478879 
L 285.940386 229.709415 
z
" clip-path="url(#p18477357b4)" style="fill: none; stroke: #000000; stroke-width: 0.5"/>
    <path d="M 286.133375 233.040612 
L 240.261464 172.009454 
L 214.984751 191.007802 
L 260.856662 252.03896 
L 286.133375 233.040612 
z
" clip-path="url(#p18477357b4)" style="fill: none; stroke: #000000; stroke-width: 0.5"/>
    <path d="M 286.223455 236.376073 
L 242.257132 173.958152 
L 216.406075 192.16728 
L 260.372399 254.585201 
L 286.223455 236.376073 
z
" clip-path="url(#p18477357b4)" style="fill: none; stroke: #000000; stroke-width: 0.5"/>
    <path d="M 286.210114 239.713365 
L 244.19191 175.967738 
L 217.79097 193.370031 
L 259.809173 257.115658 
L 286.210114 239.713365 
z
" clip-path="url(#p18477357b4)" style="fill: none; stroke: #000000; stroke-width: 0.5"/>
    <path d="M 286.09419 243.048023 
L 246.063521 178.035871 
L 219.138036 194.615005 
L 259.168705 259.627157 
L 286.09419 243.048023 
z
" clip-path="url(#p18477357b4)" style="fill: none; stroke: #000000; stroke-width: 0.5"/>
    <path d="M 285.875405 246.37754 
L 247.870414 180.160812 
L 220.446041 195.900989 
L 258.451031 262.117718 
L 285.875405 246.37754 
z
" clip-path="url(#p18477357b4)" style="fill: none; stroke: #000000; stroke-width: 0.5"/>
    <path d="M 285.553943 249.698805 
L 249.610845 182.340597 
L 221.713716 197.226819 
L 257.656813 264.585027 
L 285.553943 249.698805 
z
" clip-path="url(#p18477357b4)" style="fill: none; stroke: #000000; stroke-width: 0.5"/>
    <path d="M 285.130048 253.008585 
L 251.283093 184.573081 
L 222.93979 198.591164 
L 256.786745 267.026667 
L 285.130048 253.008585 
z
" clip-path="url(#p18477357b4)" style="fill: none; stroke: #000000; stroke-width: 0.5"/>
    <path d="M 282.785338 252.470236 
L 251.067472 183.022331 
L 222.304872 196.158628 
L 254.022739 265.606533 
L 282.785338 252.470236 
z
" clip-path="url(#p18477357b4)" style="fill: none; stroke: #000000; stroke-width: 0.5"/>
    <path d="M 280.342435 251.603959 
L 250.783197 181.210168 
L 221.628848 193.452445 
L 251.188086 263.846237 
L 280.342435 251.603959 
z
" clip-path="url(#p18477357b4)" style="fill: none; stroke: #000000; stroke-width: 0.5"/>
    <path d="M 277.927436 250.662699 
L 250.554992 179.390097 
L 221.036674 190.726691 
L 248.409118 261.999293 
L 277.927436 250.662699 
z
" clip-path="url(#p18477357b4)" style="fill: none; stroke: #000000; stroke-width: 0.5"/>
    <path d="M 275.542636 249.647307 
L 250.38307 177.563809 
L 220.52891 187.983915 
L 245.688477 260.067413 
L 275.542636 249.647307 
z
" clip-path="url(#p18477357b4)" style="fill: none; stroke: #000000; stroke-width: 0.5"/>
    <path d="M 273.190316 248.558842 
L 250.267601 175.733135 
L 220.106048 185.226826 
L 243.028763 258.052532 
L 273.190316 248.558842 
z
" clip-path="url(#p18477357b4)" style="fill: none; stroke: #000000; stroke-width: 0.5"/>
    <path d="M 270.872175 247.398569 
L 250.208889 173.899841 
L 219.768597 182.457764 
L 240.431883 255.956492 
L 270.872175 247.398569 
z
" clip-path="url(#p18477357b4)" style="fill: none; stroke: #000000; stroke-width: 0.5"/>
    <path d="M 268.591493 246.167153 
L 250.206597 172.065669 
L 219.516666 179.679972 
L 237.901563 253.781457 
L 268.591493 246.167153 
z
" clip-path="url(#p18477357b4)" style="fill: none; stroke: #000000; stroke-width: 0.5"/>
    <path d="M 265.883875 244.583466 
L 250.279595 169.84699 
L 219.326676 176.309671 
L 234.930956 251.046147 
L 265.883875 244.583466 
z
" clip-path="url(#p18477357b4)" style="fill: none; stroke: #000000; stroke-width: 0.5"/>
    <path d="M 263.237299 242.899972 
L 250.435413 167.632807 
L 219.262703 172.934846 
L 232.064589 248.202012 
L 263.237299 242.899972 
z
" clip-path="url(#p18477357b4)" style="fill: none; stroke: #000000; stroke-width: 0.5"/>
    <path d="M 260.655448 241.118687 
L 250.673822 165.425876 
L 219.324827 169.559874 
L 229.306453 245.252685 
L 260.655448 241.118687 
z
" clip-path="url(#p18477357b4)" style="fill: none; stroke: #000000; stroke-width: 0.5"/>
    <path d="M 258.141925 239.242227 
L 250.994491 163.229408 
L 219.512961 166.189595 
L 226.660395 242.202414 
L 258.141925 239.242227 
z
" clip-path="url(#p18477357b4)" style="fill: none; stroke: #000000; stroke-width: 0.5"/>
    <path d="M 255.70025 237.273322 
L 251.396981 161.046579 
L 219.826852 162.828824 
L 224.130121 239.055567 
L 255.70025 237.273322 
z
" clip-path="url(#p18477357b4)" style="fill: none; stroke: #000000; stroke-width: 0.5"/>
    <path d="M 253.333835 235.214493 
L 251.880738 158.880209 
L 220.26607 159.482025 
L 221.719167 235.816309 
L 253.333835 235.214493 
z
" clip-path="url(#p18477357b4)" style="fill: none; stroke: #000000; stroke-width: 0.5"/>
    <path d="M 251.045955 233.068542 
L 252.445057 156.733249 
L 220.829971 156.153795 
L 219.430869 232.489088 
L 251.045955 233.068542 
z
" clip-path="url(#p18477357b4)" style="fill: none; stroke: #000000; stroke-width: 0.5"/>
    <path d="M 248.839833 230.838875 
L 253.089182 154.609108 
L 221.5178 152.849194 
L 217.268451 229.078962 
L 248.839833 230.838875 
z
" clip-path="url(#p18477357b4)" style="fill: none; stroke: #000000; stroke-width: 0.5"/>
    <path d="M 246.718526 228.528208 
L 253.812191 152.510352 
L 222.328575 149.572434 
L 215.23491 225.59029 
L 246.718526 228.528208 
z
" clip-path="url(#p18477357b4)" style="fill: none; stroke: #000000; stroke-width: 0.5"/>
    <path d="M 246.314153 225.911646 
L 254.239772 149.976022 
L 222.790213 146.693541 
L 214.864594 222.629165 
L 246.314153 225.911646 
z
" clip-path="url(#p18477357b4)" style="fill: none; stroke: #000000; stroke-width: 0.5"/>
    <path d="M 246.598313 223.188905 
L 254.523932 147.253281 
L 223.074373 143.9708 
L 215.148754 219.906425 
L 246.598313 223.188905 
z
" clip-path="url(#p18477357b4)" style="fill: none; stroke: #000000; stroke-width: 0.5"/>
    <path d="M 246.882473 220.466327 
L 254.808093 144.530703 
L 223.358534 141.248223 
L 215.432914 217.183847 
L 246.882473 220.466327 
z
" clip-path="url(#p18477357b4)" style="fill: none; stroke: #000000; stroke-width: 0.5"/>
    <path d="M 247.166634 217.74375 
L 255.092253 141.808125 
L 223.642694 138.525645 
L 215.717075 214.461269 
L 247.166634 217.74375 
z
" clip-path="url(#p18477357b4)" style="fill: none; stroke: #000000; stroke-width: 0.5"/>
    <path d="M 247.450794 215.021172 
L 255.376413 139.085547 
L 223.926854 135.803067 
L 216.001235 211.738691 
L 247.450794 215.021172 
z
" clip-path="url(#p18477357b4)" style="fill: none; stroke: #000000; stroke-width: 0.5"/>
    <path d="M 247.734954 212.298594 
L 255.660573 136.362969 
L 224.211014 133.080489 
L 216.285395 209.016113 
L 247.734954 212.298594 
z
" clip-path="url(#p18477357b4)" style="fill: none; stroke: #000000; stroke-width: 0.5"/>
    <path d="M 248.019114 209.575918 
L 255.944733 133.640294 
L 224.495174 130.357813 
L 216.569555 206.293437 
L 248.019114 209.575918 
z
" clip-path="url(#p18477357b4)" style="fill: none; stroke: #000000; stroke-width: 0.5"/>
    <path d="M 248.303275 206.853307 
L 256.228894 130.917683 
L 224.779335 127.635202 
L 216.853716 203.570827 
L 248.303275 206.853307 
z
" clip-path="url(#p18477357b4)" style="fill: none; stroke: #000000; stroke-width: 0.5"/>
    <path d="M 248.587435 204.130697 
L 256.513054 128.195073 
L 225.063495 124.912592 
L 217.137876 200.848216 
L 248.587435 204.130697 
z
" clip-path="url(#p18477357b4)" style="fill: none; stroke: #000000; stroke-width: 0.5"/>
    <path d="M 248.871595 201.408103 
L 256.797214 125.472478 
L 225.347655 122.189998 
L 217.422036 198.125622 
L 248.871595 201.408103 
z
" clip-path="url(#p18477357b4)" style="fill: none; stroke: #000000; stroke-width: 0.5"/>
    <path d="M 249.155755 198.685492 
L 257.081374 122.749868 
L 225.631815 119.467387 
L 217.706196 195.403011 
L 249.155755 198.685492 
z
" clip-path="url(#p18477357b4)" style="fill: none; stroke: #000000; stroke-width: 0.5"/>
    <path d="M 249.439899 195.962882 
L 257.365518 120.027257 
L 225.915959 116.744777 
L 217.99034 192.680401 
L 249.439899 195.962882 
z
" clip-path="url(#p18477357b4)" style="fill: none; stroke: #000000; stroke-width: 0.5"/>
    <path d="M 249.724059 193.240271 
L 257.649679 117.304647 
L 226.20012 114.022166 
L 218.2745 189.95779 
L 249.724059 193.240271 
z
" clip-path="url(#p18477357b4)" style="fill: none; stroke: #000000; stroke-width: 0.5"/>
    <path d="M 250.00822 190.51766 
L 257.933839 114.582036 
L 226.48428 111.299556 
L 218.558661 187.23518 
L 250.00822 190.51766 
z
" clip-path="url(#p18477357b4)" style="fill: none; stroke: #000000; stroke-width: 0.5"/>
    <path d="M 250.29238 187.79505 
L 258.217999 111.859426 
L 226.76844 108.576945 
L 218.842821 184.512569 
L 250.29238 187.79505 
z
" clip-path="url(#p18477357b4)" style="fill: none; stroke: #000000; stroke-width: 0.5"/>
    <path d="M 250.57654 185.072456 
L 258.502159 109.136831 
L 227.0526 105.854351 
L 219.126981 181.789975 
L 250.57654 185.072456 
z
" clip-path="url(#p18477357b4)" style="fill: none; stroke: #000000; stroke-width: 0.5"/>
    <path d="M 250.8607 182.349845 
L 258.786319 106.414221 
L 227.33676 103.13174 
L 219.411141 179.067364 
L 250.8607 182.349845 
z
" clip-path="url(#p18477357b4)" style="fill: none; stroke: #000000; stroke-width: 0.5"/>
    <path d="M 251.144861 179.627235 
L 259.07048 103.69161 
L 227.620921 100.40913 
L 219.695302 176.344754 
L 251.144861 179.627235 
z
" clip-path="url(#p18477357b4)" style="fill: none; stroke: #000000; stroke-width: 0.5"/>
    <path d="M 251.429021 176.904592 
L 259.35464 100.968967 
L 227.905081 97.686487 
L 219.979462 173.622111 
L 251.429021 176.904592 
z
" clip-path="url(#p18477357b4)" style="fill: none; stroke: #000000; stroke-width: 0.5"/>
    <path d="M 251.713181 174.182014 
L 259.6388 98.246389 
L 228.189241 94.963909 
L 220.263622 170.899533 
L 251.713181 174.182014 
z
" clip-path="url(#p18477357b4)" style="fill: none; stroke: #000000; stroke-width: 0.5"/>
    <path d="M 251.997341 171.459436 
L 259.92296 95.523811 
L 228.473401 92.241331 
L 220.547782 168.176955 
L 251.997341 171.459436 
z
" clip-path="url(#p18477357b4)" style="fill: none; stroke: #000000; stroke-width: 0.5"/>
    <path d="M 252.281501 168.736858 
L 260.207121 92.801233 
L 228.757562 89.518753 
L 220.831942 165.454377 
L 252.281501 168.736858 
z
" clip-path="url(#p18477357b4)" style="fill: none; stroke: #000000; stroke-width: 0.5"/>
    <path d="M 252.565662 166.014117 
L 260.491281 90.078493 
L 229.041722 86.796012 
L 221.116103 162.731636 
L 252.565662 166.014117 
z
" clip-path="url(#p18477357b4)" style="fill: none; stroke: #000000; stroke-width: 0.5"/>
    <path d="M 252.849838 163.291539 
L 260.775457 87.355915 
L 229.325898 84.073434 
L 221.400279 160.009058 
L 252.849838 163.291539 
z
" clip-path="url(#p18477357b4)" style="fill: none; stroke: #000000; stroke-width: 0.5"/>
    <path d="M 253.133966 160.568961 
L 261.059585 84.633337 
L 229.610026 81.350856 
L 221.684407 157.28648 
L 253.133966 160.568961 
z
" clip-path="url(#p18477357b4)" style="fill: none; stroke: #000000; stroke-width: 0.5"/>
    <path d="M 253.418093 157.846383 
L 261.343713 81.910759 
L 229.894154 78.628278 
L 221.968534 154.563902 
L 253.418093 157.846383 
z
" clip-path="url(#p18477357b4)" style="fill: none; stroke: #000000; stroke-width: 0.5"/>
    <path d="M 253.702221 155.123805 
L 261.62784 79.188181 
L 230.178281 75.9057 
L 222.252662 151.841324 
L 253.702221 155.123805 
z
" clip-path="url(#p18477357b4)" style="fill: none; stroke: #000000; stroke-width: 0.5"/>
    <path d="M 253.986512 152.401227 
L 261.912131 76.465603 
L 230.462572 73.183122 
L 222.536953 149.118746 
L 253.986512 152.401227 
z
" clip-path="url(#p18477357b4)" style="fill: none; stroke: #000000; stroke-width: 0.5"/>
    <path d="M 254.270639 149.678486 
L 262.196258 73.742862 
L 230.746699 70.460381 
L 222.82108 146.396005 
L 254.270639 149.678486 
z
" clip-path="url(#p18477357b4)" style="fill: none; stroke: #000000; stroke-width: 0.5"/>
    <path d="M 254.554767 146.955908 
L 262.480386 71.020284 
L 231.030827 67.737803 
L 223.105208 143.673427 
L 254.554767 146.955908 
z
" clip-path="url(#p18477357b4)" style="fill: none; stroke: #000000; stroke-width: 0.5"/>
    <path d="M 254.838895 144.23333 
L 262.764514 68.297706 
L 231.314955 65.015225 
L 223.389336 140.95085 
L 254.838895 144.23333 
z
" clip-path="url(#p18477357b4)" style="fill: none; stroke: #000000; stroke-width: 0.5"/>
    <path d="M 255.123022 141.510752 
L 263.048641 65.575128 
L 231.599082 62.292647 
L 223.673463 138.228272 
L 255.123022 141.510752 
z
" clip-path="url(#p18477357b4)" style="fill: none; stroke: #000000; stroke-width: 0.5"/>
    <path d="M 255.407313 138.788174 
L 263.332932 62.85255 
L 231.883373 59.570069 
L 223.957754 135.505694 
L 255.407313 138.788174 
z
" clip-path="url(#p18477357b4)" style="fill: none; stroke: #000000; stroke-width: 0.5"/>
    <path d="M 255.69144 136.065434 
L 263.617059 60.129809 
L 232.1675 56.847329 
L 224.241881 132.782953 
L 255.69144 136.065434 
z
" clip-path="url(#p18477357b4)" style="fill: none; stroke: #000000; stroke-width: 0.5"/>
    <path d="M 255.975568 133.342856 
L 263.901187 57.407231 
L 232.451628 54.124751 
L 224.526009 130.060375 
L 255.975568 133.342856 
z
" clip-path="url(#p18477357b4)" style="fill: none; stroke: #000000; stroke-width: 0.5"/>
    <path d="M 256.259696 130.620278 
L 264.185315 54.684653 
L 232.735756 51.402173 
L 224.810137 127.337797 
L 256.259696 130.620278 
z
" clip-path="url(#p18477357b4)" style="fill: none; stroke: #000000; stroke-width: 0.5"/>
    <path d="M 258.339228 127.593669 
L 264.038372 51.458564 
L 232.506196 49.098201 
L 226.807052 125.233306 
L 258.339228 127.593669 
z
" clip-path="url(#p18477357b4)" style="fill: none; stroke: #000000; stroke-width: 0.5"/>
    <path d="M 260.80921 124.399057 
L 263.660632 48.104209 
L 232.062297 46.923261 
L 229.210875 123.21811 
L 260.80921 124.399057 
z
" clip-path="url(#p18477357b4)" style="fill: none; stroke: #000000; stroke-width: 0.5"/>
    <path d="M 263.158081 121.114494 
L 263.1578 44.76638 
L 231.537404 44.766496 
L 231.537685 121.11461 
L 263.158081 121.114494 
z
" clip-path="url(#p18477357b4)" style="fill: none; stroke: #000000; stroke-width: 0.5"/>
   </g>
   <g id="PatchCollection_3">
    <path d="M 158.201588 164.350384 
L 161.865251 163.129581 
L 161.865167 163.9437 
L 178.147554 163.945371 
L 178.147471 164.759491 
L 161.865083 164.757819 
L 161.865 165.571939 
z
" clip-path="url(#p18477357b4)" style="fill: #ff0000; stroke: #ff0000; stroke-width: 0.24"/>
    <path d="M 160.472778 163.769922 
L 164.172375 162.66278 
L 164.147164 163.476508 
L 180.421742 163.980737 
L 180.39653 164.794465 
L 164.121952 164.290237 
L 164.096741 165.103966 
z
" clip-path="url(#p18477357b4)" style="fill: #ff0000; stroke: #ff0000; stroke-width: 0.24"/>
    <path d="M 162.760848 163.259737 
L 166.492855 162.267311 
L 166.442539 163.079874 
L 182.6938 164.086178 
L 182.643485 164.898741 
L 166.392224 163.892437 
L 166.341909 164.705 
z
" clip-path="url(#p18477357b4)" style="fill: #ff0000; stroke: #ff0000; stroke-width: 0.24"/>
    <path d="M 165.063654 162.820578 
L 168.824514 161.943814 
L 168.749143 162.754437 
L 184.961602 164.261858 
L 184.886231 165.072481 
L 168.673772 163.565059 
L 168.598401 164.375682 
z
" clip-path="url(#p18477357b4)" style="fill: #ff0000; stroke: #ff0000; stroke-width: 0.24"/>
    <path d="M 167.378734 162.452344 
L 171.164871 161.692114 
L 171.064508 162.500024 
L 187.222695 164.507288 
L 187.122332 165.315197 
L 170.964145 163.307933 
L 170.863782 164.115843 
z
" clip-path="url(#p18477357b4)" style="fill: #ff0000; stroke: #ff0000; stroke-width: 0.24"/>
    <path d="M 169.70419 162.156015 
L 173.511987 161.513007 
L 173.386736 162.317433 
L 189.475271 164.822465 
L 189.350019 165.626892 
L 173.261484 163.12186 
L 173.136233 163.926287 
z
" clip-path="url(#p18477357b4)" style="fill: #ff0000; stroke: #ff0000; stroke-width: 0.24"/>
    <path d="M 172.037679 161.931647 
L 175.863509 161.406473 
L 175.713488 162.206651 
L 191.717039 165.207063 
L 191.567019 166.007241 
L 175.563467 163.006828 
L 175.413447 163.807006 
z
" clip-path="url(#p18477357b4)" style="fill: #ff0000; stroke: #ff0000; stroke-width: 0.24"/>
    <path d="M 174.376985 161.779492 
L 178.217202 161.372654 
L 178.042555 162.16782 
L 193.945874 165.660754 
L 193.771227 166.45592 
L 177.867909 162.962986 
L 177.693262 163.758152 
z
" clip-path="url(#p18477357b4)" style="fill: #ff0000; stroke: #ff0000; stroke-width: 0.24"/>
    <path d="M 176.719876 161.699476 
L 180.57082 161.41136 
L 180.371713 162.200756 
L 196.159645 166.182884 
L 195.960539 166.97228 
L 180.172607 162.990153 
L 179.973501 163.77955 
z
" clip-path="url(#p18477357b4)" style="fill: #ff0000; stroke: #ff0000; stroke-width: 0.24"/>
    <path d="M 179.064153 161.691651 
L 182.922157 161.52257 
L 182.698773 162.305443 
L 198.356229 166.773126 
L 198.132845 167.555999 
L 182.475389 163.088316 
L 182.252004 163.871189 
z
" clip-path="url(#p18477357b4)" style="fill: #ff0000; stroke: #ff0000; stroke-width: 0.24"/>
    <path d="M 181.407445 161.756317 
L 185.26883 161.706395 
L 185.021388 162.482 
L 200.53349 167.430823 
L 200.286048 168.206428 
L 184.773947 163.257605 
L 184.526506 164.03321 
z
" clip-path="url(#p18477357b4)" style="fill: #ff0000; stroke: #ff0000; stroke-width: 0.24"/>
    <path d="M 183.747677 161.893356 
L 187.608763 161.962639 
L 187.3375 162.730237 
L 202.689465 168.155485 
L 202.418203 168.923083 
L 187.066238 163.497835 
L 186.794976 164.265434 
z
" clip-path="url(#p18477357b4)" style="fill: #ff0000; stroke: #ff0000; stroke-width: 0.24"/>
    <path d="M 186.082545 162.10267 
L 189.939653 162.291093 
L 189.644828 163.049953 
L 204.822027 168.946456 
L 204.527202 169.705316 
L 189.350003 163.808813 
L 189.055177 164.567673 
z
" clip-path="url(#p18477357b4)" style="fill: #ff0000; stroke: #ff0000; stroke-width: 0.24"/>
    <path d="M 188.409892 162.383834 
L 192.259346 162.691218 
L 191.941239 163.440616 
L 206.929211 169.802756 
L 206.611104 170.552154 
L 191.623132 164.190015 
L 191.305025 164.939414 
z
" clip-path="url(#p18477357b4)" style="fill: #ff0000; stroke: #ff0000; stroke-width: 0.24"/>
    <path d="M 190.727463 162.736559 
L 194.565591 163.162649 
L 194.224498 163.901868 
L 209.008893 170.72373 
L 208.6678 171.462949 
L 193.883405 164.641088 
L 193.542312 165.380308 
z
" clip-path="url(#p18477357b4)" style="fill: #ff0000; stroke: #ff0000; stroke-width: 0.24"/>
    <path d="M 193.033002 163.160769 
L 196.856151 163.70512 
L 196.492404 164.433459 
L 211.059198 171.708392 
L 210.695452 172.436732 
L 196.128658 165.161799 
L 195.764911 165.890139 
z
" clip-path="url(#p18477357b4)" style="fill: #ff0000; stroke: #ff0000; stroke-width: 0.24"/>
    <path d="M 195.324349 163.655996 
L 199.128874 164.318089 
L 198.742821 165.034854 
L 213.078133 172.755926 
L 212.692079 173.472692 
L 198.356767 165.75162 
L 197.970714 166.468385 
z
" clip-path="url(#p18477357b4)" style="fill: #ff0000; stroke: #ff0000; stroke-width: 0.24"/>
    <path d="M 197.599294 164.221782 
L 201.381571 165.000987 
L 200.973578 165.705495 
L 215.063749 173.86535 
L 214.655756 174.569858 
L 200.565586 166.410004 
L 200.157593 167.114512 
z
" clip-path="url(#p18477357b4)" style="fill: #ff0000; stroke: #ff0000; stroke-width: 0.24"/>
    <path d="M 199.8558 164.857169 
L 203.612216 165.75278 
L 203.182666 166.444356 
L 217.014183 175.035355 
L 216.584633 175.726931 
L 202.753116 167.135932 
L 202.323566 167.827507 
z
" clip-path="url(#p18477357b4)" style="fill: #ff0000; stroke: #ff0000; stroke-width: 0.24"/>
    <path d="M 202.091521 165.562187 
L 205.818505 166.573313 
L 205.367814 167.251302 
L 218.927579 176.265119 
L 218.476888 176.943107 
L 204.917123 167.92929 
L 204.466432 168.607278 
z
" clip-path="url(#p18477357b4)" style="fill: #ff0000; stroke: #ff0000; stroke-width: 0.24"/>
    <path d="M 204.3044 166.335855 
L 207.998399 167.461533 
L 207.526996 168.125288 
L 220.802089 177.553334 
L 220.330686 178.217089 
L 207.055594 168.789042 
L 206.584192 169.452797 
z
" clip-path="url(#p18477357b4)" style="fill: #ff0000; stroke: #ff0000; stroke-width: 0.24"/>
    <path d="M 206.492344 167.177516 
L 210.14984 168.416674 
L 209.658175 169.065562 
L 222.635945 178.898854 
L 222.14428 179.547742 
L 209.16651 169.714451 
L 208.674846 170.363339 
z
" clip-path="url(#p18477357b4)" style="fill: #ff0000; stroke: #ff0000; stroke-width: 0.24"/>
    <path d="M 208.653267 168.086341 
L 212.270773 169.437798 
L 211.759314 170.071202 
L 224.427395 180.300368 
L 223.915937 180.933773 
L 211.247856 170.704606 
L 210.736398 171.33801 
z
" clip-path="url(#p18477357b4)" style="fill: #ff0000; stroke: #ff0000; stroke-width: 0.24"/>
    <path d="M 210.785245 169.061176 
L 214.3593 170.523679 
L 213.828529 171.14099 
L 226.174744 181.756408 
L 225.643973 182.373719 
L 213.297758 171.7583 
L 212.766987 172.375611 
z
" clip-path="url(#p18477357b4)" style="fill: #ff0000; stroke: #ff0000; stroke-width: 0.24"/>
    <path d="M 212.88598 170.101475 
L 216.413192 171.673594 
L 215.86362 172.274229 
L 227.876307 183.265656 
L 227.326736 183.866291 
L 215.314049 172.874863 
L 214.764478 173.475497 
z
" clip-path="url(#p18477357b4)" style="fill: #ff0000; stroke: #ff0000; stroke-width: 0.24"/>
    <path d="M 214.953597 171.206219 
L 218.430604 172.886457 
L 217.862756 173.469843 
L 229.530468 184.826806 
L 228.96262 185.410192 
L 217.294908 174.053228 
L 216.72706 174.636614 
z
" clip-path="url(#p18477357b4)" style="fill: #ff0000; stroke: #ff0000; stroke-width: 0.24"/>
    <path d="M 216.986136 172.374206 
L 220.409626 174.160963 
L 219.824042 174.726543 
L 231.135662 186.438221 
L 230.550078 187.003802 
L 219.238458 175.292124 
L 218.652874 175.857705 
z
" clip-path="url(#p18477357b4)" style="fill: #ff0000; stroke: #ff0000; stroke-width: 0.24"/>
    <path d="M 218.981647 173.604387 
L 222.348358 175.495958 
L 221.745596 176.043195 
L 232.690345 188.098427 
L 232.087583 188.645665 
L 221.142835 176.590432 
L 220.540073 177.13767 
z
" clip-path="url(#p18477357b4)" style="fill: #ff0000; stroke: #ff0000; stroke-width: 0.24"/>
    <path d="M 220.93839 174.895402 
L 224.245093 176.890019 
L 223.625723 177.418385 
L 234.193046 189.80579 
L 233.573676 190.334156 
L 223.006352 177.946751 
L 222.386982 178.475118 
z
" clip-path="url(#p18477357b4)" style="fill: #ff0000; stroke: #ff0000; stroke-width: 0.24"/>
    <path d="M 222.85419 176.246439 
L 226.097753 178.342168 
L 225.46237 178.851165 
L 235.642321 191.55883 
L 235.006938 192.067827 
L 224.826987 179.360163 
L 224.191604 179.86916 
z
" clip-path="url(#p18477357b4)" style="fill: #ff0000; stroke: #ff0000; stroke-width: 0.24"/>
    <path d="M 224.727376 177.655947 
L 227.904709 179.850789 
L 227.253918 180.339933 
L 237.036796 193.355748 
L 236.386005 193.844892 
L 226.603128 180.829077 
L 225.952337 181.318221 
z
" clip-path="url(#p18477357b4)" style="fill: #ff0000; stroke: #ff0000; stroke-width: 0.24"/>
    <path d="M 226.556165 179.122493 
L 229.664241 181.414359 
L 228.998662 181.883183 
L 238.375144 195.194746 
L 237.709566 195.66357 
L 228.333084 182.352007 
L 227.667506 182.820831 
z
" clip-path="url(#p18477357b4)" style="fill: #ff0000; stroke: #ff0000; stroke-width: 0.24"/>
    <path d="M 228.33898 180.644848 
L 231.374812 183.031583 
L 230.695076 183.479634 
L 239.656092 197.074351 
L 238.976356 197.522402 
L 230.01534 183.927685 
L 229.335604 184.375735 
z
" clip-path="url(#p18477357b4)" style="fill: #ff0000; stroke: #ff0000; stroke-width: 0.24"/>
    <path d="M 230.073784 182.22145 
L 233.034503 184.70075 
L 232.341262 185.127607 
L 240.878406 198.992429 
L 240.185165 199.419286 
L 231.648021 185.554464 
L 230.95478 185.981321 
z
" clip-path="url(#p18477357b4)" style="fill: #ff0000; stroke: #ff0000; stroke-width: 0.24"/>
    <path d="M 231.759107 183.850872 
L 234.641891 186.420373 
L 233.935805 186.82563 
L 242.040943 200.947346 
L 241.334857 201.352603 
L 233.22972 187.230887 
L 232.523634 187.636144 
z
" clip-path="url(#p18477357b4)" style="fill: #ff0000; stroke: #ff0000; stroke-width: 0.24"/>
    <path d="M 233.39332 185.531622 
L 236.195423 188.188876 
L 235.477165 188.572147 
L 243.142573 202.937301 
L 242.424315 203.320571 
L 234.758908 188.955417 
L 234.04065 189.338688 
z
" clip-path="url(#p18477357b4)" style="fill: #ff0000; stroke: #ff0000; stroke-width: 0.24"/>
    <path d="M 234.974803 187.262031 
L 237.693555 190.004506 
L 236.963809 190.365425 
L 244.182183 204.960329 
L 243.452438 205.321247 
L 236.234064 190.726344 
L 235.504319 191.087262 
z
" clip-path="url(#p18477357b4)" style="fill: #ff0000; stroke: #ff0000; stroke-width: 0.24"/>
    <path d="M 234.683935 185.206479 
L 237.316717 188.031588 
L 236.576176 188.369804 
L 243.34049 203.180618 
L 242.599949 203.518833 
L 235.835636 188.70802 
L 235.095095 189.046235 
z
" clip-path="url(#p18477357b4)" style="fill: #ff0000; stroke: #ff0000; stroke-width: 0.24"/>
    <path d="M 234.340052 182.887595 
L 236.884382 185.79262 
L 236.133755 186.107817 
L 242.437709 201.120356 
L 241.687082 201.435553 
L 235.383128 186.423015 
L 234.632501 186.738213 
z
" clip-path="url(#p18477357b4)" style="fill: #ff0000; stroke: #ff0000; stroke-width: 0.24"/>
    <path d="M 234.067907 180.559207 
L 236.521361 183.541378 
L 235.761363 183.833257 
L 241.59895 199.033215 
L 240.838952 199.325094 
L 235.001366 184.125137 
L 234.241368 184.417016 
z
" clip-path="url(#p18477357b4)" style="fill: #ff0000; stroke: #ff0000; stroke-width: 0.24"/>
    <path d="M 233.867756 178.223486 
L 236.227995 181.279962 
L 235.459351 181.548245 
L 240.825008 196.921139 
L 240.056363 197.189422 
L 234.690706 181.816528 
L 233.922061 182.084811 
z
" clip-path="url(#p18477357b4)" style="fill: #ff0000; stroke: #ff0000; stroke-width: 0.24"/>
    <path d="M 233.739794 175.882751 
L 236.004571 179.01062 
L 235.228012 179.255051 
L 240.116627 194.786232 
L 239.340068 195.030663 
L 234.451453 179.499482 
L 233.674894 179.743913 
z
" clip-path="url(#p18477357b4)" style="fill: #ff0000; stroke: #ff0000; stroke-width: 0.24"/>
    <path d="M 233.684342 173.539087 
L 235.851466 176.735391 
L 235.067731 176.955729 
L 239.474488 192.630441 
L 238.690753 192.850779 
L 234.283995 177.176067 
L 233.500259 177.396404 
z
" clip-path="url(#p18477357b4)" style="fill: #ff0000; stroke: #ff0000; stroke-width: 0.24"/>
    <path d="M 233.701058 171.195055 
L 235.768495 174.456725 
L 234.978332 174.652767 
L 238.899189 190.456027 
L 238.109026 190.65207 
L 234.188169 174.84881 
L 233.398006 175.044853 
z
" clip-path="url(#p18477357b4)" style="fill: #ff0000; stroke: #ff0000; stroke-width: 0.24"/>
    <path d="M 233.818092 168.360481 
L 235.762259 171.697095 
L 234.965325 171.863488 
L 238.293173 187.802169 
L 237.496239 187.968562 
L 234.168391 172.02988 
L 233.371457 172.196273 
z
" clip-path="url(#p18477357b4)" style="fill: #ff0000; stroke: #ff0000; stroke-width: 0.24"/>
    <path d="M 234.04092 165.532477 
L 235.859104 168.93938 
L 235.056511 169.07589 
L 237.786706 185.127749 
L 236.984113 185.264258 
L 234.253918 169.2124 
L 233.451325 169.348909 
z
" clip-path="url(#p18477357b4)" style="fill: #ff0000; stroke: #ff0000; stroke-width: 0.24"/>
    <path d="M 234.36922 162.714656 
L 236.058882 166.187093 
L 235.251751 166.29353 
L 237.380483 182.436164 
L 236.573351 182.542601 
L 234.444619 166.399967 
L 233.637487 166.506403 
z
" clip-path="url(#p18477357b4)" style="fill: #ff0000; stroke: #ff0000; stroke-width: 0.24"/>
    <path d="M 234.802533 159.911081 
L 236.361316 163.444206 
L 235.550772 163.520421 
L 237.075071 179.731302 
L 236.264527 179.807517 
L 234.740228 163.596636 
L 233.929684 163.672851 
z
" clip-path="url(#p18477357b4)" style="fill: #ff0000; stroke: #ff0000; stroke-width: 0.24"/>
    <path d="M 235.340266 157.125777 
L 236.765995 160.714659 
L 235.95317 160.760546 
L 236.870907 177.017049 
L 236.058082 177.062936 
L 235.140344 160.806433 
L 234.327519 160.85232 
z
" clip-path="url(#p18477357b4)" style="fill: #ff0000; stroke: #ff0000; stroke-width: 0.24"/>
    <path d="M 235.981675 154.362403 
L 237.272359 158.002035 
L 236.458387 158.017529 
L 236.768282 174.296967 
L 235.95431 174.312462 
L 235.644415 158.033024 
L 234.830444 158.048519 
z
" clip-path="url(#p18477357b4)" style="fill: #ff0000; stroke: #ff0000; stroke-width: 0.24"/>
    <path d="M 236.725834 151.624745 
L 237.879673 155.310045 
L 237.06569 155.295126 
L 236.767311 171.574779 
L 235.953328 171.55986 
L 236.251708 155.280207 
L 235.437725 155.265288 
z
" clip-path="url(#p18477357b4)" style="fill: #ff0000; stroke: #ff0000; stroke-width: 0.24"/>
    <path d="M 237.571737 148.917035 
L 238.58712 152.642861 
L 237.774262 152.597549 
L 236.868025 168.854697 
L 236.055167 168.809386 
L 236.961405 152.552237 
L 236.148547 152.506925 
z
" clip-path="url(#p18477357b4)" style="fill: #ff0000; stroke: #ff0000; stroke-width: 0.24"/>
    <path d="M 238.518181 146.242655 
L 239.393691 150.003807 
L 238.583093 149.928165 
L 237.070262 166.14012 
L 236.259664 166.064478 
L 237.772495 149.852524 
L 236.961897 149.776882 
z
" clip-path="url(#p18477357b4)" style="fill: #ff0000; stroke: #ff0000; stroke-width: 0.24"/>
    <path d="M 239.015309 143.541234 
L 239.849582 147.311747 
L 239.039861 147.227234 
L 237.349604 163.421652 
L 236.539883 163.337139 
L 238.230141 147.142722 
L 237.42042 147.058209 
z
" clip-path="url(#p18477357b4)" style="fill: #ff0000; stroke: #ff0000; stroke-width: 0.24"/>
    <path d="M 239.299469 140.818493 
L 240.133742 144.589007 
L 239.324022 144.504494 
L 237.633764 160.698911 
L 236.824043 160.614398 
L 238.514301 144.419981 
L 237.70458 144.335468 
z
" clip-path="url(#p18477357b4)" style="fill: #ff0000; stroke: #ff0000; stroke-width: 0.24"/>
    <path d="M 239.583629 138.095915 
L 240.417903 141.866429 
L 239.608182 141.781916 
L 237.917924 157.976333 
L 237.108203 157.89182 
L 238.798461 141.697403 
L 237.98874 141.61289 
z
" clip-path="url(#p18477357b4)" style="fill: #ff0000; stroke: #ff0000; stroke-width: 0.24"/>
    <path d="M 239.86779 135.373337 
L 240.702063 139.143851 
L 239.892342 139.059338 
L 238.202084 155.253755 
L 237.392363 155.169242 
L 239.082621 138.974825 
L 238.2729 138.890312 
z
" clip-path="url(#p18477357b4)" style="fill: #ff0000; stroke: #ff0000; stroke-width: 0.24"/>
    <path d="M 240.15195 132.650759 
L 240.986223 136.421273 
L 240.176502 136.33676 
L 238.486244 152.531177 
L 237.676524 152.446664 
L 239.366781 136.252247 
L 238.557061 136.167734 
z
" clip-path="url(#p18477357b4)" style="fill: #ff0000; stroke: #ff0000; stroke-width: 0.24"/>
    <path d="M 240.43611 129.928181 
L 241.270383 133.698695 
L 240.460662 133.614182 
L 238.770405 149.808599 
L 237.960684 149.724087 
L 239.650942 133.529669 
L 238.841221 133.445156 
z
" clip-path="url(#p18477357b4)" style="fill: #ff0000; stroke: #ff0000; stroke-width: 0.24"/>
    <path d="M 240.72027 127.205506 
L 241.554544 130.976019 
L 240.744823 130.891506 
L 239.054565 147.085924 
L 238.244844 147.001411 
L 239.935102 130.806993 
L 239.125381 130.72248 
z
" clip-path="url(#p18477357b4)" style="fill: #ff0000; stroke: #ff0000; stroke-width: 0.24"/>
    <path d="M 241.004431 124.482895 
L 241.838704 128.253408 
L 241.028983 128.168896 
L 239.338725 144.363313 
L 238.529004 144.2788 
L 240.219262 128.084383 
L 239.409541 127.99987 
z
" clip-path="url(#p18477357b4)" style="fill: #ff0000; stroke: #ff0000; stroke-width: 0.24"/>
    <path d="M 241.288591 121.760285 
L 242.122864 125.530798 
L 241.313143 125.446285 
L 239.622885 141.640703 
L 238.813164 141.55619 
L 240.503422 125.361772 
L 239.693701 125.277259 
z
" clip-path="url(#p18477357b4)" style="fill: #ff0000; stroke: #ff0000; stroke-width: 0.24"/>
    <path d="M 241.572751 119.03769 
L 242.407024 122.808204 
L 241.597303 122.723691 
L 239.907046 138.918108 
L 239.097325 138.833596 
L 240.787583 122.639178 
L 239.977862 122.554665 
z
" clip-path="url(#p18477357b4)" style="fill: #ff0000; stroke: #ff0000; stroke-width: 0.24"/>
    <path d="M 241.856911 116.31508 
L 242.691184 120.085593 
L 241.881464 120.00108 
L 240.191206 136.195498 
L 239.381485 136.110985 
L 241.071743 119.916567 
L 240.262022 119.832054 
z
" clip-path="url(#p18477357b4)" style="fill: #ff0000; stroke: #ff0000; stroke-width: 0.24"/>
    <path d="M 242.141055 113.592469 
L 242.975328 117.362983 
L 242.165608 117.27847 
L 240.47535 133.472887 
L 239.665629 133.388374 
L 241.355887 117.193957 
L 240.546166 117.109444 
z
" clip-path="url(#p18477357b4)" style="fill: #ff0000; stroke: #ff0000; stroke-width: 0.24"/>
    <path d="M 242.425215 110.869859 
L 243.259489 114.640372 
L 242.449768 114.555859 
L 240.75951 130.750277 
L 239.949789 130.665764 
L 241.640047 114.471346 
L 240.830326 114.386833 
z
" clip-path="url(#p18477357b4)" style="fill: #ff0000; stroke: #ff0000; stroke-width: 0.24"/>
    <path d="M 242.709376 108.147248 
L 243.543649 111.917762 
L 242.733928 111.833249 
L 241.04367 128.027666 
L 240.233949 127.943153 
L 241.924207 111.748736 
L 241.114486 111.664223 
z
" clip-path="url(#p18477357b4)" style="fill: #ff0000; stroke: #ff0000; stroke-width: 0.24"/>
    <path d="M 242.993536 105.424638 
L 243.827809 109.195151 
L 243.018088 109.110638 
L 241.32783 125.305056 
L 240.518109 125.220543 
L 242.208367 109.026125 
L 241.398646 108.941612 
z
" clip-path="url(#p18477357b4)" style="fill: #ff0000; stroke: #ff0000; stroke-width: 0.24"/>
    <path d="M 243.277696 102.702044 
L 244.111969 106.472557 
L 243.302248 106.388044 
L 241.611991 122.582462 
L 240.80227 122.497949 
L 242.492528 106.303531 
L 241.682807 106.219018 
z
" clip-path="url(#p18477357b4)" style="fill: #ff0000; stroke: #ff0000; stroke-width: 0.24"/>
    <path d="M 243.561856 99.979433 
L 244.39613 103.749946 
L 243.586409 103.665433 
L 241.896151 119.859851 
L 241.08643 119.775338 
L 242.776688 103.58092 
L 241.966967 103.496408 
z
" clip-path="url(#p18477357b4)" style="fill: #ff0000; stroke: #ff0000; stroke-width: 0.24"/>
    <path d="M 243.846016 97.256822 
L 244.68029 101.027336 
L 243.870569 100.942823 
L 242.180311 117.13724 
L 241.37059 117.052728 
L 243.060848 100.85831 
L 242.251127 100.773797 
z
" clip-path="url(#p18477357b4)" style="fill: #ff0000; stroke: #ff0000; stroke-width: 0.24"/>
    <path d="M 244.130177 94.534179 
L 244.96445 98.304693 
L 244.154729 98.22018 
L 242.464471 114.414597 
L 241.65475 114.330084 
L 243.345008 98.135667 
L 242.535287 98.051154 
z
" clip-path="url(#p18477357b4)" style="fill: #ff0000; stroke: #ff0000; stroke-width: 0.24"/>
    <path d="M 244.414337 91.811601 
L 245.24861 95.582115 
L 244.438889 95.497602 
L 242.748631 111.692019 
L 241.938911 111.607507 
L 243.629168 95.413089 
L 242.819448 95.328576 
z
" clip-path="url(#p18477357b4)" style="fill: #ff0000; stroke: #ff0000; stroke-width: 0.24"/>
    <path d="M 244.698497 89.089023 
L 245.53277 92.859537 
L 244.72305 92.775024 
L 243.032792 108.969441 
L 242.223071 108.884929 
L 243.913329 92.690511 
L 243.103608 92.605998 
z
" clip-path="url(#p18477357b4)" style="fill: #ff0000; stroke: #ff0000; stroke-width: 0.24"/>
    <path d="M 244.982657 86.366445 
L 245.816931 90.136959 
L 245.00721 90.052446 
L 243.316952 106.246863 
L 242.507231 106.162351 
L 244.197489 89.967933 
L 243.387768 89.88342 
z
" clip-path="url(#p18477357b4)" style="fill: #ff0000; stroke: #ff0000; stroke-width: 0.24"/>
    <path d="M 245.266818 83.643705 
L 246.101091 87.414218 
L 245.29137 87.329705 
L 243.601112 103.524123 
L 242.791391 103.43961 
L 244.481649 87.245192 
L 243.671928 87.160679 
z
" clip-path="url(#p18477357b4)" style="fill: #ff0000; stroke: #ff0000; stroke-width: 0.24"/>
    <path d="M 245.550994 80.921127 
L 246.385267 84.69164 
L 245.575546 84.607127 
L 243.885289 100.801545 
L 243.075568 100.717032 
L 244.765826 84.522614 
L 243.956105 84.438101 
z
" clip-path="url(#p18477357b4)" style="fill: #ff0000; stroke: #ff0000; stroke-width: 0.24"/>
    <path d="M 245.835122 78.198549 
L 246.669395 81.969062 
L 245.859674 81.884549 
L 244.169416 98.078967 
L 243.359695 97.994454 
L 245.049953 81.800036 
L 244.240232 81.715523 
z
" clip-path="url(#p18477357b4)" style="fill: #ff0000; stroke: #ff0000; stroke-width: 0.24"/>
    <path d="M 246.119249 75.475971 
L 246.953523 79.246484 
L 246.143802 79.161971 
L 244.453544 95.356389 
L 243.643823 95.271876 
L 245.334081 79.077458 
L 244.52436 78.992945 
z
" clip-path="url(#p18477357b4)" style="fill: #ff0000; stroke: #ff0000; stroke-width: 0.24"/>
    <path d="M 246.403377 72.753393 
L 247.23765 76.523906 
L 246.427929 76.439393 
L 244.737672 92.633811 
L 243.927951 92.549298 
L 245.618209 76.35488 
L 244.808488 76.270367 
z
" clip-path="url(#p18477357b4)" style="fill: #ff0000; stroke: #ff0000; stroke-width: 0.24"/>
    <path d="M 246.687668 70.030815 
L 247.521941 73.801328 
L 246.71222 73.716815 
L 245.021962 89.911233 
L 244.212241 89.82672 
L 245.902499 73.632302 
L 245.092778 73.547789 
z
" clip-path="url(#p18477357b4)" style="fill: #ff0000; stroke: #ff0000; stroke-width: 0.24"/>
    <path d="M 246.971795 67.308074 
L 247.806068 71.078587 
L 246.996348 70.994074 
L 245.30609 87.188492 
L 244.496369 87.103979 
L 246.186627 70.909562 
L 245.376906 70.825049 
z
" clip-path="url(#p18477357b4)" style="fill: #ff0000; stroke: #ff0000; stroke-width: 0.24"/>
    <path d="M 247.255923 64.585496 
L 248.090196 68.356009 
L 247.280475 68.271496 
L 245.590217 84.465914 
L 244.780497 84.381401 
L 246.470754 68.186984 
L 245.661033 68.102471 
z
" clip-path="url(#p18477357b4)" style="fill: #ff0000; stroke: #ff0000; stroke-width: 0.24"/>
    <path d="M 247.54005 61.862918 
L 248.374324 65.633431 
L 247.564603 65.548919 
L 245.874345 81.743336 
L 245.064624 81.658823 
L 246.754882 65.464406 
L 245.945161 65.379893 
z
" clip-path="url(#p18477357b4)" style="fill: #ff0000; stroke: #ff0000; stroke-width: 0.24"/>
    <path d="M 247.824178 59.14034 
L 248.658451 62.910853 
L 247.848731 62.826341 
L 246.158473 79.020758 
L 245.348752 78.936245 
L 247.03901 62.741828 
L 246.229289 62.657315 
z
" clip-path="url(#p18477357b4)" style="fill: #ff0000; stroke: #ff0000; stroke-width: 0.24"/>
    <path d="M 248.108469 56.417762 
L 248.942742 60.188275 
L 248.133021 60.103763 
L 246.442763 76.29818 
L 245.633042 76.213667 
L 247.3233 60.01925 
L 246.513579 59.934737 
z
" clip-path="url(#p18477357b4)" style="fill: #ff0000; stroke: #ff0000; stroke-width: 0.24"/>
    <path d="M 248.392596 53.695021 
L 249.22687 57.465535 
L 248.417149 57.381022 
L 246.726891 73.575439 
L 245.91717 73.490927 
L 247.607428 57.296509 
L 246.797707 57.211996 
z
" clip-path="url(#p18477357b4)" style="fill: #ff0000; stroke: #ff0000; stroke-width: 0.24"/>
    <path d="M 248.676724 50.972443 
L 249.510997 54.742957 
L 248.701276 54.658444 
L 247.011019 70.852861 
L 246.201298 70.768349 
L 247.891555 54.573931 
L 247.081835 54.489418 
z
" clip-path="url(#p18477357b4)" style="fill: #ff0000; stroke: #ff0000; stroke-width: 0.24"/>
    <path d="M 248.960852 48.249865 
L 249.795125 52.020379 
L 248.985404 51.935866 
L 247.295146 68.130283 
L 246.485425 68.045771 
L 248.175683 51.851353 
L 247.365962 51.76684 
z
" clip-path="url(#p18477357b4)" style="fill: #ff0000; stroke: #ff0000; stroke-width: 0.24"/>
    <path d="M 248.632051 45.472242 
L 249.576352 49.216715 
L 248.764504 49.155944 
L 247.549075 65.392904 
L 246.737227 65.332133 
L 247.952656 49.095173 
L 247.140808 49.034401 
z
" clip-path="url(#p18477357b4)" style="fill: #ff0000; stroke: #ff0000; stroke-width: 0.24"/>
    <path d="M 248.041464 42.697511 
L 249.124967 46.4041 
L 248.311416 46.373695 
L 247.703307 62.644722 
L 246.889756 62.614317 
L 247.497864 46.343289 
L 246.684313 46.312884 
z
" clip-path="url(#p18477357b4)" style="fill: #ff0000; stroke: #ff0000; stroke-width: 0.24"/>
    <path d="M 247.347585 39.946852 
L 248.568777 43.610384 
L 247.754658 43.610387 
L 247.754718 59.892774 
L 246.940598 59.892777 
L 246.940538 43.61039 
L 246.126419 43.610393 
z
" clip-path="url(#p18477357b4)" style="fill: #ff0000; stroke: #ff0000; stroke-width: 0.24"/>
   </g>
   <g id="matplotlib.axis_1">
    <g id="xtick_1">
     <g id="line2d_1">
      <defs>
       <path id="mea209a377b" d="M 0 0 
L 0 -3 
" style="stroke: #000000"/>
      </defs>
      <g>
       <use xlink:href="#mea209a377b" x="161.865125" y="290.32" style="stroke: #000000"/>
      </g>
     </g>
     <g id="text_1">
      <!-- −4 -->
      <g transform="translate(154.125477 303.898359) scale(0.105 -0.105)">
       <defs>
        <path id="DejaVuSans-2212" d="M 678 2272 
L 4684 2272 
L 4684 1741 
L 678 1741 
L 678 2272 
z
" transform="scale(0.015625)"/>
        <path id="DejaVuSans-34" d="M 2419 4116 
L 825 1625 
L 2419 1625 
L 2419 4116 
z
M 2253 4666 
L 3047 4666 
L 3047 1625 
L 3713 1625 
L 3713 1100 
L 3047 1100 
L 3047 0 
L 2419 0 
L 2419 1100 
L 313 1100 
L 313 1709 
L 2253 4666 
z
" transform="scale(0.015625)"/>
       </defs>
       <use xlink:href="#DejaVuSans-2212"/>
       <use xlink:href="#DejaVuSans-34" x="83.789062"/>
      </g>
     </g>
    </g>
    <g id="xtick_2">
     <g id="line2d_2">
      <g>
       <use xlink:href="#mea209a377b" x="194.4299" y="290.32" style="stroke: #000000"/>
      </g>
     </g>
     <g id="text_2">
      <!-- −2 -->
      <g transform="translate(186.690251 303.898359) scale(0.105 -0.105)">
       <defs>
        <path id="DejaVuSans-32" d="M 1228 531 
L 3431 531 
L 3431 0 
L 469 0 
L 469 531 
Q 828 903 1448 1529 
Q 2069 2156 2228 2338 
Q 2531 2678 2651 2914 
Q 2772 3150 2772 3378 
Q 2772 3750 2511 3984 
Q 2250 4219 1831 4219 
Q 1534 4219 1204 4116 
Q 875 4013 500 3803 
L 500 4441 
Q 881 4594 1212 4672 
Q 1544 4750 1819 4750 
Q 2544 4750 2975 4387 
Q 3406 4025 3406 3419 
Q 3406 3131 3298 2873 
Q 3191 2616 2906 2266 
Q 2828 2175 2409 1742 
Q 1991 1309 1228 531 
z
" transform="scale(0.015625)"/>
       </defs>
       <use xlink:href="#DejaVuSans-2212"/>
       <use xlink:href="#DejaVuSans-32" x="83.789062"/>
      </g>
     </g>
    </g>
    <g id="xtick_3">
     <g id="line2d_3">
      <g>
       <use xlink:href="#mea209a377b" x="226.994674" y="290.32" style="stroke: #000000"/>
      </g>
     </g>
     <g id="text_3">
      <!-- 0 -->
      <g transform="translate(223.654361 303.898359) scale(0.105 -0.105)">
       <defs>
        <path id="DejaVuSans-30" d="M 2034 4250 
Q 1547 4250 1301 3770 
Q 1056 3291 1056 2328 
Q 1056 1369 1301 889 
Q 1547 409 2034 409 
Q 2525 409 2770 889 
Q 3016 1369 3016 2328 
Q 3016 3291 2770 3770 
Q 2525 4250 2034 4250 
z
M 2034 4750 
Q 2819 4750 3233 4129 
Q 3647 3509 3647 2328 
Q 3647 1150 3233 529 
Q 2819 -91 2034 -91 
Q 1250 -91 836 529 
Q 422 1150 422 2328 
Q 422 3509 836 4129 
Q 1250 4750 2034 4750 
z
" transform="scale(0.015625)"/>
       </defs>
       <use xlink:href="#DejaVuSans-30"/>
      </g>
     </g>
    </g>
    <g id="xtick_4">
     <g id="line2d_4">
      <g>
       <use xlink:href="#mea209a377b" x="259.559448" y="290.32" style="stroke: #000000"/>
      </g>
     </g>
     <g id="text_4">
      <!-- 2 -->
      <g transform="translate(256.219136 303.898359) scale(0.105 -0.105)">
       <use xlink:href="#DejaVuSans-32"/>
      </g>
     </g>
    </g>
    <g id="xtick_5">
     <g id="line2d_5">
      <g>
       <use xlink:href="#mea209a377b" x="292.124223" y="290.32" style="stroke: #000000"/>
      </g>
     </g>
     <g id="text_5">
      <!-- 4 -->
      <g transform="translate(288.78391 303.898359) scale(0.105 -0.105)">
       <use xlink:href="#DejaVuSans-34"/>
      </g>
     </g>
    </g>
   </g>
   <g id="matplotlib.axis_2">
    <g id="ytick_1">
     <g id="line2d_6">
      <defs>
       <path id="mff61475cd6" d="M 0 0 
L 3 0 
" style="stroke: #000000"/>
      </defs>
      <g>
       <use xlink:href="#mff61475cd6" x="150.981747" y="262.046754" style="stroke: #000000"/>
      </g>
     </g>
     <g id="text_6">
      <!-- −8 -->
      <g transform="translate(129.90245 266.035934) scale(0.105 -0.105)">
       <defs>
        <path id="DejaVuSans-38" d="M 2034 2216 
Q 1584 2216 1326 1975 
Q 1069 1734 1069 1313 
Q 1069 891 1326 650 
Q 1584 409 2034 409 
Q 2484 409 2743 651 
Q 3003 894 3003 1313 
Q 3003 1734 2745 1975 
Q 2488 2216 2034 2216 
z
M 1403 2484 
Q 997 2584 770 2862 
Q 544 3141 544 3541 
Q 544 4100 942 4425 
Q 1341 4750 2034 4750 
Q 2731 4750 3128 4425 
Q 3525 4100 3525 3541 
Q 3525 3141 3298 2862 
Q 3072 2584 2669 2484 
Q 3125 2378 3379 2068 
Q 3634 1759 3634 1313 
Q 3634 634 3220 271 
Q 2806 -91 2034 -91 
Q 1263 -91 848 271 
Q 434 634 434 1313 
Q 434 1759 690 2068 
Q 947 2378 1403 2484 
z
M 1172 3481 
Q 1172 3119 1398 2916 
Q 1625 2713 2034 2713 
Q 2441 2713 2670 2916 
Q 2900 3119 2900 3481 
Q 2900 3844 2670 4047 
Q 2441 4250 2034 4250 
Q 1625 4250 1398 4047 
Q 1172 3844 1172 3481 
z
" transform="scale(0.015625)"/>
       </defs>
       <use xlink:href="#DejaVuSans-2212"/>
       <use xlink:href="#DejaVuSans-38" x="83.789062"/>
      </g>
     </g>
    </g>
    <g id="ytick_2">
     <g id="line2d_7">
      <g>
       <use xlink:href="#mff61475cd6" x="150.981747" y="229.48198" style="stroke: #000000"/>
      </g>
     </g>
     <g id="text_7">
      <!-- −6 -->
      <g transform="translate(129.90245 233.47116) scale(0.105 -0.105)">
       <defs>
        <path id="DejaVuSans-36" d="M 2113 2584 
Q 1688 2584 1439 2293 
Q 1191 2003 1191 1497 
Q 1191 994 1439 701 
Q 1688 409 2113 409 
Q 2538 409 2786 701 
Q 3034 994 3034 1497 
Q 3034 2003 2786 2293 
Q 2538 2584 2113 2584 
z
M 3366 4563 
L 3366 3988 
Q 3128 4100 2886 4159 
Q 2644 4219 2406 4219 
Q 1781 4219 1451 3797 
Q 1122 3375 1075 2522 
Q 1259 2794 1537 2939 
Q 1816 3084 2150 3084 
Q 2853 3084 3261 2657 
Q 3669 2231 3669 1497 
Q 3669 778 3244 343 
Q 2819 -91 2113 -91 
Q 1303 -91 875 529 
Q 447 1150 447 2328 
Q 447 3434 972 4092 
Q 1497 4750 2381 4750 
Q 2619 4750 2861 4703 
Q 3103 4656 3366 4563 
z
" transform="scale(0.015625)"/>
       </defs>
       <use xlink:href="#DejaVuSans-2212"/>
       <use xlink:href="#DejaVuSans-36" x="83.789062"/>
      </g>
     </g>
    </g>
    <g id="ytick_3">
     <g id="line2d_8">
      <g>
       <use xlink:href="#mff61475cd6" x="150.981747" y="196.917206" style="stroke: #000000"/>
      </g>
     </g>
     <g id="text_8">
      <!-- −4 -->
      <g transform="translate(129.90245 200.906385) scale(0.105 -0.105)">
       <use xlink:href="#DejaVuSans-2212"/>
       <use xlink:href="#DejaVuSans-34" x="83.789062"/>
      </g>
     </g>
    </g>
    <g id="ytick_4">
     <g id="line2d_9">
      <g>
       <use xlink:href="#mff61475cd6" x="150.981747" y="164.352431" style="stroke: #000000"/>
      </g>
     </g>
     <g id="text_9">
      <!-- −2 -->
      <g transform="translate(129.90245 168.341611) scale(0.105 -0.105)">
       <use xlink:href="#DejaVuSans-2212"/>
       <use xlink:href="#DejaVuSans-32" x="83.789062"/>
      </g>
     </g>
    </g>
    <g id="ytick_5">
     <g id="line2d_10">
      <g>
       <use xlink:href="#mff61475cd6" x="150.981747" y="131.787657" style="stroke: #000000"/>
      </g>
     </g>
     <g id="text_10">
      <!-- 0 -->
      <g transform="translate(138.701122 135.776836) scale(0.105 -0.105)">
       <use xlink:href="#DejaVuSans-30"/>
      </g>
     </g>
    </g>
    <g id="ytick_6">
     <g id="line2d_11">
      <g>
       <use xlink:href="#mff61475cd6" x="150.981747" y="99.222882" style="stroke: #000000"/>
      </g>
     </g>
     <g id="text_11">
      <!-- 2 -->
      <g transform="translate(138.701122 103.212062) scale(0.105 -0.105)">
       <use xlink:href="#DejaVuSans-32"/>
      </g>
     </g>
    </g>
    <g id="ytick_7">
     <g id="line2d_12">
      <g>
       <use xlink:href="#mff61475cd6" x="150.981747" y="66.658108" style="stroke: #000000"/>
      </g>
     </g>
     <g id="text_12">
      <!-- 4 -->
      <g transform="translate(138.701122 70.647287) scale(0.105 -0.105)">
       <use xlink:href="#DejaVuSans-34"/>
      </g>
     </g>
    </g>
    <g id="ytick_8">
     <g id="line2d_13">
      <g>
       <use xlink:href="#mff61475cd6" x="150.981747" y="34.093333" style="stroke: #000000"/>
      </g>
     </g>
     <g id="text_13">
      <!-- 6 -->
      <g transform="translate(138.701122 38.082513) scale(0.105 -0.105)">
       <use xlink:href="#DejaVuSans-36"/>
      </g>
     </g>
    </g>
   </g>
   <g id="patch_3">
    <path d="M 150.981747 290.32 
L 150.981747 10.8 
" style="fill: none; stroke: #000000; stroke-width: 0.8; stroke-linejoin: miter; stroke-linecap: square"/>
   </g>
   <g id="patch_4">
    <path d="M 309.818253 290.32 
L 309.818253 10.8 
" style="fill: none; stroke: #000000; stroke-width: 0.8; stroke-linejoin: miter; stroke-linecap: square"/>
   </g>
   <g id="patch_5">
    <path d="M 150.981747 290.32 
L 309.818253 290.32 
" style="fill: none; stroke: #000000; stroke-width: 0.8; stroke-linejoin: miter; stroke-linecap: square"/>
   </g>
   <g id="patch_6">
    <path d="M 150.981747 10.8 
L 309.818253 10.8 
" style="fill: none; stroke: #000000; stroke-width: 0.8; stroke-linejoin: miter; stroke-linecap: square"/>
   </g>
  </g>
 </g>
 <defs>
  <clipPath id="p18477357b4">
   <rect x="150.981747" y="10.8" width="158.836506" height="279.52"/>
  </clipPath>
 </defs>
</svg>
