<?xml version="1.0" encoding="utf-8" standalone="no"?>
<!DOCTYPE svg PUBLIC "-//W3C//DTD SVG 1.1//EN"
  "http://www.w3.org/Graphics/SVG/1.1/DTD/svg11.dtd">
<svg xmlns:xlink="http://www.w3.org/1999/xlink" width="460.8pt" height="316.8pt" viewBox="0 0 460.8 316.8" xmlns="http://www.w3.org/2000/svg" version="1.1">
 <metadata>
  <rdf:RDF xmlns:dc="http://purl.org/dc/elements/1.1/" xmlns:cc="http://creativecommons.org/ns#" xmlns:rdf="http://www.w3.org/1999/02/22-rdf-syntax-ns#">
   <cc:Work>
    <dc:type rdf:resource="http://purl.org/dc/dcmitype/StillImage"/>
    <dc:date>2024-01-11T15:53:31.980823</dc:date>
    <dc:format>image/svg+xml</dc:format>
    <dc:creator>
     <cc:Agent>
      <dc:title>Matplotlib v3.7.2, https://matplotlib.org/</dc:title>
     </cc:Agent>
    </dc:creator>
   </cc:Work>
  </rdf:RDF>
 </metadata>
 <defs>
  <style type="text/css">*{stroke-linejoin: round; stroke-linecap: butt}</style>
 </defs>
 <g id="figure_1">
  <g id="patch_1">
   <path d="M 0 316.8 
L 460.8 316.8 
L 460.8 0 
L 0 0 
z
" style="fill: #ffffff"/>
  </g>
  <g id="axes_1">
   <g id="patch_2">
    <path d="M 130.293971 290.32 
L 330.506029 290.32 
L 330.506029 10.8 
L 130.293971 10.8 
z
" style="fill: #ffffff"/>
   </g>
   <g id="PatchCollection_1">
    <path d="M 217.359976 144.813509 
L 263.493383 144.813509 
L 263.493383 34.093333 
L 217.359976 34.093333 
z
" clip-path="url(#pa5dc4b6741)" style="fill: #ffffff; stroke: #0000ff; stroke-width: 3"/>
    <path d="M 176.762578 137.432164 
L 212.599009 137.432164 
L 212.599009 50.904347 
L 176.762578 50.904347 
z
" clip-path="url(#pa5dc4b6741)" style="fill: #ff0000; stroke: #ff0000; stroke-width: 2"/>
    <path d="M 259.80271 139.277501 
L 295.502772 142.400851 
L 303.044169 56.202298 
L 267.344107 53.078947 
z
" clip-path="url(#pa5dc4b6741)" style="fill: #ff0000; stroke: #ff0000; stroke-width: 2"/>
   </g>
   <g id="PatchCollection_2">
    <path d="M 231.386371 163.809142 
L 144.858554 163.80026 
L 144.854875 199.63669 
L 231.382692 199.645573 
L 231.386371 163.809142 
z
" clip-path="url(#pa5dc4b6741)" style="fill: none; stroke: #000000; stroke-width: 0.5"/>
    <path d="M 234.306287 165.879588 
L 147.815666 163.342726 
L 146.764998 199.163751 
L 233.255619 201.700613 
L 234.306287 165.879588 
z
" clip-path="url(#pa5dc4b6741)" style="fill: none; stroke: #000000; stroke-width: 0.5"/>
    <path d="M 237.164514 168.034633 
L 150.78493 162.971958 
L 148.688168 198.746995 
L 235.067752 203.809671 
L 237.164514 168.034633 
z
" clip-path="url(#pa5dc4b6741)" style="fill: none; stroke: #000000; stroke-width: 0.5"/>
    <path d="M 239.95865 170.27216 
L 153.76385 162.687993 
L 150.622785 198.386501 
L 236.817586 205.970667 
L 239.95865 170.27216 
z
" clip-path="url(#pa5dc4b6741)" style="fill: none; stroke: #000000; stroke-width: 0.5"/>
    <path d="M 243.283803 167.154724 
L 156.824724 163.706409 
L 155.396567 199.51437 
L 241.855646 202.962685 
L 243.283803 167.154724 
z
" clip-path="url(#pa5dc4b6741)" style="fill: none; stroke: #000000; stroke-width: 0.5"/>
    <path d="M 246.455745 163.88121 
L 159.930726 164.577115 
L 160.218943 200.412387 
L 246.743962 199.716481 
L 246.455745 163.88121 
z
" clip-path="url(#pa5dc4b6741)" style="fill: none; stroke: #000000; stroke-width: 0.5"/>
    <path d="M 249.467427 160.459144 
L 163.075021 165.298079 
L 165.079118 201.078428 
L 251.471525 196.239492 
L 249.467427 160.459144 
z
" clip-path="url(#pa5dc4b6741)" style="fill: none; stroke: #000000; stroke-width: 0.5"/>
    <path d="M 252.311538 156.896786 
L 166.250009 165.867645 
L 169.965387 201.510957 
L 256.026917 192.540098 
L 252.311538 156.896786 
z
" clip-path="url(#pa5dc4b6741)" style="fill: none; stroke: #000000; stroke-width: 0.5"/>
    <path d="M 255.011554 153.271691 
L 169.464717 166.264071 
L 174.845651 201.694217 
L 260.392488 188.701838 
L 255.011554 153.271691 
z
" clip-path="url(#pa5dc4b6741)" style="fill: none; stroke: #000000; stroke-width: 0.5"/>
    <path d="M 260.228914 155.956686 
L 174.158101 164.838037 
L 177.836408 200.485193 
L 263.907221 191.603843 
L 260.228914 155.956686 
z
" clip-path="url(#pa5dc4b6741)" style="fill: none; stroke: #000000; stroke-width: 0.5"/>
    <path d="M 265.311945 158.889288 
L 178.914552 163.638372 
L 180.881437 199.420785 
L 267.27883 194.671701 
L 265.311945 158.889288 
z
" clip-path="url(#pa5dc4b6741)" style="fill: none; stroke: #000000; stroke-width: 0.5"/>
    <path d="M 270.248758 162.061942 
L 183.723062 162.667862 
L 183.97401 198.503413 
L 270.499707 197.897494 
L 270.248758 162.061942 
z
" clip-path="url(#pa5dc4b6741)" style="fill: none; stroke: #000000; stroke-width: 0.5"/>
    <path d="M 275.027871 165.466942 
L 188.572424 161.928711 
L 187.107028 197.735168 
L 273.562474 201.273399 
L 275.027871 165.466942 
z
" clip-path="url(#pa5dc4b6741)" style="fill: none; stroke: #000000; stroke-width: 0.5"/>
    <path d="M 279.638519 169.097281 
L 193.451729 161.422614 
L 190.273183 197.117804 
L 276.459973 204.792471 
L 279.638519 169.097281 
z
" clip-path="url(#pa5dc4b6741)" style="fill: none; stroke: #000000; stroke-width: 0.5"/>
    <path d="M 284.06991 172.943628 
L 198.349451 161.150996 
L 193.465405 196.65305 
L 279.185864 208.445682 
L 284.06991 172.943628 
z
" clip-path="url(#pa5dc4b6741)" style="fill: none; stroke: #000000; stroke-width: 0.5"/>
    <path d="M 288.31211 176.998312 
L 203.254782 161.113915 
L 196.676087 196.341327 
L 281.733416 212.225724 
L 288.31211 176.998312 
z
" clip-path="url(#pa5dc4b6741)" style="fill: none; stroke: #000000; stroke-width: 0.5"/>
    <path d="M 292.355251 181.251673 
L 208.156253 161.311965 
L 199.898008 196.18389 
L 284.097006 216.123598 
L 292.355251 181.251673 
z
" clip-path="url(#pa5dc4b6741)" style="fill: none; stroke: #000000; stroke-width: 0.5"/>
    <path d="M 296.190057 185.693627 
L 213.04262 161.744368 
L 203.123776 196.180777 
L 286.271213 220.130036 
L 296.190057 185.693627 
z
" clip-path="url(#pa5dc4b6741)" style="fill: none; stroke: #000000; stroke-width: 0.5"/>
    <path d="M 299.807784 190.313549 
L 217.902447 162.41052 
L 206.346106 196.3325 
L 288.251443 224.235529 
L 299.807784 190.313549 
z
" clip-path="url(#pa5dc4b6741)" style="fill: none; stroke: #000000; stroke-width: 0.5"/>
    <path d="M 303.200054 195.102053 
L 222.725024 163.308458 
L 209.557363 196.638061 
L 290.032393 228.431656 
L 303.200054 195.102053 
z
" clip-path="url(#pa5dc4b6741)" style="fill: none; stroke: #000000; stroke-width: 0.5"/>
    <path d="M 306.359109 200.04763 
L 227.499069 164.436433 
L 212.750307 197.09717 
L 291.610347 232.708367 
L 306.359109 200.04763 
z
" clip-path="url(#pa5dc4b6741)" style="fill: none; stroke: #000000; stroke-width: 0.5"/>
    <path d="M 309.277765 205.138612 
L 232.213694 165.791538 
L 215.917678 197.708456 
L 292.981749 237.055529 
L 309.277765 205.138612 
z
" clip-path="url(#pa5dc4b6741)" style="fill: none; stroke: #000000; stroke-width: 0.5"/>
    <path d="M 311.949307 210.362889 
L 236.857632 167.370988 
L 219.052072 198.471017 
L 294.143747 241.462917 
L 311.949307 210.362889 
z
" clip-path="url(#pa5dc4b6741)" style="fill: none; stroke: #000000; stroke-width: 0.5"/>
    <path d="M 314.36741 215.709962 
L 241.420853 169.171127 
L 222.146292 199.382732 
L 295.092848 245.921566 
L 314.36741 215.709962 
z
" clip-path="url(#pa5dc4b6741)" style="fill: none; stroke: #000000; stroke-width: 0.5"/>
    <path d="M 316.526739 221.166603 
L 245.892709 171.187638 
L 225.19338 200.441484 
L 295.82741 250.42045 
L 316.526739 221.166603 
z
" clip-path="url(#pa5dc4b6741)" style="fill: none; stroke: #000000; stroke-width: 0.5"/>
    <path d="M 318.42235 226.720401 
L 250.262946 173.416002 
L 228.186354 201.644955 
L 296.345758 254.949354 
L 318.42235 226.720401 
z
" clip-path="url(#pa5dc4b6741)" style="fill: none; stroke: #000000; stroke-width: 0.5"/>
    <path d="M 320.049968 232.357879 
L 254.521047 175.851033 
L 231.118126 202.990543 
L 296.647048 259.49739 
L 320.049968 232.357879 
z
" clip-path="url(#pa5dc4b6741)" style="fill: none; stroke: #000000; stroke-width: 0.5"/>
    <path d="M 321.405481 238.067475 
L 258.657959 178.487179 
L 233.982136 204.474743 
L 296.729658 264.055039 
L 321.405481 238.067475 
z
" clip-path="url(#pa5dc4b6741)" style="fill: none; stroke: #000000; stroke-width: 0.5"/>
    <path d="M 320.949208 242.250689 
L 261.127087 179.733675 
L 235.234991 204.509653 
L 295.057112 267.026667 
L 320.949208 242.250689 
z
" clip-path="url(#pa5dc4b6741)" style="fill: none; stroke: #000000; stroke-width: 0.5"/>
    <path d="M 316.391607 242.185093 
L 259.631521 176.875401 
L 232.582807 200.383204 
L 289.342893 265.692896 
L 316.391607 242.185093 
z
" clip-path="url(#pa5dc4b6741)" style="fill: none; stroke: #000000; stroke-width: 0.5"/>
    <path d="M 311.84189 241.90178 
L 258.274724 173.948693 
L 230.131219 196.134113 
L 283.698385 264.0872 
L 311.84189 241.90178 
z
" clip-path="url(#pa5dc4b6741)" style="fill: none; stroke: #000000; stroke-width: 0.5"/>
    <path d="M 307.310959 241.401141 
L 257.059647 170.960607 
L 227.885939 191.772731 
L 278.137251 262.213265 
L 307.310959 241.401141 
z
" clip-path="url(#pa5dc4b6741)" style="fill: none; stroke: #000000; stroke-width: 0.5"/>
    <path d="M 302.80927 240.683851 
L 255.989134 167.917525 
L 225.852174 187.30859 
L 272.67231 260.074915 
L 302.80927 240.683851 
z
" clip-path="url(#pa5dc4b6741)" style="fill: none; stroke: #000000; stroke-width: 0.5"/>
    <path d="M 298.347709 239.75143 
L 255.06545 164.82674 
L 224.03458 182.752555 
L 267.316839 257.677246 
L 298.347709 239.75143 
z
" clip-path="url(#pa5dc4b6741)" style="fill: none; stroke: #000000; stroke-width: 0.5"/>
    <path d="M 293.935194 238.607006 
L 254.290869 161.695429 
L 222.437109 178.114554 
L 262.081434 255.026132 
L 293.935194 238.607006 
z
" clip-path="url(#pa5dc4b6741)" style="fill: none; stroke: #000000; stroke-width: 0.5"/>
    <path d="M 289.582759 237.252416 
L 253.667348 158.53046 
L 221.0638 173.405215 
L 256.97921 252.127172 
L 289.582759 237.252416 
z
" clip-path="url(#pa5dc4b6741)" style="fill: none; stroke: #000000; stroke-width: 0.5"/>
    <path d="M 285.300096 235.691047 
L 253.196023 155.339371 
L 219.917509 168.63562 
L 252.021582 248.987295 
L 285.300096 235.691047 
z
" clip-path="url(#pa5dc4b6741)" style="fill: none; stroke: #000000; stroke-width: 0.5"/>
    <path d="M 281.097548 233.92581 
L 252.877672 152.1291 
L 219.000681 163.816666 
L 247.220557 245.613377 
L 281.097548 233.92581 
z
" clip-path="url(#pa5dc4b6741)" style="fill: none; stroke: #000000; stroke-width: 0.5"/>
    <path d="M 276.983908 231.961879 
L 252.713794 148.90753 
L 218.315939 158.95926 
L 242.586052 242.013608 
L 276.983908 231.961879 
z
" clip-path="url(#pa5dc4b6741)" style="fill: none; stroke: #000000; stroke-width: 0.5"/>
    <path d="M 272.969007 229.803126 
L 252.704354 145.681743 
L 217.864575 154.074568 
L 238.129228 238.195951 
L 272.969007 229.803126 
z
" clip-path="url(#pa5dc4b6741)" style="fill: none; stroke: #000000; stroke-width: 0.5"/>
    <path d="M 269.062108 227.454689 
L 252.849422 142.459325 
L 217.647674 149.173984 
L 233.86036 234.169348 
L 269.062108 227.454689 
z
" clip-path="url(#pa5dc4b6741)" style="fill: none; stroke: #000000; stroke-width: 0.5"/>
    <path d="M 265.27276 224.921489 
L 253.148391 139.247322 
L 217.66551 144.268761 
L 229.789879 229.942928 
L 265.27276 224.921489 
z
" clip-path="url(#pa5dc4b6741)" style="fill: none; stroke: #000000; stroke-width: 0.5"/>
    <path d="M 261.608515 222.209975 
L 253.601138 136.05346 
L 217.918486 139.369802 
L 225.925864 225.526317 
L 261.608515 222.209975 
z
" clip-path="url(#pa5dc4b6741)" style="fill: none; stroke: #000000; stroke-width: 0.5"/>
    <path d="M 258.07829 219.326112 
L 254.206281 132.884971 
L 218.405749 134.488606 
L 222.277758 220.929747 
L 258.07829 219.326112 
z
" clip-path="url(#pa5dc4b6741)" style="fill: none; stroke: #000000; stroke-width: 0.5"/>
    <path d="M 254.690115 216.276472 
L 254.962359 129.749082 
L 219.126106 129.636329 
L 218.853862 216.163719 
L 254.690115 216.276472 
z
" clip-path="url(#pa5dc4b6741)" style="fill: none; stroke: #000000; stroke-width: 0.5"/>
    <path d="M 251.452644 213.067917 
L 255.867653 126.652809 
L 220.077903 124.824285 
L 215.662894 211.239393 
L 251.452644 213.067917 
z
" clip-path="url(#pa5dc4b6741)" style="fill: none; stroke: #000000; stroke-width: 0.5"/>
    <path d="M 248.371975 209.708159 
L 256.920483 123.603652 
L 221.259371 120.063195 
L 212.710863 206.167703 
L 248.371975 209.708159 
z
" clip-path="url(#pa5dc4b6741)" style="fill: none; stroke: #000000; stroke-width: 0.5"/>
    <path d="M 245.455449 206.204689 
L 258.117837 120.608385 
L 222.667203 115.364121 
L 210.004816 200.960425 
L 245.455449 206.204689 
z
" clip-path="url(#pa5dc4b6741)" style="fill: none; stroke: #000000; stroke-width: 0.5"/>
    <path d="M 246.376684 202.24268 
L 258.677743 116.593704 
L 223.205294 111.499087 
L 210.904235 197.148064 
L 246.376684 202.24268 
z
" clip-path="url(#pa5dc4b6741)" style="fill: none; stroke: #000000; stroke-width: 0.5"/>
    <path d="M 250.249957 197.834064 
L 258.435028 111.694248 
L 222.759293 108.304312 
L 214.574221 194.444128 
L 250.249957 197.834064 
z
" clip-path="url(#pa5dc4b6741)" style="fill: none; stroke: #000000; stroke-width: 0.5"/>
    <path d="M 253.90747 193.245102 
L 257.957769 106.812132 
L 222.160621 105.134657 
L 218.110322 191.567627 
L 253.90747 193.245102 
z
" clip-path="url(#pa5dc4b6741)" style="fill: none; stroke: #000000; stroke-width: 0.5"/>
    <path d="M 257.341106 188.486078 
L 257.247339 101.958311 
L 221.410929 101.997146 
L 221.504697 188.524913 
L 257.341106 188.486078 
z
" clip-path="url(#pa5dc4b6741)" style="fill: none; stroke: #000000; stroke-width: 0.5"/>
    <path d="M 255.920641 185.749832 
L 257.648169 99.239261 
L 221.818881 98.523787 
L 220.091353 185.034358 
L 255.920641 185.749832 
z
" clip-path="url(#pa5dc4b6741)" style="fill: none; stroke: #000000; stroke-width: 0.5"/>
    <path d="M 255.98246 182.65059 
L 257.709987 96.140019 
L 221.8807 95.424545 
L 220.153172 181.935116 
L 255.98246 182.65059 
z
" clip-path="url(#pa5dc4b6741)" style="fill: none; stroke: #000000; stroke-width: 0.5"/>
    <path d="M 256.044463 179.551163 
L 257.771991 93.040592 
L 221.942703 92.325118 
L 220.215175 178.835689 
L 256.044463 179.551163 
z
" clip-path="url(#pa5dc4b6741)" style="fill: none; stroke: #000000; stroke-width: 0.5"/>
    <path d="M 256.106282 176.451921 
L 257.833809 89.94135 
L 222.004522 89.225876 
L 220.276994 175.736447 
L 256.106282 176.451921 
z
" clip-path="url(#pa5dc4b6741)" style="fill: none; stroke: #000000; stroke-width: 0.5"/>
    <path d="M 256.1681 173.352679 
L 257.895628 86.842108 
L 222.066341 86.126634 
L 220.338813 172.637204 
L 256.1681 173.352679 
z
" clip-path="url(#pa5dc4b6741)" style="fill: none; stroke: #000000; stroke-width: 0.5"/>
    <path d="M 256.230104 170.253252 
L 257.957632 83.742681 
L 222.128344 83.027207 
L 220.400816 169.537778 
L 256.230104 170.253252 
z
" clip-path="url(#pa5dc4b6741)" style="fill: none; stroke: #000000; stroke-width: 0.5"/>
    <path d="M 256.291922 167.15401 
L 258.01945 80.643439 
L 222.190163 79.927965 
L 220.462635 166.438535 
L 256.291922 167.15401 
z
" clip-path="url(#pa5dc4b6741)" style="fill: none; stroke: #000000; stroke-width: 0.5"/>
    <path d="M 256.353741 164.054583 
L 258.081269 77.544012 
L 222.251982 76.828538 
L 220.524454 163.339109 
L 256.353741 164.054583 
z
" clip-path="url(#pa5dc4b6741)" style="fill: none; stroke: #000000; stroke-width: 0.5"/>
    <path d="M 256.415744 160.955341 
L 258.143272 74.44477 
L 222.313985 73.729295 
L 220.586457 160.239866 
L 256.415744 160.955341 
z
" clip-path="url(#pa5dc4b6741)" style="fill: none; stroke: #000000; stroke-width: 0.5"/>
    <path d="M 256.477563 157.855914 
L 258.205091 71.345343 
L 222.375804 70.629869 
L 220.648276 157.14044 
L 256.477563 157.855914 
z
" clip-path="url(#pa5dc4b6741)" style="fill: none; stroke: #000000; stroke-width: 0.5"/>
    <path d="M 256.539382 154.756672 
L 258.26691 68.246101 
L 222.437622 67.530626 
L 220.710095 154.041197 
L 256.539382 154.756672 
z
" clip-path="url(#pa5dc4b6741)" style="fill: none; stroke: #000000; stroke-width: 0.5"/>
    <path d="M 256.601385 151.657429 
L 258.328913 65.146858 
L 222.499626 64.431384 
L 220.772098 150.941955 
L 256.601385 151.657429 
z
" clip-path="url(#pa5dc4b6741)" style="fill: none; stroke: #000000; stroke-width: 0.5"/>
    <path d="M 256.663204 148.558003 
L 258.390732 62.047432 
L 222.561445 61.331957 
L 220.833917 147.842528 
L 256.663204 148.558003 
z
" clip-path="url(#pa5dc4b6741)" style="fill: none; stroke: #000000; stroke-width: 0.5"/>
    <path d="M 256.725023 145.45876 
L 258.452551 58.948189 
L 222.623263 58.232715 
L 220.895735 144.743286 
L 256.725023 145.45876 
z
" clip-path="url(#pa5dc4b6741)" style="fill: none; stroke: #000000; stroke-width: 0.5"/>
    <path d="M 256.787026 142.359333 
L 258.514554 55.848763 
L 222.685267 55.133288 
L 220.957739 141.643859 
L 256.787026 142.359333 
z
" clip-path="url(#pa5dc4b6741)" style="fill: none; stroke: #000000; stroke-width: 0.5"/>
    <path d="M 256.848845 139.260091 
L 258.576373 52.74952 
L 222.747085 52.034046 
L 221.019557 138.544617 
L 256.848845 139.260091 
z
" clip-path="url(#pa5dc4b6741)" style="fill: none; stroke: #000000; stroke-width: 0.5"/>
    <path d="M 256.910664 136.160849 
L 258.638192 49.650278 
L 222.808904 48.934804 
L 221.081376 135.445375 
L 256.910664 136.160849 
z
" clip-path="url(#pa5dc4b6741)" style="fill: none; stroke: #000000; stroke-width: 0.5"/>
    <path d="M 258.34515 132.717264 
L 258.344832 46.189447 
L 222.508402 46.189578 
L 222.508719 132.717396 
L 258.34515 132.717264 
z
" clip-path="url(#pa5dc4b6741)" style="fill: none; stroke: #000000; stroke-width: 0.5"/>
   </g>
   <g id="PatchCollection_3">
    <path d="M 139.394519 181.717914 
L 143.546668 180.334338 
L 143.546573 181.257007 
L 161.999936 181.258901 
L 161.999841 182.181569 
L 143.546478 182.179675 
L 143.546384 183.102343 
z
" clip-path="url(#pa5dc4b6741)" style="fill: #ff0000; stroke: #ff0000; stroke-width: 0.24"/>
    <path d="M 141.830485 181.093095 
L 146.021283 179.831419 
L 145.994232 180.75369 
L 164.439662 181.294714 
L 164.412611 182.216986 
L 145.967181 181.675962 
L 145.94013 182.598233 
z
" clip-path="url(#pa5dc4b6741)" style="fill: #ff0000; stroke: #ff0000; stroke-width: 0.24"/>
    <path d="M 144.283711 180.539888 
L 148.509582 179.401187 
L 148.455597 180.322275 
L 166.877347 181.401967 
L 166.823362 182.323054 
L 148.401613 181.243362 
L 148.347628 182.16445 
z
" clip-path="url(#pa5dc4b6741)" style="fill: #ff0000; stroke: #ff0000; stroke-width: 0.24"/>
    <path d="M 146.752144 180.058486 
L 151.009479 179.043734 
L 150.928607 179.962851 
L 169.310949 181.580289 
L 169.230077 182.499406 
L 150.847735 180.881968 
L 150.766863 181.801085 
z
" clip-path="url(#pa5dc4b6741)" style="fill: #ff0000; stroke: #ff0000; stroke-width: 0.24"/>
    <path d="M 150.652789 181.392709 
L 154.856653 180.175273 
L 154.819882 181.097208 
L 173.258586 181.832613 
L 173.221815 182.754548 
L 154.783112 182.019143 
L 154.746342 182.941078 
z
" clip-path="url(#pa5dc4b6741)" style="fill: #ff0000; stroke: #ff0000; stroke-width: 0.24"/>
    <path d="M 154.612816 182.538681 
L 158.753557 181.121331 
L 158.760978 182.043969 
L 177.213743 181.895557 
L 177.221164 182.818195 
L 158.768398 182.966607 
L 158.775819 183.889246 
z
" clip-path="url(#pa5dc4b6741)" style="fill: #ff0000; stroke: #ff0000; stroke-width: 0.24"/>
    <path d="M 158.623422 183.493718 
L 162.691533 181.879687 
L 162.743132 182.800912 
L 181.167616 181.768936 
L 181.219215 182.69016 
L 162.79473 183.722136 
L 162.846329 184.64336 
z
" clip-path="url(#pa5dc4b6741)" style="fill: #ff0000; stroke: #ff0000; stroke-width: 0.24"/>
    <path d="M 162.674938 184.2556 
L 166.661082 182.448593 
L 166.75674 183.366288 
L 185.11066 181.453117 
L 185.206319 182.370813 
L 166.852399 184.283984 
L 166.948057 185.20168 
z
" clip-path="url(#pa5dc4b6741)" style="fill: #ff0000; stroke: #ff0000; stroke-width: 0.24"/>
    <path d="M 166.754914 184.799307 
L 170.652037 182.807561 
L 170.790579 183.719769 
L 189.034732 180.948948 
L 189.173273 181.861155 
L 170.92912 184.631976 
L 171.067661 185.544184 
z
" clip-path="url(#pa5dc4b6741)" style="fill: #ff0000; stroke: #ff0000; stroke-width: 0.24"/>
    <path d="M 170.563908 183.222263 
L 174.55193 181.419402 
L 174.646634 182.337197 
L 193.002533 180.443115 
L 193.097237 181.36091 
L 174.741338 183.254992 
L 174.836042 184.172787 
z
" clip-path="url(#pa5dc4b6741)" style="fill: #ff0000; stroke: #ff0000; stroke-width: 0.24"/>
    <path d="M 174.444033 181.829372 
L 178.51382 180.219573 
L 178.564461 181.14085 
L 196.990008 180.128036 
L 197.040649 181.049313 
L 178.615101 182.062127 
L 178.665742 182.983405 
z
" clip-path="url(#pa5dc4b6741)" style="fill: #ff0000; stroke: #ff0000; stroke-width: 0.24"/>
    <path d="M 178.386475 180.623887 
L 182.528688 179.210844 
L 182.535149 180.133489 
L 200.988059 180.004268 
L 200.994521 180.926913 
L 182.54161 181.056135 
L 182.548071 181.97878 
z
" clip-path="url(#pa5dc4b6741)" style="fill: #ff0000; stroke: #ff0000; stroke-width: 0.24"/>
    <path d="M 182.382099 179.608584 
L 186.587227 178.39552 
L 186.549498 179.317416 
L 204.987426 180.071997 
L 204.949697 180.993894 
L 186.511769 180.239313 
L 186.47404 181.161209 
z
" clip-path="url(#pa5dc4b6741)" style="fill: #ff0000; stroke: #ff0000; stroke-width: 0.24"/>
    <path d="M 186.421789 178.785734 
L 190.680187 177.775453 
L 190.59835 178.694485 
L 208.978983 180.331223 
L 208.897146 181.250255 
L 190.516513 179.613516 
L 190.434676 180.532548 
z
" clip-path="url(#pa5dc4b6741)" style="fill: #ff0000; stroke: #ff0000; stroke-width: 0.24"/>
    <path d="M 190.496199 178.157595 
L 194.798086 177.352372 
L 194.672338 178.266431 
L 212.95352 180.781388 
L 212.827772 181.695447 
L 194.546591 179.18049 
L 194.420843 180.094549 
z
" clip-path="url(#pa5dc4b6741)" style="fill: #ff0000; stroke: #ff0000; stroke-width: 0.24"/>
    <path d="M 194.596066 177.724895 
L 198.931581 177.12662 
L 198.762201 178.033608 
L 216.90196 181.421196 
L 216.732581 182.328183 
L 198.592822 178.940596 
L 198.423442 179.847584 
z
" clip-path="url(#pa5dc4b6741)" style="fill: #ff0000; stroke: #ff0000; stroke-width: 0.24"/>
    <path d="M 198.711945 177.489204 
L 203.071138 177.099251 
L 202.858515 177.997086 
L 220.815222 182.24953 
L 220.6026 183.147365 
L 202.645893 178.894922 
L 202.433271 179.792757 
z
" clip-path="url(#pa5dc4b6741)" style="fill: #ff0000; stroke: #ff0000; stroke-width: 0.24"/>
    <path d="M 202.834394 177.45074 
L 207.20726 177.270003 
L 206.951883 178.156626 
L 224.684329 183.264166 
L 224.428952 184.150789 
L 206.696506 179.043248 
L 206.441129 179.92987 
z
" clip-path="url(#pa5dc4b6741)" style="fill: #ff0000; stroke: #ff0000; stroke-width: 0.24"/>
    <path d="M 206.953882 177.61009 
L 211.330386 177.638941 
L 211.032849 178.512319 
L 228.500398 184.463061 
L 228.202861 185.336438 
L 210.735312 179.385696 
L 210.437775 180.259073 
z
" clip-path="url(#pa5dc4b6741)" style="fill: #ff0000; stroke: #ff0000; stroke-width: 0.24"/>
    <path d="M 211.061089 177.966242 
L 215.431189 178.204658 
L 215.092166 179.062784 
L 232.254681 185.843248 
L 231.915658 186.701373 
L 214.753143 179.920909 
L 214.41412 180.779035 
z
" clip-path="url(#pa5dc4b6741)" style="fill: #ff0000; stroke: #ff0000; stroke-width: 0.24"/>
    <path d="M 215.146532 178.518793 
L 219.5002 178.966226 
L 219.120469 179.807131 
L 235.938562 187.401756 
L 235.558831 188.242661 
L 218.740738 180.648036 
L 218.361007 181.48894 
z
" clip-path="url(#pa5dc4b6741)" style="fill: #ff0000; stroke: #ff0000; stroke-width: 0.24"/>
    <path d="M 219.200903 179.266155 
L 223.528147 179.92158 
L 223.10858 180.743334 
L 239.543655 189.134691 
L 239.124088 189.956445 
L 222.689012 181.565088 
L 222.269444 182.386841 
z
" clip-path="url(#pa5dc4b6741)" style="fill: #ff0000; stroke: #ff0000; stroke-width: 0.24"/>
    <path d="M 223.21458 180.207076 
L 227.505478 181.068944 
L 227.047044 181.869666 
L 243.061477 191.038338 
L 242.603043 191.839059 
L 226.58861 182.670388 
L 226.130177 183.471109 
z
" clip-path="url(#pa5dc4b6741)" style="fill: #ff0000; stroke: #ff0000; stroke-width: 0.24"/>
    <path d="M 227.178714 181.339097 
L 231.423412 182.405475 
L 230.927157 183.183323 
L 246.48411 193.108432 
L 245.987855 193.886279 
L 230.430901 183.961171 
L 229.934646 184.739018 
z
" clip-path="url(#pa5dc4b6741)" style="fill: #ff0000; stroke: #ff0000; stroke-width: 0.24"/>
    <path d="M 231.084168 182.659565 
L 235.272924 183.928005 
L 234.739986 184.681194 
L 249.803759 195.339963 
L 249.27082 196.093151 
L 234.207047 185.434383 
L 233.674109 186.187571 
z
" clip-path="url(#pa5dc4b6741)" style="fill: #ff0000; stroke: #ff0000; stroke-width: 0.24"/>
    <path d="M 234.921988 184.16556 
L 239.04519 185.633151 
L 238.476792 186.359952 
L 253.012813 197.72792 
L 252.444415 198.454721 
L 237.908393 187.086753 
L 237.339995 187.813554 
z
" clip-path="url(#pa5dc4b6741)" style="fill: #ff0000; stroke: #ff0000; stroke-width: 0.24"/>
    <path d="M 238.682977 185.853711 
L 242.73118 187.517044 
L 242.128633 188.215796 
L 256.103664 200.266733 
L 255.501117 200.965485 
L 241.526086 188.914547 
L 240.923539 189.613299 
z
" clip-path="url(#pa5dc4b6741)" style="fill: #ff0000; stroke: #ff0000; stroke-width: 0.24"/>
    <path d="M 242.359018 187.719867 
L 246.322915 189.575167 
L 245.687596 190.24426 
L 259.069451 202.950657 
L 258.434132 203.61975 
L 245.052276 190.913353 
L 244.416956 191.582446 
z
" clip-path="url(#pa5dc4b6741)" style="fill: #ff0000; stroke: #ff0000; stroke-width: 0.24"/>
    <path d="M 244.40468 188.175186 
L 248.275175 190.218195 
L 247.60854 190.856093 
L 260.36651 204.18879 
L 259.699876 204.826688 
L 246.941906 191.493992 
L 246.275271 192.13189 
z
" clip-path="url(#pa5dc4b6741)" style="fill: #ff0000; stroke: #ff0000; stroke-width: 0.24"/>
    <path d="M 242.5241 184.506532 
L 246.292334 186.732524 
L 245.59592 187.337771 
L 257.700864 201.266048 
L 257.004451 201.871295 
L 244.899506 187.943018 
L 244.203092 188.548265 
z
" clip-path="url(#pa5dc4b6741)" style="fill: #ff0000; stroke: #ff0000; stroke-width: 0.24"/>
    <path d="M 240.821466 180.751765 
L 244.478769 183.155669 
L 243.754168 183.72687 
L 255.178174 198.218891 
L 254.453573 198.790091 
L 243.029567 184.29807 
L 242.304966 184.86927 
z
" clip-path="url(#pa5dc4b6741)" style="fill: #ff0000; stroke: #ff0000; stroke-width: 0.24"/>
    <path d="M 239.300605 176.920007 
L 242.838584 179.496307 
L 242.087459 180.03215 
L 252.804309 195.054656 
L 252.053184 195.590499 
L 241.336334 180.567992 
L 240.585208 181.103835 
z
" clip-path="url(#pa5dc4b6741)" style="fill: #ff0000; stroke: #ff0000; stroke-width: 0.24"/>
    <path d="M 237.965065 173.019576 
L 241.375601 175.76236 
L 240.599675 176.261615 
L 250.584775 191.780132 
L 249.80885 192.279387 
L 239.823749 176.76087 
L 239.047823 177.260125 
z
" clip-path="url(#pa5dc4b6741)" style="fill: #ff0000; stroke: #ff0000; stroke-width: 0.24"/>
    <path d="M 236.817759 169.059916 
L 240.093055 171.962856 
L 239.294114 172.424386 
L 248.524709 188.403207 
L 247.725768 188.864737 
L 238.495173 172.885916 
L 237.696232 173.347446 
z
" clip-path="url(#pa5dc4b6741)" style="fill: #ff0000; stroke: #ff0000; stroke-width: 0.24"/>
    <path d="M 235.861383 165.049836 
L 238.993893 168.106304 
L 238.173765 168.529042 
L 246.628516 184.931596 
L 245.808388 185.354333 
L 237.353638 168.951779 
L 236.53351 169.374517 
z
" clip-path="url(#pa5dc4b6741)" style="fill: #ff0000; stroke: #ff0000; stroke-width: 0.24"/>
    <path d="M 235.098361 160.998398 
L 238.080898 164.201381 
L 237.241465 164.584356 
L 244.900969 181.373001 
L 244.061536 181.755976 
L 236.402033 164.967331 
L 235.562601 165.350306 
z
" clip-path="url(#pa5dc4b6741)" style="fill: #ff0000; stroke: #ff0000; stroke-width: 0.24"/>
    <path d="M 234.53015 156.915178 
L 237.355868 160.257324 
L 236.499057 160.599658 
L 243.345735 177.735865 
L 242.488925 178.078199 
L 235.642247 160.941992 
L 234.785437 161.284326 
z
" clip-path="url(#pa5dc4b6741)" style="fill: #ff0000; stroke: #ff0000; stroke-width: 0.24"/>
    <path d="M 234.157756 152.809346 
L 236.820205 156.282958 
L 235.947986 156.583874 
L 241.9663 174.028257 
L 241.094081 174.329172 
L 235.075767 156.88479 
L 234.203548 157.185706 
z
" clip-path="url(#pa5dc4b6741)" style="fill: #ff0000; stroke: #ff0000; stroke-width: 0.24"/>
    <path d="M 233.98278 148.690467 
L 236.475817 152.287603 
L 235.590188 152.546402 
L 240.766156 170.258995 
L 239.880526 170.517793 
L 234.704558 152.8052 
L 233.818928 153.063999 
z
" clip-path="url(#pa5dc4b6741)" style="fill: #ff0000; stroke: #ff0000; stroke-width: 0.24"/>
    <path d="M 234.005229 144.56787 
L 236.323132 148.280274 
L 235.426125 148.496361 
L 239.747868 166.436515 
L 238.85086 166.652602 
L 234.529117 148.712448 
L 233.632109 148.928535 
z
" clip-path="url(#pa5dc4b6741)" style="fill: #ff0000; stroke: #ff0000; stroke-width: 0.24"/>
    <path d="M 234.225098 140.451197 
L 236.362549 144.27035 
L 235.456222 144.443229 
L 238.913822 162.569774 
L 238.007495 162.742653 
L 234.549895 144.616109 
L 233.643568 144.788989 
z
" clip-path="url(#pa5dc4b6741)" style="fill: #ff0000; stroke: #ff0000; stroke-width: 0.24"/>
    <path d="M 234.641582 136.349734 
L 236.593714 140.266851 
L 235.680148 140.396136 
L 238.265853 158.667445 
L 237.352287 158.79673 
L 234.766583 140.525421 
L 233.853017 140.654706 
z
" clip-path="url(#pa5dc4b6741)" style="fill: #ff0000; stroke: #ff0000; stroke-width: 0.24"/>
    <path d="M 235.254335 132.272874 
L 237.016629 136.278987 
L 236.09792 136.364372 
L 237.805614 154.738549 
L 236.886905 154.823933 
L 235.179211 136.449756 
L 234.260502 136.535141 
z
" clip-path="url(#pa5dc4b6741)" style="fill: #ff0000; stroke: #ff0000; stroke-width: 0.24"/>
    <path d="M 236.061589 128.230065 
L 237.630001 132.31598 
L 236.708258 132.357268 
L 237.534022 150.792146 
L 236.612278 150.833434 
L 235.786514 132.398557 
L 234.86477 132.439845 
z
" clip-path="url(#pa5dc4b6741)" style="fill: #ff0000; stroke: #ff0000; stroke-width: 0.24"/>
    <path d="M 237.061418 124.230538 
L 238.43235 128.386878 
L 237.509686 128.383975 
L 237.451626 146.837247 
L 236.528963 146.834344 
L 236.587023 128.381072 
L 235.664359 128.378169 
z
" clip-path="url(#pa5dc4b6741)" style="fill: #ff0000; stroke: #ff0000; stroke-width: 0.24"/>
    <path d="M 238.251482 120.283467 
L 239.421829 124.500683 
L 238.500363 124.453604 
L 237.558795 142.88293 
L 236.637329 142.835851 
L 237.578896 124.406526 
L 236.65743 124.359447 
z
" clip-path="url(#pa5dc4b6741)" style="fill: #ff0000; stroke: #ff0000; stroke-width: 0.24"/>
    <path d="M 239.629564 116.39795 
L 240.596598 120.666377 
L 239.678444 120.575222 
L 237.855346 138.938307 
L 236.937191 138.847152 
L 238.760289 120.484067 
L 237.842135 120.392912 
z
" clip-path="url(#pa5dc4b6741)" style="fill: #ff0000; stroke: #ff0000; stroke-width: 0.24"/>
    <path d="M 241.191852 112.582861 
L 241.953354 116.892703 
L 241.040619 116.75768 
L 238.340174 135.012384 
L 237.427439 134.877361 
L 240.127884 116.622658 
L 239.215149 116.487636 
z
" clip-path="url(#pa5dc4b6741)" style="fill: #ff0000; stroke: #ff0000; stroke-width: 0.24"/>
    <path d="M 241.718041 108.639678 
L 242.497725 112.946268 
L 241.584428 112.815099 
L 238.961041 131.081035 
L 238.047744 130.949866 
L 240.671131 112.683929 
L 239.757834 112.55276 
z
" clip-path="url(#pa5dc4b6741)" style="fill: #ff0000; stroke: #ff0000; stroke-width: 0.24"/>
    <path d="M 241.113855 104.561578 
L 242.098893 108.825886 
L 241.180363 108.738606 
L 239.434773 127.109222 
L 238.516242 127.021942 
L 240.261832 108.651327 
L 239.343301 108.564047 
z
" clip-path="url(#pa5dc4b6741)" style="fill: #ff0000; stroke: #ff0000; stroke-width: 0.24"/>
    <path d="M 240.314876 100.517186 
L 241.503009 104.729426 
L 240.581352 104.686236 
L 239.717565 123.119371 
L 238.795908 123.076182 
L 239.659696 104.643047 
L 238.738039 104.599858 
z
" clip-path="url(#pa5dc4b6741)" style="fill: #ff0000; stroke: #ff0000; stroke-width: 0.24"/>
    <path d="M 239.323215 96.515537 
L 240.711716 100.666041 
L 239.789048 100.667041 
L 239.809045 119.120393 
L 238.886378 119.121393 
L 238.86638 100.668041 
L 237.943713 100.669041 
z
" clip-path="url(#pa5dc4b6741)" style="fill: #ff0000; stroke: #ff0000; stroke-width: 0.24"/>
    <path d="M 239.842578 93.420418 
L 241.143409 97.599228 
L 240.220925 97.580807 
L 239.852504 116.030492 
L 238.930019 116.012071 
L 239.298441 97.562386 
L 238.375957 97.543965 
z
" clip-path="url(#pa5dc4b6741)" style="fill: #ff0000; stroke: #ff0000; stroke-width: 0.24"/>
    <path d="M 239.904396 90.321175 
L 241.205228 94.499986 
L 240.282744 94.481565 
L 239.914322 112.93125 
L 238.991838 112.912828 
L 239.36026 94.463144 
L 238.437775 94.444723 
z
" clip-path="url(#pa5dc4b6741)" style="fill: #ff0000; stroke: #ff0000; stroke-width: 0.24"/>
    <path d="M 239.9664 87.221749 
L 241.267231 91.400559 
L 240.344747 91.382138 
L 239.976326 109.831823 
L 239.053841 109.813402 
L 239.422263 91.363717 
L 238.499779 91.345296 
z
" clip-path="url(#pa5dc4b6741)" style="fill: #ff0000; stroke: #ff0000; stroke-width: 0.24"/>
    <path d="M 240.028218 84.122506 
L 241.32905 88.301317 
L 240.406566 88.282896 
L 240.038144 106.73258 
L 239.11566 106.714159 
L 239.484082 88.264475 
L 238.561597 88.246054 
z
" clip-path="url(#pa5dc4b6741)" style="fill: #ff0000; stroke: #ff0000; stroke-width: 0.24"/>
    <path d="M 240.090037 81.023264 
L 241.390869 85.202075 
L 240.468385 85.183654 
L 240.099963 103.633338 
L 239.177479 103.614917 
L 239.5459 85.165233 
L 238.623416 85.146812 
z
" clip-path="url(#pa5dc4b6741)" style="fill: #ff0000; stroke: #ff0000; stroke-width: 0.24"/>
    <path d="M 240.152041 77.923837 
L 241.452872 82.102648 
L 240.530388 82.084227 
L 240.161966 100.533911 
L 239.239482 100.51549 
L 239.607904 82.065806 
L 238.685419 82.047385 
z
" clip-path="url(#pa5dc4b6741)" style="fill: #ff0000; stroke: #ff0000; stroke-width: 0.24"/>
    <path d="M 240.213859 74.824595 
L 241.514691 79.003406 
L 240.592207 78.984985 
L 240.223785 97.434669 
L 239.301301 97.416248 
L 239.669722 78.966564 
L 238.747238 78.948142 
z
" clip-path="url(#pa5dc4b6741)" style="fill: #ff0000; stroke: #ff0000; stroke-width: 0.24"/>
    <path d="M 240.275678 71.725168 
L 241.57651 75.903979 
L 240.654025 75.885558 
L 240.285604 94.335242 
L 239.36312 94.316821 
L 239.731541 75.867137 
L 238.809057 75.848716 
z
" clip-path="url(#pa5dc4b6741)" style="fill: #ff0000; stroke: #ff0000; stroke-width: 0.24"/>
    <path d="M 240.337681 68.625926 
L 241.638513 72.804737 
L 240.716029 72.786316 
L 240.347607 91.236 
L 239.425123 91.217579 
L 239.793544 72.767894 
L 238.87106 72.749473 
z
" clip-path="url(#pa5dc4b6741)" style="fill: #ff0000; stroke: #ff0000; stroke-width: 0.24"/>
    <path d="M 240.3995 65.526499 
L 241.700332 69.70531 
L 240.777847 69.686889 
L 240.409426 88.136573 
L 239.486942 88.118152 
L 239.855363 69.668468 
L 238.932879 69.650047 
z
" clip-path="url(#pa5dc4b6741)" style="fill: #ff0000; stroke: #ff0000; stroke-width: 0.24"/>
    <path d="M 240.461319 62.427257 
L 241.76215 66.606068 
L 240.839666 66.587646 
L 240.471245 85.037331 
L 239.548761 85.01891 
L 239.917182 66.569225 
L 238.994698 66.550804 
z
" clip-path="url(#pa5dc4b6741)" style="fill: #ff0000; stroke: #ff0000; stroke-width: 0.24"/>
    <path d="M 240.523322 59.328015 
L 241.824154 63.506825 
L 240.90167 63.488404 
L 240.533248 81.938089 
L 239.610764 81.919668 
L 239.979185 63.469983 
L 239.056701 63.451562 
z
" clip-path="url(#pa5dc4b6741)" style="fill: #ff0000; stroke: #ff0000; stroke-width: 0.24"/>
    <path d="M 240.585141 56.228588 
L 241.885973 60.407398 
L 240.963488 60.388977 
L 240.595067 78.838662 
L 239.672583 78.820241 
L 240.041004 60.370556 
L 239.11852 60.352135 
z
" clip-path="url(#pa5dc4b6741)" style="fill: #ff0000; stroke: #ff0000; stroke-width: 0.24"/>
    <path d="M 240.64696 53.129346 
L 241.947791 57.308156 
L 241.025307 57.289735 
L 240.656886 75.73942 
L 239.734401 75.720999 
L 240.102823 57.271314 
L 239.180339 57.252893 
z
" clip-path="url(#pa5dc4b6741)" style="fill: #ff0000; stroke: #ff0000; stroke-width: 0.24"/>
    <path d="M 240.708963 50.029919 
L 242.009795 54.208729 
L 241.08731 54.190308 
L 240.718889 72.639993 
L 239.796405 72.621572 
L 240.164826 54.171887 
L 239.242342 54.153466 
z
" clip-path="url(#pa5dc4b6741)" style="fill: #ff0000; stroke: #ff0000; stroke-width: 0.24"/>
    <path d="M 240.770782 46.930677 
L 242.071613 51.109487 
L 241.149129 51.091066 
L 240.780708 69.540751 
L 239.858223 69.52233 
L 240.226645 51.072645 
L 239.304161 51.054224 
z
" clip-path="url(#pa5dc4b6741)" style="fill: #ff0000; stroke: #ff0000; stroke-width: 0.24"/>
    <path d="M 240.832601 43.831434 
L 242.133432 48.010245 
L 241.210948 47.991824 
L 240.842526 66.441508 
L 239.920042 66.423087 
L 240.288464 47.973403 
L 239.365979 47.954982 
z
" clip-path="url(#pa5dc4b6741)" style="fill: #ff0000; stroke: #ff0000; stroke-width: 0.24"/>
    <path d="M 240.426597 40.727317 
L 241.810614 44.879319 
L 240.887946 44.879322 
L 240.888014 63.332685 
L 239.965346 63.332688 
L 239.965278 44.879326 
L 239.04261 44.879329 
z
" clip-path="url(#pa5dc4b6741)" style="fill: #ff0000; stroke: #ff0000; stroke-width: 0.24"/>
   </g>
   <g id="matplotlib.axis_1">
    <g id="xtick_1">
     <g id="line2d_1">
      <defs>
       <path id="me8cc8fc7c6" d="M 0 0 
L 0 -3 
" style="stroke: #000000"/>
      </defs>
      <g>
       <use xlink:href="#me8cc8fc7c6" x="143.546526" y="290.32" style="stroke: #000000"/>
      </g>
     </g>
     <g id="text_1">
      <!-- −4 -->
      <g transform="translate(135.806877 303.898359) scale(0.105 -0.105)">
       <defs>
        <path id="DejaVuSans-2212" d="M 678 2272 
L 4684 2272 
L 4684 1741 
L 678 1741 
L 678 2272 
z
" transform="scale(0.015625)"/>
        <path id="DejaVuSans-34" d="M 2419 4116 
L 825 1625 
L 2419 1625 
L 2419 4116 
z
M 2253 4666 
L 3047 4666 
L 3047 1625 
L 3713 1625 
L 3713 1100 
L 3047 1100 
L 3047 0 
L 2419 0 
L 2419 1100 
L 313 1100 
L 313 1709 
L 2253 4666 
z
" transform="scale(0.015625)"/>
       </defs>
       <use xlink:href="#DejaVuSans-2212"/>
       <use xlink:href="#DejaVuSans-34" x="83.789062"/>
      </g>
     </g>
    </g>
    <g id="xtick_2">
     <g id="line2d_2">
      <g>
       <use xlink:href="#me8cc8fc7c6" x="180.453251" y="290.32" style="stroke: #000000"/>
      </g>
     </g>
     <g id="text_2">
      <!-- −2 -->
      <g transform="translate(172.713602 303.898359) scale(0.105 -0.105)">
       <defs>
        <path id="DejaVuSans-32" d="M 1228 531 
L 3431 531 
L 3431 0 
L 469 0 
L 469 531 
Q 828 903 1448 1529 
Q 2069 2156 2228 2338 
Q 2531 2678 2651 2914 
Q 2772 3150 2772 3378 
Q 2772 3750 2511 3984 
Q 2250 4219 1831 4219 
Q 1534 4219 1204 4116 
Q 875 4013 500 3803 
L 500 4441 
Q 881 4594 1212 4672 
Q 1544 4750 1819 4750 
Q 2544 4750 2975 4387 
Q 3406 4025 3406 3419 
Q 3406 3131 3298 2873 
Q 3191 2616 2906 2266 
Q 2828 2175 2409 1742 
Q 1991 1309 1228 531 
z
" transform="scale(0.015625)"/>
       </defs>
       <use xlink:href="#DejaVuSans-2212"/>
       <use xlink:href="#DejaVuSans-32" x="83.789062"/>
      </g>
     </g>
    </g>
    <g id="xtick_3">
     <g id="line2d_3">
      <g>
       <use xlink:href="#me8cc8fc7c6" x="217.359976" y="290.32" style="stroke: #000000"/>
      </g>
     </g>
     <g id="text_3">
      <!-- 0 -->
      <g transform="translate(214.019664 303.898359) scale(0.105 -0.105)">
       <defs>
        <path id="DejaVuSans-30" d="M 2034 4250 
Q 1547 4250 1301 3770 
Q 1056 3291 1056 2328 
Q 1056 1369 1301 889 
Q 1547 409 2034 409 
Q 2525 409 2770 889 
Q 3016 1369 3016 2328 
Q 3016 3291 2770 3770 
Q 2525 4250 2034 4250 
z
M 2034 4750 
Q 2819 4750 3233 4129 
Q 3647 3509 3647 2328 
Q 3647 1150 3233 529 
Q 2819 -91 2034 -91 
Q 1250 -91 836 529 
Q 422 1150 422 2328 
Q 422 3509 836 4129 
Q 1250 4750 2034 4750 
z
" transform="scale(0.015625)"/>
       </defs>
       <use xlink:href="#DejaVuSans-30"/>
      </g>
     </g>
    </g>
    <g id="xtick_4">
     <g id="line2d_4">
      <g>
       <use xlink:href="#me8cc8fc7c6" x="254.266702" y="290.32" style="stroke: #000000"/>
      </g>
     </g>
     <g id="text_4">
      <!-- 2 -->
      <g transform="translate(250.926389 303.898359) scale(0.105 -0.105)">
       <use xlink:href="#DejaVuSans-32"/>
      </g>
     </g>
    </g>
    <g id="xtick_5">
     <g id="line2d_5">
      <g>
       <use xlink:href="#me8cc8fc7c6" x="291.173427" y="290.32" style="stroke: #000000"/>
      </g>
     </g>
     <g id="text_5">
      <!-- 4 -->
      <g transform="translate(287.833115 303.898359) scale(0.105 -0.105)">
       <use xlink:href="#DejaVuSans-34"/>
      </g>
     </g>
    </g>
    <g id="xtick_6">
     <g id="line2d_6">
      <g>
       <use xlink:href="#me8cc8fc7c6" x="328.080152" y="290.32" style="stroke: #000000"/>
      </g>
     </g>
     <g id="text_6">
      <!-- 6 -->
      <g transform="translate(324.73984 303.898359) scale(0.105 -0.105)">
       <defs>
        <path id="DejaVuSans-36" d="M 2113 2584 
Q 1688 2584 1439 2293 
Q 1191 2003 1191 1497 
Q 1191 994 1439 701 
Q 1688 409 2113 409 
Q 2538 409 2786 701 
Q 3034 994 3034 1497 
Q 3034 2003 2786 2293 
Q 2538 2584 2113 2584 
z
M 3366 4563 
L 3366 3988 
Q 3128 4100 2886 4159 
Q 2644 4219 2406 4219 
Q 1781 4219 1451 3797 
Q 1122 3375 1075 2522 
Q 1259 2794 1537 2939 
Q 1816 3084 2150 3084 
Q 2853 3084 3261 2657 
Q 3669 2231 3669 1497 
Q 3669 778 3244 343 
Q 2819 -91 2113 -91 
Q 1303 -91 875 529 
Q 447 1150 447 2328 
Q 447 3434 972 4092 
Q 1497 4750 2381 4750 
Q 2619 4750 2861 4703 
Q 3103 4656 3366 4563 
z
" transform="scale(0.015625)"/>
       </defs>
       <use xlink:href="#DejaVuSans-36"/>
      </g>
     </g>
    </g>
   </g>
   <g id="matplotlib.axis_2">
    <g id="ytick_1">
     <g id="line2d_7">
      <defs>
       <path id="m114a2a8f5d" d="M 0 0 
L 3 0 
" style="stroke: #000000"/>
      </defs>
      <g>
       <use xlink:href="#m114a2a8f5d" x="130.293971" y="255.533686" style="stroke: #000000"/>
      </g>
     </g>
     <g id="text_7">
      <!-- −6 -->
      <g transform="translate(109.214674 259.522865) scale(0.105 -0.105)">
       <use xlink:href="#DejaVuSans-2212"/>
       <use xlink:href="#DejaVuSans-36" x="83.789062"/>
      </g>
     </g>
    </g>
    <g id="ytick_2">
     <g id="line2d_8">
      <g>
       <use xlink:href="#m114a2a8f5d" x="130.293971" y="218.62696" style="stroke: #000000"/>
      </g>
     </g>
     <g id="text_8">
      <!-- −4 -->
      <g transform="translate(109.214674 222.61614) scale(0.105 -0.105)">
       <use xlink:href="#DejaVuSans-2212"/>
       <use xlink:href="#DejaVuSans-34" x="83.789062"/>
      </g>
     </g>
    </g>
    <g id="ytick_3">
     <g id="line2d_9">
      <g>
       <use xlink:href="#m114a2a8f5d" x="130.293971" y="181.720235" style="stroke: #000000"/>
      </g>
     </g>
     <g id="text_9">
      <!-- −2 -->
      <g transform="translate(109.214674 185.709415) scale(0.105 -0.105)">
       <use xlink:href="#DejaVuSans-2212"/>
       <use xlink:href="#DejaVuSans-32" x="83.789062"/>
      </g>
     </g>
    </g>
    <g id="ytick_4">
     <g id="line2d_10">
      <g>
       <use xlink:href="#m114a2a8f5d" x="130.293971" y="144.813509" style="stroke: #000000"/>
      </g>
     </g>
     <g id="text_10">
      <!-- 0 -->
      <g transform="translate(118.013346 148.802689) scale(0.105 -0.105)">
       <use xlink:href="#DejaVuSans-30"/>
      </g>
     </g>
    </g>
    <g id="ytick_5">
     <g id="line2d_11">
      <g>
       <use xlink:href="#m114a2a8f5d" x="130.293971" y="107.906784" style="stroke: #000000"/>
      </g>
     </g>
     <g id="text_11">
      <!-- 2 -->
      <g transform="translate(118.013346 111.895964) scale(0.105 -0.105)">
       <use xlink:href="#DejaVuSans-32"/>
      </g>
     </g>
    </g>
    <g id="ytick_6">
     <g id="line2d_12">
      <g>
       <use xlink:href="#m114a2a8f5d" x="130.293971" y="71.000059" style="stroke: #000000"/>
      </g>
     </g>
     <g id="text_12">
      <!-- 4 -->
      <g transform="translate(118.013346 74.989238) scale(0.105 -0.105)">
       <use xlink:href="#DejaVuSans-34"/>
      </g>
     </g>
    </g>
    <g id="ytick_7">
     <g id="line2d_13">
      <g>
       <use xlink:href="#m114a2a8f5d" x="130.293971" y="34.093333" style="stroke: #000000"/>
      </g>
     </g>
     <g id="text_13">
      <!-- 6 -->
      <g transform="translate(118.013346 38.082513) scale(0.105 -0.105)">
       <use xlink:href="#DejaVuSans-36"/>
      </g>
     </g>
    </g>
   </g>
   <g id="patch_3">
    <path d="M 130.293971 290.32 
L 130.293971 10.8 
" style="fill: none; stroke: #000000; stroke-width: 0.8; stroke-linejoin: miter; stroke-linecap: square"/>
   </g>
   <g id="patch_4">
    <path d="M 330.506029 290.32 
L 330.506029 10.8 
" style="fill: none; stroke: #000000; stroke-width: 0.8; stroke-linejoin: miter; stroke-linecap: square"/>
   </g>
   <g id="patch_5">
    <path d="M 130.293971 290.32 
L 330.506029 290.32 
" style="fill: none; stroke: #000000; stroke-width: 0.8; stroke-linejoin: miter; stroke-linecap: square"/>
   </g>
   <g id="patch_6">
    <path d="M 130.293971 10.8 
L 330.506029 10.8 
" style="fill: none; stroke: #000000; stroke-width: 0.8; stroke-linejoin: miter; stroke-linecap: square"/>
   </g>
  </g>
 </g>
 <defs>
  <clipPath id="pa5dc4b6741">
   <rect x="130.293971" y="10.8" width="200.212058" height="279.52"/>
  </clipPath>
 </defs>
</svg>
