<?xml version="1.0" encoding="utf-8" standalone="no"?>
<!DOCTYPE svg PUBLIC "-//W3C//DTD SVG 1.1//EN"
  "http://www.w3.org/Graphics/SVG/1.1/DTD/svg11.dtd">
<svg xmlns:xlink="http://www.w3.org/1999/xlink" width="460.8pt" height="316.8pt" viewBox="0 0 460.8 316.8" xmlns="http://www.w3.org/2000/svg" version="1.1">
 <metadata>
  <rdf:RDF xmlns:dc="http://purl.org/dc/elements/1.1/" xmlns:cc="http://creativecommons.org/ns#" xmlns:rdf="http://www.w3.org/1999/02/22-rdf-syntax-ns#">
   <cc:Work>
    <dc:type rdf:resource="http://purl.org/dc/dcmitype/StillImage"/>
    <dc:date>2024-01-11T15:54:19.258784</dc:date>
    <dc:format>image/svg+xml</dc:format>
    <dc:creator>
     <cc:Agent>
      <dc:title>Matplotlib v3.7.2, https://matplotlib.org/</dc:title>
     </cc:Agent>
    </dc:creator>
   </cc:Work>
  </rdf:RDF>
 </metadata>
 <defs>
  <style type="text/css">*{stroke-linejoin: round; stroke-linecap: butt}</style>
 </defs>
 <g id="figure_1">
  <g id="patch_1">
   <path d="M 0 316.8 
L 460.8 316.8 
L 460.8 0 
L 0 0 
z
" style="fill: #ffffff"/>
  </g>
  <g id="axes_1">
   <g id="patch_2">
    <path d="M 53.213959 290.32 
L 407.586041 290.32 
L 407.586041 10.8 
L 53.213959 10.8 
z
" style="fill: #ffffff"/>
   </g>
   <g id="PatchCollection_1">
    <path d="M 207.352453 228.494628 
L 301.89401 228.494628 
L 301.89401 189.102313 
L 207.352453 189.102313 
z
" clip-path="url(#p788c1a665b)" style="fill: #ffffff; stroke: #0000ff; stroke-width: 3"/>
    <path d="M 108.083819 223.76755 
L 177.512282 198.497656 
L 167.046482 169.743109 
L 97.61802 195.013002 
z
" clip-path="url(#p788c1a665b)" style="fill: #ff0000; stroke: #ff0000; stroke-width: 2"/>
    <path d="M 314.499551 244.251554 
L 371.098152 196.759689 
L 351.428883 173.318767 
L 294.830282 220.810632 
z
" clip-path="url(#p788c1a665b)" style="fill: #ff0000; stroke: #ff0000; stroke-width: 2"/>
    <path d="M 238.866306 171.769694 
L 275.808419 107.784077 
L 249.308084 92.484102 
L 212.365971 156.469719 
z
" clip-path="url(#p788c1a665b)" style="fill: #ff0000; stroke: #ff0000; stroke-width: 2"/>
    <path d="M 183.717064 263.159865 
L 257.500035 267.026667 
L 259.101513 236.468652 
L 185.318542 232.601851 
z
" clip-path="url(#p788c1a665b)" style="fill: #ff0000; stroke: #ff0000; stroke-width: 2"/>
   </g>
   <g id="PatchCollection_2">
    <path d="M 69.321781 125.617657 
L 143.206007 125.617657 
L 143.206007 95.017707 
L 69.321781 95.017707 
L 69.321781 125.617657 
z
" clip-path="url(#p788c1a665b)" style="fill: none; stroke: #000000; stroke-width: 0.5"/>
    <path d="M 76.237469 129.982683 
L 149.895888 124.210669 
L 147.505346 93.704239 
L 73.846927 99.476253 
L 76.237469 129.982683 
z
" clip-path="url(#p788c1a665b)" style="fill: none; stroke: #000000; stroke-width: 0.5"/>
    <path d="M 83.473 133.79396 
L 156.455381 122.285227 
L 151.688915 92.058786 
L 78.706534 103.567519 
L 83.473 133.79396 
z
" clip-path="url(#p788c1a665b)" style="fill: none; stroke: #000000; stroke-width: 0.5"/>
    <path d="M 90.984244 137.028497 
L 162.844486 119.853384 
L 155.731228 90.091689 
L 83.870985 107.266801 
L 90.984244 137.028497 
z
" clip-path="url(#p788c1a665b)" style="fill: none; stroke: #000000; stroke-width: 0.5"/>
    <path d="M 98.725121 139.666237 
L 169.023983 116.929727 
L 159.607411 87.814694 
L 89.308549 110.551204 
L 98.725121 139.666237 
z
" clip-path="url(#p788c1a665b)" style="fill: none; stroke: #000000; stroke-width: 0.5"/>
    <path d="M 106.648479 141.691196 
L 174.956264 113.532264 
L 163.293938 85.241857 
L 94.986153 113.400789 
L 106.648479 141.691196 
z
" clip-path="url(#p788c1a665b)" style="fill: none; stroke: #000000; stroke-width: 0.5"/>
    <path d="M 112.45443 140.426789 
L 180.207651 110.958501 
L 168.003041 82.897773 
L 100.24982 112.366061 
L 112.45443 140.426789 
z
" clip-path="url(#p788c1a665b)" style="fill: none; stroke: #000000; stroke-width: 0.5"/>
    <path d="M 117.539348 138.215147 
L 185.292568 108.746859 
L 173.087959 80.686131 
L 105.334738 110.154418 
L 117.539348 138.215147 
z
" clip-path="url(#p788c1a665b)" style="fill: none; stroke: #000000; stroke-width: 0.5"/>
    <path d="M 122.624108 136.003662 
L 190.377329 106.535375 
L 178.172719 78.474646 
L 110.419498 107.942934 
L 122.624108 136.003662 
z
" clip-path="url(#p788c1a665b)" style="fill: none; stroke: #000000; stroke-width: 0.5"/>
    <path d="M 127.709025 133.79202 
L 195.462246 104.323732 
L 183.257637 76.263004 
L 115.504416 105.731292 
L 127.709025 133.79202 
z
" clip-path="url(#p788c1a665b)" style="fill: none; stroke: #000000; stroke-width: 0.5"/>
    <path d="M 132.793943 131.580378 
L 200.547164 102.11209 
L 188.342554 74.051362 
L 120.589333 103.51965 
L 132.793943 131.580378 
z
" clip-path="url(#p788c1a665b)" style="fill: none; stroke: #000000; stroke-width: 0.5"/>
    <path d="M 137.878861 129.368736 
L 205.632081 99.900448 
L 193.427472 71.83972 
L 125.674251 101.308007 
L 137.878861 129.368736 
z
" clip-path="url(#p788c1a665b)" style="fill: none; stroke: #000000; stroke-width: 0.5"/>
    <path d="M 142.963621 127.157251 
L 210.716841 97.688964 
L 198.512232 69.628235 
L 130.759011 99.096523 
L 142.963621 127.157251 
z
" clip-path="url(#p788c1a665b)" style="fill: none; stroke: #000000; stroke-width: 0.5"/>
    <path d="M 148.048554 124.945609 
L 215.801775 95.477321 
L 203.597165 67.416593 
L 135.843944 96.884881 
L 148.048554 124.945609 
z
" clip-path="url(#p788c1a665b)" style="fill: none; stroke: #000000; stroke-width: 0.5"/>
    <path d="M 153.133424 122.733967 
L 220.886645 93.265679 
L 208.682035 65.204951 
L 140.928815 94.673239 
L 153.133424 122.733967 
z
" clip-path="url(#p788c1a665b)" style="fill: none; stroke: #000000; stroke-width: 0.5"/>
    <path d="M 158.218307 120.522482 
L 225.971528 91.054195 
L 213.766918 62.993466 
L 146.013698 92.461754 
L 158.218307 120.522482 
z
" clip-path="url(#p788c1a665b)" style="fill: none; stroke: #000000; stroke-width: 0.5"/>
    <path d="M 163.303181 118.31084 
L 231.056402 88.842553 
L 218.851792 60.781824 
L 151.098571 90.250112 
L 163.303181 118.31084 
z
" clip-path="url(#p788c1a665b)" style="fill: none; stroke: #000000; stroke-width: 0.5"/>
    <path d="M 168.388067 116.099198 
L 236.141288 86.63091 
L 223.936678 58.570182 
L 156.183457 88.03847 
L 168.388067 116.099198 
z
" clip-path="url(#p788c1a665b)" style="fill: none; stroke: #000000; stroke-width: 0.5"/>
    <path d="M 173.472937 113.887713 
L 241.226158 84.419426 
L 229.021548 56.358698 
L 161.268328 85.826985 
L 173.472937 113.887713 
z
" clip-path="url(#p788c1a665b)" style="fill: none; stroke: #000000; stroke-width: 0.5"/>
    <path d="M 178.557886 111.676071 
L 246.311107 82.207784 
L 234.106497 54.147055 
L 166.353277 83.615343 
L 178.557886 111.676071 
z
" clip-path="url(#p788c1a665b)" style="fill: none; stroke: #000000; stroke-width: 0.5"/>
    <path d="M 181.323465 106.346163 
L 250.871846 81.408205 
L 240.543521 52.603993 
L 170.995141 77.54195 
L 181.323465 106.346163 
z
" clip-path="url(#p788c1a665b)" style="fill: none; stroke: #000000; stroke-width: 0.5"/>
    <path d="M 184.078169 100.621666 
L 255.362205 81.193205 
L 247.315698 51.670152 
L 176.031662 71.098613 
L 184.078169 100.621666 
z
" clip-path="url(#p788c1a665b)" style="fill: none; stroke: #000000; stroke-width: 0.5"/>
    <path d="M 187.271753 95.129745 
L 259.855726 81.329536 
L 254.14022 51.268099 
L 181.556248 65.068309 
L 187.271753 95.129745 
z
" clip-path="url(#p788c1a665b)" style="fill: none; stroke: #000000; stroke-width: 0.5"/>
    <path d="M 190.884468 89.905322 
L 264.324712 81.817717 
L 260.975144 51.401646 
L 187.534899 59.489251 
L 190.884468 89.905322 
z
" clip-path="url(#p788c1a665b)" style="fill: none; stroke: #000000; stroke-width: 0.5"/>
    <path d="M 194.89433 84.978446 
L 268.741948 82.652903 
L 267.778799 52.068114 
L 193.931181 54.393657 
L 194.89433 84.978446 
z
" clip-path="url(#p788c1a665b)" style="fill: none; stroke: #000000; stroke-width: 0.5"/>
    <path d="M 199.27692 80.380024 
L 273.080521 83.830743 
L 274.509673 53.264185 
L 200.706073 49.813466 
L 199.27692 80.380024 
z
" clip-path="url(#p788c1a665b)" style="fill: none; stroke: #000000; stroke-width: 0.5"/>
    <path d="M 204.005449 76.136808 
L 277.313906 85.342732 
L 281.126639 54.981243 
L 207.818183 45.775318 
L 204.005449 76.136808 
z
" clip-path="url(#p788c1a665b)" style="fill: none; stroke: #000000; stroke-width: 0.5"/>
    <path d="M 209.050908 72.277697 
L 281.41613 87.182513 
L 287.58912 57.211675 
L 215.223898 42.306859 
L 209.050908 72.277697 
z
" clip-path="url(#p788c1a665b)" style="fill: none; stroke: #000000; stroke-width: 0.5"/>
    <path d="M 214.382474 68.823905 
L 285.362133 89.336508 
L 293.857649 59.939515 
L 222.877989 39.426913 
L 214.382474 68.823905 
z
" clip-path="url(#p788c1a665b)" style="fill: none; stroke: #000000; stroke-width: 0.5"/>
    <path d="M 219.967522 65.796321 
L 289.12776 91.791328 
L 299.893873 63.147868 
L 230.733635 37.152861 
L 219.967522 65.796321 
z
" clip-path="url(#p788c1a665b)" style="fill: none; stroke: #000000; stroke-width: 0.5"/>
    <path d="M 225.77193 63.21498 
L 292.690009 94.533498 
L 305.660912 66.818653 
L 238.742833 35.500134 
L 225.77193 63.21498 
z
" clip-path="url(#p788c1a665b)" style="fill: none; stroke: #000000; stroke-width: 0.5"/>
    <path d="M 231.760406 61.095103 
L 296.027294 97.545701 
L 311.123702 70.928875 
L 246.856815 34.478278 
L 231.760406 61.095103 
z
" clip-path="url(#p788c1a665b)" style="fill: none; stroke: #000000; stroke-width: 0.5"/>
    <path d="M 237.89604 59.449446 
L 299.118908 100.80932 
L 316.248547 75.453208 
L 255.025678 34.093333 
L 237.89604 59.449446 
z
" clip-path="url(#p788c1a665b)" style="fill: none; stroke: #000000; stroke-width: 0.5"/>
    <path d="M 244.141605 58.288117 
L 301.946234 104.304459 
L 321.004399 80.364047 
L 263.19977 34.347705 
L 244.141605 58.288117 
z
" clip-path="url(#p788c1a665b)" style="fill: none; stroke: #000000; stroke-width: 0.5"/>
    <path d="M 250.458825 57.618255 
L 304.491888 108.009793 
L 325.362087 85.631416 
L 271.329025 35.239879 
L 250.458825 57.618255 
z
" clip-path="url(#p788c1a665b)" style="fill: none; stroke: #000000; stroke-width: 0.5"/>
    <path d="M 256.80891 57.44402 
L 306.740132 111.902738 
L 329.294799 91.223183 
L 279.363577 36.764465 
L 256.80891 57.44402 
z
" clip-path="url(#p788c1a665b)" style="fill: none; stroke: #000000; stroke-width: 0.5"/>
    <path d="M 263.153463 57.766224 
L 308.677585 115.959292 
L 332.778873 97.104985 
L 287.254751 38.911917 
L 263.153463 57.766224 
z
" clip-path="url(#p788c1a665b)" style="fill: none; stroke: #000000; stroke-width: 0.5"/>
    <path d="M 269.453165 58.583322 
L 310.291978 120.15499 
L 335.792549 103.241154 
L 294.953736 41.669486 
L 269.453165 58.583322 
z
" clip-path="url(#p788c1a665b)" style="fill: none; stroke: #000000; stroke-width: 0.5"/>
    <path d="M 275.670023 59.88998 
L 311.573837 124.463929 
L 338.317836 109.593977 
L 302.414022 45.020027 
L 275.670023 59.88998 
z
" clip-path="url(#p788c1a665b)" style="fill: none; stroke: #000000; stroke-width: 0.5"/>
    <path d="M 281.765506 61.678331 
L 312.515058 128.859756 
L 340.338971 116.124497 
L 309.589419 48.943071 
L 281.765506 61.678331 
z
" clip-path="url(#p788c1a665b)" style="fill: none; stroke: #000000; stroke-width: 0.5"/>
    <path d="M 281.252962 64.911956 
L 314.089889 131.098172 
L 341.501625 117.498404 
L 308.664699 51.312188 
L 281.252962 64.911956 
z
" clip-path="url(#p788c1a665b)" style="fill: none; stroke: #000000; stroke-width: 0.5"/>
    <path d="M 280.841722 68.160028 
L 315.733855 133.286197 
L 342.706562 118.835243 
L 307.814429 53.709074 
L 280.841722 68.160028 
z
" clip-path="url(#p788c1a665b)" style="fill: none; stroke: #000000; stroke-width: 0.5"/>
    <path d="M 280.532554 71.419247 
L 317.445713 135.421572 
L 343.952967 120.133588 
L 307.039808 56.131264 
L 280.532554 71.419247 
z
" clip-path="url(#p788c1a665b)" style="fill: none; stroke: #000000; stroke-width: 0.5"/>
    <path d="M 280.325399 74.686589 
L 319.223424 137.502372 
L 345.239259 121.392335 
L 306.341234 58.576552 
L 280.325399 74.686589 
z
" clip-path="url(#p788c1a665b)" style="fill: none; stroke: #000000; stroke-width: 0.5"/>
    <path d="M 280.22035 77.959122 
L 321.06532 139.526705 
L 346.5642 122.61032 
L 305.71923 61.042736 
L 280.22035 77.959122 
z
" clip-path="url(#p788c1a665b)" style="fill: none; stroke: #000000; stroke-width: 0.5"/>
    <path d="M 280.217949 81.233041 
L 322.969724 141.492187 
L 347.9267 123.786078 
L 305.174925 63.526932 
L 280.217949 81.233041 
z
" clip-path="url(#p788c1a665b)" style="fill: none; stroke: #000000; stroke-width: 0.5"/>
    <path d="M 280.318083 84.505603 
L 324.934779 143.397277 
L 349.325402 124.91879 
L 304.708705 66.027116 
L 280.318083 84.505603 
z
" clip-path="url(#p788c1a665b)" style="fill: none; stroke: #000000; stroke-width: 0.5"/>
    <path d="M 280.520556 87.773258 
L 326.958408 145.239811 
L 350.758802 126.007073 
L 304.32095 68.54052 
L 280.520556 87.773258 
z
" clip-path="url(#p788c1a665b)" style="fill: none; stroke: #000000; stroke-width: 0.5"/>
    <path d="M 280.825177 91.033037 
L 329.038749 147.018127 
L 352.225579 127.049956 
L 304.012007 71.064865 
L 280.825177 91.033037 
z
" clip-path="url(#p788c1a665b)" style="fill: none; stroke: #000000; stroke-width: 0.5"/>
    <path d="M 281.231659 94.281635 
L 331.173718 148.730416 
L 353.724268 128.046373 
L 303.78221 73.597592 
L 281.231659 94.281635 
z
" clip-path="url(#p788c1a665b)" style="fill: none; stroke: #000000; stroke-width: 0.5"/>
    <path d="M 281.739631 97.516078 
L 333.361249 150.375206 
L 355.253428 128.995556 
L 303.63181 76.136427 
L 281.739631 97.516078 
z
" clip-path="url(#p788c1a665b)" style="fill: none; stroke: #000000; stroke-width: 0.5"/>
    <path d="M 282.348513 100.732884 
L 335.599118 151.950575 
L 356.811479 129.896262 
L 303.560874 78.67857 
L 282.348513 100.732884 
z
" clip-path="url(#p788c1a665b)" style="fill: none; stroke: #000000; stroke-width: 0.5"/>
    <path d="M 283.057863 103.929118 
L 337.885238 153.455252 
L 358.397021 130.747902 
L 303.569646 81.221769 
L 283.057863 103.929118 
z
" clip-path="url(#p788c1a665b)" style="fill: none; stroke: #000000; stroke-width: 0.5"/>
    <path d="M 283.866942 107.101665 
L 340.217425 154.887667 
L 360.008514 131.549506 
L 303.658031 83.763504 
L 283.866942 107.101665 
z
" clip-path="url(#p788c1a665b)" style="fill: none; stroke: #000000; stroke-width: 0.5"/>
    <path d="M 284.774733 110.247218 
L 342.593118 156.246275 
L 361.644124 132.300166 
L 303.825739 86.301109 
L 284.774733 110.247218 
z
" clip-path="url(#p788c1a665b)" style="fill: none; stroke: #000000; stroke-width: 0.5"/>
    <path d="M 285.780607 113.362816 
L 345.010253 157.529863 
L 363.302512 132.999265 
L 304.072867 88.832219 
L 285.780607 113.362816 
z
" clip-path="url(#p788c1a665b)" style="fill: none; stroke: #000000; stroke-width: 0.5"/>
    <path d="M 286.883591 116.445416 
L 347.466429 158.737244 
L 364.982046 133.646207 
L 304.399209 91.354379 
L 286.883591 116.445416 
z
" clip-path="url(#p788c1a665b)" style="fill: none; stroke: #000000; stroke-width: 0.5"/>
    <path d="M 288.082274 119.492122 
L 349.958996 159.86724 
L 366.680788 134.240328 
L 304.804066 93.865209 
L 288.082274 119.492122 
z
" clip-path="url(#p788c1a665b)" style="fill: none; stroke: #000000; stroke-width: 0.5"/>
    <path d="M 289.375889 122.499693 
L 352.485877 160.918547 
L 368.39746 134.780864 
L 305.287472 96.36201 
L 289.375889 122.499693 
z
" clip-path="url(#p788c1a665b)" style="fill: none; stroke: #000000; stroke-width: 0.5"/>
    <path d="M 290.762959 125.465395 
L 355.044385 161.890347 
L 370.130172 135.2675 
L 305.848746 98.842548 
L 290.762959 125.465395 
z
" clip-path="url(#p788c1a665b)" style="fill: none; stroke: #000000; stroke-width: 0.5"/>
    <path d="M 292.242123 128.386105 
L 357.631978 162.781536 
L 371.877218 135.699621 
L 306.487362 101.30419 
L 292.242123 128.386105 
z
" clip-path="url(#p788c1a665b)" style="fill: none; stroke: #000000; stroke-width: 0.5"/>
    <path d="M 293.812076 131.259177 
L 360.246337 163.591326 
L 373.637046 136.076859 
L 307.202785 103.74471 
L 293.812076 131.259177 
z
" clip-path="url(#p788c1a665b)" style="fill: none; stroke: #000000; stroke-width: 0.5"/>
    <path d="M 295.471032 134.081773 
L 362.884614 164.318965 
L 375.407674 136.398902 
L 307.994092 106.161709 
L 295.471032 134.081773 
z
" clip-path="url(#p788c1a665b)" style="fill: none; stroke: #000000; stroke-width: 0.5"/>
    <path d="M 297.2176 136.850946 
L 365.544461 164.963559 
L 377.187603 136.665251 
L 308.860743 108.552638 
L 297.2176 136.850946 
z
" clip-path="url(#p788c1a665b)" style="fill: none; stroke: #000000; stroke-width: 0.5"/>
    <path d="M 299.05002 139.564211 
L 368.223221 165.524703 
L 378.975039 136.875875 
L 309.801838 110.915383 
L 299.05002 139.564211 
z
" clip-path="url(#p788c1a665b)" style="fill: none; stroke: #000000; stroke-width: 0.5"/>
    <path d="M 300.966474 142.2187 
L 370.918225 166.001709 
L 380.768215 137.030436 
L 310.816465 113.247427 
L 300.966474 142.2187 
z
" clip-path="url(#p788c1a665b)" style="fill: none; stroke: #000000; stroke-width: 0.5"/>
    <path d="M 302.964917 144.811878 
L 373.626713 166.394035 
L 382.565196 137.128689 
L 311.903401 115.546532 
L 302.964917 144.811878 
z
" clip-path="url(#p788c1a665b)" style="fill: none; stroke: #000000; stroke-width: 0.5"/>
    <path d="M 305.042945 147.341338 
L 376.34556 166.7015 
L 384.363781 137.170752 
L 313.061165 117.81059 
L 305.042945 147.341338 
z
" clip-path="url(#p788c1a665b)" style="fill: none; stroke: #000000; stroke-width: 0.5"/>
    <path d="M 307.199979 149.804576 
L 379.073562 166.923775 
L 386.163663 137.156555 
L 314.290081 120.037355 
L 307.199979 149.804576 
z
" clip-path="url(#p788c1a665b)" style="fill: none; stroke: #000000; stroke-width: 0.5"/>
    <path d="M 309.432703 152.199022 
L 381.806825 167.060561 
L 387.961892 137.086036 
L 315.58777 122.224497 
L 309.432703 152.199022 
z
" clip-path="url(#p788c1a665b)" style="fill: none; stroke: #000000; stroke-width: 0.5"/>
    <path d="M 311.471612 154.475496 
L 384.275388 167.064743 
L 389.48936 136.912273 
L 316.685584 124.323026 
L 311.471612 154.475496 
z
" clip-path="url(#p788c1a665b)" style="fill: none; stroke: #000000; stroke-width: 0.5"/>
    <path d="M 309.464013 156.037871 
L 382.626118 166.342492 
L 386.893888 136.041616 
L 313.731783 125.736995 
L 309.464013 156.037871 
z
" clip-path="url(#p788c1a665b)" style="fill: none; stroke: #000000; stroke-width: 0.5"/>
    <path d="M 307.5081 157.662199 
L 380.95686 165.672099 
L 384.274247 135.252502 
L 310.825487 127.242602 
L 307.5081 157.662199 
z
" clip-path="url(#p788c1a665b)" style="fill: none; stroke: #000000; stroke-width: 0.5"/>
    <path d="M 305.602053 159.34691 
L 379.26551 165.054272 
L 381.629276 134.545755 
L 307.965819 128.838393 
L 305.602053 159.34691 
z
" clip-path="url(#p788c1a665b)" style="fill: none; stroke: #000000; stroke-width: 0.5"/>
    <path d="M 303.75078 161.090503 
L 377.55677 164.48972 
L 378.964593 133.922172 
L 305.158602 130.522955 
L 303.75078 161.090503 
z
" clip-path="url(#p788c1a665b)" style="fill: none; stroke: #000000; stroke-width: 0.5"/>
    <path d="M 301.954864 162.891275 
L 375.831083 163.979026 
L 376.281587 133.382392 
L 302.405368 132.294641 
L 301.954864 162.891275 
z
" clip-path="url(#p788c1a665b)" style="fill: none; stroke: #000000; stroke-width: 0.5"/>
    <path d="M 300.216103 164.747251 
L 374.090177 163.522462 
L 373.582917 132.926717 
L 299.708843 134.151506 
L 300.216103 164.747251 
z
" clip-path="url(#p788c1a665b)" style="fill: none; stroke: #000000; stroke-width: 0.5"/>
    <path d="M 298.536387 166.656609 
L 372.335944 163.12048 
L 370.871418 132.555596 
L 297.071861 136.091725 
L 298.536387 166.656609 
z
" clip-path="url(#p788c1a665b)" style="fill: none; stroke: #000000; stroke-width: 0.5"/>
    <path d="M 296.917079 168.617863 
L 370.569822 162.773858 
L 368.149464 132.269779 
L 294.496721 138.113784 
L 296.917079 168.617863 
z
" clip-path="url(#p788c1a665b)" style="fill: none; stroke: #000000; stroke-width: 0.5"/>
    <path d="M 295.360111 170.628583 
L 368.793886 162.482449 
L 365.420077 132.069057 
L 291.986301 140.215191 
L 295.360111 170.628583 
z
" clip-path="url(#p788c1a665b)" style="fill: none; stroke: #000000; stroke-width: 0.5"/>
    <path d="M 293.866751 172.687207 
L 367.009616 162.246888 
L 362.685645 131.953981 
L 289.54278 142.3943 
L 293.866751 172.687207 
z
" clip-path="url(#p788c1a665b)" style="fill: none; stroke: #000000; stroke-width: 0.5"/>
    <path d="M 292.438502 174.791491 
L 365.218799 162.067216 
L 359.948903 131.924469 
L 287.168605 144.648745 
L 292.438502 174.791491 
z
" clip-path="url(#p788c1a665b)" style="fill: none; stroke: #000000; stroke-width: 0.5"/>
    <path d="M 291.076979 176.939557 
L 363.423408 161.94379 
L 357.212749 131.980735 
L 284.86632 146.976502 
L 291.076979 176.939557 
z
" clip-path="url(#p788c1a665b)" style="fill: none; stroke: #000000; stroke-width: 0.5"/>
    <path d="M 289.783084 179.129024 
L 361.624787 161.876529 
L 354.47948 132.122511 
L 282.637777 149.375007 
L 289.783084 179.129024 
z
" clip-path="url(#p788c1a665b)" style="fill: none; stroke: #000000; stroke-width: 0.5"/>
    <path d="M 288.558541 181.358016 
L 359.825121 161.865621 
L 351.752136 132.349797 
L 280.485555 151.842192 
L 288.558541 181.358016 
z
" clip-path="url(#p788c1a665b)" style="fill: none; stroke: #000000; stroke-width: 0.5"/>
    <path d="M 287.404307 183.624204 
L 358.025947 161.911006 
L 349.033191 132.662291 
L 278.411552 154.375489 
L 287.404307 183.624204 
z
" clip-path="url(#p788c1a665b)" style="fill: none; stroke: #000000; stroke-width: 0.5"/>
    <path d="M 286.321631 185.925343 
L 356.229143 162.012615 
L 346.325428 133.059663 
L 276.417916 156.972392 
L 286.321631 185.925343 
z
" clip-path="url(#p788c1a665b)" style="fill: none; stroke: #000000; stroke-width: 0.5"/>
    <path d="M 285.311361 188.25933 
L 354.436286 162.170566 
L 343.631342 133.541731 
L 274.506417 159.630495 
L 285.311361 188.25933 
z
" clip-path="url(#p788c1a665b)" style="fill: none; stroke: #000000; stroke-width: 0.5"/>
    <path d="M 284.374715 190.623767 
L 352.649309 162.384457 
L 340.953694 134.107796 
L 272.6791 162.347107 
L 284.374715 190.623767 
z
" clip-path="url(#p788c1a665b)" style="fill: none; stroke: #000000; stroke-width: 0.5"/>
    <path d="M 283.512605 193.016301 
L 350.869981 162.654108 
L 338.295152 134.757323 
L 270.937775 165.119516 
L 283.512605 193.016301 
z
" clip-path="url(#p788c1a665b)" style="fill: none; stroke: #000000; stroke-width: 0.5"/>
    <path d="M 282.725612 195.434818 
L 349.099783 162.979489 
L 335.658058 135.489909 
L 269.283887 167.945238 
L 282.725612 195.434818 
z
" clip-path="url(#p788c1a665b)" style="fill: none; stroke: #000000; stroke-width: 0.5"/>
    <path d="M 282.014745 197.876613 
L 347.340685 163.359943 
L 333.045233 136.3045 
L 267.719293 170.82117 
L 282.014745 197.876613 
z
" clip-path="url(#p788c1a665b)" style="fill: none; stroke: #000000; stroke-width: 0.5"/>
    <path d="M 281.380769 200.339448 
L 345.594516 163.795317 
L 330.459369 137.2005 
L 266.245622 173.744631 
L 281.380769 200.339448 
z
" clip-path="url(#p788c1a665b)" style="fill: none; stroke: #000000; stroke-width: 0.5"/>
    <path d="M 280.824057 202.820943 
L 343.862669 164.285086 
L 327.902628 138.176963 
L 264.864015 176.71282 
L 280.824057 202.820943 
z
" clip-path="url(#p788c1a665b)" style="fill: none; stroke: #000000; stroke-width: 0.5"/>
    <path d="M 280.34529 205.318779 
L 342.14701 164.828949 
L 325.377709 139.233099 
L 263.575989 179.722929 
L 280.34529 205.318779 
z
" clip-path="url(#p788c1a665b)" style="fill: none; stroke: #000000; stroke-width: 0.5"/>
    <path d="M 279.944991 207.830255 
L 340.449272 165.426118 
L 322.887141 140.367617 
L 262.382859 182.771753 
L 279.944991 207.830255 
z
" clip-path="url(#p788c1a665b)" style="fill: none; stroke: #000000; stroke-width: 0.5"/>
    <path d="M 279.623437 210.352989 
L 338.77105 166.076147 
L 320.433318 141.579524 
L 261.285704 185.856366 
L 279.623437 210.352989 
z
" clip-path="url(#p788c1a665b)" style="fill: none; stroke: #000000; stroke-width: 0.5"/>
    <path d="M 279.38101 212.884602 
L 337.113968 166.778372 
L 318.018575 142.867644 
L 260.285617 188.973874 
L 279.38101 212.884602 
z
" clip-path="url(#p788c1a665b)" style="fill: none; stroke: #000000; stroke-width: 0.5"/>
    <path d="M 279.217915 215.422488 
L 335.479658 167.532037 
L 315.645311 144.230629 
L 259.383568 192.121079 
L 279.217915 215.422488 
z
" clip-path="url(#p788c1a665b)" style="fill: none; stroke: #000000; stroke-width: 0.5"/>
    <path d="M 279.134367 217.964438 
L 333.869777 168.336685 
L 313.315907 145.667424 
L 258.580497 195.295177 
L 279.134367 217.964438 
z
" clip-path="url(#p788c1a665b)" style="fill: none; stroke: #000000; stroke-width: 0.5"/>
    <path d="M 279.130391 220.507665 
L 332.285844 169.191229 
L 311.032587 147.176323 
L 257.877134 198.49276 
L 279.130391 220.507665 
z
" clip-path="url(#p788c1a665b)" style="fill: none; stroke: #000000; stroke-width: 0.5"/>
    <path d="M 279.205924 223.049715 
L 330.7294 170.094919 
L 308.797599 148.755915 
L 257.274124 201.710711 
L 279.205924 223.049715 
z
" clip-path="url(#p788c1a665b)" style="fill: none; stroke: #000000; stroke-width: 0.5"/>
    <path d="M 279.541609 225.390841 
L 329.382579 170.849512 
L 306.793698 150.207336 
L 256.952728 204.748665 
L 279.541609 225.390841 
z
" clip-path="url(#p788c1a665b)" style="fill: none; stroke: #000000; stroke-width: 0.5"/>
    <path d="M 279.803028 228.168203 
L 327.742313 171.948066 
L 304.458136 152.093493 
L 256.518851 208.31363 
L 279.803028 228.168203 
z
" clip-path="url(#p788c1a665b)" style="fill: none; stroke: #000000; stroke-width: 0.5"/>
    <path d="M 280.159639 230.934901 
L 326.140788 173.102274 
L 302.188781 154.058684 
L 256.207632 211.891312 
L 280.159639 230.934901 
z
" clip-path="url(#p788c1a665b)" style="fill: none; stroke: #000000; stroke-width: 0.5"/>
    <path d="M 276.988938 232.065746 
L 324.650082 175.609619 
L 301.268167 155.870241 
L 253.607023 212.326368 
L 276.988938 232.065746 
z
" clip-path="url(#p788c1a665b)" style="fill: none; stroke: #000000; stroke-width: 0.5"/>
    <path d="M 273.509585 232.955481 
L 323.080623 178.168703 
L 300.390087 157.638322 
L 250.819049 212.4251 
L 273.509585 232.955481 
z
" clip-path="url(#p788c1a665b)" style="fill: none; stroke: #000000; stroke-width: 0.5"/>
    <path d="M 270.001891 233.725366 
L 321.424447 180.672566 
L 299.452057 159.375359 
L 248.029501 212.428159 
L 270.001891 233.725366 
z
" clip-path="url(#p788c1a665b)" style="fill: none; stroke: #000000; stroke-width: 0.5"/>
    <path d="M 266.469715 234.374283 
L 319.683122 183.117945 
L 298.454755 161.079038 
L 245.241348 212.335376 
L 266.469715 234.374283 
z
" clip-path="url(#p788c1a665b)" style="fill: none; stroke: #000000; stroke-width: 0.5"/>
    <path d="M 262.917287 234.901697 
L 317.858871 185.502292 
L 297.399574 162.747642 
L 242.457989 212.147047 
L 262.917287 234.901697 
z
" clip-path="url(#p788c1a665b)" style="fill: none; stroke: #000000; stroke-width: 0.5"/>
    <path d="M 259.349003 235.306802 
L 315.953953 187.822504 
L 296.287819 164.378953 
L 239.682868 211.86325 
L 259.349003 235.306802 
z
" clip-path="url(#p788c1a665b)" style="fill: none; stroke: #000000; stroke-width: 0.5"/>
    <path d="M 255.7689 235.589078 
L 313.970495 190.075858 
L 295.120704 165.971039 
L 236.919108 211.484259 
L 255.7689 235.589078 
z
" clip-path="url(#p788c1a665b)" style="fill: none; stroke: #000000; stroke-width: 0.5"/>
    <path d="M 252.181126 235.748385 
L 311.910808 192.259949 
L 293.899602 167.522256 
L 234.169921 211.010692 
L 252.181126 235.748385 
z
" clip-path="url(#p788c1a665b)" style="fill: none; stroke: #000000; stroke-width: 0.5"/>
    <path d="M 248.590079 235.784448 
L 309.777398 194.371998 
L 292.625984 169.030609 
L 231.438666 210.443059 
L 248.590079 235.784448 
z
" clip-path="url(#p788c1a665b)" style="fill: none; stroke: #000000; stroke-width: 0.5"/>
    <path d="M 244.999757 235.697218 
L 307.572629 196.409631 
L 291.30125 170.4944 
L 228.728378 209.781987 
L 244.999757 235.697218 
z
" clip-path="url(#p788c1a665b)" style="fill: none; stroke: #000000; stroke-width: 0.5"/>
    <path d="M 241.414599 235.486874 
L 305.299229 198.370395 
L 289.927038 171.911886 
L 226.042409 209.028365 
L 241.414599 235.486874 
z
" clip-path="url(#p788c1a665b)" style="fill: none; stroke: #000000; stroke-width: 0.5"/>
    <path d="M 237.838809 235.153328 
L 302.95993 200.251773 
L 288.505074 173.281157 
L 223.383953 208.182712 
L 237.838809 235.153328 
z
" clip-path="url(#p788c1a665b)" style="fill: none; stroke: #000000; stroke-width: 0.5"/>
    <path d="M 234.276702 234.697514 
L 300.557518 202.051958 
L 287.037008 174.601042 
L 220.756192 207.246599 
L 234.276702 234.697514 
z
" clip-path="url(#p788c1a665b)" style="fill: none; stroke: #000000; stroke-width: 0.5"/>
    <path d="M 230.732206 234.119458 
L 298.094622 203.768448 
L 285.524423 175.869576 
L 218.162008 206.220586 
L 230.732206 234.119458 
z
" clip-path="url(#p788c1a665b)" style="fill: none; stroke: #000000; stroke-width: 0.5"/>
    <path d="M 227.209662 233.420214 
L 295.574244 205.399457 
L 283.969145 177.085527 
L 215.604563 205.106283 
L 227.209662 233.420214 
z
" clip-path="url(#p788c1a665b)" style="fill: none; stroke: #000000; stroke-width: 0.5"/>
    <path d="M 223.713223 232.600431 
L 292.99939 206.942957 
L 282.37307 178.247342 
L 213.086903 203.904816 
L 223.713223 232.600431 
z
" clip-path="url(#p788c1a665b)" style="fill: none; stroke: #000000; stroke-width: 0.5"/>
    <path d="M 220.246983 231.661122 
L 290.37309 208.397243 
L 280.738104 179.353759 
L 210.611997 202.617637 
L 220.246983 231.661122 
z
" clip-path="url(#p788c1a665b)" style="fill: none; stroke: #000000; stroke-width: 0.5"/>
    <path d="M 216.815068 230.603343 
L 287.698431 209.760412 
L 279.066106 180.403301 
L 208.182743 201.246232 
L 216.815068 230.603343 
z
" clip-path="url(#p788c1a665b)" style="fill: none; stroke: #000000; stroke-width: 0.5"/>
    <path d="M 213.421398 229.428305 
L 284.978484 211.030961 
L 277.359025 181.394821 
L 205.801939 199.792165 
L 213.421398 229.428305 
z
" clip-path="url(#p788c1a665b)" style="fill: none; stroke: #000000; stroke-width: 0.5"/>
    <path d="M 210.070103 228.137632 
L 282.216547 212.207489 
L 275.618906 182.32726 
L 203.472462 198.257403 
L 210.070103 228.137632 
z
" clip-path="url(#p788c1a665b)" style="fill: none; stroke: #000000; stroke-width: 0.5"/>
    <path d="M 206.764965 226.732616 
L 279.415741 213.288523 
L 273.847725 183.19942 
L 201.196949 196.643513 
L 206.764965 226.732616 
z
" clip-path="url(#p788c1a665b)" style="fill: none; stroke: #000000; stroke-width: 0.5"/>
    <path d="M 203.510272 225.214963 
L 276.57973 214.272695 
L 272.047871 184.01019 
L 198.978414 194.952458 
L 203.510272 225.214963 
z
" clip-path="url(#p788c1a665b)" style="fill: none; stroke: #000000; stroke-width: 0.5"/>
    <path d="M 200.309344 223.586352 
L 273.711365 215.15888 
L 270.221036 184.75864 
L 196.819016 193.186112 
L 200.309344 223.586352 
z
" clip-path="url(#p788c1a665b)" style="fill: none; stroke: #000000; stroke-width: 0.5"/>
    <path d="M 197.166307 221.849033 
L 270.81436 215.946218 
L 268.369646 185.444082 
L 194.721593 191.346897 
L 197.166307 221.849033 
z
" clip-path="url(#p788c1a665b)" style="fill: none; stroke: #000000; stroke-width: 0.5"/>
    <path d="M 194.084815 220.004624 
L 267.892092 216.633452 
L 266.495885 186.065371 
L 192.688608 189.436543 
L 194.084815 220.004624 
z
" clip-path="url(#p788c1a665b)" style="fill: none; stroke: #000000; stroke-width: 0.5"/>
    <path d="M 191.068479 218.055652 
L 264.947981 217.220106 
L 264.60193 186.622112 
L 190.722429 187.457658 
L 191.068479 218.055652 
z
" clip-path="url(#p788c1a665b)" style="fill: none; stroke: #000000; stroke-width: 0.5"/>
    <path d="M 188.120669 216.004351 
L 261.985311 217.705407 
L 262.689822 187.113568 
L 188.82518 185.412512 
L 188.120669 216.004351 
z
" clip-path="url(#p788c1a665b)" style="fill: none; stroke: #000000; stroke-width: 0.5"/>
    <path d="M 185.24514 213.852959 
L 259.007855 218.088612 
L 260.762097 187.538987 
L 186.999382 183.303334 
L 185.24514 213.852959 
z
" clip-path="url(#p788c1a665b)" style="fill: none; stroke: #000000; stroke-width: 0.5"/>
    <path d="M 183.283517 211.678735 
L 256.857358 218.444001 
L 259.659266 187.9726 
L 186.085425 181.207334 
L 183.283517 211.678735 
z
" clip-path="url(#p788c1a665b)" style="fill: none; stroke: #000000; stroke-width: 0.5"/>
    <path d="M 185.402278 209.864162 
L 258.700517 219.151087 
L 262.546798 188.79383 
L 189.248558 179.506905 
L 185.402278 209.864162 
z
" clip-path="url(#p788c1a665b)" style="fill: none; stroke: #000000; stroke-width: 0.5"/>
    <path d="M 187.582194 208.123248 
L 260.51844 219.920827 
L 265.404535 189.713493 
L 192.468289 177.915914 
L 187.582194 208.123248 
z
" clip-path="url(#p788c1a665b)" style="fill: none; stroke: #000000; stroke-width: 0.5"/>
    <path d="M 189.820534 206.458406 
L 262.308816 220.752733 
L 268.228966 190.730928 
L 195.740684 176.436601 
L 189.820534 206.458406 
z
" clip-path="url(#p788c1a665b)" style="fill: none; stroke: #000000; stroke-width: 0.5"/>
    <path d="M 192.114646 204.871256 
L 264.069505 221.645554 
L 271.016762 191.844672 
L 199.061903 175.070373 
L 192.114646 204.871256 
z
" clip-path="url(#p788c1a665b)" style="fill: none; stroke: #000000; stroke-width: 0.5"/>
    <path d="M 194.461958 203.363764 
L 265.798595 222.598189 
L 273.76474 193.05335 
L 202.428103 173.818925 
L 194.461958 203.363764 
z
" clip-path="url(#p788c1a665b)" style="fill: none; stroke: #000000; stroke-width: 0.5"/>
    <path d="M 196.859649 201.937811 
L 267.493956 223.609762 
L 276.469629 194.355801 
L 205.835321 172.68385 
L 196.859649 201.937811 
z
" clip-path="url(#p788c1a665b)" style="fill: none; stroke: #000000; stroke-width: 0.5"/>
    <path d="M 199.30481 200.594893 
L 269.153551 224.678753 
L 279.128142 195.750143 
L 209.279401 171.666283 
L 199.30481 200.594893 
z
" clip-path="url(#p788c1a665b)" style="fill: none; stroke: #000000; stroke-width: 0.5"/>
    <path d="M 201.794617 199.336728 
L 270.775433 225.804179 
L 281.737213 197.235029 
L 212.756398 170.767578 
L 201.794617 199.336728 
z
" clip-path="url(#p788c1a665b)" style="fill: none; stroke: #000000; stroke-width: 0.5"/>
    <path d="M 204.326298 198.164958 
L 272.357904 226.984732 
L 284.293925 198.808707 
L 216.262319 169.988933 
L 204.326298 198.164958 
z
" clip-path="url(#p788c1a665b)" style="fill: none; stroke: #000000; stroke-width: 0.5"/>
    <path d="M 206.896552 197.080497 
L 273.898729 228.218692 
L 286.794949 200.469017 
L 219.792772 169.330822 
L 206.896552 197.080497 
z
" clip-path="url(#p788c1a665b)" style="fill: none; stroke: #000000; stroke-width: 0.5"/>
    <path d="M 209.502589 196.085123 
L 275.396389 229.504967 
L 289.237578 202.214338 
L 223.343778 168.794494 
L 209.502589 196.085123 
z
" clip-path="url(#p788c1a665b)" style="fill: none; stroke: #000000; stroke-width: 0.5"/>
    <path d="M 211.114515 198.933762 
L 278.02166 230.275633 
L 291.002235 202.565316 
L 224.09509 171.223446 
L 211.114515 198.933762 
z
" clip-path="url(#p788c1a665b)" style="fill: none; stroke: #000000; stroke-width: 0.5"/>
    <path d="M 212.196658 201.462488 
L 280.051609 230.695766 
L 292.158887 202.592905 
L 224.303936 173.359627 
L 212.196658 201.462488 
z
" clip-path="url(#p788c1a665b)" style="fill: none; stroke: #000000; stroke-width: 0.5"/>
    <path d="M 209.881394 202.513013 
L 278.617744 229.60901 
L 289.839844 201.141108 
L 221.103494 174.045111 
L 209.881394 202.513013 
z
" clip-path="url(#p788c1a665b)" style="fill: none; stroke: #000000; stroke-width: 0.5"/>
    <path d="M 207.60007 203.635261 
L 277.150495 228.567515 
L 287.476457 199.762455 
L 217.926032 174.830201 
L 207.60007 203.635261 
z
" clip-path="url(#p788c1a665b)" style="fill: none; stroke: #000000; stroke-width: 0.5"/>
    <path d="M 205.355079 204.828591 
L 275.651508 227.572623 
L 285.071195 198.458597 
L 214.774766 175.714566 
L 205.355079 204.828591 
z
" clip-path="url(#p788c1a665b)" style="fill: none; stroke: #000000; stroke-width: 0.5"/>
    <path d="M 203.148464 206.091328 
L 274.122048 226.624939 
L 282.626265 197.230463 
L 211.652681 176.696851 
L 203.148464 206.091328 
z
" clip-path="url(#p788c1a665b)" style="fill: none; stroke: #000000; stroke-width: 0.5"/>
    <path d="M 200.98235 207.422667 
L 272.563622 225.725683 
L 280.144014 196.079526 
L 208.562742 177.77651 
L 200.98235 207.422667 
z
" clip-path="url(#p788c1a665b)" style="fill: none; stroke: #000000; stroke-width: 0.5"/>
    <path d="M 200.364702 209.164899 
L 272.483559 225.219472 
L 279.132734 195.350668 
L 207.013876 179.296096 
L 200.364702 209.164899 
z
" clip-path="url(#p788c1a665b)" style="fill: none; stroke: #000000; stroke-width: 0.5"/>
    <path d="M 202.631991 211.525368 
L 275.21784 225.315706 
L 280.929257 195.253492 
L 208.343408 181.463155 
L 202.631991 211.525368 
z
" clip-path="url(#p788c1a665b)" style="fill: none; stroke: #000000; stroke-width: 0.5"/>
    <path d="M 204.972137 213.813659 
L 277.953897 225.326332 
L 282.721995 195.100148 
L 209.740236 183.587475 
L 204.972137 213.813659 
z
" clip-path="url(#p788c1a665b)" style="fill: none; stroke: #000000; stroke-width: 0.5"/>
    <path d="M 207.382637 216.027867 
L 280.688863 225.251532 
L 284.508944 194.890966 
L 211.202717 185.667301 
L 207.382637 216.027867 
z
" clip-path="url(#p788c1a665b)" style="fill: none; stroke: #000000; stroke-width: 0.5"/>
    <path d="M 209.861221 218.165402 
L 283.420136 225.091071 
L 286.288477 194.625852 
L 212.729562 187.700182 
L 209.861221 218.165402 
z
" clip-path="url(#p788c1a665b)" style="fill: none; stroke: #000000; stroke-width: 0.5"/>
    <path d="M 212.405579 220.224293 
L 286.145164 224.845179 
L 288.058954 194.305134 
L 214.319369 189.684248 
L 212.405579 220.224293 
z
" clip-path="url(#p788c1a665b)" style="fill: none; stroke: #000000; stroke-width: 0.5"/>
    <path d="M 215.013023 222.202695 
L 288.86108 224.514266 
L 289.818442 193.929296 
L 215.970385 191.617725 
L 215.013023 222.202695 
z
" clip-path="url(#p788c1a665b)" style="fill: none; stroke: #000000; stroke-width: 0.5"/>
    <path d="M 217.681119 224.098445 
L 291.565345 224.098445 
L 291.565345 193.498495 
L 217.681119 193.498495 
L 217.681119 224.098445 
z
" clip-path="url(#p788c1a665b)" style="fill: none; stroke: #000000; stroke-width: 0.5"/>
   </g>
   <g id="PatchCollection_3">
    <path d="M 147.870058 110.317682 
L 144.324749 111.499452 
L 144.324749 110.711605 
L 128.567823 110.711605 
L 128.567823 109.923759 
L 144.324749 109.923759 
L 144.324749 109.135913 
z
" clip-path="url(#p788c1a665b)" style="fill: #ff0000; stroke: #ff0000; stroke-width: 0.24"/>
    <path d="M 153.350413 108.593087 
L 149.908263 110.048213 
L 149.846714 109.262775 
L 134.137945 110.493744 
L 134.076396 109.708305 
L 149.785166 108.477336 
L 149.723617 107.691898 
z
" clip-path="url(#p788c1a665b)" style="fill: #ff0000; stroke: #ff0000; stroke-width: 0.24"/>
    <path d="M 158.679268 106.445501 
L 155.361315 108.165088 
L 155.238595 107.386858 
L 139.674001 109.841269 
L 139.55128 109.063039 
L 155.115874 106.608629 
L 154.993154 105.830399 
z
" clip-path="url(#p788c1a665b)" style="fill: #ff0000; stroke: #ff0000; stroke-width: 0.24"/>
    <path d="M 163.82414 103.888332 
L 160.650666 105.86187 
L 160.467523 105.095606 
L 145.142242 108.758458 
L 144.9591 107.992194 
L 160.28438 104.329342 
L 160.101238 103.563078 
z
" clip-path="url(#p788c1a665b)" style="fill: #ff0000; stroke: #ff0000; stroke-width: 0.24"/>
    <path d="M 168.753416 100.936935 
L 165.743818 103.15236 
L 165.501372 102.402746 
L 150.509079 107.25165 
L 150.266634 106.502035 
L 165.258927 101.653131 
L 165.016482 100.903516 
z
" clip-path="url(#p788c1a665b)" style="fill: #ff0000; stroke: #ff0000; stroke-width: 0.24"/>
    <path d="M 173.43713 97.609486 
L 170.609804 100.053258 
L 170.309538 99.324874 
L 155.741872 105.330191 
L 155.441606 104.601808 
L 170.009272 98.596491 
L 169.709006 97.868108 
z
" clip-path="url(#p788c1a665b)" style="fill: #ff0000; stroke: #ff0000; stroke-width: 0.24"/>
    <path d="M 178.382367 95.067908 
L 175.602595 97.565638 
L 175.288367 96.843168 
L 160.838971 103.127725 
L 160.524743 102.405256 
L 174.974139 96.120699 
L 174.659911 95.398229 
z
" clip-path="url(#p788c1a665b)" style="fill: #ff0000; stroke: #ff0000; stroke-width: 0.24"/>
    <path d="M 183.467285 92.856266 
L 180.687513 95.353996 
L 180.373285 94.631526 
L 165.923888 100.916083 
L 165.60966 100.193613 
L 180.059057 93.909057 
L 179.744829 93.186587 
z
" clip-path="url(#p788c1a665b)" style="fill: #ff0000; stroke: #ff0000; stroke-width: 0.24"/>
    <path d="M 188.552045 90.644782 
L 185.772273 93.142512 
L 185.458045 92.420042 
L 171.008648 98.704599 
L 170.69442 97.982129 
L 185.143817 91.697572 
L 184.829589 90.975102 
z
" clip-path="url(#p788c1a665b)" style="fill: #ff0000; stroke: #ff0000; stroke-width: 0.24"/>
    <path d="M 193.636963 88.433139 
L 190.85719 90.930869 
L 190.542962 90.2084 
L 176.093566 96.492957 
L 175.779338 95.770487 
L 190.228735 89.48593 
L 189.914507 88.76346 
z
" clip-path="url(#p788c1a665b)" style="fill: #ff0000; stroke: #ff0000; stroke-width: 0.24"/>
    <path d="M 198.72188 86.221497 
L 195.942108 88.719227 
L 195.62788 87.996757 
L 181.178483 94.281314 
L 180.864256 93.558845 
L 195.313652 87.274288 
L 194.999424 86.551818 
z
" clip-path="url(#p788c1a665b)" style="fill: #ff0000; stroke: #ff0000; stroke-width: 0.24"/>
    <path d="M 203.806798 84.009855 
L 201.027025 86.507585 
L 200.712798 85.785115 
L 186.263401 92.069672 
L 185.949173 91.347202 
L 200.39857 85.062646 
L 200.084342 84.340176 
z
" clip-path="url(#p788c1a665b)" style="fill: #ff0000; stroke: #ff0000; stroke-width: 0.24"/>
    <path d="M 208.891558 81.798371 
L 206.111786 84.296101 
L 205.797558 83.573631 
L 191.348161 89.858188 
L 191.033933 89.135718 
L 205.48333 82.851161 
L 205.169102 82.128691 
z
" clip-path="url(#p788c1a665b)" style="fill: #ff0000; stroke: #ff0000; stroke-width: 0.24"/>
    <path d="M 213.976491 79.586728 
L 211.196719 82.084458 
L 210.882491 81.361989 
L 196.433094 87.646546 
L 196.118867 86.924076 
L 210.568263 80.639519 
L 210.254035 79.917049 
z
" clip-path="url(#p788c1a665b)" style="fill: #ff0000; stroke: #ff0000; stroke-width: 0.24"/>
    <path d="M 219.061362 77.375086 
L 216.281589 79.872816 
L 215.967361 79.150346 
L 201.517965 85.434903 
L 201.203737 84.712434 
L 215.653134 78.427877 
L 215.338906 77.705407 
z
" clip-path="url(#p788c1a665b)" style="fill: #ff0000; stroke: #ff0000; stroke-width: 0.24"/>
    <path d="M 224.146245 75.163602 
L 221.366472 77.661332 
L 221.052244 76.938862 
L 206.602848 83.223419 
L 206.28862 82.500949 
L 220.738016 76.216392 
L 220.423789 75.493922 
z
" clip-path="url(#p788c1a665b)" style="fill: #ff0000; stroke: #ff0000; stroke-width: 0.24"/>
    <path d="M 229.231118 72.95196 
L 226.451346 75.44969 
L 226.137118 74.72722 
L 211.687721 81.011777 
L 211.373493 80.289307 
L 225.82289 74.00475 
L 225.508662 73.28228 
z
" clip-path="url(#p788c1a665b)" style="fill: #ff0000; stroke: #ff0000; stroke-width: 0.24"/>
    <path d="M 234.316004 70.740317 
L 231.536232 73.238047 
L 231.222004 72.515578 
L 216.772607 78.800135 
L 216.458379 78.077665 
L 230.907776 71.793108 
L 230.593548 71.070638 
z
" clip-path="url(#p788c1a665b)" style="fill: #ff0000; stroke: #ff0000; stroke-width: 0.24"/>
    <path d="M 239.400875 68.528833 
L 236.621102 71.026563 
L 236.306874 70.304093 
L 221.857478 76.58865 
L 221.54325 75.86618 
L 235.992646 69.581623 
L 235.678419 68.859153 
z
" clip-path="url(#p788c1a665b)" style="fill: #ff0000; stroke: #ff0000; stroke-width: 0.24"/>
    <path d="M 244.485824 66.317191 
L 241.706051 68.814921 
L 241.391823 68.092451 
L 226.942427 74.377008 
L 226.628199 73.654538 
L 241.077596 67.369981 
L 240.763368 66.647511 
z
" clip-path="url(#p788c1a665b)" style="fill: #ff0000; stroke: #ff0000; stroke-width: 0.24"/>
    <path d="M 250.098027 65.431854 
L 247.159652 67.740911 
L 246.893732 66.999299 
L 232.061491 72.317695 
L 231.795571 71.576083 
L 246.627813 66.257687 
L 246.361893 65.516075 
z
" clip-path="url(#p788c1a665b)" style="fill: #ff0000; stroke: #ff0000; stroke-width: 0.24"/>
    <path d="M 255.838861 65.205229 
L 252.729077 67.277676 
L 252.521907 66.517556 
L 237.31951 70.660969 
L 237.11234 69.900849 
L 252.314736 65.757436 
L 252.107565 64.997317 
z
" clip-path="url(#p788c1a665b)" style="fill: #ff0000; stroke: #ff0000; stroke-width: 0.24"/>
    <path d="M 261.579943 65.427659 
L 258.31776 67.250829 
L 258.170604 66.476848 
L 242.690977 69.419951 
L 242.543822 68.64597 
L 258.023449 65.702867 
L 257.876294 64.928885 
z
" clip-path="url(#p788c1a665b)" style="fill: #ff0000; stroke: #ff0000; stroke-width: 0.24"/>
    <path d="M 267.285951 66.09914 
L 263.891307 67.661889 
L 263.805067 66.878777 
L 248.142827 68.60358 
L 248.056587 67.820468 
L 263.718827 66.095665 
L 263.632587 65.312553 
z
" clip-path="url(#p788c1a665b)" style="fill: #ff0000; stroke: #ff0000; stroke-width: 0.24"/>
    <path d="M 272.922113 67.213705 
L 269.415758 68.506479 
L 269.39096 67.719023 
L 253.641841 68.214981 
L 253.617043 67.427525 
L 269.366162 66.931568 
L 269.341364 66.144112 
z
" clip-path="url(#p788c1a665b)" style="fill: #ff0000; stroke: #ff0000; stroke-width: 0.24"/>
    <path d="M 278.454057 68.765296 
L 274.857424 69.780194 
L 274.89422 68.993207 
L 259.154489 68.25729 
L 259.191284 67.470303 
L 274.931016 68.206221 
L 274.967812 67.419234 
z
" clip-path="url(#p788c1a665b)" style="fill: #ff0000; stroke: #ff0000; stroke-width: 0.24"/>
    <path d="M 283.847977 70.743125 
L 280.183049 71.473942 
L 280.281214 70.692236 
L 264.647079 68.728933 
L 264.745244 67.947226 
L 280.379379 69.910529 
L 280.477544 69.128822 
z
" clip-path="url(#p788c1a665b)" style="fill: #ff0000; stroke: #ff0000; stroke-width: 0.24"/>
    <path d="M 289.070786 73.137982 
L 285.359966 73.580253 
L 285.518899 72.808604 
L 270.085924 69.629927 
L 270.244858 68.858279 
L 285.677833 72.036956 
L 285.836767 71.265307 
z
" clip-path="url(#p788c1a665b)" style="fill: #ff0000; stroke: #ff0000; stroke-width: 0.24"/>
    <path d="M 294.090586 75.932899 
L 290.356556 76.083921 
L 290.575287 75.327047 
L 275.437803 70.952425 
L 275.656534 70.195551 
L 290.794018 74.570172 
L 291.012749 73.813298 
z
" clip-path="url(#p788c1a665b)" style="fill: #ff0000; stroke: #ff0000; stroke-width: 0.24"/>
    <path d="M 298.876658 79.110571 
L 295.142241 78.96942 
L 295.419433 78.231946 
L 280.669968 72.688119 
L 280.94716 71.950646 
L 295.696624 77.494473 
L 295.973815 76.757 
z
" clip-path="url(#p788c1a665b)" style="fill: #ff0000; stroke: #ff0000; stroke-width: 0.24"/>
    <path d="M 303.399763 82.653103 
L 299.687786 82.220641 
L 300.021744 81.507077 
L 285.750454 74.82793 
L 286.084411 74.114366 
L 300.355701 80.793512 
L 300.689658 80.079948 
z
" clip-path="url(#p788c1a665b)" style="fill: #ff0000; stroke: #ff0000; stroke-width: 0.24"/>
    <path d="M 307.632439 86.538285 
L 303.965593 85.817158 
L 304.354275 85.131864 
L 290.648391 77.358224 
L 291.037073 76.672929 
L 304.742957 84.446569 
L 305.131639 83.761275 
z
" clip-path="url(#p788c1a665b)" style="fill: #ff0000; stroke: #ff0000; stroke-width: 0.24"/>
    <path d="M 311.548511 90.742167 
L 307.949207 89.73678 
L 308.390238 89.083945 
L 295.333538 80.263328 
L 295.774569 79.610493 
L 308.831269 88.43111 
L 309.2723 87.778275 
z
" clip-path="url(#p788c1a665b)" style="fill: #ff0000; stroke: #ff0000; stroke-width: 0.24"/>
    <path d="M 315.124319 95.239102 
L 311.614558 93.955603 
L 312.105242 93.339217 
L 299.777533 83.525538 
L 300.268217 82.909152 
L 312.595926 92.722832 
L 313.08661 92.106446 
z
" clip-path="url(#p788c1a665b)" style="fill: #ff0000; stroke: #ff0000; stroke-width: 0.24"/>
    <path d="M 318.337904 100.001644 
L 314.93914 98.447877 
L 315.476477 97.871708 
L 303.953112 87.124953 
L 304.490449 86.548784 
L 316.013815 97.29554 
L 316.551153 96.719372 
z
" clip-path="url(#p788c1a665b)" style="fill: #ff0000; stroke: #ff0000; stroke-width: 0.24"/>
    <path d="M 321.169447 105.000747 
L 317.902454 103.186209 
L 318.483162 102.653779 
L 307.834575 91.039636 
L 308.415282 90.507207 
L 319.063869 102.12135 
L 319.644576 101.588921 
z
" clip-path="url(#p788c1a665b)" style="fill: #ff0000; stroke: #ff0000; stroke-width: 0.24"/>
    <path d="M 323.602006 110.205662 
L 320.486756 108.141441 
L 321.107284 107.656005 
L 311.398578 95.245456 
L 312.019105 94.76002 
L 321.727811 107.17057 
L 322.348339 106.685135 
z
" clip-path="url(#p788c1a665b)" style="fill: #ff0000; stroke: #ff0000; stroke-width: 0.24"/>
    <path d="M 325.620273 115.584874 
L 322.675806 113.283591 
L 323.33236 112.848116 
L 314.622867 99.717029 
L 315.279421 99.281555 
L 323.988914 112.412642 
L 324.645469 111.977167 
z
" clip-path="url(#p788c1a665b)" style="fill: #ff0000; stroke: #ff0000; stroke-width: 0.24"/>
    <path d="M 327.212318 121.105278 
L 324.456633 118.580998 
L 325.145202 118.198146 
L 317.488171 104.426777 
L 318.17674 104.043925 
L 325.83377 117.815295 
L 326.522339 117.432443 
z
" clip-path="url(#p788c1a665b)" style="fill: #ff0000; stroke: #ff0000; stroke-width: 0.24"/>
    <path d="M 328.368126 126.733052 
L 325.81806 124.001211 
L 326.534433 123.673321 
L 319.976627 109.345868 
L 320.692999 109.017978 
L 327.250806 123.34543 
L 327.967178 123.01754 
z
" clip-path="url(#p788c1a665b)" style="fill: #ff0000; stroke: #ff0000; stroke-width: 0.24"/>
    <path d="M 329.868636 128.47639 
L 327.234327 125.82569 
L 327.940088 125.475542 
L 320.937118 111.360333 
L 321.642878 111.010184 
L 328.645848 125.125393 
L 329.351609 124.775245 
z
" clip-path="url(#p788c1a665b)" style="fill: #ff0000; stroke: #ff0000; stroke-width: 0.24"/>
    <path d="M 331.422826 130.171905 
L 328.706854 127.604944 
L 329.401311 127.232881 
L 321.960037 113.343742 
L 322.654494 112.971679 
L 330.095767 126.860817 
L 330.790224 126.488753 
z
" clip-path="url(#p788c1a665b)" style="fill: #ff0000; stroke: #ff0000; stroke-width: 0.24"/>
    <path d="M 333.029537 131.817821 
L 330.234563 129.337114 
L 330.917036 128.943499 
L 323.044748 115.294038 
L 323.727221 114.900423 
L 331.599509 128.549885 
L 332.281982 128.15627 
z
" clip-path="url(#p788c1a665b)" style="fill: #ff0000; stroke: #ff0000; stroke-width: 0.24"/>
    <path d="M 334.686836 133.412692 
L 331.815597 131.020668 
L 332.485418 130.605889 
L 324.189827 117.209475 
L 324.859648 116.794696 
L 333.155238 130.191109 
L 333.825059 129.77633 
z
" clip-path="url(#p788c1a665b)" style="fill: #ff0000; stroke: #ff0000; stroke-width: 0.24"/>
    <path d="M 336.393159 134.955056 
L 333.448461 132.654068 
L 334.104972 132.218528 
L 325.394166 119.088312 
L 326.050677 118.652772 
L 334.761483 131.782988 
L 335.417994 131.347447 
z
" clip-path="url(#p788c1a665b)" style="fill: #ff0000; stroke: #ff0000; stroke-width: 0.24"/>
    <path d="M 338.14698 136.443079 
L 335.131714 134.235375 
L 335.774272 133.779502 
L 326.656811 120.92833 
L 327.29937 120.472457 
L 336.416831 133.323629 
L 337.05939 132.867756 
z
" clip-path="url(#p788c1a665b)" style="fill: #ff0000; stroke: #ff0000; stroke-width: 0.24"/>
    <path d="M 339.946585 137.875657 
L 336.863704 135.7634 
L 337.49168 135.28764 
L 327.976497 122.728102 
L 328.604474 122.252343 
L 338.119657 134.811881 
L 338.747634 134.336122 
z
" clip-path="url(#p788c1a665b)" style="fill: #ff0000; stroke: #ff0000; stroke-width: 0.24"/>
    <path d="M 341.790063 139.251103 
L 338.642588 137.236359 
L 339.255369 136.74118 
L 329.351796 124.48557 
L 329.964577 123.990392 
L 339.868149 136.246001 
L 340.48093 135.750823 
z
" clip-path="url(#p788c1a665b)" style="fill: #ff0000; stroke: #ff0000; stroke-width: 0.24"/>
    <path d="M 343.675717 140.568183 
L 340.46673 138.652928 
L 341.063714 138.138815 
L 330.781442 126.199149 
L 331.378425 125.685036 
L 341.660697 137.624701 
L 342.25768 137.110587 
z
" clip-path="url(#p788c1a665b)" style="fill: #ff0000; stroke: #ff0000; stroke-width: 0.24"/>
    <path d="M 345.601659 141.825554 
L 342.334305 140.011665 
L 342.914906 139.479121 
L 332.264009 127.867097 
L 332.84461 127.334552 
L 343.495507 138.946576 
L 344.076109 138.414031 
z
" clip-path="url(#p788c1a665b)" style="fill: #ff0000; stroke: #ff0000; stroke-width: 0.24"/>
    <path d="M 347.566029 143.022191 
L 344.243508 141.311446 
L 344.807159 140.760992 
L 333.79807 129.487985 
L 334.36172 128.93753 
L 345.370809 140.210537 
L 345.934459 139.660083 
z
" clip-path="url(#p788c1a665b)" style="fill: #ff0000; stroke: #ff0000; stroke-width: 0.24"/>
    <path d="M 349.566821 144.156611 
L 346.192389 142.550685 
L 346.738536 141.98286 
L 335.382041 131.059915 
L 335.928188 130.49209 
L 347.284683 141.415036 
L 347.830831 140.847211 
z
" clip-path="url(#p788c1a665b)" style="fill: #ff0000; stroke: #ff0000; stroke-width: 0.24"/>
    <path d="M 351.602188 145.227987 
L 348.179151 143.72845 
L 348.707261 143.143812 
L 337.014496 132.581617 
L 337.542606 131.996978 
L 349.235371 142.559174 
L 349.76348 141.974535 
z
" clip-path="url(#p788c1a665b)" style="fill: #ff0000; stroke: #ff0000; stroke-width: 0.24"/>
    <path d="M 353.670176 146.235148 
L 350.201887 144.843473 
L 350.711441 144.242593 
L 338.69385 134.051507 
L 339.203405 133.450628 
L 351.220995 143.641714 
L 351.73055 143.040834 
z
" clip-path="url(#p788c1a665b)" style="fill: #ff0000; stroke: #ff0000; stroke-width: 0.24"/>
    <path d="M 355.768492 147.176978 
L 352.258347 145.894528 
L 352.748847 145.277996 
L 340.418204 135.468003 
L 340.908704 134.851471 
L 353.239347 144.661463 
L 353.729846 144.044931 
z
" clip-path="url(#p788c1a665b)" style="fill: #ff0000; stroke: #ff0000; stroke-width: 0.24"/>
    <path d="M 357.895341 148.052674 
L 354.34678 146.880705 
L 354.817745 146.249124 
L 342.186129 136.829835 
L 342.657094 136.198254 
L 355.288709 145.617543 
L 355.759674 144.985962 
z
" clip-path="url(#p788c1a665b)" style="fill: #ff0000; stroke: #ff0000; stroke-width: 0.24"/>
    <path d="M 360.048618 148.861459 
L 356.465119 147.801116 
L 356.916088 147.155106 
L 343.995883 138.135735 
L 344.446852 137.489725 
L 357.367056 146.509096 
L 357.818025 145.863086 
z
" clip-path="url(#p788c1a665b)" style="fill: #ff0000; stroke: #ff0000; stroke-width: 0.24"/>
    <path d="M 362.225951 149.602523 
L 358.611023 148.654848 
L 359.041553 147.995041 
L 345.845409 139.384437 
L 346.275939 138.72463 
L 359.472083 147.335233 
L 359.902613 146.675426 
z
" clip-path="url(#p788c1a665b)" style="fill: #ff0000; stroke: #ff0000; stroke-width: 0.24"/>
    <path d="M 364.425579 150.274952 
L 360.782763 149.440874 
L 361.192433 148.767916 
L 347.733276 140.574515 
L 348.142946 139.901557 
L 361.602103 148.094958 
L 362.011773 147.422 
z
" clip-path="url(#p788c1a665b)" style="fill: #ff0000; stroke: #ff0000; stroke-width: 0.24"/>
    <path d="M 366.645138 150.878302 
L 362.978004 150.158638 
L 363.366412 149.473188 
L 349.657428 141.705018 
L 350.045837 141.019568 
L 363.754821 148.787739 
L 364.143229 148.10229 
z
" clip-path="url(#p788c1a665b)" style="fill: #ff0000; stroke: #ff0000; stroke-width: 0.24"/>
    <path d="M 368.882428 151.41184 
L 365.194569 150.807291 
L 365.561336 150.110022 
L 351.615962 142.774677 
L 351.98273 142.077409 
L 365.928103 149.412753 
L 366.29487 148.715485 
z
" clip-path="url(#p788c1a665b)" style="fill: #ff0000; stroke: #ff0000; stroke-width: 0.24"/>
    <path d="M 371.135452 151.875107 
L 367.430479 151.386268 
L 367.775245 150.677863 
L 353.607136 143.782544 
L 353.951902 143.074139 
L 368.120011 149.969457 
L 368.464776 149.261052 
z
" clip-path="url(#p788c1a665b)" style="fill: #ff0000; stroke: #ff0000; stroke-width: 0.24"/>
    <path d="M 373.401726 152.2677 
L 369.683268 151.895052 
L 370.005695 151.176203 
L 355.628732 144.727666 
L 355.951159 144.008818 
L 370.328122 150.457355 
L 370.650549 149.738507 
z
" clip-path="url(#p788c1a665b)" style="fill: #ff0000; stroke: #ff0000; stroke-width: 0.24"/>
    <path d="M 375.679266 152.589055 
L 371.950967 152.332961 
L 372.250739 151.604374 
L 357.679005 145.608935 
L 357.978777 144.880349 
L 372.550511 150.875788 
L 372.850283 150.147201 
z
" clip-path="url(#p788c1a665b)" style="fill: #ff0000; stroke: #ff0000; stroke-width: 0.24"/>
    <path d="M 377.96579 152.839083 
L 374.231303 152.699796 
L 374.508126 151.962184 
L 359.755898 146.425717 
L 360.032721 145.688106 
L 374.78495 151.224573 
L 375.061773 150.486961 
z
" clip-path="url(#p788c1a665b)" style="fill: #ff0000; stroke: #ff0000; stroke-width: 0.24"/>
    <path d="M 380.259026 153.01741 
L 376.52201 152.995061 
L 376.775614 152.249147 
L 361.857348 147.177062 
L 362.110953 146.431148 
L 377.029219 151.503234 
L 377.282823 150.757321 
z
" clip-path="url(#p788c1a665b)" style="fill: #ff0000; stroke: #ff0000; stroke-width: 0.24"/>
    <path d="M 382.556584 153.123767 
L 378.820699 153.218382 
L 379.050835 152.464898 
L 363.981141 147.862177 
L 364.211277 147.108692 
L 379.280971 151.711413 
L 379.511107 150.957928 
z
" clip-path="url(#p788c1a665b)" style="fill: #ff0000; stroke: #ff0000; stroke-width: 0.24"/>
    <path d="M 384.855753 153.158264 
L 381.124658 153.369751 
L 381.331101 152.609433 
L 366.124742 148.480586 
L 366.331184 147.720268 
L 381.537543 151.849115 
L 381.743985 151.088797 
z
" clip-path="url(#p788c1a665b)" style="fill: #ff0000; stroke: #ff0000; stroke-width: 0.24"/>
    <path d="M 387.155738 153.12084 
L 383.43309 153.44899 
L 383.615636 152.682584 
L 368.28751 149.031656 
L 368.470057 148.26525 
L 383.798183 151.916178 
L 383.980729 151.149771 
z
" clip-path="url(#p788c1a665b)" style="fill: #ff0000; stroke: #ff0000; stroke-width: 0.24"/>
    <path d="M 389.453081 153.011455 
L 385.742526 153.455945 
L 385.900998 152.684201 
L 370.466125 149.514754 
L 370.624597 148.74301 
L 386.059471 151.912458 
L 386.217943 151.140714 
z
" clip-path="url(#p788c1a665b)" style="fill: #ff0000; stroke: #ff0000; stroke-width: 0.24"/>
    <path d="M 391.478219 152.783222 
L 387.783392 153.34362 
L 387.917634 152.567294 
L 372.391131 149.882448 
L 372.525373 149.106122 
L 388.051877 151.790969 
L 388.186119 151.014644 
z
" clip-path="url(#p788c1a665b)" style="fill: #ff0000; stroke: #ff0000; stroke-width: 0.24"/>
    <path d="M 389.378468 151.842548 
L 385.702989 152.518304 
L 385.81287 151.738158 
L 370.209947 149.540542 
L 370.319828 148.760396 
L 385.922751 150.958012 
L 386.032632 150.177866 
z
" clip-path="url(#p788c1a665b)" style="fill: #ff0000; stroke: #ff0000; stroke-width: 0.24"/>
    <path d="M 387.252114 150.967937 
L 383.599584 151.758389 
L 383.684996 150.975187 
L 368.020939 149.266954 
L 368.106351 148.483752 
L 383.770407 150.191984 
L 383.855819 149.408781 
z
" clip-path="url(#p788c1a665b)" style="fill: #ff0000; stroke: #ff0000; stroke-width: 0.24"/>
    <path d="M 385.097507 150.160299 
L 381.471504 151.064672 
L 381.532363 150.27918 
L 365.822519 149.061999 
L 365.883378 148.276506 
L 381.593222 149.493687 
L 381.654081 148.708195 
z
" clip-path="url(#p788c1a665b)" style="fill: #ff0000; stroke: #ff0000; stroke-width: 0.24"/>
    <path d="M 382.919793 149.420527 
L 379.323868 150.437935 
L 379.360115 149.650923 
L 363.619874 148.925988 
L 363.656121 148.138976 
L 379.396362 148.863911 
L 379.432608 148.076899 
z
" clip-path="url(#p788c1a665b)" style="fill: #ff0000; stroke: #ff0000; stroke-width: 0.24"/>
    <path d="M 380.71988 148.749375 
L 377.157557 149.878821 
L 377.169156 149.09106 
L 361.413938 148.859081 
L 361.425537 148.07132 
L 377.180755 148.303299 
L 377.192354 147.515538 
z
" clip-path="url(#p788c1a665b)" style="fill: #ff0000; stroke: #ff0000; stroke-width: 0.24"/>
    <path d="M 378.499956 148.147273 
L 374.974726 149.387651 
L 374.961665 148.599913 
L 359.206904 148.861118 
L 359.193844 148.07338 
L 374.948605 147.812175 
L 374.935545 147.024437 
z
" clip-path="url(#p788c1a665b)" style="fill: #ff0000; stroke: #ff0000; stroke-width: 0.24"/>
    <path d="M 376.262386 147.614815 
L 372.777701 148.96491 
L 372.739994 148.177966 
L 357.001125 148.932099 
L 356.963418 148.145156 
L 372.702288 147.391023 
L 372.664581 146.604079 
z
" clip-path="url(#p788c1a665b)" style="fill: #ff0000; stroke: #ff0000; stroke-width: 0.24"/>
    <path d="M 374.00908 147.152907 
L 370.568354 148.611397 
L 370.506037 147.826019 
L 354.798479 149.072341 
L 354.736163 148.286963 
L 370.443721 147.040641 
L 370.381405 146.255263 
z
" clip-path="url(#p788c1a665b)" style="fill: #ff0000; stroke: #ff0000; stroke-width: 0.24"/>
    <path d="M 371.742596 146.761516 
L 368.349199 148.32697 
L 368.262335 147.543927 
L 352.601474 149.281213 
L 352.51461 148.49817 
L 368.175471 146.760884 
L 368.088606 145.977841 
z
" clip-path="url(#p788c1a665b)" style="fill: #ff0000; stroke: #ff0000; stroke-width: 0.24"/>
    <path d="M 369.464881 146.441374 
L 366.122138 148.11226 
L 366.01081 147.332319 
L 350.411991 149.558875 
L 350.300663 148.778934 
L 365.899482 146.552378 
L 365.788155 145.772438 
z
" clip-path="url(#p788c1a665b)" style="fill: #ff0000; stroke: #ff0000; stroke-width: 0.24"/>
    <path d="M 367.178214 146.192604 
L 363.889401 147.967286 
L 363.753718 147.191211 
L 348.232222 149.904855 
L 348.09654 149.12878 
L 363.618036 146.415136 
L 363.482354 145.639061 
z
" clip-path="url(#p788c1a665b)" style="fill: #ff0000; stroke: #ff0000; stroke-width: 0.24"/>
    <path d="M 364.885053 146.015633 
L 361.653391 147.892372 
L 361.493487 147.120924 
L 346.064519 150.318997 
L 345.904616 149.547549 
L 361.333584 146.349475 
L 361.17368 145.578027 
z
" clip-path="url(#p788c1a665b)" style="fill: #ff0000; stroke: #ff0000; stroke-width: 0.24"/>
    <path d="M 362.587246 145.910431 
L 359.415899 147.887385 
L 359.231932 147.121319 
L 343.910604 150.800674 
L 343.726637 150.034608 
L 359.047964 146.355253 
L 358.863996 145.589186 
z
" clip-path="url(#p788c1a665b)" style="fill: #ff0000; stroke: #ff0000; stroke-width: 0.24"/>
    <path d="M 360.287436 145.877223 
L 357.179513 147.952459 
L 356.97166 147.192526 
L 341.772987 151.349573 
L 341.565135 150.589639 
L 356.763808 146.432592 
L 356.555956 145.672658 
z
" clip-path="url(#p788c1a665b)" style="fill: #ff0000; stroke: #ff0000; stroke-width: 0.24"/>
    <path d="M 357.987663 145.915971 
L 354.946209 148.087456 
L 354.714676 147.334399 
L 339.653546 151.965066 
L 339.422012 151.21201 
L 354.483142 146.581343 
L 354.251609 145.828286 
z
" clip-path="url(#p788c1a665b)" style="fill: #ff0000; stroke: #ff0000; stroke-width: 0.24"/>
    <path d="M 355.6903 146.026613 
L 352.718294 148.292219 
L 352.463307 147.546777 
L 337.554475 152.646528 
L 337.299487 151.901086 
L 352.208319 146.801336 
L 351.953332 146.055894 
z
" clip-path="url(#p788c1a665b)" style="fill: #ff0000; stroke: #ff0000; stroke-width: 0.24"/>
    <path d="M 353.397426 146.209257 
L 350.497778 148.566762 
L 350.219587 147.829665 
L 335.477654 153.393488 
L 335.199463 152.656391 
L 349.941396 147.092569 
L 349.663205 146.355472 
z
" clip-path="url(#p788c1a665b)" style="fill: #ff0000; stroke: #ff0000; stroke-width: 0.24"/>
    <path d="M 351.111435 146.463478 
L 348.286988 148.910576 
L 347.985865 148.182546 
L 333.425277 154.205005 
L 333.124154 153.476976 
L 347.684742 147.454517 
L 347.383619 146.726487 
z
" clip-path="url(#p788c1a665b)" style="fill: #ff0000; stroke: #ff0000; stroke-width: 0.24"/>
    <path d="M 348.8346 146.789058 
L 346.08812 149.32335 
L 345.76436 148.605101 
L 331.399383 155.080297 
L 331.075623 154.362048 
L 345.4406 147.886853 
L 345.11684 147.168604 
z
" clip-path="url(#p788c1a665b)" style="fill: #ff0000; stroke: #ff0000; stroke-width: 0.24"/>
    <path d="M 346.568887 147.185909 
L 343.903065 149.804913 
L 343.556986 149.097149 
L 329.401692 156.018737 
L 329.055613 155.310973 
L 343.210906 148.389384 
L 342.864827 147.681619 
z
" clip-path="url(#p788c1a665b)" style="fill: #ff0000; stroke: #ff0000; stroke-width: 0.24"/>
    <path d="M 344.316755 147.653306 
L 341.734203 150.354457 
L 341.366143 149.65787 
L 327.4344 157.019071 
L 327.06634 156.322483 
L 340.998083 148.961283 
L 340.630023 148.264696 
z
" clip-path="url(#p788c1a665b)" style="fill: #ff0000; stroke: #ff0000; stroke-width: 0.24"/>
    <path d="M 342.08053 148.191007 
L 339.583775 150.971655 
L 339.194095 150.286928 
L 325.499545 158.080515 
L 325.109865 157.395787 
L 338.804416 149.6022 
L 338.414737 148.917473 
z
" clip-path="url(#p788c1a665b)" style="fill: #ff0000; stroke: #ff0000; stroke-width: 0.24"/>
    <path d="M 339.862053 148.798392 
L 337.453544 151.655817 
L 337.042626 150.98362 
L 323.598691 159.201973 
L 323.187774 158.529776 
L 336.631709 150.311423 
L 336.220791 149.639226 
z
" clip-path="url(#p788c1a665b)" style="fill: #ff0000; stroke: #ff0000; stroke-width: 0.24"/>
    <path d="M 337.663683 149.475044 
L 335.34578 152.406445 
L 334.914027 151.747438 
L 321.733877 160.382505 
L 321.302124 159.723497 
L 334.482273 151.08843 
L 334.05052 150.429423 
z
" clip-path="url(#p788c1a665b)" style="fill: #ff0000; stroke: #ff0000; stroke-width: 0.24"/>
    <path d="M 335.487628 150.220044 
L 333.262601 153.22255 
L 332.810435 152.577378 
L 319.906984 161.6207 
L 319.454818 160.975527 
L 332.358269 151.932205 
L 331.906103 151.287033 
z
" clip-path="url(#p788c1a665b)" style="fill: #ff0000; stroke: #ff0000; stroke-width: 0.24"/>
    <path d="M 333.335964 151.032795 
L 331.20599 154.103463 
L 330.733854 153.472757 
L 318.119733 162.915461 
L 317.647598 162.284755 
L 330.261719 152.842051 
L 329.789584 152.211345 
z
" clip-path="url(#p788c1a665b)" style="fill: #ff0000; stroke: #ff0000; stroke-width: 0.24"/>
    <path d="M 331.210749 151.912485 
L 329.177917 155.048308 
L 328.686275 154.432686 
L 316.37385 164.265536 
L 315.882208 163.649914 
L 328.194632 153.817065 
L 327.70299 153.201444 
z
" clip-path="url(#p788c1a665b)" style="fill: #ff0000; stroke: #ff0000; stroke-width: 0.24"/>
    <path d="M 329.114089 152.858178 
L 327.180391 156.056084 
L 326.669723 155.456151 
L 314.671058 165.669512 
L 314.16039 165.069579 
L 326.159055 154.856218 
L 325.648387 154.256285 
z
" clip-path="url(#p788c1a665b)" style="fill: #ff0000; stroke: #ff0000; stroke-width: 0.24"/>
    <path d="M 327.048095 153.86923 
L 325.215425 157.126086 
L 324.686232 156.542429 
L 313.01308 167.126296 
L 312.483887 166.542638 
L 324.157039 155.958771 
L 323.627845 155.375114 
z
" clip-path="url(#p788c1a665b)" style="fill: #ff0000; stroke: #ff0000; stroke-width: 0.24"/>
    <path d="M 325.014732 154.944351 
L 323.284886 158.256967 
L 322.737686 157.690157 
L 311.401484 168.634161 
L 310.854284 168.067351 
L 322.190486 157.123347 
L 321.643286 156.556536 
z
" clip-path="url(#p788c1a665b)" style="fill: #ff0000; stroke: #ff0000; stroke-width: 0.24"/>
    <path d="M 323.015994 156.082568 
L 321.390664 159.447697 
L 320.825994 158.898289 
L 309.837835 170.191698 
L 309.273165 169.642291 
L 320.261323 158.348881 
L 319.696653 157.799473 
z
" clip-path="url(#p788c1a665b)" style="fill: #ff0000; stroke: #ff0000; stroke-width: 0.24"/>
    <path d="M 321.234423 157.085422 
L 319.715204 160.499769 
L 319.133616 159.968302 
L 308.504277 171.600063 
L 307.922689 171.068597 
L 318.552027 159.436835 
L 317.970439 158.905368 
z
" clip-path="url(#p788c1a665b)" style="fill: #ff0000; stroke: #ff0000; stroke-width: 0.24"/>
    <path d="M 319.126463 158.471801 
L 317.725347 161.936288 
L 317.125858 161.425099 
L 306.902082 173.414892 
L 306.302592 172.903703 
L 316.526368 160.91391 
L 315.926878 160.402721 
z
" clip-path="url(#p788c1a665b)" style="fill: #ff0000; stroke: #ff0000; stroke-width: 0.24"/>
    <path d="M 317.067412 159.92971 
L 315.786049 163.440251 
L 315.169365 162.949942 
L 305.363191 175.283623 
L 304.746507 174.793314 
L 314.552681 162.459633 
L 313.935997 161.969325 
z
" clip-path="url(#p788c1a665b)" style="fill: #ff0000; stroke: #ff0000; stroke-width: 0.24"/>
    <path d="M 315.967804 162.176054 
L 314.58381 165.647416 
L 313.981804 165.139193 
L 303.817346 177.179314 
L 303.21534 176.671091 
L 313.379798 164.63097 
L 312.777792 164.122747 
z
" clip-path="url(#p788c1a665b)" style="fill: #ff0000; stroke: #ff0000; stroke-width: 0.24"/>
    <path d="M 314.864599 164.445017 
L 313.362259 167.866824 
L 312.778053 167.338235 
L 302.206281 179.022342 
L 301.622076 178.493754 
L 312.193848 166.809647 
L 311.609643 166.281058 
z
" clip-path="url(#p788c1a665b)" style="fill: #ff0000; stroke: #ff0000; stroke-width: 0.24"/>
    <path d="M 313.684376 166.674927 
L 312.065457 170.043144 
L 311.499741 169.494812 
L 300.533105 180.809123 
L 299.96739 180.260791 
L 310.934026 168.946481 
L 310.36831 168.398149 
z
" clip-path="url(#p788c1a665b)" style="fill: #ff0000; stroke: #ff0000; stroke-width: 0.24"/>
    <path d="M 312.428113 168.86286 
L 310.694525 172.173519 
L 310.147966 171.606091 
L 298.799404 182.537279 
L 298.252845 181.969851 
L 309.601407 171.038663 
L 309.054847 170.471235 
z
" clip-path="url(#p788c1a665b)" style="fill: #ff0000; stroke: #ff0000; stroke-width: 0.24"/>
    <path d="M 311.09749 171.006557 
L 309.251276 174.255754 
L 308.724517 173.669898 
L 297.007395 184.205067 
L 296.480637 183.619211 
L 308.197759 173.084042 
L 307.671 172.498186 
z
" clip-path="url(#p788c1a665b)" style="fill: #ff0000; stroke: #ff0000; stroke-width: 0.24"/>
    <path d="M 309.694156 173.103213 
L 307.737494 176.287119 
L 307.231157 175.683526 
L 295.159297 185.810269 
L 294.65296 185.206676 
L 306.724819 175.079933 
L 306.218482 174.47634 
z
" clip-path="url(#p788c1a665b)" style="fill: #ff0000; stroke: #ff0000; stroke-width: 0.24"/>
    <path d="M 308.219661 175.15036 
L 306.154856 178.265223 
L 305.669537 177.644605 
L 293.257169 187.350986 
L 292.77185 186.730367 
L 305.184218 177.023986 
L 304.698899 176.403368 
z
" clip-path="url(#p788c1a665b)" style="fill: #ff0000; stroke: #ff0000; stroke-width: 0.24"/>
    <path d="M 306.675729 177.145831 
L 304.505213 180.187978 
L 304.041485 179.551065 
L 291.303229 188.82563 
L 290.839501 188.188717 
L 303.577757 178.914152 
L 303.114029 178.277239 
z
" clip-path="url(#p788c1a665b)" style="fill: #ff0000; stroke: #ff0000; stroke-width: 0.24"/>
    <path d="M 305.06423 179.087082 
L 302.790566 182.052927 
L 302.348974 181.400472 
L 289.299855 190.232301 
L 288.858264 189.579845 
L 301.907383 180.748016 
L 301.465791 180.09556 
z
" clip-path="url(#p788c1a665b)" style="fill: #ff0000; stroke: #ff0000; stroke-width: 0.24"/>
    <path d="M 303.386944 180.971928 
L 301.012808 183.857975 
L 300.593874 183.190745 
L 287.249265 191.569416 
L 286.830331 190.902185 
L 300.17494 182.523514 
L 299.756007 181.856284 
z
" clip-path="url(#p788c1a665b)" style="fill: #ff0000; stroke: #ff0000; stroke-width: 0.24"/>
    <path d="M 301.645945 182.798109 
L 299.174137 185.600957 
L 298.778355 184.919739 
L 285.153993 192.835388 
L 284.758211 192.15417 
L 298.382572 184.238521 
L 297.98679 183.557303 
z
" clip-path="url(#p788c1a665b)" style="fill: #ff0000; stroke: #ff0000; stroke-width: 0.24"/>
    <path d="M 299.843368 184.563253 
L 297.276801 187.279597 
L 296.904637 186.585194 
L 283.016575 194.028477 
L 282.644411 193.334074 
L 296.532472 185.890791 
L 296.160308 185.196387 
z
" clip-path="url(#p788c1a665b)" style="fill: #ff0000; stroke: #ff0000; stroke-width: 0.24"/>
    <path d="M 297.981337 186.265702 
L 295.323037 188.892341 
L 294.974929 188.185572 
L 280.839545 195.147729 
L 280.491437 194.44096 
L 294.626821 187.478802 
L 294.278713 186.772033 
z
" clip-path="url(#p788c1a665b)" style="fill: #ff0000; stroke: #ff0000; stroke-width: 0.24"/>
    <path d="M 296.061874 187.90306 
L 293.314973 190.436896 
L 292.991333 189.718594 
L 278.625281 196.191405 
L 278.301641 195.473102 
L 292.667692 189.000291 
L 292.344052 188.281988 
z
" clip-path="url(#p788c1a665b)" style="fill: #ff0000; stroke: #ff0000; stroke-width: 0.24"/>
    <path d="M 294.087309 189.473641 
L 291.255048 191.91169 
L 290.956255 191.182701 
L 276.376477 197.15855 
L 276.077684 196.429562 
L 290.657463 190.453712 
L 290.35867 189.724724 
z
" clip-path="url(#p788c1a665b)" style="fill: #ff0000; stroke: #ff0000; stroke-width: 0.24"/>
    <path d="M 292.060021 190.975484 
L 289.145737 193.314873 
L 288.872145 192.576057 
L 274.095824 198.0479 
L 273.822232 197.309084 
L 288.598553 191.837241 
L 288.324961 191.098425 
z
" clip-path="url(#p788c1a665b)" style="fill: #ff0000; stroke: #ff0000; stroke-width: 0.24"/>
    <path d="M 289.98241 192.406935 
L 286.989537 194.644902 
L 286.741468 193.89713 
L 271.786018 198.858503 
L 271.537949 198.11073 
L 286.4934 193.149357 
L 286.245331 192.401585 
z
" clip-path="url(#p788c1a665b)" style="fill: #ff0000; stroke: #ff0000; stroke-width: 0.24"/>
    <path d="M 287.856885 193.766116 
L 284.788952 195.900027 
L 284.566698 195.14418 
L 269.449752 199.58925 
L 269.227498 198.833402 
L 284.344445 194.388333 
L 284.122191 193.632486 
z
" clip-path="url(#p788c1a665b)" style="fill: #ff0000; stroke: #ff0000; stroke-width: 0.24"/>
    <path d="M 285.685901 195.051531 
L 282.546522 197.078869 
L 282.350347 196.315837 
L 267.089719 200.239348 
L 266.893543 199.476317 
L 282.154171 195.552806 
L 281.957996 194.789774 
z
" clip-path="url(#p788c1a665b)" style="fill: #ff0000; stroke: #ff0000; stroke-width: 0.24"/>
    <path d="M 283.472077 196.261761 
L 280.264956 198.180137 
L 280.095089 197.410821 
L 264.708771 200.808164 
L 264.538904 200.038848 
L 279.925222 196.641505 
L 279.755355 195.872189 
z
" clip-path="url(#p788c1a665b)" style="fill: #ff0000; stroke: #ff0000; stroke-width: 0.24"/>
    <path d="M 281.21792 197.395293 
L 277.946835 199.202444 
L 277.803477 198.42775 
L 262.309603 201.294906 
L 262.166245 200.520212 
L 277.660119 197.653057 
L 277.516761 196.878363 
z
" clip-path="url(#p788c1a665b)" style="fill: #ff0000; stroke: #ff0000; stroke-width: 0.24"/>
    <path d="M 278.926417 198.450696 
L 275.595226 200.144494 
L 275.478545 199.365336 
L 259.895381 201.69894 
L 259.778701 200.919782 
L 275.361865 198.586178 
L 275.245185 197.80702 
z
" clip-path="url(#p788c1a665b)" style="fill: #ff0000; stroke: #ff0000; stroke-width: 0.24"/>
    <path d="M 276.599811 199.426764 
L 273.212437 201.00521 
L 273.122573 200.222505 
L 257.468485 202.019791 
L 257.37862 201.237086 
L 273.032709 199.439801 
L 272.942845 198.657096 
z
" clip-path="url(#p788c1a665b)" style="fill: #ff0000; stroke: #ff0000; stroke-width: 0.24"/>
    <path d="M 274.241144 200.322526 
L 270.801583 201.783762 
L 270.73864 200.998434 
L 255.032082 202.257299 
L 254.969138 201.471971 
L 270.675697 200.213106 
L 270.612754 199.427779 
z
" clip-path="url(#p788c1a665b)" style="fill: #ff0000; stroke: #ff0000; stroke-width: 0.24"/>
    <path d="M 271.853181 201.136602 
L 268.365487 202.478905 
L 268.329539 201.691879 
L 252.589023 202.410832 
L 252.553076 201.623807 
L 268.293591 200.904853 
L 268.257644 200.117828 
z
" clip-path="url(#p788c1a665b)" style="fill: #ff0000; stroke: #ff0000; stroke-width: 0.24"/>
    <path d="M 269.438708 201.868364 
L 265.90699 203.090151 
L 265.898081 202.302355 
L 250.142162 202.480548 
L 250.133253 201.692752 
L 265.889171 201.514559 
L 265.880262 200.726763 
z
" clip-path="url(#p788c1a665b)" style="fill: #ff0000; stroke: #ff0000; stroke-width: 0.24"/>
    <path d="M 267.00038 202.516869 
L 263.428804 203.616701 
L 263.446942 202.829063 
L 247.694193 202.466287 
L 247.712332 201.67865 
L 263.465081 202.041426 
L 263.48322 201.253788 
z
" clip-path="url(#p788c1a665b)" style="fill: #ff0000; stroke: #ff0000; stroke-width: 0.24"/>
    <path d="M 264.541355 203.081181 
L 260.934129 204.057761 
L 260.979295 203.27121 
L 245.248283 202.367893 
L 245.293449 201.581343 
L 261.024461 202.48466 
L 261.069626 201.698109 
z
" clip-path="url(#p788c1a665b)" style="fill: #ff0000; stroke: #ff0000; stroke-width: 0.24"/>
    <path d="M 262.902769 203.635368 
L 259.264144 204.487544 
L 259.336284 203.703007 
L 243.645552 202.260212 
L 243.717692 201.475675 
L 259.408424 202.91847 
L 259.480564 202.133934 
z
" clip-path="url(#p788c1a665b)" style="fill: #ff0000; stroke: #ff0000; stroke-width: 0.24"/>
    <path d="M 265.250716 204.558709 
L 261.584983 205.285476 
L 261.684012 204.503878 
L 246.052056 202.523301 
L 246.151085 201.741704 
L 261.783041 203.722281 
L 261.88207 202.940683 
z
" clip-path="url(#p788c1a665b)" style="fill: #ff0000; stroke: #ff0000; stroke-width: 0.24"/>
    <path d="M 267.565695 205.5619 
L 263.877174 206.162404 
L 264.002975 205.384666 
L 248.44822 202.868654 
L 248.57402 202.090916 
L 264.128775 204.606928 
L 264.254576 203.82919 
z
" clip-path="url(#p788c1a665b)" style="fill: #ff0000; stroke: #ff0000; stroke-width: 0.24"/>
    <path d="M 269.84482 206.644181 
L 266.13786 207.117714 
L 266.290284 206.344753 
L 250.831064 203.296272 
L 250.983488 202.523311 
L 266.442708 205.571792 
L 266.595132 204.798831 
z
" clip-path="url(#p788c1a665b)" style="fill: #ff0000; stroke: #ff0000; stroke-width: 0.24"/>
    <path d="M 272.08539 207.804015 
L 268.364358 208.150016 
L 268.543227 207.382743 
L 253.197768 203.805371 
L 253.376636 203.038098 
L 268.722096 206.61547 
L 268.900964 205.848197 
z
" clip-path="url(#p788c1a665b)" style="fill: #ff0000; stroke: #ff0000; stroke-width: 0.24"/>
    <path d="M 274.284897 209.039971 
L 270.554182 209.258035 
L 270.759283 208.497354 
L 255.545669 204.395323 
L 255.75077 203.634642 
L 270.964385 207.736674 
L 271.169486 206.975993 
z
" clip-path="url(#p788c1a665b)" style="fill: #ff0000; stroke: #ff0000; stroke-width: 0.24"/>
    <path d="M 276.440687 210.350855 
L 272.704685 210.440722 
L 272.935778 209.68753 
L 257.871946 205.06566 
L 258.10304 204.312468 
L 273.166872 208.934339 
L 273.397965 208.181147 
z
" clip-path="url(#p788c1a665b)" style="fill: #ff0000; stroke: #ff0000; stroke-width: 0.24"/>
    <path d="M 278.55015 211.734777 
L 274.813265 211.696344 
L 275.070077 210.951529 
L 260.173779 205.815283 
L 260.430592 205.070468 
L 275.326889 210.206714 
L 275.583702 209.461899 
z
" clip-path="url(#p788c1a665b)" style="fill: #ff0000; stroke: #ff0000; stroke-width: 0.24"/>
    <path d="M 280.610838 213.190401 
L 276.877474 213.02371 
L 277.159704 212.28815 
L 262.448504 206.643566 
L 262.730733 205.908006 
L 277.441933 211.55259 
L 277.724162 210.81703 
z
" clip-path="url(#p788c1a665b)" style="fill: #ff0000; stroke: #ff0000; stroke-width: 0.24"/>
    <path d="M 282.62051 214.71601 
L 278.895068 214.421261 
L 279.202381 213.695823 
L 264.693614 207.549571 
L 265.000927 206.824133 
L 279.509694 212.970384 
L 279.817006 212.244946 
z
" clip-path="url(#p788c1a665b)" style="fill: #ff0000; stroke: #ff0000; stroke-width: 0.24"/>
    <path d="M 284.57645 216.309498 
L 280.863322 215.887035 
L 281.195357 215.172574 
L 266.906131 208.531884 
L 267.238166 207.817423 
L 281.527391 214.458113 
L 281.859426 213.743651 
z
" clip-path="url(#p788c1a665b)" style="fill: #ff0000; stroke: #ff0000; stroke-width: 0.24"/>
    <path d="M 286.476626 217.969329 
L 282.780189 217.419653 
L 283.136554 216.717011 
L 269.083707 209.589725 
L 269.440071 208.887082 
L 283.492918 216.014368 
L 283.849282 215.311726 
z
" clip-path="url(#p788c1a665b)" style="fill: #ff0000; stroke: #ff0000; stroke-width: 0.24"/>
    <path d="M 288.735559 218.398976 
L 285.023734 217.96522 
L 285.35794 217.251772 
L 271.088982 210.567645 
L 271.423188 209.854197 
L 285.692147 216.538324 
L 286.026353 215.824876 
z
" clip-path="url(#p788c1a665b)" style="fill: #ff0000; stroke: #ff0000; stroke-width: 0.24"/>
    <path d="M 290.388691 218.489729 
L 286.665112 218.172313 
L 286.976834 217.448758 
L 272.505742 211.21432 
L 272.817464 210.490766 
L 287.288556 216.725203 
L 287.600278 216.001649 
z
" clip-path="url(#p788c1a665b)" style="fill: #ff0000; stroke: #ff0000; stroke-width: 0.24"/>
    <path d="M 288.567877 217.085533 
L 284.836191 216.884771 
L 285.125122 216.151818 
L 270.466058 210.373188 
L 270.75499 209.640235 
L 285.414054 215.418865 
L 285.702985 214.685912 
z
" clip-path="url(#p788c1a665b)" style="fill: #ff0000; stroke: #ff0000; stroke-width: 0.24"/>
    <path d="M 286.703949 215.73887 
L 282.967808 215.654955 
L 283.233667 214.913322 
L 268.400989 209.596142 
L 268.666848 208.854508 
L 283.499526 214.171688 
L 283.765385 213.430054 
z
" clip-path="url(#p788c1a665b)" style="fill: #ff0000; stroke: #ff0000; stroke-width: 0.24"/>
    <path d="M 284.798916 214.45136 
L 281.061979 214.484379 
L 281.304505 213.73479 
L 266.31273 208.884282 
L 266.555256 208.134694 
L 281.54703 212.985202 
L 281.789555 212.235613 
z
" clip-path="url(#p788c1a665b)" style="fill: #ff0000; stroke: #ff0000; stroke-width: 0.24"/>
    <path d="M 282.854468 213.223915 
L 279.120393 213.373831 
L 279.339348 212.617022 
L 264.203161 208.23792 
L 264.422116 207.48111 
L 279.558304 211.860213 
L 279.777259 211.103403 
z
" clip-path="url(#p788c1a665b)" style="fill: #ff0000; stroke: #ff0000; stroke-width: 0.24"/>
    <path d="M 280.87249 212.058009 
L 277.144934 212.324679 
L 277.340104 211.56139 
L 262.074317 207.657996 
L 262.269487 206.894706 
L 277.535273 210.798101 
L 277.730443 210.034811 
z
" clip-path="url(#p788c1a665b)" style="fill: #ff0000; stroke: #ff0000; stroke-width: 0.24"/>
    <path d="M 280.360755 211.298538 
L 276.643367 211.681698 
L 276.814561 210.912676 
L 261.434126 207.488796 
L 261.60532 206.719775 
L 276.985755 210.143654 
L 277.156949 209.374633 
z
" clip-path="url(#p788c1a665b)" style="fill: #ff0000; stroke: #ff0000; stroke-width: 0.24"/>
    <path d="M 282.655637 211.155134 
L 278.952056 211.654412 
L 279.099106 210.880411 
L 263.619078 207.939413 
L 263.766128 207.165412 
L 279.246156 210.106409 
L 279.393206 209.332408 
z
" clip-path="url(#p788c1a665b)" style="fill: #ff0000; stroke: #ff0000; stroke-width: 0.24"/>
    <path d="M 284.945027 210.939995 
L 281.258879 211.554898 
L 281.381642 210.776675 
L 265.81718 208.321423 
L 265.939943 207.5432 
L 281.504404 209.998452 
L 281.627167 209.220229 
z
" clip-path="url(#p788c1a665b)" style="fill: #ff0000; stroke: #ff0000; stroke-width: 0.24"/>
    <path d="M 287.226467 210.653506 
L 283.561362 211.383437 
L 283.659716 210.601754 
L 268.026057 208.634668 
L 268.124412 207.852985 
L 283.758071 209.820071 
L 283.856425 209.038388 
z
" clip-path="url(#p788c1a665b)" style="fill: #ff0000; stroke: #ff0000; stroke-width: 0.24"/>
    <path d="M 289.497821 210.295655 
L 285.857347 211.139895 
L 285.931197 210.355518 
L 270.243649 208.878514 
L 270.317499 208.094137 
L 286.005048 209.57114 
L 286.078898 208.786763 
z
" clip-path="url(#p788c1a665b)" style="fill: #ff0000; stroke: #ff0000; stroke-width: 0.24"/>
    <path d="M 291.756978 209.866857 
L 288.1447 210.824581 
L 288.193973 210.038277 
L 272.467894 209.052804 
L 272.517168 208.2665 
L 288.243247 209.251973 
L 288.292521 208.465669 
z
" clip-path="url(#p788c1a665b)" style="fill: #ff0000; stroke: #ff0000; stroke-width: 0.24"/>
    <path d="M 294.001528 209.367702 
L 290.420982 210.437973 
L 290.445631 209.650513 
L 274.696418 209.157535 
L 274.721067 208.370075 
L 290.47028 208.863052 
L 290.494929 208.075591 
z
" clip-path="url(#p788c1a665b)" style="fill: #ff0000; stroke: #ff0000; stroke-width: 0.24"/>
    <path d="M 296.229395 208.79847 
L 292.684087 209.98024 
L 292.684087 209.192393 
L 276.92716 209.192393 
L 276.92716 208.404547 
L 292.684087 208.404547 
L 292.684087 207.616701 
z
" clip-path="url(#p788c1a665b)" style="fill: #ff0000; stroke: #ff0000; stroke-width: 0.24"/>
   </g>
   <g id="matplotlib.axis_1">
    <g id="xtick_1">
     <g id="line2d_1">
      <defs>
       <path id="ma52d6952f9" d="M 0 0 
L 0 -3 
" style="stroke: #000000"/>
      </defs>
      <g>
       <use xlink:href="#ma52d6952f9" x="89.175508" y="290.32" style="stroke: #000000"/>
      </g>
     </g>
     <g id="text_1">
      <!-- 7.5 -->
      <g transform="translate(76.427031 303.898359) scale(0.105 -0.105)">
       <defs>
        <path id="DejaVuSans-2212" d="M 678 2272 
L 4684 2272 
L 4684 1741 
L 678 1741 
L 678 2272 
z
" transform="scale(0.015625)"/>
        <path id="DejaVuSans-37" d="M 525 4666 
L 3525 4666 
L 3525 4397 
L 1831 0 
L 1172 0 
L 2766 4134 
L 525 4134 
L 525 4666 
z
" transform="scale(0.015625)"/>
        <path id="DejaVuSans-2e" d="M 684 794 
L 1344 794 
L 1344 0 
L 684 0 
L 684 794 
z
" transform="scale(0.015625)"/>
        <path id="DejaVuSans-35" d="M 691 4666 
L 3169 4666 
L 3169 4134 
L 1269 4134 
L 1269 2991 
Q 1406 3038 1543 3061 
Q 1681 3084 1819 3084 
Q 2600 3084 3056 2656 
Q 3513 2228 3513 1497 
Q 3513 744 3044 326 
Q 2575 -91 1722 -91 
Q 1428 -91 1123 -41 
Q 819 9 494 109 
L 494 744 
Q 775 591 1075 516 
Q 1375 441 1709 441 
Q 2250 441 2565 725 
Q 2881 1009 2881 1497 
Q 2881 1984 2565 2268 
Q 2250 2553 1709 2553 
Q 1456 2553 1204 2497 
Q 953 2441 691 2322 
L 691 4666 
z
" transform="scale(0.015625)"/>
       </defs>
       <use xlink:href="#DejaVuSans-2212"/>
       <use xlink:href="#DejaVuSans-37" x="83.789062"/>
       <use xlink:href="#DejaVuSans-2e" x="147.412109"/>
       <use xlink:href="#DejaVuSans-35" x="179.199219"/>
      </g>
     </g>
    </g>
    <g id="xtick_2">
     <g id="line2d_2">
      <g>
       <use xlink:href="#ma52d6952f9" x="128.567823" y="290.32" style="stroke: #000000"/>
      </g>
     </g>
     <g id="text_2">
      <!-- 5.0 -->
      <g transform="translate(115.819347 303.898359) scale(0.105 -0.105)">
       <defs>
        <path id="DejaVuSans-30" d="M 2034 4250 
Q 1547 4250 1301 3770 
Q 1056 3291 1056 2328 
Q 1056 1369 1301 889 
Q 1547 409 2034 409 
Q 2525 409 2770 889 
Q 3016 1369 3016 2328 
Q 3016 3291 2770 3770 
Q 2525 4250 2034 4250 
z
M 2034 4750 
Q 2819 4750 3233 4129 
Q 3647 3509 3647 2328 
Q 3647 1150 3233 529 
Q 2819 -91 2034 -91 
Q 1250 -91 836 529 
Q 422 1150 422 2328 
Q 422 3509 836 4129 
Q 1250 4750 2034 4750 
z
" transform="scale(0.015625)"/>
       </defs>
       <use xlink:href="#DejaVuSans-2212"/>
       <use xlink:href="#DejaVuSans-35" x="83.789062"/>
       <use xlink:href="#DejaVuSans-2e" x="147.412109"/>
       <use xlink:href="#DejaVuSans-30" x="179.199219"/>
      </g>
     </g>
    </g>
    <g id="xtick_3">
     <g id="line2d_3">
      <g>
       <use xlink:href="#ma52d6952f9" x="167.960138" y="290.32" style="stroke: #000000"/>
      </g>
     </g>
     <g id="text_3">
      <!-- 2.5 -->
      <g transform="translate(155.211662 303.898359) scale(0.105 -0.105)">
       <defs>
        <path id="DejaVuSans-32" d="M 1228 531 
L 3431 531 
L 3431 0 
L 469 0 
L 469 531 
Q 828 903 1448 1529 
Q 2069 2156 2228 2338 
Q 2531 2678 2651 2914 
Q 2772 3150 2772 3378 
Q 2772 3750 2511 3984 
Q 2250 4219 1831 4219 
Q 1534 4219 1204 4116 
Q 875 4013 500 3803 
L 500 4441 
Q 881 4594 1212 4672 
Q 1544 4750 1819 4750 
Q 2544 4750 2975 4387 
Q 3406 4025 3406 3419 
Q 3406 3131 3298 2873 
Q 3191 2616 2906 2266 
Q 2828 2175 2409 1742 
Q 1991 1309 1228 531 
z
" transform="scale(0.015625)"/>
       </defs>
       <use xlink:href="#DejaVuSans-2212"/>
       <use xlink:href="#DejaVuSans-32" x="83.789062"/>
       <use xlink:href="#DejaVuSans-2e" x="147.412109"/>
       <use xlink:href="#DejaVuSans-35" x="179.199219"/>
      </g>
     </g>
    </g>
    <g id="xtick_4">
     <g id="line2d_4">
      <g>
       <use xlink:href="#ma52d6952f9" x="207.352453" y="290.32" style="stroke: #000000"/>
      </g>
     </g>
     <g id="text_4">
      <!-- 0.0 -->
      <g transform="translate(199.003313 303.898359) scale(0.105 -0.105)">
       <use xlink:href="#DejaVuSans-30"/>
       <use xlink:href="#DejaVuSans-2e" x="63.623047"/>
       <use xlink:href="#DejaVuSans-30" x="95.410156"/>
      </g>
     </g>
    </g>
    <g id="xtick_5">
     <g id="line2d_5">
      <g>
       <use xlink:href="#ma52d6952f9" x="246.744769" y="290.32" style="stroke: #000000"/>
      </g>
     </g>
     <g id="text_5">
      <!-- 2.5 -->
      <g transform="translate(238.395628 303.898359) scale(0.105 -0.105)">
       <use xlink:href="#DejaVuSans-32"/>
       <use xlink:href="#DejaVuSans-2e" x="63.623047"/>
       <use xlink:href="#DejaVuSans-35" x="95.410156"/>
      </g>
     </g>
    </g>
    <g id="xtick_6">
     <g id="line2d_6">
      <g>
       <use xlink:href="#ma52d6952f9" x="286.137084" y="290.32" style="stroke: #000000"/>
      </g>
     </g>
     <g id="text_6">
      <!-- 5.0 -->
      <g transform="translate(277.787943 303.898359) scale(0.105 -0.105)">
       <use xlink:href="#DejaVuSans-35"/>
       <use xlink:href="#DejaVuSans-2e" x="63.623047"/>
       <use xlink:href="#DejaVuSans-30" x="95.410156"/>
      </g>
     </g>
    </g>
    <g id="xtick_7">
     <g id="line2d_7">
      <g>
       <use xlink:href="#ma52d6952f9" x="325.529399" y="290.32" style="stroke: #000000"/>
      </g>
     </g>
     <g id="text_7">
      <!-- 7.5 -->
      <g transform="translate(317.180258 303.898359) scale(0.105 -0.105)">
       <use xlink:href="#DejaVuSans-37"/>
       <use xlink:href="#DejaVuSans-2e" x="63.623047"/>
       <use xlink:href="#DejaVuSans-35" x="95.410156"/>
      </g>
     </g>
    </g>
    <g id="xtick_8">
     <g id="line2d_8">
      <g>
       <use xlink:href="#ma52d6952f9" x="364.921714" y="290.32" style="stroke: #000000"/>
      </g>
     </g>
     <g id="text_8">
      <!-- 10.0 -->
      <g transform="translate(353.232261 303.898359) scale(0.105 -0.105)">
       <defs>
        <path id="DejaVuSans-31" d="M 794 531 
L 1825 531 
L 1825 4091 
L 703 3866 
L 703 4441 
L 1819 4666 
L 2450 4666 
L 2450 531 
L 3481 531 
L 3481 0 
L 794 0 
L 794 531 
z
" transform="scale(0.015625)"/>
       </defs>
       <use xlink:href="#DejaVuSans-31"/>
       <use xlink:href="#DejaVuSans-30" x="63.623047"/>
       <use xlink:href="#DejaVuSans-2e" x="127.246094"/>
       <use xlink:href="#DejaVuSans-30" x="159.033203"/>
      </g>
     </g>
    </g>
    <g id="xtick_9">
     <g id="line2d_9">
      <g>
       <use xlink:href="#ma52d6952f9" x="404.314029" y="290.32" style="stroke: #000000"/>
      </g>
     </g>
     <g id="text_9">
      <!-- 12.5 -->
      <g transform="translate(392.624576 303.898359) scale(0.105 -0.105)">
       <use xlink:href="#DejaVuSans-31"/>
       <use xlink:href="#DejaVuSans-32" x="63.623047"/>
       <use xlink:href="#DejaVuSans-2e" x="127.246094"/>
       <use xlink:href="#DejaVuSans-35" x="159.033203"/>
      </g>
     </g>
    </g>
   </g>
   <g id="matplotlib.axis_2">
    <g id="ytick_1">
     <g id="line2d_10">
      <defs>
       <path id="m856d3f76df" d="M 0 0 
L 3 0 
" style="stroke: #000000"/>
      </defs>
      <g>
       <use xlink:href="#m856d3f76df" x="53.213959" y="260.00848" style="stroke: #000000"/>
      </g>
     </g>
     <g id="text_10">
      <!-- 2 -->
      <g transform="translate(32.134662 263.99766) scale(0.105 -0.105)">
       <use xlink:href="#DejaVuSans-2212"/>
       <use xlink:href="#DejaVuSans-32" x="83.789062"/>
      </g>
     </g>
    </g>
    <g id="ytick_2">
     <g id="line2d_11">
      <g>
       <use xlink:href="#m856d3f76df" x="53.213959" y="228.494628" style="stroke: #000000"/>
      </g>
     </g>
     <g id="text_11">
      <!-- 0 -->
      <g transform="translate(40.933334 232.483807) scale(0.105 -0.105)">
       <use xlink:href="#DejaVuSans-30"/>
      </g>
     </g>
    </g>
    <g id="ytick_3">
     <g id="line2d_12">
      <g>
       <use xlink:href="#m856d3f76df" x="53.213959" y="196.980776" style="stroke: #000000"/>
      </g>
     </g>
     <g id="text_12">
      <!-- 2 -->
      <g transform="translate(40.933334 200.969955) scale(0.105 -0.105)">
       <use xlink:href="#DejaVuSans-32"/>
      </g>
     </g>
    </g>
    <g id="ytick_4">
     <g id="line2d_13">
      <g>
       <use xlink:href="#m856d3f76df" x="53.213959" y="165.466923" style="stroke: #000000"/>
      </g>
     </g>
     <g id="text_13">
      <!-- 4 -->
      <g transform="translate(40.933334 169.456103) scale(0.105 -0.105)">
       <defs>
        <path id="DejaVuSans-34" d="M 2419 4116 
L 825 1625 
L 2419 1625 
L 2419 4116 
z
M 2253 4666 
L 3047 4666 
L 3047 1625 
L 3713 1625 
L 3713 1100 
L 3047 1100 
L 3047 0 
L 2419 0 
L 2419 1100 
L 313 1100 
L 313 1709 
L 2253 4666 
z
" transform="scale(0.015625)"/>
       </defs>
       <use xlink:href="#DejaVuSans-34"/>
      </g>
     </g>
    </g>
    <g id="ytick_5">
     <g id="line2d_14">
      <g>
       <use xlink:href="#m856d3f76df" x="53.213959" y="133.953071" style="stroke: #000000"/>
      </g>
     </g>
     <g id="text_14">
      <!-- 6 -->
      <g transform="translate(40.933334 137.942251) scale(0.105 -0.105)">
       <defs>
        <path id="DejaVuSans-36" d="M 2113 2584 
Q 1688 2584 1439 2293 
Q 1191 2003 1191 1497 
Q 1191 994 1439 701 
Q 1688 409 2113 409 
Q 2538 409 2786 701 
Q 3034 994 3034 1497 
Q 3034 2003 2786 2293 
Q 2538 2584 2113 2584 
z
M 3366 4563 
L 3366 3988 
Q 3128 4100 2886 4159 
Q 2644 4219 2406 4219 
Q 1781 4219 1451 3797 
Q 1122 3375 1075 2522 
Q 1259 2794 1537 2939 
Q 1816 3084 2150 3084 
Q 2853 3084 3261 2657 
Q 3669 2231 3669 1497 
Q 3669 778 3244 343 
Q 2819 -91 2113 -91 
Q 1303 -91 875 529 
Q 447 1150 447 2328 
Q 447 3434 972 4092 
Q 1497 4750 2381 4750 
Q 2619 4750 2861 4703 
Q 3103 4656 3366 4563 
z
" transform="scale(0.015625)"/>
       </defs>
       <use xlink:href="#DejaVuSans-36"/>
      </g>
     </g>
    </g>
    <g id="ytick_6">
     <g id="line2d_15">
      <g>
       <use xlink:href="#m856d3f76df" x="53.213959" y="102.439219" style="stroke: #000000"/>
      </g>
     </g>
     <g id="text_15">
      <!-- 8 -->
      <g transform="translate(40.933334 106.428399) scale(0.105 -0.105)">
       <defs>
        <path id="DejaVuSans-38" d="M 2034 2216 
Q 1584 2216 1326 1975 
Q 1069 1734 1069 1313 
Q 1069 891 1326 650 
Q 1584 409 2034 409 
Q 2484 409 2743 651 
Q 3003 894 3003 1313 
Q 3003 1734 2745 1975 
Q 2488 2216 2034 2216 
z
M 1403 2484 
Q 997 2584 770 2862 
Q 544 3141 544 3541 
Q 544 4100 942 4425 
Q 1341 4750 2034 4750 
Q 2731 4750 3128 4425 
Q 3525 4100 3525 3541 
Q 3525 3141 3298 2862 
Q 3072 2584 2669 2484 
Q 3125 2378 3379 2068 
Q 3634 1759 3634 1313 
Q 3634 634 3220 271 
Q 2806 -91 2034 -91 
Q 1263 -91 848 271 
Q 434 634 434 1313 
Q 434 1759 690 2068 
Q 947 2378 1403 2484 
z
M 1172 3481 
Q 1172 3119 1398 2916 
Q 1625 2713 2034 2713 
Q 2441 2713 2670 2916 
Q 2900 3119 2900 3481 
Q 2900 3844 2670 4047 
Q 2441 4250 2034 4250 
Q 1625 4250 1398 4047 
Q 1172 3844 1172 3481 
z
" transform="scale(0.015625)"/>
       </defs>
       <use xlink:href="#DejaVuSans-38"/>
      </g>
     </g>
    </g>
    <g id="ytick_7">
     <g id="line2d_16">
      <g>
       <use xlink:href="#m856d3f76df" x="53.213959" y="70.925367" style="stroke: #000000"/>
      </g>
     </g>
     <g id="text_16">
      <!-- 10 -->
      <g transform="translate(34.252709 74.914547) scale(0.105 -0.105)">
       <use xlink:href="#DejaVuSans-31"/>
       <use xlink:href="#DejaVuSans-30" x="63.623047"/>
      </g>
     </g>
    </g>
    <g id="ytick_8">
     <g id="line2d_17">
      <g>
       <use xlink:href="#m856d3f76df" x="53.213959" y="39.411515" style="stroke: #000000"/>
      </g>
     </g>
     <g id="text_17">
      <!-- 12 -->
      <g transform="translate(34.252709 43.400695) scale(0.105 -0.105)">
       <use xlink:href="#DejaVuSans-31"/>
       <use xlink:href="#DejaVuSans-32" x="63.623047"/>
      </g>
     </g>
    </g>
   </g>
   <g id="patch_3">
    <path d="M 53.213959 290.32 
L 53.213959 10.8 
" style="fill: none; stroke: #000000; stroke-width: 0.8; stroke-linejoin: miter; stroke-linecap: square"/>
   </g>
   <g id="patch_4">
    <path d="M 407.586041 290.32 
L 407.586041 10.8 
" style="fill: none; stroke: #000000; stroke-width: 0.8; stroke-linejoin: miter; stroke-linecap: square"/>
   </g>
   <g id="patch_5">
    <path d="M 53.213959 290.32 
L 407.586041 290.32 
" style="fill: none; stroke: #000000; stroke-width: 0.8; stroke-linejoin: miter; stroke-linecap: square"/>
   </g>
   <g id="patch_6">
    <path d="M 53.213959 10.8 
L 407.586041 10.8 
" style="fill: none; stroke: #000000; stroke-width: 0.8; stroke-linejoin: miter; stroke-linecap: square"/>
   </g>
  </g>
 </g>
 <defs>
  <clipPath id="p788c1a665b">
   <rect x="53.213959" y="10.8" width="354.372081" height="279.52"/>
  </clipPath>
 </defs>
</svg>
