<?xml version="1.0" encoding="utf-8" standalone="no"?>
<!DOCTYPE svg PUBLIC "-//W3C//DTD SVG 1.1//EN"
  "http://www.w3.org/Graphics/SVG/1.1/DTD/svg11.dtd">
<svg xmlns:xlink="http://www.w3.org/1999/xlink" width="460.8pt" height="316.8pt" viewBox="0 0 460.8 316.8" xmlns="http://www.w3.org/2000/svg" version="1.1">
 <metadata>
  <rdf:RDF xmlns:dc="http://purl.org/dc/elements/1.1/" xmlns:cc="http://creativecommons.org/ns#" xmlns:rdf="http://www.w3.org/1999/02/22-rdf-syntax-ns#">
   <cc:Work>
    <dc:type rdf:resource="http://purl.org/dc/dcmitype/StillImage"/>
    <dc:date>2024-01-11T15:54:07.240565</dc:date>
    <dc:format>image/svg+xml</dc:format>
    <dc:creator>
     <cc:Agent>
      <dc:title>Matplotlib v3.7.2, https://matplotlib.org/</dc:title>
     </cc:Agent>
    </dc:creator>
   </cc:Work>
  </rdf:RDF>
 </metadata>
 <defs>
  <style type="text/css">*{stroke-linejoin: round; stroke-linecap: butt}</style>
 </defs>
 <g id="figure_1">
  <g id="patch_1">
   <path d="M 0 316.8 
L 460.8 316.8 
L 460.8 0 
L 0 0 
z
" style="fill: #ffffff"/>
  </g>
  <g id="axes_1">
   <g id="patch_2">
    <path d="M 37.219652 290.32 
L 443.287058 290.32 
L 443.287058 10.8 
L 37.219652 10.8 
z
" style="fill: #ffffff"/>
   </g>
   <g id="PatchCollection_1">
    <path d="M 224.555594 219.898955 
L 340.187346 219.898955 
L 340.187346 171.719059 
L 224.555594 171.719059 
z
" clip-path="url(#pd8b680eb73)" style="fill: #ffffff; stroke: #0000ff; stroke-width: 3"/>
    <path d="M 103.142254 214.117368 
L 188.058719 183.210302 
L 175.258224 148.041231 
L 90.341759 178.948297 
z
" clip-path="url(#pd8b680eb73)" style="fill: #ff0000; stroke: #ff0000; stroke-width: 2"/>
    <path d="M 355.604913 239.170914 
L 424.829449 181.084631 
L 400.772387 152.414542 
L 331.547851 210.500825 
z
" clip-path="url(#pd8b680eb73)" style="fill: #ff0000; stroke: #ff0000; stroke-width: 2"/>
    <path d="M 263.099511 150.519904 
L 308.282618 72.260467 
L 275.870627 53.547395 
L 230.68752 131.806832 
z
" clip-path="url(#pd8b680eb73)" style="fill: #ff0000; stroke: #ff0000; stroke-width: 2"/>
    <path d="M 195.647656 262.297264 
L 285.890026 267.026667 
L 287.848759 229.651814 
L 197.606389 224.922412 
z
" clip-path="url(#pd8b680eb73)" style="fill: #ff0000; stroke: #ff0000; stroke-width: 2"/>
   </g>
   <g id="PatchCollection_2">
    <path d="M 55.733236 94.072337 
L 146.09945 94.072337 
L 146.09945 56.646193 
L 55.733236 56.646193 
L 55.733236 94.072337 
z
" clip-path="url(#pd8b680eb73)" style="fill: none; stroke: #000000; stroke-width: 0.5"/>
    <path d="M 55.677262 89.193495 
L 145.83067 95.391534 
L 148.397655 58.053526 
L 58.244246 51.855487 
L 55.677262 89.193495 
z
" clip-path="url(#pd8b680eb73)" style="fill: none; stroke: #000000; stroke-width: 0.5"/>
    <path d="M 60.831095 84.726521 
L 150.347084 97.093425 
L 155.468971 60.019411 
L 65.952982 47.652507 
L 60.831095 84.726521 
z
" clip-path="url(#pd8b680eb73)" style="fill: none; stroke: #000000; stroke-width: 0.5"/>
    <path d="M 66.279374 80.623665 
L 154.736336 99.101178 
L 162.388998 62.465771 
L 73.932035 43.988259 
L 66.279374 80.623665 
z
" clip-path="url(#pd8b680eb73)" style="fill: none; stroke: #000000; stroke-width: 0.5"/>
    <path d="M 71.99592 76.90402 
L 158.977234 101.405115 
L 169.124627 65.380865 
L 82.143313 40.87977 
L 71.99592 76.90402 
z
" clip-path="url(#pd8b680eb73)" style="fill: none; stroke: #000000; stroke-width: 0.5"/>
    <path d="M 77.95444 73.585223 
L 163.050435 103.994503 
L 175.644767 68.751078 
L 90.548772 38.341797 
L 77.95444 73.585223 
z
" clip-path="url(#pd8b680eb73)" style="fill: none; stroke: #000000; stroke-width: 0.5"/>
    <path d="M 84.126402 70.683138 
L 166.936286 106.85738 
L 181.918239 72.560772 
L 99.108355 36.38653 
L 84.126402 70.683138 
z
" clip-path="url(#pd8b680eb73)" style="fill: none; stroke: #000000; stroke-width: 0.5"/>
    <path d="M 90.482779 68.210976 
L 170.616528 109.979804 
L 187.915539 76.791546 
L 107.781789 35.022719 
L 90.482779 68.210976 
z
" clip-path="url(#pd8b680eb73)" style="fill: none; stroke: #000000; stroke-width: 0.5"/>
    <path d="M 96.993843 66.180793 
L 174.074084 113.347402 
L 193.608645 81.423788 
L 116.528404 34.257178 
L 96.993843 66.180793 
z
" clip-path="url(#pd8b680eb73)" style="fill: none; stroke: #000000; stroke-width: 0.5"/>
    <path d="M 103.628891 64.601931 
L 177.292545 116.944254 
L 198.970683 86.435656 
L 125.307029 34.093333 
L 103.628891 64.601931 
z
" clip-path="url(#pd8b680eb73)" style="fill: none; stroke: #000000; stroke-width: 0.5"/>
    <path d="M 110.356538 63.481734 
L 180.256658 120.753245 
L 203.976273 91.803355 
L 134.076153 34.531844 
L 110.356538 63.481734 
z
" clip-path="url(#pd8b680eb73)" style="fill: none; stroke: #000000; stroke-width: 0.5"/>
    <path d="M 117.145216 62.825721 
L 182.95258 124.756678 
L 208.601955 97.501847 
L 142.794591 35.57089 
L 117.145216 62.825721 
z
" clip-path="url(#pd8b680eb73)" style="fill: none; stroke: #000000; stroke-width: 0.5"/>
    <path d="M 123.962812 62.636788 
L 185.367477 128.935504 
L 212.825806 103.504099 
L 151.421141 37.205383 
L 123.962812 62.636788 
z
" clip-path="url(#pd8b680eb73)" style="fill: none; stroke: #000000; stroke-width: 0.5"/>
    <path d="M 130.777301 62.915875 
L 187.490058 133.270091 
L 216.628017 109.78189 
L 159.915259 39.427674 
L 130.777301 62.915875 
z
" clip-path="url(#pd8b680eb73)" style="fill: none; stroke: #000000; stroke-width: 0.5"/>
    <path d="M 137.55661 63.661867 
L 189.310349 137.740225 
L 219.990702 116.305855 
L 168.236962 42.227497 
L 137.55661 63.661867 
z
" clip-path="url(#pd8b680eb73)" style="fill: none; stroke: #000000; stroke-width: 0.5"/>
    <path d="M 144.268928 64.870874 
L 190.819819 142.324519 
L 222.898083 123.044965 
L 176.347192 45.591319 
L 144.268928 64.870874 
z
" clip-path="url(#pd8b680eb73)" style="fill: none; stroke: #000000; stroke-width: 0.5"/>
    <path d="M 150.809502 66.602382 
L 192.043099 147.012849 
L 225.345962 129.935509 
L 184.112365 49.525042 
L 150.809502 66.602382 
z
" clip-path="url(#pd8b680eb73)" style="fill: none; stroke: #000000; stroke-width: 0.5"/>
    <path d="M 149.98582 75.343491 
L 196.637362 152.736555 
L 228.690535 133.415316 
L 182.038994 56.022252 
L 149.98582 75.343491 
z
" clip-path="url(#pd8b680eb73)" style="fill: none; stroke: #000000; stroke-width: 0.5"/>
    <path d="M 149.763411 84.120737 
L 201.613187 158.131908 
L 232.265713 136.657763 
L 180.415937 62.646592 
L 149.763411 84.120737 
z
" clip-path="url(#pd8b680eb73)" style="fill: none; stroke: #000000; stroke-width: 0.5"/>
    <path d="M 150.143485 92.892501 
L 206.947444 163.173102 
L 236.054914 139.647129 
L 179.250955 69.366528 
L 150.143485 92.892501 
z
" clip-path="url(#pd8b680eb73)" style="fill: none; stroke: #000000; stroke-width: 0.5"/>
    <path d="M 151.124318 101.617784 
L 212.614921 167.836802 
L 240.040242 142.369805 
L 178.549639 76.150786 
L 151.124318 101.617784 
z
" clip-path="url(#pd8b680eb73)" style="fill: none; stroke: #000000; stroke-width: 0.5"/>
    <path d="M 152.701282 110.255091 
L 218.588916 172.100644 
L 244.202919 144.812569 
L 178.315286 82.967016 
L 152.701282 110.255091 
z
" clip-path="url(#pd8b680eb73)" style="fill: none; stroke: #000000; stroke-width: 0.5"/>
    <path d="M 154.866973 118.763699 
L 224.841258 175.944571 
L 248.523334 146.963965 
L 178.549049 89.783093 
L 154.866973 118.763699 
z
" clip-path="url(#pd8b680eb73)" style="fill: none; stroke: #000000; stroke-width: 0.5"/>
    <path d="M 158.410825 121.659696 
L 228.385109 178.840568 
L 252.067185 149.859963 
L 182.0929 92.67909 
L 158.410825 121.659696 
z
" clip-path="url(#pd8b680eb73)" style="fill: none; stroke: #000000; stroke-width: 0.5"/>
    <path d="M 161.954683 124.555694 
L 231.928968 181.736566 
L 255.611044 152.75596 
L 185.636759 95.575088 
L 161.954683 124.555694 
z
" clip-path="url(#pd8b680eb73)" style="fill: none; stroke: #000000; stroke-width: 0.5"/>
    <path d="M 165.498527 127.451498 
L 235.472812 184.63237 
L 259.154887 155.651764 
L 189.180603 98.470892 
L 165.498527 127.451498 
z
" clip-path="url(#pd8b680eb73)" style="fill: none; stroke: #000000; stroke-width: 0.5"/>
    <path d="M 169.04237 130.347495 
L 239.016655 187.528367 
L 262.698731 158.547762 
L 192.724446 101.366889 
L 169.04237 130.347495 
z
" clip-path="url(#pd8b680eb73)" style="fill: none; stroke: #000000; stroke-width: 0.5"/>
    <path d="M 172.586233 133.243493 
L 242.560518 190.424365 
L 266.242594 161.443759 
L 196.268309 104.262887 
L 172.586233 133.243493 
z
" clip-path="url(#pd8b680eb73)" style="fill: none; stroke: #000000; stroke-width: 0.5"/>
    <path d="M 176.130153 136.139297 
L 246.104438 193.320169 
L 269.786514 164.339563 
L 199.812229 107.158691 
L 176.130153 136.139297 
z
" clip-path="url(#pd8b680eb73)" style="fill: none; stroke: #000000; stroke-width: 0.5"/>
    <path d="M 179.673881 139.035294 
L 249.648166 196.216166 
L 273.330242 167.235561 
L 203.355957 110.054688 
L 179.673881 139.035294 
z
" clip-path="url(#pd8b680eb73)" style="fill: none; stroke: #000000; stroke-width: 0.5"/>
    <path d="M 183.217802 141.931099 
L 253.192086 199.111971 
L 276.874162 170.131365 
L 206.899877 112.950493 
L 183.217802 141.931099 
z
" clip-path="url(#pd8b680eb73)" style="fill: none; stroke: #000000; stroke-width: 0.5"/>
    <path d="M 186.761722 144.827096 
L 256.736007 202.007968 
L 280.418083 173.027362 
L 210.443798 115.84649 
L 186.761722 144.827096 
z
" clip-path="url(#pd8b680eb73)" style="fill: none; stroke: #000000; stroke-width: 0.5"/>
    <path d="M 188.84347 151.195907 
L 261.68759 204.672882 
L 283.835657 174.503703 
L 210.991537 121.026728 
L 188.84347 151.195907 
z
" clip-path="url(#pd8b680eb73)" style="fill: none; stroke: #000000; stroke-width: 0.5"/>
    <path d="M 191.232933 157.509506 
L 266.796472 207.069614 
L 287.322326 175.774158 
L 211.758787 126.21405 
L 191.232933 157.509506 
z
" clip-path="url(#pd8b680eb73)" style="fill: none; stroke: #000000; stroke-width: 0.5"/>
    <path d="M 193.951909 163.688533 
L 272.024427 209.193859 
L 290.870949 176.859282 
L 212.798431 131.353957 
L 193.951909 163.688533 
z
" clip-path="url(#pd8b680eb73)" style="fill: none; stroke: #000000; stroke-width: 0.5"/>
    <path d="M 196.993225 169.715235 
L 277.35735 211.03908 
L 294.472067 177.75541 
L 214.107942 136.431564 
L 196.993225 169.715235 
z
" clip-path="url(#pd8b680eb73)" style="fill: none; stroke: #000000; stroke-width: 0.5"/>
    <path d="M 200.348218 175.573364 
L 282.780196 212.600675 
L 298.115457 178.460581 
L 215.683479 141.43327 
L 200.348218 175.573364 
z
" clip-path="url(#pd8b680eb73)" style="fill: none; stroke: #000000; stroke-width: 0.5"/>
    <path d="M 204.007464 181.246164 
L 288.277785 213.873846 
L 301.790892 178.972382 
L 217.520571 146.3447 
L 204.007464 181.246164 
z
" clip-path="url(#pd8b680eb73)" style="fill: none; stroke: #000000; stroke-width: 0.5"/>
    <path d="M 207.960773 186.718124 
L 293.834809 214.855336 
L 305.488139 179.289676 
L 219.614103 151.152465 
L 207.960773 186.718124 
z
" clip-path="url(#pd8b680eb73)" style="fill: none; stroke: #000000; stroke-width: 0.5"/>
    <path d="M 212.197383 191.974057 
L 299.43604 215.542456 
L 309.197147 179.411624 
L 221.95849 155.843225 
L 212.197383 191.974057 
z
" clip-path="url(#pd8b680eb73)" style="fill: none; stroke: #000000; stroke-width: 0.5"/>
    <path d="M 216.705178 196.999119 
L 305.065563 215.933087 
L 312.90727 179.337679 
L 224.546885 160.403712 
L 216.705178 196.999119 
z
" clip-path="url(#pd8b680eb73)" style="fill: none; stroke: #000000; stroke-width: 0.5"/>
    <path d="M 221.471857 201.779309 
L 310.707967 216.026039 
L 316.608404 179.06794 
L 227.372294 164.82121 
L 221.471857 201.779309 
z
" clip-path="url(#pd8b680eb73)" style="fill: none; stroke: #000000; stroke-width: 0.5"/>
    <path d="M 226.483943 206.301581 
L 316.347305 215.821495 
L 320.29008 178.603613 
L 230.426718 169.083698 
L 226.483943 206.301581 
z
" clip-path="url(#pd8b680eb73)" style="fill: none; stroke: #000000; stroke-width: 0.5"/>
    <path d="M 231.727778 210.553158 
L 321.968191 215.31976 
L 323.94233 177.945718 
L 233.701917 173.179117 
L 231.727778 210.553158 
z
" clip-path="url(#pd8b680eb73)" style="fill: none; stroke: #000000; stroke-width: 0.5"/>
    <path d="M 237.188363 214.522079 
L 327.554577 214.522079 
L 327.554577 177.095935 
L 237.188363 177.095935 
L 237.188363 214.522079 
z
" clip-path="url(#pd8b680eb73)" style="fill: none; stroke: #000000; stroke-width: 0.5"/>
   </g>
   <g id="PatchCollection_3">
    <path d="M 151.80395 75.359265 
L 147.467759 76.804662 
L 147.467759 75.841064 
L 128.1958 75.841064 
L 128.1958 74.877466 
L 147.467759 74.877466 
L 147.467759 73.913868 
z
" clip-path="url(#pd8b680eb73)" style="fill: #ff0000; stroke: #ff0000; stroke-width: 0.24"/>
    <path d="M 152.805228 77.11379 
L 148.380112 78.258373 
L 148.446203 77.297044 
L 129.219629 75.975219 
L 129.28572 75.01389 
L 148.512295 76.335715 
L 148.578386 75.374387 
z
" clip-path="url(#pd8b680eb73)" style="fill: #ff0000; stroke: #ff0000; stroke-width: 0.24"/>
    <path d="M 158.558856 79.337097 
L 154.065656 80.175473 
L 154.197527 79.220941 
L 135.106892 76.583512 
L 135.238763 75.62898 
L 154.329399 78.266409 
L 154.46127 77.311877 
z
" clip-path="url(#pd8b680eb73)" style="fill: #ff0000; stroke: #ff0000; stroke-width: 0.24"/>
    <path d="M 164.146642 81.949895 
L 159.606521 82.478116 
L 159.803551 81.534877 
L 140.938769 77.594269 
L 141.1358 76.65103 
L 160.000582 80.591638 
L 160.197612 79.648399 
z
" clip-path="url(#pd8b680eb73)" style="fill: #ff0000; stroke: #ff0000; stroke-width: 0.24"/>
    <path d="M 169.541754 84.939658 
L 164.976094 85.155237 
L 165.237355 84.227733 
L 146.687278 79.002505 
L 146.948539 78.075001 
L 165.498617 83.300229 
L 165.759878 82.372725 
z
" clip-path="url(#pd8b680eb73)" style="fill: #ff0000; stroke: #ff0000; stroke-width: 0.24"/>
    <path d="M 174.71941 88.292421 
L 170.149716 88.194343 
L 170.473978 87.286942 
L 152.325973 80.801705 
L 152.650235 79.894304 
L 170.79824 86.379542 
L 171.122502 85.472142 
z
" clip-path="url(#pd8b680eb73)" style="fill: #ff0000; stroke: #ff0000; stroke-width: 0.24"/>
    <path d="M 179.654758 91.992628 
L 175.102553 91.581354 
L 175.488288 90.698331 
L 157.82783 82.983628 
L 158.213566 82.100606 
L 175.874023 89.815308 
L 176.259758 88.932286 
z
" clip-path="url(#pd8b680eb73)" style="fill: #ff0000; stroke: #ff0000; stroke-width: 0.24"/>
    <path d="M 184.324594 96.022393 
L 179.811317 95.299861 
L 180.256708 94.445374 
L 163.166977 85.537541 
L 163.612369 84.683055 
L 180.7021 93.590887 
L 181.147492 92.736401 
z
" clip-path="url(#pd8b680eb73)" style="fill: #ff0000; stroke: #ff0000; stroke-width: 0.24"/>
    <path d="M 188.707168 100.363056 
L 184.254076 99.332673 
L 184.757025 98.510746 
L 168.318501 88.451755 
L 168.82145 87.629829 
L 185.259975 97.68882 
L 185.762924 96.866894 
z
" clip-path="url(#pd8b680eb73)" style="fill: #ff0000; stroke: #ff0000; stroke-width: 0.24"/>
    <path d="M 192.78174 104.994141 
L 188.409807 103.660755 
L 188.967946 102.875261 
L 173.25806 91.71247 
L 173.8162 90.926976 
L 189.526086 102.089766 
L 190.084225 101.304272 
z
" clip-path="url(#pd8b680eb73)" style="fill: #ff0000; stroke: #ff0000; stroke-width: 0.24"/>
    <path d="M 196.529013 109.893648 
L 192.258829 108.263539 
L 192.86953 107.518176 
L 177.962275 95.304162 
L 178.572975 94.5588 
L 193.480231 106.772813 
L 194.090931 106.027451 
z
" clip-path="url(#pd8b680eb73)" style="fill: #ff0000; stroke: #ff0000; stroke-width: 0.24"/>
    <path d="M 199.931454 115.038745 
L 195.783133 113.119591 
L 196.443518 112.41787 
L 182.409105 99.210159 
L 183.06949 98.508439 
L 197.103904 111.71615 
L 197.764289 111.014429 
z
" clip-path="url(#pd8b680eb73)" style="fill: #ff0000; stroke: #ff0000; stroke-width: 0.24"/>
    <path d="M 202.972901 120.405005 
L 198.96598 118.205845 
L 199.67294 117.551072 
L 186.577469 103.41187 
L 187.284429 102.757096 
L 200.3799 116.896298 
L 201.08686 116.241524 
z
" clip-path="url(#pd8b680eb73)" style="fill: #ff0000; stroke: #ff0000; stroke-width: 0.24"/>
    <path d="M 205.639114 125.967204 
L 201.792465 123.498396 
L 202.54267 122.893653 
L 190.447818 107.889555 
L 191.198023 107.284812 
L 203.292874 122.288911 
L 204.043079 121.684168 
z
" clip-path="url(#pd8b680eb73)" style="fill: #ff0000; stroke: #ff0000; stroke-width: 0.24"/>
    <path d="M 207.917556 131.699345 
L 204.249297 128.972516 
L 205.039213 128.420653 
L 194.001947 112.622325 
L 194.791864 112.070462 
L 205.82913 127.86879 
L 206.619046 127.316926 
z
" clip-path="url(#pd8b680eb73)" style="fill: #ff0000; stroke: #ff0000; stroke-width: 0.24"/>
    <path d="M 209.797544 137.574117 
L 206.324954 134.602107 
L 207.150862 134.105723 
L 197.223182 117.587565 
L 198.04909 117.091181 
L 207.97677 133.609339 
L 208.802678 133.112955 
z
" clip-path="url(#pd8b680eb73)" style="fill: #ff0000; stroke: #ff0000; stroke-width: 0.24"/>
    <path d="M 211.297462 143.550207 
L 208.032726 140.351266 
L 208.890164 139.911582 
L 200.096477 122.762837 
L 200.953914 122.323152 
L 209.747601 139.471898 
L 210.605038 139.032213 
z
" clip-path="url(#pd8b680eb73)" style="fill: #ff0000; stroke: #ff0000; stroke-width: 0.24"/>
    <path d="M 215.608896 147.961486 
L 212.132445 144.993993 
L 212.957707 144.496536 
L 203.008562 127.991297 
L 203.833824 127.49384 
L 213.782969 143.999079 
L 214.608231 143.501622 
z
" clip-path="url(#pd8b680eb73)" style="fill: #ff0000; stroke: #ff0000; stroke-width: 0.24"/>
    <path d="M 220.212543 152.066899 
L 216.54075 149.344831 
L 217.32995 148.791943 
L 206.272203 133.007944 
L 207.061403 132.455057 
L 218.11915 148.239056 
L 218.90835 147.686169 
z
" clip-path="url(#pd8b680eb73)" style="fill: #ff0000; stroke: #ff0000; stroke-width: 0.24"/>
    <path d="M 225.087012 155.846681 
L 221.237164 153.382864 
L 221.986584 152.777149 
L 209.872283 137.788751 
L 210.621703 137.183035 
L 222.736004 152.171434 
L 223.485424 151.565719 
z
" clip-path="url(#pd8b680eb73)" style="fill: #ff0000; stroke: #ff0000; stroke-width: 0.24"/>
    <path d="M 230.209266 159.283476 
L 226.199496 157.089515 
L 226.905606 156.433825 
L 213.791807 142.31162 
L 214.497917 141.65593 
L 227.611716 155.778135 
L 228.317827 155.122445 
z
" clip-path="url(#pd8b680eb73)" style="fill: #ff0000; stroke: #ff0000; stroke-width: 0.24"/>
    <path d="M 235.555171 162.360698 
L 231.404364 160.446926 
L 232.063839 159.744349 
L 218.012307 146.554852 
L 218.671782 145.852275 
L 232.723314 159.041772 
L 233.382789 158.339196 
z
" clip-path="url(#pd8b680eb73)" style="fill: #ff0000; stroke: #ff0000; stroke-width: 0.24"/>
    <path d="M 241.099526 165.063895 
L 236.827233 163.439321 
L 237.436967 162.693168 
L 222.513895 150.498484 
L 223.123629 149.75233 
L 238.046701 161.947014 
L 238.656436 161.20086 
z
" clip-path="url(#pd8b680eb73)" style="fill: #ff0000; stroke: #ff0000; stroke-width: 0.24"/>
    <path d="M 244.643377 167.959892 
L 240.371084 166.335318 
L 240.980818 165.589165 
L 226.057746 153.394481 
L 226.667481 152.648328 
L 241.590553 164.843011 
L 242.200287 164.096858 
z
" clip-path="url(#pd8b680eb73)" style="fill: #ff0000; stroke: #ff0000; stroke-width: 0.24"/>
    <path d="M 248.187235 170.855889 
L 243.914943 169.231316 
L 244.524677 168.485162 
L 229.601605 156.290478 
L 230.211339 155.544325 
L 245.134411 167.739009 
L 245.744146 166.992855 
z
" clip-path="url(#pd8b680eb73)" style="fill: #ff0000; stroke: #ff0000; stroke-width: 0.24"/>
    <path d="M 251.731079 173.751694 
L 247.458786 172.12712 
L 248.068521 171.380967 
L 233.145449 159.186283 
L 233.755183 158.440129 
L 248.678255 170.634813 
L 249.287989 169.888659 
z
" clip-path="url(#pd8b680eb73)" style="fill: #ff0000; stroke: #ff0000; stroke-width: 0.24"/>
    <path d="M 255.274922 176.647691 
L 251.00263 175.023117 
L 251.612364 174.276964 
L 236.689292 162.08228 
L 237.299026 161.336126 
L 252.222098 173.53081 
L 252.831832 172.784657 
z
" clip-path="url(#pd8b680eb73)" style="fill: #ff0000; stroke: #ff0000; stroke-width: 0.24"/>
    <path d="M 258.818785 179.543688 
L 254.546492 177.919115 
L 255.156227 177.172961 
L 240.233155 164.978277 
L 240.842889 164.232124 
L 255.765961 176.426807 
L 256.375695 175.680654 
z
" clip-path="url(#pd8b680eb73)" style="fill: #ff0000; stroke: #ff0000; stroke-width: 0.24"/>
    <path d="M 262.362705 182.439493 
L 258.090413 180.814919 
L 258.700147 180.068766 
L 243.777075 167.874082 
L 244.386809 167.127928 
L 259.309881 179.322612 
L 259.919615 178.576458 
z
" clip-path="url(#pd8b680eb73)" style="fill: #ff0000; stroke: #ff0000; stroke-width: 0.24"/>
    <path d="M 265.906433 185.33549 
L 261.634141 183.710916 
L 262.243875 182.964763 
L 247.320803 170.770079 
L 247.930537 170.023925 
L 262.853609 182.218609 
L 263.463343 181.472456 
z
" clip-path="url(#pd8b680eb73)" style="fill: #ff0000; stroke: #ff0000; stroke-width: 0.24"/>
    <path d="M 269.450354 188.231294 
L 265.178061 186.606721 
L 265.787795 185.860567 
L 250.864723 173.665884 
L 251.474457 172.91973 
L 266.39753 185.114414 
L 267.007264 184.36826 
z
" clip-path="url(#pd8b680eb73)" style="fill: #ff0000; stroke: #ff0000; stroke-width: 0.24"/>
    <path d="M 272.994274 191.127292 
L 268.721982 189.502718 
L 269.331716 188.756565 
L 254.408644 176.561881 
L 255.018378 175.815727 
L 269.94145 188.010411 
L 270.551184 187.264257 
z
" clip-path="url(#pd8b680eb73)" style="fill: #ff0000; stroke: #ff0000; stroke-width: 0.24"/>
    <path d="M 277.360015 192.964105 
L 273.009258 191.563164 
L 273.579497 190.786409 
L 258.044389 179.381637 
L 258.614628 178.604882 
L 274.149735 190.009654 
L 274.719974 189.232898 
z
" clip-path="url(#pd8b680eb73)" style="fill: #ff0000; stroke: #ff0000; stroke-width: 0.24"/>
    <path d="M 281.829458 194.55044 
L 277.410861 193.380946 
L 277.939333 192.575193 
L 261.824268 182.005752 
L 262.35274 181.199999 
L 278.467805 191.769439 
L 278.996277 190.963686 
z
" clip-path="url(#pd8b680eb73)" style="fill: #ff0000; stroke: #ff0000; stroke-width: 0.24"/>
    <path d="M 286.37613 195.899161 
L 281.901995 194.964365 
L 282.38723 194.131857 
L 265.737088 184.42716 
L 266.222323 183.594653 
L 282.872465 193.29935 
L 283.3577 192.466843 
z
" clip-path="url(#pd8b680eb73)" style="fill: #ff0000; stroke: #ff0000; stroke-width: 0.24"/>
    <path d="M 290.987811 197.005873 
L 286.470597 196.308378 
L 286.911244 195.451435 
L 269.772382 186.638501 
L 270.213029 185.781558 
L 287.351891 194.594492 
L 287.792537 193.737549 
z
" clip-path="url(#pd8b680eb73)" style="fill: #ff0000; stroke: #ff0000; stroke-width: 0.24"/>
    <path d="M 295.651466 197.868031 
L 291.103749 197.409778 
L 291.498581 196.530785 
L 273.918718 188.634153 
L 274.313549 187.75516 
L 291.893412 195.651792 
L 292.288244 194.772799 
z
" clip-path="url(#pd8b680eb73)" style="fill: #ff0000; stroke: #ff0000; stroke-width: 0.24"/>
    <path d="M 300.354026 198.482785 
L 295.788468 198.265051 
L 296.136386 197.366455 
L 278.164468 190.408109 
L 278.512386 189.509513 
L 296.484303 196.467859 
L 296.83222 195.569263 
z
" clip-path="url(#pd8b680eb73)" style="fill: #ff0000; stroke: #ff0000; stroke-width: 0.24"/>
    <path d="M 305.082398 198.848709 
L 300.511712 198.8721 
L 300.811746 197.956403 
L 282.497812 191.955718 
L 282.797847 191.040021 
L 301.111781 197.040706 
L 301.411815 196.12501 
z
" clip-path="url(#pd8b680eb73)" style="fill: #ff0000; stroke: #ff0000; stroke-width: 0.24"/>
    <path d="M 309.823661 198.96483 
L 305.260572 199.229281 
L 305.511888 198.299033 
L 286.906928 193.272716 
L 287.158244 192.342468 
L 305.763203 197.368785 
L 306.014519 196.438537 
z
" clip-path="url(#pd8b680eb73)" style="fill: #ff0000; stroke: #ff0000; stroke-width: 0.24"/>
    <path d="M 314.564295 198.830618 
L 310.021507 199.335392 
L 310.223405 198.393183 
L 291.379219 194.355228 
L 291.581117 193.413019 
L 310.425302 197.450973 
L 310.6272 196.508764 
z
" clip-path="url(#pd8b680eb73)" style="fill: #ff0000; stroke: #ff0000; stroke-width: 0.24"/>
    <path d="M 319.291346 198.446336 
L 314.781508 199.190032 
L 314.933425 198.238485 
L 295.902478 195.200155 
L 296.054394 194.248607 
L 315.085341 197.286938 
L 315.237258 196.33539 
z
" clip-path="url(#pd8b680eb73)" style="fill: #ff0000; stroke: #ff0000; stroke-width: 0.24"/>
    <path d="M 323.991449 197.813512 
L 319.527118 198.794056 
L 319.628631 197.83582 
L 300.463913 195.805555 
L 300.565426 194.847319 
L 319.730144 196.877585 
L 319.831658 195.919349 
z
" clip-path="url(#pd8b680eb73)" style="fill: #ff0000; stroke: #ff0000; stroke-width: 0.24"/>
    <path d="M 328.651819 196.933638 
L 324.245424 198.148299 
L 324.296251 197.186043 
L 305.051121 196.169493 
L 305.101949 195.207236 
L 324.347079 196.223786 
L 324.397906 195.26153 
z
" clip-path="url(#pd8b680eb73)" style="fill: #ff0000; stroke: #ff0000; stroke-width: 0.24"/>
    <path d="M 333.259077 195.809007 
L 328.922886 197.254404 
L 328.922886 196.290806 
L 309.650927 196.290806 
L 309.650927 195.327208 
L 328.922886 195.327208 
L 328.922886 194.36361 
z
" clip-path="url(#pd8b680eb73)" style="fill: #ff0000; stroke: #ff0000; stroke-width: 0.24"/>
   </g>
   <g id="matplotlib.axis_1">
    <g id="xtick_1">
     <g id="line2d_1">
      <defs>
       <path id="m50fdfd6aa1" d="M 0 0 
L 0 -3 
" style="stroke: #000000"/>
      </defs>
      <g>
       <use xlink:href="#m50fdfd6aa1" x="80.015904" y="290.32" style="stroke: #000000"/>
      </g>
     </g>
     <g id="text_1">
      <!-- −7.5 -->
      <g transform="translate(67.267427 303.898359) scale(0.105 -0.105)">
       <defs>
        <path id="DejaVuSans-2212" d="M 678 2272 
L 4684 2272 
L 4684 1741 
L 678 1741 
L 678 2272 
z
" transform="scale(0.015625)"/>
        <path id="DejaVuSans-37" d="M 525 4666 
L 3525 4666 
L 3525 4397 
L 1831 0 
L 1172 0 
L 2766 4134 
L 525 4134 
L 525 4666 
z
" transform="scale(0.015625)"/>
        <path id="DejaVuSans-2e" d="M 684 794 
L 1344 794 
L 1344 0 
L 684 0 
L 684 794 
z
" transform="scale(0.015625)"/>
        <path id="DejaVuSans-35" d="M 691 4666 
L 3169 4666 
L 3169 4134 
L 1269 4134 
L 1269 2991 
Q 1406 3038 1543 3061 
Q 1681 3084 1819 3084 
Q 2600 3084 3056 2656 
Q 3513 2228 3513 1497 
Q 3513 744 3044 326 
Q 2575 -91 1722 -91 
Q 1428 -91 1123 -41 
Q 819 9 494 109 
L 494 744 
Q 775 591 1075 516 
Q 1375 441 1709 441 
Q 2250 441 2565 725 
Q 2881 1009 2881 1497 
Q 2881 1984 2565 2268 
Q 2250 2553 1709 2553 
Q 1456 2553 1204 2497 
Q 953 2441 691 2322 
L 691 4666 
z
" transform="scale(0.015625)"/>
       </defs>
       <use xlink:href="#DejaVuSans-2212"/>
       <use xlink:href="#DejaVuSans-37" x="83.789062"/>
       <use xlink:href="#DejaVuSans-2e" x="147.412109"/>
       <use xlink:href="#DejaVuSans-35" x="179.199219"/>
      </g>
     </g>
    </g>
    <g id="xtick_2">
     <g id="line2d_2">
      <g>
       <use xlink:href="#m50fdfd6aa1" x="128.1958" y="290.32" style="stroke: #000000"/>
      </g>
     </g>
     <g id="text_2">
      <!-- −5.0 -->
      <g transform="translate(115.447324 303.898359) scale(0.105 -0.105)">
       <defs>
        <path id="DejaVuSans-30" d="M 2034 4250 
Q 1547 4250 1301 3770 
Q 1056 3291 1056 2328 
Q 1056 1369 1301 889 
Q 1547 409 2034 409 
Q 2525 409 2770 889 
Q 3016 1369 3016 2328 
Q 3016 3291 2770 3770 
Q 2525 4250 2034 4250 
z
M 2034 4750 
Q 2819 4750 3233 4129 
Q 3647 3509 3647 2328 
Q 3647 1150 3233 529 
Q 2819 -91 2034 -91 
Q 1250 -91 836 529 
Q 422 1150 422 2328 
Q 422 3509 836 4129 
Q 1250 4750 2034 4750 
z
" transform="scale(0.015625)"/>
       </defs>
       <use xlink:href="#DejaVuSans-2212"/>
       <use xlink:href="#DejaVuSans-35" x="83.789062"/>
       <use xlink:href="#DejaVuSans-2e" x="147.412109"/>
       <use xlink:href="#DejaVuSans-30" x="179.199219"/>
      </g>
     </g>
    </g>
    <g id="xtick_3">
     <g id="line2d_3">
      <g>
       <use xlink:href="#m50fdfd6aa1" x="176.375697" y="290.32" style="stroke: #000000"/>
      </g>
     </g>
     <g id="text_3">
      <!-- −2.5 -->
      <g transform="translate(163.62722 303.898359) scale(0.105 -0.105)">
       <defs>
        <path id="DejaVuSans-32" d="M 1228 531 
L 3431 531 
L 3431 0 
L 469 0 
L 469 531 
Q 828 903 1448 1529 
Q 2069 2156 2228 2338 
Q 2531 2678 2651 2914 
Q 2772 3150 2772 3378 
Q 2772 3750 2511 3984 
Q 2250 4219 1831 4219 
Q 1534 4219 1204 4116 
Q 875 4013 500 3803 
L 500 4441 
Q 881 4594 1212 4672 
Q 1544 4750 1819 4750 
Q 2544 4750 2975 4387 
Q 3406 4025 3406 3419 
Q 3406 3131 3298 2873 
Q 3191 2616 2906 2266 
Q 2828 2175 2409 1742 
Q 1991 1309 1228 531 
z
" transform="scale(0.015625)"/>
       </defs>
       <use xlink:href="#DejaVuSans-2212"/>
       <use xlink:href="#DejaVuSans-32" x="83.789062"/>
       <use xlink:href="#DejaVuSans-2e" x="147.412109"/>
       <use xlink:href="#DejaVuSans-35" x="179.199219"/>
      </g>
     </g>
    </g>
    <g id="xtick_4">
     <g id="line2d_4">
      <g>
       <use xlink:href="#m50fdfd6aa1" x="224.555594" y="290.32" style="stroke: #000000"/>
      </g>
     </g>
     <g id="text_4">
      <!-- 0.0 -->
      <g transform="translate(216.206453 303.898359) scale(0.105 -0.105)">
       <use xlink:href="#DejaVuSans-30"/>
       <use xlink:href="#DejaVuSans-2e" x="63.623047"/>
       <use xlink:href="#DejaVuSans-30" x="95.410156"/>
      </g>
     </g>
    </g>
    <g id="xtick_5">
     <g id="line2d_5">
      <g>
       <use xlink:href="#m50fdfd6aa1" x="272.73549" y="290.32" style="stroke: #000000"/>
      </g>
     </g>
     <g id="text_5">
      <!-- 2.5 -->
      <g transform="translate(264.38635 303.898359) scale(0.105 -0.105)">
       <use xlink:href="#DejaVuSans-32"/>
       <use xlink:href="#DejaVuSans-2e" x="63.623047"/>
       <use xlink:href="#DejaVuSans-35" x="95.410156"/>
      </g>
     </g>
    </g>
    <g id="xtick_6">
     <g id="line2d_6">
      <g>
       <use xlink:href="#m50fdfd6aa1" x="320.915387" y="290.32" style="stroke: #000000"/>
      </g>
     </g>
     <g id="text_6">
      <!-- 5.0 -->
      <g transform="translate(312.566246 303.898359) scale(0.105 -0.105)">
       <use xlink:href="#DejaVuSans-35"/>
       <use xlink:href="#DejaVuSans-2e" x="63.623047"/>
       <use xlink:href="#DejaVuSans-30" x="95.410156"/>
      </g>
     </g>
    </g>
    <g id="xtick_7">
     <g id="line2d_7">
      <g>
       <use xlink:href="#m50fdfd6aa1" x="369.095284" y="290.32" style="stroke: #000000"/>
      </g>
     </g>
     <g id="text_7">
      <!-- 7.5 -->
      <g transform="translate(360.746143 303.898359) scale(0.105 -0.105)">
       <use xlink:href="#DejaVuSans-37"/>
       <use xlink:href="#DejaVuSans-2e" x="63.623047"/>
       <use xlink:href="#DejaVuSans-35" x="95.410156"/>
      </g>
     </g>
    </g>
    <g id="xtick_8">
     <g id="line2d_8">
      <g>
       <use xlink:href="#m50fdfd6aa1" x="417.27518" y="290.32" style="stroke: #000000"/>
      </g>
     </g>
     <g id="text_8">
      <!-- 10.0 -->
      <g transform="translate(405.585727 303.898359) scale(0.105 -0.105)">
       <defs>
        <path id="DejaVuSans-31" d="M 794 531 
L 1825 531 
L 1825 4091 
L 703 3866 
L 703 4441 
L 1819 4666 
L 2450 4666 
L 2450 531 
L 3481 531 
L 3481 0 
L 794 0 
L 794 531 
z
" transform="scale(0.015625)"/>
       </defs>
       <use xlink:href="#DejaVuSans-31"/>
       <use xlink:href="#DejaVuSans-30" x="63.623047"/>
       <use xlink:href="#DejaVuSans-2e" x="127.246094"/>
       <use xlink:href="#DejaVuSans-30" x="159.033203"/>
      </g>
     </g>
    </g>
   </g>
   <g id="matplotlib.axis_2">
    <g id="ytick_1">
     <g id="line2d_9">
      <defs>
       <path id="m04499be551" d="M 0 0 
L 3 0 
" style="stroke: #000000"/>
      </defs>
      <g>
       <use xlink:href="#m04499be551" x="37.219652" y="258.442873" style="stroke: #000000"/>
      </g>
     </g>
     <g id="text_9">
      <!-- −2 -->
      <g transform="translate(16.140355 262.432052) scale(0.105 -0.105)">
       <use xlink:href="#DejaVuSans-2212"/>
       <use xlink:href="#DejaVuSans-32" x="83.789062"/>
      </g>
     </g>
    </g>
    <g id="ytick_2">
     <g id="line2d_10">
      <g>
       <use xlink:href="#m04499be551" x="37.219652" y="219.898955" style="stroke: #000000"/>
      </g>
     </g>
     <g id="text_10">
      <!-- 0 -->
      <g transform="translate(24.939027 223.888135) scale(0.105 -0.105)">
       <use xlink:href="#DejaVuSans-30"/>
      </g>
     </g>
    </g>
    <g id="ytick_3">
     <g id="line2d_11">
      <g>
       <use xlink:href="#m04499be551" x="37.219652" y="181.355038" style="stroke: #000000"/>
      </g>
     </g>
     <g id="text_11">
      <!-- 2 -->
      <g transform="translate(24.939027 185.344218) scale(0.105 -0.105)">
       <use xlink:href="#DejaVuSans-32"/>
      </g>
     </g>
    </g>
    <g id="ytick_4">
     <g id="line2d_12">
      <g>
       <use xlink:href="#m04499be551" x="37.219652" y="142.811121" style="stroke: #000000"/>
      </g>
     </g>
     <g id="text_12">
      <!-- 4 -->
      <g transform="translate(24.939027 146.8003) scale(0.105 -0.105)">
       <defs>
        <path id="DejaVuSans-34" d="M 2419 4116 
L 825 1625 
L 2419 1625 
L 2419 4116 
z
M 2253 4666 
L 3047 4666 
L 3047 1625 
L 3713 1625 
L 3713 1100 
L 3047 1100 
L 3047 0 
L 2419 0 
L 2419 1100 
L 313 1100 
L 313 1709 
L 2253 4666 
z
" transform="scale(0.015625)"/>
       </defs>
       <use xlink:href="#DejaVuSans-34"/>
      </g>
     </g>
    </g>
    <g id="ytick_5">
     <g id="line2d_13">
      <g>
       <use xlink:href="#m04499be551" x="37.219652" y="104.267203" style="stroke: #000000"/>
      </g>
     </g>
     <g id="text_13">
      <!-- 6 -->
      <g transform="translate(24.939027 108.256383) scale(0.105 -0.105)">
       <defs>
        <path id="DejaVuSans-36" d="M 2113 2584 
Q 1688 2584 1439 2293 
Q 1191 2003 1191 1497 
Q 1191 994 1439 701 
Q 1688 409 2113 409 
Q 2538 409 2786 701 
Q 3034 994 3034 1497 
Q 3034 2003 2786 2293 
Q 2538 2584 2113 2584 
z
M 3366 4563 
L 3366 3988 
Q 3128 4100 2886 4159 
Q 2644 4219 2406 4219 
Q 1781 4219 1451 3797 
Q 1122 3375 1075 2522 
Q 1259 2794 1537 2939 
Q 1816 3084 2150 3084 
Q 2853 3084 3261 2657 
Q 3669 2231 3669 1497 
Q 3669 778 3244 343 
Q 2819 -91 2113 -91 
Q 1303 -91 875 529 
Q 447 1150 447 2328 
Q 447 3434 972 4092 
Q 1497 4750 2381 4750 
Q 2619 4750 2861 4703 
Q 3103 4656 3366 4563 
z
" transform="scale(0.015625)"/>
       </defs>
       <use xlink:href="#DejaVuSans-36"/>
      </g>
     </g>
    </g>
    <g id="ytick_6">
     <g id="line2d_14">
      <g>
       <use xlink:href="#m04499be551" x="37.219652" y="65.723286" style="stroke: #000000"/>
      </g>
     </g>
     <g id="text_14">
      <!-- 8 -->
      <g transform="translate(24.939027 69.712466) scale(0.105 -0.105)">
       <defs>
        <path id="DejaVuSans-38" d="M 2034 2216 
Q 1584 2216 1326 1975 
Q 1069 1734 1069 1313 
Q 1069 891 1326 650 
Q 1584 409 2034 409 
Q 2484 409 2743 651 
Q 3003 894 3003 1313 
Q 3003 1734 2745 1975 
Q 2488 2216 2034 2216 
z
M 1403 2484 
Q 997 2584 770 2862 
Q 544 3141 544 3541 
Q 544 4100 942 4425 
Q 1341 4750 2034 4750 
Q 2731 4750 3128 4425 
Q 3525 4100 3525 3541 
Q 3525 3141 3298 2862 
Q 3072 2584 2669 2484 
Q 3125 2378 3379 2068 
Q 3634 1759 3634 1313 
Q 3634 634 3220 271 
Q 2806 -91 2034 -91 
Q 1263 -91 848 271 
Q 434 634 434 1313 
Q 434 1759 690 2068 
Q 947 2378 1403 2484 
z
M 1172 3481 
Q 1172 3119 1398 2916 
Q 1625 2713 2034 2713 
Q 2441 2713 2670 2916 
Q 2900 3119 2900 3481 
Q 2900 3844 2670 4047 
Q 2441 4250 2034 4250 
Q 1625 4250 1398 4047 
Q 1172 3844 1172 3481 
z
" transform="scale(0.015625)"/>
       </defs>
       <use xlink:href="#DejaVuSans-38"/>
      </g>
     </g>
    </g>
    <g id="ytick_7">
     <g id="line2d_15">
      <g>
       <use xlink:href="#m04499be551" x="37.219652" y="27.179369" style="stroke: #000000"/>
      </g>
     </g>
     <g id="text_15">
      <!-- 10 -->
      <g transform="translate(18.258402 31.168548) scale(0.105 -0.105)">
       <use xlink:href="#DejaVuSans-31"/>
       <use xlink:href="#DejaVuSans-30" x="63.623047"/>
      </g>
     </g>
    </g>
   </g>
   <g id="patch_3">
    <path d="M 37.219652 290.32 
L 37.219652 10.8 
" style="fill: none; stroke: #000000; stroke-width: 0.8; stroke-linejoin: miter; stroke-linecap: square"/>
   </g>
   <g id="patch_4">
    <path d="M 443.287058 290.32 
L 443.287058 10.8 
" style="fill: none; stroke: #000000; stroke-width: 0.8; stroke-linejoin: miter; stroke-linecap: square"/>
   </g>
   <g id="patch_5">
    <path d="M 37.219652 290.32 
L 443.287058 290.32 
" style="fill: none; stroke: #000000; stroke-width: 0.8; stroke-linejoin: miter; stroke-linecap: square"/>
   </g>
   <g id="patch_6">
    <path d="M 37.219652 10.8 
L 443.287058 10.8 
" style="fill: none; stroke: #000000; stroke-width: 0.8; stroke-linejoin: miter; stroke-linecap: square"/>
   </g>
  </g>
 </g>
 <defs>
  <clipPath id="pd8b680eb73">
   <rect x="37.219652" y="10.8" width="406.067406" height="279.52"/>
  </clipPath>
 </defs>
</svg>
