<?xml version="1.0" encoding="utf-8" standalone="no"?>
<!DOCTYPE svg PUBLIC "-//W3C//DTD SVG 1.1//EN"
  "http://www.w3.org/Graphics/SVG/1.1/DTD/svg11.dtd">
<svg xmlns:xlink="http://www.w3.org/1999/xlink" width="460.8pt" height="316.8pt" viewBox="0 0 460.8 316.8" xmlns="http://www.w3.org/2000/svg" version="1.1">
 <metadata>
  <rdf:RDF xmlns:dc="http://purl.org/dc/elements/1.1/" xmlns:cc="http://creativecommons.org/ns#" xmlns:rdf="http://www.w3.org/1999/02/22-rdf-syntax-ns#">
   <cc:Work>
    <dc:type rdf:resource="http://purl.org/dc/dcmitype/StillImage"/>
    <dc:date>2024-01-11T15:54:28.670135</dc:date>
    <dc:format>image/svg+xml</dc:format>
    <dc:creator>
     <cc:Agent>
      <dc:title>Matplotlib v3.7.2, https://matplotlib.org/</dc:title>
     </cc:Agent>
    </dc:creator>
   </cc:Work>
  </rdf:RDF>
 </metadata>
 <defs>
  <style type="text/css">*{stroke-linejoin: round; stroke-linecap: butt}</style>
 </defs>
 <g id="figure_1">
  <g id="patch_1">
   <path d="M 0 316.8 
L 460.8 316.8 
L 460.8 0 
L 0 0 
z
" style="fill: #ffffff"/>
  </g>
  <g id="axes_1">
   <g id="patch_2">
    <path d="M 31.88 286.683476 
L 450 286.683476 
L 450 24.391627 
L 31.88 24.391627 
z
" style="fill: #ffffff"/>
   </g>
   <g id="PatchCollection_1">
    <path d="M 225.938728 216.572837 
L 344.331433 216.572837 
L 344.331433 167.242543 
L 225.938728 167.242543 
z
" clip-path="url(#p9e6f4ce5c4)" style="fill: #ffffff; stroke: #0000ff; stroke-width: 3"/>
    <path d="M 101.626388 210.653201 
L 188.570413 179.008164 
L 175.464279 142.999357 
L 88.520255 174.644394 
z
" clip-path="url(#p9e6f4ce5c4)" style="fill: #ff0000; stroke: #ff0000; stroke-width: 2"/>
    <path d="M 360.117127 236.304954 
L 430.994545 176.831738 
L 406.363071 147.47709 
L 335.485652 206.950306 
z
" clip-path="url(#p9e6f4ce5c4)" style="fill: #ff0000; stroke: #ff0000; stroke-width: 2"/>
    <path d="M 265.402963 145.537214 
L 311.664913 65.409167 
L 278.479017 46.249281 
L 232.217067 126.377328 
z
" clip-path="url(#p9e6f4ce5c4)" style="fill: #ff0000; stroke: #ff0000; stroke-width: 2"/>
    <path d="M 196.340552 259.983495 
L 288.73765 264.825822 
L 290.743152 226.558566 
L 198.346054 221.716239 
z
" clip-path="url(#p9e6f4ce5c4)" style="fill: #ff0000; stroke: #ff0000; stroke-width: 2"/>
   </g>
   <g id="PatchCollection_2">
    <path d="M 50.885455 123.89761 
L 142.003706 139.964223 
L 148.657868 102.226615 
L 57.539616 86.160002 
L 50.885455 123.89761 
z
" clip-path="url(#p9e6f4ce5c4)" style="fill: none; stroke: #000000; stroke-width: 0.5"/>
    <path d="M 55.61772 128.323318 
L 147.418978 139.864585 
L 152.198918 101.844103 
L 60.39766 90.302835 
L 55.61772 128.323318 
z
" clip-path="url(#p9e6f4ce5c4)" style="fill: none; stroke: #000000; stroke-width: 0.5"/>
    <path d="M 60.563171 132.509484 
L 152.822827 139.497169 
L 155.716852 101.286836 
L 63.457196 94.299151 
L 60.563171 132.509484 
z
" clip-path="url(#p9e6f4ce5c4)" style="fill: none; stroke: #000000; stroke-width: 0.5"/>
    <path d="M 65.709546 136.446147 
L 158.20187 138.863161 
L 159.202902 100.556466 
L 66.710579 98.139452 
L 65.709546 136.446147 
z
" clip-path="url(#p9e6f4ce5c4)" style="fill: none; stroke: #000000; stroke-width: 0.5"/>
    <path d="M 71.044332 140.12344 
L 163.543025 137.963869 
L 162.648615 99.654536 
L 70.149923 101.814107 
L 71.044332 140.12344 
z
" clip-path="url(#p9e6f4ce5c4)" style="fill: none; stroke: #000000; stroke-width: 0.5"/>
    <path d="M 76.455968 143.239298 
L 168.761152 136.88124 
L 166.127894 98.652051 
L 73.82271 105.010109 
L 76.455968 143.239298 
z
" clip-path="url(#p9e6f4ce5c4)" style="fill: none; stroke: #000000; stroke-width: 0.5"/>
    <path d="M 79.735436 139.421343 
L 172.242097 137.635437 
L 171.502445 99.322804 
L 78.995784 101.10871 
L 79.735436 139.421343 
z
" clip-path="url(#p9e6f4ce5c4)" style="fill: none; stroke: #000000; stroke-width: 0.5"/>
    <path d="M 83.19983 135.770258 
L 175.681635 138.560883 
L 176.837402 100.258544 
L 84.355597 97.46792 
L 83.19983 135.770258 
z
" clip-path="url(#p9e6f4ce5c4)" style="fill: none; stroke: #000000; stroke-width: 0.5"/>
    <path d="M 86.840374 132.294852 
L 179.07105 139.655171 
L 182.119405 101.45684 
L 89.888729 94.096522 
L 86.840374 132.294852 
z
" clip-path="url(#p9e6f4ce5c4)" style="fill: none; stroke: #000000; stroke-width: 0.5"/>
    <path d="M 90.648425 129.003778 
L 182.402307 140.915828 
L 187.335811 102.914966 
L 95.581929 91.002917 
L 90.648425 129.003778 
z
" clip-path="url(#p9e6f4ce5c4)" style="fill: none; stroke: #000000; stroke-width: 0.5"/>
    <path d="M 94.614519 125.905168 
L 185.667134 142.339676 
L 192.473663 104.629252 
L 101.421048 88.194744 
L 94.614519 125.905168 
z
" clip-path="url(#p9e6f4ce5c4)" style="fill: none; stroke: #000000; stroke-width: 0.5"/>
    <path d="M 98.728894 123.006292 
L 188.857454 143.923139 
L 197.520393 106.595423 
L 107.391833 85.678575 
L 98.728894 123.006292 
z
" clip-path="url(#p9e6f4ce5c4)" style="fill: none; stroke: #000000; stroke-width: 0.5"/>
    <path d="M 102.981561 120.314514 
L 191.96555 145.662524 
L 202.463702 108.808844 
L 113.479714 83.460834 
L 102.981561 120.314514 
z
" clip-path="url(#p9e6f4ce5c4)" style="fill: none; stroke: #000000; stroke-width: 0.5"/>
    <path d="M 107.362258 117.836346 
L 194.98396 147.553501 
L 207.29164 111.264027 
L 119.669939 81.546872 
L 107.362258 117.836346 
z
" clip-path="url(#p9e6f4ce5c4)" style="fill: none; stroke: #000000; stroke-width: 0.5"/>
    <path d="M 111.860069 115.577695 
L 197.9051 149.591286 
L 211.992196 113.954807 
L 125.947165 79.941216 
L 111.860069 115.577695 
z
" clip-path="url(#p9e6f4ce5c4)" style="fill: none; stroke: #000000; stroke-width: 0.5"/>
    <path d="M 116.46421 113.544238 
L 200.722047 151.771045 
L 216.554091 116.874751 
L 132.296255 78.647945 
L 116.46421 113.544238 
z
" clip-path="url(#p9e6f4ce5c4)" style="fill: none; stroke: #000000; stroke-width: 0.5"/>
    <path d="M 121.163049 111.741003 
L 203.427539 154.087496 
L 220.965797 120.016769 
L 138.701306 77.670276 
L 121.163049 111.741003 
z
" clip-path="url(#p9e6f4ce5c4)" style="fill: none; stroke: #000000; stroke-width: 0.5"/>
    <path d="M 125.945488 110.172346 
L 206.015357 156.534918 
L 225.216916 123.373117 
L 145.147048 77.010545 
L 125.945488 110.172346 
z
" clip-path="url(#p9e6f4ce5c4)" style="fill: none; stroke: #000000; stroke-width: 0.5"/>
    <path d="M 130.799589 108.841932 
L 208.47893 159.107147 
L 229.296812 126.935409 
L 151.617471 76.670194 
L 130.799589 108.841932 
z
" clip-path="url(#p9e6f4ce5c4)" style="fill: none; stroke: #000000; stroke-width: 0.5"/>
    <path d="M 135.713443 107.753299 
L 210.812199 161.798175 
L 233.195468 130.695214 
L 158.096712 76.650338 
L 135.713443 107.753299 
z
" clip-path="url(#p9e6f4ce5c4)" style="fill: none; stroke: #000000; stroke-width: 0.5"/>
    <path d="M 140.67518 106.909055 
L 213.009609 164.601361 
L 236.903501 134.643276 
L 164.569071 76.95097 
L 140.67518 106.909055 
z
" clip-path="url(#p9e6f4ce5c4)" style="fill: none; stroke: #000000; stroke-width: 0.5"/>
    <path d="M 145.672621 106.311047 
L 215.065744 167.509628 
L 240.411798 138.769717 
L 171.018675 77.571136 
L 145.672621 106.311047 
z
" clip-path="url(#p9e6f4ce5c4)" style="fill: none; stroke: #000000; stroke-width: 0.5"/>
    <path d="M 150.693506 105.960936 
L 216.975539 170.516058 
L 243.711741 143.064638 
L 177.429708 78.509516 
L 150.693506 105.960936 
z
" clip-path="url(#p9e6f4ce5c4)" style="fill: none; stroke: #000000; stroke-width: 0.5"/>
    <path d="M 149.609943 99.600159 
L 212.618716 167.353877 
L 240.67965 141.258114 
L 177.670877 73.504395 
L 149.609943 99.600159 
z
" clip-path="url(#p9e6f4ce5c4)" style="fill: none; stroke: #000000; stroke-width: 0.5"/>
    <path d="M 148.819689 93.169112 
L 208.401039 163.955654 
L 237.71805 139.279395 
L 178.136701 68.492852 
L 148.819689 93.169112 
z
" clip-path="url(#p9e6f4ce5c4)" style="fill: none; stroke: #000000; stroke-width: 0.5"/>
    <path d="M 148.348419 86.706855 
L 204.356569 160.35303 
L 234.857927 137.156649 
L 178.849777 63.510475 
L 148.348419 86.706855 
z
" clip-path="url(#p9e6f4ce5c4)" style="fill: none; stroke: #000000; stroke-width: 0.5"/>
    <path d="M 148.197219 80.229295 
L 200.495135 156.554912 
L 232.106214 134.895165 
L 179.808298 58.569548 
L 148.197219 80.229295 
z
" clip-path="url(#p9e6f4ce5c4)" style="fill: none; stroke: #000000; stroke-width: 0.5"/>
    <path d="M 148.327969 86.267146 
L 204.088278 160.101147 
L 234.667427 137.007413 
L 178.907118 63.173412 
L 148.327969 86.267146 
z
" clip-path="url(#p9e6f4ce5c4)" style="fill: none; stroke: #000000; stroke-width: 0.5"/>
    <path d="M 148.736878 92.292383 
L 207.840987 163.477888 
L 237.323233 138.999283 
L 178.219124 67.813778 
L 148.736878 92.292383 
z
" clip-path="url(#p9e6f4ce5c4)" style="fill: none; stroke: #000000; stroke-width: 0.5"/>
    <path d="M 149.423022 98.292433 
L 211.745374 166.678077 
L 240.068027 140.866601 
L 177.745675 72.480958 
L 149.423022 98.292433 
z
" clip-path="url(#p9e6f4ce5c4)" style="fill: none; stroke: #000000; stroke-width: 0.5"/>
    <path d="M 150.385036 104.25447 
L 215.793096 169.694959 
L 242.895981 142.605504 
L 177.487922 77.165016 
L 150.385036 104.25447 
z
" clip-path="url(#p9e6f4ce5c4)" style="fill: none; stroke: #000000; stroke-width: 0.5"/>
    <path d="M 151.620766 110.165931 
L 219.975572 172.522105 
L 245.801055 144.212223 
L 177.446249 81.85605 
L 151.620766 110.165931 
z
" clip-path="url(#p9e6f4ce5c4)" style="fill: none; stroke: #000000; stroke-width: 0.5"/>
    <path d="M 153.127696 116.014013 
L 224.283896 175.153399 
L 248.777111 145.68329 
L 177.620911 86.543904 
L 153.127696 116.014013 
z
" clip-path="url(#p9e6f4ce5c4)" style="fill: none; stroke: #000000; stroke-width: 0.5"/>
    <path d="M 154.902526 121.786413 
L 228.708936 177.583239 
L 251.817794 147.015518 
L 178.011385 91.218691 
L 154.902526 121.786413 
z
" clip-path="url(#p9e6f4ce5c4)" style="fill: none; stroke: #000000; stroke-width: 0.5"/>
    <path d="M 156.941573 127.470801 
L 233.241258 179.806543 
L 254.916671 148.206204 
L 178.616986 95.870462 
L 156.941573 127.470801 
z
" clip-path="url(#p9e6f4ce5c4)" style="fill: none; stroke: #000000; stroke-width: 0.5"/>
    <path d="M 160.059659 130.538452 
L 236.923611 182.041895 
L 258.254319 150.207858 
L 181.390366 98.704416 
L 160.059659 130.538452 
z
" clip-path="url(#p9e6f4ce5c4)" style="fill: none; stroke: #000000; stroke-width: 0.5"/>
    <path d="M 163.460825 132.817511 
L 240.324777 184.320954 
L 261.655484 152.486918 
L 184.791532 100.983475 
L 163.460825 132.817511 
z
" clip-path="url(#p9e6f4ce5c4)" style="fill: none; stroke: #000000; stroke-width: 0.5"/>
    <path d="M 166.861991 135.096374 
L 243.725943 186.599816 
L 265.05665 154.76578 
L 188.192698 103.262337 
L 166.861991 135.096374 
z
" clip-path="url(#p9e6f4ce5c4)" style="fill: none; stroke: #000000; stroke-width: 0.5"/>
    <path d="M 170.263137 137.375433 
L 247.127089 188.878876 
L 268.457797 157.04484 
L 191.593844 105.541397 
L 170.263137 137.375433 
z
" clip-path="url(#p9e6f4ce5c4)" style="fill: none; stroke: #000000; stroke-width: 0.5"/>
    <path d="M 173.664283 139.654295 
L 250.528236 191.157738 
L 271.858943 159.323702 
L 194.99499 107.820259 
L 173.664283 139.654295 
z
" clip-path="url(#p9e6f4ce5c4)" style="fill: none; stroke: #000000; stroke-width: 0.5"/>
    <path d="M 177.065508 141.933355 
L 253.929461 193.436798 
L 275.260168 161.602761 
L 198.396215 110.099319 
L 177.065508 141.933355 
z
" clip-path="url(#p9e6f4ce5c4)" style="fill: none; stroke: #000000; stroke-width: 0.5"/>
    <path d="M 180.466536 144.212415 
L 257.330488 195.715857 
L 278.661196 163.881821 
L 201.797243 112.378378 
L 180.466536 144.212415 
z
" clip-path="url(#p9e6f4ce5c4)" style="fill: none; stroke: #000000; stroke-width: 0.5"/>
    <path d="M 183.867761 146.491277 
L 260.731713 197.99472 
L 282.062421 166.160683 
L 205.198468 114.657241 
L 183.867761 146.491277 
z
" clip-path="url(#p9e6f4ce5c4)" style="fill: none; stroke: #000000; stroke-width: 0.5"/>
    <path d="M 187.268986 148.770336 
L 264.132939 200.273779 
L 285.463646 168.439743 
L 208.599693 116.9363 
L 187.268986 148.770336 
z
" clip-path="url(#p9e6f4ce5c4)" style="fill: none; stroke: #000000; stroke-width: 0.5"/>
    <path d="M 190.670014 151.049199 
L 267.533966 202.552641 
L 288.864673 170.718605 
L 212.000721 119.215162 
L 190.670014 151.049199 
z
" clip-path="url(#p9e6f4ce5c4)" style="fill: none; stroke: #000000; stroke-width: 0.5"/>
    <path d="M 193.21382 155.973287 
L 271.933178 204.593597 
L 292.069804 171.991125 
L 213.350446 123.370815 
L 193.21382 155.973287 
z
" clip-path="url(#p9e6f4ce5c4)" style="fill: none; stroke: #000000; stroke-width: 0.5"/>
    <path d="M 195.777633 161.441137 
L 276.654275 206.381549 
L 295.266832 172.885614 
L 214.39019 127.945202 
L 195.777633 161.441137 
z
" clip-path="url(#p9e6f4ce5c4)" style="fill: none; stroke: #000000; stroke-width: 0.5"/>
    <path d="M 198.590612 166.785297 
L 281.452678 207.950207 
L 298.50157 173.631987 
L 215.639504 132.467077 
L 198.590612 166.785297 
z
" clip-path="url(#p9e6f4ce5c4)" style="fill: none; stroke: #000000; stroke-width: 0.5"/>
    <path d="M 201.647015 171.993769 
L 286.318338 209.295764 
L 301.767362 174.228221 
L 217.096039 136.926226 
L 201.647015 171.993769 
z
" clip-path="url(#p9e6f4ce5c4)" style="fill: none; stroke: #000000; stroke-width: 0.5"/>
    <path d="M 204.940107 177.056168 
L 291.240754 210.415877 
L 305.057038 174.673532 
L 218.756391 141.313823 
L 204.940107 177.056168 
z
" clip-path="url(#p9e6f4ce5c4)" style="fill: none; stroke: #000000; stroke-width: 0.5"/>
    <path d="M 208.463256 181.961156 
L 296.20976 211.307758 
L 308.363972 174.966596 
L 220.617469 145.619994 
L 208.463256 181.961156 
z
" clip-path="url(#p9e6f4ce5c4)" style="fill: none; stroke: #000000; stroke-width: 0.5"/>
    <path d="M 212.208662 186.698647 
L 301.214543 211.969677 
L 311.680813 175.10693 
L 222.674932 149.8359 
L 212.208662 186.698647 
z
" clip-path="url(#p9e6f4ce5c4)" style="fill: none; stroke: #000000; stroke-width: 0.5"/>
    <path d="M 216.168395 191.258422 
L 306.244445 212.400255 
L 315.000564 175.094286 
L 224.924514 153.952453 
L 216.168395 191.258422 
z
" clip-path="url(#p9e6f4ce5c4)" style="fill: none; stroke: #000000; stroke-width: 0.5"/>
    <path d="M 220.333979 195.630756 
L 311.288759 212.598365 
L 318.316078 174.92846 
L 227.361297 157.960851 
L 220.333979 195.630756 
z
" clip-path="url(#p9e6f4ce5c4)" style="fill: none; stroke: #000000; stroke-width: 0.5"/>
    <path d="M 224.696778 199.806616 
L 316.336946 212.564026 
L 321.620565 174.610261 
L 229.980398 161.85285 
L 224.696778 199.806616 
z
" clip-path="url(#p9e6f4ce5c4)" style="fill: none; stroke: #000000; stroke-width: 0.5"/>
    <path d="M 229.24744 203.776898 
L 321.378224 212.296903 
L 324.906876 174.139943 
L 232.776092 165.619939 
L 229.24744 203.776898 
z
" clip-path="url(#p9e6f4ce5c4)" style="fill: none; stroke: #000000; stroke-width: 0.5"/>
    <path d="M 233.976241 207.533263 
L 326.401808 211.797797 
L 328.168011 173.51875 
L 235.742444 169.254216 
L 233.976241 207.533263 
z
" clip-path="url(#p9e6f4ce5c4)" style="fill: none; stroke: #000000; stroke-width: 0.5"/>
    <path d="M 238.873131 211.067576 
L 331.39703 211.067576 
L 331.39703 172.747804 
L 238.873131 172.747804 
L 238.873131 211.067576 
z
" clip-path="url(#p9e6f4ce5c4)" style="fill: none; stroke: #000000; stroke-width: 0.5"/>
   </g>
   <g id="PatchCollection_3">
    <path d="M 151.08276 122.109648 
L 146.4535 122.796123 
L 146.624822 121.824506 
L 127.19248 118.398058 
L 127.363802 117.426441 
L 146.796144 120.852889 
L 146.967467 119.881272 
z
" clip-path="url(#p9e6f4ce5c4)" style="fill: #ff0000; stroke: #ff0000; stroke-width: 0.24"/>
    <path d="M 155.604037 121.582904 
L 151.014385 122.49745 
L 151.137453 121.51855 
L 131.559449 119.057201 
L 131.682517 118.0783 
L 151.26052 120.53965 
L 151.383587 119.56075 
z
" clip-path="url(#p9e6f4ce5c4)" style="fill: #ff0000; stroke: #ff0000; stroke-width: 0.24"/>
    <path d="M 160.093865 120.83311 
L 155.555051 121.973491 
L 155.629563 120.989703 
L 135.953799 119.499473 
L 136.028311 118.515685 
L 155.704074 120.005914 
L 155.778586 119.022126 
z
" clip-path="url(#p9e6f4ce5c4)" style="fill: #ff0000; stroke: #ff0000; stroke-width: 0.24"/>
    <path d="M 164.541099 119.862391 
L 160.064228 121.225815 
L 160.090002 120.239546 
L 140.364618 119.724081 
L 140.390391 118.737812 
L 160.115775 119.253277 
L 160.141548 118.267008 
z
" clip-path="url(#p9e6f4ce5c4)" style="fill: #ff0000; stroke: #ff0000; stroke-width: 0.24"/>
    <path d="M 168.934935 118.672877 
L 164.530961 120.256008 
L 164.507932 119.269671 
L 144.781191 119.730232 
L 144.758163 118.743895 
L 164.484904 118.283334 
L 164.461876 117.296997 
z
" clip-path="url(#p9e6f4ce5c4)" style="fill: #ff0000; stroke: #ff0000; stroke-width: 0.24"/>
    <path d="M 173.271423 117.365284 
L 168.943888 119.146784 
L 168.87609 118.16251 
L 149.190617 119.518462 
L 149.12282 118.534188 
L 168.808293 117.178236 
L 168.740495 116.193963 
z
" clip-path="url(#p9e6f4ce5c4)" style="fill: #ff0000; stroke: #ff0000; stroke-width: 0.24"/>
    <path d="M 177.71189 118.366383 
L 173.301556 119.931712 
L 173.282512 118.94529 
L 153.554071 119.326161 
L 153.535027 118.339739 
L 173.263469 117.958868 
L 173.244425 116.972446 
z
" clip-path="url(#p9e6f4ce5c4)" style="fill: #ff0000; stroke: #ff0000; stroke-width: 0.24"/>
    <path d="M 182.097568 119.585876 
L 177.615226 120.931204 
L 177.644983 119.945047 
L 157.921843 119.349904 
L 157.9516 118.363747 
L 177.67474 118.95889 
L 177.704497 117.972733 
z
" clip-path="url(#p9e6f4ce5c4)" style="fill: #ff0000; stroke: #ff0000; stroke-width: 0.24"/>
    <path d="M 186.417424 121.020636 
L 181.87404 122.142673 
L 181.952525 121.159194 
L 162.282942 119.589495 
L 162.361427 118.606016 
L 182.03101 120.175714 
L 182.109495 119.192235 
z
" clip-path="url(#p9e6f4ce5c4)" style="fill: #ff0000; stroke: #ff0000; stroke-width: 0.24"/>
    <path d="M 190.661158 122.667363 
L 186.067849 123.56336 
L 186.19487 122.584965 
L 166.62697 120.04454 
L 166.753991 119.066145 
L 186.321891 121.60657 
L 186.448912 120.628175 
z
" clip-path="url(#p9e6f4ce5c4)" style="fill: #ff0000; stroke: #ff0000; stroke-width: 0.24"/>
    <path d="M 194.818229 124.521916 
L 190.186233 125.189688 
L 190.361479 124.218771 
L 170.943134 120.713864 
L 171.11838 119.742947 
L 190.536724 123.247854 
L 190.711969 122.276936 
z
" clip-path="url(#p9e6f4ce5c4)" style="fill: #ff0000; stroke: #ff0000; stroke-width: 0.24"/>
    <path d="M 198.878421 126.579688 
L 194.219072 127.017596 
L 194.442113 126.056532 
L 175.220838 121.595699 
L 175.44388 120.634635 
L 194.665155 125.095468 
L 194.888197 124.134405 
z
" clip-path="url(#p9e6f4ce5c4)" style="fill: #ff0000; stroke: #ff0000; stroke-width: 0.24"/>
    <path d="M 202.831871 128.835815 
L 198.156567 129.042788 
L 198.426859 128.093929 
L 179.449681 122.688083 
L 179.719973 121.739224 
L 198.697152 127.14507 
L 198.967444 126.196211 
z
" clip-path="url(#p9e6f4ce5c4)" style="fill: #ff0000; stroke: #ff0000; stroke-width: 0.24"/>
    <path d="M 206.669048 131.284703 
L 201.98923 131.260234 
L 202.306111 130.325902 
L 183.619462 123.98827 
L 183.936343 123.053938 
L 202.622993 129.391569 
L 202.939875 128.457237 
z
" clip-path="url(#p9e6f4ce5c4)" style="fill: #ff0000; stroke: #ff0000; stroke-width: 0.24"/>
    <path d="M 210.380367 133.920204 
L 205.707483 133.664354 
L 206.070179 132.746834 
L 187.719778 125.492923 
L 188.082473 124.575403 
L 206.432875 131.829314 
L 206.79557 130.911794 
z
" clip-path="url(#p9e6f4ce5c4)" style="fill: #ff0000; stroke: #ff0000; stroke-width: 0.24"/>
    <path d="M 213.956968 136.736021 
L 209.302453 136.249416 
L 209.710075 135.350953 
L 191.74082 127.19851 
L 192.148442 126.300047 
L 210.117697 134.45249 
L 210.525319 133.554027 
z
" clip-path="url(#p9e6f4ce5c4)" style="fill: #ff0000; stroke: #ff0000; stroke-width: 0.24"/>
    <path d="M 217.389734 139.725317 
L 212.764975 139.009147 
L 213.216526 138.131939 
L 195.672382 129.100911 
L 196.123934 128.223703 
L 213.668078 137.254732 
L 214.119629 136.377525 
z
" clip-path="url(#p9e6f4ce5c4)" style="fill: #ff0000; stroke: #ff0000; stroke-width: 0.24"/>
    <path d="M 220.670664 142.880723 
L 216.086976 141.936739 
L 216.581352 141.082934 
L 199.505245 131.195416 
L 199.999621 130.341611 
L 217.075728 140.229129 
L 217.570104 139.375323 
z
" clip-path="url(#p9e6f4ce5c4)" style="fill: #ff0000; stroke: #ff0000; stroke-width: 0.24"/>
    <path d="M 223.791493 146.194343 
L 219.260091 145.024857 
L 219.796082 144.196542 
L 203.22979 133.476727 
L 203.765781 132.648412 
L 220.332073 143.368228 
L 220.868063 142.539913 
z
" clip-path="url(#p9e6f4ce5c4)" style="fill: #ff0000; stroke: #ff0000; stroke-width: 0.24"/>
    <path d="M 226.744553 149.658357 
L 222.276524 148.266228 
L 222.852818 147.465431 
L 206.836875 135.939546 
L 207.41317 135.138749 
L 223.429113 146.664634 
L 224.005407 145.863837 
z
" clip-path="url(#p9e6f4ce5c4)" style="fill: #ff0000; stroke: #ff0000; stroke-width: 0.24"/>
    <path d="M 229.522772 153.26423 
L 225.129048 151.652866 
L 225.744236 150.881545 
L 210.317827 138.577791 
L 210.933015 137.80647 
L 226.359424 150.110225 
L 226.974611 149.338905 
z
" clip-path="url(#p9e6f4ce5c4)" style="fill: #ff0000; stroke: #ff0000; stroke-width: 0.24"/>
    <path d="M 232.119314 157.002923 
L 227.810645 155.176266 
L 228.463221 154.436309 
L 213.664091 141.384788 
L 214.316667 140.644832 
L 229.115797 153.696352 
L 229.768373 152.956396 
z
" clip-path="url(#p9e6f4ce5c4)" style="fill: #ff0000; stroke: #ff0000; stroke-width: 0.24"/>
    <path d="M 234.527791 160.865485 
L 230.314719 158.828004 
L 231.003087 158.121222 
L 216.867443 144.353868 
L 217.555811 143.647086 
L 231.691455 157.414439 
L 232.379822 156.707657 
z
" clip-path="url(#p9e6f4ce5c4)" style="fill: #ff0000; stroke: #ff0000; stroke-width: 0.24"/>
    <path d="M 230.626704 158.583048 
L 226.519538 156.339728 
L 227.242013 155.667849 
L 213.804441 141.218347 
L 214.526916 140.546468 
L 227.964488 154.995971 
L 228.686963 154.324092 
z
" clip-path="url(#p9e6f4ce5c4)" style="fill: #ff0000; stroke: #ff0000; stroke-width: 0.24"/>
    <path d="M 226.820705 156.086029 
L 222.829492 153.642358 
L 223.584307 153.007027 
L 210.877685 137.910729 
L 211.6325 137.275398 
L 224.339122 152.371696 
L 225.093937 151.736365 
z
" clip-path="url(#p9e6f4ce5c4)" style="fill: #ff0000; stroke: #ff0000; stroke-width: 0.24"/>
    <path d="M 223.142844 153.403862 
L 219.277351 150.76582 
L 220.062659 150.168591 
L 208.118076 134.462433 
L 208.903384 133.865204 
L 220.847967 149.571362 
L 221.633275 148.974133 
z
" clip-path="url(#p9e6f4ce5c4)" style="fill: #ff0000; stroke: #ff0000; stroke-width: 0.24"/>
    <path d="M 219.602057 150.543205 
L 215.871741 147.717247 
L 216.685621 147.159581 
L 205.532301 130.881991 
L 206.34618 130.324325 
L 217.4995 146.601915 
L 218.31338 146.044249 
z
" clip-path="url(#p9e6f4ce5c4)" style="fill: #ff0000; stroke: #ff0000; stroke-width: 0.24"/>
    <path d="M 222.897804 153.21516 
L 219.041199 150.564141 
L 219.82851 149.969555 
L 207.936783 134.22334 
L 208.724093 133.628754 
L 220.615821 149.374968 
L 221.403131 148.780382 
z
" clip-path="url(#p9e6f4ce5c4)" style="fill: #ff0000; stroke: #ff0000; stroke-width: 0.24"/>
    <path d="M 226.313144 155.732275 
L 222.33845 153.261827 
L 223.097519 152.631585 
L 210.492676 137.450202 
L 211.251745 136.81996 
L 223.856588 152.001343 
L 224.615658 151.371101 
z
" clip-path="url(#p9e6f4ce5c4)" style="fill: #ff0000; stroke: #ff0000; stroke-width: 0.24"/>
    <path d="M 229.84089 158.089283 
L 225.756554 155.804661 
L 226.485768 155.140102 
L 213.194586 140.555832 
L 213.923799 139.891272 
L 227.214981 154.475543 
L 227.944195 153.810984 
z
" clip-path="url(#p9e6f4ce5c4)" style="fill: #ff0000; stroke: #ff0000; stroke-width: 0.24"/>
    <path d="M 233.473518 160.281258 
L 229.288223 158.187314 
L 229.986032 157.489851 
L 216.036776 143.53368 
L 216.734585 142.836217 
L 230.68384 156.792388 
L 231.381649 156.094926 
z
" clip-path="url(#p9e6f4ce5c4)" style="fill: #ff0000; stroke: #ff0000; stroke-width: 0.24"/>
    <path d="M 237.203311 162.303489 
L 232.92595 160.404677 
L 233.59087 159.675792 
L 219.013176 146.377398 
L 219.678096 145.648513 
L 234.25579 158.946908 
L 234.920709 158.218023 
z
" clip-path="url(#p9e6f4ce5c4)" style="fill: #ff0000; stroke: #ff0000; stroke-width: 0.24"/>
    <path d="M 241.022343 164.151605 
L 236.66201 162.451958 
L 237.292629 161.693201 
L 222.117495 149.080835 
L 222.748114 148.322078 
L 237.923247 160.934444 
L 238.553865 160.175688 
z
" clip-path="url(#p9e6f4ce5c4)" style="fill: #ff0000; stroke: #ff0000; stroke-width: 0.24"/>
    <path d="M 244.922502 165.821635 
L 240.488465 164.324769 
L 241.08344 163.537752 
L 225.34311 151.638237 
L 225.938086 150.851221 
L 241.678416 162.750736 
L 242.273392 161.963719 
z
" clip-path="url(#p9e6f4ce5c4)" style="fill: #ff0000; stroke: #ff0000; stroke-width: 0.24"/>
    <path d="M 248.895494 167.310144 
L 244.397177 166.019237 
L 244.955246 165.205634 
L 228.683187 154.044247 
L 229.241256 153.230644 
L 245.513315 164.392031 
L 246.071385 163.578428 
z
" clip-path="url(#p9e6f4ce5c4)" style="fill: #ff0000; stroke: #ff0000; stroke-width: 0.24"/>
    <path d="M 252.441115 169.376107 
L 247.929034 168.134162 
L 248.478228 167.314542 
L 232.08583 156.330656 
L 232.635025 155.511036 
L 249.027422 166.494922 
L 249.576617 165.675303 
z
" clip-path="url(#p9e6f4ce5c4)" style="fill: #ff0000; stroke: #ff0000; stroke-width: 0.24"/>
    <path d="M 255.842281 171.655166 
L 251.3302 170.413222 
L 251.879394 169.593602 
L 235.486996 158.609716 
L 236.036191 157.790096 
L 252.428588 168.773982 
L 252.977783 167.954362 
z
" clip-path="url(#p9e6f4ce5c4)" style="fill: #ff0000; stroke: #ff0000; stroke-width: 0.24"/>
    <path d="M 259.243447 173.934029 
L 254.731366 172.692084 
L 255.28056 171.872464 
L 238.888162 160.888578 
L 239.437357 160.068958 
L 255.829754 171.052844 
L 256.378949 170.233224 
z
" clip-path="url(#p9e6f4ce5c4)" style="fill: #ff0000; stroke: #ff0000; stroke-width: 0.24"/>
    <path d="M 262.644593 176.213088 
L 258.132512 174.971144 
L 258.681706 174.151524 
L 242.289308 163.167637 
L 242.838503 162.348017 
L 259.2309 173.331904 
L 259.780095 172.512284 
z
" clip-path="url(#p9e6f4ce5c4)" style="fill: #ff0000; stroke: #ff0000; stroke-width: 0.24"/>
    <path d="M 266.045739 178.49195 
L 261.533658 177.250006 
L 262.082852 176.430386 
L 245.690455 165.4465 
L 246.239649 164.62688 
L 262.632047 175.610766 
L 263.181241 174.791146 
z
" clip-path="url(#p9e6f4ce5c4)" style="fill: #ff0000; stroke: #ff0000; stroke-width: 0.24"/>
    <path d="M 269.446964 180.77101 
L 264.934883 179.529065 
L 265.484077 178.709445 
L 249.09168 167.725559 
L 249.640874 166.905939 
L 266.033272 177.889826 
L 266.582466 177.070206 
z
" clip-path="url(#p9e6f4ce5c4)" style="fill: #ff0000; stroke: #ff0000; stroke-width: 0.24"/>
    <path d="M 272.847992 183.050069 
L 268.335911 181.808125 
L 268.885105 180.988505 
L 252.492707 170.004619 
L 253.041902 169.184999 
L 269.434299 180.168885 
L 269.983494 179.349265 
z
" clip-path="url(#p9e6f4ce5c4)" style="fill: #ff0000; stroke: #ff0000; stroke-width: 0.24"/>
    <path d="M 276.249217 185.328932 
L 271.737136 184.086987 
L 272.28633 183.267367 
L 255.893932 172.283481 
L 256.443127 171.463861 
L 272.835524 182.447747 
L 273.384719 181.628127 
z
" clip-path="url(#p9e6f4ce5c4)" style="fill: #ff0000; stroke: #ff0000; stroke-width: 0.24"/>
    <path d="M 279.650442 187.607991 
L 275.138361 186.366047 
L 275.687555 185.546427 
L 259.295158 174.562541 
L 259.844352 173.742921 
L 276.23675 184.726807 
L 276.785944 183.907187 
z
" clip-path="url(#p9e6f4ce5c4)" style="fill: #ff0000; stroke: #ff0000; stroke-width: 0.24"/>
    <path d="M 283.05147 189.886854 
L 278.539389 188.644909 
L 279.088583 187.825289 
L 262.696185 176.841403 
L 263.24538 176.021783 
L 279.637777 187.005669 
L 280.186972 186.186049 
z
" clip-path="url(#p9e6f4ce5c4)" style="fill: #ff0000; stroke: #ff0000; stroke-width: 0.24"/>
    <path d="M 286.970766 191.361589 
L 282.41577 190.287668 
L 282.93422 189.448263 
L 266.146129 179.079249 
L 266.66458 178.239844 
L 283.452671 188.608859 
L 283.971122 187.769454 
z
" clip-path="url(#p9e6f4ce5c4)" style="fill: #ff0000; stroke: #ff0000; stroke-width: 0.24"/>
    <path d="M 291.06601 192.47051 
L 286.466357 191.607673 
L 286.945568 190.745265 
L 269.697404 181.161044 
L 270.176615 180.298636 
L 287.424779 189.882857 
L 287.90399 189.020448 
z
" clip-path="url(#p9e6f4ce5c4)" style="fill: #ff0000; stroke: #ff0000; stroke-width: 0.24"/>
    <path d="M 295.207913 193.389692 
L 290.573379 192.739778 
L 291.012331 191.856198 
L 273.340745 183.07716 
L 273.779697 182.193581 
L 291.451282 190.972619 
L 291.890234 190.08904 
z
" clip-path="url(#p9e6f4ce5c4)" style="fill: #ff0000; stroke: #ff0000; stroke-width: 0.24"/>
    <path d="M 299.387852 194.116736 
L 294.728287 193.681121 
L 295.126048 192.778249 
L 277.06861 184.823036 
L 277.466371 183.920164 
L 295.523808 191.875377 
L 295.921569 190.972505 
z
" clip-path="url(#p9e6f4ce5c4)" style="fill: #ff0000; stroke: #ff0000; stroke-width: 0.24"/>
    <path d="M 303.596751 194.650585 
L 298.92206 194.4302 
L 299.277783 193.509954 
L 280.872868 186.395493 
L 281.228591 185.475247 
L 299.633506 192.589708 
L 299.989229 191.669462 
z
" clip-path="url(#p9e6f4ce5c4)" style="fill: #ff0000; stroke: #ff0000; stroke-width: 0.24"/>
    <path d="M 307.825992 194.989724 
L 303.146112 194.985033 
L 303.459042 194.04937 
L 284.745777 187.790764 
L 285.058707 186.855101 
L 303.771973 193.113706 
L 304.084903 192.178043 
z
" clip-path="url(#p9e6f4ce5c4)" style="fill: #ff0000; stroke: #ff0000; stroke-width: 0.24"/>
    <path d="M 312.066305 195.133574 
L 307.391182 195.344592 
L 307.660653 194.395499 
L 288.678806 189.006071 
L 288.948278 188.056978 
L 307.930125 193.446407 
L 308.199596 192.497315 
z
" clip-path="url(#p9e6f4ce5c4)" style="fill: #ff0000; stroke: #ff0000; stroke-width: 0.24"/>
    <path d="M 316.308687 195.08188 
L 311.648259 195.508152 
L 311.8737 194.547648 
L 292.663623 190.038833 
L 292.889064 189.078329 
L 312.09914 193.587144 
L 312.324581 192.626641 
z
" clip-path="url(#p9e6f4ce5c4)" style="fill: #ff0000; stroke: #ff0000; stroke-width: 0.24"/>
    <path d="M 320.544072 194.834518 
L 315.908245 195.475144 
L 316.089175 194.50527 
L 296.691695 190.886672 
L 296.872625 189.916798 
L 316.270105 193.535396 
L 316.451035 192.565522 
z
" clip-path="url(#p9e6f4ce5c4)" style="fill: #ff0000; stroke: #ff0000; stroke-width: 0.24"/>
    <path d="M 324.763675 194.392474 
L 320.162301 195.246087 
L 320.298337 194.268905 
L 300.754688 191.548195 
L 300.890724 190.571012 
L 320.434372 193.291723 
L 320.570408 192.31454 
z
" clip-path="url(#p9e6f4ce5c4)" style="fill: #ff0000; stroke: #ff0000; stroke-width: 0.24"/>
    <path d="M 328.958441 193.756261 
L 324.401301 194.821052 
L 324.492152 193.838638 
L 304.843873 192.021619 
L 304.934724 191.039205 
L 324.583003 192.856224 
L 324.673854 191.87381 
z
" clip-path="url(#p9e6f4ce5c4)" style="fill: #ff0000; stroke: #ff0000; stroke-width: 0.24"/>
    <path d="M 333.119409 192.927479 
L 328.616191 194.201183 
L 328.661664 193.215625 
L 308.950518 192.306149 
L 308.995991 191.320592 
L 328.707138 192.230068 
L 328.752612 191.244511 
z
" clip-path="url(#p9e6f4ce5c4)" style="fill: #ff0000; stroke: #ff0000; stroke-width: 0.24"/>
    <path d="M 337.237737 191.90769 
L 332.79801 193.387599 
L 332.79801 192.400993 
L 313.065893 192.400993 
L 313.065893 191.414387 
L 332.79801 191.414387 
L 332.79801 190.427781 
z
" clip-path="url(#p9e6f4ce5c4)" style="fill: #ff0000; stroke: #ff0000; stroke-width: 0.24"/>
   </g>
   <g id="matplotlib.axis_1">
    <g id="xtick_1">
     <g id="line2d_1">
      <defs>
       <path id="m7031e73712" d="M 0 0 
L 0 -3 
" style="stroke: #000000"/>
      </defs>
      <g>
       <use xlink:href="#m7031e73712" x="77.947848" y="286.683476" style="stroke: #000000"/>
      </g>
     </g>
     <g id="text_1">
      <!-- −7.5 -->
      <g transform="translate(65.199371 300.261835) scale(0.105 -0.105)">
       <defs>
        <path id="DejaVuSans-2212" d="M 678 2272 
L 4684 2272 
L 4684 1741 
L 678 1741 
L 678 2272 
z
" transform="scale(0.015625)"/>
        <path id="DejaVuSans-37" d="M 525 4666 
L 3525 4666 
L 3525 4397 
L 1831 0 
L 1172 0 
L 2766 4134 
L 525 4134 
L 525 4666 
z
" transform="scale(0.015625)"/>
        <path id="DejaVuSans-2e" d="M 684 794 
L 1344 794 
L 1344 0 
L 684 0 
L 684 794 
z
" transform="scale(0.015625)"/>
        <path id="DejaVuSans-35" d="M 691 4666 
L 3169 4666 
L 3169 4134 
L 1269 4134 
L 1269 2991 
Q 1406 3038 1543 3061 
Q 1681 3084 1819 3084 
Q 2600 3084 3056 2656 
Q 3513 2228 3513 1497 
Q 3513 744 3044 326 
Q 2575 -91 1722 -91 
Q 1428 -91 1123 -41 
Q 819 9 494 109 
L 494 744 
Q 775 591 1075 516 
Q 1375 441 1709 441 
Q 2250 441 2565 725 
Q 2881 1009 2881 1497 
Q 2881 1984 2565 2268 
Q 2250 2553 1709 2553 
Q 1456 2553 1204 2497 
Q 953 2441 691 2322 
L 691 4666 
z
" transform="scale(0.015625)"/>
       </defs>
       <use xlink:href="#DejaVuSans-2212"/>
       <use xlink:href="#DejaVuSans-37" x="83.789062"/>
       <use xlink:href="#DejaVuSans-2e" x="147.412109"/>
       <use xlink:href="#DejaVuSans-35" x="179.199219"/>
      </g>
     </g>
    </g>
    <g id="xtick_2">
     <g id="line2d_2">
      <g>
       <use xlink:href="#m7031e73712" x="127.278141" y="286.683476" style="stroke: #000000"/>
      </g>
     </g>
     <g id="text_2">
      <!-- −5.0 -->
      <g transform="translate(114.529665 300.261835) scale(0.105 -0.105)">
       <defs>
        <path id="DejaVuSans-30" d="M 2034 4250 
Q 1547 4250 1301 3770 
Q 1056 3291 1056 2328 
Q 1056 1369 1301 889 
Q 1547 409 2034 409 
Q 2525 409 2770 889 
Q 3016 1369 3016 2328 
Q 3016 3291 2770 3770 
Q 2525 4250 2034 4250 
z
M 2034 4750 
Q 2819 4750 3233 4129 
Q 3647 3509 3647 2328 
Q 3647 1150 3233 529 
Q 2819 -91 2034 -91 
Q 1250 -91 836 529 
Q 422 1150 422 2328 
Q 422 3509 836 4129 
Q 1250 4750 2034 4750 
z
" transform="scale(0.015625)"/>
       </defs>
       <use xlink:href="#DejaVuSans-2212"/>
       <use xlink:href="#DejaVuSans-35" x="83.789062"/>
       <use xlink:href="#DejaVuSans-2e" x="147.412109"/>
       <use xlink:href="#DejaVuSans-30" x="179.199219"/>
      </g>
     </g>
    </g>
    <g id="xtick_3">
     <g id="line2d_3">
      <g>
       <use xlink:href="#m7031e73712" x="176.608435" y="286.683476" style="stroke: #000000"/>
      </g>
     </g>
     <g id="text_3">
      <!-- −2.5 -->
      <g transform="translate(163.859958 300.261835) scale(0.105 -0.105)">
       <defs>
        <path id="DejaVuSans-32" d="M 1228 531 
L 3431 531 
L 3431 0 
L 469 0 
L 469 531 
Q 828 903 1448 1529 
Q 2069 2156 2228 2338 
Q 2531 2678 2651 2914 
Q 2772 3150 2772 3378 
Q 2772 3750 2511 3984 
Q 2250 4219 1831 4219 
Q 1534 4219 1204 4116 
Q 875 4013 500 3803 
L 500 4441 
Q 881 4594 1212 4672 
Q 1544 4750 1819 4750 
Q 2544 4750 2975 4387 
Q 3406 4025 3406 3419 
Q 3406 3131 3298 2873 
Q 3191 2616 2906 2266 
Q 2828 2175 2409 1742 
Q 1991 1309 1228 531 
z
" transform="scale(0.015625)"/>
       </defs>
       <use xlink:href="#DejaVuSans-2212"/>
       <use xlink:href="#DejaVuSans-32" x="83.789062"/>
       <use xlink:href="#DejaVuSans-2e" x="147.412109"/>
       <use xlink:href="#DejaVuSans-35" x="179.199219"/>
      </g>
     </g>
    </g>
    <g id="xtick_4">
     <g id="line2d_4">
      <g>
       <use xlink:href="#m7031e73712" x="225.938728" y="286.683476" style="stroke: #000000"/>
      </g>
     </g>
     <g id="text_4">
      <!-- 0.0 -->
      <g transform="translate(217.589588 300.261835) scale(0.105 -0.105)">
       <use xlink:href="#DejaVuSans-30"/>
       <use xlink:href="#DejaVuSans-2e" x="63.623047"/>
       <use xlink:href="#DejaVuSans-30" x="95.410156"/>
      </g>
     </g>
    </g>
    <g id="xtick_5">
     <g id="line2d_5">
      <g>
       <use xlink:href="#m7031e73712" x="275.269022" y="286.683476" style="stroke: #000000"/>
      </g>
     </g>
     <g id="text_5">
      <!-- 2.5 -->
      <g transform="translate(266.919881 300.261835) scale(0.105 -0.105)">
       <use xlink:href="#DejaVuSans-32"/>
       <use xlink:href="#DejaVuSans-2e" x="63.623047"/>
       <use xlink:href="#DejaVuSans-35" x="95.410156"/>
      </g>
     </g>
    </g>
    <g id="xtick_6">
     <g id="line2d_6">
      <g>
       <use xlink:href="#m7031e73712" x="324.599316" y="286.683476" style="stroke: #000000"/>
      </g>
     </g>
     <g id="text_6">
      <!-- 5.0 -->
      <g transform="translate(316.250175 300.261835) scale(0.105 -0.105)">
       <use xlink:href="#DejaVuSans-35"/>
       <use xlink:href="#DejaVuSans-2e" x="63.623047"/>
       <use xlink:href="#DejaVuSans-30" x="95.410156"/>
      </g>
     </g>
    </g>
    <g id="xtick_7">
     <g id="line2d_7">
      <g>
       <use xlink:href="#m7031e73712" x="373.929609" y="286.683476" style="stroke: #000000"/>
      </g>
     </g>
     <g id="text_7">
      <!-- 7.5 -->
      <g transform="translate(365.580469 300.261835) scale(0.105 -0.105)">
       <use xlink:href="#DejaVuSans-37"/>
       <use xlink:href="#DejaVuSans-2e" x="63.623047"/>
       <use xlink:href="#DejaVuSans-35" x="95.410156"/>
      </g>
     </g>
    </g>
    <g id="xtick_8">
     <g id="line2d_8">
      <g>
       <use xlink:href="#m7031e73712" x="423.259903" y="286.683476" style="stroke: #000000"/>
      </g>
     </g>
     <g id="text_8">
      <!-- 10.0 -->
      <g transform="translate(411.57045 300.261835) scale(0.105 -0.105)">
       <defs>
        <path id="DejaVuSans-31" d="M 794 531 
L 1825 531 
L 1825 4091 
L 703 3866 
L 703 4441 
L 1819 4666 
L 2450 4666 
L 2450 531 
L 3481 531 
L 3481 0 
L 794 0 
L 794 531 
z
" transform="scale(0.015625)"/>
       </defs>
       <use xlink:href="#DejaVuSans-31"/>
       <use xlink:href="#DejaVuSans-30" x="63.623047"/>
       <use xlink:href="#DejaVuSans-2e" x="127.246094"/>
       <use xlink:href="#DejaVuSans-30" x="159.033203"/>
      </g>
     </g>
    </g>
   </g>
   <g id="matplotlib.axis_2">
    <g id="ytick_1">
     <g id="line2d_9">
      <defs>
       <path id="m81ee6a305b" d="M 0 0 
L 3 0 
" style="stroke: #000000"/>
      </defs>
      <g>
       <use xlink:href="#m81ee6a305b" x="31.88" y="256.037072" style="stroke: #000000"/>
      </g>
     </g>
     <g id="text_9">
      <!-- −2 -->
      <g transform="translate(10.800703 260.026251) scale(0.105 -0.105)">
       <use xlink:href="#DejaVuSans-2212"/>
       <use xlink:href="#DejaVuSans-32" x="83.789062"/>
      </g>
     </g>
    </g>
    <g id="ytick_2">
     <g id="line2d_10">
      <g>
       <use xlink:href="#m81ee6a305b" x="31.88" y="216.572837" style="stroke: #000000"/>
      </g>
     </g>
     <g id="text_10">
      <!-- 0 -->
      <g transform="translate(19.599375 220.562016) scale(0.105 -0.105)">
       <use xlink:href="#DejaVuSans-30"/>
      </g>
     </g>
    </g>
    <g id="ytick_3">
     <g id="line2d_11">
      <g>
       <use xlink:href="#m81ee6a305b" x="31.88" y="177.108602" style="stroke: #000000"/>
      </g>
     </g>
     <g id="text_11">
      <!-- 2 -->
      <g transform="translate(19.599375 181.097782) scale(0.105 -0.105)">
       <use xlink:href="#DejaVuSans-32"/>
      </g>
     </g>
    </g>
    <g id="ytick_4">
     <g id="line2d_12">
      <g>
       <use xlink:href="#m81ee6a305b" x="31.88" y="137.644367" style="stroke: #000000"/>
      </g>
     </g>
     <g id="text_12">
      <!-- 4 -->
      <g transform="translate(19.599375 141.633547) scale(0.105 -0.105)">
       <defs>
        <path id="DejaVuSans-34" d="M 2419 4116 
L 825 1625 
L 2419 1625 
L 2419 4116 
z
M 2253 4666 
L 3047 4666 
L 3047 1625 
L 3713 1625 
L 3713 1100 
L 3047 1100 
L 3047 0 
L 2419 0 
L 2419 1100 
L 313 1100 
L 313 1709 
L 2253 4666 
z
" transform="scale(0.015625)"/>
       </defs>
       <use xlink:href="#DejaVuSans-34"/>
      </g>
     </g>
    </g>
    <g id="ytick_5">
     <g id="line2d_13">
      <g>
       <use xlink:href="#m81ee6a305b" x="31.88" y="98.180132" style="stroke: #000000"/>
      </g>
     </g>
     <g id="text_13">
      <!-- 6 -->
      <g transform="translate(19.599375 102.169312) scale(0.105 -0.105)">
       <defs>
        <path id="DejaVuSans-36" d="M 2113 2584 
Q 1688 2584 1439 2293 
Q 1191 2003 1191 1497 
Q 1191 994 1439 701 
Q 1688 409 2113 409 
Q 2538 409 2786 701 
Q 3034 994 3034 1497 
Q 3034 2003 2786 2293 
Q 2538 2584 2113 2584 
z
M 3366 4563 
L 3366 3988 
Q 3128 4100 2886 4159 
Q 2644 4219 2406 4219 
Q 1781 4219 1451 3797 
Q 1122 3375 1075 2522 
Q 1259 2794 1537 2939 
Q 1816 3084 2150 3084 
Q 2853 3084 3261 2657 
Q 3669 2231 3669 1497 
Q 3669 778 3244 343 
Q 2819 -91 2113 -91 
Q 1303 -91 875 529 
Q 447 1150 447 2328 
Q 447 3434 972 4092 
Q 1497 4750 2381 4750 
Q 2619 4750 2861 4703 
Q 3103 4656 3366 4563 
z
" transform="scale(0.015625)"/>
       </defs>
       <use xlink:href="#DejaVuSans-36"/>
      </g>
     </g>
    </g>
    <g id="ytick_6">
     <g id="line2d_14">
      <g>
       <use xlink:href="#m81ee6a305b" x="31.88" y="58.715897" style="stroke: #000000"/>
      </g>
     </g>
     <g id="text_14">
      <!-- 8 -->
      <g transform="translate(19.599375 62.705077) scale(0.105 -0.105)">
       <defs>
        <path id="DejaVuSans-38" d="M 2034 2216 
Q 1584 2216 1326 1975 
Q 1069 1734 1069 1313 
Q 1069 891 1326 650 
Q 1584 409 2034 409 
Q 2484 409 2743 651 
Q 3003 894 3003 1313 
Q 3003 1734 2745 1975 
Q 2488 2216 2034 2216 
z
M 1403 2484 
Q 997 2584 770 2862 
Q 544 3141 544 3541 
Q 544 4100 942 4425 
Q 1341 4750 2034 4750 
Q 2731 4750 3128 4425 
Q 3525 4100 3525 3541 
Q 3525 3141 3298 2862 
Q 3072 2584 2669 2484 
Q 3125 2378 3379 2068 
Q 3634 1759 3634 1313 
Q 3634 634 3220 271 
Q 2806 -91 2034 -91 
Q 1263 -91 848 271 
Q 434 634 434 1313 
Q 434 1759 690 2068 
Q 947 2378 1403 2484 
z
M 1172 3481 
Q 1172 3119 1398 2916 
Q 1625 2713 2034 2713 
Q 2441 2713 2670 2916 
Q 2900 3119 2900 3481 
Q 2900 3844 2670 4047 
Q 2441 4250 2034 4250 
Q 1625 4250 1398 4047 
Q 1172 3844 1172 3481 
z
" transform="scale(0.015625)"/>
       </defs>
       <use xlink:href="#DejaVuSans-38"/>
      </g>
     </g>
    </g>
   </g>
   <g id="patch_3">
    <path d="M 31.88 286.683476 
L 31.88 24.391627 
" style="fill: none; stroke: #000000; stroke-width: 0.8; stroke-linejoin: miter; stroke-linecap: square"/>
   </g>
   <g id="patch_4">
    <path d="M 450 286.683476 
L 450 24.391627 
" style="fill: none; stroke: #000000; stroke-width: 0.8; stroke-linejoin: miter; stroke-linecap: square"/>
   </g>
   <g id="patch_5">
    <path d="M 31.88 286.683476 
L 450 286.683476 
" style="fill: none; stroke: #000000; stroke-width: 0.8; stroke-linejoin: miter; stroke-linecap: square"/>
   </g>
   <g id="patch_6">
    <path d="M 31.88 24.391627 
L 450 24.391627 
" style="fill: none; stroke: #000000; stroke-width: 0.8; stroke-linejoin: miter; stroke-linecap: square"/>
   </g>
  </g>
 </g>
 <defs>
  <clipPath id="p9e6f4ce5c4">
   <rect x="31.88" y="24.391627" width="418.12" height="262.291849"/>
  </clipPath>
 </defs>
</svg>
