<?xml version="1.0" encoding="utf-8" standalone="no"?>
<!DOCTYPE svg PUBLIC "-//W3C//DTD SVG 1.1//EN"
  "http://www.w3.org/Graphics/SVG/1.1/DTD/svg11.dtd">
<svg xmlns:xlink="http://www.w3.org/1999/xlink" width="460.8pt" height="316.8pt" viewBox="0 0 460.8 316.8" xmlns="http://www.w3.org/2000/svg" version="1.1">
 <metadata>
  <rdf:RDF xmlns:dc="http://purl.org/dc/elements/1.1/" xmlns:cc="http://creativecommons.org/ns#" xmlns:rdf="http://www.w3.org/1999/02/22-rdf-syntax-ns#">
   <cc:Work>
    <dc:type rdf:resource="http://purl.org/dc/dcmitype/StillImage"/>
    <dc:date>2024-01-11T15:54:38.855371</dc:date>
    <dc:format>image/svg+xml</dc:format>
    <dc:creator>
     <cc:Agent>
      <dc:title>Matplotlib v3.7.2, https://matplotlib.org/</dc:title>
     </cc:Agent>
    </dc:creator>
   </cc:Work>
  </rdf:RDF>
 </metadata>
 <defs>
  <style type="text/css">*{stroke-linejoin: round; stroke-linecap: butt}</style>
 </defs>
 <g id="figure_1">
  <g id="patch_1">
   <path d="M 0 316.8 
L 460.8 316.8 
L 460.8 0 
L 0 0 
z
" style="fill: #ffffff"/>
  </g>
  <g id="axes_1">
   <g id="patch_2">
    <path d="M 51.862672 290.32 
L 423.696118 290.32 
L 423.696118 10.8 
L 51.862672 10.8 
z
" style="fill: #ffffff"/>
   </g>
   <g id="PatchCollection_1">
    <path d="M 223.268038 229.067128 
L 316.404917 229.067128 
L 316.404917 190.260095 
L 223.268038 190.260095 
z
" clip-path="url(#pf01c4d5a5c)" style="fill: #ffffff; stroke: #0000ff; stroke-width: 3"/>
    <path d="M 125.474315 224.410284 
L 193.871225 199.515845 
L 183.560924 171.188526 
L 115.164014 196.082965 
z
" clip-path="url(#pf01c4d5a5c)" style="fill: #ff0000; stroke: #ff0000; stroke-width: 2"/>
    <path d="M 328.823168 244.589941 
L 384.580839 197.8037 
L 365.203812 174.711058 
L 309.44614 221.497299 
z
" clip-path="url(#pf01c4d5a5c)" style="fill: #ff0000; stroke: #ff0000; stroke-width: 2"/>
    <path d="M 254.313664 173.185001 
L 290.7069 110.150068 
L 264.600301 95.077416 
L 228.207066 158.112349 
z
" clip-path="url(#pf01c4d5a5c)" style="fill: #ff0000; stroke: #ff0000; stroke-width: 2"/>
    <path d="M 199.983818 263.217317 
L 272.670538 267.026667 
L 274.248221 236.922677 
L 201.561501 233.113327 
z
" clip-path="url(#pf01c4d5a5c)" style="fill: #ff0000; stroke: #ff0000; stroke-width: 2"/>
   </g>
   <g id="PatchCollection_2">
    <path d="M 85.557563 156.161611 
L 157.238243 168.800854 
L 162.472922 139.113526 
L 90.792242 126.474283 
L 85.557563 156.161611 
z
" clip-path="url(#pf01c4d5a5c)" style="fill: none; stroke: #000000; stroke-width: 0.5"/>
    <path d="M 83.297972 157.916789 
L 155.384577 167.986134 
L 159.554905 138.130688 
L 87.4683 128.061343 
L 83.297972 157.916789 
z
" clip-path="url(#pf01c4d5a5c)" style="fill: none; stroke: #000000; stroke-width: 0.5"/>
    <path d="M 81.102475 159.751631 
L 153.502893 167.238285 
L 156.603571 137.25287 
L 84.203154 129.766216 
L 81.102475 159.751631 
z
" clip-path="url(#pf01c4d5a5c)" style="fill: none; stroke: #000000; stroke-width: 0.5"/>
    <path d="M 78.974136 161.663802 
L 151.595865 166.55817 
L 153.62292 136.481096 
L 81.001191 131.586728 
L 78.974136 161.663802 
z
" clip-path="url(#pf01c4d5a5c)" style="fill: none; stroke: #000000; stroke-width: 0.5"/>
    <path d="M 76.915287 163.650725 
L 149.665542 165.946546 
L 150.616381 135.816242 
L 77.866126 133.520421 
L 76.915287 163.650725 
z
" clip-path="url(#pf01c4d5a5c)" style="fill: none; stroke: #000000; stroke-width: 0.5"/>
    <path d="M 74.928941 165.710002 
L 147.71477 165.40435 
L 147.588181 135.259313 
L 74.802352 135.564965 
L 74.928941 165.710002 
z
" clip-path="url(#pf01c4d5a5c)" style="fill: none; stroke: #000000; stroke-width: 0.5"/>
    <path d="M 73.017397 167.83897 
L 145.745804 164.932229 
L 144.541946 134.810974 
L 71.813539 137.717714 
L 73.017397 167.83897 
z
" clip-path="url(#pf01c4d5a5c)" style="fill: none; stroke: #000000; stroke-width: 0.5"/>
    <path d="M 71.183011 170.034968 
L 143.761073 164.530859 
L 141.481487 134.47187 
L 68.903424 139.975979 
L 71.183011 170.034968 
z
" clip-path="url(#pf01c4d5a5c)" style="fill: none; stroke: #000000; stroke-width: 0.5"/>
    <path d="M 72.116606 172.020493 
L 144.45159 163.92602 
L 141.099176 133.967705 
L 68.764192 142.062178 
L 72.116606 172.020493 
z
" clip-path="url(#pf01c4d5a5c)" style="fill: none; stroke: #000000; stroke-width: 0.5"/>
    <path d="M 75.395778 173.69789 
L 147.39527 163.023452 
L 142.974336 133.204085 
L 70.974844 143.878523 
L 75.395778 173.69789 
z
" clip-path="url(#pf01c4d5a5c)" style="fill: none; stroke: #000000; stroke-width: 0.5"/>
    <path d="M 78.733032 175.257031 
L 150.305028 162.016195 
L 144.821193 132.373879 
L 73.249197 145.614716 
L 78.733032 175.257031 
z
" clip-path="url(#pf01c4d5a5c)" style="fill: none; stroke: #000000; stroke-width: 0.5"/>
    <path d="M 82.123787 176.695911 
L 153.176855 160.905666 
L 146.637154 131.47827 
L 75.584086 147.268516 
L 82.123787 176.695911 
z
" clip-path="url(#pf01c4d5a5c)" style="fill: none; stroke: #000000; stroke-width: 0.5"/>
    <path d="M 85.563755 178.012577 
L 156.007115 159.693097 
L 148.419904 130.518218 
L 77.976544 148.837699 
L 85.563755 178.012577 
z
" clip-path="url(#pf01c4d5a5c)" style="fill: none; stroke: #000000; stroke-width: 0.5"/>
    <path d="M 89.048569 179.205582 
L 158.792199 158.380202 
L 150.167143 129.495125 
L 80.423513 150.320505 
L 89.048569 179.205582 
z
" clip-path="url(#pf01c4d5a5c)" style="fill: none; stroke: #000000; stroke-width: 0.5"/>
    <path d="M 92.57384 180.273216 
L 161.528651 156.968614 
L 151.876798 128.410235 
L 82.921987 151.714836 
L 92.57384 180.273216 
z
" clip-path="url(#pf01c4d5a5c)" style="fill: none; stroke: #000000; stroke-width: 0.5"/>
    <path d="M 96.135062 181.214334 
L 164.212929 155.460219 
L 153.546584 127.265035 
L 85.468717 153.019151 
L 96.135062 181.214334 
z
" clip-path="url(#pf01c4d5a5c)" style="fill: none; stroke: #000000; stroke-width: 0.5"/>
    <path d="M 99.727518 182.027493 
L 166.841484 153.856837 
L 155.174303 126.060863 
L 88.060336 154.231519 
L 99.727518 182.027493 
z
" clip-path="url(#pf01c4d5a5c)" style="fill: none; stroke: #000000; stroke-width: 0.5"/>
    <path d="M 103.346857 182.711655 
L 169.411145 152.160383 
L 156.758006 124.799145 
L 90.693718 155.350416 
L 103.346857 182.711655 
z
" clip-path="url(#pf01c4d5a5c)" style="fill: none; stroke: #000000; stroke-width: 0.5"/>
    <path d="M 106.98835 183.266115 
L 171.918581 150.373329 
L 158.295679 123.481772 
L 93.365447 156.374558 
L 106.98835 183.266115 
z
" clip-path="url(#pf01c4d5a5c)" style="fill: none; stroke: #000000; stroke-width: 0.5"/>
    <path d="M 110.647188 183.689955 
L 174.360371 148.497616 
L 159.785084 122.110113 
L 96.071901 157.302452 
L 110.647188 183.689955 
z
" clip-path="url(#pf01c4d5a5c)" style="fill: none; stroke: #000000; stroke-width: 0.5"/>
    <path d="M 114.318953 183.982912 
L 176.733717 146.536049 
L 161.224694 120.6863 
L 98.80993 158.133164 
L 114.318953 183.982912 
z
" clip-path="url(#pf01c4d5a5c)" style="fill: none; stroke: #000000; stroke-width: 0.5"/>
    <path d="M 117.998807 184.144309 
L 179.035409 144.490764 
L 162.612465 119.211796 
L 101.575863 158.865341 
L 117.998807 184.144309 
z
" clip-path="url(#pf01c4d5a5c)" style="fill: none; stroke: #000000; stroke-width: 0.5"/>
    <path d="M 121.682162 184.174307 
L 181.262577 142.364684 
L 163.94667 117.688811 
L 104.366255 159.498434 
L 121.682162 184.174307 
z
" clip-path="url(#pf01c4d5a5c)" style="fill: none; stroke: #000000; stroke-width: 0.5"/>
    <path d="M 125.364071 184.072397 
L 183.412216 140.160176 
L 165.225495 116.118909 
L 107.17735 160.031131 
L 125.364071 184.072397 
z
" clip-path="url(#pf01c4d5a5c)" style="fill: none; stroke: #000000; stroke-width: 0.5"/>
    <path d="M 129.040172 183.839083 
L 185.481837 137.88031 
L 166.447515 114.504385 
L 110.00585 160.463158 
L 129.040172 183.839083 
z
" clip-path="url(#pf01c4d5a5c)" style="fill: none; stroke: #000000; stroke-width: 0.5"/>
    <path d="M 132.601209 183.403364 
L 187.464605 135.571595 
L 167.654561 112.849327 
L 112.791165 160.681096 
L 132.601209 183.403364 
z
" clip-path="url(#pf01c4d5a5c)" style="fill: none; stroke: #000000; stroke-width: 0.5"/>
    <path d="M 132.757324 180.546373 
L 189.295149 134.705946 
L 170.309841 111.290195 
L 113.772016 157.130622 
L 132.757324 180.546373 
z
" clip-path="url(#pf01c4d5a5c)" style="fill: none; stroke: #000000; stroke-width: 0.5"/>
    <path d="M 133.015323 177.696881 
L 191.155293 133.906308 
L 173.018954 109.827011 
L 114.878984 153.617584 
L 133.015323 177.696881 
z
" clip-path="url(#pf01c4d5a5c)" style="fill: none; stroke: #000000; stroke-width: 0.5"/>
    <path d="M 137.015862 174.683747 
L 195.155832 130.893175 
L 177.019493 106.813878 
L 118.879523 150.604451 
L 137.015862 174.683747 
z
" clip-path="url(#pf01c4d5a5c)" style="fill: none; stroke: #000000; stroke-width: 0.5"/>
    <path d="M 141.016246 171.670614 
L 199.156216 127.880041 
L 181.019877 103.800745 
L 122.879907 147.591318 
L 141.016246 171.670614 
z
" clip-path="url(#pf01c4d5a5c)" style="fill: none; stroke: #000000; stroke-width: 0.5"/>
    <path d="M 145.016786 168.657481 
L 203.156756 124.866908 
L 185.020417 100.787612 
L 126.880447 144.578184 
L 145.016786 168.657481 
z
" clip-path="url(#pf01c4d5a5c)" style="fill: none; stroke: #000000; stroke-width: 0.5"/>
    <path d="M 149.017325 165.644192 
L 207.157295 121.85362 
L 189.020956 97.774323 
L 130.880986 141.564896 
L 149.017325 165.644192 
z
" clip-path="url(#pf01c4d5a5c)" style="fill: none; stroke: #000000; stroke-width: 0.5"/>
    <path d="M 153.017864 162.631059 
L 211.157834 118.840486 
L 193.021496 94.76119 
L 134.881526 138.551763 
L 153.017864 162.631059 
z
" clip-path="url(#pf01c4d5a5c)" style="fill: none; stroke: #000000; stroke-width: 0.5"/>
    <path d="M 157.018404 159.617926 
L 215.158374 115.827353 
L 197.022035 91.748056 
L 138.882065 135.538629 
L 157.018404 159.617926 
z
" clip-path="url(#pf01c4d5a5c)" style="fill: none; stroke: #000000; stroke-width: 0.5"/>
    <path d="M 161.018788 156.604793 
L 219.158758 112.81422 
L 201.022419 88.734923 
L 142.882449 132.525496 
L 161.018788 156.604793 
z
" clip-path="url(#pf01c4d5a5c)" style="fill: none; stroke: #000000; stroke-width: 0.5"/>
    <path d="M 165.019328 153.591659 
L 223.159297 109.801086 
L 205.022959 85.72179 
L 146.882989 129.512363 
L 165.019328 153.591659 
z
" clip-path="url(#pf01c4d5a5c)" style="fill: none; stroke: #000000; stroke-width: 0.5"/>
    <path d="M 169.019867 150.578526 
L 227.159837 106.787953 
L 209.023498 82.708657 
L 150.883528 126.49923 
L 169.019867 150.578526 
z
" clip-path="url(#pf01c4d5a5c)" style="fill: none; stroke: #000000; stroke-width: 0.5"/>
    <path d="M 173.020375 147.565393 
L 231.160345 103.77482 
L 213.024006 79.695523 
L 154.884037 123.486096 
L 173.020375 147.565393 
z
" clip-path="url(#pf01c4d5a5c)" style="fill: none; stroke: #000000; stroke-width: 0.5"/>
    <path d="M 177.020884 144.55226 
L 235.160854 100.761687 
L 217.024515 76.68239 
L 158.884545 120.472963 
L 177.020884 144.55226 
z
" clip-path="url(#pf01c4d5a5c)" style="fill: none; stroke: #000000; stroke-width: 0.5"/>
    <path d="M 181.021392 141.539126 
L 239.161362 97.748553 
L 221.025023 73.669257 
L 162.885053 117.45983 
L 181.021392 141.539126 
z
" clip-path="url(#pf01c4d5a5c)" style="fill: none; stroke: #000000; stroke-width: 0.5"/>
    <path d="M 185.021891 138.525993 
L 243.161861 94.73542 
L 225.025522 70.656124 
L 166.885552 114.446696 
L 185.021891 138.525993 
z
" clip-path="url(#pf01c4d5a5c)" style="fill: none; stroke: #000000; stroke-width: 0.5"/>
    <path d="M 189.022393 135.51286 
L 247.162363 91.722287 
L 229.026024 67.64299 
L 170.886054 111.433563 
L 189.022393 135.51286 
z
" clip-path="url(#pf01c4d5a5c)" style="fill: none; stroke: #000000; stroke-width: 0.5"/>
    <path d="M 193.022902 132.499571 
L 251.162871 88.708998 
L 233.026533 64.629702 
L 174.886563 108.420275 
L 193.022902 132.499571 
z
" clip-path="url(#pf01c4d5a5c)" style="fill: none; stroke: #000000; stroke-width: 0.5"/>
    <path d="M 197.02341 129.486438 
L 255.16338 85.695865 
L 237.027041 61.616569 
L 178.887071 105.407141 
L 197.02341 129.486438 
z
" clip-path="url(#pf01c4d5a5c)" style="fill: none; stroke: #000000; stroke-width: 0.5"/>
    <path d="M 198.843851 124.675329 
L 259.025695 83.736154 
L 242.070293 58.811193 
L 181.88845 99.750368 
L 198.843851 124.675329 
z
" clip-path="url(#pf01c4d5a5c)" style="fill: none; stroke: #000000; stroke-width: 0.5"/>
    <path d="M 199.939968 119.043015 
L 262.899935 82.520242 
L 247.773635 56.444692 
L 184.813668 92.967464 
L 199.939968 119.043015 
z
" clip-path="url(#pf01c4d5a5c)" style="fill: none; stroke: #000000; stroke-width: 0.5"/>
    <path d="M 201.436829 113.503676 
L 266.851407 81.584975 
L 253.631932 54.492822 
L 188.217355 86.411523 
L 201.436829 113.503676 
z
" clip-path="url(#pf01c4d5a5c)" style="fill: none; stroke: #000000; stroke-width: 0.5"/>
    <path d="M 203.326505 108.086401 
L 270.859566 80.935783 
L 259.614844 52.966236 
L 192.081783 80.116855 
L 203.326505 108.086401 
z
" clip-path="url(#pf01c4d5a5c)" style="fill: none; stroke: #000000; stroke-width: 0.5"/>
    <path d="M 205.599514 102.816653 
L 274.904046 80.573628 
L 265.691857 51.870407 
L 196.387325 74.113432 
L 205.599514 102.816653 
z
" clip-path="url(#pf01c4d5a5c)" style="fill: none; stroke: #000000; stroke-width: 0.5"/>
    <path d="M 208.24416 97.724565 
L 278.96405 80.503427 
L 271.83173 51.214021 
L 201.11184 68.435159 
L 208.24416 97.724565 
z
" clip-path="url(#pf01c4d5a5c)" style="fill: none; stroke: #000000; stroke-width: 0.5"/>
    <path d="M 211.246784 92.835533 
L 283.018644 80.724771 
L 278.002841 50.99968 
L 206.230981 63.110442 
L 211.246784 92.835533 
z
" clip-path="url(#pf01c4d5a5c)" style="fill: none; stroke: #000000; stroke-width: 0.5"/>
    <path d="M 214.591843 88.174116 
L 287.046884 81.236004 
L 284.17339 51.227966 
L 211.718349 58.166079 
L 214.591843 88.174116 
z
" clip-path="url(#pf01c4d5a5c)" style="fill: none; stroke: #000000; stroke-width: 0.5"/>
    <path d="M 218.262379 83.762515 
L 291.028291 82.032668 
L 290.311856 51.895879 
L 217.545944 53.625727 
L 218.262379 83.762515 
z
" clip-path="url(#pf01c4d5a5c)" style="fill: none; stroke: #000000; stroke-width: 0.5"/>
    <path d="M 222.239434 79.626488 
L 294.942317 83.113794 
L 296.386622 53.00311 
L 223.68374 49.515804 
L 222.239434 79.626488 
z
" clip-path="url(#pf01c4d5a5c)" style="fill: none; stroke: #000000; stroke-width: 0.5"/>
    <path d="M 226.502533 75.786041 
L 298.768806 84.472587 
L 302.366433 54.542729 
L 230.10016 45.856183 
L 226.502533 75.786041 
z
" clip-path="url(#pf01c4d5a5c)" style="fill: none; stroke: #000000; stroke-width: 0.5"/>
    <path d="M 231.029797 72.261525 
L 302.48813 86.102664 
L 308.220587 56.507423 
L 236.762254 42.666285 
L 231.029797 72.261525 
z
" clip-path="url(#pf01c4d5a5c)" style="fill: none; stroke: #000000; stroke-width: 0.5"/>
    <path d="M 235.798079 69.06882 
L 306.081288 87.993429 
L 313.919119 58.884878 
L 243.63591 39.96027 
L 235.798079 69.06882 
z
" clip-path="url(#pf01c4d5a5c)" style="fill: none; stroke: #000000; stroke-width: 0.5"/>
    <path d="M 241.658929 65.776093 
L 310.106131 90.531919 
L 320.359024 62.183771 
L 251.911822 37.427945 
L 241.658929 65.776093 
z
" clip-path="url(#pf01c4d5a5c)" style="fill: none; stroke: #000000; stroke-width: 0.5"/>
    <path d="M 247.775661 62.984382 
L 313.903961 93.396852 
L 326.499614 66.009102 
L 260.371313 35.596633 
L 247.775661 62.984382 
z
" clip-path="url(#pf01c4d5a5c)" style="fill: none; stroke: #000000; stroke-width: 0.5"/>
    <path d="M 254.104906 60.717087 
L 317.447825 96.571585 
L 332.297353 70.337431 
L 268.954434 34.482933 
L 254.104906 60.717087 
z
" clip-path="url(#pf01c4d5a5c)" style="fill: none; stroke: #000000; stroke-width: 0.5"/>
    <path d="M 260.602231 58.988822 
L 320.712914 100.032411 
L 337.711559 75.136923 
L 277.600877 34.093333 
L 260.602231 58.988822 
z
" clip-path="url(#pf01c4d5a5c)" style="fill: none; stroke: #000000; stroke-width: 0.5"/>
    <path d="M 267.221565 57.811719 
L 323.675912 103.754913 
L 342.703782 80.373736 
L 286.249435 34.430542 
L 267.221565 57.811719 
z
" clip-path="url(#pf01c4d5a5c)" style="fill: none; stroke: #000000; stroke-width: 0.5"/>
    <path d="M 273.916427 57.194268 
L 326.316221 107.712899 
L 347.239057 86.010958 
L 294.839263 35.492328 
L 273.916427 57.194268 
z
" clip-path="url(#pf01c4d5a5c)" style="fill: none; stroke: #000000; stroke-width: 0.5"/>
    <path d="M 280.639386 57.140742 
L 328.61497 111.878424 
L 351.285171 92.008817 
L 303.309588 37.271136 
L 280.639386 57.140742 
z
" clip-path="url(#pf01c4d5a5c)" style="fill: none; stroke: #000000; stroke-width: 0.5"/>
    <path d="M 287.343209 57.651776 
L 330.556078 116.222402 
L 354.813736 98.325325 
L 311.600866 39.754699 
L 287.343209 57.651776 
z
" clip-path="url(#pf01c4d5a5c)" style="fill: none; stroke: #000000; stroke-width: 0.5"/>
    <path d="M 293.98036 58.723396 
L 332.125786 120.713692 
L 357.799737 104.915352 
L 319.654311 42.925055 
L 293.98036 58.723396 
z
" clip-path="url(#pf01c4d5a5c)" style="fill: none; stroke: #000000; stroke-width: 0.5"/>
    <path d="M 296.280716 64.514555 
L 335.494039 125.834908 
L 360.890526 109.594286 
L 321.677203 48.273933 
L 296.280716 64.514555 
z
" clip-path="url(#pf01c4d5a5c)" style="fill: none; stroke: #000000; stroke-width: 0.5"/>
    <path d="M 296.357297 73.169232 
L 340.577963 130.982753 
L 364.522057 112.668287 
L 320.301391 54.854766 
L 296.357297 73.169232 
z
" clip-path="url(#pf01c4d5a5c)" style="fill: none; stroke: #000000; stroke-width: 0.5"/>
    <path d="M 297.159693 81.787051 
L 346.075929 135.685773 
L 368.398667 115.426586 
L 319.482431 61.527864 
L 297.159693 81.787051 
z
" clip-path="url(#pf01c4d5a5c)" style="fill: none; stroke: #000000; stroke-width: 0.5"/>
    <path d="M 298.682453 90.30726 
L 351.949227 139.9109 
L 372.49311 117.84989 
L 319.226336 68.24625 
L 298.682453 90.30726 
z
" clip-path="url(#pf01c4d5a5c)" style="fill: none; stroke: #000000; stroke-width: 0.5"/>
    <path d="M 300.914946 98.669454 
L 358.156432 143.628131 
L 376.776554 119.920951 
L 319.535068 74.962274 
L 300.914946 98.669454 
z
" clip-path="url(#pf01c4d5a5c)" style="fill: none; stroke: #000000; stroke-width: 0.5"/>
    <path d="M 303.841172 106.815057 
L 364.653558 146.811608 
L 381.218562 121.625501 
L 320.406176 81.628951 
L 303.841172 106.815057 
z
" clip-path="url(#pf01c4d5a5c)" style="fill: none; stroke: #000000; stroke-width: 0.5"/>
    <path d="M 307.440694 114.686161 
L 371.395011 149.438364 
L 385.788012 122.950993 
L 321.833694 88.19879 
L 307.440694 114.686161 
z
" clip-path="url(#pf01c4d5a5c)" style="fill: none; stroke: #000000; stroke-width: 0.5"/>
    <path d="M 311.687955 122.227592 
L 378.332995 151.490348 
L 390.452482 123.888585 
L 323.807441 94.625829 
L 311.687955 122.227592 
z
" clip-path="url(#pf01c4d5a5c)" style="fill: none; stroke: #000000; stroke-width: 0.5"/>
    <path d="M 316.553193 129.385797 
L 385.418807 152.952671 
L 395.179282 124.431233 
L 326.313668 100.864359 
L 316.553193 129.385797 
z
" clip-path="url(#pf01c4d5a5c)" style="fill: none; stroke: #000000; stroke-width: 0.5"/>
    <path d="M 322.001532 136.110624 
L 392.601922 153.815291 
L 399.934501 124.575377 
L 329.334111 106.87071 
L 322.001532 136.110624 
z
" clip-path="url(#pf01c4d5a5c)" style="fill: none; stroke: #000000; stroke-width: 0.5"/>
    <path d="M 327.996194 142.354459 
L 399.833284 154.07209 
L 404.686268 124.319984 
L 332.849178 112.602352 
L 327.996194 142.354459 
z
" clip-path="url(#pf01c4d5a5c)" style="fill: none; stroke: #000000; stroke-width: 0.5"/>
    <path d="M 326.517898 147.221754 
L 399.084913 152.869651 
L 401.42405 122.815238 
L 328.857036 117.167341 
L 326.517898 147.221754 
z
" clip-path="url(#pf01c4d5a5c)" style="fill: none; stroke: #000000; stroke-width: 0.5"/>
    <path d="M 321.7453 151.956922 
L 394.530307 151.495254 
L 394.339102 121.350557 
L 321.554095 121.812225 
L 321.7453 151.956922 
z
" clip-path="url(#pf01c4d5a5c)" style="fill: none; stroke: #000000; stroke-width: 0.5"/>
    <path d="M 317.386406 157.075691 
L 389.875936 150.50771 
L 387.155736 120.485388 
L 314.666205 127.053369 
L 317.386406 157.075691 
z
" clip-path="url(#pf01c4d5a5c)" style="fill: none; stroke: #000000; stroke-width: 0.5"/>
    <path d="M 313.472675 162.542363 
L 385.155352 149.914445 
L 379.925363 120.22629 
L 308.242687 132.854208 
L 313.472675 162.542363 
z
" clip-path="url(#pf01c4d5a5c)" style="fill: none; stroke: #000000; stroke-width: 0.5"/>
    <path d="M 310.031406 168.318189 
L 380.40152 149.719334 
L 372.698603 120.574791 
L 302.328489 139.173646 
L 310.031406 168.318189 
z
" clip-path="url(#pf01c4d5a5c)" style="fill: none; stroke: #000000; stroke-width: 0.5"/>
    <path d="M 307.086906 174.362344 
L 375.648042 149.923829 
L 365.526567 121.528494 
L 296.965431 145.967008 
L 307.086906 174.362344 
z
" clip-path="url(#pf01c4d5a5c)" style="fill: none; stroke: #000000; stroke-width: 0.5"/>
    <path d="M 304.660019 180.632227 
L 370.92851 150.526455 
L 358.45988 123.080644 
L 292.191389 153.186415 
L 304.660019 180.632227 
z
" clip-path="url(#pf01c4d5a5c)" style="fill: none; stroke: #000000; stroke-width: 0.5"/>
    <path d="M 302.768036 187.08365 
L 366.276353 151.52294 
L 351.548501 125.220285 
L 288.040184 160.780994 
L 302.768036 187.08365 
z
" clip-path="url(#pf01c4d5a5c)" style="fill: none; stroke: #000000; stroke-width: 0.5"/>
    <path d="M 301.423928 193.671224 
L 361.724078 152.906507 
L 344.840931 127.932548 
L 284.54078 168.697265 
L 301.423928 193.671224 
z
" clip-path="url(#pf01c4d5a5c)" style="fill: none; stroke: #000000; stroke-width: 0.5"/>
    <path d="M 300.637374 200.348202 
L 357.303969 154.667054 
L 338.384628 131.197971 
L 281.718032 176.87912 
L 300.637374 200.348202 
z
" clip-path="url(#pf01c4d5a5c)" style="fill: none; stroke: #000000; stroke-width: 0.5"/>
    <path d="M 300.413846 205.682184 
L 353.909466 156.325432 
L 333.467834 134.169643 
L 279.972214 183.526395 
L 300.413846 205.682184 
z
" clip-path="url(#pf01c4d5a5c)" style="fill: none; stroke: #000000; stroke-width: 0.5"/>
    <path d="M 300.546255 211.019002 
L 350.633002 158.206238 
L 328.760025 137.46227 
L 278.673278 190.275035 
L 300.546255 211.019002 
z
" clip-path="url(#pf01c4d5a5c)" style="fill: none; stroke: #000000; stroke-width: 0.5"/>
    <path d="M 301.034209 216.335225 
L 347.489302 160.301354 
L 324.282269 141.061476 
L 277.827176 197.095346 
L 301.034209 216.335225 
z
" clip-path="url(#pf01c4d5a5c)" style="fill: none; stroke: #000000; stroke-width: 0.5"/>
    <path d="M 301.875293 221.607031 
L 344.492104 162.601288 
L 320.054238 144.951075 
L 277.437427 203.956819 
L 301.875293 221.607031 
z
" clip-path="url(#pf01c4d5a5c)" style="fill: none; stroke: #000000; stroke-width: 0.5"/>
    <path d="M 302.570779 226.651535 
L 341.688395 165.270084 
L 316.266604 149.069101 
L 277.148988 210.450552 
L 302.570779 226.651535 
z
" clip-path="url(#pf01c4d5a5c)" style="fill: none; stroke: #000000; stroke-width: 0.5"/>
    <path d="M 296.937882 229.443359 
L 339.288796 170.24648 
L 314.771769 152.706391 
L 272.420855 211.90327 
L 296.937882 229.443359 
z
" clip-path="url(#pf01c4d5a5c)" style="fill: none; stroke: #000000; stroke-width: 0.5"/>
    <path d="M 290.401921 231.568015 
L 336.604505 175.325756 
L 313.311166 156.190457 
L 267.108583 212.432716 
L 290.401921 231.568015 
z
" clip-path="url(#pf01c4d5a5c)" style="fill: none; stroke: #000000; stroke-width: 0.5"/>
    <path d="M 283.73902 233.252399 
L 333.58771 180.214879 
L 311.621648 159.569506 
L 261.772959 212.607026 
L 283.73902 233.252399 
z
" clip-path="url(#pf01c4d5a5c)" style="fill: none; stroke: #000000; stroke-width: 0.5"/>
    <path d="M 276.978584 234.488884 
L 330.251657 184.892009 
L 309.710576 162.82839 
L 256.437502 212.425265 
L 276.978584 234.488884 
z
" clip-path="url(#pf01c4d5a5c)" style="fill: none; stroke: #000000; stroke-width: 0.5"/>
    <path d="M 270.150897 235.27215 
L 326.6114 189.336522 
L 307.586663 165.952795 
L 251.12616 211.888423 
L 270.150897 235.27215 
z
" clip-path="url(#pf01c4d5a5c)" style="fill: none; stroke: #000000; stroke-width: 0.5"/>
    <path d="M 263.286022 235.598312 
L 322.682865 193.528307 
L 305.259119 168.928462 
L 245.862275 210.998467 
L 263.286022 235.598312 
z
" clip-path="url(#pf01c4d5a5c)" style="fill: none; stroke: #000000; stroke-width: 0.5"/>
    <path d="M 256.414695 235.466262 
L 318.483642 197.448948 
L 302.738361 171.742423 
L 240.669414 209.759737 
L 256.414695 235.466262 
z
" clip-path="url(#pf01c4d5a5c)" style="fill: none; stroke: #000000; stroke-width: 0.5"/>
    <path d="M 249.567519 234.876628 
L 314.032492 201.081102 
L 300.03571 174.382237 
L 235.570736 208.177763 
L 249.567519 234.876628 
z
" clip-path="url(#pf01c4d5a5c)" style="fill: none; stroke: #000000; stroke-width: 0.5"/>
    <path d="M 245.247969 234.265933 
L 311.085582 203.229195 
L 298.231381 175.961836 
L 232.393769 206.998575 
L 245.247969 234.265933 
z
" clip-path="url(#pf01c4d5a5c)" style="fill: none; stroke: #000000; stroke-width: 0.5"/>
    <path d="M 240.958121 233.473038 
L 308.050377 205.250712 
L 296.361795 177.46373 
L 229.26954 205.686055 
L 240.958121 233.473038 
z
" clip-path="url(#pf01c4d5a5c)" style="fill: none; stroke: #000000; stroke-width: 0.5"/>
    <path d="M 236.705635 232.499192 
L 304.932287 207.14186 
L 294.430274 178.885055 
L 226.203622 204.242387 
L 236.705635 232.499192 
z
" clip-path="url(#pf01c4d5a5c)" style="fill: none; stroke: #000000; stroke-width: 0.5"/>
    <path d="M 232.49817 231.346385 
L 301.736941 208.899494 
L 292.440319 180.223509 
L 223.201547 202.6704 
L 232.49817 231.346385 
z
" clip-path="url(#pf01c4d5a5c)" style="fill: none; stroke: #000000; stroke-width: 0.5"/>
    <path d="M 228.391186 230.098995 
L 298.487033 210.491787 
L 290.366497 181.460835 
L 220.270649 201.068042 
L 228.391186 230.098995 
z
" clip-path="url(#pf01c4d5a5c)" style="fill: none; stroke: #000000; stroke-width: 0.5"/>
    <path d="M 225.54306 230.895781 
L 295.638908 211.288573 
L 287.518371 182.257621 
L 217.422524 201.864828 
L 225.54306 230.895781 
z
" clip-path="url(#pf01c4d5a5c)" style="fill: none; stroke: #000000; stroke-width: 0.5"/>
    <path d="M 222.694935 231.692411 
L 292.790782 212.085204 
L 284.670245 183.054252 
L 214.574398 202.661459 
L 222.694935 231.692411 
z
" clip-path="url(#pf01c4d5a5c)" style="fill: none; stroke: #000000; stroke-width: 0.5"/>
    <path d="M 219.846964 232.489042 
L 289.942811 212.881835 
L 281.822275 183.850883 
L 211.726427 203.45809 
L 219.846964 232.489042 
z
" clip-path="url(#pf01c4d5a5c)" style="fill: none; stroke: #000000; stroke-width: 0.5"/>
    <path d="M 215.965019 231.407695 
L 286.702008 214.256932 
L 279.598834 184.960444 
L 208.861845 202.111207 
L 215.965019 231.407695 
z
" clip-path="url(#pf01c4d5a5c)" style="fill: none; stroke: #000000; stroke-width: 0.5"/>
    <path d="M 211.922562 229.767588 
L 283.322075 215.626162 
L 277.465251 186.055282 
L 206.065738 200.196708 
L 211.922562 229.767588 
z
" clip-path="url(#pf01c4d5a5c)" style="fill: none; stroke: #000000; stroke-width: 0.5"/>
    <path d="M 207.953099 227.957873 
L 279.88717 216.851128 
L 275.287192 187.058856 
L 203.353121 198.1656 
L 207.953099 227.957873 
z
" clip-path="url(#pf01c4d5a5c)" style="fill: none; stroke: #000000; stroke-width: 0.5"/>
    <path d="M 204.063801 225.981781 
L 276.403508 217.929625 
L 273.06862 187.969354 
L 200.728914 196.02151 
L 204.063801 225.981781 
z
" clip-path="url(#pf01c4d5a5c)" style="fill: none; stroke: #000000; stroke-width: 0.5"/>
    <path d="M 196.307626 221.219619 
L 269.078802 219.72755 
L 268.460846 189.588582 
L 195.68967 191.080651 
L 196.307626 221.219619 
z
" clip-path="url(#pf01c4d5a5c)" style="fill: none; stroke: #000000; stroke-width: 0.5"/>
    <path d="M 201.384093 216.071563 
L 273.993059 221.151775 
L 276.097083 191.079988 
L 203.488118 185.999776 
L 201.384093 216.071563 
z
" clip-path="url(#pf01c4d5a5c)" style="fill: none; stroke: #000000; stroke-width: 0.5"/>
    <path d="M 206.904402 211.40249 
L 278.75879 223.013574 
L 283.567646 193.254303 
L 211.713258 181.643219 
L 206.904402 211.40249 
z
" clip-path="url(#pf01c4d5a5c)" style="fill: none; stroke: #000000; stroke-width: 0.5"/>
    <path d="M 212.823431 207.250597 
L 283.337052 225.297748 
L 290.811475 196.09377 
L 220.297854 178.046619 
L 212.823431 207.250597 
z
" clip-path="url(#pf01c4d5a5c)" style="fill: none; stroke: #000000; stroke-width: 0.5"/>
    <path d="M 219.130455 212.863681 
L 290.731735 225.945237 
L 296.149603 196.290794 
L 224.548323 183.209238 
L 219.130455 212.863681 
z
" clip-path="url(#pf01c4d5a5c)" style="fill: none; stroke: #000000; stroke-width: 0.5"/>
    <path d="M 226.018423 219.123396 
L 298.50799 225.690971 
L 301.228022 195.668634 
L 228.738455 189.101058 
L 226.018423 219.123396 
z
" clip-path="url(#pf01c4d5a5c)" style="fill: none; stroke: #000000; stroke-width: 0.5"/>
    <path d="M 233.443242 224.736263 
L 306.229713 224.736263 
L 306.229713 194.59096 
L 233.443242 194.59096 
L 233.443242 224.736263 
z
" clip-path="url(#pf01c4d5a5c)" style="fill: none; stroke: #000000; stroke-width: 0.5"/>
   </g>
   <g id="PatchCollection_3">
    <path d="M 164.38053 154.755061 
L 160.738795 155.295095 
L 160.873571 154.530746 
L 145.586584 151.835237 
L 145.72136 151.070887 
L 161.008346 153.766397 
L 161.143122 153.002048 
z
" clip-path="url(#pf01c4d5a5c)" style="fill: #ff0000; stroke: #ff0000; stroke-width: 0.24"/>
    <path d="M 162.020314 153.694053 
L 158.400206 154.363896 
L 158.507578 153.595218 
L 143.134021 151.447778 
L 143.241393 150.679101 
L 158.61495 152.82654 
L 158.722322 152.057863 
z
" clip-path="url(#pf01c4d5a5c)" style="fill: #ff0000; stroke: #ff0000; stroke-width: 0.24"/>
    <path d="M 159.623614 152.718183 
L 156.029758 153.516975 
L 156.10959 152.744951 
L 140.669109 151.148309 
L 140.748941 150.376285 
L 156.189422 151.972927 
L 156.269254 151.200903 
z
" clip-path="url(#pf01c4d5a5c)" style="fill: #ff0000; stroke: #ff0000; stroke-width: 0.24"/>
    <path d="M 157.193746 151.828597 
L 153.630733 152.755319 
L 153.682923 151.980935 
L 138.195244 150.937137 
L 138.247433 150.162753 
L 153.735113 151.206551 
L 153.787303 150.432167 
z
" clip-path="url(#pf01c4d5a5c)" style="fill: #ff0000; stroke: #ff0000; stroke-width: 0.24"/>
    <path d="M 154.733428 151.026321 
L 151.205811 152.079789 
L 151.230292 151.304034 
L 135.715203 150.814416 
L 135.739684 150.038661 
L 151.254773 150.52828 
L 151.279254 149.752525 
z
" clip-path="url(#pf01c4d5a5c)" style="fill: #ff0000; stroke: #ff0000; stroke-width: 0.24"/>
    <path d="M 152.246188 150.312537 
L 148.758475 151.491404 
L 148.755215 150.71527 
L 133.232539 150.780455 
L 133.22928 150.004321 
L 148.751956 149.939136 
L 148.748697 149.163003 
z
" clip-path="url(#pf01c4d5a5c)" style="fill: #ff0000; stroke: #ff0000; stroke-width: 0.24"/>
    <path d="M 149.734963 149.688109 
L 146.291609 150.99087 
L 146.260614 150.215349 
L 130.750183 150.835255 
L 130.719188 150.059734 
L 146.229618 149.439827 
L 146.198623 148.664306 
z
" clip-path="url(#pf01c4d5a5c)" style="fill: #ff0000; stroke: #ff0000; stroke-width: 0.24"/>
    <path d="M 147.202877 149.15391 
L 143.808282 150.5789 
L 143.74959 149.804981 
L 128.271223 150.978816 
L 128.212531 150.204897 
L 143.690898 149.031063 
L 143.632207 148.257145 
z
" clip-path="url(#pf01c4d5a5c)" style="fill: #ff0000; stroke: #ff0000; stroke-width: 0.24"/>
    <path d="M 147.341635 148.435887 
L 144.000136 149.981287 
L 143.913823 149.20996 
L 128.487296 150.936229 
L 128.400983 150.164903 
L 143.827509 148.438634 
L 143.741196 147.667308 
z
" clip-path="url(#pf01c4d5a5c)" style="fill: #ff0000; stroke: #ff0000; stroke-width: 0.24"/>
    <path d="M 149.729876 147.439928 
L 146.445742 149.103761 
L 146.331918 148.336012 
L 130.97694 150.612497 
L 130.863116 149.844748 
L 146.218094 147.568263 
L 146.10427 146.800514 
z
" clip-path="url(#pf01c4d5a5c)" style="fill: #ff0000; stroke: #ff0000; stroke-width: 0.24"/>
    <path d="M 152.081198 146.35919 
L 148.858627 148.139332 
L 148.717436 147.376142 
L 133.453628 150.19995 
L 133.312438 149.436759 
L 148.576246 146.612951 
L 148.435055 145.849761 
z
" clip-path="url(#pf01c4d5a5c)" style="fill: #ff0000; stroke: #ff0000; stroke-width: 0.24"/>
    <path d="M 154.392334 145.195185 
L 151.235441 147.08936 
L 151.067065 146.331703 
L 135.913926 149.699211 
L 135.745551 148.941554 
L 150.89869 145.574046 
L 150.730314 144.816389 
z
" clip-path="url(#pf01c4d5a5c)" style="fill: #ff0000; stroke: #ff0000; stroke-width: 0.24"/>
    <path d="M 156.66035 143.949213 
L 153.573168 145.955 
L 153.377823 145.203845 
L 138.354714 149.110751 
L 138.159368 148.359595 
L 153.182478 144.452689 
L 152.987133 143.701534 
z
" clip-path="url(#pf01c4d5a5c)" style="fill: #ff0000; stroke: #ff0000; stroke-width: 0.24"/>
    <path d="M 158.88234 142.623031 
L 155.868816 144.737871 
L 155.64675 143.994176 
L 140.772868 148.435503 
L 140.550802 147.691809 
L 155.424683 143.250482 
L 155.202617 142.506788 
z
" clip-path="url(#pf01c4d5a5c)" style="fill: #ff0000; stroke: #ff0000; stroke-width: 0.24"/>
    <path d="M 161.055598 141.218287 
L 158.11958 143.439475 
L 157.871077 142.704192 
L 143.165423 147.67425 
L 142.916921 146.938967 
L 157.622574 141.968909 
L 157.374072 141.233626 
z
" clip-path="url(#pf01c4d5a5c)" style="fill: #ff0000; stroke: #ff0000; stroke-width: 0.24"/>
    <path d="M 163.177271 139.736861 
L 160.322513 142.06156 
L 160.04789 141.335629 
L 145.529258 146.828082 
L 145.254636 146.102151 
L 159.773268 140.609697 
L 159.498645 139.883765 
z
" clip-path="url(#pf01c4d5a5c)" style="fill: #ff0000; stroke: #ff0000; stroke-width: 0.24"/>
    <path d="M 165.244561 138.180536 
L 162.474707 140.605775 
L 162.174317 139.890121 
L 147.861251 145.897939 
L 147.56086 145.182285 
L 161.873926 139.174468 
L 161.573535 138.458815 
z
" clip-path="url(#pf01c4d5a5c)" style="fill: #ff0000; stroke: #ff0000; stroke-width: 0.24"/>
    <path d="M 167.25498 136.55117 
L 164.573573 139.073852 
L 164.247797 138.369392 
L 150.158591 144.884912 
L 149.832815 144.180451 
L 163.922021 137.664932 
L 163.596245 136.960471 
z
" clip-path="url(#pf01c4d5a5c)" style="fill: #ff0000; stroke: #ff0000; stroke-width: 0.24"/>
    <path d="M 169.205946 134.851146 
L 166.616408 137.468046 
L 166.265664 136.775678 
L 152.418313 143.790561 
L 152.067568 143.098193 
L 165.91492 136.08331 
L 165.564176 135.390943 
z
" clip-path="url(#pf01c4d5a5c)" style="fill: #ff0000; stroke: #ff0000; stroke-width: 0.24"/>
    <path d="M 171.094716 133.082296 
L 168.600358 135.790073 
L 168.225094 135.110683 
L 154.637296 142.61598 
L 154.262031 141.93659 
L 167.849829 134.431293 
L 167.474564 133.751903 
z
" clip-path="url(#pf01c4d5a5c)" style="fill: #ff0000; stroke: #ff0000; stroke-width: 0.24"/>
    <path d="M 172.919229 131.247286 
L 170.523237 134.042477 
L 170.123931 133.376933 
L 156.813041 141.363041 
L 156.413736 140.697497 
L 169.724626 132.711388 
L 169.325321 132.045844 
z
" clip-path="url(#pf01c4d5a5c)" style="fill: #ff0000; stroke: #ff0000; stroke-width: 0.24"/>
    <path d="M 174.676962 129.348092 
L 172.382396 132.227127 
L 171.95956 131.576278 
L 158.942584 140.032995 
L 158.519748 139.382146 
L 171.536724 130.925429 
L 171.113888 130.27458 
z
" clip-path="url(#pf01c4d5a5c)" style="fill: #ff0000; stroke: #ff0000; stroke-width: 0.24"/>
    <path d="M 176.365724 127.387454 
L 174.175519 130.346655 
L 173.729693 129.711334 
L 161.02327 138.627867 
L 160.577444 137.992546 
L 173.283866 129.076013 
L 172.838039 128.440692 
z
" clip-path="url(#pf01c4d5a5c)" style="fill: #ff0000; stroke: #ff0000; stroke-width: 0.24"/>
    <path d="M 177.98323 125.367519 
L 175.900181 128.403105 
L 175.431934 127.784123 
L 163.052291 137.149066 
L 162.584044 136.530084 
L 174.963687 127.16514 
L 174.495439 126.546158 
z
" clip-path="url(#pf01c4d5a5c)" style="fill: #ff0000; stroke: #ff0000; stroke-width: 0.24"/>
    <path d="M 179.527639 123.291132 
L 177.554411 126.399225 
L 177.064341 125.797374 
L 165.027304 135.598775 
L 164.537234 134.996924 
L 176.574271 125.195522 
L 176.0842 124.59367 
z
" clip-path="url(#pf01c4d5a5c)" style="fill: #ff0000; stroke: #ff0000; stroke-width: 0.24"/>
    <path d="M 181.022915 121.19101 
L 179.155378 124.363734 
L 178.645336 123.778712 
L 166.944889 133.979558 
L 166.434846 133.394536 
L 178.135293 123.19369 
L 177.625251 122.608667 
z
" clip-path="url(#pf01c4d5a5c)" style="fill: #ff0000; stroke: #ff0000; stroke-width: 0.24"/>
    <path d="M 183.371528 120.104326 
L 181.391793 123.208279 
L 180.902984 122.605401 
L 168.84544 132.381564 
L 168.356632 131.778687 
L 180.414176 122.002524 
L 179.925368 121.399647 
z
" clip-path="url(#pf01c4d5a5c)" style="fill: #ff0000; stroke: #ff0000; stroke-width: 0.24"/>
    <path d="M 185.757294 119.102315 
L 183.667893 122.133532 
L 183.200943 121.513571 
L 170.801717 130.852572 
L 170.334767 130.23261 
L 182.733993 120.89361 
L 182.267043 120.273649 
z
" clip-path="url(#pf01c4d5a5c)" style="fill: #ff0000; stroke: #ff0000; stroke-width: 0.24"/>
    <path d="M 189.757833 116.089182 
L 187.668433 119.120399 
L 187.201483 118.500438 
L 174.802257 127.839438 
L 174.335307 127.219477 
L 186.734533 117.880477 
L 186.267583 117.260515 
z
" clip-path="url(#pf01c4d5a5c)" style="fill: #ff0000; stroke: #ff0000; stroke-width: 0.24"/>
    <path d="M 193.758218 113.076049 
L 191.668817 116.107266 
L 191.201867 115.487305 
L 178.802641 124.826305 
L 178.335691 124.206344 
L 190.734917 114.867343 
L 190.267967 114.247382 
z
" clip-path="url(#pf01c4d5a5c)" style="fill: #ff0000; stroke: #ff0000; stroke-width: 0.24"/>
    <path d="M 197.758757 110.062916 
L 195.669356 113.094133 
L 195.202406 112.474171 
L 182.80318 121.813172 
L 182.33623 121.19321 
L 194.735456 111.85421 
L 194.268506 111.234249 
z
" clip-path="url(#pf01c4d5a5c)" style="fill: #ff0000; stroke: #ff0000; stroke-width: 0.24"/>
    <path d="M 201.759296 107.049627 
L 199.669896 110.080844 
L 199.202946 109.460883 
L 186.80372 118.799883 
L 186.33677 118.179922 
L 198.735996 108.840922 
L 198.269046 108.22096 
z
" clip-path="url(#pf01c4d5a5c)" style="fill: #ff0000; stroke: #ff0000; stroke-width: 0.24"/>
    <path d="M 205.759836 104.036494 
L 203.670435 107.067711 
L 203.203485 106.44775 
L 190.804259 115.78675 
L 190.337309 115.166789 
L 202.736535 105.827788 
L 202.269585 105.207827 
z
" clip-path="url(#pf01c4d5a5c)" style="fill: #ff0000; stroke: #ff0000; stroke-width: 0.24"/>
    <path d="M 209.760375 101.023361 
L 207.670974 104.054578 
L 207.204024 103.434616 
L 194.804799 112.773617 
L 194.337849 112.153655 
L 206.737074 102.814655 
L 206.270124 102.194694 
z
" clip-path="url(#pf01c4d5a5c)" style="fill: #ff0000; stroke: #ff0000; stroke-width: 0.24"/>
    <path d="M 213.760759 98.010227 
L 211.671359 101.041444 
L 211.204409 100.421483 
L 198.805183 109.760483 
L 198.338233 109.140522 
L 210.737459 99.801522 
L 210.270509 99.181561 
z
" clip-path="url(#pf01c4d5a5c)" style="fill: #ff0000; stroke: #ff0000; stroke-width: 0.24"/>
    <path d="M 217.761299 94.997094 
L 215.671898 98.028311 
L 215.204948 97.40835 
L 202.805722 106.74735 
L 202.338772 106.127389 
L 214.737998 96.788389 
L 214.271048 96.168427 
z
" clip-path="url(#pf01c4d5a5c)" style="fill: #ff0000; stroke: #ff0000; stroke-width: 0.24"/>
    <path d="M 221.761838 91.983961 
L 219.672437 95.015178 
L 219.205487 94.395217 
L 206.806262 103.734217 
L 206.339312 103.114256 
L 218.738537 93.775255 
L 218.271587 93.155294 
z
" clip-path="url(#pf01c4d5a5c)" style="fill: #ff0000; stroke: #ff0000; stroke-width: 0.24"/>
    <path d="M 225.762347 88.970828 
L 223.672946 92.002045 
L 223.205996 91.382083 
L 210.80677 100.721084 
L 210.33982 100.101122 
L 222.739046 90.762122 
L 222.272096 90.142161 
z
" clip-path="url(#pf01c4d5a5c)" style="fill: #ff0000; stroke: #ff0000; stroke-width: 0.24"/>
    <path d="M 229.762855 85.957694 
L 227.673454 88.988911 
L 227.206504 88.36895 
L 214.807278 97.70795 
L 214.340328 97.087989 
L 226.739554 87.748989 
L 226.272604 87.129027 
z
" clip-path="url(#pf01c4d5a5c)" style="fill: #ff0000; stroke: #ff0000; stroke-width: 0.24"/>
    <path d="M 233.763363 82.944561 
L 231.673963 85.975778 
L 231.207013 85.355817 
L 218.807787 94.694817 
L 218.340837 94.074856 
L 230.740063 84.735855 
L 230.273113 84.115894 
z
" clip-path="url(#pf01c4d5a5c)" style="fill: #ff0000; stroke: #ff0000; stroke-width: 0.24"/>
    <path d="M 237.763862 79.931428 
L 235.674462 82.962645 
L 235.207512 82.342683 
L 222.808286 91.681684 
L 222.341336 91.061723 
L 234.740562 81.722722 
L 234.273612 81.102761 
z
" clip-path="url(#pf01c4d5a5c)" style="fill: #ff0000; stroke: #ff0000; stroke-width: 0.24"/>
    <path d="M 241.764365 76.918294 
L 239.674964 79.949512 
L 239.208014 79.32955 
L 226.808788 88.668551 
L 226.341838 88.048589 
L 238.741064 78.709589 
L 238.274114 78.089628 
z
" clip-path="url(#pf01c4d5a5c)" style="fill: #ff0000; stroke: #ff0000; stroke-width: 0.24"/>
    <path d="M 245.764873 73.905006 
L 243.675472 76.936223 
L 243.208522 76.316262 
L 230.809296 85.655262 
L 230.342346 85.035301 
L 242.741572 75.6963 
L 242.274622 75.076339 
z
" clip-path="url(#pf01c4d5a5c)" style="fill: #ff0000; stroke: #ff0000; stroke-width: 0.24"/>
    <path d="M 249.765381 70.891873 
L 247.675981 73.92309 
L 247.209031 73.303128 
L 234.809805 82.642129 
L 234.342855 82.022168 
L 246.74208 72.683167 
L 246.27513 72.063206 
z
" clip-path="url(#pf01c4d5a5c)" style="fill: #ff0000; stroke: #ff0000; stroke-width: 0.24"/>
    <path d="M 254.347061 68.689328 
L 252.114074 71.616381 
L 251.677529 70.974647 
L 238.842843 79.705544 
L 238.406298 79.063809 
L 251.240984 70.332912 
L 250.80444 69.691178 
z
" clip-path="url(#pf01c4d5a5c)" style="fill: #ff0000; stroke: #ff0000; stroke-width: 0.24"/>
    <path d="M 259.311225 67.176913 
L 256.874291 69.936483 
L 256.484839 69.265125 
L 243.057676 77.054157 
L 242.668225 76.382799 
L 256.095388 68.593767 
L 255.705936 67.922409 
z
" clip-path="url(#pf01c4d5a5c)" style="fill: #ff0000; stroke: #ff0000; stroke-width: 0.24"/>
    <path d="M 264.37106 66.023984 
L 261.742701 68.60189 
L 261.402344 67.904357 
L 247.451698 74.711502 
L 247.111341 74.01397 
L 261.061986 67.206825 
L 260.721629 66.509293 
z
" clip-path="url(#pf01c4d5a5c)" style="fill: #ff0000; stroke: #ff0000; stroke-width: 0.24"/>
    <path d="M 269.500328 65.237087 
L 266.694049 67.620083 
L 266.404535 66.899961 
L 252.002091 72.69024 
L 251.712577 71.970118 
L 266.115022 66.179839 
L 265.825508 65.459716 
z
" clip-path="url(#pf01c4d5a5c)" style="fill: #ff0000; stroke: #ff0000; stroke-width: 0.24"/>
    <path d="M 274.672902 64.817894 
L 271.703123 66.993736 
L 271.46594 66.254724 
L 256.685703 70.998384 
L 256.44852 70.259372 
L 271.228757 65.515712 
L 270.991574 64.7767 
z
" clip-path="url(#pf01c4d5a5c)" style="fill: #ff0000; stroke: #ff0000; stroke-width: 0.24"/>
    <path d="M 279.862186 64.771615 
L 276.744168 66.729121 
L 276.560534 65.975017 
L 261.478451 69.647684 
L 261.294817 68.89358 
L 276.376901 65.220913 
L 276.193268 64.466808 
z
" clip-path="url(#pf01c4d5a5c)" style="fill: #ff0000; stroke: #ff0000; stroke-width: 0.24"/>
    <path d="M 285.041446 65.097716 
L 281.791209 66.826829 
L 281.662069 66.061508 
L 266.355637 68.64431 
L 266.226497 67.878989 
L 281.532929 65.296186 
L 281.403789 64.530864 
z
" clip-path="url(#pf01c4d5a5c)" style="fill: #ff0000; stroke: #ff0000; stroke-width: 0.24"/>
    <path d="M 290.183967 65.794007 
L 286.818212 67.285839 
L 286.74423 66.513233 
L 271.292099 67.99289 
L 271.218116 67.220283 
L 286.670247 65.740626 
L 286.596264 64.96802 
z
" clip-path="url(#pf01c4d5a5c)" style="fill: #ff0000; stroke: #ff0000; stroke-width: 0.24"/>
    <path d="M 295.263528 66.855074 
L 291.799551 68.101962 
L 291.781105 67.326041 
L 276.262676 67.694957 
L 276.24423 66.919036 
L 291.762659 66.55012 
L 291.744213 65.774198 
z
" clip-path="url(#pf01c4d5a5c)" style="fill: #ff0000; stroke: #ff0000; stroke-width: 0.24"/>
    <path d="M 300.253945 68.278593 
L 296.709544 69.27413 
L 296.74673 68.498881 
L 281.241744 67.75516 
L 281.27893 66.979911 
L 296.783916 67.723631 
L 296.821102 66.948382 
z
" clip-path="url(#pf01c4d5a5c)" style="fill: #ff0000; stroke: #ff0000; stroke-width: 0.24"/>
    <path d="M 305.129534 70.056009 
L 301.522923 70.795079 
L 301.615549 70.024485 
L 286.203676 68.171948 
L 286.296303 67.401355 
L 301.708176 69.253892 
L 301.800803 68.483298 
z
" clip-path="url(#pf01c4d5a5c)" style="fill: #ff0000; stroke: #ff0000; stroke-width: 0.24"/>
    <path d="M 309.86527 72.178786 
L 306.21498 72.657591 
L 306.362572 71.895613 
L 291.123004 68.943781 
L 291.270596 68.181803 
L 306.510163 71.133634 
L 306.657755 70.371656 
z
" clip-path="url(#pf01c4d5a5c)" style="fill: #ff0000; stroke: #ff0000; stroke-width: 0.24"/>
    <path d="M 314.436934 74.633797 
L 310.761723 74.849878 
L 310.963521 74.10043 
L 295.974566 70.064472 
L 296.176364 69.315024 
L 311.165319 73.350983 
L 311.367117 72.601535 
z
" clip-path="url(#pf01c4d5a5c)" style="fill: #ff0000; stroke: #ff0000; stroke-width: 0.24"/>
    <path d="M 319.553407 77.920593 
L 315.873026 77.827498 
L 316.137004 77.097628 
L 301.539605 71.818075 
L 301.803583 71.088205 
L 316.400981 76.367758 
L 316.664959 75.637888 
z
" clip-path="url(#pf01c4d5a5c)" style="fill: #ff0000; stroke: #ff0000; stroke-width: 0.24"/>
    <path d="M 324.376233 81.622808 
L 320.716646 81.221191 
L 321.040942 80.516048 
L 306.938084 74.03013 
L 307.26238 73.324987 
L 321.365238 79.810905 
L 321.689534 79.105763 
z
" clip-path="url(#pf01c4d5a5c)" style="fill: #ff0000; stroke: #ff0000; stroke-width: 0.24"/>
    <path d="M 328.871203 85.717876 
L 325.258228 85.010573 
L 325.640553 84.335131 
L 312.13172 76.688619 
L 312.514046 76.013177 
L 326.022879 83.65969 
L 326.405204 82.984248 
z
" clip-path="url(#pf01c4d5a5c)" style="fill: #ff0000; stroke: #ff0000; stroke-width: 0.24"/>
    <path d="M 333.006812 90.175604 
L 329.465934 89.167605 
L 329.903593 88.526629 
L 317.084083 79.773465 
L 317.521741 79.132489 
L 330.341251 87.885654 
L 330.778909 87.244678 
z
" clip-path="url(#pf01c4d5a5c)" style="fill: #ff0000; stroke: #ff0000; stroke-width: 0.24"/>
    <path d="M 336.75361 94.964556 
L 333.309813 93.662969 
L 333.799716 93.060982 
L 321.759975 83.262902 
L 322.249879 82.660915 
L 334.28962 92.458994 
L 334.779524 91.857007 
z
" clip-path="url(#pf01c4d5a5c)" style="fill: #ff0000; stroke: #ff0000; stroke-width: 0.24"/>
    <path d="M 340.085453 100.050991 
L 336.763028 98.465001 
L 337.301721 97.906249 
L 326.126674 87.132388 
L 326.665367 86.573636 
L 337.840414 97.347496 
L 338.379107 96.788744 
z
" clip-path="url(#pf01c4d5a5c)" style="fill: #ff0000; stroke: #ff0000; stroke-width: 0.24"/>
    <path d="M 342.9786 105.399017 
L 339.800985 103.539812 
L 340.384667 103.028237 
L 330.15315 91.3546 
L 330.736832 90.843024 
L 340.968349 102.516661 
L 341.552031 102.005085 
z
" clip-path="url(#pf01c4d5a5c)" style="fill: #ff0000; stroke: #ff0000; stroke-width: 0.24"/>
    <path d="M 345.412783 110.97122 
L 342.402398 108.851914 
L 343.026952 108.391124 
L 333.811155 95.900055 
L 334.435709 95.439265 
L 343.651505 107.930335 
L 344.276059 107.469545 
z
" clip-path="url(#pf01c4d5a5c)" style="fill: #ff0000; stroke: #ff0000; stroke-width: 0.24"/>
    <path d="M 347.370748 116.72775 
L 344.548825 114.3633 
L 345.209844 113.956545 
L 337.074756 100.736179 
L 337.735774 100.329425 
L 345.870862 113.549791 
L 346.53188 113.143036 
z
" clip-path="url(#pf01c4d5a5c)" style="fill: #ff0000; stroke: #ff0000; stroke-width: 0.24"/>
    <path d="M 350.667681 121.585534 
L 347.805232 119.270311 
L 348.459106 118.85217 
L 340.096273 105.774679 
L 340.750148 105.356538 
L 349.112981 118.434028 
L 349.766855 118.015886 
z
" clip-path="url(#pf01c4d5a5c)" style="fill: #ff0000; stroke: #ff0000; stroke-width: 0.24"/>
    <path d="M 355.341504 125.475083 
L 352.294871 123.408226 
L 352.911351 122.93669 
L 343.480627 110.607084 
L 344.097107 110.135548 
L 353.527831 122.465154 
L 354.144312 121.993617 
z
" clip-path="url(#pf01c4d5a5c)" style="fill: #ff0000; stroke: #ff0000; stroke-width: 0.24"/>
    <path d="M 360.325207 128.958616 
L 357.115875 127.154714 
L 357.690611 126.633108 
L 347.258486 115.138392 
L 347.833221 114.616786 
L 358.265347 126.111501 
L 358.840082 125.589895 
z
" clip-path="url(#pf01c4d5a5c)" style="fill: #ff0000; stroke: #ff0000; stroke-width: 0.24"/>
    <path d="M 365.583712 132.011698 
L 362.23432 130.48348 
L 362.763256 129.915483 
L 351.403313 119.336758 
L 351.932249 118.768761 
L 363.292193 129.347486 
L 363.821129 128.779489 
z
" clip-path="url(#pf01c4d5a5c)" style="fill: #ff0000; stroke: #ff0000; stroke-width: 0.24"/>
    <path d="M 371.079946 134.612623 
L 367.614125 133.370868 
L 368.09353 132.760487 
L 355.88592 123.172371 
L 356.365326 122.56199 
L 368.572936 132.150107 
L 369.052342 131.539726 
z
" clip-path="url(#pf01c4d5a5c)" style="fill: #ff0000; stroke: #ff0000; stroke-width: 0.24"/>
    <path d="M 376.774931 136.743396 
L 373.21713 135.796862 
L 373.643624 135.148404 
L 360.674465 126.618536 
L 361.100958 125.970078 
L 374.070117 134.499946 
L 374.49661 133.851488 
z
" clip-path="url(#pf01c4d5a5c)" style="fill: #ff0000; stroke: #ff0000; stroke-width: 0.24"/>
    <path d="M 382.628722 138.388463 
L 379.004039 137.743832 
L 379.374611 137.061871 
L 365.735387 129.650439 
L 366.105959 128.968478 
L 379.745182 136.37991 
L 380.115754 135.697949 
z
" clip-path="url(#pf01c4d5a5c)" style="fill: #ff0000; stroke: #ff0000; stroke-width: 0.24"/>
    <path d="M 388.599805 139.536721 
L 384.933812 139.198538 
L 385.245848 138.487885 
L 371.032787 132.24716 
L 371.344824 131.536507 
L 385.557884 137.777232 
L 385.86992 137.066579 
z
" clip-path="url(#pf01c4d5a5c)" style="fill: #ff0000; stroke: #ff0000; stroke-width: 0.24"/>
    <path d="M 394.646288 140.179645 
L 390.964846 140.150294 
L 391.216146 139.415963 
L 376.529514 134.389971 
L 376.780814 133.65564 
L 391.467445 138.681631 
L 391.718745 137.9473 
z
" clip-path="url(#pf01c4d5a5c)" style="fill: #ff0000; stroke: #ff0000; stroke-width: 0.24"/>
    <path d="M 400.724965 140.312967 
L 397.054046 140.59266 
L 397.242835 139.83983 
L 382.186237 136.064042 
L 382.375026 135.311212 
L 397.431625 139.087 
L 397.620414 138.33417 
z
" clip-path="url(#pf01c4d5a5c)" style="fill: #ff0000; stroke: #ff0000; stroke-width: 0.24"/>
    <path d="M 406.794598 139.93573 
L 403.160098 140.522489 
L 403.285046 139.756472 
L 387.964703 137.25751 
L 388.089651 136.491493 
L 403.409994 138.990455 
L 403.534943 138.224438 
z
" clip-path="url(#pf01c4d5a5c)" style="fill: #ff0000; stroke: #ff0000; stroke-width: 0.24"/>
    <path d="M 404.835381 138.198976 
L 401.262941 139.088665 
L 401.323166 138.314864 
L 385.847155 137.110365 
L 385.90738 136.336564 
L 401.383391 137.541064 
L 401.443616 136.767263 
z
" clip-path="url(#pf01c4d5a5c)" style="fill: #ff0000; stroke: #ff0000; stroke-width: 0.24"/>
    <path d="M 399.029365 136.393762 
L 395.544186 137.580102 
L 395.539263 136.803977 
L 380.016762 136.902435 
L 380.011839 136.12631 
L 395.53434 136.027852 
L 395.529418 135.251727 
z
" clip-path="url(#pf01c4d5a5c)" style="fill: #ff0000; stroke: #ff0000; stroke-width: 0.24"/>
    <path d="M 393.091844 135.081936 
L 389.718513 136.556559 
L 389.648477 135.783585 
L 374.188991 137.184306 
L 374.118955 136.411332 
L 389.578441 135.010611 
L 389.508405 134.237636 
z
" clip-path="url(#pf01c4d5a5c)" style="fill: #ff0000; stroke: #ff0000; stroke-width: 0.24"/>
    <path d="M 387.065431 134.273212 
L 383.827746 136.025714 
L 383.693091 135.261343 
L 368.405679 137.954437 
L 368.271024 137.190067 
L 383.558436 134.496973 
L 383.423782 133.732602 
z
" clip-path="url(#pf01c4d5a5c)" style="fill: #ff0000; stroke: #ff0000; stroke-width: 0.24"/>
    <path d="M 380.992278 133.972982 
L 377.91308 135.991004 
L 377.714756 135.240629 
L 362.707267 139.207116 
L 362.508943 138.456741 
L 377.516431 134.490255 
L 377.318107 133.73988 
z
" clip-path="url(#pf01c4d5a5c)" style="fill: #ff0000; stroke: #ff0000; stroke-width: 0.24"/>
    <path d="M 374.915327 134.183444 
L 372.016336 136.452745 
L 371.755742 135.72166 
L 357.134045 140.933542 
L 356.873451 140.202457 
L 371.495148 134.990575 
L 371.234554 134.259491 
z
" clip-path="url(#pf01c4d5a5c)" style="fill: #ff0000; stroke: #ff0000; stroke-width: 0.24"/>
    <path d="M 368.877491 134.903079 
L 366.179159 137.40765 
L 365.858133 136.701012 
L 351.725378 143.121522 
L 351.404352 142.414884 
L 365.537108 135.994374 
L 365.216082 135.287737 
z
" clip-path="url(#pf01c4d5a5c)" style="fill: #ff0000; stroke: #ff0000; stroke-width: 0.24"/>
    <path d="M 362.921482 136.12679 
L 360.442848 138.848966 
L 360.063655 138.171761 
L 346.519548 145.755619 
L 346.140355 145.078414 
L 359.684462 137.494556 
L 359.305269 136.81735 
z
" clip-path="url(#pf01c4d5a5c)" style="fill: #ff0000; stroke: #ff0000; stroke-width: 0.24"/>
    <path d="M 357.08904 137.846195 
L 354.847585 140.766769 
L 354.412901 140.123773 
L 341.552984 148.817464 
L 341.118299 148.174468 
L 353.978216 139.480777 
L 353.543532 138.837781 
z
" clip-path="url(#pf01c4d5a5c)" style="fill: #ff0000; stroke: #ff0000; stroke-width: 0.24"/>
    <path d="M 351.42146 140.048823 
L 349.432998 143.147192 
L 348.945889 142.542942 
L 336.860882 152.285136 
L 336.373772 151.680886 
L 348.458779 141.938692 
L 347.971669 141.334441 
z
" clip-path="url(#pf01c4d5a5c)" style="fill: #ff0000; stroke: #ff0000; stroke-width: 0.24"/>
    <path d="M 347.06564 142.13182 
L 345.288127 145.355843 
L 344.761823 144.785405 
L 333.353075 155.311477 
L 332.826771 154.74104 
L 344.23552 144.214968 
L 343.709216 143.64453 
z
" clip-path="url(#pf01c4d5a5c)" style="fill: #ff0000; stroke: #ff0000; stroke-width: 0.24"/>
    <path d="M 342.858313 144.500371 
L 341.299652 147.835704 
L 340.736496 147.301616 
L 330.054742 158.564735 
L 329.491586 158.030648 
L 340.17334 146.767529 
L 339.610184 146.233441 
z
" clip-path="url(#pf01c4d5a5c)" style="fill: #ff0000; stroke: #ff0000; stroke-width: 0.24"/>
    <path d="M 338.818331 147.144195 
L 337.485455 150.576004 
L 336.887952 150.080641 
L 326.980702 162.03071 
L 326.383199 161.535347 
L 336.290449 149.585279 
L 335.692945 149.089917 
z
" clip-path="url(#pf01c4d5a5c)" style="fill: #ff0000; stroke: #ff0000; stroke-width: 0.24"/>
    <path d="M 334.96342 150.051357 
L 333.862257 153.564378 
L 333.233064 153.109944 
L 324.144386 165.693809 
L 323.515192 165.239375 
L 332.60387 152.65551 
L 331.974677 152.201076 
z
" clip-path="url(#pf01c4d5a5c)" style="fill: #ff0000; stroke: #ff0000; stroke-width: 0.24"/>
    <path d="M 331.446856 153.294798 
L 330.5516 156.865847 
L 329.897074 156.448726 
L 321.554652 169.539247 
L 320.900126 169.122126 
L 329.242548 156.031605 
L 328.588022 155.614484 
z
" clip-path="url(#pf01c4d5a5c)" style="fill: #ff0000; stroke: #ff0000; stroke-width: 0.24"/>
    <path d="M 329.703746 157.739546 
L 328.6184 161.257485 
L 327.987168 160.805886 
L 318.955197 173.430514 
L 318.323966 172.978915 
L 327.355937 160.354288 
L 326.724706 159.902689 
z
" clip-path="url(#pf01c4d5a5c)" style="fill: #ff0000; stroke: #ff0000; stroke-width: 0.24"/>
    <path d="M 327.874442 162.207732 
L 326.557015 165.645502 
L 325.95729 165.152832 
L 316.103892 177.147342 
L 315.504166 176.654672 
L 325.357564 164.660162 
L 324.757839 164.167492 
z
" clip-path="url(#pf01c4d5a5c)" style="fill: #ff0000; stroke: #ff0000; stroke-width: 0.24"/>
    <path d="M 325.751451 166.544122 
L 324.207808 169.886432 
L 323.642255 169.354883 
L 313.01127 180.665934 
L 312.445718 180.134385 
L 323.076703 168.823333 
L 322.51115 168.291784 
z
" clip-path="url(#pf01c4d5a5c)" style="fill: #ff0000; stroke: #ff0000; stroke-width: 0.24"/>
    <path d="M 323.344057 170.729324 
L 321.581064 173.961309 
L 321.0522 173.393244 
L 309.690913 183.970526 
L 309.162049 183.402462 
L 320.523336 172.82518 
L 319.994472 172.257116 
z
" clip-path="url(#pf01c4d5a5c)" style="fill: #ff0000; stroke: #ff0000; stroke-width: 0.24"/>
    <path d="M 320.663184 174.744904 
L 318.688681 177.852188 
L 318.198858 177.250135 
L 306.157804 187.046601 
L 305.667981 186.444549 
L 317.709035 176.648083 
L 317.219212 176.04603 
z
" clip-path="url(#pf01c4d5a5c)" style="fill: #ff0000; stroke: #ff0000; stroke-width: 0.24"/>
    <path d="M 317.720505 178.572654 
L 315.543273 181.541413 
L 315.09467 180.90805 
L 302.427397 189.880113 
L 301.978794 189.246749 
L 314.646067 180.274686 
L 314.197464 179.641322 
z
" clip-path="url(#pf01c4d5a5c)" style="fill: #ff0000; stroke: #ff0000; stroke-width: 0.24"/>
    <path d="M 314.529195 182.195787 
L 312.158921 185.01282 
L 311.753533 184.350963 
L 298.516393 192.458728 
L 298.111005 191.796872 
L 311.348144 183.689106 
L 310.942756 183.027249 
z
" clip-path="url(#pf01c4d5a5c)" style="fill: #ff0000; stroke: #ff0000; stroke-width: 0.24"/>
    <path d="M 311.103547 185.598277 
L 308.550773 188.251053 
L 308.190403 187.563647 
L 294.442275 194.771053 
L 294.081905 194.083646 
L 307.830033 186.87624 
L 307.469662 186.188834 
z
" clip-path="url(#pf01c4d5a5c)" style="fill: #ff0000; stroke: #ff0000; stroke-width: 0.24"/>
    <path d="M 308.814577 187.636276 
L 306.151812 190.178627 
L 305.820859 189.476584 
L 291.779995 196.095637 
L 291.449042 195.393594 
L 305.489907 188.774541 
L 305.158954 188.072498 
z
" clip-path="url(#pf01c4d5a5c)" style="fill: #ff0000; stroke: #ff0000; stroke-width: 0.24"/>
    <path d="M 306.441383 189.575645 
L 303.673398 192.003016 
L 303.372456 191.287594 
L 289.06402 197.306431 
L 288.763078 196.591009 
L 303.071514 190.572172 
L 302.770572 189.856751 
z
" clip-path="url(#pf01c4d5a5c)" style="fill: #ff0000; stroke: #ff0000; stroke-width: 0.24"/>
    <path d="M 303.988188 191.412739 
L 301.119944 193.720779 
L 300.849552 192.99326 
L 286.299189 198.401094 
L 286.028797 197.673576 
L 300.57916 192.265742 
L 300.308769 191.538224 
z
" clip-path="url(#pf01c4d5a5c)" style="fill: #ff0000; stroke: #ff0000; stroke-width: 0.24"/>
    <path d="M 301.459429 193.144508 
L 298.496066 195.32908 
L 298.256709 194.59077 
L 283.490497 199.377908 
L 283.25114 198.639597 
L 298.017352 193.852459 
L 297.777996 193.114148 
z
" clip-path="url(#pf01c4d5a5c)" style="fill: #ff0000; stroke: #ff0000; stroke-width: 0.24"/>
    <path d="M 298.851668 194.738577 
L 295.801759 196.800597 
L 295.592682 196.053147 
L 280.643685 200.23468 
L 280.434608 199.48723 
L 295.383605 195.305697 
L 295.174529 194.558247 
z
" clip-path="url(#pf01c4d5a5c)" style="fill: #ff0000; stroke: #ff0000; stroke-width: 0.24"/>
    <path d="M 296.003542 195.535363 
L 292.953633 197.597383 
L 292.744556 196.849933 
L 277.795559 201.031466 
L 277.586483 200.284016 
L 292.53548 196.102483 
L 292.326403 195.355033 
z
" clip-path="url(#pf01c4d5a5c)" style="fill: #ff0000; stroke: #ff0000; stroke-width: 0.24"/>
    <path d="M 293.155417 196.331994 
L 290.105507 198.394014 
L 289.896431 197.646564 
L 274.947433 201.828097 
L 274.738357 201.080647 
L 289.687354 196.899114 
L 289.478277 196.151664 
z
" clip-path="url(#pf01c4d5a5c)" style="fill: #ff0000; stroke: #ff0000; stroke-width: 0.24"/>
    <path d="M 290.307446 197.128625 
L 287.257537 199.190645 
L 287.04846 198.443195 
L 272.099463 202.624728 
L 271.890386 201.877278 
L 286.839383 197.695745 
L 286.630307 196.948295 
z
" clip-path="url(#pf01c4d5a5c)" style="fill: #ff0000; stroke: #ff0000; stroke-width: 0.24"/>
    <path d="M 287.615797 198.526021 
L 284.495832 200.480424 
L 284.312949 199.726137 
L 269.227219 203.383796 
L 269.044336 202.62951 
L 284.130067 198.971851 
L 283.947184 198.217564 
z
" clip-path="url(#pf01c4d5a5c)" style="fill: #ff0000; stroke: #ff0000; stroke-width: 0.24"/>
    <path d="M 284.900862 199.948024 
L 281.700972 201.768622 
L 281.550179 201.007271 
L 266.323155 204.023143 
L 266.172361 203.261792 
L 281.399385 200.24592 
L 281.248591 199.484568 
z
" clip-path="url(#pf01c4d5a5c)" style="fill: #ff0000; stroke: #ff0000; stroke-width: 0.24"/>
    <path d="M 282.128125 201.253863 
L 278.854045 202.937393 
L 278.735611 202.170341 
L 263.394585 204.539022 
L 263.276151 203.771971 
L 278.617177 201.40329 
L 278.498743 200.636239 
z
" clip-path="url(#pf01c4d5a5c)" style="fill: #ff0000; stroke: #ff0000; stroke-width: 0.24"/>
    <path d="M 279.302614 202.441185 
L 275.960212 203.98463 
L 275.87435 203.213253 
L 260.446816 204.930497 
L 260.360954 204.15912 
L 275.788488 202.441877 
L 275.702625 201.6705 
z
" clip-path="url(#pf01c4d5a5c)" style="fill: #ff0000; stroke: #ff0000; stroke-width: 0.24"/>
    <path d="M 273.363611 204.563877 
L 269.895578 205.79944 
L 269.879667 205.023462 
L 254.360116 205.341668 
L 254.344206 204.565691 
L 269.863757 204.247485 
L 269.847847 203.471507 
z
" clip-path="url(#pf01c4d5a5c)" style="fill: #ff0000; stroke: #ff0000; stroke-width: 0.24"/>
    <path d="M 279.628618 206.436578 
L 276.063245 207.354177 
L 276.117417 206.579929 
L 260.63246 205.496497 
L 260.686631 204.72225 
L 276.171589 205.805681 
L 276.22576 205.031434 
z
" clip-path="url(#pf01c4d5a5c)" style="fill: #ff0000; stroke: #ff0000; stroke-width: 0.24"/>
    <path d="M 285.699132 208.866905 
L 282.065506 209.459054 
L 282.189318 208.692852 
L 266.865286 206.216613 
L 266.989098 205.450412 
L 282.31313 207.926651 
L 282.436942 207.160449 
z
" clip-path="url(#pf01c4d5a5c)" style="fill: #ff0000; stroke: #ff0000; stroke-width: 0.24"/>
    <path d="M 291.525539 211.835012 
L 287.853306 212.096883 
L 288.045747 211.344978 
L 273.007654 207.496151 
L 273.200095 206.744246 
L 288.238189 210.593074 
L 288.43063 209.841169 
z
" clip-path="url(#pf01c4d5a5c)" style="fill: #ff0000; stroke: #ff0000; stroke-width: 0.24"/>
    <path d="M 297.960604 211.943808 
L 294.315604 212.461348 
L 294.455096 211.697846 
L 279.185043 208.908006 
L 279.324535 208.144504 
L 294.594588 210.934343 
L 294.73408 210.17084 
z
" clip-path="url(#pf01c4d5a5c)" style="fill: #ff0000; stroke: #ff0000; stroke-width: 0.24"/>
    <path d="M 304.444017 211.09439 
L 300.860583 211.938709 
L 300.930615 211.165735 
L 285.471121 209.7651 
L 285.541152 208.992125 
L 301.000646 210.39276 
L 301.070678 209.619785 
z
" clip-path="url(#pf01c4d5a5c)" style="fill: #ff0000; stroke: #ff0000; stroke-width: 0.24"/>
    <path d="M 310.824466 209.663612 
L 307.331833 210.827823 
L 307.331833 210.051682 
L 291.80902 210.051682 
L 291.80902 209.275541 
L 307.331833 209.275541 
L 307.331833 208.499401 
z
" clip-path="url(#pf01c4d5a5c)" style="fill: #ff0000; stroke: #ff0000; stroke-width: 0.24"/>
   </g>
   <g id="matplotlib.axis_1">
    <g id="xtick_1">
     <g id="line2d_1">
      <defs>
       <path id="mbb752ee5eb" d="M 0 0 
L 0 -3 
" style="stroke: #000000"/>
      </defs>
      <g>
       <use xlink:href="#mbb752ee5eb" x="68.039906" y="290.32" style="stroke: #000000"/>
      </g>
     </g>
     <g id="text_1">
      <!-- 10 -->
      <g transform="translate(56.959945 303.898359) scale(0.105 -0.105)">
       <defs>
        <path id="DejaVuSans-2212" d="M 678 2272 
L 4684 2272 
L 4684 1741 
L 678 1741 
L 678 2272 
z
" transform="scale(0.015625)"/>
        <path id="DejaVuSans-31" d="M 794 531 
L 1825 531 
L 1825 4091 
L 703 3866 
L 703 4441 
L 1819 4666 
L 2450 4666 
L 2450 531 
L 3481 531 
L 3481 0 
L 794 0 
L 794 531 
z
" transform="scale(0.015625)"/>
        <path id="DejaVuSans-30" d="M 2034 4250 
Q 1547 4250 1301 3770 
Q 1056 3291 1056 2328 
Q 1056 1369 1301 889 
Q 1547 409 2034 409 
Q 2525 409 2770 889 
Q 3016 1369 3016 2328 
Q 3016 3291 2770 3770 
Q 2525 4250 2034 4250 
z
M 2034 4750 
Q 2819 4750 3233 4129 
Q 3647 3509 3647 2328 
Q 3647 1150 3233 529 
Q 2819 -91 2034 -91 
Q 1250 -91 836 529 
Q 422 1150 422 2328 
Q 422 3509 836 4129 
Q 1250 4750 2034 4750 
z
" transform="scale(0.015625)"/>
       </defs>
       <use xlink:href="#DejaVuSans-2212"/>
       <use xlink:href="#DejaVuSans-31" x="83.789062"/>
       <use xlink:href="#DejaVuSans-30" x="147.412109"/>
      </g>
     </g>
    </g>
    <g id="xtick_2">
     <g id="line2d_2">
      <g>
       <use xlink:href="#mbb752ee5eb" x="145.653972" y="290.32" style="stroke: #000000"/>
      </g>
     </g>
     <g id="text_2">
      <!-- 5 -->
      <g transform="translate(137.914324 303.898359) scale(0.105 -0.105)">
       <defs>
        <path id="DejaVuSans-35" d="M 691 4666 
L 3169 4666 
L 3169 4134 
L 1269 4134 
L 1269 2991 
Q 1406 3038 1543 3061 
Q 1681 3084 1819 3084 
Q 2600 3084 3056 2656 
Q 3513 2228 3513 1497 
Q 3513 744 3044 326 
Q 2575 -91 1722 -91 
Q 1428 -91 1123 -41 
Q 819 9 494 109 
L 494 744 
Q 775 591 1075 516 
Q 1375 441 1709 441 
Q 2250 441 2565 725 
Q 2881 1009 2881 1497 
Q 2881 1984 2565 2268 
Q 2250 2553 1709 2553 
Q 1456 2553 1204 2497 
Q 953 2441 691 2322 
L 691 4666 
z
" transform="scale(0.015625)"/>
       </defs>
       <use xlink:href="#DejaVuSans-2212"/>
       <use xlink:href="#DejaVuSans-35" x="83.789062"/>
      </g>
     </g>
    </g>
    <g id="xtick_3">
     <g id="line2d_3">
      <g>
       <use xlink:href="#mbb752ee5eb" x="223.268038" y="290.32" style="stroke: #000000"/>
      </g>
     </g>
     <g id="text_3">
      <!-- 0 -->
      <g transform="translate(219.927725 303.898359) scale(0.105 -0.105)">
       <use xlink:href="#DejaVuSans-30"/>
      </g>
     </g>
    </g>
    <g id="xtick_4">
     <g id="line2d_4">
      <g>
       <use xlink:href="#mbb752ee5eb" x="300.882104" y="290.32" style="stroke: #000000"/>
      </g>
     </g>
     <g id="text_4">
      <!-- 5 -->
      <g transform="translate(297.541791 303.898359) scale(0.105 -0.105)">
       <use xlink:href="#DejaVuSans-35"/>
      </g>
     </g>
    </g>
    <g id="xtick_5">
     <g id="line2d_5">
      <g>
       <use xlink:href="#mbb752ee5eb" x="378.49617" y="290.32" style="stroke: #000000"/>
      </g>
     </g>
     <g id="text_5">
      <!-- 10 -->
      <g transform="translate(371.815545 303.898359) scale(0.105 -0.105)">
       <use xlink:href="#DejaVuSans-31"/>
       <use xlink:href="#DejaVuSans-30" x="63.623047"/>
      </g>
     </g>
    </g>
   </g>
   <g id="matplotlib.axis_2">
    <g id="ytick_1">
     <g id="line2d_6">
      <defs>
       <path id="mb1b595da43" d="M 0 0 
L 3 0 
" style="stroke: #000000"/>
      </defs>
      <g>
       <use xlink:href="#mb1b595da43" x="51.862672" y="267.874161" style="stroke: #000000"/>
      </g>
     </g>
     <g id="text_6">
      <!-- 2.5 -->
      <g transform="translate(20.765719 271.863341) scale(0.105 -0.105)">
       <defs>
        <path id="DejaVuSans-32" d="M 1228 531 
L 3431 531 
L 3431 0 
L 469 0 
L 469 531 
Q 828 903 1448 1529 
Q 2069 2156 2228 2338 
Q 2531 2678 2651 2914 
Q 2772 3150 2772 3378 
Q 2772 3750 2511 3984 
Q 2250 4219 1831 4219 
Q 1534 4219 1204 4116 
Q 875 4013 500 3803 
L 500 4441 
Q 881 4594 1212 4672 
Q 1544 4750 1819 4750 
Q 2544 4750 2975 4387 
Q 3406 4025 3406 3419 
Q 3406 3131 3298 2873 
Q 3191 2616 2906 2266 
Q 2828 2175 2409 1742 
Q 1991 1309 1228 531 
z
" transform="scale(0.015625)"/>
        <path id="DejaVuSans-2e" d="M 684 794 
L 1344 794 
L 1344 0 
L 684 0 
L 684 794 
z
" transform="scale(0.015625)"/>
       </defs>
       <use xlink:href="#DejaVuSans-2212"/>
       <use xlink:href="#DejaVuSans-32" x="83.789062"/>
       <use xlink:href="#DejaVuSans-2e" x="147.412109"/>
       <use xlink:href="#DejaVuSans-35" x="179.199219"/>
      </g>
     </g>
    </g>
    <g id="ytick_2">
     <g id="line2d_7">
      <g>
       <use xlink:href="#mb1b595da43" x="51.862672" y="229.067128" style="stroke: #000000"/>
      </g>
     </g>
     <g id="text_7">
      <!-- 0.0 -->
      <g transform="translate(29.564391 233.056308) scale(0.105 -0.105)">
       <use xlink:href="#DejaVuSans-30"/>
       <use xlink:href="#DejaVuSans-2e" x="63.623047"/>
       <use xlink:href="#DejaVuSans-30" x="95.410156"/>
      </g>
     </g>
    </g>
    <g id="ytick_3">
     <g id="line2d_8">
      <g>
       <use xlink:href="#mb1b595da43" x="51.862672" y="190.260095" style="stroke: #000000"/>
      </g>
     </g>
     <g id="text_8">
      <!-- 2.5 -->
      <g transform="translate(29.564391 194.249275) scale(0.105 -0.105)">
       <use xlink:href="#DejaVuSans-32"/>
       <use xlink:href="#DejaVuSans-2e" x="63.623047"/>
       <use xlink:href="#DejaVuSans-35" x="95.410156"/>
      </g>
     </g>
    </g>
    <g id="ytick_4">
     <g id="line2d_9">
      <g>
       <use xlink:href="#mb1b595da43" x="51.862672" y="151.453062" style="stroke: #000000"/>
      </g>
     </g>
     <g id="text_9">
      <!-- 5.0 -->
      <g transform="translate(29.564391 155.442242) scale(0.105 -0.105)">
       <use xlink:href="#DejaVuSans-35"/>
       <use xlink:href="#DejaVuSans-2e" x="63.623047"/>
       <use xlink:href="#DejaVuSans-30" x="95.410156"/>
      </g>
     </g>
    </g>
    <g id="ytick_5">
     <g id="line2d_10">
      <g>
       <use xlink:href="#mb1b595da43" x="51.862672" y="112.646029" style="stroke: #000000"/>
      </g>
     </g>
     <g id="text_10">
      <!-- 7.5 -->
      <g transform="translate(29.564391 116.635209) scale(0.105 -0.105)">
       <defs>
        <path id="DejaVuSans-37" d="M 525 4666 
L 3525 4666 
L 3525 4397 
L 1831 0 
L 1172 0 
L 2766 4134 
L 525 4134 
L 525 4666 
z
" transform="scale(0.015625)"/>
       </defs>
       <use xlink:href="#DejaVuSans-37"/>
       <use xlink:href="#DejaVuSans-2e" x="63.623047"/>
       <use xlink:href="#DejaVuSans-35" x="95.410156"/>
      </g>
     </g>
    </g>
    <g id="ytick_6">
     <g id="line2d_11">
      <g>
       <use xlink:href="#mb1b595da43" x="51.862672" y="73.838996" style="stroke: #000000"/>
      </g>
     </g>
     <g id="text_11">
      <!-- 10.0 -->
      <g transform="translate(22.883766 77.828176) scale(0.105 -0.105)">
       <use xlink:href="#DejaVuSans-31"/>
       <use xlink:href="#DejaVuSans-30" x="63.623047"/>
       <use xlink:href="#DejaVuSans-2e" x="127.246094"/>
       <use xlink:href="#DejaVuSans-30" x="159.033203"/>
      </g>
     </g>
    </g>
    <g id="ytick_7">
     <g id="line2d_12">
      <g>
       <use xlink:href="#mb1b595da43" x="51.862672" y="35.031963" style="stroke: #000000"/>
      </g>
     </g>
     <g id="text_12">
      <!-- 12.5 -->
      <g transform="translate(22.883766 39.021143) scale(0.105 -0.105)">
       <use xlink:href="#DejaVuSans-31"/>
       <use xlink:href="#DejaVuSans-32" x="63.623047"/>
       <use xlink:href="#DejaVuSans-2e" x="127.246094"/>
       <use xlink:href="#DejaVuSans-35" x="159.033203"/>
      </g>
     </g>
    </g>
   </g>
   <g id="patch_3">
    <path d="M 51.862672 290.32 
L 51.862672 10.8 
" style="fill: none; stroke: #000000; stroke-width: 0.8; stroke-linejoin: miter; stroke-linecap: square"/>
   </g>
   <g id="patch_4">
    <path d="M 423.696118 290.32 
L 423.696118 10.8 
" style="fill: none; stroke: #000000; stroke-width: 0.8; stroke-linejoin: miter; stroke-linecap: square"/>
   </g>
   <g id="patch_5">
    <path d="M 51.862672 290.32 
L 423.696118 290.32 
" style="fill: none; stroke: #000000; stroke-width: 0.8; stroke-linejoin: miter; stroke-linecap: square"/>
   </g>
   <g id="patch_6">
    <path d="M 51.862672 10.8 
L 423.696118 10.8 
" style="fill: none; stroke: #000000; stroke-width: 0.8; stroke-linejoin: miter; stroke-linecap: square"/>
   </g>
  </g>
 </g>
 <defs>
  <clipPath id="pf01c4d5a5c">
   <rect x="51.862672" y="10.8" width="371.833446" height="279.52"/>
  </clipPath>
 </defs>
</svg>
