<?xml version="1.0" encoding="utf-8" standalone="no"?>
<!DOCTYPE svg PUBLIC "-//W3C//DTD SVG 1.1//EN"
  "http://www.w3.org/Graphics/SVG/1.1/DTD/svg11.dtd">
<svg xmlns:xlink="http://www.w3.org/1999/xlink" width="460.8pt" height="316.8pt" viewBox="0 0 460.8 316.8" xmlns="http://www.w3.org/2000/svg" version="1.1">
 <metadata>
  <rdf:RDF xmlns:dc="http://purl.org/dc/elements/1.1/" xmlns:cc="http://creativecommons.org/ns#" xmlns:rdf="http://www.w3.org/1999/02/22-rdf-syntax-ns#">
   <cc:Work>
    <dc:type rdf:resource="http://purl.org/dc/dcmitype/StillImage"/>
    <dc:date>2024-01-11T15:54:45.474293</dc:date>
    <dc:format>image/svg+xml</dc:format>
    <dc:creator>
     <cc:Agent>
      <dc:title>Matplotlib v3.7.2, https://matplotlib.org/</dc:title>
     </cc:Agent>
    </dc:creator>
   </cc:Work>
  </rdf:RDF>
 </metadata>
 <defs>
  <style type="text/css">*{stroke-linejoin: round; stroke-linecap: butt}</style>
 </defs>
 <g id="figure_1">
  <g id="patch_1">
   <path d="M 0 316.8 
L 460.8 316.8 
L 460.8 0 
L 0 0 
z
" style="fill: #ffffff"/>
  </g>
  <g id="axes_1">
   <g id="patch_2">
    <path d="M 35.797535 290.54169 
L 446.082465 290.54169 
L 446.082465 10.8 
L 35.797535 10.8 
z
" style="fill: #ffffff"/>
   </g>
   <g id="PatchCollection_1">
    <path d="M 210.437143 216.167176 
L 335.723733 216.167176 
L 335.723733 163.96443 
L 210.437143 163.96443 
z
" clip-path="url(#pb15d70b57f)" style="fill: #ffffff; stroke: #0000ff; stroke-width: 3"/>
    <path d="M 78.886224 209.902846 
L 170.89291 176.415151 
L 157.023619 138.309588 
L 65.016933 171.797283 
z
" clip-path="url(#pb15d70b57f)" style="fill: #ff0000; stroke: #ff0000; stroke-width: 2"/>
    <path d="M 352.428612 237.048274 
L 427.43315 174.111994 
L 401.36741 143.048055 
L 326.362872 205.984335 
z
" clip-path="url(#pb15d70b57f)" style="fill: #ff0000; stroke: #ff0000; stroke-width: 2"/>
    <path d="M 252.19934 140.995222 
L 301.155075 56.201401 
L 266.036798 35.925855 
L 217.081063 120.719675 
z
" clip-path="url(#pb15d70b57f)" style="fill: #ff0000; stroke: #ff0000; stroke-width: 2"/>
    <path d="M 179.115496 262.105592 
L 276.892782 267.229883 
L 279.015062 226.734363 
L 181.237776 221.610073 
z
" clip-path="url(#pb15d70b57f)" style="fill: #ff0000; stroke: #ff0000; stroke-width: 2"/>
   </g>
   <g id="PatchCollection_2">
    <path d="M 111.043115 111.156132 
L 208.954585 111.156132 
L 208.954585 70.605039 
L 111.043115 70.605039 
L 111.043115 111.156132 
z
" clip-path="url(#pb15d70b57f)" style="fill: none; stroke: #000000; stroke-width: 0.5"/>
    <path d="M 106.411569 116.424763 
L 204.115258 110.049414 
L 201.474839 69.584376 
L 103.771149 75.959725 
L 106.411569 116.424763 
z
" clip-path="url(#pb15d70b57f)" style="fill: none; stroke: #000000; stroke-width: 0.5"/>
    <path d="M 101.461224 120.2524 
L 198.806842 109.741142 
L 194.453491 69.424403 
L 97.107873 79.935661 
L 101.461224 120.2524 
z
" clip-path="url(#pb15d70b57f)" style="fill: none; stroke: #000000; stroke-width: 0.5"/>
    <path d="M 93.656482 115.709346 
L 191.479942 111.55886 
L 189.760974 71.044217 
L 91.937513 75.194703 
L 93.656482 115.709346 
z
" clip-path="url(#pb15d70b57f)" style="fill: none; stroke: #000000; stroke-width: 0.5"/>
    <path d="M 86.164097 110.667747 
L 184.050215 112.895687 
L 184.972941 72.355094 
L 87.086822 70.127154 
L 86.164097 110.667747 
z
" clip-path="url(#pb15d70b57f)" style="fill: none; stroke: #000000; stroke-width: 0.5"/>
    <path d="M 79.015791 105.149079 
L 176.549114 113.745989 
L 180.109617 73.35151 
L 82.576294 64.7546 
L 79.015791 105.149079 
z
" clip-path="url(#pb15d70b57f)" style="fill: none; stroke: #000000; stroke-width: 0.5"/>
    <path d="M 72.242061 99.176547 
L 169.008626 114.105978 
L 175.191811 74.02906 
L 78.425246 59.099629 
L 72.242061 99.176547 
z
" clip-path="url(#pb15d70b57f)" style="fill: none; stroke: #000000; stroke-width: 0.5"/>
    <path d="M 65.871556 92.775614 
L 161.460674 113.974116 
L 170.240262 74.38485 
L 74.651144 53.186348 
L 65.871556 92.775614 
z
" clip-path="url(#pb15d70b57f)" style="fill: none; stroke: #000000; stroke-width: 0.5"/>
    <path d="M 59.931452 85.97351 
L 153.937397 113.351205 
L 165.276166 74.417627 
L 71.27022 47.039932 
L 59.931452 85.97351 
z
" clip-path="url(#pb15d70b57f)" style="fill: none; stroke: #000000; stroke-width: 0.5"/>
    <path d="M 54.44685 78.799081 
L 146.470665 112.239678 
L 160.320449 74.127021 
L 68.296635 40.686424 
L 54.44685 78.799081 
z
" clip-path="url(#pb15d70b57f)" style="fill: none; stroke: #000000; stroke-width: 0.5"/>
    <path d="M 55.183703 73.691322 
L 144.834781 113.052982 
L 161.136837 75.92302 
L 71.48576 36.56136 
L 55.183703 73.691322 
z
" clip-path="url(#pb15d70b57f)" style="fill: none; stroke: #000000; stroke-width: 0.5"/>
    <path d="M 61.721914 71.149554 
L 148.619792 116.265127 
L 167.304893 80.275432 
L 80.407016 35.159859 
L 61.721914 71.149554 
z
" clip-path="url(#pb15d70b57f)" style="fill: none; stroke: #000000; stroke-width: 0.5"/>
    <path d="M 68.411997 69.038812 
L 152.187812 119.716902 
L 173.17669 85.020243 
L 89.400875 34.342153 
L 68.411997 69.038812 
z
" clip-path="url(#pb15d70b57f)" style="fill: none; stroke: #000000; stroke-width: 0.5"/>
    <path d="M 75.224994 67.36819 
L 155.523232 123.393622 
L 178.72677 90.13724 
L 98.428533 34.111808 
L 75.224994 67.36819 
z
" clip-path="url(#pb15d70b57f)" style="fill: none; stroke: #000000; stroke-width: 0.5"/>
    <path d="M 82.132524 66.144591 
L 158.612321 127.27966 
L 183.93207 95.604726 
L 107.452274 34.469657 
L 82.132524 66.144591 
z
" clip-path="url(#pb15d70b57f)" style="fill: none; stroke: #000000; stroke-width: 0.5"/>
    <path d="M 89.104931 65.373668 
L 161.441748 131.358824 
L 188.770213 101.39975 
L 116.433396 35.414594 
L 89.104931 65.373668 
z
" clip-path="url(#pb15d70b57f)" style="fill: none; stroke: #000000; stroke-width: 0.5"/>
    <path d="M 96.112819 65.058092 
L 163.999575 135.613349 
L 193.220797 107.497316 
L 125.334041 36.942059 
L 96.112819 65.058092 
z
" clip-path="url(#pb15d70b57f)" style="fill: none; stroke: #000000; stroke-width: 0.5"/>
    <path d="M 103.126187 65.199511 
L 166.274824 140.025346 
L 197.264752 113.871656 
L 134.116115 39.045821 
L 103.126187 65.199511 
z
" clip-path="url(#pb15d70b57f)" style="fill: none; stroke: #000000; stroke-width: 0.5"/>
    <path d="M 105.110203 72.821477 
L 171.534975 144.754819 
L 201.326946 117.244282 
L 134.902174 45.31094 
L 105.110203 72.821477 
z
" clip-path="url(#pb15d70b57f)" style="fill: none; stroke: #000000; stroke-width: 0.5"/>
    <path d="M 106.692001 81.712583 
L 177.659602 149.168166 
L 205.59706 119.776167 
L 134.629459 52.320585 
L 106.692001 81.712583 
z
" clip-path="url(#pb15d70b57f)" style="fill: none; stroke: #000000; stroke-width: 0.5"/>
    <path d="M 108.849161 90.48176 
L 184.058453 153.173213 
L 210.022796 122.024473 
L 134.813504 59.333019 
L 108.849161 90.48176 
z
" clip-path="url(#pb15d70b57f)" style="fill: none; stroke: #000000; stroke-width: 0.5"/>
    <path d="M 111.573006 99.092007 
L 190.704719 156.753328 
L 214.585778 123.980074 
L 135.454065 66.318753 
L 111.573006 99.092007 
z
" clip-path="url(#pb15d70b57f)" style="fill: none; stroke: #000000; stroke-width: 0.5"/>
    <path d="M 116.458889 103.496059 
L 196.1294 160.410607 
L 219.701175 127.414204 
L 140.030664 70.499656 
L 116.458889 103.496059 
z
" clip-path="url(#pb15d70b57f)" style="fill: none; stroke: #000000; stroke-width: 0.5"/>
    <path d="M 121.624623 107.186375 
L 201.295133 164.100923 
L 224.866908 131.104521 
L 145.196397 74.189973 
L 121.624623 107.186375 
z
" clip-path="url(#pb15d70b57f)" style="fill: none; stroke: #000000; stroke-width: 0.5"/>
    <path d="M 126.790356 110.876483 
L 206.460866 167.791031 
L 230.032641 134.794628 
L 150.362131 77.88008 
L 126.790356 110.876483 
z
" clip-path="url(#pb15d70b57f)" style="fill: none; stroke: #000000; stroke-width: 0.5"/>
    <path d="M 131.95611 114.566799 
L 211.62662 171.481347 
L 235.198395 138.484945 
L 155.527885 81.570397 
L 131.95611 114.566799 
z
" clip-path="url(#pb15d70b57f)" style="fill: none; stroke: #000000; stroke-width: 0.5"/>
    <path d="M 137.121843 118.257116 
L 216.792353 175.171664 
L 240.364128 142.175261 
L 160.693618 85.260714 
L 137.121843 118.257116 
z
" clip-path="url(#pb15d70b57f)" style="fill: none; stroke: #000000; stroke-width: 0.5"/>
    <path d="M 142.287576 121.947432 
L 221.958086 178.86198 
L 245.529861 145.865578 
L 165.859351 88.95103 
L 142.287576 121.947432 
z
" clip-path="url(#pb15d70b57f)" style="fill: none; stroke: #000000; stroke-width: 0.5"/>
    <path d="M 147.453309 125.63754 
L 227.12382 182.552088 
L 250.695594 149.555686 
L 171.025084 92.641138 
L 147.453309 125.63754 
z
" clip-path="url(#pb15d70b57f)" style="fill: none; stroke: #000000; stroke-width: 0.5"/>
    <path d="M 152.619042 129.327857 
L 232.289553 186.242405 
L 255.861327 153.246002 
L 176.190817 96.331454 
L 152.619042 129.327857 
z
" clip-path="url(#pb15d70b57f)" style="fill: none; stroke: #000000; stroke-width: 0.5"/>
    <path d="M 157.784859 133.018173 
L 237.455369 189.932721 
L 261.027144 156.936319 
L 181.356634 100.021771 
L 157.784859 133.018173 
z
" clip-path="url(#pb15d70b57f)" style="fill: none; stroke: #000000; stroke-width: 0.5"/>
    <path d="M 162.950425 136.70849 
L 242.620935 193.623038 
L 266.19271 160.626635 
L 186.5222 103.712087 
L 162.950425 136.70849 
z
" clip-path="url(#pb15d70b57f)" style="fill: none; stroke: #000000; stroke-width: 0.5"/>
    <path d="M 168.1162 140.398597 
L 247.78671 197.313145 
L 271.358485 164.316743 
L 191.687975 107.402195 
L 168.1162 140.398597 
z
" clip-path="url(#pb15d70b57f)" style="fill: none; stroke: #000000; stroke-width: 0.5"/>
    <path d="M 172.93487 145.012419 
L 253.296588 200.946757 
L 276.462399 167.664084 
L 196.10068 111.729745 
L 172.93487 145.012419 
z
" clip-path="url(#pb15d70b57f)" style="fill: none; stroke: #000000; stroke-width: 0.5"/>
    <path d="M 176.532828 153.657034 
L 260.487367 204.038492 
L 281.353392 169.267813 
L 197.398853 118.886355 
L 176.532828 153.657034 
z
" clip-path="url(#pb15d70b57f)" style="fill: none; stroke: #000000; stroke-width: 0.5"/>
    <path d="M 180.706075 162.039153 
L 267.870359 206.637847 
L 286.34139 170.537817 
L 199.177105 125.939123 
L 180.706075 162.039153 
z
" clip-path="url(#pb15d70b57f)" style="fill: none; stroke: #000000; stroke-width: 0.5"/>
    <path d="M 185.435832 170.120387 
L 275.412141 208.732817 
L 291.403896 171.468157 
L 201.427587 132.855727 
L 185.435832 170.120387 
z
" clip-path="url(#pb15d70b57f)" style="fill: none; stroke: #000000; stroke-width: 0.5"/>
    <path d="M 190.700214 177.863856 
L 283.077996 210.313838 
L 296.517506 172.054581 
L 204.139724 139.604599 
L 190.700214 177.863856 
z
" clip-path="url(#pb15d70b57f)" style="fill: none; stroke: #000000; stroke-width: 0.5"/>
    <path d="M 196.475456 185.234301 
L 290.833201 211.37377 
L 301.659144 172.29449 
L 207.301399 146.155022 
L 196.475456 185.234301 
z
" clip-path="url(#pb15d70b57f)" style="fill: none; stroke: #000000; stroke-width: 0.5"/>
    <path d="M 202.735277 192.197994 
L 298.642442 211.907677 
L 306.80542 172.186689 
L 210.898255 152.477005 
L 202.735277 192.197994 
z
" clip-path="url(#pb15d70b57f)" style="fill: none; stroke: #000000; stroke-width: 0.5"/>
    <path d="M 209.450663 198.723261 
L 306.469635 211.913227 
L 311.932401 171.731772 
L 214.91343 158.541806 
L 209.450663 198.723261 
z
" clip-path="url(#pb15d70b57f)" style="fill: none; stroke: #000000; stroke-width: 0.5"/>
    <path d="M 216.591334 204.780187 
L 314.279424 211.39025 
L 317.017054 170.931672 
L 219.328963 164.321609 
L 216.591334 204.780187 
z
" clip-path="url(#pb15d70b57f)" style="fill: none; stroke: #000000; stroke-width: 0.5"/>
    <path d="M 224.124703 210.341349 
L 322.036173 210.341349 
L 322.036173 169.790256 
L 224.124703 169.790256 
L 224.124703 210.341349 
z
" clip-path="url(#pb15d70b57f)" style="fill: none; stroke: #000000; stroke-width: 0.5"/>
   </g>
   <g id="PatchCollection_3">
    <path d="M 215.13539 90.880586 
L 210.437143 92.446668 
L 210.437143 91.402613 
L 189.556045 91.402613 
L 189.556045 90.358558 
L 210.437143 90.358558 
L 210.437143 89.314503 
z
" clip-path="url(#pb15d70b57f)" style="fill: #ff0000; stroke: #ff0000; stroke-width: 0.24"/>
    <path d="M 208.962737 89.414442 
L 204.376433 91.28312 
L 204.308451 90.241281 
L 183.471665 91.60092 
L 183.403683 90.559081 
L 204.240469 89.199441 
L 204.172487 88.157602 
z
" clip-path="url(#pb15d70b57f)" style="fill: #ff0000; stroke: #ff0000; stroke-width: 0.24"/>
    <path d="M 202.775252 88.919234 
L 198.272283 90.980645 
L 198.160199 89.942624 
L 177.399777 92.184308 
L 177.287693 91.146287 
L 198.048114 88.904603 
L 197.93603 87.866581 
z
" clip-path="url(#pb15d70b57f)" style="fill: #ff0000; stroke: #ff0000; stroke-width: 0.24"/>
    <path d="M 196.795707 91.039533 
L 192.16807 92.803367 
L 192.123812 91.760251 
L 171.261483 92.645405 
L 171.217226 91.602288 
L 192.079554 90.717134 
L 192.035297 89.674018 
z
" clip-path="url(#pb15d70b57f)" style="fill: #ff0000; stroke: #ff0000; stroke-width: 0.24"/>
    <path d="M 190.690783 92.766033 
L 185.958117 94.224803 
L 185.981874 93.181018 
L 165.106182 92.705876 
L 165.129939 91.662092 
L 186.005631 92.137233 
L 186.029388 91.093449 
z
" clip-path="url(#pb15d70b57f)" style="fill: #ff0000; stroke: #ff0000; stroke-width: 0.24"/>
    <path d="M 184.4863 94.091442 
L 179.668692 95.238956 
L 179.760363 94.198933 
L 158.95991 92.365513 
L 159.051581 91.32549 
L 179.852034 93.158911 
L 179.943705 92.118888 
z
" clip-path="url(#pb15d70b57f)" style="fill: #ff0000; stroke: #ff0000; stroke-width: 0.24"/>
    <path d="M 178.20875 95.009961 
L 173.326646 95.841348 
L 173.485842 94.809501 
L 152.848912 91.625575 
L 153.008109 90.593728 
L 173.645039 93.777655 
L 173.804235 92.745808 
z
" clip-path="url(#pb15d70b57f)" style="fill: #ff0000; stroke: #ff0000; stroke-width: 0.24"/>
    <path d="M 171.884671 95.517669 
L 166.958794 96.029403 
L 167.184839 95.010112 
L 146.799017 90.489212 
L 147.025062 89.469921 
L 167.410884 93.990821 
L 167.636929 92.97153 
z
" clip-path="url(#pb15d70b57f)" style="fill: #ff0000; stroke: #ff0000; stroke-width: 0.24"/>
    <path d="M 165.541045 95.612673 
L 160.5923 95.802578 
L 160.884235 94.800169 
L 140.836049 88.961462 
L 141.127984 87.959053 
L 161.17617 93.79776 
L 161.468106 92.79535 
z
" clip-path="url(#pb15d70b57f)" style="fill: #ff0000; stroke: #ff0000; stroke-width: 0.24"/>
    <path d="M 159.204695 95.294337 
L 154.254087 95.161611 
L 154.610673 94.180338 
L 134.985206 87.048626 
L 135.341791 86.067353 
L 154.967258 93.199065 
L 155.323844 92.217791 
z
" clip-path="url(#pb15d70b57f)" style="fill: #ff0000; stroke: #ff0000; stroke-width: 0.24"/>
    <path d="M 158.645165 96.972764 
L 153.713705 96.517967 
L 154.133428 95.561995 
L 135.013983 87.167527 
L 135.433706 86.211554 
L 154.553151 94.606022 
L 154.972875 93.65005 
z
" clip-path="url(#pb15d70b57f)" style="fill: #ff0000; stroke: #ff0000; stroke-width: 0.24"/>
    <path d="M 163.447898 101.118266 
L 158.556516 100.343333 
L 159.037595 99.416718 
L 140.505312 89.795142 
L 140.986391 88.868528 
L 159.518674 98.490104 
L 159.999753 97.56349 
z
" clip-path="url(#pb15d70b57f)" style="fill: #ff0000; stroke: #ff0000; stroke-width: 0.24"/>
    <path d="M 167.970722 105.567701 
L 163.140179 104.475915 
L 163.680573 103.582592 
L 145.814116 92.774725 
L 146.354509 91.881402 
L 164.220966 102.689269 
L 164.761359 101.795947 
z
" clip-path="url(#pb15d70b57f)" style="fill: #ff0000; stroke: #ff0000; stroke-width: 0.24"/>
    <path d="M 172.193945 110.302119 
L 167.444742 108.898119 
L 168.042155 108.041879 
L 150.917345 96.09361 
L 151.514758 95.237369 
L 168.639569 107.185638 
L 169.236982 106.329397 
z
" clip-path="url(#pb15d70b57f)" style="fill: #ff0000; stroke: #ff0000; stroke-width: 0.24"/>
    <path d="M 176.100095 115.301434 
L 171.452391 113.591175 
L 172.10429 112.775651 
L 155.793819 99.737675 
L 156.445718 98.922152 
L 172.756189 111.960127 
L 173.408088 111.144604 
z
" clip-path="url(#pb15d70b57f)" style="fill: #ff0000; stroke: #ff0000; stroke-width: 0.24"/>
    <path d="M 179.672349 120.544696 
L 175.145867 118.535441 
L 175.849484 117.764095 
L 160.422566 103.691765 
L 161.126183 102.920419 
L 176.5531 116.992749 
L 177.256717 116.221403 
z
" clip-path="url(#pb15d70b57f)" style="fill: #ff0000; stroke: #ff0000; stroke-width: 0.24"/>
    <path d="M 182.895637 126.009236 
L 178.509592 123.709508 
L 179.261941 122.985614 
L 164.784066 107.938641 
L 165.536415 107.214747 
L 180.01429 122.261721 
L 180.766638 121.537827 
z
" clip-path="url(#pb15d70b57f)" style="fill: #ff0000; stroke: #ff0000; stroke-width: 0.24"/>
    <path d="M 185.756138 131.671992 
L 181.529143 129.091556 
L 182.327029 128.418186 
L 168.85963 112.460447 
L 169.657517 111.787077 
L 183.124916 127.744816 
L 183.922803 127.071446 
z
" clip-path="url(#pb15d70b57f)" style="fill: #ff0000; stroke: #ff0000; stroke-width: 0.24"/>
    <path d="M 190.624122 135.540448 
L 186.286187 133.151208 
L 187.053231 132.442904 
L 172.887146 117.102034 
L 173.654189 116.393729 
L 187.820274 131.7346 
L 188.587318 131.026296 
z
" clip-path="url(#pb15d70b57f)" style="fill: #ff0000; stroke: #ff0000; stroke-width: 0.24"/>
    <path d="M 196.108264 138.730399 
L 191.623965 136.628685 
L 192.343261 135.87194 
L 177.20835 121.486019 
L 177.927646 120.729273 
L 193.062557 135.115194 
L 193.781853 134.358448 
z
" clip-path="url(#pb15d70b57f)" style="fill: #ff0000; stroke: #ff0000; stroke-width: 0.24"/>
    <path d="M 201.788322 141.556333 
L 197.176688 139.751069 
L 197.845183 138.949094 
L 181.805667 125.579195 
L 182.474162 124.777219 
L 198.513678 138.147118 
L 199.182173 137.345142 
z
" clip-path="url(#pb15d70b57f)" style="fill: #ff0000; stroke: #ff0000; stroke-width: 0.24"/>
    <path d="M 207.640554 144.006657 
L 202.921161 142.505501 
L 203.536018 141.661699 
L 186.659987 129.364553 
L 187.274844 128.520751 
L 204.150876 140.817898 
L 204.765733 139.974096 
z
" clip-path="url(#pb15d70b57f)" style="fill: #ff0000; stroke: #ff0000; stroke-width: 0.24"/>
    <path d="M 212.944605 147.50522 
L 208.211302 146.048516 
L 208.818197 145.198969 
L 191.827258 133.061083 
L 192.434152 132.211536 
L 209.425091 144.349422 
L 210.031985 143.499875 
z
" clip-path="url(#pb15d70b57f)" style="fill: #ff0000; stroke: #ff0000; stroke-width: 0.24"/>
    <path d="M 218.110338 151.195536 
L 213.377035 149.738832 
L 213.98393 148.889285 
L 196.992991 136.751399 
L 197.599886 135.901852 
L 214.590824 148.039738 
L 215.197718 147.190192 
z
" clip-path="url(#pb15d70b57f)" style="fill: #ff0000; stroke: #ff0000; stroke-width: 0.24"/>
    <path d="M 223.276071 154.885644 
L 218.542769 153.42894 
L 219.149663 152.579393 
L 202.158724 140.441507 
L 202.765619 139.59196 
L 219.756557 151.729846 
L 220.363452 150.880299 
z
" clip-path="url(#pb15d70b57f)" style="fill: #ff0000; stroke: #ff0000; stroke-width: 0.24"/>
    <path d="M 228.441825 158.57596 
L 223.708523 157.119256 
L 224.315417 156.26971 
L 207.324479 144.131823 
L 207.931373 143.282277 
L 224.922311 155.420163 
L 225.529206 154.570616 
z
" clip-path="url(#pb15d70b57f)" style="fill: #ff0000; stroke: #ff0000; stroke-width: 0.24"/>
    <path d="M 233.607558 162.266277 
L 228.874256 160.809573 
L 229.48115 159.960026 
L 212.490212 147.82214 
L 213.097106 146.972593 
L 230.088044 159.110479 
L 230.694939 158.260932 
z
" clip-path="url(#pb15d70b57f)" style="fill: #ff0000; stroke: #ff0000; stroke-width: 0.24"/>
    <path d="M 238.773292 165.956593 
L 234.039989 164.499889 
L 234.646883 163.650343 
L 217.655945 151.512456 
L 218.262839 150.66291 
L 235.253778 162.800796 
L 235.860672 161.951249 
z
" clip-path="url(#pb15d70b57f)" style="fill: #ff0000; stroke: #ff0000; stroke-width: 0.24"/>
    <path d="M 243.939025 169.646701 
L 239.205722 168.189997 
L 239.812616 167.34045 
L 222.821678 155.202564 
L 223.428572 154.353017 
L 240.419511 166.490903 
L 241.026405 165.641356 
z
" clip-path="url(#pb15d70b57f)" style="fill: #ff0000; stroke: #ff0000; stroke-width: 0.24"/>
    <path d="M 249.104758 173.337018 
L 244.371455 171.880314 
L 244.97835 171.030767 
L 227.987411 158.892881 
L 228.594305 158.043334 
L 245.585244 170.18122 
L 246.192138 169.331673 
z
" clip-path="url(#pb15d70b57f)" style="fill: #ff0000; stroke: #ff0000; stroke-width: 0.24"/>
    <path d="M 254.270575 177.027334 
L 249.537272 175.57063 
L 250.144166 174.721083 
L 233.153228 162.583197 
L 233.760122 161.73365 
L 250.751061 173.871536 
L 251.357955 173.021989 
z
" clip-path="url(#pb15d70b57f)" style="fill: #ff0000; stroke: #ff0000; stroke-width: 0.24"/>
    <path d="M 259.436141 180.717651 
L 254.702838 179.260947 
L 255.309732 178.4114 
L 238.318794 166.273514 
L 238.925688 165.423967 
L 255.916627 177.561853 
L 256.523521 176.712306 
z
" clip-path="url(#pb15d70b57f)" style="fill: #ff0000; stroke: #ff0000; stroke-width: 0.24"/>
    <path d="M 264.601916 184.407758 
L 259.868613 182.951054 
L 260.475507 182.101507 
L 243.484569 169.963621 
L 244.091463 169.114074 
L 261.082402 181.251961 
L 261.689296 180.402414 
z
" clip-path="url(#pb15d70b57f)" style="fill: #ff0000; stroke: #ff0000; stroke-width: 0.24"/>
    <path d="M 269.952445 187.836358 
L 265.201653 186.437744 
L 265.798095 185.580827 
L 248.659746 173.651985 
L 249.256188 172.795068 
L 266.394537 184.723909 
L 266.990979 183.866992 
z
" clip-path="url(#pb15d70b57f)" style="fill: #ff0000; stroke: #ff0000; stroke-width: 0.24"/>
    <path d="M 276.220133 189.833556 
L 271.385759 188.758863 
L 271.922989 187.863634 
L 254.018417 177.119028 
L 254.555647 176.223799 
L 272.46022 186.968405 
L 272.99745 186.073177 
z
" clip-path="url(#pb15d70b57f)" style="fill: #ff0000; stroke: #ff0000; stroke-width: 0.24"/>
    <path d="M 282.608248 191.40319 
L 277.71235 190.65732 
L 278.187917 189.727865 
L 259.598818 180.216521 
L 260.074385 179.287066 
L 278.663484 188.79841 
L 279.139051 187.868955 
z
" clip-path="url(#pb15d70b57f)" style="fill: #ff0000; stroke: #ff0000; stroke-width: 0.24"/>
    <path d="M 289.087905 192.537953 
L 284.152823 192.12431 
L 284.564557 191.16487 
L 265.375751 182.930186 
L 265.787485 181.970746 
L 284.976291 190.205429 
L 285.388025 189.245989 
z
" clip-path="url(#pb15d70b57f)" style="fill: #ff0000; stroke: #ff0000; stroke-width: 0.24"/>
    <path d="M 295.629234 193.232662 
L 290.677485 193.153133 
L 291.023508 192.168085 
L 271.322552 185.247637 
L 271.668574 184.262589 
L 291.36953 191.183038 
L 291.715553 190.19799 
z
" clip-path="url(#pb15d70b57f)" style="fill: #ff0000; stroke: #ff0000; stroke-width: 0.24"/>
    <path d="M 302.202644 193.484222 
L 297.256823 193.73917 
L 297.535555 192.733009 
L 277.412342 187.158373 
L 277.691074 186.152213 
L 297.814287 191.726849 
L 298.093019 190.720688 
z
" clip-path="url(#pb15d70b57f)" style="fill: #ff0000; stroke: #ff0000; stroke-width: 0.24"/>
    <path d="M 308.778211 193.291386 
L 303.860886 193.879647 
L 304.071056 192.856965 
L 283.617405 188.653577 
L 283.827575 187.630895 
L 304.281225 191.834282 
L 304.491394 190.8116 
z
" clip-path="url(#pb15d70b57f)" style="fill: #ff0000; stroke: #ff0000; stroke-width: 0.24"/>
    <path d="M 315.325483 192.655135 
L 310.45909 193.574026 
L 310.599738 192.539488 
L 289.908978 189.726529 
L 290.049626 188.691991 
L 310.740386 191.50495 
L 310.881034 190.470412 
z
" clip-path="url(#pb15d70b57f)" style="fill: #ff0000; stroke: #ff0000; stroke-width: 0.24"/>
    <path d="M 321.814943 191.578231 
L 317.021687 192.823559 
L 317.092172 191.781886 
L 296.258713 190.37219 
L 296.329198 189.330517 
L 317.162657 190.740213 
L 317.233142 189.69854 
z
" clip-path="url(#pb15d70b57f)" style="fill: #ff0000; stroke: #ff0000; stroke-width: 0.24"/>
    <path d="M 328.216979 190.065803 
L 323.518731 191.631885 
L 323.518731 190.58783 
L 302.637633 190.58783 
L 302.637633 189.543775 
L 323.518731 189.543775 
L 323.518731 188.49972 
z
" clip-path="url(#pb15d70b57f)" style="fill: #ff0000; stroke: #ff0000; stroke-width: 0.24"/>
   </g>
   <g id="matplotlib.axis_1">
    <g id="xtick_1">
     <g id="line2d_1">
      <defs>
       <path id="m5ee8137a87" d="M 0 0 
L 0 -3 
" style="stroke: #000000"/>
      </defs>
      <g>
       <use xlink:href="#m5ee8137a87" x="53.828906" y="290.54169" style="stroke: #000000"/>
      </g>
     </g>
     <g id="text_1">
      <!-- −7.5 -->
      <g transform="translate(41.080429 304.120049) scale(0.105 -0.105)">
       <defs>
        <path id="DejaVuSans-2212" d="M 678 2272 
L 4684 2272 
L 4684 1741 
L 678 1741 
L 678 2272 
z
" transform="scale(0.015625)"/>
        <path id="DejaVuSans-37" d="M 525 4666 
L 3525 4666 
L 3525 4397 
L 1831 0 
L 1172 0 
L 2766 4134 
L 525 4134 
L 525 4666 
z
" transform="scale(0.015625)"/>
        <path id="DejaVuSans-2e" d="M 684 794 
L 1344 794 
L 1344 0 
L 684 0 
L 684 794 
z
" transform="scale(0.015625)"/>
        <path id="DejaVuSans-35" d="M 691 4666 
L 3169 4666 
L 3169 4134 
L 1269 4134 
L 1269 2991 
Q 1406 3038 1543 3061 
Q 1681 3084 1819 3084 
Q 2600 3084 3056 2656 
Q 3513 2228 3513 1497 
Q 3513 744 3044 326 
Q 2575 -91 1722 -91 
Q 1428 -91 1123 -41 
Q 819 9 494 109 
L 494 744 
Q 775 591 1075 516 
Q 1375 441 1709 441 
Q 2250 441 2565 725 
Q 2881 1009 2881 1497 
Q 2881 1984 2565 2268 
Q 2250 2553 1709 2553 
Q 1456 2553 1204 2497 
Q 953 2441 691 2322 
L 691 4666 
z
" transform="scale(0.015625)"/>
       </defs>
       <use xlink:href="#DejaVuSans-2212"/>
       <use xlink:href="#DejaVuSans-37" x="83.789062"/>
       <use xlink:href="#DejaVuSans-2e" x="147.412109"/>
       <use xlink:href="#DejaVuSans-35" x="179.199219"/>
      </g>
     </g>
    </g>
    <g id="xtick_2">
     <g id="line2d_2">
      <g>
       <use xlink:href="#m5ee8137a87" x="106.031652" y="290.54169" style="stroke: #000000"/>
      </g>
     </g>
     <g id="text_2">
      <!-- −5.0 -->
      <g transform="translate(93.283175 304.120049) scale(0.105 -0.105)">
       <defs>
        <path id="DejaVuSans-30" d="M 2034 4250 
Q 1547 4250 1301 3770 
Q 1056 3291 1056 2328 
Q 1056 1369 1301 889 
Q 1547 409 2034 409 
Q 2525 409 2770 889 
Q 3016 1369 3016 2328 
Q 3016 3291 2770 3770 
Q 2525 4250 2034 4250 
z
M 2034 4750 
Q 2819 4750 3233 4129 
Q 3647 3509 3647 2328 
Q 3647 1150 3233 529 
Q 2819 -91 2034 -91 
Q 1250 -91 836 529 
Q 422 1150 422 2328 
Q 422 3509 836 4129 
Q 1250 4750 2034 4750 
z
" transform="scale(0.015625)"/>
       </defs>
       <use xlink:href="#DejaVuSans-2212"/>
       <use xlink:href="#DejaVuSans-35" x="83.789062"/>
       <use xlink:href="#DejaVuSans-2e" x="147.412109"/>
       <use xlink:href="#DejaVuSans-30" x="179.199219"/>
      </g>
     </g>
    </g>
    <g id="xtick_3">
     <g id="line2d_3">
      <g>
       <use xlink:href="#m5ee8137a87" x="158.234398" y="290.54169" style="stroke: #000000"/>
      </g>
     </g>
     <g id="text_3">
      <!-- −2.5 -->
      <g transform="translate(145.485921 304.120049) scale(0.105 -0.105)">
       <defs>
        <path id="DejaVuSans-32" d="M 1228 531 
L 3431 531 
L 3431 0 
L 469 0 
L 469 531 
Q 828 903 1448 1529 
Q 2069 2156 2228 2338 
Q 2531 2678 2651 2914 
Q 2772 3150 2772 3378 
Q 2772 3750 2511 3984 
Q 2250 4219 1831 4219 
Q 1534 4219 1204 4116 
Q 875 4013 500 3803 
L 500 4441 
Q 881 4594 1212 4672 
Q 1544 4750 1819 4750 
Q 2544 4750 2975 4387 
Q 3406 4025 3406 3419 
Q 3406 3131 3298 2873 
Q 3191 2616 2906 2266 
Q 2828 2175 2409 1742 
Q 1991 1309 1228 531 
z
" transform="scale(0.015625)"/>
       </defs>
       <use xlink:href="#DejaVuSans-2212"/>
       <use xlink:href="#DejaVuSans-32" x="83.789062"/>
       <use xlink:href="#DejaVuSans-2e" x="147.412109"/>
       <use xlink:href="#DejaVuSans-35" x="179.199219"/>
      </g>
     </g>
    </g>
    <g id="xtick_4">
     <g id="line2d_4">
      <g>
       <use xlink:href="#m5ee8137a87" x="210.437143" y="290.54169" style="stroke: #000000"/>
      </g>
     </g>
     <g id="text_4">
      <!-- 0.0 -->
      <g transform="translate(202.088003 304.120049) scale(0.105 -0.105)">
       <use xlink:href="#DejaVuSans-30"/>
       <use xlink:href="#DejaVuSans-2e" x="63.623047"/>
       <use xlink:href="#DejaVuSans-30" x="95.410156"/>
      </g>
     </g>
    </g>
    <g id="xtick_5">
     <g id="line2d_5">
      <g>
       <use xlink:href="#m5ee8137a87" x="262.639889" y="290.54169" style="stroke: #000000"/>
      </g>
     </g>
     <g id="text_5">
      <!-- 2.5 -->
      <g transform="translate(254.290749 304.120049) scale(0.105 -0.105)">
       <use xlink:href="#DejaVuSans-32"/>
       <use xlink:href="#DejaVuSans-2e" x="63.623047"/>
       <use xlink:href="#DejaVuSans-35" x="95.410156"/>
      </g>
     </g>
    </g>
    <g id="xtick_6">
     <g id="line2d_6">
      <g>
       <use xlink:href="#m5ee8137a87" x="314.842635" y="290.54169" style="stroke: #000000"/>
      </g>
     </g>
     <g id="text_6">
      <!-- 5.0 -->
      <g transform="translate(306.493494 304.120049) scale(0.105 -0.105)">
       <use xlink:href="#DejaVuSans-35"/>
       <use xlink:href="#DejaVuSans-2e" x="63.623047"/>
       <use xlink:href="#DejaVuSans-30" x="95.410156"/>
      </g>
     </g>
    </g>
    <g id="xtick_7">
     <g id="line2d_7">
      <g>
       <use xlink:href="#m5ee8137a87" x="367.045381" y="290.54169" style="stroke: #000000"/>
      </g>
     </g>
     <g id="text_7">
      <!-- 7.5 -->
      <g transform="translate(358.69624 304.120049) scale(0.105 -0.105)">
       <use xlink:href="#DejaVuSans-37"/>
       <use xlink:href="#DejaVuSans-2e" x="63.623047"/>
       <use xlink:href="#DejaVuSans-35" x="95.410156"/>
      </g>
     </g>
    </g>
    <g id="xtick_8">
     <g id="line2d_8">
      <g>
       <use xlink:href="#m5ee8137a87" x="419.248127" y="290.54169" style="stroke: #000000"/>
      </g>
     </g>
     <g id="text_8">
      <!-- 10.0 -->
      <g transform="translate(407.558674 304.120049) scale(0.105 -0.105)">
       <defs>
        <path id="DejaVuSans-31" d="M 794 531 
L 1825 531 
L 1825 4091 
L 703 3866 
L 703 4441 
L 1819 4666 
L 2450 4666 
L 2450 531 
L 3481 531 
L 3481 0 
L 794 0 
L 794 531 
z
" transform="scale(0.015625)"/>
       </defs>
       <use xlink:href="#DejaVuSans-31"/>
       <use xlink:href="#DejaVuSans-30" x="63.623047"/>
       <use xlink:href="#DejaVuSans-2e" x="127.246094"/>
       <use xlink:href="#DejaVuSans-30" x="159.033203"/>
      </g>
     </g>
    </g>
   </g>
   <g id="matplotlib.axis_2">
    <g id="ytick_1">
     <g id="line2d_9">
      <defs>
       <path id="m047643985d" d="M 0 0 
L 3 0 
" style="stroke: #000000"/>
      </defs>
      <g>
       <use xlink:href="#m047643985d" x="35.797535" y="257.929372" style="stroke: #000000"/>
      </g>
     </g>
     <g id="text_9">
      <!-- −2 -->
      <g transform="translate(14.718239 261.918552) scale(0.105 -0.105)">
       <use xlink:href="#DejaVuSans-2212"/>
       <use xlink:href="#DejaVuSans-32" x="83.789062"/>
      </g>
     </g>
    </g>
    <g id="ytick_2">
     <g id="line2d_10">
      <g>
       <use xlink:href="#m047643985d" x="35.797535" y="216.167176" style="stroke: #000000"/>
      </g>
     </g>
     <g id="text_10">
      <!-- 0 -->
      <g transform="translate(23.51691 220.156355) scale(0.105 -0.105)">
       <use xlink:href="#DejaVuSans-30"/>
      </g>
     </g>
    </g>
    <g id="ytick_3">
     <g id="line2d_11">
      <g>
       <use xlink:href="#m047643985d" x="35.797535" y="174.404979" style="stroke: #000000"/>
      </g>
     </g>
     <g id="text_11">
      <!-- 2 -->
      <g transform="translate(23.51691 178.394159) scale(0.105 -0.105)">
       <use xlink:href="#DejaVuSans-32"/>
      </g>
     </g>
    </g>
    <g id="ytick_4">
     <g id="line2d_12">
      <g>
       <use xlink:href="#m047643985d" x="35.797535" y="132.642782" style="stroke: #000000"/>
      </g>
     </g>
     <g id="text_12">
      <!-- 4 -->
      <g transform="translate(23.51691 136.631962) scale(0.105 -0.105)">
       <defs>
        <path id="DejaVuSans-34" d="M 2419 4116 
L 825 1625 
L 2419 1625 
L 2419 4116 
z
M 2253 4666 
L 3047 4666 
L 3047 1625 
L 3713 1625 
L 3713 1100 
L 3047 1100 
L 3047 0 
L 2419 0 
L 2419 1100 
L 313 1100 
L 313 1709 
L 2253 4666 
z
" transform="scale(0.015625)"/>
       </defs>
       <use xlink:href="#DejaVuSans-34"/>
      </g>
     </g>
    </g>
    <g id="ytick_5">
     <g id="line2d_13">
      <g>
       <use xlink:href="#m047643985d" x="35.797535" y="90.880586" style="stroke: #000000"/>
      </g>
     </g>
     <g id="text_13">
      <!-- 6 -->
      <g transform="translate(23.51691 94.869765) scale(0.105 -0.105)">
       <defs>
        <path id="DejaVuSans-36" d="M 2113 2584 
Q 1688 2584 1439 2293 
Q 1191 2003 1191 1497 
Q 1191 994 1439 701 
Q 1688 409 2113 409 
Q 2538 409 2786 701 
Q 3034 994 3034 1497 
Q 3034 2003 2786 2293 
Q 2538 2584 2113 2584 
z
M 3366 4563 
L 3366 3988 
Q 3128 4100 2886 4159 
Q 2644 4219 2406 4219 
Q 1781 4219 1451 3797 
Q 1122 3375 1075 2522 
Q 1259 2794 1537 2939 
Q 1816 3084 2150 3084 
Q 2853 3084 3261 2657 
Q 3669 2231 3669 1497 
Q 3669 778 3244 343 
Q 2819 -91 2113 -91 
Q 1303 -91 875 529 
Q 447 1150 447 2328 
Q 447 3434 972 4092 
Q 1497 4750 2381 4750 
Q 2619 4750 2861 4703 
Q 3103 4656 3366 4563 
z
" transform="scale(0.015625)"/>
       </defs>
       <use xlink:href="#DejaVuSans-36"/>
      </g>
     </g>
    </g>
    <g id="ytick_6">
     <g id="line2d_14">
      <g>
       <use xlink:href="#m047643985d" x="35.797535" y="49.118389" style="stroke: #000000"/>
      </g>
     </g>
     <g id="text_14">
      <!-- 8 -->
      <g transform="translate(23.51691 53.107569) scale(0.105 -0.105)">
       <defs>
        <path id="DejaVuSans-38" d="M 2034 2216 
Q 1584 2216 1326 1975 
Q 1069 1734 1069 1313 
Q 1069 891 1326 650 
Q 1584 409 2034 409 
Q 2484 409 2743 651 
Q 3003 894 3003 1313 
Q 3003 1734 2745 1975 
Q 2488 2216 2034 2216 
z
M 1403 2484 
Q 997 2584 770 2862 
Q 544 3141 544 3541 
Q 544 4100 942 4425 
Q 1341 4750 2034 4750 
Q 2731 4750 3128 4425 
Q 3525 4100 3525 3541 
Q 3525 3141 3298 2862 
Q 3072 2584 2669 2484 
Q 3125 2378 3379 2068 
Q 3634 1759 3634 1313 
Q 3634 634 3220 271 
Q 2806 -91 2034 -91 
Q 1263 -91 848 271 
Q 434 634 434 1313 
Q 434 1759 690 2068 
Q 947 2378 1403 2484 
z
M 1172 3481 
Q 1172 3119 1398 2916 
Q 1625 2713 2034 2713 
Q 2441 2713 2670 2916 
Q 2900 3119 2900 3481 
Q 2900 3844 2670 4047 
Q 2441 4250 2034 4250 
Q 1625 4250 1398 4047 
Q 1172 3844 1172 3481 
z
" transform="scale(0.015625)"/>
       </defs>
       <use xlink:href="#DejaVuSans-38"/>
      </g>
     </g>
    </g>
   </g>
   <g id="patch_3">
    <path d="M 35.797535 290.54169 
L 35.797535 10.8 
" style="fill: none; stroke: #000000; stroke-width: 0.8; stroke-linejoin: miter; stroke-linecap: square"/>
   </g>
   <g id="patch_4">
    <path d="M 446.082465 290.54169 
L 446.082465 10.8 
" style="fill: none; stroke: #000000; stroke-width: 0.8; stroke-linejoin: miter; stroke-linecap: square"/>
   </g>
   <g id="patch_5">
    <path d="M 35.797535 290.54169 
L 446.082465 290.54169 
" style="fill: none; stroke: #000000; stroke-width: 0.8; stroke-linejoin: miter; stroke-linecap: square"/>
   </g>
   <g id="patch_6">
    <path d="M 35.797535 10.8 
L 446.082465 10.8 
" style="fill: none; stroke: #000000; stroke-width: 0.8; stroke-linejoin: miter; stroke-linecap: square"/>
   </g>
  </g>
 </g>
 <defs>
  <clipPath id="pb15d70b57f">
   <rect x="35.797535" y="10.8" width="410.284929" height="279.74169"/>
  </clipPath>
 </defs>
</svg>
